<svg xmlns="http://www.w3.org/2000/svg" width="40" height="40"><g fill-rule="evenodd"><path fill="#D7A055" d="M13.15 29.45q-.45-1.9-.6-3.55-.15-1.55-.05-2.85.15-1.15.5-2.2.3-.9.8-1.7.45-.7 1.05-1.35.5-.5 1.2-1.1-.9.75 1.15-.95.65-.6 1.05-1 .9-.95 1.3-1.8.4-.8.3-1.4-.1-.55-.65-.85-.5-.35-1.35-.4-.85 0-1.9.25-1.1.3-2.3.9-1.3.6-2.55 1.55-1.4 1-2.65 2.35V2.55q.3-.15.55-.3l.6-.3q.3-.15.6-.25.3-.15.6-.25.3-.15.6-.25t.65-.2.65-.2q.3-.1.65-.15.35-.1.65-.15.35-.05.65-.15l.7-.1q.35-.05.65-.1.35-.05.7-.05.35-.05.7-.05.35-.05.7-.05t.7 0 .65 0q.35 0 .65.05.35 0 .65.05.35 0 .65.05t.6.05q.35.05.65.1.3.1.6.15t.55.1q.3.1.6.15.25.1.55.2l.5.2q.3.1.55.2t.5.25q.25.1.45.25l.5.3q.2.1.4.25t.45.35l.4.3q.15.2.35.4.2.15.35.35.2.2.35.4.15.25.3.45t.25.45.25.45q.15.25.25.5t.2.5q.1.3.15.55.1.3.15.55l.1.6.1.6q0 .3.05.65v1.25q0 .4-.05.8 0 .55-.05 1.05l-.2 1.2q-.15.65-.35 1.25-.25.7-.55 1.3-.35.65-.75 1.25-.5.6-1.05 1.15-.05.05-1.85 1.7-1 .9-1.45 1.4-.7.65-1.05 1.15-.45.55-.65 1.05-.25.5-.25 1.1-.05.55.1 1.25.15.65.45 1.55.3.75.85 1.95l.3.4q.1.2.25.4.1.25.2.45t.15.45.15.45l.1.5q.05.25.05.5v.55q0 .35-.05.7 0 .3-.05.65-.05.3-.15.6t-.25.6q-.1.3-.25.55-.15.3-.35.55t-.4.5-.45.45q-.25.25-.55.45-.25.2-.55.35-.25.2-.6.35-.3.15-.6.25t-.65.2-.7.15-.75.05-.75.05-.75-.05-.75-.05-.7-.15q-.3-.1-.65-.2l-.6-.3q-.3-.1-.6-.3-.3-.15-.55-.4-.3-.2-.55-.4l-.5-.5-.4-.5q-.2-.3-.35-.55l-.3-.6q-.15-.25-.2-.55l-.2-.6q-.05-.35-.1-.65v-1.25q.05-.25.1-.55t.1-.55l.2-.5.2-.5.3-.5q.15-.2.3-.45.15-.2.35-.45m5.65 8.1h-.45q-.25-.05-.45-.1-.25 0-.45-.05t-.4-.15-.4-.15-.35-.2q-.2-.1-.35-.25-.2-.1-.35-.25t-.3-.3-.25-.35l-.2-.3q-.1-.2-.2-.35-.1-.2-.15-.35l-.1-.4q-.05-.2-.05-.4t0-.4 0-.4q.05-.2.05-.4.05-.2.1-.35.05-.2.15-.35.1-.2.2-.35.1-.2.2-.35t.25-.3.3-.3.35-.25.35-.25q.15-.1.35-.15l.4-.2.4-.1.4-.1q.25-.05.45-.05h.95q.25.05.45.05l.4.1.4.1.4.2q.2.05.35.15.2.15.35.25t.35.25l.3.3q.1.15.25.3l.2.3q.1.2.15.35.1.2.15.4.05.15.1.35t.05.4 0 .4 0 .45q-.05.2-.05.4-.05.2-.1.35-.05.2-.15.4-.05.15-.15.35l-.2.3q-.15.2-.25.35-.15.15-.3.25-.15.15-.3.25-.2.15-.35.25l-.4.2q-.15.1-.35.15-.2.1-.4.15-.25.05-.45.05-.2.05-.45.1h-.45m-3.5-10.5q-.05-.1-.05-.15-.05-.1-.05-.15-.05-.1-.05-.2-.05-.05-.05-.15-.05-.1-.05-.2-.05-.1-.05-.15-.05-.1-.05-.2t-.05-.2v-.2q-.05-.1-.05-.2t0-.15q0-.1-.05-.2v-1.5q.05-.15.05-.25v-.25q.05-.15.05-.25.05-.15.05-.25.05-.1.05-.25.05-.1.05-.2.05-.15.05-.25l.1-.2q.05-.1.05-.2.05-.15.1-.25t.1-.2.1-.2.1-.2.1-.2.15-.2l.1-.2q.05-.1.15-.2.05-.1.1-.15.1-.1.15-.2.1-.1.15-.2l.2-.2q.1-.1.15-.2.1-.05.15-.15l.2-.2q.1-.05.2-.15.05-.1.15-.2t.2-.15l.2-.2q.15-.1.25-.2t.2-.2q.15-.05.25-.15t.2-.2.2-.15l.2-.2.15-.15.2-.2q.1-.05.2-.15t.15-.15q.1-.1.15-.2.1-.05.15-.15l.15-.15q.1-.1.15-.2l.15-.15q.05-.1.1-.15l.15-.15q.05-.1.1-.15l.1-.2q.05-.1.1-.15l.1-.2q.05-.1.1-.15l.1-.2q0-.1.05-.15.05-.1.05-.2.05-.1.05-.2.05-.05.05-.15.05-.1.05-.2t.05-.2v-.2q.05-.1.05-.2t0-.2 0-.2 0-.2 0-.15q0-.1-.05-.2v-.15q-.05-.1-.05-.2t-.05-.15-.05-.15q-.05-.1-.05-.2-.05-.1-.05-.15-.05-.1-.1-.15t-.1-.15-.1-.15l-.1-.1q-.05-.05-.1-.15l-.1-.1q-.05-.05-.1-.15-.05-.05-.15-.1l-.1-.1q-.1-.05-.15-.1-.1-.05-.15-.1-.1-.05-.15-.05l-.2-.1q-.05-.05-.15-.1-.1 0-.15-.05-.1-.05-.2-.05-.1-.05-.15-.05-.1-.05-.2-.05-.1-.05-.2-.05t-.2 0q-.1-.05-.2-.05t-.2 0h-.7q-.25 0-.5.05-.2 0-.45.05t-.5.1-.5.1q-.2.05-.45.15-.25.05-.5.15-.25.05-.5.15t-.5.2q-.25.15-.5.25-.25.15-.5.25-.25.15-.45.3l-.5.3q-.25.15-.45.35-.25.15-.45.35-.25.2-.45.4V4.25q.25-.15.45-.25.25-.15.5-.25.2-.1.45-.25l.5-.2.5-.2q.25-.1.55-.15l.5-.2q.3-.05.55-.15.25-.05.55-.1.25-.1.55-.15t.55-.05q.3-.05.55-.1.3-.05.6-.05.25-.05.55-.05t.55-.05h1.15q.3 0 .55.05.25 0 .55.05.25 0 .5.05.25 0 .5.05t.5.1.5.1.5.1.45.15q.25.05.5.15.2.05.4.15.25.1.45.2t.4.2.4.2.4.25q.15.1.35.25t.35.25l.3.3q.2.15.3.3.15.2.3.35t.3.35q.1.2.25.35l.2.4.2.4.2.4q.1.25.15.45.1.25.15.45l.1.5.1.5q.05.25.05.55.05.25.05.5v1.3q0 .2-.05.35v.35q-.05.15-.05.3-.05.15-.05.35l-.1.3q0 .15-.05.3t-.1.3-.1.3q-.05.1-.1.25t-.15.3q-.05.15-.1.25-.05.15-.15.3-.05.15-.15.25-.05.15-.15.3t-.15.25q-.1.15-.2.25-.1.15-.2.25-.05.15-.15.25-.1.15-.25.25-.1.15-.2.25-.1.15-.2.25l-.25.25-.25.25-.25.25q-.15.1-.25.25-.15.1-.3.25l-.25.25q-.15.1-.3.25-.15.1-.3.25-.15.1-.3.25-.1.1-.2.15l-.2.2q-.1.05-.2.15t-.2.15q-.1.1-.15.2-.1.05-.2.15-.1.05-.15.15-.1.05-.2.15-.1.05-.15.15l-.15.15-.15.15q-.05.05-.1.15-.1.05-.15.15-.05.05-.1.15l-.15.15q-.05.05-.1.15-.05.05-.1.15-.05.05-.1.15-.05.05-.05.15-.05.05-.1.15-.05.05-.1.15 0 .05-.05.15t-.05.15-.05.15q-.05.1-.05.2-.05.05-.05.15-.05.1-.05.2t-.05.2v.35q-.05.1-.05.2t0 .2 0 .15v.15q.05.1.05.15v.15q0 .05.05.15v.15q0 .05.05.15v.15q0 .1.05.15 0 .05.05.15 0 .05.05.1 0 .1.05.15t.05.1q.05.1.05.15l.1.1q0 .05.05.1h-6.3"/><path d="M15.3 27.05q-.05-.1-.05-.15-.05-.1-.05-.15-.05-.1-.05-.2-.05-.05-.05-.15-.05-.1-.05-.2-.05-.1-.05-.15-.05-.1-.05-.2t-.05-.2v-.2q-.05-.1-.05-.2t0-.15q-.05-.1-.05-.2t0-.2 0-.15V23.4q.05-.15.05-.25v-.25q.05-.15.05-.25.05-.15.05-.25t.05-.25q.05-.1.05-.2.05-.15.05-.25l.1-.2q.05-.1.05-.2.05-.15.1-.25t.1-.2.1-.2.1-.2.1-.2.15-.2l.1-.2q.05-.1.15-.2.05-.1.1-.15.1-.1.15-.2.1-.1.15-.2.1-.1.15-.2.1-.1.15-.2.1-.05.2-.15t.2-.2q.1-.05.15-.15l.2-.2q.1-.1.2-.15l.2-.2q.15-.1.25-.2t.2-.2q.15-.05.25-.15t.2-.2.2-.15l.2-.2.15-.15.2-.2q.1-.05.2-.15t.15-.15q.1-.1.15-.2.1-.05.15-.15l.15-.15q.1-.1.15-.2l.15-.15q.05-.1.1-.15l.15-.15q.05-.1.1-.15l.1-.2q.05-.1.1-.15l.1-.2q.05-.1.1-.15.05-.1.05-.2.05-.1.1-.15.05-.1.05-.2.05-.1.05-.15.05-.1.05-.2.05-.1.05-.2t.05-.2v-.2q.05-.1.05-.2t0-.2 0-.2 0-.2 0-.15q-.05-.1-.05-.2t0-.15q-.05-.1-.05-.2-.05-.1-.05-.15-.05-.1-.05-.15-.05-.1-.05-.2-.05-.1-.1-.15 0-.1-.05-.15t-.1-.15-.1-.15l-.1-.1q-.05-.05-.1-.15l-.1-.1-.1-.1q-.05-.05-.15-.1-.05-.1-.1-.15-.1-.05-.15-.1-.1-.05-.15-.1-.1 0-.15-.05l-.2-.1Q20 8.7 19.9 8.7q-.1-.05-.15-.1-.1-.05-.2-.05-.1-.05-.15-.05-.1-.05-.2-.05-.1-.05-.2-.05t-.2 0q-.1-.05-.2-.05t-.2 0h-.7q-.25 0-.5.05-.2 0-.45.05t-.5.1-.5.1q-.2.05-.45.15-.25.05-.5.15-.25.05-.5.15t-.5.2q-.25.15-.5.25-.25.15-.5.25-.25.15-.45.3l-.5.3q-.25.15-.45.35-.25.15-.45.35l-.5.4V4.25q.25-.15.45-.25.25-.15.5-.25t.5-.25l.5-.2.5-.2q.25-.1.55-.15l.5-.2q.3-.05.55-.15.25-.05.55-.1.25-.1.55-.15.25-.05.55-.05.3-.05.55-.1.3-.05.6-.05.25-.05.55-.05t.55-.05h1.15q.3 0 .55.05.25 0 .55.05.25 0 .5.05.25 0 .5.05t.5.1.5.1.5.1.45.15.45.15.45.15q.25.1.45.2t.4.2.4.2.35.25q.2.1.4.25t.35.25l.3.3.3.3q.15.2.3.35t.3.35q.1.2.25.35l.2.4.2.4.2.4q.1.25.15.45.1.25.15.45l.1.5.1.5q.05.25.05.55.05.25.05.5v1.3q0 .2-.05.35v.35q-.05.15-.05.3-.05.15-.05.35l-.1.3q-.05.15-.05.3l-.1.3-.1.3q-.05.1-.1.25t-.15.3q-.05.15-.1.25-.05.15-.15.3-.05.15-.15.25-.05.15-.15.3t-.15.25q-.1.15-.2.25-.1.15-.2.25-.05.15-.15.25-.1.15-.25.25-.1.15-.2.25-.1.15-.2.25l-.25.25-.25.25-.25.25q-.15.1-.25.25-.15.1-.3.25l-.25.25q-.15.1-.3.25-.15.1-.3.25-.15.1-.3.25-.1.1-.2.15l-.2.2q-.1.05-.2.15t-.2.15l-.2.2-.15.15q-.1.05-.15.15-.1.05-.2.15-.1.05-.15.15l-.15.15-.15.15q-.05.05-.1.15-.1.05-.15.15-.05.05-.1.15l-.15.15q-.05.05-.1.15-.05.05-.1.15-.05.05-.1.15-.05.05-.1.15 0 .05-.05.15-.05.05-.1.15 0 .05-.05.15t-.05.15-.05.15q-.05.1-.05.2-.05.05-.05.15-.05.1-.05.2t-.05.2v.35q-.05.1-.05.2t0 .2 0 .15v.15q0 .1.05.15v.3q.05.05.05.15 0 .05.05.15v.15q0 .1.05.15 0 .05.05.15 0 .05.05.1 0 .1.05.15t.05.1q.05.1.05.15.05.05.05.1l.1.1h-6.3m3.5 10.5h-.45l-.5-.1q-.2 0-.4-.05t-.4-.15-.4-.15-.4-.2q-.15-.1-.3-.25-.2-.1-.35-.25t-.3-.3-.25-.35l-.2-.3q-.1-.2-.2-.35-.1-.2-.15-.35l-.1-.4q-.05-.2-.05-.4t0-.4 0-.4q.05-.2.05-.4.05-.2.1-.35.05-.2.15-.35.1-.2.2-.35.1-.2.2-.35t.25-.3.3-.3.35-.25q.15-.15.3-.25l.4-.2q.2-.05.4-.15l.4-.1.4-.1q.25-.05.45-.05h.95q.25.05.45.05l.4.1.4.1.4.2q.2.05.35.15.2.15.35.25.15.15.3.25l.3.3q.15.15.25.3.15.15.25.3.1.2.15.35.1.2.15.35l.1.4q.05.2.05.4t0 .4 0 .45q-.05.2-.05.4-.05.2-.1.35-.05.2-.15.4-.05.15-.15.35l-.2.3q-.15.2-.25.35-.15.15-.3.25-.15.15-.3.25-.2.15-.35.25l-.4.2q-.15.1-.35.15-.2.1-.4.15-.25.05-.45.05-.2.05-.45.1h-.45"/></g></svg>