<svg xmlns="http://www.w3.org/2000/svg" width="30.3" height="42"><g fill-rule="evenodd"><path fill="#d3c9b4" d="M0 2.9h1.65L3.35 0h1.7l1.3 2.35L7.7 0h1.7l1.35 2.35L12.05 0h1.7l1.35 2.35L16.45 0h1.7l1.3 2.35L20.8 0h1.7l1.35 2.35L25.15 0h1.7l1.65 2.9h1.8v17.35q0 4.2-2.75 9.55-3.85 7.6-11.3 11.85l-.35.35h-1.5l-.35-.35Q6.6 37.4 2.75 29.8 0 24.45 0 20.25V2.9m4.2-.7L1.8 6.15v12.3l7.65-1.8.6.4 3.3-3.15-.4-.6 1.85-7.85-1.9-3.25-2.15 3.75-2.2-3.75-2.2 3.75L4.2 2.2m13.1 0-1.9 3.25 1.85 7.85-.4.6 3.2 3.15.6-.4 7.85 1.9V6.15h-.2L26 2.2l-2.15 3.75-2.2-3.75-2.2 3.75L17.3 2.2m11.2 16.9-7.85 1.85-.6-.4-3.2 3.4.4.6-1.75 14.6-.25 1.05q6.9-3.95 10.6-11 2.65-5.1 2.65-8.95V19.1m-13.45-3.35L11.9 18.9l3.2 3.1 3.25-3.25-3.3-3M1.8 19.15v1.1q0 3.85 2.65 8.95Q8.1 36.2 15 40.15l-.25-1-1.8-14.6.4-.6-3.3-3.4-.6.4-7.65-1.8"/><path fill="#6e5050" d="m4.2 2.2 2.15 3.75 2.2-3.75 2.2 3.75L12.9 2.2l1.9 3.25-1.85 7.85.4.6-3.3 3.15-.6-.4-7.65 1.8V6.15L4.2 2.2m13.1 0 2.15 3.75 2.2-3.75 2.2 3.75L26 2.2l2.3 3.95h.2v12.4l-7.85-1.9-.6.4-3.2-3.15.4-.6-1.85-7.85 1.9-3.25m-2.25 13.55 3.3 3L15.1 22l-3.2-3.1 3.15-3.15M28.5 19.1v1.15q0 3.85-2.65 8.95-3.7 7.05-10.6 11l.25-1.05 1.75-14.6-.4-.6 3.2-3.4.6.4 7.85-1.85m-26.7.05 7.65 1.8.6-.4 3.3 3.4-.4.6 1.8 14.6.25 1Q8.1 36.2 4.45 29.2 1.8 24.1 1.8 20.25v-1.1"/></g></svg>