<svg xmlns="http://www.w3.org/2000/svg" width="30.25" height="41.8"><g fill-rule="evenodd"><path fill="#41553c" d="M7.2 33.7h-5l.25-2.2q1.45.05 1.35 1.1l1.05-.9.4.1.5-.65.3.75-.35.4q1.35.45 1.5 1.4m6.1 1.15.8-3.25q1.15.2 1.4-1.35-.45-2.15.9-2.35l1.2 1.05.75 6.55-3.25 3.4-3.05-3.25 1.25-.8m9-15.75.65.7 1.3.25 3 5.65.25 2.4h-.2q.1-.4-.6.1-1.1.85-2.2 0-.05-2-.5-2.9-1.2-.3-1.4-1.4l.25-2q-.85-1-.55-2.8m1.85 13.2q1.3.65 1.75.1.4-1.45 1.9-.95l.25 2.25h-4.1q-.2-.9.2-1.4M14.9 11.65l.3-.95-.6-1.6V7.8l.7-1.6q-.3-1.35.1-1.9.85 0 1.3.8v7.5q-.7.15-1.8-.95"/><path fill="#a0a0a0" d="m17.6 28.95-1.2-1.05q-1.35.2-.9 2.35-.25 1.55-1.4 1.35l-.8 3.25-1.25.8-.15-.15 1.65-15.25-.05-2.7-1.95 1.35-1.6 2.45L7.3 27.5l-.25 4.15.5 2.05H7.2q-.15-.95-1.5-1.4l.35-.4-.3-.75-.5.65-.4-.1-1.05.9q.1-1.05-1.35-1.1l.6-5.95L6 20.05l1.3-.25 6.2-6.9V4l1.15-2h.9l1.15 2v1.1q-.45-.8-1.3-.8-.4.55-.1 1.9l-.7 1.6v1.3l.6 1.6-.3.95q1.1 1.1 1.8.95v.3l5.6 6.2q-.3 1.8.55 2.8l-.25 2q.2 1.1 1.4 1.4.45.9.5 2.9 1.1.85 2.2 0 .7-.5.6-.1h.2l.3 3.35q-1.5-.5-1.9.95-.45.55-1.75-.1-.4.5-.2 1.4H22.7l.5-2.05-.25-4.15-2.7-6.25-1.55-2.35-2-1.35v2.75l.9 8.65"/><path fill="#323232" d="m12.05 35.65 3.05 3.25 3.25-3.4-.75-6.55-.9-8.65v-2.75l2 1.35 1.55 2.35 2.7 6.25.25 4.15-.5 2.05h5.35l-.25-2.25-.3-3.35-.25-2.4-3-5.65-1.3-.25-.65-.7-5.6-6.2V4l-1.15-2h-.9L13.5 4v8.9l-6.2 6.9-1.3.25-2.95 5.5-.6 5.95-.25 2.2h5.35l-.5-2.05.25-4.15 2.65-6.15 1.6-2.45 1.95-1.35.05 2.7L11.9 35.5l.15.15m-.5-32.2L13.5 0h3.2l2 3.45v8.7l5.25 5.8 1.65.35 3.6 6.85 1.05 10.55-9.8.5-5.35 5.6-5.3-5.6-9.8-.5 1.1-10.75 3.55-6.65 1.65-.35 5.25-5.8v-8.7"/></g></svg>