<svg xmlns="http://www.w3.org/2000/svg" width="25.3" height="40.35"><g fill-rule="evenodd"><path fill="#73694b" d="M17.2 3.9q-4.55-3.35-9.1 0-1.3 1-2.2 2.4l-.8 1.55H2V9.8h1v4.3l1.65 1.8v15.85l7.9 6.3 8.1-6.3V15.9l1.65-1.8V9.8h1V7.85h-3.1l-.8-1.55q-.9-1.4-2.2-2.4M3.85 5.55Q6.25 1.3 10.6.3V.05L14.65 0v.3q4.4 1 6.8 5.25h3.85v6h-1v3.05l-1.65 1.8v16.05l-10.1 7.9-9.9-7.9V16.4L1 14.6v-3.05H0v-6h3.85"/><path fill="#73694b" d="M15.95 18.6v9.1H9.3v-9.1q0-2.05 1-3.5.95-1.5 2.35-1.6 1.4.1 2.35 1.6.95 1.45.95 3.5"/><path fill="#d2be5a" d="M17.2 3.9q1.3 1 2.2 2.4l.8 1.55h3.1V9.8h-1v4.3l-1.65 1.8v15.85l-8.1 6.3-7.9-6.3V15.9L3 14.1V9.8H2V7.85h3.1l.8-1.55q.9-1.4 2.2-2.4 4.55-3.35 9.1 0m-1.25 14.7q0-2.05-.95-3.5-.95-1.5-2.35-1.6-1.4.1-2.35 1.6-1 1.45-1 3.5v9.1h6.65v-9.1"/></g></svg>