<svg xmlns="http://www.w3.org/2000/svg" width="31.3" height="39.35"><g fill-rule="evenodd"><path fill="#769aa2" d="M22.75 6.5v1.1q-1.25 1.1-2 2.95-1.55 3.65 0 8.95.85 2.95 2 4v1.1H12.1q-2.15-.05-3.65-2.8-1.6-2.95-1.6-7.3 0-3.1 1.6-5.5 1.6-2.45 3.65-2.5h10.65"/><path fill="#7a5b4d" d="M16.4 6.5h-1.65V2h1.65v4.5m-1.65 18.1h1.65v4.55l6.35-.2q2.05-.05 3-3.05.8-2.5.4-4.35-.8-3.6.5-5.05.7-.85 1.4.2.65.95.3 1.55l-.5.4-.45-.45q-1.5-.6.7 4.35 1.2 2.7 1.2 6.65 0 8.15-9.55 8.15h-8.2q-3.85 0-6.25-1.5l-.25-.15Q2 33.55 2 29.2q0-3.95 1.2-6.65 2.2-5 .75-4.35l-.5.45-.5-.4q-.35-.6.3-1.55.7-1.05 1.4-.2l.4.6.35.95q.25 1.3-.25 3.5l-.1 1.7q.05 1.25.5 2.65.95 3 3 3.05l6.2.15v-4.5"/><path fill="#2d2d2d" d="M16.4 24.6h6.35v-1.1q-1.15-1.05-2-4-1.55-5.3 0-8.95.75-1.85 2-2.95V6.5H16.4V2h-1.65v4.5H12.1q-2.05.05-3.65 2.5-1.6 2.4-1.6 5.5 0 4.35 1.6 7.3 1.5 2.75 3.65 2.8h2.65v4.5l-6.2-.15q-2.05-.05-3-3.05-.45-1.4-.5-2.65l.1-1.7q.5-2.2.25-3.5l-.35-.95-.4-.6q-.7-.85-1.4.2-.65.95-.3 1.55l.5.4.5-.45q1.45-.65-.75 4.35Q2 25.25 2 29.2q0 4.35 3.05 6.5l.25.15q2.4 1.5 6.25 1.5h8.2q9.55 0 9.55-8.15 0-3.95-1.2-6.65-2.2-4.95-.7-4.35l.45.45.5-.4q.35-.6-.3-1.55-.7-1.05-1.4-.2-1.3 1.45-.5 5.05.4 1.85-.4 4.35-.95 3-3 3.05l-6.35.2V24.6M7.05 7.5l1.6-1.7q1.55-1.25 3.4-1.3h.7V0h5.65v4.5h6.35v4l-.65.6q-.9.75-1.5 2.1-1.3 3.15.1 7.8.7 2.4 1.4 3l.1.15V22q-.95-4.35.75-6.55 1-1.35 2.35-1.35 1.45 0 2.45 1.45 1.85 2.85-.55 4.65l1.45 3.5q.65 2.35.65 5.5 0 4.75-3.05 7.45t-8.5 2.7h-8.2q-3.85 0-6.5-1.35l-2-1.35Q0 33.95 0 29.2q0-3.15.65-5.5l1.45-3.5q-2.35-1.9-.5-4.65.95-1.45 2.4-1.45l.85.15.2-2q.45-2.65 2-4.75"/></g></svg>