<svg xmlns="http://www.w3.org/2000/svg" width="22.45" height="50.2"><g fill-rule="evenodd"><path fill="#c98014" d="m13.4 12.25-2.15 4.35-2.2-4.35-.75.05-.25-.6 3.2-6.55 3.05 6.55-.3.6-.6-.05"/><path fill="#d8a256" d="m11.25 36.1-8.3-21.3 4.75-.25 3.55 7.2 3.4-7.2 4.8.25-8.2 21.3"/><path fill="#6e503c" d="M16.65 28.1q2.1 2.65 2.1 6.45L18.7 48.2H4.4V34.6q0-3.4 1.7-5.9l.95 2.4q-.65 1.55-.65 3.45V46.2h10.3l.05-11.65q0-2.4-1-4.2l.9-2.25"/><path fill="#2d2d2d" d="m16.65 28.1-.9 2.25q1 1.8 1 4.2L16.7 46.2H6.4V34.55q0-1.9.65-3.45l-.95-2.4q-1.7 2.5-1.7 5.9v13.6h14.3l.05-13.65q0-3.8-2.1-6.45M13.4 12.25l.6.05.3-.6-3.05-6.55-3.2 6.55.25.6.75-.05 2.2 4.35 2.15-4.35M11.25 36.1l8.2-21.3-4.8-.25-3.4 7.2-3.55-7.2-4.75.25 8.3 21.3M0 12.9l6.05-.4-.45-.8L11.25 0l5.6 11.7-.45.8 6.05.4-5 13.05.6.7q2.7 3.3 2.7 7.9L20.7 50.2H2.4V34.6q0-4.65 2.7-7.9l.15-.2L0 12.9"/></g></svg>