<svg xmlns="http://www.w3.org/2000/svg" width="37.55" height="68.2"><g fill-rule="evenodd"><path fill="#2d2d2d" d="M18.8 3.85q-6.2 0-10.6 5.8-4.35 5.75-4.35 13.9v40.8h29.9l.1-40.8q0-8.15-4.45-13.9-4.35-5.8-10.6-5.8m7.55 27.2q0 3.95-3.2 6.25l3.8 13.2H10.7l3.55-13.1q-1.55-1.05-2.4-2.7-1-1.75-1-3.65 0-3.2 2.3-5.5 2.25-2.25 5.45-2.25 3.25 0 5.5 2.25 2.25 2.3 2.25 5.5M18.8 0q7.8 0 13.3 6.95 5.45 6.9 5.45 16.6V68.2H0V23.75q0-9.9 5.5-16.8Q11.05 0 18.8 0"/><path fill="#d7a055" d="M26.35 31.05q0-3.2-2.25-5.5-2.25-2.25-5.5-2.25-3.2 0-5.45 2.25-2.3 2.3-2.3 5.5 0 1.9 1 3.65.85 1.65 2.4 2.7L10.7 50.5h16.25l-3.8-13.2q3.2-2.3 3.2-6.25M18.8 3.85q6.25 0 10.6 5.8 4.45 5.75 4.45 13.9l-.1 40.8H3.85v-40.8q0-8.15 4.35-13.9 4.4-5.8 10.6-5.8"/></g></svg>