<svg xmlns="http://www.w3.org/2000/svg" width="22.1" height="42"><g fill-rule="evenodd"><path fill="#d7a055" d="m14.45 14.55 4.7.3-8.1 21.35L2.9 14.85l4.7-.3 3.45 7.3 3.4-7.3"/><path fill="#2d2d2d" d="m13.15 12.25.65.05.3-.6-3.05-6.55-3.1 6.55.2.6.75-.05 2.15 4.45 2.1-4.45m1.3 2.3-3.4 7.3-3.45-7.3-4.7.3 8.15 21.35 8.1-21.35-4.7-.3M0 12.9l5.9-.4-.4-.8L11.05 0l5.5 11.7-.4.8 5.95.4L11.05 42 0 12.9"/><path fill="#c88214" d="m13.15 12.25-2.1 4.45-2.15-4.45-.75.05-.2-.6 3.1-6.55 3.05 6.55-.3.6-.65-.05"/></g></svg>