<svg xmlns="http://www.w3.org/2000/svg" width="20.95" height="40.45"><g fill-rule="evenodd"><path fill="#2d2d2d" d="m11.5 5.1-.7-3.2h-1l-.55 3.25-.7 1.2q-.9 1.4-2.6 3.15l-1.7 1.9q-.65 1-.65 2v4.25l.85-2.2Q6 12.4 8.85 11.4l-.3 3q-.85 1.35-3.1 3.7L3.6 20.2q-.75 1.1-.75 2.25v4.7l.95-2.45q1.65-3.35 4.35-4.3l-.3 3.05L2.95 29q-.85 1.2-.85 2.45v5.15l1.05-2.7q1-2 2.35-3.2l1.95-1.3-.3 4.55 3.45 3.25 3.3-3.1-.35-4.65q2.5 1.1 4.2 4.45l1.05 2.7v-5.15q0-1.25-.8-2.45l-4.85-5.5-.35-3.1q2.6.95 4.35 4.3l.95 2.45v-4.7q0-1.15-.75-2.25l-1.85-2.1q-2.1-2.1-3.15-3.8l-.3-2.9q2.8.8 4.45 4.05l.85 2.2V13.4q0-1-.7-2l-3.5-3.8-.95-1.25-.7-1.25M6.1 6.35l1.1-1.6L8 .1l4.55-.1 1 4.75 1.05 1.6 3.95 4.3q.95 1.45.95 3.05v6.25q.7 1.25.7 2.8v6.1q.75 1.4.75 2.9v5.9H16.8l-.85-2.25-5.35 5.05-5.55-5.25-.9 2.45H0v-5.9q0-1.6.7-2.9v-6.1q0-1.45.75-2.8V13.7q0-1.6.95-3.05l3.7-4.3"/><path fill="#5a4641" d="m11.5 5.1-2.25.05.55-3.25h1l.7 3.2m2.05 24.35.35 4.65-3.3 3.1-3.45-3.25.3-4.55 6.1.05"/><path fill="#4b864b" d="m9.25 5.15 2.25-.05.7 1.25.95 1.25 3.5 3.8q.7 1 .7 2v4.25l-.85-2.2q-1.65-3.25-4.45-4.05l.3 2.9q1.05 1.7 3.15 3.8l1.85 2.1q.75 1.1.75 2.25v4.7l-.95-2.45q-1.75-3.35-4.35-4.3l.35 3.1L18 29q.8 1.2.8 2.45v5.15l-1.05-2.7q-1.7-3.35-4.2-4.45l-6.1-.05-1.95 1.3q-1.35 1.2-2.35 3.2L2.1 36.6v-5.15q0-1.25.85-2.45l4.9-5.55.3-3.05q-2.7.95-4.35 4.3l-.95 2.45v-4.7q0-1.15.75-2.25l1.85-2.1q2.25-2.35 3.1-3.7l.3-3q-2.85 1-4.4 4.05l-.85 2.2V13.4q0-1 .65-2l1.7-1.9q1.7-1.75 2.6-3.15l.7-1.2"/></g></svg>