<svg xmlns="http://www.w3.org/2000/svg" width="40" height="38.4"><g fill-rule="evenodd"><path fill="#c88214" d="m14.15 14.85 2.05-.05-.7 7.85 2.5-.2-.3 2.05-4.45.4.9-10.05m9.1.35L23.8 9l-7.25 1.8-.1.7-2 .25.25-2.8 21.85-6L29.2 23.5l-8.05.7.3-2.05 5.9-.55 2-7.05-6.1.65"/><path fill="#d7a055" d="m26 21.1-2 .05.2-2.3-7.7.7.35-2.05 9.55-.85-.4 4.45m-2.75 8.35.4-4.65 2.05-.25-.8 9.35-5.05-5.05.75-2.05 2.65 2.65m-4.95-4.4.6-5 2-.15-.6 5.3q0 .85-.4 1.95-.75 1.8-2.25 2.55-1.9.9-3.95.5-2.1-.35-3.65-1.9-1.65-1.7-2-3.95t.8-4.05q1.35-2.2 4.3-2.5L13 19.85q-1.55.15-2.45 1.5-.8 1.25-.5 2.8t1.45 2.7q1.05 1.1 2.55 1.35l2.7-.3q1.45-.7 1.55-2.85m3.2-13.3-.5 4.6-2 .2.3-2.6-10.55.95 2.65 2.7-2 .8-5.15-5.15 17.25-1.5"/><path fill="#2d2d2d" d="m14.15 14.85-.9 10.05 4.45-.4.3-2.05-2.5.2.7-7.85-2.05.05m4.15 10.2q-.1 2.15-1.55 2.85l-2.7.3q-1.5-.25-2.55-1.35-1.15-1.15-1.45-2.7t.5-2.8q.9-1.35 2.45-1.5l.15-2.05q-2.95.3-4.3 2.5-1.15 1.8-.8 4.05t2 3.95q1.55 1.55 3.65 1.9 2.05.4 3.95-.5 1.5-.75 2.25-2.55.4-1.1.4-1.95l.6-5.3-2 .15-.6 5m4.95 4.4L20.6 26.8l-.75 2.05 5.05 5.05.8-9.35-2.05.25-.4 4.65M26 21.1l.4-4.45-9.55.85-.35 2.05 7.7-.7-.2 2.3 2-.05M40 0l-9.1 25.4-3 .25-1.15 12.75-7.25-7.3-.75.45q-1.6.8-3.6.8-3.7 0-6.25-2.65-2.15-2.15-2.6-5.1-.45-3 1.05-5.4l.1-.1L0 11.65l12.75-1.15.3-3.15L40 0M23.25 15.2l6.1-.65-2 7.05-5.9.55-.3 2.05 8.05-.7 7.35-20.55-21.85 6-.25 2.8 2-.25.1-.7L23.8 9l-.55 6.2m-1.75-3.45-17.25 1.5L9.4 18.4l2-.8-2.65-2.7 10.55-.95-.3 2.6 2-.2.5-4.6"/></g></svg>