<svg xmlns="http://www.w3.org/2000/svg" width="43" height="35.7"><g fill-rule="evenodd"><path fill="#e1aaa5" d="m11.9 12.85-6.7 1.1q-3.7.3-3.7-1.25 0-1.35 3.6-2.55 4.9-1.7 6.45-2.75l5.5-3.65q3.9-2.25 6.4-2.25Q27 1.5 33.9 5.4l5.55 3.3q2.05 1.5 2.05 3.25 0 2.7-9.25.8l-2.2-.45-2.4-.4-2.1-.25-3.1-.15-3.9.2-2.1.3-2.35.4-2.2.45"/><path fill="#5a5046" d="m27.65 11.9 2.4.4-4.15 2.85q-1.2 1-1.55 2.2v-.3q.05-1.05.65-2l2.65-3.15m-8.05 5.15q-.4-1-1.45-1.9L14.1 12.4l2.35-.4 2.6 3.05q.55.95.55 2"/><path fill="#e1c3aa" d="m28.4 30.95 1.6 1.1 3.25.05q.8 0 .95.7.15.75-.55 1l-2 .4H12.4l-2-.4-.5-.5v-.65q.15-.3.9-.45l3.05-.1 1.75-1.15 1.5-1.75q.55-.8 1.2-3.5l1.2-5.8.1-2.85q0-1.05-.55-2L16.45 12l2.1-.3 2.15 2.5q1.65 2.7.25 8.05l-.95 4.2q-.7 2.85-1.35 3.75l-.65.95-.95.95H27l-.95-.95-.65-.95q-.65-.95-1.35-3.8l-1-4.15q-1.2-5.6.3-8.05l2.2-2.55 2.1.25L25 15.05q-.6.95-.65 2v.3l.2 2.55 1.2 5.8q.65 2.7 1.2 3.5l1.45 1.75"/><path fill="#c8b496" d="m15.6 30.95-7.1-.05-.5-.35-.1-.6q.1-.75.9-.75h2.15q1.75-.5 3.9-3.9 4-6.55 2.55-8.3l-2.5-1.95q-2.1-1.2-3-2.2l2.2-.45 4.05 2.75q1.05.9 1.45 1.9l-.1 2.85q-2.7 7.65-4.8 9.3h2.4l-1.5 1.75m16.65-18.2-3.1 2.3q-2 1.2-2.55 1.95-1.55 1.8 2.6 8.3 2.15 3.4 3.85 3.9h2.15q.85 0 .95.75.1.8-.65.95l-1.35.1-5.75-.05-1.45-1.75h2.35q-2.25-1.75-4.75-9.3l-.2-2.55q.35-1.2 1.55-2.2l4.15-2.85 2.2.45"/><path fill="#aa7873" d="M32.25 12.75q9.25 1.9 9.25-.8 0-1.75-2.05-3.25L33.9 5.4Q27 1.5 23.45 1.5q-2.5 0-6.4 2.25l-5.5 3.65Q10 8.45 5.1 10.15q-3.6 1.2-3.6 2.55 0 1.55 3.7 1.25l6.7-1.1-.7 1.65q-5 1-7.15 1Q0 15.5 0 12.7q0-1.65 1.7-2.7 1.1-.65 3.85-1.55Q9.4 7.1 10.7 6.2l.9-.65Q19.3 0 23.45 0q3.95 0 11.2 4.1l1.7.95L41.1 8.1Q43 9.8 43 11.95q0 3.15-4.65 3.15l-5.6-.7-.5-1.65"/><path fill="#695f50" d="m29.15 15.05 3.1-2.3.5 1.65-4.95 3.5q-.8 1.1 2.65 6.6 1.7 2.7 2.85 3.2h1.9q2.1 0 2.45 2 .25 2.1-1.7 2.65l-.3.1q.45 1.9-1.45 2.75l-2.55.5H12.4l-2.55-.5Q8 34.5 8.4 32.45l-1.65-1.1q-.5-.8-.35-1.65.35-2 2.4-2h1.9q1.15-.5 2.9-3.2 3.45-5.5 2.65-6.6l-4.85-3.45-.2.05.7-1.65q.9 1 3 2.2L17.4 17q1.45 1.75-2.55 8.3-2.15 3.4-3.9 3.9H8.8q-.8 0-.9.75l.1.6.5.35 7.1.05-1.75 1.15-3.05.1q-.75.15-.9.45v.65l.5.5 2 .4h19.25l2-.4q.7-.25.55-1-.15-.7-.95-.7L30 32.05l-1.6-1.1 5.75.05 1.35-.1q.75-.15.65-.95-.1-.75-.95-.75h-2.15q-1.7-.5-3.85-3.9-4.15-6.5-2.6-8.3.55-.75 2.55-1.95"/><path fill="#695f50" d="m18.55 11.7 3.9-.2 3.1.15-2.2 2.55q-1.5 2.45-.3 8.05l1 4.15q.7 2.85 1.35 3.8l.65.95.95.95h-9.95l.95-.95.65-.95q.65-.9 1.35-3.75l.95-4.2q1.4-5.35-.25-8.05l-2.15-2.5"/><path fill="#5a5046" d="M18.3 25.7q-.65 2.7-1.2 3.5h-2.4q2.1-1.65 4.8-9.3l-1.2 5.8m6.25-5.8q2.5 7.55 4.75 9.3h-2.35q-.55-.8-1.2-3.5l-1.2-5.8"/></g></svg>