<svg xmlns="http://www.w3.org/2000/svg" width="30.9" height="39.7"><g fill-rule="evenodd"><path fill="#969696" d="m23.3 32.2.85-2.4-.25-2.05.15-3-.1-.65.1-.65.55-.05 3.3 1.2.55.4.05.95-.3 3.35q-.25 1.05.45 1.4.9.65.65 1.9-.25 1.15.35 5.65h-.1l.05.15H1.25q0-1.35 1.35-2.35l-.2-6.7q-.05-1.3.2-1.55l.45-.4.25-.75.1-4.1-.25-2 .25-1.8q.15-.9.65-.65l1.65.9q.55.8.6 1.6l.55 2.25.65 8.85.4 1.4h1.6l.4-.2q.3-.2.45-1.1l.5-2.65.65-1.75-.6-2.75.6-.35.25-4.6-.6-.95.25-.95q.25-1-.3-1.55l.35-5.8L12.9 8.2l.6-4.3.6-2.3 1.3-.35 1.65.6q.3.15.45 1.25l.25 1.15 1.1 1.4.95 2.05-.85.6.3.55.45 2.15-.05 3.05 1.05 1.25-.35 2.3.75.85-.5.3.1.5-.3 4.8.4.3-.6 1.6.25.5-.25 1.35.45.6-.3 3.95.75.7h1l1.2-.85"/><path fill="#373737" d="m23.3 32.2-1.2.85h-1l-.75-.7.3-3.95-.45-.6.25-1.35-.25-.5.6-1.6-.4-.3.3-4.8-.1-.5.5-.3-.75-.85.35-2.3-1.05-1.25.05-3.05-.45-2.15-.3-.55.85-.6-.95-2.05-1.1-1.4-.25-1.15q-.15-1.1-.45-1.25l-1.65-.6-1.3.35-.6 2.3-.6 4.3-1.45 2.25-.35 5.8q.55.55.3 1.55l-.25.95.6.95-.25 4.6-.6.35.6 2.75-.65 1.75-.5 2.65q-.15.9-.45 1.1l-.4.2H7.9l-.4-1.4-.65-8.85-.55-2.25q-.05-.8-.6-1.6l-1.65-.9q-.5-.25-.65.65l-.25 1.8.25 2-.1 4.1-.25.75-.45.4q-.25.25-.2 1.55l.2 6.7q-1.35 1-1.35 2.35H29.6l-.05-.15h.1q-.6-4.5-.35-5.65.25-1.25-.65-1.9-.7-.35-.45-1.4l.3-3.35-.05-.95-.55-.4-3.3-1.2-.55.05-.1.65.1.65-.15 3 .25 2.05-.85 2.4M10.25 10.05 11.7 7.8l.5-4q.55-2.75 1.25-3.2L15.5 0l2.1.75q1 .5 1.2 2.55l.05.3 1 1.25 1.5 3.3-.85.6.45 2.15-.05 2.7 1.15 1.35-.35 2.25.65.8-.05 1.2-.3.15.05.15-.15.2-.15 3.8.6.45-.75 1.9.2.4-.25 1.25.4.55-.25 3.7 1.1-.65v-2.75q-.25-.45-.05-3l.05-.5q-.4-2.75 1.55-2.75l.5.05 3.9 1.55q.8.4.95 1.05l-.3 5q1.65 1 1.15 3.15-.15.7.3 4.6l.05 2.2H0v-1.3q.1-1.7 1.35-2.9l-.2-7.45.6-1.15.3-.25.15-3.95-.3-2.25.3-1.9q.4-1.75 1.65-1.75l.7.15 2.15 1.3q.75.95.9 2.25l.5 2.25.6 8.55.2.55h.15l1.1-4.55-.7-3.25.8-.45.2-3.55-.4-.65q-.25-.5 0-1.45.3-.65.15-.8l-.4-.4.45-6.7"/></g></svg>