<svg xmlns="http://www.w3.org/2000/svg" width="42" height="36"><g fill-rule="evenodd"><path fill="#695050" d="m30.15 9.05-3.05-3.7-1.5 2.05-12.05-.35L11.9 3.9l-1.6 2.25L8 18.85l-3.25 1.5L2.45 34H12.9l4.15-12.8 1.9 2.35 1.6-7.3 6.05 5.35L29.85 34h9.7L35 15.9l-4-2.1-.85-4.75M8.3 5.4 12.05 0l2.6 5.1 9.85.3 2.4-3.3 5.05 6.1.75 4.25 3.95 2.1L42 36H28.25l-3.5-13.3-3.1-2.7-1.75 8.1-2.2-2.75L14.25 36H0l2.85-17.05 3.3-1.5L8.3 5.4"/><path fill="#8c6969" d="M30.15 9.05 31 13.8l4 2.1L39.55 34h-9.7L26.6 21.6l-6.05-5.35-1.6 7.3-1.9-2.35L12.9 34H2.45l2.3-13.65L8 18.85l2.3-12.7 1.6-2.25 1.65 3.15 12.05.35 1.5-2.05 3.05 3.7"/></g></svg>