<svg xmlns="http://www.w3.org/2000/svg" width="31.2" height="42"><g fill-rule="evenodd"><path fill="#aca171" d="m15.25 28.1 2.1-6.3.1 2.45-1.3 3.8-.9.05m-2.1 0v-4.3h.95v4.35l-.95-.05m2.2 3q-1.05 4.5-1.25 8.45l-.95.3v-8.7l2.2-.05"/><g fill="#e6d79c"><path d="m8.75 17.85 1.5.8 2.45 1.95q.8 1 .7 2.1l-.2.9q-4.95-2.05-4.7-4.85l.25-.9m9.9.9q.1 2.15-3.15 4.1l-1.55.75-.2-.9q-.25-2.8 4.65-4.85l.25.9m-.6-4.95q1.4 2.25-2.5 4.9l-1.4.8-.25-.85q-.15-1.05.55-2 1.05-1.6 3.6-2.85m-9.2.85.25-.85 1.4.85q3.05 1.95 2.75 4l-.25.85q-4.55-2.2-4.15-4.85m2.1-4.05q3.55 2.8 2.05 4.8-4.15-2.4-3.65-4.9l.3-.8 1.3.9"/><path d="M17.5 9.7q.85 1.2-.1 2.75-.9 1.6-3.25 2.95l-.3-.75q-.4-1.9 2.35-4.05l1.3-.9m-1.8-3.1 1.15-.95q.9 1.05.15 2.65-.75 1.55-2.9 3l-.35-.7q-.5-1.85 1.95-4"/><path d="m9.9 6.4.35-.75 1.15.95q3.2 2.8 1.6 4.7-3.75-2.55-3.1-4.9m3.65-5 .85.95q2 3-.85 5.5-2.9-2.55-.8-5.5l.8-.95m11.9 10.25-1.15.15-.05-1.2q.05-1.4.8-2.1 1.2-1.2 3.25-.9.35 3.45-2.85 4.05m-3.1-3.35.8-.3.25 1.45q.6 4.05-1.5 4.45-.9-2.3-.5-4 .2-1.05.95-1.6"/><path d="M22.95 13.8q.3-.8 1.25-1.2l3.85-.1-.15.65q-.3.75-1.15 1.1l-2.45.35-1.45-.05.1-.75m-3.55-2.65.75-.4.55 1.4.5 2.75q0 1.7-1.25 2.15-1.35-2.25-1.3-4.1 0-1.15.75-1.8"/><path d="m20.95 17.65.1-.75q.3-.85 1.25-1.3l4.1-.15q.05 1.2-1.35 1.8l-2.6.4h-1.5m-1.7 3.2.1-.8q.3-.9 1.3-1.35l4.35-.2q.15 2.1-4.2 2.35h-1.55m4.7.7-.15.75q-.35.85-1.4 1.2l-2.9.55h-1.65l.1-.8q.3-1 1.4-1.45l4.6-.25"/></g><path fill="#bcbec0" d="M21.25 29.85q-3.2 1.05-5.9 1.25l-2.2.05h-.4q-5.05-.25-7.9-3.1-3.1-3.1-3.3-7.65v-1q.05-2.3 1.05-4.8L4.55 11q2.3-3.4 5.25-5.9h.2l.05.35-2.8 4.1Q2.5 17.7 6.6 24.2q2.2 3.5 6.55 3.9l.95.05 1.15-.05.9-.05q3.2-.35 5.55-1.3l1.7-.85 1.45 2.15-1.45.7-2.15 1.1"/><path fill="#5f4641" d="M23.4 28.75q-.75.5.45 1.5.55.45 1.25.45h.55l.6.75 3.45 5.85v.25q-.3.75-1.3 1.5-.85.7-2 .75l-1.55-.05q-1.3-2.25-2.95-6.1l-.35-.95.5-1.25q.05-.65-.8-1.6l2.15-1.1"/><path fill="#373737" d="M22.35 8.3q-.75.55-.95 1.6-.4 1.7.5 4 2.1-.4 1.5-4.45L23.15 8l-.8.3M15.7 6.6q-2.45 2.15-1.95 4l.35.7q2.15-1.45 2.9-3 .75-1.6-.15-2.65l-1.15.95m7.25 7.2-.1.75 1.45.05 2.45-.35q.85-.35 1.15-1.1l.15-.65-3.85.1q-.95.4-1.25 1.2m2.5-2.15q3.2-.6 2.85-4.05-2.05-.3-3.25.9-.75.7-.8 2.1l.05 1.2 1.15-.15m-6.05-.5q-.75.65-.75 1.8-.05 1.85 1.3 4.1 1.25-.45 1.25-2.15l-.5-2.75-.55-1.4-.75.4m-.75 7.6-.25-.9q-4.9 2.05-4.65 4.85l.2.9 1.55-.75q3.25-1.95 3.15-4.1m.6 2.1h1.55q4.35-.25 4.2-2.35l-4.35.2q-1 .45-1.3 1.35l-.1.8m1.7-3.2h1.5l2.6-.4q1.4-.6 1.35-1.8l-4.1.15q-.95.45-1.25 1.3l-.1.75M13.55 1.4l-.8.95q-2.1 2.95.8 5.5 2.85-2.5.85-5.5l-.85-.95m-3.65 5q-.65 2.35 3.1 4.9 1.6-1.9-1.6-4.7l-1.15-.95-.35.75m1.05 4.2-1.3-.9-.3.8Q8.85 13 13 15.4q1.5-2-2.05-4.8m-2.1 4.05Q8.45 17.3 13 19.5l.25-.85q.3-2.05-2.75-4l-1.4-.85-.25.85m-.1 3.2-.25.9q-.25 2.8 4.7 4.85l.2-.9q.1-1.1-.7-2.1l-2.45-1.95-1.5-.8m4.4 13.3v8.7l.95-.3q.2-3.95 1.25-8.45 2.7-.2 5.9-1.25.85.95.8 1.6l-.5 1.25.35.95q1.65 3.85 2.95 6.1l1.55.05q1.15-.05 2-.75 1-.75 1.3-1.5v-.25l-3.45-5.85-.6-.75h-.55q-.7 0-1.25-.45-1.2-1-.45-1.5l1.45-.7-1.45-2.15-1.7.85q-2.35.95-5.55 1.3l1.3-3.8-.1-2.45-2.1 6.3-1.15.05V23.8h-.95v4.3q-4.35-.4-6.55-3.9-4.1-6.5.65-14.65l2.8-4.1L10 5.1h-.2Q6.85 7.6 4.55 11L2.6 14.6q-1 2.5-1.05 4.8v1q.2 4.55 3.3 7.65 2.85 2.85 7.9 3.1h.4m-4.3-27.1.95-.35.7.1q.25-1.2 1.1-2.35l.95-1.1 1-.35q.6 0 1 .35l1.1 1.2q.9 1.35 1.05 2.7.85-.1 1.35.55l.7 1.55q.2 1.2-.25 2.4l.6.95.9-.35q.4-1.4 1.5-2.15 1.8-1.25 2.85 0 1.35-1.05 3.4-1.05 1.6 0 2 1.05l.05.5q.1 2.25-.85 3.7l.45.55.15.9q-.15 1.75-1.65 2.6l-.1 1.05q-.4 1.05-1.3 1.75v.15q.1 1.7-1.15 2.75l.1.45q.1 1.85-1.6 3l.7.45 1.5 2.2q.8 1.1-.15 2.05l.2.05q.65.2 1.35 1.25L31 36.7l.2.75-.1.75q-.4 1.15-1.8 2.2-1.25 1-2.85 1.05l-1.8-.1q-.65-.05-1.1-.7-1.25-2.1-3.05-6.3l-.05-.15q-.8-1.4-.1-2.35l-3.75.75q-.75 3.3-1 7.15V42h-3.95v-9.3q-4.8-.45-7.9-3.45Q.3 25.8 0 20.6v-1.1q.5-8.4 8.85-15.45M17.5 9.7l-1.3.9q-2.75 2.15-2.35 4.05l.3.75q2.35-1.35 3.25-2.95.95-1.55.1-2.75m.55 4.1q-2.55 1.25-3.6 2.85-.7.95-.55 2l.25.85 1.4-.8q3.9-2.65 2.5-4.9m5.9 7.75-4.6.25q-1.1.45-1.4 1.45l-.1.8h1.65l2.9-.55q1.05-.35 1.4-1.2l.15-.75"/></g></svg>