<svg xmlns="http://www.w3.org/2000/svg" width="36.4" height="36.8"><g fill-rule="evenodd"><path fill="#969696" d="M7.8 5.25q1.55-1.05 4.05-1.8l1.95-.5 3.4-.6q.45 0 .05.3l-6.5 5.8L8.8 10.9l-2.05 3.45L1.8 24q-.25.85-.15-.05l1.15-6.6q1.45-7.2 3.05-10.05L7.8 5.25M25 10l-2.9-3.35q-.35-.4 0-.85l3.2-3.75q.4-.35.75 0l3.05 3.5 1.85 2.15 1.45 1.65.55 1 1.85 6q.2.55-.35.35l-5.15-2.15-.85-.6-1.35-1.55L25 10"/><path fill="#735a4b" d="m10.75 8.45 7.8 8.45L25 10l2.1 2.4-5.95 7.3 10.4 11.2q.35.45 0 .85L29 34.7q-.3.4-.7 0l-9.75-11.9-9.7 11.9q-.4.4-.7 0L5.6 31.75q-.35-.4 0-.85L16 19.7l-7.2-8.8 1.95-2.45m18.35-2.9.65-.7q.4-.45.75 0l1.05 1.25q.35.35.05.85l-.65.75-1.85-2.15M5.85 7.3l-.3-.35q-.3-.5.05-.85l1.15-1.35.65.1.4.4L5.85 7.3"/><g fill="#2d2d2d"><path d="m8.8 10.9 7.2 8.8L5.6 30.9q-.35.45 0 .85l2.55 2.95q.3.4.7 0l9.7-11.9 9.75 11.9q.4.4.7 0l2.55-2.95q.35-.4 0-.85l-10.4-11.2 5.95-7.3.05 2.8-3.6 4.4 9.15 9.9q.7.7.7 1.8 0 1.15-.65 1.8l-2.55 2.95q-.6.75-1.55.75t-1.6-.8l-8.5-10.35L10.1 36q-.6.75-1.55.8-.95 0-1.6-.75l-2.55-2.9q-.65-.7-.65-1.85 0-1.1.7-1.8l9.15-9.9L9 13.95l-.2-3.05"/><path d="m29.1 5.55-3.05-3.5q-.35-.35-.75 0L22.1 5.8q-.35.45 0 .85L25 10l-2.45-.05L20.9 8q-.65-.65-.65-1.8 0-1.1.65-1.8L24.15.7l.6-.45.95-.25q.9 0 1.55.7l1.95 2.25 1.3-.2 1.2.7 1.05 1.25q1.1 1.2.5 2.85l1.3 2.15 1.85 6q.35 1.15-.25 2.05-.35.6-.95.8l-1.3-.05-5.2-2.1q-.85-.35-1.45-1.1l-.1-.1-.05-2.8 1.35 1.55.85.6 5.15 2.15q.55.2.35-.35l-1.85-6-.55-1-1.45-1.65.65-.75q.3-.5-.05-.85L30.5 4.85q-.35-.45-.75 0l-.65.7m-18.35 2.9 6.5-5.8q.4-.3-.05-.3l-3.4.6-1.95.5q-2.5.75-4.05 1.8l-.4-.4-.65-.1L5.6 6.1q-.35.35-.05.85l.3.35q-1.6 2.85-3.05 10.05l-1.15 6.6q-.1.9.15.05l4.95-9.65L8.8 10.9l.2 3.05-2.25 4.1-3.45 6.9q-.55 1.2-1.6 1.2H.9l-.55-.65q-.5-.7-.35-1.85Q1.45 12.75 3.85 7.4q-.45-1.6.55-2.7l1.05-1.25q.5-.55 1.2-.7l1.3.2 1.8-.85Q12.9.8 17.05.4h.2q1.4 0 1.8 1.45.25.9-.1 1.6l-.7.8-4.95 4.3-2.55-.1"/><path d="m25 10-6.45 6.9-7.8-8.45 2.55.1 5.25 5.7 4-4.3L25 10"/></g></g></svg>