<svg xmlns="http://www.w3.org/2000/svg" width="22.4" height="41.35"><g fill-rule="evenodd"><path fill="#c85555" d="m12.65 5.1-1.4 2.95-1.4-2.95 1.4-3 1.4 3m1.5 28.65 1.85-9.8-3.1 1.25-.5 4.85-1.5 3.45 2.25 1.35-1.9 4-.75-1.75-.65-3.5 1.25-3.55-1.7-4.9-2.95-1.2 1.8 9.8-5.75-13.3 5.7-13-.7 8.4 2.65 3.8.3-2.1 2.1-2.3-.85-2.9-1.65 1.5-.25 1.1-.45-.5.7-6.3 1.85 2.15 1.65 5.25-1.6 2.1.5 1.85L15 15.7l-.75-8.25 5.6 13-5.7 13.3"/><path fill="#c3c3c3" d="m12.65 5.1-1.4-3-1.4 3 1.4 2.95 1.4-2.95M9.6 0h3.3l9.5 20.25-9.9 21.1H9.8L0 20.25 9.6 0m4.55 33.75 5.7-13.3-5.6-13L15 15.7l-2.55 3.8-.5-1.85 1.6-2.1-1.65-5.25-1.85-2.15-.7 6.3.45.5.25-1.1 1.65-1.5.85 2.9-2.1 2.3-.3 2.1-2.65-3.8.7-8.4-5.7 13 5.75 13.3-1.8-9.8 2.95 1.2 1.7 4.9-1.25 3.55.65 3.5.75 1.75 1.9-4-2.25-1.35 1.5-3.45.5-4.85 3.1-1.25-1.85 9.8"/></g></svg>