<svg xmlns="http://www.w3.org/2000/svg" width="32.8" height="39.75"><g fill-rule="evenodd"><path fill="#46505a" d="M8.3 11.2q2 .45 2.75-1.45 2.05.3 2.05 4.5 0 2.65-.7 3.5-.55.65-1.6 1-1.9.7-2.75-2.25l-.4-2.65q0-1.65.65-2.65"/><path fill="#28323c" d="m17.55 5.35-1.2-2.25q-.85-1.25-1.1-1.1l.05 1.2q.25 1.3.05 2.25L14.8 8l-.25 1.8-.2.2q-1.1 1.35-1 3.85.15 2.5 1.25 3 1.8.75 3.3-.9.9-1 1.25-3 .4-2.1-.3-3.2l-.9-.85-.2-2.9-.2-.65m8.1 16.05q-3.9-3.05-6.5-3.65-2.45-.55-5.15.65-1.55.65-4.35 2.6l-3.4 1.55q-1.95.8-2.9 2.55-2.75 5.2 7 7.5l5.25 3.65q3.05 2.2 7.25 1.75 1.45-.15 2.5-2.15l1.55-3.6 1.9-2.3q3.35-3.35-3.15-8.55M2.2 12.75 3.5 8l.75-2Q5 4.7 6.15 4.6h.2q.9 0 1.5.7 1.6-3.75 3.95-4.05h.25q.7 0 1.3.5.1-.85.85-1.4L15.3 0q1.55 0 3.1 2.7l.25-.5q.55-.8 1.55-.8h.2q2.7.3 4.45 4.55l.35-.55q.65-.65 1.5-.65h.15q1 .05 1.75 1.05l1 2.2 1.25 4.7q2.85 3.1 1.95 6.9-.45 1.9-1.75 2.9l-1 .55q2.85 3.7 1 6.8l-2.5 3-.5 1.3-1.7 3.45q-1.35 1.85-3.3 2.05l-1.8.1q-2.75 0-4.95-1.1l-3.35-2.35q-2.05-1.7-3.25-2.15L9.2 34q-6.5-1.85-7.85-5.1-.95-2.25.35-4.8l.3-.5q-2.2-1-2-4.75.1-3.8 2.2-6.1m18.6-2.25-.3.15q-.9.8-.9 3.45.15 4.25 3.25 4.4 1.2.1 1.6-.5.85-1.15 1.05-3.95.35-2.6-1-3.7l-.7-.2L23.55 8l-.8-2q-1.15-2.45-2.6-2.6l.8 3L21 8l-.2 2.5m-12.5.7q-.65 1-.65 2.65l.4 2.65q.85 2.95 2.75 2.25 1.05-.35 1.6-1 .7-.85.7-3.5 0-4.2-2.05-4.5L11.3 6l.75-2.75q-1.3.15-2.4 2.75L8.9 8q-.6 1.85-.6 3.2m-4.45 2.6q-2.2 2.1-2 6 .1 2.1 1.1 2.35l1.4-.15.85-.65 1.15-.25 1-.65q.45-.7.05-3.8-.45-3.25-1.45-3.55H5.8L6.45 8q.15-1.45-.15-1.4L5.55 8l-1.7 5.8m23-.5q-.7.65-1.1 3-.3 2.1-.15 3.5.1 1.05 1.7 1.6 3.15 1.05 3.75-2.25.25-1.35-.2-2.75-.65-1.8-1.7-2.65L28 9.15 27.6 8q-.55-1.2-.9-1.25-.3-.05-.3 1.25l.45 5.3"/><path fill="#cdcdcd" d="M14.55 9.8 14.8 8l.55-2.55q.2-.95-.05-2.25L15.25 2q.25-.15 1.1 1.1l1.2 2.25.2.65.2 2.9q-.95 1.25-3.4.9m9.25.35q-.75 1.1-3 .35L21 8l-.05-1.6-.8-3q1.45.15 2.6 2.6l.8 2 .25 2.15m-12.75-.4q-.75 1.9-2.75 1.45 0-1.35.6-3.2l.75-2q1.1-2.6 2.4-2.75L11.3 6l-.25 3.75m-5.1 3.35q-1.35 1.05-2.1.7L5.55 8l.75-1.4q.3-.05.15 1.4l-.65 5.1h.15m23.2.65q-.65 1.1-2.3-.45L26.4 8q0-1.3.3-1.25.35.05.9 1.25l.4 1.15 1.15 4.6"/><path fill="#46505a" d="M3.85 13.8q.75.35 2.1-.7 1 .3 1.45 3.55.4 3.1-.05 3.8l-1 .65-1.15.25-.85.65-1.4.15q-1-.25-1.1-2.35-.2-3.9 2-6m21.8 7.6q6.5 5.2 3.15 8.55l-1.9 2.3-1.55 3.6q-1.05 2-2.5 2.15-4.2.45-7.25-1.75l-5.25-3.65q-9.75-2.3-7-7.5.95-1.75 2.9-2.55L9.65 21q2.8-1.95 4.35-2.6 2.7-1.2 5.15-.65 2.6.6 6.5 3.65"/><path fill="#46505a" d="M20.8 10.5q2.25.75 3-.35l.7.2q1.35 1.1 1 3.7-.2 2.8-1.05 3.95-.4.6-1.6.5-3.1-.15-3.25-4.4 0-2.65.9-3.45l.3-.15m-2.85-1.6.9.85q.7 1.1.3 3.2-.35 2-1.25 3-1.5 1.65-3.3.9-1.1-.5-1.25-3-.1-2.5 1-3.85l.2-.2q2.45.35 3.4-.9m8.9 4.4q1.65 1.55 2.3.45 1.05.85 1.7 2.65.45 1.4.2 2.75-.6 3.3-3.75 2.25-1.6-.55-1.7-1.6-.15-1.4.15-3.5.4-2.35 1.1-3"/></g></svg>