<svg xmlns="http://www.w3.org/2000/svg" width="19.5" height="40.95"><g fill-rule="evenodd"><path fill="#9bb9af" d="M9.95 10.25H9.7q-.35 0-3.6 4.95v.55q3.3 4.95 3.7 4.95.6-.45 3.6-5.1v-.4l-3.45-4.95M9.8 2.6l3.35.7 3.75 4.45.1 1.45-.65 5.5v1.9l-.55 1.75-.3 1.8.05 3.75-.9 5.45.05 1.85-.6 3.65-.1 1.85-1.05 1.45h-2l-1.9.25L8 38.35l-1.95-1.7-1.5-2.45-.45-1.15-.2-3.8-.45-1.8V23.6l-.35-1.85.15-1.95-.75-7.5v-1.9l2.05-2.5 1.1-.75.8-1.45L7.5 4.55 9.8 2.6"/><path fill="#50695f" d="M9.8 2.6 7.5 4.55 6.45 5.7l-.8 1.45-1.1.75-2.05 2.5v1.9l.75 7.5-.15 1.95.35 1.85v3.85l.45 1.8.2 3.8.45 1.15 1.5 2.45L8 38.35l1.05.05 1.9-.25h2L14 36.7l.1-1.85.6-3.65-.05-1.85.9-5.45-.05-3.75.3-1.8.55-1.75v-1.9L17 9.2l-.1-1.45-3.75-4.45-3.35-.7m.15 7.65 3.45 4.95v.4q-3 4.65-3.6 5.1-.4 0-3.7-4.95v-.55q3.25-4.95 3.6-4.95h.25M0 12.5l.05-3 2.7-3.35 1-.65.6-1.2L5.8 2.75 9.1 0l5.35 1.1 4.9 5.75.15 2.5-.65 5.6v2.1l-.6 1.95-.25 1.4.05 3.85-.9 5.4.05 1.75-.6 3.85-.1 2.4-2.3 3.1-3.1-.05-2 .25-2.1-.1-2.85-2.45-1.95-3.2-.6-1.5-.2-4.05-.45-1.85v-3.9L.6 21.95l.15-2.1L0 12.5"/></g></svg>