<svg xmlns="http://www.w3.org/2000/svg" width="32.4" height="42"><g fill-rule="evenodd"><path fill="#b4ae76" d="M19.65 18.55 21.8 17l6.85 7.4L27.1 27l-7.45-8.45m7.2-13.1L18.4 12.9l-1.55-2.15 7.4-6.85 2.6 1.55m-21.55.2 7.45 8.45-2.15 1.55-6.85-7.4 1.55-2.6"/><path fill="#696543" d="M4.25 4.2 5.3 5.65l-1.55 2.6 6.85 7.4 2.15-1.55-.35 2.05-2 1.4-8.6-9.2L4.25 4.2m23.95.05-1.35 1.2-2.6-1.55-7.4 6.85 1.55 2.15-2.2-.5-1.4-2L24 1.85l4.2 2.4M27.1 27l1.55-2.6L21.8 17l-2.15 1.55.15-2.55.2.25 2-1.4 8.55 9.2-2.4 4.15L27.1 27m-10.9-7.35-.6.4 1.45 2-5.1 4.75-2.5 2.75-1.1 1.05-4.15-2.45 1.3-.9 2.6 1.55 7.4-6.9-1.55-2.15 2.25-.1"/><path fill="#696543" d="m19 22.3-2.2-3.1-.6.45-2.25.1 3.15-2.15 8.5 12.05L27.1 27l1.05 1.2-2.4 4.2-3.5-4.9L19 22.3"/><path fill="#6e4d3b" d="M17.85 40.25h-3.3l.6-7.25 2.2-.05.5 7.3m-.75-3.75-.3.3.3.3.4-.3-.4-.3m-1.65-3.05v.7h.75v-.7h-.75m.9 0v.7h.75v-.7h-.75m0 .8v.7h.75v-.7h-.75m-.9 0v.7h.75v-.7h-.75"/><path fill="#e4dfa2" d="m17.1 36.5.4.3-.4.3-.3-.3.3-.3m-1.65-3.05h.75v.7h-.75v-.7m.9 0h.75v.7h-.75v-.7m0 .8h.75v.7h-.75v-.7m-.9 0h.75v.7h-.75v-.7"/><path fill="#422819" d="M16 15.35h.45l.45.2.45.85-.45.85-.45.2H16l-.45-.2-.3-.4-.1-.45.1-.45.3-.4.45-.2m.25.6-.5.3v.3l.2.25.3.05.35-.15.15-.3-.15-.3-.35-.15"/><path fill="#6e4d3b" d="m16.25 15.95.35.15.15.3-.15.3-.35.15-.3-.05-.2-.25v-.3l.5-.3"/><path fill="#b4ae76" d="m13.95 19.75 1.55 2.15-7.4 6.9-2.6-1.55 8.45-7.5"/><path fill="#6e4d3b" d="m16 15.35-.45.2-.3.4-.1.45.1.45.3.4.45.2h.45l.45-.2.45-.85-.45-.85-.45-.2H16m2.4-2.45 8.45-7.45 2.65 1.5-12.05 8.5 2.2 3.1L27.1 27l-1.5 2.65-8.5-12.05-3.15 2.15-8.45 7.5-2.65-1.5 12.1-8.55-2.2-3.1L5.3 5.65 6.8 3l8.5 12.05 3.1-2.15"/><path fill="#4b4b4b" d="M14.55 40.25h4.75l4.5-2.35L19 22.3l3.25 5.2 3.4 11.05L19.1 42h-6.2l-6.2-3.4 2.75-9.05 2.5-2.75L8.55 38l4.2 2.25h1.8m13.65-36 4.2 2.4-12.8 9.05.2.3-.15 2.55-2.2-3.1 12.05-8.5-2.65-1.5 1.35-1.2m-12 8.15 2.2.5-3.1 2.15L6.8 3 5.3 5.65 4.25 4.2 6.65 0l9.05 12.75.5-.35m-3.8 3.75.35-2.05 2.2 3.1-12.1 8.55 2.65 1.5-1.3.9-4.2-2.4 12.75-9.05-.35-.55"/><path fill="#a0a0a0" d="m17.85 40.25-.5-7.3-2.2.05-.6 7.25h-1.8L8.55 38l3.4-11.2 5.1-4.75-1.45-2 .6-.4.6-.45 2.2 3.1 4.8 15.6-4.5 2.35h-1.45"/></g></svg>