<svg xmlns="http://www.w3.org/2000/svg" width="39.6" height="38.3"><g fill-rule="evenodd"><path fill="#28ce41" d="m28.55 8.6-.4-.4.1-.65.65-.25.55.4-.15.7-.75.2"/><path fill="#ce3828" d="m23.9 6.75-1.3.45-1-.9.25-1.35 1.3-.4 1 .9-.25 1.3"/><path fill="#2555af" d="m11.65 8.2-.5.1-.3-.1-.1-.3.1-.3.5-.1.3.1.1.3-.1.3m3.6-.75.25-.6.6-.25h1.4l.6.25.25.6-.25.6-.6.25h-1.4l-.6-.25-.25-.6"/><g fill="#fadc32"><path d="M31.35 10.7v-.5l.2-.5.5-.2.6.35.1.35v1.3l-.2.5-.5.2-.5-.2-.2-.5v-.8"/><path d="M29.45 7.7h2.4l.65.25.25.65v1.05l-.1.2-.6-.35-.5.2-.2.5v.5h-1.9l-.65-.25-.25-.8V8.6l.75-.2.15-.7"/><path d="m23.9 6.75.25-1.3-1-.9-1.3.4-.25 1.35 1 .9 1.3-.45M11.65 8.2l.1-.3-.1-.3-.3-.1-.5.1-.1.3.1.3.3.1.5-.1m3.6-.75.25.6.6.25h1.4l.6-.25.25-.6-.25-.6-.6-.25h-1.4l-.6.25-.25.6m13.3 2.2H5L6.55 8.3l2.1.1 1.6-2.85 2.4 1.5 3.3-4.75 6.7.55L26.1 4.3l1.05 2 3.4-.15 3.25 2.5 2.4.6.15.4h-3.6V8.6l-.25-.65-.65-.25h-2.4l-.55-.4-.65.25-.1.65.4.4v1.05"/></g><path fill="#d2b93c" d="m38.1 9.1-1.75.55-.15-.4-2.4-.6-3.25-2.5-3.4.15-1.05-2-3.45-1.45-6.7-.55-3.3 4.75-2.4-1.5-1.6 2.85-2.1-.1L5 9.65 2.6 9.1l3.45-3.05 1.7.1L9.7 2.7l2.5 1.6L15.15.05l7.6.6 4.45 1.8.9 1.6 2.95-.1 3.4 2.65 2.95.7.7 1.8"/><g fill="#2d2d2d"><path d="m12.4 27.95-2.05 2.4q-.7-1.05-.7-2.35 0-1.35.7-2.4l2.05 2.35m.6-3.9q1.15 0 2.1.8l-2.1 2.4-2.05-2.4q.9-.8 2.05-.8m2.7 6.3-2.05-2.4 2.05-2.35q.7 1.05.7 2.4 0 1.3-.7 2.35m-2.7-1.7 2.1 2.4q-.95.85-2.1.85t-2.05-.85l2.05-2.4"/><path d="M7.7 33.2H2.45v3.35H36.1V33.2h-3.6l.35-2.2h4.9v7.25H.8V31h6.05l.85 2.2m21.7-7.6q.7 1.05.7 2.4 0 1.3-.7 2.35l-2.1-2.4 2.1-2.35m-.65-.75-2.05 2.4-2.05-2.4q.9-.8 2.05-.8t2.05.8M23.3 28q0-1.35.7-2.4l2.1 2.35-2.1 2.4q-.7-1.05-.7-2.35"/><path d="M28.75 31.05q-.9.85-2.05.85t-2.05-.85l2.05-2.4 2.05 2.4"/></g><path fill="#969696" d="m36.75 12.25-4.45 13q-.65-2-2.2-3.15-1.55-1.2-3.45-1.2t-3.45 1.25q-1.6 1.2-2.3 3.25h-2.15q-.7-2.05-2.25-3.25-1.55-1.25-3.45-1.25T9.6 22.15Q8 23.35 7.3 25.4L2.85 12.25h33.9"/><path fill="#969696" d="M10.75 33.2 9.4 32.15Q7.9 30.45 7.9 28t1.5-4.2q1.5-1.7 3.65-1.7 2.1 0 3.6 1.7 1.45 1.75 1.45 4.2t-1.45 4.15L15.3 33.2h-4.55M13 24.05q-1.15 0-2.05.8l2.05 2.4 2.1-2.4q-.95-.8-2.1-.8m0 4.6-2.05 2.4q.9.85 2.05.85t2.1-.85l-2.1-2.4m-.6-.7-2.05-2.35q-.7 1.05-.7 2.4 0 1.3.7 2.35l2.05-2.4m3.3 2.4q.7-1.05.7-2.35 0-1.35-.7-2.4l-2.05 2.35 2.05 2.4m8.75 2.85-1.35-1.05q-1.5-1.7-1.5-4.15t1.5-4.2q1.5-1.7 3.6-1.7t3.6 1.7q1.5 1.75 1.5 4.2t-1.5 4.15l-1.35 1.05h-4.5m4.3-8.35q-.9-.8-2.05-.8t-2.05.8l2.05 2.4 2.05-2.4M23.3 28q0 1.3.7 2.35l2.1-2.4L24 25.6q-.7 1.05-.7 2.4m6.1-2.4-2.1 2.35 2.1 2.4q.7-1.05.7-2.35 0-1.35-.7-2.4m-.65 5.45-2.05-2.4-2.05 2.4q.9.85 2.05.85t2.05-.85"/><path fill="#2d2d2d" d="M30.3 23.8q-1.5-1.7-3.6-1.7t-3.6 1.7q-1.5 1.75-1.5 4.2t1.5 4.15l1.35 1.05H15.3l1.35-1.05q1.45-1.7 1.45-4.15t-1.45-4.2q-1.5-1.7-3.6-1.7-2.15 0-3.65 1.7-1.5 1.75-1.5 4.2t1.5 4.15l1.35 1.05H7.7L6.85 31 .7 10.9.05 9.1H2.6l2.4.55h23.55l.25.8.65.25h1.9v.8l.2.5.5.2.5-.2.2-.5v-1.3l-.1-.35.1-.2h3.6l1.75-.55h1.45l-1.8 5.6-4.9 16.3-.35 2.2h-3.55l1.35-1.05q1.5-1.7 1.5-4.15t-1.5-4.2m6.45-11.55H2.85L7.3 25.4q.7-2.05 2.3-3.25 1.55-1.25 3.45-1.25t3.45 1.25q1.55 1.2 2.25 3.25h2.15q.7-2.05 2.3-3.25 1.55-1.25 3.45-1.25t3.45 1.2q1.55 1.15 2.2 3.15l4.45-13"/><path fill="#503c32" d="M15.3 33.2h20.8v3.35H2.45V33.2H15.3"/></g><path fill="none" stroke="#000" stroke-linecap="round" stroke-linejoin="round" stroke-width=".1" d="m23.9 6.75-1.3.45-1-.9.25-1.35 1.3-.4 1 .9-.25 1.3M11.65 8.2l-.5.1-.3-.1-.1-.3.1-.3.5-.1.3.1.1.3-.1.3m3.6-.75.25-.6.6-.25h1.4l.6.25.25.6-.25.6-.6.25h-1.4l-.6-.25-.25-.6m13.3 2.2H5L6.55 8.3l2.1.1 1.6-2.85 2.4 1.5 3.3-4.75 6.7.55L26.1 4.3l1.05 2 3.4-.15 3.25 2.5 2.4.6.15.4h-3.6V8.6l-.25-.65-.65-.25h-2.4l-.55-.4-.65.25-.1.65.4.4v1.05l.25.8.65.25h1.9v.8l.2.5.5.2.5-.2.2-.5v-1.3l-.1-.35.1-.2m-1.4 1.05v-.5l.2-.5.5-.2.6.35m-3.2-2.15-.15.7-.75.2"/></svg>