<svg xmlns="http://www.w3.org/2000/svg" width="28.9" height="38"><g fill-rule="evenodd"><path fill="#c2c2c2" d="M16.1 5.05q-.65-.75-1.55-.75-.95 0-1.6.75T12.3 6.8q0 1.05.65 1.8.65.7 1.6.7.9 0 1.55-.7.65-.75.65-1.8 0-1-.65-1.75m6.55 6q-.7 0-1.25.6-1.15 1.4 0 2.8.55.6 1.25.6.75 0 1.25-.6.5-.55.5-1.4t-.5-1.4q-.5-.6-1.25-.6m-16.4 0q-.75 0-1.25.6-.5.55-.5 1.4t.5 1.4q.5.6 1.25.6.7 0 1.25-.6 1.15-1.4 0-2.8-.55-.6-1.25-.6m.7 14.75q0-2-1.8-2-1.75 0-1.75 2 0 .8.5 1.4.55.6 1.25.6.75 0 1.3-.6.5-.55.5-1.4m18.55 0q0-2-1.75-2-.75 0-1.25.55-.55.6-.55 1.45t.55 1.4q.5.6 1.25.6.7 0 1.25-.6.5-.6.5-1.4m-.05 4.6h1.5v5.65H16.8v-4.7l1.65-2.05q2.9-3.5 2.9-8.6 0-4.7-2.05-7.45-1.9-2.55-4.85-2.55T9.6 13.25Q7.55 16 7.55 20.7q0 4.85 2.9 8.6L12 31.25v4.8H1.7V30.4h1.75q-4.5-12.95 1.4-22.35L5 7.8q3.95-5.9 9.45-5.9t9.45 5.9l.15.25q5.9 9.4 1.4 22.35"/><path fill="#696969" d="M16.1 5.05q.65.75.65 1.75 0 1.05-.65 1.8-.65.7-1.55.7-.95 0-1.6-.7-.65-.75-.65-1.8 0-1 .65-1.75t1.6-.75q.9 0 1.55.75m6.55 6q.75 0 1.25.6.5.55.5 1.4t-.5 1.4q-.5.6-1.25.6-.7 0-1.25-.6-1.15-1.4 0-2.8.55-.6 1.25-.6M6.95 25.8q0 .85-.5 1.4-.55.6-1.3.6-.7 0-1.25-.6-.5-.6-.5-1.4 0-2 1.75-2 1.8 0 1.8 2m18.55 0q0 .8-.5 1.4-.55.6-1.25.6-.75 0-1.25-.6-.55-.55-.55-1.4t.55-1.45q.5-.55 1.25-.55 1.75 0 1.75 2M6.25 11.05q.7 0 1.25.6 1.15 1.4 0 2.8-.55.6-1.25.6-.75 0-1.25-.6-.5-.55-.5-1.4t.5-1.4q.5-.6 1.25-.6"/><path fill="#4b4b4b" d="M25.45 30.4q4.5-12.95-1.4-22.35l-.15-.25q-3.95-5.9-9.45-5.9T5 7.8l-.15.25q-5.9 9.4-1.4 22.35H1.7v5.65H12v-4.8l-1.55-1.95q-2.9-3.75-2.9-8.6 0-4.7 2.05-7.45 1.9-2.55 4.85-2.55t4.85 2.55q2.05 2.75 2.05 7.45 0 5.1-2.9 8.6l-1.65 2.05v4.7h10.15V30.4h-1.5M3.65 6.7q2.05-3.2 4.9-4.95Q11.35 0 14.45 0q6.5 0 10.8 6.7 5.95 9.25 2.6 21.8h.8V38H15.1v-7.35L17.2 28q2.45-2.95 2.45-7.3 0-3.65-1.4-5.9-1.45-2.2-3.8-2.2t-3.8 2.2q-1.4 2.25-1.4 5.9 0 4.35 2.45 7.3l2 2.55V38H0v-9.5h1.05Q-2.3 15.95 3.65 6.7"/></g></svg>