<svg xmlns="http://www.w3.org/2000/svg" width="20.85" height="42"><g fill-rule="evenodd"><path fill="#e4dfa2" d="M14.5 17.9v3.95h-2.05V17.9h2.05"/><path fill="#694b41" d="M4.6 9v4.3H2.1V1.95h2.5V9"/><path fill="#4b2d2d" d="M4.6 9V7.3l12.35-2.35L4.6 2.65 6.25 1 19.2 3.55l-.95 2.95L7.3 8.65 4.6 9"/><path fill="#a04b4b" d="m4.6 2.65 12.35 2.3L4.6 7.3V2.65"/><path fill="#969696" d="M14.5 17.9h-2.05v3.95h2.05V17.9m-9.9-4.6h4.8v-2.7h2.5v2.7h4.75v-2.7h2.55l-.05 21.9-8.6 7.1-8.45-7.1V13.3h2.5"/><path fill="#4b4b4b" d="M16.65 13.3H11.9v-2.7H9.4v2.7H4.6V9l2.7-.35h13.55L20.8 33.3 10.35 42 0 33.25V0h6.25v1L4.6 2.65v-.7H2.1V32.5l8.45 7.1 8.6-7.1.05-21.9h-2.55v2.7"/></g></svg>