<svg xmlns="http://www.w3.org/2000/svg" width="41.9" height="34.35"><g fill-rule="evenodd"><path fill="#202020" d="m33.2 3.55 1.3-.1-2.1 1.95q-1.6 0-2 .55l-.95 1.5.9-.55 1.5-.25-1.95 2q-1.8.2-2.1.85l-.9 1.7.9-.65q.75-.4 1.65-.5l-1.7 2.1q-1.95.35-2.25 1.1l-.85 2 .95-.85q.85-.55 1.7-.7l-1.45 2.1q-2.05.6-2.35 1.45l-.7 2.3.95-1q.8-.7 1.8-.95h2.35l-1.75 4.6q-4.5-1.4-10.3.55L14.05 18h2.35q.9.2 1.8.95l.95 1-.7-2.25q-.35-.95-2.35-1.45l-1.45-2.1q1 .2 1.7.7l.95.8-.8-2q-.35-.75-2.3-1.1l-1.7-2.05 1.65.45.9.65-.9-1.7q-.3-.6-2.1-.8L10.1 7.05l1.5.3.9.5-.95-1.45q-.35-.55-2-.55l-2.1-2 1.3.15.85.35-.95-1.2q-.4-.45-1.8-.35L4.2 2.65l-.6-.6-.4.6.45.5q.25.9-.2 2.6Q3 7.1 3.3 7.45l.85 1.05-.1-.8.2-1.3 1.2 2.4q-.55 1.45-.25 1.85L6 11.9V11l.35-1.4.9 2.35Q6.5 13.4 6.75 14l.75 1.4.05-1 .6-1.45.55 2.3q-.95 1.55-.75 2.15l.45 2.25L2.35 17q-.55.25-.75 1.1l2.8 2.45q2.85 2.9 3.05 5.1l.75.85-.05-.7.15-1.15.75-1.3 1.5 2.1q-1.85 1.35-3.2 2.9l-.9-1.45-.3-.55m26.8 1.75L31 25.6l1.9-2.7.75 1.3.15 1.2-.05.7.75-.85q.1-1.4 1.25-3l1.8-2.1 2.8-2.45q-.2-.85-.75-1.1l-6.05 2.6.45-2.25q.2-.55-.75-2.1l.55-2.35.6 1.5.05 1 .75-1.45q.3-.5-.5-2l.9-2.35.35 1.35v.95l.8-1.25q.3-.45-.25-1.9L37.7 6l.2 1.25-.1.85.85-1.05q.3-.4-.15-1.7-.45-1.75-.2-2.6l.45-.55-.4-.55-.6.55-2 .25-.65-.05q-1.45-.1-1.8.35l-.95 1.2.85-.4m1.4 23.9-1.65.65M6.1 26.35l-.3-.55q-.15-1.4-1.95-3.45-1.45-1.65-3.2-2.9-1-.65-.65-1.9.55-1.5 1.55-2l.75-.2.65.15 3.3 1.45.05-.45-1.05-1.8Q4.9 14 5 13.2l-1.2-1.7q-.5-.7-.4-1.55L2 8.45q-.8-1-.2-3.1l.3-1.5-.15-.15q-.8-.8-.2-1.9l.6-.9Q2.85.4 3.5.4q.7 0 1.15.45L5 1.2l2.5-.05q1.55 0 2.35.95l1 1.3.3.95q1.15.3 1.7 1.15l1 1.5.2.85q1 .35 1.5 1.25l.9 1.8.2.7q.95.55 1.25 1.45l.85 1.95.1.7q.8.6 1.05 1.4l.75 2.35.05.6.5-.05v-.95l.7-2.3q.3-.9 1.1-1.5l.1-.65.85-2q.35-.85 1.25-1.4l.2-.75.9-1.75q.45-.85 1.5-1.3l.2-.8 1-1.55q.55-.8 1.7-1.1 0-.55.3-.95l1-1.3q.8-.95 2.35-.95l2.5.05.35-.35L38.3 0q.7 0 1.2.5l.6.9.25 1q0 .5-.4.9l-.15.15.3 1.5Q40.7 7 39.9 8l-1.4 1.5q.1.9-.4 1.6l-1.2 1.65q.1.8-.25 1.55l-1.05 1.8.05.4 3.3-1.4.65-.15.75.15q1.05.6 1.55 2.05.4 1.1-.6 1.85-1.75 1.2-3.25 2.9-1.8 2.05-1.95 3.45l-.35.9-1.15 1.2"/><path fill="#202020" d="M12.45 22.1q.2.1.15-.25l-.35-.6-1.8-.25-.55.1 1.05-1.2 1.65-1.35 1.05 5.1-1.9 1-2-2 .1-.1q.65-.5 1.25-.55l1.35.1m19.75.1-2 2.05-1.9-1 1.05-5.1 1.35.95 1.35 1.6-.55-.1q-1.4-.15-1.8.25l-.3.6q-.1.3.1.25l1.35-.1 1.35.6M7.35 28.35Q4.7 31.4 5.7 31.75h.95q2.1-.5 2.65-1.5 1.75-3.15 4.7-4.85 3.15-1.8 6.65-1.45 3.2.3 5.95 3.05l4.3 5.4q.55.8 2.55-.2 1.95-.95 1.5-1.55l-2-2.55 1.65-.65 1.65 2.2q.65 1 .1 2.1l-.6.8-1.45 1q-3.3 1.7-4.7-.2l-.7-.95q-2.35-3.25-3.65-4.5-2.3-2.15-4.75-2.4l-.9-.05q-2.7 0-5.1 1.5-2.35 1.5-3.8 4.05-.95 1.65-3.75 2.3l-.85.05q-1.4 0-2.1-1-.9-1.85 2.45-5.45l.9 1.45"/><path fill="#513c32" d="M32.9 22.9 31 25.6l-.8-1.35 2-2.05.7.7m4.85-20.7.6-.55.4.55-.45.55-.55-.55m-34.1.95-.45-.5.4-.6.6.6-.55.5M14.05 18l1.8 4.75-2.2.9-1.05-5.1 1.45-.55m-3.5 7.45-1.5-2.1.7-.7 2 2-1.2.8m15.6-3.25 1.75-4.6 1.45.55-1.05 5.1-2.15-1.05"/><path fill="#7e7e7e" d="M15.85 22.75q5.8-1.95 10.3-.55l2.15 1.05 1.9 1 .8 1.35 1.95 2.5 2 2.55q.45.6-1.5 1.55-2 1-2.55.2L26.6 27q-2.75-2.75-5.95-3.05-3.5-.35-6.65 1.45-2.95 1.7-4.7 4.85-.55 1-2.65 1.5H5.7q-1-.35 1.65-3.4 1.35-1.55 3.2-2.9l1.2-.8 1.9-1 2.2-.9"/><path fill="#4b874b" d="m4.2 2.65 2.65.15q1.4-.1 1.8.35l.95 1.2L8.75 4l-1.3-.15 2.1 2q1.65 0 2 .55l.95 1.45-.9-.5-1.5-.3 1.95 2.05q1.8.2 2.1.8l.9 1.7-.9-.65-1.65-.45 1.7 2.05q1.95.35 2.3 1.1l.8 2-.95-.8q-.7-.5-1.7-.7l1.45 2.1q2 .5 2.35 1.45l.7 2.25-.95-1q-.9-.75-1.8-.95h-2.35l-1.45.55-1.65 1.35-1.05 1.2.55-.1 1.8.25.35.6q.05.35-.15.25L11.1 22q-.6.05-1.25.55l-.8.8-.75 1.3-.15 1.15.05.7-.75-.85q-.2-2.2-3.05-5.1L1.6 18.1q.2-.85.75-1.1l6.05 2.65-.45-2.25q-.2-.6.75-2.15l-.55-2.3-.6 1.45-.05 1-.75-1.4q-.25-.6.5-2.05l-.9-2.35L6 11v.9l-.8-1.25q-.3-.4.25-1.85l-1.2-2.4-.2 1.3.1.8-.85-1.05q-.3-.35.15-1.7.45-1.7.2-2.6l.55-.5M27.9 17.6h-2.35q-1 .25-1.8.95l-.95 1 .7-2.3q.3-.85 2.35-1.45l1.45-2.1q-.85.15-1.7.7l-.95.85.85-2q.3-.75 2.25-1.1l1.7-2.1q-.9.1-1.65.5l-.9.65.9-1.7q.3-.65 2.1-.85l1.95-2-1.5.25-.9.55.95-1.5q.4-.55 2-.55l2.1-1.95-1.3.1-.85.4.95-1.2q.35-.45 1.8-.35l.65.05 2-.25.55.55q-.25.85.2 2.6.45 1.3.15 1.7L37.8 8.1l.1-.85L37.7 6l-1.2 2.35q.55 1.45.25 1.9l-.8 1.25v-.95L35.6 9.2l-.9 2.35q.8 1.5.5 2L34.45 15l-.05-1-.6-1.5-.55 2.35q.95 1.55.75 2.1l-.45 2.25 6.05-2.6q.55.25.75 1.1l-2.8 2.45-1.8 2.1q-1.15 1.6-1.25 3l-.75.85.05-.7-.15-1.2-.75-1.3-.7-.7-1.35-.6-1.35.1q-.2.05-.1-.25l.3-.6q.4-.4 1.8-.25l.55.1-1.35-1.6-1.35-.95-1.45-.55"/></g></svg>