<svg xmlns="http://www.w3.org/2000/svg" width="38.9" height="42"><g fill-rule="evenodd"><path fill="#e8e8e8" d="m21.05 14.8-.45-1.6 1-9.1 5.7 11.1q-1.05.7-1.35.5-.55-1.15-1.5-1.7-2.05.95-3.1 1.1l-.3-.3m-7.6-1.15 3.2-10.5L18.2 13.7l-1.95.6-2-.8-.8.15"/><path fill="#ccc" d="m21.6 4.1-1 9.1.45 1.6q-1.05-.85-2.5-1.2l-.35.1-1.55-10.55-3.2 10.5-1.6.15L16.1 0l1.45.2 1.9 8.4.85-8 1.05.2 6.95 13.45.6-.2-1.6 1.15-5.7-11.1"/><path fill="#785f50" d="m27.3 15.2.15.3 2.55-.9L36.65 26l-7.5 5.05-4.95-4.55-3.15-11.7.3.3q1.05-.15 3.1-1.1.95.55 1.5 1.7.3.2 1.35-.5"/><path fill="#5f4b41" d="m21.05 14.8 3.15 11.7 4.95 4.55 7.5-5.05L30 14.6l-2.55.9-.15-.3 1.6-1.15 1.8-.7 8.2 14.05-11.6 7.8-2.9-2.55L20.1 42 0 32.3l9.2-20.7 2.55 2.45.1-.25 1.6-.15-.85 2.7-2.8-2.65-7.55 16.9 17.05 8.25 1.95-4.65-3.05-20.5.35-.1q1.45.35 2.5 1.2"/><path fill="#785f50" d="m18.2 13.7 3.05 20.5-1.95 4.65L2.25 30.6 9.8 13.7l2.8 2.65.85-2.7.8-.15 2 .8 1.95-.6"/></g></svg>