<svg xmlns="http://www.w3.org/2000/svg" width="32.1" height="39.95"><g fill-rule="evenodd"><path fill="#e4dfa2" d="M18.05 10.8v3.4h-1.8v-3.4h1.8m1.3 0h1.8v3.4h-1.8v-3.4M18 32.7h-3.45v-4.85H18v4.85M7.65 28.55H8.9v1.2H7.65v-1.2m1.5 0h1.25v1.2H9.15v-1.2m0 1.4h1.25v1.2H9.15v-1.2m-1.5 0H8.9v1.2H7.65v-1.2"/><path fill="#554b41" d="M7.65 28.55v1.2H8.9v-1.2H7.65m1.5 0v1.2h1.25v-1.2H9.15m0 1.4v1.2h1.25v-1.2H9.15m-1.5 0v1.2H8.9v-1.2H7.65m11.7-27.9h-.95v1.1l-6.65 10.8 2.9 1.9v1.4L2.2 24.05v3.2l2.7 2.6v5.8l2.05.05.05-7.6 4.1-2.05.1 10.2 6.65 1.65 8.8-2.55v-10.3l2.05-1.35-5.55-3.65v-4.2l2.9-1.9-6.7-10.8v-1.1M8.8 14.5l7.4-11.95V0h5v2.55l7.35 11.95-3.6 2.4v2l7.15 4.75-3.65 2.4V36.8L17.7 39.95 9.05 37.8l-6.35-.25v-6.9L0 28.1v-5.3l11.75-6.4-2.95-1.9"/><path fill="#7d6455" d="M18.05 10.8h-1.8v3.4h1.8v-3.4m1.3 0v3.4h1.8v-3.4h-1.8M18 32.7v-4.85h-3.45v4.85H18m1.35-30.65v1.1l6.7 10.8-2.9 1.9v4.2l5.55 3.65-2.05 1.35v10.3l-8.8 2.55-6.65-1.65-.1-10.2L7 28.1l-.05 7.6-2.05-.05v-5.8l-2.7-2.6v-3.2l12.45-6.8v-1.4l-2.9-1.9 6.65-10.8v-1.1h.95"/></g></svg>