<svg xmlns="http://www.w3.org/2000/svg" width="35.85" height="42"><g fill-rule="evenodd"><path fill="#c8c8c8" d="M6.85 27.8v-3.45q0-2.5 1.1-4.9l2.7-4.6Q15.2 8.1 16.7 1.9h2.65q.95 3.9 2.75 7.45l6 10.1q1.1 2.4 1.1 4.9v3.45h-1.95q-2.65-7-7.05-8.5-7.45-1.9-11.4 8.5H6.85"/><path fill="#735546" d="M6.75 28.9H29.1v2.8H6.75v-2.8m24.75 4.2v2.8H4.35v-2.8H31.5m2.45 4.2v2.8H1.9v-2.8h32.05"/><path fill="#2d2d2d" d="M6.85 27.8H8.8q3.95-10.4 11.4-8.5 4.4 1.5 7.05 8.5h1.95l-.1 1.1H6.75l.1-1.1"/><path fill="#2d2d2d" d="M22.1 9.35Q20.3 5.8 19.35 1.9H16.7q-1.5 6.2-6.05 12.95l-2.7 4.6q-1.1 2.4-1.1 4.9v3.45l-.1 1.1v2.8H29.1v-2.8l.1-1.1v-3.45q0-2.5-1.1-4.9l-6-10.1M33.95 37.3H1.9v2.8h32.05v-2.8m-2.45-4.2H4.35v2.8H31.5v-2.8M14.85 1.45 15.2 0h5.65l.35 1.45q.85 3.7 2.6 7.1l6.1 10.2q1.2 2.75 1.2 5.6v5.35H31v1.45h2.45v4.2h2.4V42H0v-6.65h2.45v-4.2h2.4V27h.1v-2.65q0-2.85 1.25-5.6l2.85-4.95q4.5-6.65 5.8-12.35"/></g></svg>