<svg xmlns="http://www.w3.org/2000/svg" width="24.75" height="42"><g fill-rule="evenodd"><path fill="#e4dfa2" d="M11.3 12.75v3.6H9.65v-3.6h1.65m4.65 7.45v5H13.7v-5h2.25m-4.55 9.95v6.4H8.5v-6.4h2.9"/><path fill="#6e4d3b" d="M7.5 5.3H7v-1l5.45-2.4 5.3 2.4v1h-1l-4.3-1.7L7.5 5.3m.05 6.75H5.7v-2.5h.65v.55h4.75v.35h2.55v-.35h4.75v-.55h.65v2.5H7.55m11.3 24.6h3.95v3.45H1.95v-3.45h16.9"/><path fill="#6e4d3b" d="m11.1 7.95.65-.05.65.1h.7l.55-.05v2.5H11.1v-2.5"/><path fill="#f7c122" d="m12.8 5.8-.4.2-.3-.2-.15.05.2-.6.25-.05.3.2.1.4"/><path fill="#eb9533" d="m12.4 6 .4-.2.3.2.3 1-.3 1h-.7l.05-.15-.25-.6.2-1.25"/><path fill="#e2480c" d="m12.4 6-.2 1.25.25.6-.05.15-.65-.1-.25-.65.2-1.15.25-.25.15-.05.3.2"/><path fill="#4b4b4b" d="M12.45 1.9 7 4.3v1h1v4.8H6.35v-.55H5.7v2.5h1.85L5.9 36.65H1.95v3.45H22.8v-3.45h-3.95l-1.65-24.6h1.85v-2.5h-.65v.55h-1.65V5.3h1v-1l-5.3-2.4M3.8 7.65l1.3-.4V3.1L11.9 0h1l6.75 3.1v4.15l1.3.4v6.3h-1.7l1.4 20.75h4.1V42H0v-7.3h4.1l1.4-20.75H3.8v-6.3"/><path fill="#969696" d="m5.9 36.65 1.65-24.6h9.65l1.65 24.6H5.9M15.95 20.2H13.7v5h2.25v-5m-4.65-7.45H9.65v3.6h1.65v-3.6m.1 17.4H8.5v6.4h2.9v-6.4M8 10.1V5.3h-.5l4.95-1.7 4.3 1.7v4.8h-3.1V7.95L13.1 8l.3-1-.3-1-.3-.2-.1-.4-.3-.2-.25.05-.2.6-.25.25-.3-.2-.25.05-.2.35-.15 1.05.3.6v2.15H8"/><path fill="#969696" d="m11.7 6.1-.2 1.15.25.65-.65.05-.3-.6.15-1.05.2-.35.25-.05.3.2"/></g></svg>