<svg xmlns="http://www.w3.org/2000/svg" width="42" height="38.4"><g fill-rule="evenodd"><path fill="#917364" d="M26.5 25.15h4.25l-2.1-3.1-2.15 3.1m-15.3 0h4.3l-2.15-3.1-2.15 3.1m10.85-14.5v3.85l4 1.4q7.35 3.4 11 13.35L38 32.6l-13.05 3.2q-.3-5.1-3.95-9.75-3.65 4.65-3.95 9.75L4 32.6l1-3.35q3.5-9.9 10.95-13.35 2.25-1.05 4-1.4v-3.85h2.1"/><path fill="#64825a" d="M19.95 7.95h2.1q8.9 3.8 13.75 10.75 4.25 6.15 4.45 13.3l-1.3.5-.6-3.4q-2.7-10.9-11.3-16.1l-5-2.35h-2.1Q17.75 11.3 15 13 6.5 18.15 3.65 29.1L3 32.5 1.75 32q.2-7.2 4.45-13.3Q11 11.75 19.95 7.95"/><path fill="#917364" d="M22.05 7.95h-2.1v-.9L21 4.6l1.05 2.45v.9"/><path fill="#e6e1a5" d="m11.2 25.15 2.15-3.1 2.15 3.1h-4.3m15.3 0 2.15-3.1 2.1 3.1H26.5"/><path fill="#373737" d="M22.05 7.95v-.9L21 4.6l-1.05 2.45v.9Q11 11.75 6.2 18.7 1.95 24.8 1.75 32l1.25.5.65-3.4Q6.5 18.15 15 13q2.75-1.7 4.95-2.35v3.85q-1.75.35-4 1.4Q8.5 19.35 5 29.25L4 32.6l13.05 3.2q.3-5.1 3.95-9.75 3.65 4.65 3.95 9.75L38 32.6l-.95-3.35q-3.65-9.95-11-13.35l-4-1.4v-3.85l5 2.35q8.6 5.2 11.3 16.1l.6 3.4 1.3-.5q-.2-7.15-4.45-13.3-4.85-6.95-13.75-10.75m-3.8-1.65 2.7-6.3 2.7 6.3q8.35 3.85 13.2 10.55t5.1 14.85l.05 1.6-20.9 5.1L0 33.3l.05-1.6Q.3 23.55 5.1 16.85T18.25 6.3"/></g></svg>