<svg xmlns="http://www.w3.org/2000/svg" width="41.8" height="40.5"><g fill-rule="evenodd"><path fill="#eeead6" d="M21.55 31.15q3.4 4.55 3.9-3.35 0 .85.65 2.4 1.7 4.2 5.25 3.25 2.4-.65 3.95-3.4 1.55-2.6 2.05-6.7.45-3.5.05-6.85l-.85-5q-.4-1.95-.2-2.15.25-.3 1.2 1.45 1.05 2.05 1.75 5.15.9 3.8.6 8.2-.4 5.05-2.3 8.75-2.05 4.2-5.5 5.25-1.45.7-3.2.1-3.05-.8-6.05-5.1l-1.3-2M16.3 27.6q1.4 7.75 3.9 3.55-3.2 6-7.3 7.1-3.35.85-6.25-1.95-4.1-3.85-4.7-12.15-.6-7.65 2.3-13.35.9-1.75 1.2-1.45.2.2-.2 2.15l-.85 5q-.4 3.35.05 6.85.5 4.1 2.05 6.7 1.55 2.75 3.95 3.4 3.55.95 5.25-3.25.7-1.8.6-2.6"/><path fill="#6e5f41" d="M20.2 31.15q-2.5 4.2-3.9-3.55-.65-8.35-4.15-11.15 1.15-2.8 1.3-3.85.1-.65-.45-1.6l-.6-.85 1-2.3 1.95-3.25Q16.9 3.05 19 2.05l1.9.85 1.9-.85 1.25.7L26.4 4.6q1.3 1.3 3 5.55l-.6.85q-.55.95-.45 1.6.2 1.45 1.3 3.85-3.35 2.7-4.2 11.15v.2q-.5 7.9-3.9 3.35l1.35-14.3-1.3-2 1.35-2.35 4.65-.45-2.4-2.55h-8.6l-2.45 2.55 4.7.45 1.35 2.35-1.35 2 1.35 14.3"/><path fill="#968264" d="M21.55 31.15H20.2l-1.35-14.3 1.35-2-1.35-2.35-4.7-.45L16.6 9.5h8.6l2.4 2.55-4.65.45-1.35 2.35 1.3 2-1.35 14.3"/><path fill="#4b4b4b" d="M20.2 31.15h1.35l1.3 2q3 4.3 6.05 5.1 1.75.6 3.2-.1 3.45-1.05 5.5-5.25 1.9-3.7 2.3-8.75.3-4.4-.6-8.2-.7-3.1-1.75-5.15-.95-1.75-1.2-1.45-.2.2.2 2.15l.85 5q.4 3.35-.05 6.85-.5 4.1-2.05 6.7-1.55 2.75-3.95 3.4-3.55.95-5.25-3.25-.65-1.55-.65-2.4v-.2q.85-8.45 4.2-11.15-1.1-2.4-1.3-3.85-.1-.65.45-1.6l.6-.85q-1.7-4.25-3-5.55l-2.35-1.85-1.25-.7-1.9.85-1.9-.85q-2.1 1-3.65 2.55L13.4 7.85l-1 2.3.6.85q.55.95.45 1.6-.15 1.05-1.3 3.85 3.5 2.8 4.15 11.15.1.8-.6 2.6-1.7 4.2-5.25 3.25-2.4-.65-3.95-3.4-1.55-2.6-2.05-6.7-.45-3.5-.05-6.85l.85-5q.4-1.95.2-2.15-.3-.3-1.2 1.45-2.9 5.7-2.3 13.35.6 8.3 4.7 12.15 2.9 2.8 6.25 1.95 4.1-1.1 7.3-7.1M14 3.35q1.75-1.8 4.15-2.95l.95-.4 1.8.95L22.7 0l2.4 1.2 2.7 2.15q1.55 1.6 3.4 6.2l.45 1.1-.8.9-.6 1 1.75 4.6-1.15.95q-2.7 2.05-3.45 9.75 0 3.15 2.15 3.85 2.35.7 4-2.5 1.45-2.4 1.9-6.05.4-3.25 0-6.3l-1.15-7.1q0-1.05.7-1.7.55-.55 1.4-.55 2.85 0 4.8 8.1.95 4.2.6 8.95-.4 5.4-2.45 9.35-2.5 4.95-6.65 6.2l-2.35.4q-3 0-5.5-2.05-2.05-1.7-4.05-2.1-1.75.4-3.9 2.1-2.45 2.05-5.45 2.05l-2.4-.4q-1.95-.6-3.7-2.2Q.65 33.5 0 24.55q-.4-4.8.6-8.9.55-2.65 1.5-4.8Q4.35 6 6.8 8.05q.7.65.7 1.7l-1.2 7.1q-.35 3.1.05 6.3.5 3.7 1.85 6 1.6 3 4.05 2.25 2.15-.7 2.15-3.5-.8-7.7-3.45-9.8l-1.2-.95.6-1.35q1.05-2.4 1.15-3.25l-1.35-1.9.45-1.1q1.85-4.6 3.4-6.2"/></g></svg>