<svg xmlns="http://www.w3.org/2000/svg" width="42" height="41.6"><g fill-rule="evenodd"><path fill="#69503c" d="M19.2 7.15 4.25 18.5 2.2 15.65l17.6-13.2 19.15 28.4-4 1.35L19.2 7.15"/><path fill="#e6e1a0" d="m19.7 18.35-1.05 7.45-3.45-1.45-1.75-5.65 6.25-.35"/><path fill="#3c3228" d="M9.75 17.15V35.5l8.9 4.35L32.7 33.6 18.75 10.1l-9 7.05m9.45-10L34.95 32.2l4-1.35L19.8 2.45 2.2 15.65l2.05 2.85L19.2 7.15M20.75 0 42 31.25 18.4 41.6 8.1 36.55V17.3l-4.45 3.35L0 15.55 20.75 0"/><path fill="#8c7864" d="m9.75 17.15 9-7.05L32.7 33.6l-14.05 6.25-8.9-4.35V17.15m9.95 1.2-6.25.35 1.75 5.65 3.45 1.45 1.05-7.45"/></g></svg>