<svg xmlns="http://www.w3.org/2000/svg" width="42" height="32.8"><g fill-rule="evenodd"><path fill="#41553c" d="m23.9 12.6.05 1.4q1.8-.2 3.4-.85l1.05-.45q.6.1-.5 1.9.3.75.5.1.25.35-.15 1.2-2.05.55-4.25.7l1 7.65-1.2-.75q-1 .35-1.5-.7.6-1.95.3-2.6l-.9-1.4q1-1.2 1.2-2.3-1-1.3-.4-2.5.45.15.9-.3-1-1.05.5-1.1m-12.25 2.5-.15.1q-.7-.5-1.05-.4-1.25 1-1.65-2-2.1-.5-2.3-2.1l.75-1.3L9.5 6.7l3.65-3 .75-.45q.9.95-.6 1.85-.6.7-.3 1.3-.5.5-.3.7 1 .7.8 2.7l-.6 1.25-.6.9q1.95 2.1-.65 3.15m26.8 1.9q1.05 3.05 1.55 6.55l-7.5 4.3.15-.6.65-.95q.8-.5.7-.9.3-.7 1.2-1.4-.95-1.5-.1-2.7.95-.4 1.5-1.3-.7-2.1.3-3 .8-.5 1.55 0"/><path fill="#a0a0a0" d="M10.45 14.8q-2.7 5.6-1 13.05l-7.5-4.3Q3.1 15.7 6.5 10.7q.2 1.6 2.3 2.1.4 3 1.65 2m17.95-2.1 1.35-.8q-2.75-3.7-6-4.45l.15 5.15q-1.5.05-.5 1.1-.45.45-.9.3-.6 1.2.4 2.5-.2 1.1-1.2 2.3l.9 1.4q.3.65-.3 2.6.5 1.05 1.5.7l1.2.75.7 5.05-4.65 1.6-4.8-1.6 1.7-12.7q-3.35-.25-6.3-1.5 2.6-1.05.65-3.15 2.6 1.7 5.7 2.05l.2-6.55q-1.5.35-2.9 1.4l-2.4 2.2.6-1.25q.2-2-.8-2.7-.2-.2.3-.7-.3-.6.3-1.3 1.5-.9.6-1.85l.15-.1q2.8-1.3 5.8-1.3h2.25q6.5 0 11.55 6.2 3.1 3.8 4.8 8.95-.75-.5-1.55 0-1 .9-.3 3-.55.9-1.5 1.3-.85 1.2.1 2.7-.9.7-1.2 1.4.1.4-.7.9l-.65.95q1.4-6.95-1.15-12.45l-3.25 1.1q.4-.85.15-1.2-.2.65-.5-.1 1.1-1.8.5-1.9"/><path fill="#414141" d="M6.5 10.7q-3.4 5-4.55 12.85l7.5 4.3q-1.7-7.45 1-13.05.35-.1 1.05.4l.15-.1q2.95 1.25 6.3 1.5l-1.7 12.7 4.8 1.6 4.65-1.6-.7-5.05-1-7.65q2.2-.15 4.25-.7l3.25-1.1q2.55 5.5 1.15 12.45l-.15.6 7.5-4.3q-.5-3.5-1.55-6.55-1.7-5.15-4.8-8.95-5.05-6.2-11.55-6.2h-2.25q-3 0-5.8 1.3l-.15.1-.75.45-3.65 3-2.25 2.7-.75 1.3m.7-4.2Q12.7 0 19.85 0h2.25q7.15 0 12.65 6.5 5.45 6.4 7.05 16.75l.2 1.2-12.15 6.95.9-4q1.3-5.6-.25-10.3l-4.45 1.05L27.7 30.5l-6.8 2.3-6.65-2.3 1.65-12.35-4.45-1.05q-1.55 4.7-.25 10.3l.9 4L0 24.45l.15-1.2Q1.7 12.95 7.2 6.5"/><path fill="#414141" d="m12.3 11.95.6-.9 2.4-2.2q1.4-1.05 2.9-1.4L18 14q-3.1-.35-5.7-2.05m17.45-.05-1.35.8-1.05.45q-1.6.65-3.4.85l-.05-1.4-.15-5.15q3.25.75 6 4.45"/></g></svg>