<svg xmlns="http://www.w3.org/2000/svg" width="29.2" height="42"><g fill-rule="evenodd"><path fill="#a0a0a0" d="M16.95 9.6 14.6 7.25 12.25 9.6l2.35 2.35 2.35-2.35M5.65 27.7l2.55-5.05.7 5.4-.45.15q0-.95-.85-.5-.2.5-.6.6-.6-.5-1.35-.6m14.65.4.8-5.5 2.45 5.05-1.45.65q.2-2.25-1.8-.2m-7.7-.6V14.25L7.95 9.6l6.65-6.65 6.65 6.65-4.6 4.65V28.4q-.85.5-1.15.2.6-.9-.3-.9H15q-.4.75-1.3.6.25-.75-1.1-.8"/><path fill="#4b5f8c" d="m23.55 27.65 2.9 5.85-11.85 6.15L2.8 33.5l2.85-5.8q.75.1 1.35.6.4-.1.6-.6.85-.45.85.5l.45-.15.7 4.4 3 1.55v-6.5q1.35.05 1.1.8.9.15 1.3-.6h.2q.9 0 .3.9.3.3 1.15-.2V34l3.05-1.6.6-4.3q2-2.05 1.8.2l1.45-.65"/><path fill="#373737" d="m8.9 28.05-.7-5.4-2.55 5.05-2.85 5.8 11.8 6.15 11.85-6.15-2.9-5.85-2.45-5.05-.8 5.5-.6 4.3-3.05 1.6V14.25l4.6-4.65-6.65-6.65L7.95 9.6l4.65 4.65V34l-3-1.55-.7-4.4M5 9.6 14.6 0l9.65 9.6-5.5 5.5.25 7.2 3.95-.65L29.2 34.4 14.6 42 0 34.4l6.35-12.65 3.95.6.2-7.25L5 9.6"/><path fill="#373737" d="m16.95 9.6-2.35 2.35-2.35-2.35 2.35-2.35 2.35 2.35"/></g></svg>