<svg xmlns="http://www.w3.org/2000/svg" width="28.3" height="40.4"><g fill-rule="evenodd"><path fill="#535050" d="m13.6 26.95.35.15.15.3-.15.3-.35.15-.3-.05-.2-.25v-.3l.5-.3m1.5 0 .35.15.15.3-.5.45-.3-.05-.2-.25v-.3l.5-.3"/><path fill="#966e82" d="M16.85 2.85q1.1 1 1.3 2.5h6.9l-1.85 3.7h-2.6l2.6 25.8h3.25v3.7H1.85v-3.7H5.2l2.6-25.8H5.1l-1.85-3.7h7.1q.15-1.5 1.25-2.5t2.65-1q1.5 0 2.6 1m.35 23.8q-.05-3.45-1.05-6.25l-1.8-4.65h-.3q-.5 1.75-1.8 4.65-1 2.8-1.05 6.25v8.2h6v-8.2"/><path fill="#6e5050" d="M16.85 2.85q-1.1-1-2.6-1-1.55 0-2.65 1t-1.25 2.5h-7.1l1.85 3.7h2.7l-2.6 25.8H1.85v3.7h24.6v-3.7H23.2l-2.6-25.8h2.6l1.85-3.7h-6.9q-.2-1.5-1.3-2.5M5.75 10.9h-1.8L.3 3.5h8.65q1.4-3.5 5.3-3.5 3.75 0 5.3 3.5H28l-3.65 7.4h-1.7l2.2 22.1h3.45v7.4H0V33h3.55l2.2-22.1"/><path fill="#785a5a" d="M17.2 26.65v8.2h-6v-8.2q.05-3.45 1.05-6.25 1.3-2.9 1.8-4.65h.3l1.8 4.65q1 2.8 1.05 6.25m-3.6.3-.5.3v.3l.2.25.3.05.35-.15.15-.3-.15-.3-.35-.15m1.5 0-.5.3v.3l.2.25.3.05.5-.45-.15-.3-.35-.15"/></g></svg>