<svg xmlns="http://www.w3.org/2000/svg" width="30.4" height="41.2"><g fill-rule="evenodd"><path fill="#e4dfa2" d="M17.8 32.1h-5.2l1.25-9.1 2.85.2 1.1 8.9"/><path fill="#735a4b" d="m15.2 5.5-2.65-2.75-1.65 2.5 2.3 2.4L2.4 25.3l1.65 2.5 2.35-2.7.05 8.15 8.5 5.15 9-5.25-.15-8.3 2.55 2.95L28 25.3 17.1 7.7l2.4-2.45-1.65-2.5L15.2 5.5m-6.85.4 3.9-5.9 2.95 3.05L18.1 0l3.95 5.9-2.4 2.5L30.4 25.75l-3.85 5.8-.65-.75.1 3.9-11.1 6.5-10.45-6.4v-3.95l-.6.7L0 25.8 10.7 8.35 8.35 5.9"/><path fill="#a5826e" d="m17.8 32.1-1.1-8.9-2.85-.2-1.25 9.1h5.2M15.2 5.5l2.65-2.75 1.65 2.5-2.4 2.45L28 25.3l-1.65 2.5-2.55-2.95.15 8.3-9 5.25-8.5-5.15-.05-8.15-2.35 2.7-1.65-2.5L13.2 7.65l-2.3-2.4 1.65-2.5L15.2 5.5"/></g></svg>