<svg xmlns="http://www.w3.org/2000/svg" width="32.35" height="42"><g fill-rule="evenodd"><path fill="#6e4d3b" d="M14.55 36.5v-7.55h3.2v7.55h-3.2m2.6-3.8-.3.3.3.3.4-.3-.4-.3"/><path fill="#e4dfa2" d="m17.15 32.7.4.3-.4.3-.3-.3.3-.3"/><path fill="#e6e1a5" d="M13.7 17.65v1.8h-1.85v-1.8h1.85m4.95 1.8v-1.8h1.8v1.8h-1.8"/><path fill="#8c82a0" d="M14.55 36.5h-3.1L8.3 40.15 1.5 34.1l2.45-10.8h2.5v3.4h.9v-3.4H9.3v-7.65h2.1l-.3-3.05-1.55 1.55L8 12.6l6.65-7.9-1.45-1.5 1.5-1.45 1.45 1.55 1.45-1.55 1.5 1.45-1.4 1.5 6.7 7.9-1.65 1.55-1.5-1.55-.3 3.05h2.1v7.65h1.9v3.4h.95v-3.4h2.45l2.5 10.8L24 40.15l-3.1-3.65h-3.15v-7.55h-3.2v7.55m4.1-17.05h1.8v-1.8h-1.8v1.8m-4.95-1.8h-1.85v1.8h1.85v-1.8"/><path fill="#5a4b6e" d="m19.1 3.2-1.5-1.45-1.45 1.55-1.45-1.55-1.5 1.45 1.45 1.5L8 12.6l1.55 1.55 1.55-1.55.3 3.05H9.3v7.65H7.35v3.4h-.9v-3.4h-2.5L1.5 34.1l6.8 6.05 3.15-3.65h9.45l3.1 3.65 6.85-6.05-2.5-10.8H25.9v3.4h-.95v-3.4h-1.9v-7.65h-2.1l.3-3.05 1.5 1.55 1.65-1.55-6.7-7.9 1.4-1.5M7.95 14.55 6.2 12.7l6.6-7.9-1.2-1.25-.15-.35L14.4.1h.7l1.05 1.2L17.3.1l.3-.1.35.1 2.95 3.1-.15.35-1.2 1.25L26 12.4l.1.3-.1.3-1.6 1.55.05 7.35h4.65l.5.35 2.75 12.35-8.1 7.3-.45.1-3.55-4.15H12.1L8.6 42h-.3L.15 34.8 0 34.35l2.75-12.1.45-.35h4.7l.05-7.35"/></g></svg>