<svg xmlns="http://www.w3.org/2000/svg" width="27.3" height="42"><g fill-rule="evenodd"><path fill="#555a64" d="m13.65 2.35-4.3 7.85-.6 12.15-3.1-4.75-4.35 6.35v9.85l12.3 6.5 12.45-6.55v-9.8L21.7 17.6l-3.1 4.75L18 10.2l-4.35-7.85m0-2.35 5.6 10.1.4 8.55 2.05-3.1 5.6 8.3V34.8L13.6 42 0 34.85v-11l5.65-8.3 2.05 3.1.4-8.55L13.65 0"/><path fill="#7d8791" d="m14.1 7-.05 5.3q0 .35.5.85l2.65 2.4v-1.1L14.1 7m2.6 9.25-2.6-2.4-.05 1.15.5.8 2.65 2.45V17.1l-.5-.85m0 2.65-2.6-2.4-.05 1.15q0 .3.55.85l2.6 2.4v-1.15l-.5-.85M13.65 2.35 18 10.2l.6 12.15 3.1-4.75 4.35 6.35v9.8L13.6 40.3 1.3 33.8v-9.85l4.35-6.35 3.1 4.75.6-12.15 4.3-7.85m11.55 24.3v-1.3l-.45-.65-2.65-2.45v1.15q0 .35.5.85l2.6 2.4m-3.9-3.4-.05-1.15-2.6 2.4-.5.85v1.15l2.65-2.4.5-.85m0 1.6-2.65 2.35q-.5.5-.5.85v1.15l2.65-2.45.5-.85v-1.05m-.05 2.6-3.1 3.25v4.7l3.15-1.7-.05-6.25M13.25 7l-3.15 7.45.05 1.1 2.6-2.4q.55-.55.55-.85L13.25 7m0 9.5-2.6 2.4-.55.85.05 1.15 2.6-2.4q.5-.5.5-.85V16.5m-3.1 1.75 2.6-2.45.55-.8-.05-1.15-2.6 2.4-.55.85.05 1.15m-.95 7.1-.5-.85-2.65-2.4v1.15l.5.85 2.6 2.4.05-1.15M5.25 23.4l-.05-1.15-2.6 2.45-.45.65v1.3l2.6-2.4q.5-.5.5-.85m.15 1.45L2.75 27.2l-.5.85.05 3.75 3.1 1.6v-8.55m.65-.05v1.1l.5.85 2.55 2.3.1-1q0-.35-.5-.85l-2.65-2.4m7.2-5.6-2.6 2.4-.55.85V35.9l2.75 1.45.4-18.15"/><path fill="#555a64" d="m13.25 7 .05 5.3q0 .3-.55.85l-2.6 2.4-.05-1.1L13.25 7m.85 0 3.1 7.45v1.1l-2.65-2.4q-.5-.5-.5-.85L14.1 7m-.85 12.2-.4 18.15-2.75-1.45V22.45l.55-.85 2.6-2.4M5.4 24.85v8.55l-3.1-1.6-.05-3.75.5-.85 2.65-2.35m15.85 2.6.05 6.25-3.15 1.7v-4.7l3.1-3.25"/><path fill="#ccc4a4" d="m9.2 25.35-.05 1.15-2.6-2.4-.5-.85V22.1l2.65 2.4.5.85m-3.15-.55 2.65 2.4q.5.5.5.85l-.1 1-2.55-2.3-.5-.85v-1.1m-.8-1.4q0 .35-.5.85l-2.6 2.4v-1.3l.45-.65 2.6-2.45.05 1.15m8-6.9v1.15q0 .35-.5.85l-2.6 2.4-.05-1.15.55-.85 2.6-2.4m-3.1 1.75-.05-1.15.55-.85 2.6-2.4.05 1.15-.55.8-2.6 2.45m6.55-2 .5.85v1.15l-2.65-2.45-.5-.8.05-1.15 2.6 2.4m0 2.65.5.85v1.15l-2.6-2.4q-.55-.55-.55-.85l.05-1.15 2.6 2.4m4.6 4.35-.5.85-2.65 2.4v-1.15l.5-.85 2.6-2.4.05 1.15m3.9 3.4-2.6-2.4q-.5-.5-.5-.85v-1.15l2.65 2.45.45.65v1.3m-3.9-1.8v1.05l-.5.85-2.65 2.45v-1.15q0-.35.5-.85l2.65-2.35"/></g></svg>