<svg xmlns="http://www.w3.org/2000/svg" width="26.85" height="38.7"><g fill-rule="evenodd"><path fill="#6e8296" d="m19.65 10.55.15.2-.05.4q.15.8-.25 1.6l-.1.15-.25-.35.1-1-.35-.9-.4-.4-1.35-.45 1.05-.4 1.6-.25.05.25-.5.3v.6l.3.25M14.1 5.4l-.25.55-.75.2q-.55 0-.6-.3-.85-2.55.8-2.75.85 0 .7.5-.2.85.1 1.8"/><path fill="#c0b998" d="m20.25 9.8.1.05-.1.15v-.2"/><path fill="#ccc4a4" d="m24.75 20.05-.25 2.1-10.75 10.7L3 22.05l-.25-2v-2.9l11 11.05 11-10.95v2.8M19.85 9.4l.4.4-.4-.1-.5.3v-.3l.5-.3m.15 1.15-.05.2h-.15l-.15-.2H20"/><path fill="#ccc4a4" d="m19.85 9.7.4.1v.2l.1.15-.35.4h-.35l-.3-.25V10l.5-.3"/><path fill="#eee6dc" d="M21.85 13.8q-.25 1.05-.7 1.05l-.1-.55-.25-.3 1.05-.2m-2.1 2.45q0 .2.65.2h.2q.1.25-.6.45l-.25-.65"/><path fill="#555a64" d="M17.75 4.6Q17.5 3.65 16 2.9q-.3-.65-1.15-1.2-1.65-.7-3.25.45Q9.15 1 6.6 1l-1.55.15q-.75.2-.85.95l-2.4.3q-.8.2-.8.95-.1.7.55 1.1L3.5 6H1.4v14.05q0 3.6 2.5 8.2 3.2 5.9 8.95 9.2l.25.25h1.05l.25-.25q5.75-3.3 8.95-9.2 2.5-4.6 2.5-8.2V6H18.5l-.25-.25q-.4-.5-.5-1.15M.4 5h.2q-.75-.85-.6-1.8.15-1.4 1.55-1.75L3.5 1.1Q4 .35 4.8.2L6.6 0q2.5 0 4.9 1.05 1.85-1.1 3.75-.25l1.5 1.35q1.65.95 1.95 2.25l.25.6h7.9v15.05q0 3.75-2.55 8.55-3.35 6.2-9.3 9.65l-.45.45H12.7l-.45-.45Q6.3 34.8 2.95 28.6.4 23.8.4 20.05V5"/><path fill="#7d8791" d="m21.85 13.8.9-.3q.5-.35.55-1.4.7-.7-.05-1.3l-1.55.05q-.65-.05-1.05-.9.05-.5-1.5-1.95L17.4 6.4q-.45-.55-.7-1.55l-.85-.8-.75-.35q0-.65-.7-1.05l-.8-.15q-1.05 0-1.75.9-2.8-1.35-5.25-1.35l-1.3.15 1.45 1.1-2.35-.15-2.3.25v.15Q5.35 5.35 7.25 10l1.7 4.05q1.05 2.9 4 5.2 1.45 1.15 2.7 1.7l-1.3-3.8.75-.75 1-.45 2.55 1.7.5.1q.9 0 1-.35l-.15-.5q.7-.2.6-.45h-.2q-.65 0-.65-.2-.5-1.2-.05-1.7l.45-.4.65-.15.25.3.1.55q.45 0 .7-1.05m-4.1-9.2q.1.65.5 1.15l.25.25h7.35v14.05q0 3.6-2.5 8.2-3.2 5.9-8.95 9.2l-.25.25H13.1l-.25-.25q-5.75-3.3-8.95-9.2-2.5-4.6-2.5-8.2V6h2.1L1.55 4.45Q.9 4.05 1 3.35q0-.75.8-.95l2.4-.3q.1-.75.85-.95L6.6 1q2.55 0 5 1.15Q13.2 1 14.85 1.7q.85.55 1.15 1.2 1.5.75 1.75 1.7m7 15.45v-2.8l-11 10.95-11-11.05v2.9l.25 2 10.75 10.8 10.75-10.7.25-2.1"/><path fill="#ccc4a4" d="m15.1 3.7.75.35.85.8q.25 1 .7 1.55L19.15 8q1.55 1.45 1.5 1.95.4.85 1.05.9l1.55-.05q.75.6.05 1.3-.05 1.05-.55 1.4l-.9.3-1.05.2-.65.15-.45.4q-.45.5.05 1.7l.25.65.15.5q-.1.35-1 .35l-.5-.1-2.55-1.7-1 .45-.75.75 1.3 3.8q-1.25-.55-2.7-1.7-2.95-2.3-4-5.2L7.25 10Q5.35 5.35 2.1 3.55V3.4l2.3-.25 2.35.15L5.3 2.2l1.3-.15q2.45 0 5.25 1.35.7-.9 1.75-.9l.8.15q.7.4.7 1.05m-1 1.7q-.3-.95-.1-1.8.15-.5-.7-.5-1.65.2-.8 2.75.05.3.6.3l.75-.2.25-.55m5.7 5.35h.15l.05-.2.35-.4-.1-.15.1-.15-.1-.05-.4-.4-.05-.25-1.6.25-1.05.4 1.35.45.4.4.35.9-.1 1 .25.35.1-.15q.4-.8.25-1.6l.05-.4"/></g></svg>