<svg xmlns="http://www.w3.org/2000/svg" width="28.75" height="42"><g fill-rule="evenodd"><path fill="#e4dfa2" d="M15.65 24.1H13.1v-9h2.55v9"/><path fill="#6e4d3b" d="M10.8 39.1 12 31h4.7l1.2 8.15-7.1-.05m2.85-4.3-.3.3.3.3.4-.3-.4-.3m1.1 0-.3.3.3.3.4-.3-.4-.3"/><path fill="#e4dfa2" d="m13.65 34.8.4.3-.4.3-.3-.3.3-.3m1.1 0 .4.3-.4.3-.3-.3.3-.3"/><path fill="#5a3c3c" d="m19.5 14.15-.9-4.5-4.25-7.3-4.2 7.3-.9 4.5H8.5l.5 2.6h-.6v8.2H3.55l.55 5.5-1.55-2.65-1.05 7.05 9.3 4.25 7.1.05 9.35-4.3-1.1-7.05-1.55 2.65.6-5.5h-4.85v-8.2h-.6l.45-2.6h-.7M8.8 9.2l4.25-7.45L13.6 0h1.55l.5 1.75 4.25 7.3.7 3.55h1.25l-.45 2.55h.3v8.2h5l.25.25 1.8 11.8-13.65 6.2-.65.4L0 35.4l1.8-11.8.2-.25h5v-8.2h.35L6.9 12.6h1.2l.7-3.4"/><path fill="#cd5a5a" d="m10.8 39.1-9.3-4.25 1.05-7.05 1.55 2.65-.55-5.5H8.4v-8.2H9l-.5-2.6h.75l.9-4.5 4.2-7.3 4.25 7.3.9 4.5h.7l-.45 2.6h.6v8.2h4.85l-.6 5.5 1.55-2.65 1.1 7.05-9.35 4.3L16.7 31H12l-1.2 8.1m4.85-15v-9H13.1v9h2.55"/></g></svg>