<svg xmlns="http://www.w3.org/2000/svg" width="29.55" height="42"><g fill-rule="evenodd"><path fill="#2d2d2d" d="M27.15 7.75h-3.3l-.25-.4-.2.4H23l.15-1.95h4v1.95m0 12.8q0 2.9-1.85 7.05l-2.05 3.75q-1.75 2.7-4.15 4.9l-.5.45v-9.15l.45.35 1.35.5.05-1.3 2.65-6.5 2.95-4.35-.3-.7h1.4v5M6.5 7.7H2.2V5.8h4.2l.1 1.9m-4.3 7.85h1.6l-.3.7 2.95 4.35 2.65 6.5.05 1.3 1.6-.65v8.95l-.5-.45q-3.9-3.6-6.15-8.65-1.9-4.15-1.9-7.05v-5m19.95-10.5-.25 3.4-.1 4 1.85-3.1.4.7-.25 3.65 1.1 2.4-2.75 4-2.7 6.85-2.5-8.85.6.4q2.3 1.3 2.3-1.6l.15-.1 2.65 1.1q0-1.25-1.15-4.15l-1.4-2.2q.4 1.8.45 4.15l-2.6.3q-.95.2-2.05 1.6 2 8.8 1.25 10.65-.35.9-2.2 1.05 1.65-2.25 1.7-2.9l-1.85-.2-1.9.2q.05.65 1.7 2.9-1.85-.15-2.25-1.05-.45-1.15.35-5.95l.9-4.7q-.95-1.35-2-1.6L9 15.7l.4-4.15-1.3 1.95q-1.2 3.4-1.2 4.35l2.65-1.05.15.1q-.2 1.95 1 1.95.8 0 1.9-.75l-1.3 4.7q-1.05 4.1-1.2 4.15L7.35 20.1l-2.7-4 1.05-2.4-.25-4.05.45-.3 1.75 2.9q.15-.8-.3-7.2l4.3 4.1q1.7-1.2 2.65-1.2l-.45 8.75.9 1.05.9-1.05-.4-8.75q.95 0 2.7 1.25l4.2-4.15"/><path fill="#5a3c3c" d="M20.15 4.8H9.25L5.2 1.05l.25 3.75H1.2v15.75q0 3.1 1.95 7.5 2.1 4.7 5.6 8.2l2 1.8 3.95 2.65 3.9-2.65 2-1.8 2.65-3.05q1.75-2.35 3-5.15 1.95-4.4 1.95-7.5V4.8h-4.25l.3-3.9-4.1 3.9M0 20.55V3.5h4.1L3.9 0H6l3.8 3.5h9.85l3.7-3.5h2.3l-.3 3.5h4.2v17.05q0 3.2-1.95 7.75-1.7 3.9-4.35 7.1l-3.75 3.65q-2 1.6-3.9 2.65l-.3.3h-1.05l-4.2-2.95-2.95-2.8Q3.85 32.8 1.95 28.3 0 23.8 0 20.55"/><path fill="#cd5a5a" d="M27.15 7.75V5.8h-4L23 7.75h.4l.2-.4.25.4h3.3m-7-2.95 4.1-3.9-.3 3.9h4.25v15.75q0 3.1-1.95 7.5-1.25 2.8-3 5.15l-2.65 3.05-2 1.8-3.9 2.65-3.95-2.65-2-1.8q-3.5-3.5-5.6-8.2-1.95-4.4-1.95-7.5V4.8h4.25L5.2 1.05 9.25 4.8h10.9M2.2 15.55v5q0 2.9 1.9 7.05 2.25 5.05 6.15 8.65l.5.45v-8.95l-1.6.65-.05-1.3-2.65-6.5-2.95-4.35.3-.7H2.2M6.5 7.7l-.1-1.9H2.2v1.9h4.3m20.65 12.85v-5h-1.4l.3.7-2.95 4.35-2.65 6.5-.05 1.3-1.35-.5-.45-.35v9.15l.5-.45q2.4-2.2 4.15-4.9l2.05-3.75q1.85-4.15 1.85-7.05m-5-15.5-4.2 4.15q-1.75-1.25-2.7-1.25l.4 8.75-.9 1.05-.9-1.05.45-8.75q-.95 0-2.65 1.2l-4.3-4.1q.45 6.4.3 7.2L5.9 9.35l-.45.3.25 4.05-1.05 2.4 2.7 4 2.75 6.85q.15-.05 1.2-4.15l1.3-4.7q-1.1.75-1.9.75-1.2 0-1-1.95l-.15-.1-2.65 1.05q0-.95 1.2-4.35l1.3-1.95L9 15.7l2.6.3q1.05.25 2 1.6l-.9 4.7q-.8 4.8-.35 5.95.4.9 2.25 1.05-1.65-2.25-1.7-2.9l1.9-.2 1.85.2q-.05.65-1.7 2.9 1.85-.15 2.2-1.05.75-1.85-1.25-10.65 1.1-1.4 2.05-1.6l2.6-.3q-.05-2.35-.45-4.15l1.4 2.2q1.15 2.9 1.15 4.15L20 16.8l-.15.1q0 2.9-2.3 1.6l-.6-.4 2.5 8.85 2.7-6.85 2.75-4-1.1-2.4.25-3.65-.4-.7-1.85 3.1.1-4 .25-3.4"/></g></svg>