<svg xmlns="http://www.w3.org/2000/svg" width="39.55" height="42"><g fill-rule="evenodd"><path fill="#ebebeb" d="M30.9 17.2q-.4 1.1-1.5 1.3-1.35-.4-2.4-.4-.7-.1-.9.1-.35 1.9-1.6 2.5-.95-.45-1.9-.3-2.35.6-5.2.6-2.4 1.2-5.2.7-.6-.9-1.8-1.5-1 .5-1.8.45l1.6-3.1 3.3 2.3L20.1 2l6.15 13.4 2.5-4L31 17.1l-.1.1"/><path fill="#ccc" d="m31 17.1-2.25-5.7-2.5 4L20.1 2l-6.6 17.85-3.3-2.3-1.6 3.1-.9-.25q-.1-.55-.65-.6l2.5-5 3.1 2.15L18.9 0h2.4l5.25 11.5 2.6-4.15 3.7 9.25q-1.35.15-1.85.5"/><path fill="#4e3a32" d="m32.85 16.6 6.7 16.9L24.7 42v-3.15q0-6.85-1.2-10.5-1-3-2.45-3T18.6 28.4q-1.2 3.7-1.25 10.65v2.9L0 33.75 7.05 19.8q.55.05.65.6l.9.25-6.2 12.2 13 6.2q0-15.55 5.55-15.55 5.4 0 5.55 15.35l10.7-6.15L31 17.1q.5-.35 1.85-.5"/><path fill="#685046" d="M8.6 20.65q.8.05 1.8-.45 1.2.6 1.8 1.5 2.8.5 5.2-.7 2.85 0 5.2-.6.95-.15 1.9.3 1.25-.6 1.6-2.5.2-.2.9-.1 1.05 0 2.4.4 1.1-.2 1.5-1.3l.1-.1 6.2 15.6-10.7 6.15q-.15-15.35-5.55-15.35-5.55 0-5.55 15.55l-13-6.2 6.2-12.2"/></g></svg>