<svg xmlns="http://www.w3.org/2000/svg" width="32.75" height="42"><g fill-rule="evenodd"><path fill="#3c555a" d="M16.35 42 0 33.05V13.7h7.85V0h6.1l-.25 2.3q0 1.1.8 1.9.75.8 1.85.8 1.15 0 1.9-.8.8-.75.8-1.9L18.8 0h6.1v13.7h7.85v19.35L16.35 42M20.9 2.35q0 1.9-1.35 3.2-1.3 1.35-3.2 1.35-1.85 0-3.15-1.35-1.35-1.35-1.35-3.2l.05-.5H9.7v34.4l4.85 2.65V28q0-1.4.9-2.3l.9-.6.95.6q.9.9.9 2.3v10.9l4.85-2.65V1.85h-2.2l.05.5m3.9 13.2V35.3l6.1-3.3V15.55h-6.1m-22.95 0V32l6.1 3.3V15.55h-6.1"/><path fill="#afc3c8" d="M1.85 15.55h6.1V35.3L1.85 32V15.55M20.9 2.35l-.05-.5h2.2v34.4L18.2 38.9V28q0-1.4-.9-2.3l-.95-.6-.9.6q-.9.9-.9 2.3v10.9L9.7 36.25V1.85h2.2l-.05.5q0 1.85 1.35 3.2 1.3 1.35 3.15 1.35 1.9 0 3.2-1.35 1.35-1.3 1.35-3.2m-1.35 9.05q-1.3-1.35-3.2-1.35-1.85 0-3.15 1.35-1.35 1.35-1.35 3.2t1.35 3.2q1.3 1.3 3.15 1.3 1.9 0 3.2-1.3 1.35-1.35 1.35-3.2t-1.35-3.2m5.25 4.15h6.1V32l-6.1 3.3V15.55"/><path fill="#dce6c8" d="M19.55 11.4q1.35 1.35 1.35 3.2t-1.35 3.2q-1.3 1.3-3.2 1.3-1.85 0-3.15-1.3-1.35-1.35-1.35-3.2t1.35-3.2q1.3-1.35 3.15-1.35 1.9 0 3.2 1.35"/></g></svg>