<svg xmlns="http://www.w3.org/2000/svg" width="32.55" height="42"><g fill-rule="evenodd"><path fill="#afc3c8" d="m16.35 3.35-.3.1-.65 1.25-.6 1.85-.7 3q-.9.75-.9 1.95l.45 1.75q-.75 1.15-.15 2.7l-2.25 4-.25.2-.55.15-.5-.25-.55-.95q1.3-2.3-.4-3.7l-.7-3-.6-1.85Q7.35 9.5 7.05 9.3l-.15-.1-.5.1-.65 1.25-1.1 3.8-.2 1.1-.5.65q-.8 1.45-.1 2.9-.45.85-.4 1.7l2.75 4.9.45.4 4.8-1.05 4.9-.45q3.8 0 9.25 1.4l.25.05.35-.15 2.9-5.05q.1-.9-.4-1.75.7-1.45-.1-2.9l-.5-.65-1.3-4.9-.65-1.25-.35-.1-.3.1q-.3.2-.65 1.25l-.6 1.85-.7 3q-1.55 1.3-.45 3.7l-.3.7-.7.5q-.55 0-2.35-3.6l-.5-.8q.8-1.2.05-2.65l-.05-.1q.7-1.45-.1-2.9l-.5-.65-1.3-4.9-.65-1.25-.35-.1m14.25 15.3q0 4.1-2.85 9.6-3.95 7.6-11.45 11.85-7.55-4.25-11.5-11.85-2.85-5.5-2.85-9.6V1.9H30.6v16.75M16.25 27.5l-2.35 3.75 2.35 3.8 2.4-3.8-2.4-3.75"/><path fill="#afc3c8" d="m18.65 20-2.4 3.8L13.9 20l2.35-3.8 2.4 3.8"/><path fill="#465a5f" d="m16.35 3.35.35.1.65 1.25 1.3 4.9.5.65q.8 1.45.1 2.9l.05.1q.75 1.45-.05 2.65l.5.8q1.8 3.6 2.35 3.6l.7-.5.3-.7q-1.1-2.4.45-3.7l.7-3 .6-1.85q.35-1.05.65-1.25l.3-.1.35.1.65 1.25 1.3 4.9.5.65q.8 1.45.1 2.9.5.85.4 1.75l-2.9 5.05-.35.15-.25-.05q-5.45-1.4-9.25-1.4l-4.9.45L6.65 26l-.45-.4-2.75-4.9q-.05-.85.4-1.7-.7-1.45.1-2.9l.5-.65.2-1.1 1.1-3.8.65-1.25.5-.1.15.1q.3.2.65 1.25l.6 1.85.7 3q1.7 1.4.4 3.7l.55.95.5.25.55-.15.25-.2 2.25-4q-.6-1.55.15-2.7l-.45-1.75q0-1.2.9-1.95l.7-3 .6-1.85.65-1.25.3-.1M18.65 20l-2.4-3.8L13.9 20l2.35 3.8 2.4-3.8m-2.4 7.5 2.4 3.75-2.4 3.8-2.35-3.8 2.35-3.75"/><path fill="#465a5f" d="M30.6 18.65V1.9H1.95v16.75q0 4.1 2.85 9.6 3.95 7.6 11.5 11.85 7.5-4.25 11.45-11.85 2.85-5.5 2.85-9.6m-30.6 0V0h32.55v18.65q0 4.5-2.95 10.25-4.1 8.1-12.15 12.7l-.4.4h-1.6l-.35-.4Q7.1 37 2.95 28.9 0 23.15 0 18.65"/></g></svg>