<svg xmlns="http://www.w3.org/2000/svg" width="39.35" height="42"><g fill-rule="evenodd"><path fill="#6e8c6e" d="M33.8 4.7q1.85 1.2 2.9 3.35 1 2.15.75 4.4-.7 3.9-3.65 6.5-.15 4.35-3 9.6-4 7.45-11.35 11.55-7.5-4.2-11.5-11.85-2.85-5.5-2.85-9.6v-2.3L3.65 15.3Q1.8 13.55 1.9 10.8q0-3.7 3.2-6.25V1.9h28.7v2.8M3.45 12.65q.85 2.3 3.05 2.75l1.05.05.7-.1q1.1-.3 1.6-1.25.55-1.1.1-2-.35-.55-.85-.55.4.55.25 1l-.7.95-.75.25-.45-.1q-.85-.25-1.35-1-.55-.8-.35-1.75.35-2.4 2.7-3.3l1.35-.2 1.6.2 1.65.55 1.7 1.2 1.4 1.65q1.05 1.8 1.05 3.8l-.3 1.4-.2.1q-2 1.15-3.25 2.95l-1 1.75q-1.35 2.55-1.05 5.6.3 4.1 3.35 6.65 1.15.9 2.85 1.2l1.3.15 1.85-.3 1.25-.55 1.5-1.15.85-1.65q.45-1.7-.4-3.2l-1.05-1.1q-.65-.35-1.3-.35l-.75.1q-.6.15-.85.55l-.2.25q-.4.65-.1.95l.75-.65 1.1.1q.6.35.8 1 .25.85-.2 1.65-.4.9-1.35 1.2l-1.6.3-.75-.15q-2.15-.4-3.05-2.8l-.55-2.35q-.1-1.6.4-2.95l.5-1.15.45-.65q.9-1.4 2.25-2.15L20.1 19l2.85 1.15 1.55.25 1.5.05 1.3-.15 1.2-.3q1.5-.45 2.85-1.3l1.7-1.35q2.2-2.1 2.7-5.15.2-1.6-.35-3.1l-.3-.65-1.45-2-1.1-.8-1.2-.55-1.25-.2-1.35.2q-1.6.5-2.35 1.95-.9 1.35-.1 2.75.45.8 1.2 1.05h.85l.55-.4h-.2q-.5 0-.8-.3l-.5-1 .05-.4.45-.8 1.05-.6.7-.1q.75 0 1.5.6l1.3 1.8q1.2 3.15-2.65 5.9l-2 .95-1.6.35-2-.15-1.55-.45-.05.25-1.7-1.6v-.2q0-2.9-1.7-5.6l-2.35-2.65-1.1-.75-1.5-.75-2.7-.75-1.1-.05-1.75.15-1.55.45Q5.4 5.5 4.3 7.2q-1.9 2.7-.85 5.45"/><path fill="#373737" d="M3.45 12.65q-1-2.7.85-5.45 1.1-1.7 2.85-2.45L8.7 4.3l1.75-.15 1.1.05 2.7.75 1.5.75 1.1.75L19.2 9.1q1.7 2.7 1.7 5.6v.2l1.7 1.6.05-.25 1.55.45 2 .15 1.6-.35 2-.95q3.85-2.75 2.65-5.9l-1.3-1.8q-.75-.6-1.5-.6l-.7.1-1.05.6-.45.8-.05.4.5 1q.3.3.8.3h.2l-.55.4h-.85q-.75-.25-1.2-1.05-.8-1.4.1-2.75.75-1.45 2.35-1.95l1.35-.2 1.25.2 1.2.55 1.1.8 1.45 2 .3.65q.55 1.5.35 3.1-.5 3.05-2.7 5.15l-1.7 1.35Q30 19.55 28.5 20l-1.2.3-1.3.15-1.5-.05-1.55-.25L20.1 19l-1.65.55q-1.35.75-2.25 2.15l-.45.65-.5 1.15q-.5 1.35-.4 2.95l.55 2.35q.9 2.4 3.05 2.8l.75.15 1.6-.3q.95-.3 1.35-1.2.45-.8.2-1.65-.2-.65-.8-1l-1.1-.1-.75.65q-.3-.3.1-.95l.2-.25q.25-.4.85-.55l.75-.1q.65 0 1.3.35l1.05 1.1q.85 1.5.4 3.2l-.85 1.65-1.5 1.15-1.25.55-1.85.3-1.3-.15q-1.7-.3-2.85-1.2-3.05-2.55-3.35-6.65-.3-3.05 1.05-5.6l1-1.75q1.25-1.8 3.25-2.95l.2-.1.3-1.4q0-2-1.05-3.8l-1.4-1.65-1.7-1.2-1.65-.55-1.6-.2-1.35.2q-2.35.9-2.7 3.3-.2.95.35 1.75.5.75 1.35 1l.45.1.75-.25.7-.95q.15-.45-.25-1 .5 0 .85.55.45.9-.1 2-.5.95-1.6 1.25l-.7.1-1.05-.05q-2.2-.45-3.05-2.75"/><path fill="#373737" d="M33.8 4.7V1.9H5.1v2.65Q1.9 7.1 1.9 10.8q-.1 2.75 1.75 4.5l1.45 1.05v2.3q0 4.1 2.85 9.6 4 7.65 11.5 11.85Q26.8 36 30.8 28.55q2.85-5.25 3-9.6 2.95-2.6 3.65-6.5.25-2.25-.75-4.4-1.05-2.15-2.9-3.35M3.2 0h32.5v3.7q1.9 1.6 2.9 4 1 2.45.75 4.95l-.05.1q-.65 4.1-3.65 7.1-.55 5-3.5 10.25-4.1 7.3-11.5 11.55l-.4.35h-1.6l-.35-.35q-8-4.6-12.15-12.75Q3.2 23.15 3.2 18.65v-1.2l-.9-.75q-2.5-2.4-2.3-6 .1-4.1 3.2-7.05V0"/></g></svg>