<svg xmlns="http://www.w3.org/2000/svg" width="26.05" height="42"><g fill-rule="evenodd"><path fill="#ebebeb" d="m16.5 25.05.2.1.1.35-.3.45-.15-.1v-.7l.15-.1m-7-.1.2.1.1.35-.3.45-.15-.1v-.7l.15-.1"/><path fill="#f0f0f0" d="M13.45 4.65q.1-.55 1.15-.55 1.1 0 3 1.3l2.2 1.95.1-.4-.1-1.45q-2-2.75-.75-2.65Q22 3.1 21.75 8L21 11.55q.2.2.75 0l.95-.65.35.2q.25.6-.25 1.35-.75 1.25-1.85 1.75-1.6.65-3.25 2.55l-1.6 2.3-.1.6.55-.7.6-1.15q.85-1.05 2.15-1.6L22 15l.95.2.05 1.1-.2 1.05q-.25 1.45-.85 2.2L19.3 22.1l-.4.9-.05 2.05q0 1.2-.4 1.9l-1.3 2.35q-.8 1.3-.85 1.75-.15 1.3 0 2.6v1l-1 .9-.6.25-1.65.3-1.2-.2-1.05-.35-1-.9v-3.6l-.35-.9-1.8-3.2q-.4-.75-.45-1.9V23q-.05-.5-.45-.9l-2.6-2.55q-.7-.9-.85-2.2l-.2-1.05v-1.1l1-.2 2.7 1.2q1.25.55 2.15 1.6l.6 1.15.55.7q.15-.3-.4-1.1-2-3.3-4.55-4.35-1.05-.45-1.85-1.75-.55-.85-.25-1.35l.3-.2 1 .65h.75L4.35 8q-.2-1.8.2-3.2 1.35-1.7 2.4-1.55 1.15.15.2 1l-.9 1.25-.05 1.45.1.4.3-.35 2.3-1.6q2.15-1.35 2.75-1.3.85.05.8 1.1L11.2 6.25q1.1.2 1.85 1.05l2-.95-1.5-1.2-.1-.5M17.4 7.9q-.75-.5-1.1-.45l-1.25.5-.6.75 2.9 4.1q.4.55.7.4.75-.25.95-1.9.1-1-.7-2.55l-.9-.85m-1.9 6.45-2.2-4-2.7 4.05.1 1.15.55 1.8.9 1.5.9.75q.75-.2 1.8-2.2 1.1-2.1.65-3.05m3.9 5q-.45-.45.6-1.6l1.2-1-.85.45-1.1.85-1.5 1.65-.25 1.4.3-.25 1.35-.45q1.4-.2 1.55-1.3-.55 1-1.3.25m-1.65 3.6-1.5 1.6-.8 1.2.25.4.75.5.75-.2q.35-.3.55-1.8v-1.7m-2.9 10.15q-.75-.45-1.8-.45t-1.75.45q-.75.4-.75 1l.1.4q.2-.35.9-.35h3.05q.7 0 .9.35l.1-.4q0-.6-.75-1M9.8 7.45l-1.15.5-.85.8q-.85 1.6-.75 2.5.25 1.7.95 1.95l.75-.4 3.1-4.1-.8-.75q-.55-.4-1.25-.5M5.6 19.7q.45.6 1.3.7 1.4.25 1.65.7l-.25-1.4-1.45-1.65-2-1.3 1.2 1q1.05 1.15.6 1.6-.7.75-1.3-.25l.25.6m4.2 4.85L8.4 23.2l-.05 1.45q.2 1.5.55 1.8l.75.2q.65-.1.95-.9l-.8-1.2"/><path fill="#5a6e87" d="M19 1.55q.85 0 1.9.8l1.7 1.95q.45 1.5.25 3.6l-.2 1.65 1 .35h.9v13.4q0 3.3-2.3 7.7-3.2 6.15-9.2 9.45-6-3.3-9.2-9.45-2.3-4.4-2.3-7.7V9.9h.9l1-.35L3.2 7.9q-.2-1.95.25-3.6l.2-.4q1.6-2 3.2-2 1.25 0 1.65 1.05.25.55 0 1.15 2.3-1.35 3.1-1.35.85.05 1.3.5 1.75-1.35 4.75.65-.35-.85 0-1.55.4-.8 1.35-.8m-5.55 3.1.1.5 1.5 1.2-2 .95q-.75-.85-1.85-1.05l1.25-1.05q.05-1.05-.8-1.1-.6-.05-2.75 1.3L6.6 7l-.3.35-.1-.4.05-1.45.9-1.25q.95-.85-.2-1Q5.9 3.1 4.55 4.8q-.4 1.4-.2 3.2l.75 3.55h-.75l-1-.65-.3.2q-.3.5.25 1.35.8 1.3 1.85 1.75 2.55 1.05 4.55 4.35.55.8.4 1.1l-.55-.7-.6-1.15q-.9-1.05-2.15-1.6L4.1 15l-1 .2v1.1l.2 1.05q.15 1.3.85 2.2l2.6 2.55q.4.4.45.9v2.05q.05 1.15.45 1.9l1.8 3.2.35.9v3.6l1 .9 1.05.35 1.2.2 1.65-.3.6-.25 1-.9v-1q-.15-1.3 0-2.6.05-.45.85-1.75l1.3-2.35q.4-.7.4-1.9L18.9 23l.4-.9 2.65-2.55q.6-.75.85-2.2l.2-1.05-.05-1.1L22 15l-2.7 1.2q-1.3.55-2.15 1.6l-.6 1.15-.55.7.1-.6 1.6-2.3q1.65-1.9 3.25-2.55 1.1-.5 1.85-1.75.5-.75.25-1.35l-.35-.2-.95.65q-.55.2-.75 0L21.75 8q.25-4.9-2.7-5.15-1.25-.1.75 2.65l.1 1.45-.1.4-2.2-1.95q-1.9-1.3-3-1.3-1.05 0-1.15.55"/><path fill="#5a6e87" d="M15.5 14.35q.45.95-.65 3.05-1.05 2-1.8 2.2l-.9-.75-.9-1.5-.55-1.8-.1-1.15 2.7-4.05 2.2 4m-5.7-6.9q.7.1 1.25.5l.8.75-3.1 4.1-.75.4q-.7-.25-.95-1.95-.1-.9.75-2.5l.85-.8 1.15-.5m7.6.45.9.85q.8 1.55.7 2.55-.2 1.65-.95 1.9-.3.15-.7-.4l-2.9-4.1.6-.75 1.25-.5q.35-.05 1.1.45m2 11.45q.75.75 1.3-.25-.15 1.1-1.55 1.3l-1.35.45-.3.25.25-1.4 1.5-1.65 1.1-.85.85-.45-1.2 1q-1.05 1.15-.6 1.6m-13.8.35-.25-.6q.6 1 1.3.25.45-.45-.6-1.6l-1.2-1 2 1.3L8.3 19.7l.25 1.4q-.25-.45-1.65-.7-.85-.1-1.3-.7m4.2 4.85.8 1.2q-.3.8-.95.9l-.75-.2q-.35-.3-.55-1.8l.05-1.45 1.4 1.35m-.3.4-.15.1v.7l.15.1.3-.45-.1-.35-.2-.1m8.25-2v1.7q-.2 1.5-.55 1.8l-.75.2-.75-.5-.25-.4.8-1.2 1.5-1.6m-1.25 2.1-.15.1v.7l.15.1.3-.45-.1-.35-.2-.1m-1.65 8.05q.75.4.75 1l-.1.4q-.2-.35-.9-.35h-3.05q-.7 0-.9.35l-.1-.4q0-.6.75-1 .7-.45 1.75-.45t1.8.45"/><path fill="#4b555f" d="M19 1.55q-.95 0-1.35.8-.35.7 0 1.55-3-2-4.75-.65-.45-.45-1.3-.5-.8 0-3.1 1.35.25-.6 0-1.15Q8.1 1.9 6.85 1.9q-1.6 0-3.2 2l-.2.4Q3 5.95 3.2 7.9l.25 1.65-1 .35h-.9v13.4q0 3.3 2.3 7.7 3.2 6.15 9.2 9.45 6-3.3 9.2-9.45 2.3-4.4 2.3-7.7V9.9h-.9l-1-.35.2-1.65q.2-2.1-.25-3.6l-1.7-1.95q-1.05-.8-1.9-.8M0 8.35h1.7V8q-.2-2.3.3-4.1l.45-.95Q4.45.4 6.85.4q1.8 0 2.75 1.4l2-.55 1.35.25 1.65-.25 1.75.3Q17.15 0 19 0q2.75 0 4.75 3.15l.3.7q.55 1.8.35 4.2l-.05.3h1.7V23.3q0 3.6-2.35 8.2-3.25 6.55-9.7 10.2l-.3.3h-1.3l-.3-.3q-4.25-2.45-7.15-6.15l-2.6-4.05Q0 26.9 0 23.3V8.35"/></g></svg>