<svg xmlns="http://www.w3.org/2000/svg" width="42.3" height="42"><g fill-rule="evenodd"><path fill="#e1d296" d="M10.6 21.5v3.4l-4 1.1v-4.5h4m1.6 3.1v-3.1h5.4v2.4l-5.4.7m11.1-.8h-4.1v-2.3h4.1v2.3m1.6-2.3h5.4v3.1l-5.4-.7v-2.4m11 0V26l-4-1.1v-3.4h4m-14.3-4.25-9.65.85-1.4-2.1.3-.3h20.8l.3.3-1.4 2.1-8.95-.85"/><path fill="#6e8c6e" d="M24.9 2.2q-.3 1.65-2.25 2.9l11.4 10.65-1.8 2.75q4.8 1.2 6.3 3H37.5l.8 11.4-8 7.1h-.4l-1.2-3q-2-4.45-6-5.55h-3.45q-4 1.1-6 5.55l-1.15 2.95-.35.05-8.05-7.1L5 21.5H3.95q1.5-1.8 6.3-3L8.5 15.75 19.9 5.1q-2-1.2-2.3-2.9l1.6-.25q.25 1.35 2.05 2 1.8-.65 2.05-2l1.6.25m-3.3 15.05 8.95.85 1.4-2.1-.3-.3h-20.8l-.3.3 1.4 2.1 9.65-.85m14.3 4.25h-4v3.4l4 1.1v-4.5m-11 0v2.4l5.4.7v-3.1h-5.4m-1.6 2.3v-2.3h-4.1v2.3h4.1m-11.1.8 5.4-.7v-2.4h-5.4v3.1m-1.6-3.1h-4V26l4-1.1v-3.4"/><path fill="#414141" d="m24.9 2.2-1.6-.25q-.25 1.35-2.05 2-1.8-.65-2.05-2l-1.6.25q.3 1.7 2.3 2.9L8.5 15.75l1.75 2.75q-4.8 1.2-6.3 3H5L3.7 32.9l8.05 7.1.35-.05L13.25 37q2-4.45 6-5.55h3.45q4 1.1 6 5.55l1.2 3h.4l8-7.1-.8-11.4h1.05q-1.5-1.8-6.3-3l1.8-2.75L22.65 5.1q1.95-1.25 2.25-2.9M7.3 17.6 6 15.65Q12.2 10.8 17 5.3q-1-1.15-1.3-2.6L15.4.9l5.15-.9.3 1.75.3.3.25-.3.45-1.75 5.05.9-.35 1.8q-.2 1.4-1.25 2.6l10.95 10.35L35 17.6q3.35 1.1 4.85 2.9l2.45 2.95h-2.95l.75 10.35-9.25 8.2H29.2l-1.05-.75-1.2-3.35q-1.55-3.5-4.6-4.5H19.4q-2.9.95-4.65 4.5l-1.15 3.2-.9.9h-1.75L1.7 33.75l1.15-10.3H0l2.45-2.95q1.4-1.75 4.85-2.9"/></g></svg>