<svg xmlns="http://www.w3.org/2000/svg" width="40" height="40"><path fill="#465A46" fill-rule="evenodd" d="M12.3 10.2h.15c-.2-.433-.35-.9-.45-1.4s-.15-1-.15-1.5.033-1 .1-1.5c.1-.5.233-.983.4-1.45s.367-.917.6-1.35c.267-.433.55-.833.85-1.2.333-.4.7-.733 1.1-1 .4-.333.833-.583 1.3-.75a7.78 7.78 0 0 0-.6 1.3c-.2.467-.367.95-.5 1.45-.133.467-.25.933-.35 1.4-.067.5-.117.983-.15 1.45 0 .467.017.9.05 1.3.067.433.167.833.3 1.2s.317.683.55.95c.2.3.467.533.8.7 1.2-.067 1.833-.1 1.9-.1.067-.133.117-.267.15-.4s.083-.267.15-.4c.033-.167.067-.35.1-.55.033-.167.067-.35.1-.55s.05-.417.05-.65c.033-.2.067-.433.1-.7V5.7c.033-.267.05-.55.05-.85L20 3.9l1.1.9v.85c.033.267.05.517.05.75.033.267.067.517.1.75 0 .2.017.4.05.6l.1.6.1.5c.067.133.117.267.15.4s.083.267.15.4c.167 0 .8.05 1.9.15.3-.167.567-.4.8-.7.233-.267.417-.583.55-.95s.233-.767.3-1.2c.033-.433.05-.883.05-1.35a19.554 19.554 0 0 0-.15-1.4 7.086 7.086 0 0 0-.35-1.45 18.19 18.19 0 0 0-.45-1.45c-.2-.433-.417-.867-.65-1.3.467.2.9.45 1.3.75s.75.633 1.05 1c.333.367.633.767.9 1.2.233.433.433.883.6 1.35.167.5.3.983.4 1.45.067.5.1 1 .1 1.5s-.05 1-.15 1.5-.25.967-.45 1.4h.15c.033 0 .033 0 0 0s.033.017.2.05c.267-.133.517-.317.75-.55.2-.233.4-.5.6-.8.2-.267.383-.567.55-.9.133-.333.267-.683.4-1.05.1-.367.183-.75.25-1.15s.117-.8.15-1.2.033-.817 0-1.25c0-.4-.033-.783-.1-1.15.333.2.617.45.85.75.267.267.5.567.7.9.167.333.317.7.45 1.1.1.367.167.767.2 1.2.067.4.083.817.05 1.25s-.1.85-.2 1.25c-.1.433-.233.833-.4 1.2-.2.4-.417.783-.65 1.15 1 .2 1.867.4 2.6.6s1.6.483 2.6.85a27.616 27.616 0 0 1-.15 1.8c-.033.6-.1 1.167-.2 1.7a30.15 30.15 0 0 1-.25 1.7l-.4 1.6c-.133.533-.283 1.05-.45 1.55-.167.533-.35 1.05-.55 1.55-.2.533-.417 1.05-.65 1.55a21.98 21.98 0 0 1-.75 1.55c.133.333.217.683.25 1.05a6.392 6.392 0 0 1-.3 3.35c-.1.367-.25.717-.45 1.05-.167.333-.383.65-.65.95-.233.333-.5.617-.8.85-.333.3-.683.55-1.05.75.1-.267.2-.517.3-.75.1-.267.2-.5.3-.7a4.96 4.96 0 0 1 .25-.75c.067-.233.133-.45.2-.65.067-.233.117-.433.15-.6.033-.2.067-.383.1-.55V29c0-.133-.033-.233-.1-.3-.233.5-.567 1.05-1 1.65-.4.567-.9 1.167-1.5 1.8-.533.6-1.117 1.233-1.75 1.9-.6.6-1.25 1.2-1.95 1.8-.6.533-1.217 1.067-1.85 1.6-.567.5-1.117.933-1.65 1.3-.467.367-.867.667-1.2.9-.3.233-.5.35-.6.35s-.3-.117-.6-.35c-.333-.233-.75-.533-1.25-.9-.5-.4-1.033-.833-1.6-1.3l-1.9-1.6c-.667-.6-1.3-1.2-1.9-1.8a84.234 84.234 0 0 1-1.8-1.85 26.328 26.328 0 0 1-1.45-1.85c-.467-.6-.8-1.15-1-1.65l-.1.3v.45c.033.167.067.35.1.55.033.167.083.367.15.6.067.2.133.417.2.65.1.233.183.467.25.7.1.233.2.483.3.75.1.233.2.483.3.75-.367-.2-.7-.45-1-.75a5.135 5.135 0 0 1-.85-.85 4.383 4.383 0 0 1-.65-.95c-.2-.367-.35-.717-.45-1.05a6.392 6.392 0 0 1-.3-3.35c.033-.367.117-.717.25-1.05a60.868 60.868 0 0 1-.75-1.55c-.233-.533-.45-1.05-.65-1.55s-.383-1.017-.55-1.55-.317-1.067-.45-1.6a55.75 55.75 0 0 1-.4-1.6c-.1-.533-.183-1.083-.25-1.65a14.72 14.72 0 0 1-.2-1.75 27.616 27.616 0 0 1-.15-1.8c1-.333 1.867-.6 2.6-.8s1.6-.417 2.6-.65c-.233-.333-.45-.7-.65-1.1-.167-.4-.3-.8-.4-1.2a8.72 8.72 0 0 1-.2-1.3c-.033-.4-.017-.817.05-1.25.033-.4.1-.8.2-1.2a9.75 9.75 0 0 1 .45-1.05c.2-.367.433-.683.7-.95.267-.3.55-.55.85-.75-.067.4-.1.8-.1 1.2-.033.4-.033.8 0 1.2.033.433.083.833.15 1.2.067.4.15.783.25 1.15.133.4.267.75.4 1.05.167.367.35.683.55.95.2.3.4.55.6.75.233.233.483.433.75.6.167-.033.233-.05.2-.05m-.8 17.7v-.4c.033-.1.067-.217.1-.35.033-.167.067-.317.1-.45.067-.133.133-.25.2-.35l.2-.4c.1-.133.2-.25.3-.35l.3-.3.4-.2.3-.2c.1-.067.2-.15.3-.25s.183-.217.25-.35c.067-.1.133-.217.2-.35.033-.1.067-.217.1-.35s.05-.267.05-.4v-.4a1.916 1.916 0 0 0-.15-.4c-.1.1-.217.2-.35.3-.1.1-.217.183-.35.25-.1.1-.217.183-.35.25l-.4.2-.4.2c-.133.067-.267.117-.4.15s-.283.067-.45.1l-.4.1c-.3.033-.6.133-.9.3a3.118 3.118 0 0 0-.8.6c-.233.233-.45.5-.65.8-.2.333-.367.683-.5 1.05-.167.367-.267.75-.3 1.15-.067.433-.1.867-.1 1.3.033.433.117.867.25 1.3.133.467.317.917.55 1.35-.4-.533-.717-1.067-.95-1.6s-.4-1.05-.5-1.55c-.067-.5-.067-1 0-1.5.067-.467.183-.933.35-1.4.2-.467.45-.933.75-1.4.3-.433.667-.883 1.1-1.35.4-.433.85-.867 1.35-1.3.5-.4 1.067-.817 1.7-1.25-.033-.033-.083-.05-.15-.05a.393.393 0 0 1-.15-.05h-.3c-.067 0-.117.017-.15.05h-.2a.57.57 0 0 1-.15.1.448.448 0 0 0-.2.05c.033-.033.05-.067.05-.1a.57.57 0 0 1 .1-.15l.15-.15.15-.15c.1-.067.2-.15.3-.25.1-.067.217-.15.35-.25s.283-.2.45-.3a7.94 7.94 0 0 1 .55-.4c.033-.033.05-.067.05-.1v-.1c-.033-.033-.05-.067-.05-.1l-.1-.1s-.067-.083-.1-.15l-.1-.1a.321.321 0 0 0-.15-.15l-.15-.15h.35s.067.017.1.05h.15c.033.033.067.05.1.05.033.033.083.05.15.05.033.033.067.05.1.05l-1.55-2c-.3-.133-.583-.283-.85-.45s-.5-.317-.7-.45a4.809 4.809 0 0 1-.6-.5l-.4-.5a2.01 2.01 0 0 1-.3-.5c-.1-.2-.167-.383-.2-.55-.067-.167-.1-.35-.1-.55V12c.167.233.333.45.5.65.167.233.333.433.5.6s.333.317.5.45.333.25.5.35c.2.1.383.183.55.25s.333.117.5.15a2.838 2.838 0 0 0 1.05 0c-.433-.4-.833-.783-1.2-1.15-.4-.4-.75-.8-1.05-1.2-.367-.4-.683-.8-.95-1.2s-.5-.8-.7-1.2c-.2-.433-.367-.85-.5-1.25-.133-.433-.217-.867-.25-1.3s-.017-.867.05-1.3c.033-.467.133-.933.3-1.4A7.954 7.954 0 0 0 8.7 6c.033.467.117.917.25 1.35.1.4.25.783.45 1.15s.433.7.7 1c.267.333.55.633.85.9.333.267.683.517 1.05.75.367.2.767.4 1.2.6.433.167.883.333 1.35.5-.267-.4-.517-.8-.75-1.2-.2-.4-.383-.8-.55-1.2s-.283-.817-.35-1.25c-.1-.4-.15-.817-.15-1.25-.033-.433 0-.867.1-1.3a10.6 10.6 0 0 1 .3-1.4c.167-.433.367-.883.6-1.35.267-.5.567-.983.9-1.45a15.46 15.46 0 0 0-.55 1.8c-.167.567-.283 1.1-.35 1.6-.033.5-.05.967-.05 1.4.033.467.117.883.25 1.25.1.4.25.767.45 1.1s.45.617.75.85c.3.267.65.5 1.05.7s.833.367 1.3.5c.2.033.383.033.55 0s.317-.117.45-.25c.167-.1.3-.233.4-.4.133-.2.233-.417.3-.65.1-.267.183-.55.25-.85s.117-.633.15-1c.067-.367.1-.767.1-1.2.033-.4.05-.85.05-1.35L20 5.2l.25.15c0 .467.017.917.05 1.35 0 .433.033.833.1 1.2.033.367.083.7.15 1s.15.583.25.85c.067.233.167.45.3.65.1.167.217.317.35.45.167.1.333.167.5.2.167.067.35.067.55 0 .467-.133.9-.3 1.3-.5s.75-.433 1.05-.7.55-.55.75-.85c.2-.333.35-.7.45-1.1.133-.367.217-.783.25-1.25 0-.433-.017-.9-.05-1.4a10.459 10.459 0 0 0-.35-1.65 17.114 17.114 0 0 0-.55-1.75c.333.467.633.95.9 1.45.233.467.433.933.6 1.4.133.433.233.883.3 1.35.1.433.133.867.1 1.3 0 .433-.05.85-.15 1.25-.067.433-.183.85-.35 1.25s-.35.8-.55 1.2c-.233.4-.483.8-.75 1.2.467-.167.917-.333 1.35-.5.433-.2.833-.4 1.2-.6.367-.233.717-.483 1.05-.75s.617-.55.85-.85c.267-.333.5-.683.7-1.05s.35-.75.45-1.15A6.03 6.03 0 0 0 31.3 6c.067-.5.083-1.017.05-1.55.167.467.283.917.35 1.35.033.467.033.917 0 1.35s-.117.867-.25 1.3c-.133.4-.3.817-.5 1.25-.2.4-.433.8-.7 1.2s-.583.8-.95 1.2c-.3.367-.65.75-1.05 1.15-.367.4-.767.8-1.2 1.2a2.838 2.838 0 0 0 1.05 0c.167-.033.333-.083.5-.15s.333-.15.5-.25c.2-.1.383-.217.55-.35s.333-.283.5-.45.333-.35.5-.55l.5-.7c.033.2.033.383 0 .55 0 .2-.033.383-.1.55-.033.167-.1.35-.2.55a2.01 2.01 0 0 1-.3.5c-.1.167-.233.333-.4.5s-.367.317-.6.45c-.2.167-.433.333-.7.5-.267.133-.55.283-.85.45l-1.55 2c.033-.033.067-.05.1-.05.067-.033.117-.05.15-.05s.067-.017.1-.05h.15c.033-.033.067-.05.1-.05h.35l-.15.15a.321.321 0 0 0-.15.15l-.1.1c-.067.067-.1.117-.1.15l-.1.1c0 .033-.017.067-.05.1v.1c0 .033.017.067.05.1.2.133.383.267.55.4.167.1.317.2.45.3s.25.183.35.25c.1.1.2.183.3.25l.3.3s.067.083.1.15c0 .033.017.067.05.1a.448.448 0 0 0-.2-.05.57.57 0 0 1-.15-.1h-.2c-.033-.033-.083-.05-.15-.05h-.3c-.067.033-.117.05-.15.05s-.083.017-.15.05c.6.433 1.15.85 1.65 1.25.533.433 1 .867 1.4 1.3.433.467.8.917 1.1 1.35.3.467.55.917.75 1.35.167.5.283.983.35 1.45.067.5.067 1 0 1.5-.1.5-.267 1.017-.5 1.55s-.55 1.067-.95 1.6c.233-.433.417-.883.55-1.35.133-.433.217-.867.25-1.3 0-.433-.033-.867-.1-1.3a3.438 3.438 0 0 0-.3-1.15 6.016 6.016 0 0 0-.5-1.05c-.2-.3-.417-.567-.65-.8a3.118 3.118 0 0 0-.8-.6c-.3-.167-.6-.267-.9-.3l-.4-.1c-.167-.033-.317-.067-.45-.1s-.267-.083-.4-.15l-.4-.2-.4-.2a1.348 1.348 0 0 1-.35-.25 1.348 1.348 0 0 1-.35-.25c-.133-.1-.25-.2-.35-.3a1.916 1.916 0 0 0-.15.4v.4c0 .133.017.267.05.4s.067.25.1.35c.067.133.133.25.2.35.067.133.15.25.25.35.1.067.2.15.3.25l.3.2c.133.067.267.15.4.25.1.067.217.167.35.3.1.1.183.217.25.35.1.1.183.217.25.35s.117.267.15.4.067.283.1.45c.033.133.05.267.05.4a.82.82 0 0 1 0 .4c.067-.1.15-.217.25-.35l.2-.3c.067-.1.133-.217.2-.35.1-.1.183-.2.25-.3.067-.133.133-.25.2-.35s.133-.217.2-.35c.033-.1.083-.2.15-.3.067-.133.133-.25.2-.35a.321.321 0 0 1 .15.15l.15.15a.768.768 0 0 1 .15.2c.067.067.117.133.15.2s.083.133.15.2l.1.2.1.2.1.2c-.3.533-.633 1.067-1 1.6-.333.5-.7 1-1.1 1.5a13.276 13.276 0 0 1-1.2 1.5c-.433.5-.883 1-1.35 1.5-.433.467-.917.933-1.45 1.4-.5.467-1.017.933-1.55 1.4-.533.433-1.1.867-1.7 1.3a42.52 42.52 0 0 1-1.8 1.3c-.633-.4-1.233-.817-1.8-1.25-.6-.433-1.167-.883-1.7-1.35a29.775 29.775 0 0 1-3-2.8c-.467-.467-.917-.95-1.35-1.45-.4-.5-.8-1.017-1.2-1.55-.367-.5-.733-1.017-1.1-1.55a40.679 40.679 0 0 1-.95-1.6l.1-.2.1-.2.1-.2a.768.768 0 0 1 .15-.2.768.768 0 0 1 .15-.2.768.768 0 0 1 .15-.2l.3-.3c.067.1.133.217.2.35.033.1.083.2.15.3.067.133.133.25.2.35s.133.217.2.35l.2.3c.067.1.133.217.2.35l.2.3.2.3m16.35.95c-.267.333-.533.65-.8.95s-.533.617-.8.95l-.9.9c-.333.3-.65.6-.95.9-.333.3-.683.583-1.05.85-.333.3-.683.583-1.05.85-.367.3-.733.583-1.1.85l-1.2.8-1.2-.8c-.367-.267-.733-.55-1.1-.85-.367-.267-.733-.55-1.1-.85a25.151 25.151 0 0 1-1.95-1.75c-.3-.3-.6-.617-.9-.95-.267-.3-.533-.617-.8-.95-.267-.3-.533-.617-.8-.95a2.525 2.525 0 0 1-.1-.7 1.818 1.818 0 0 1 0-.6c.033-.2.1-.383.2-.55s.217-.317.35-.45.3-.267.5-.4c.167-.1.367-.2.6-.3l.8-.2c.3-.067.617-.117.95-.15.1.1.2.25.3.45.1.167.183.383.25.65.1.267.183.55.25.85s.117.6.15.9c.067.333.1.65.1.95 0 .333-.017.65-.05.95 0 .3-.05.567-.15.8a1.69 1.69 0 0 1-.3.65c.133.067.283.15.45.25l.4.3c.133.1.267.217.4.35.133.1.267.217.4.35l.35.35s.25.267.35.4c.133.133.25.267.35.4s.217.267.35.4h1.9c.133-.133.25-.267.35-.4s.217-.267.35-.4c.1-.133.217-.267.35-.4l.35-.35c.133-.133.267-.25.4-.35.133-.133.267-.25.4-.35s.267-.183.4-.25c.167-.1.317-.2.45-.3a1.69 1.69 0 0 1-.3-.65 2.8 2.8 0 0 1-.2-.8v-.95c0-.3.033-.617.1-.95.033-.3.083-.6.15-.9s.15-.583.25-.85c.067-.233.15-.45.25-.65s.2-.35.3-.45c.333.033.65.083.95.15s.567.133.8.2c.233.1.45.2.65.3l.5.4c.133.133.233.283.3.45.1.167.167.35.2.55s.033.417 0 .65c0 .2-.033.433-.1.7m4.1-16.05c1.1.3 2.05.583 2.85.85 0 .467-.017.933-.05 1.4-.067.467-.117.917-.15 1.35-.067.467-.133.917-.2 1.35s-.15.883-.25 1.35c-.1.433-.217.867-.35 1.3-.1.433-.217.85-.35 1.25a19.64 19.64 0 0 1-.45 1.3l-.5 1.2a.768.768 0 0 0-.15-.2l-.1-.2a.768.768 0 0 1-.15-.2.768.768 0 0 1-.15-.2.768.768 0 0 1-.15-.2l-.15-.15a.768.768 0 0 1-.15-.2.768.768 0 0 0-.2-.15l.3-.9.3-.9c.1-.3.183-.617.25-.95l.2-.9c.067-.333.117-.65.15-.95.067-.333.117-.65.15-.95l.1-1c0-.333.017-.65.05-.95l-.2-.1c-.067 0-.133-.017-.2-.05s-.117-.05-.15-.05c-.167-.067-.233-.1-.2-.1-.033-.033-.083-.05-.15-.05-.033-.033-.083-.05-.15-.05l-.2-.1a.448.448 0 0 1-.2-.05.57.57 0 0 1 .1-.15l.1-.2.1-.2.1-.2a1.96 1.96 0 0 0 .1-.25c0-.067.017-.15.05-.25 0-.067.017-.15.05-.25v-.3m-16.2 7.35c.033.033.083.183.15.45s.1.467.1.6v.7s.017.067.05.1v.15l.1.1a.768.768 0 0 0 .15.2c.067.033.133.083.2.15s.15.133.25.2c.7.633.783.717.25.25.1.067.183.133.25.2l.3.3s.183.2.25.3l.3.3a4.483 4.483 0 0 1-.15-.55 10.11 10.11 0 0 0-.2-.55c-.067-.2-.15-.383-.25-.55a3.533 3.533 0 0 0-.25-.5l-.3-.5a4.595 4.595 0 0 1-.35-.5 5.348 5.348 0 0 1-.4-.45 5.348 5.348 0 0 0-.45-.4v-.05.05m9 0c-.033.033-.083.183-.15.45s-.1.467-.1.6v.7s-.017.067-.05.1v.15l-.1.1a.768.768 0 0 1-.15.2c-.067.033-.133.083-.2.15s-.15.133-.25.2c-.433.4-.517.483-.25.25-.1.067-.183.133-.25.2l-.3.3s-.183.2-.25.3l-.3.3c.033-.2.083-.383.15-.55.067-.2.133-.383.2-.55.067-.2.15-.383.25-.55.067-.167.15-.333.25-.5l.3-.5c.133-.167.25-.333.35-.5.133-.133.267-.283.4-.45.133-.133.283-.267.45-.4v-.05.05M8 12.75c0 .1.017.183.05.25 0 .1.017.183.05.25.033.1.067.183.1.25 0 .1.017.183.05.25.033.1.067.183.1.25.033.1.067.183.1.25.067.067.117.133.15.2s.083.133.15.2c-.333.1-.583.183-.75.25-.2.033-.467.117-.8.25.033.333.067.65.1.95 0 .333.033.667.1 1 .033.3.083.617.15.95.033.3.083.6.15.9.067.333.133.65.2.95s.15.6.25.9l.3.9c.067.3.167.6.3.9a.321.321 0 0 0-.15.15.768.768 0 0 1-.2.15.768.768 0 0 1-.15.2.768.768 0 0 1-.15.2.768.768 0 0 1-.15.2.768.768 0 0 1-.15.2l-.1.2a.768.768 0 0 0-.15.2c-.167-.4-.333-.817-.5-1.25-.133-.4-.267-.817-.4-1.25-.133-.4-.267-.817-.4-1.25l-.3-1.3-.3-1.3c-.067-.433-.133-.883-.2-1.35a16.382 16.382 0 0 1-.15-1.35 9.838 9.838 0 0 1-.1-1.4c.1-.033.217-.067.35-.1a1.1 1.1 0 0 1 .35-.15c.1-.033.217-.067.35-.1s.25-.067.35-.1c.133-.033.25-.067.35-.1a1.1 1.1 0 0 0 .35-.15c.133-.033.25-.067.35-.1.133-.033.25-.067.35-.1m12.2 5.6 1 1-1 .95-.95-.95.95-1m0-2.65 1 1-1 .95-.95-.95.95-1m0-2.5 1 .95-1 .95-.95-.95.95-.95" clip-rule="evenodd"/><path fill="#A04B4B" d="M17.75 23.05c.07.17.13.35.2.55.03.17.08.35.15.55l-.3-.3c-.07-.1-.15-.2-.25-.3-.07-.07-.14-.14-.21-.2-.01-.02-.01-.02-.02-.02-.01-.02-.01-.02-.02-.02-.02-.03-.03-.04-.05-.06s-.03-.03-.05-.04l-.06-.06c-.01 0-.02-.01-.03-.02-.09-.09-.21-.2-.36-.33-.1-.07-.18-.13-.25-.2s-.13-.12-.2-.15a.654.654 0 0 1-.15-.2l-.1-.1V22c-.03-.03-.05-.07-.05-.1v-.7c0-.13-.03-.33-.1-.6s-.12-.42-.15-.45c.17.13.32.27.45.4.13.17.27.32.4.45.1.17.22.33.35.5.1.17.2.33.3.5s.18.33.25.5c.1.17.18.35.25.55zm5.5-1.05c.1-.17.2-.33.3-.5.13-.17.25-.33.35-.5.13-.13.27-.28.4-.45.13-.13.28-.27.45-.4-.03.03-.08.18-.15.45s-.1.47-.1.6v.7s-.02.07-.05.1v.15l-.1.1c-.03.07-.08.13-.15.2-.07.03-.13.08-.2.15s-.15.13-.25.2c-.13.12-.23.22-.3.28-.02.02-.03.03-.04.03l-.04.04c-.04.03-.08.06-.12.1l-.3.3s-.18.2-.25.3l-.3.3c.03-.2.08-.38.15-.55.07-.2.13-.38.2-.55.07-.2.15-.38.25-.55.07-.17.15-.33.25-.5zm-2.05-2.65-1 .95-.95-.95.95-1zm0-2.65-1 .95-.95-.95.95-1zm0-2.55-1 .95-.95-.95.95-.95zm11.8 8.8c-.17.4-.33.8-.5 1.2a.654.654 0 0 0-.15-.2c-.03-.07-.07-.13-.1-.2a.654.654 0 0 1-.15-.2.654.654 0 0 1-.15-.2.654.654 0 0 1-.15-.2l-.15-.15a.654.654 0 0 1-.15-.2.654.654 0 0 0-.2-.15l.3-.9.3-.9c.1-.3.18-.62.25-.95.07-.3.13-.6.2-.9.07-.33.12-.65.15-.95.07-.33.12-.65.15-.95.03-.33.07-.67.1-1 0-.33.02-.65.05-.95-.07-.03-.13-.07-.2-.1-.07 0-.13-.02-.2-.05s-.12-.05-.15-.05c-.14-.06-.21-.09-.21-.1a.198.198 0 0 0-.14-.05c-.03-.03-.08-.05-.15-.05-.07-.03-.13-.07-.2-.1-.07 0-.13-.02-.2-.05.03-.07.07-.12.1-.15.03-.07.07-.13.1-.2s.07-.13.1-.2.07-.13.1-.2.07-.15.1-.25c0-.07.02-.15.05-.25 0-.07.02-.15.05-.25v-.3c1.1.3 2.05.58 2.85.85 0 .47-.02.93-.05 1.4-.07.47-.12.92-.15 1.35-.07.47-.13.92-.2 1.35s-.15.88-.25 1.35c-.1.43-.22.87-.35 1.3-.1.43-.22.85-.35 1.25-.13.43-.28.87-.45 1.3z"/><path fill="#698269" d="M17.32 23.33c.01 0 .01 0 .02.02l-.02-.02zm-.02-.02c.01 0 .01 0 .02.02-.01 0-.01-.01-.02-.02zm-.05-.06c.02.02.03.03.05.06-.01 0-.03-.02-.05-.04-.02-.03-.03-.04-.05-.06.02.01.03.02.05.04z"/><path fill="#A04B4B" d="M11.5 27.5c.03-.1.07-.22.1-.35l.52.06c-.03.1-.06.19-.07.29a2 2 0 0 0 0 .6c0 .23.03.47.1.7.27.33.53.65.8.95.27.33.53.65.8.95.3.33.6.65.9.95s.62.6.95.9.67.58 1 .85c.37.3.73.58 1.1.85.37.3.73.58 1.1.85.4.27.8.53 1.2.8.4-.27.8-.53 1.2-.8.37-.27.73-.55 1.1-.85.37-.27.72-.55 1.05-.85.37-.27.72-.55 1.05-.85.3-.3.62-.6.95-.9l.9-.9c.27-.33.53-.65.8-.95s.53-.62.8-.95c.07-.27.1-.5.1-.7.03-.23.03-.45 0-.65l.49-.02c.01.04.01.08.01.12a.9.9 0 0 1 0 .4c.07-.1.15-.22.25-.35.07-.1.13-.2.2-.3s.13-.22.2-.35c.1-.1.18-.2.25-.3.07-.13.13-.25.2-.35s.13-.22.2-.35c.03-.1.08-.2.15-.3.07-.13.13-.25.2-.35.07.03.12.08.15.15l.15.15c.07.07.12.13.15.2.07.07.12.13.15.2s.08.13.15.2c.03.07.07.13.1.2s.07.13.1.2.07.13.1.2c-.3.53-.63 1.07-1 1.6-.33.5-.7 1-1.1 1.5a14.6 14.6 0 0 1-1.2 1.5c-.43.5-.88 1-1.35 1.5-.43.47-.92.93-1.45 1.4-.5.47-1.02.93-1.55 1.4-.53.43-1.1.87-1.7 1.3-.57.43-1.17.87-1.8 1.3-.63-.4-1.23-.82-1.8-1.25-.6-.43-1.17-.88-1.7-1.35-.53-.43-1.05-.88-1.55-1.35s-.98-.95-1.45-1.45c-.47-.47-.92-.95-1.35-1.45-.4-.5-.8-1.02-1.2-1.55-.37-.5-.73-1.02-1.1-1.55-.33-.53-.65-1.07-.95-1.6.03-.07.07-.13.1-.2s.07-.13.1-.2.07-.13.1-.2.08-.13.15-.2c.03-.07.08-.13.15-.2.03-.07.08-.13.15-.2l.3-.3c.07.1.13.22.2.35.03.1.08.2.15.3.07.13.13.25.2.35s.13.22.2.35c.07.1.13.2.2.3s.13.22.2.35c.07.1.13.2.2.3s.13.2.2.3v-.4z"/><path fill="#698269" d="m19.25 19.35.95.95 1-.95-1-1-.95 1zm.95-1.7 1-.95-1-1-.95 1 .95.95zm0-2.55 1-.95-1-.95-.95.95.95.95zm3.05 8.15c.04-.04.08-.07.12-.1-.06.06-.01.02.13-.1-.02.01-.04.02-.05.03.07-.06.17-.16.3-.28.1-.07.18-.13.25-.2s.13-.12.2-.15c.07-.07.12-.13.15-.2l.1-.1V22c.03-.03.05-.07.05-.1v-.7c0-.13.03-.33.1-.6s.12-.42.15-.45c-.17.13-.32.27-.45.4-.13.17-.27.32-.4.45-.1.17-.22.33-.35.5-.1.17-.2.33-.3.5s-.18.33-.25.5c-.1.17-.18.35-.25.55-.07.17-.13.35-.2.55-.07.17-.12.35-.15.55l.3-.3c.07-.1.15-.2.25-.3l.3-.3zm-5.15.9c-.07-.2-.12-.38-.15-.55-.07-.2-.13-.38-.2-.55-.07-.2-.15-.38-.25-.55-.07-.17-.15-.33-.25-.5s-.2-.33-.3-.5c-.13-.17-.25-.33-.35-.5-.13-.13-.27-.28-.4-.45-.13-.13-.28-.27-.45-.4.03.03.08.18.15.45s.1.47.1.6v.7s.02.07.05.1v.15l.1.1c.03.07.08.13.15.2.07.03.13.08.2.15s.15.13.25.2c.15.13.27.24.36.33-.03-.03-.07-.05-.11-.08.11.1.2.18.25.22.02.02.04.04.05.04.01.01.01.02.02.02l.02.02c.07.06.14.13.21.2.1.1.18.2.25.3l.3.3zm-10.6 1.6c.2-.47.45-.93.75-1.4.3-.43.67-.88 1.1-1.35.4-.43.85-.87 1.35-1.3.5-.4 1.07-.82 1.7-1.25-.03-.03-.08-.05-.15-.05-.03 0-.08-.02-.15-.05h-.3s-.12.02-.15.05h-.2c-.03.03-.08.07-.15.1-.07 0-.13.02-.2.05.03-.03.05-.07.05-.1.03-.07.07-.12.1-.15l.15-.15.15-.15c.1-.07.2-.15.3-.25.1-.07.22-.15.35-.25s.28-.2.45-.3c.17-.13.35-.27.55-.4.03-.03.05-.07.05-.1v-.1c-.03-.03-.05-.07-.05-.1l-.1-.1s-.07-.08-.1-.15l-.1-.1a.276.276 0 0 0-.15-.15l-.15-.15h.35c.03 0 .07.02.1.05h.15c.03.03.07.05.1.05.03.03.08.05.15.05.03.03.07.05.1.05l-1.55-2c-.3-.13-.58-.28-.85-.45s-.5-.32-.7-.45a5.29 5.29 0 0 1-.6-.5c-.13-.17-.27-.33-.4-.5s-.23-.33-.3-.5c-.1-.2-.17-.38-.2-.55-.07-.17-.1-.35-.1-.55V12c.17.23.33.45.5.65.17.23.33.43.5.6s.33.32.5.45.33.25.5.35c.2.1.38.18.55.25s.33.12.5.15.35.05.55.05c.17 0 .33-.02.5-.05-.43-.4-.83-.78-1.2-1.15-.4-.4-.75-.8-1.05-1.2-.37-.4-.68-.8-.95-1.2s-.5-.8-.7-1.2c-.2-.43-.37-.85-.5-1.25-.13-.43-.22-.87-.25-1.3s-.02-.87.05-1.3c.03-.47.13-.93.3-1.4-.03.53-.02 1.05.05 1.55.03.47.12.92.25 1.35.1.4.25.78.45 1.15s.43.7.7 1c.27.33.55.63.85.9.33.27.68.52 1.05.75.37.2.77.4 1.2.6.43.17.88.33 1.35.5-.27-.4-.52-.8-.75-1.2-.2-.4-.38-.8-.55-1.2s-.28-.82-.35-1.25c-.1-.4-.15-.82-.15-1.25-.03-.43 0-.87.1-1.3.07-.47.17-.93.3-1.4.17-.43.37-.88.6-1.35.27-.5.57-.98.9-1.45-.23.63-.42 1.23-.55 1.8-.17.57-.28 1.1-.35 1.6-.03.5-.05.97-.05 1.4.03.47.12.88.25 1.25.1.4.25.77.45 1.1s.45.62.75.85c.3.27.65.5 1.05.7s.83.37 1.3.5c.2.03.38.03.55 0s.32-.12.45-.25c.17-.1.3-.23.4-.4.13-.2.23-.42.3-.65a7.03 7.03 0 0 0 .4-1.85c.07-.37.1-.77.1-1.2.03-.4.05-.85.05-1.35L20 5.2l.25.15c0 .47.02.92.05 1.35 0 .43.03.83.1 1.2a7.03 7.03 0 0 0 .4 1.85c.07.23.17.45.3.65.1.17.22.32.35.45.17.1.33.17.5.2.17.07.35.07.55 0 .47-.13.9-.3 1.3-.5s.75-.43 1.05-.7.55-.55.75-.85c.2-.33.35-.7.45-1.1.13-.37.22-.78.25-1.25 0-.43-.02-.9-.05-1.4-.07-.53-.18-1.08-.35-1.65-.13-.53-.32-1.12-.55-1.75.33.47.63.95.9 1.45.23.47.43.93.6 1.4.13.43.23.88.3 1.35.1.43.13.87.1 1.3 0 .43-.05.85-.15 1.25-.07.43-.18.85-.35 1.25s-.35.8-.55 1.2c-.23.4-.48.8-.75 1.2.47-.17.92-.33 1.35-.5.43-.2.83-.4 1.2-.6.37-.23.72-.48 1.05-.75s.62-.55.85-.85c.27-.33.5-.68.7-1.05s.35-.75.45-1.15c.13-.43.22-.88.25-1.35.07-.5.08-1.02.05-1.55.17.47.28.92.35 1.35.03.47.03.92 0 1.35s-.12.87-.25 1.3c-.13.4-.3.82-.5 1.25-.2.4-.43.8-.7 1.2s-.58.8-.95 1.2c-.3.37-.65.75-1.05 1.15-.37.4-.77.8-1.2 1.2.17.03.33.05.5.05.2 0 .38-.02.55-.05s.33-.08.5-.15.33-.15.5-.25c.2-.1.38-.22.55-.35s.33-.28.5-.45.33-.35.5-.55c.17-.23.33-.47.5-.7.03.2.03.38 0 .55 0 .2-.03.38-.1.55-.03.17-.1.35-.2.55-.07.17-.17.33-.3.5a2.769 2.769 0 0 1-1 .95c-.2.17-.43.33-.7.5-.27.13-.55.28-.85.45l-1.55 2c.03-.03.07-.05.1-.05.07-.03.12-.05.15-.05s.07-.02.1-.05h.15c.03-.03.07-.05.1-.05h.35l-.15.15c-.07.03-.12.08-.15.15l-.1.1c-.07.07-.1.12-.1.15l-.1.1c0 .03-.02.07-.05.1v.1c0 .03.02.07.05.1.2.13.38.27.55.4.17.1.32.2.45.3s.25.18.35.25c.1.1.2.18.3.25l.3.3s.07.08.1.15c0 .03.02.07.05.1a.492.492 0 0 0-.2-.05.483.483 0 0 1-.15-.1h-.2c-.03-.03-.08-.05-.15-.05h-.3c-.07.03-.12.05-.15.05s-.08.02-.15.05c.6.43 1.15.85 1.65 1.25.53.43 1 .87 1.4 1.3.43.47.8.92 1.1 1.35.3.47.55.92.75 1.35.17.5.28.98.35 1.45.07.5.07 1 0 1.5-.1.5-.27 1.02-.5 1.55s-.55 1.07-.95 1.6c.23-.43.42-.88.55-1.35.13-.43.22-.87.25-1.3 0-.43-.03-.87-.1-1.3-.03-.4-.13-.78-.3-1.15-.13-.37-.3-.72-.5-1.05-.2-.3-.42-.57-.65-.8-.27-.27-.53-.47-.8-.6-.3-.17-.6-.27-.9-.3-.13-.03-.27-.07-.4-.1-.17-.03-.32-.07-.45-.1s-.27-.08-.4-.15-.27-.13-.4-.2-.27-.13-.4-.2-.25-.15-.35-.25c-.13-.07-.25-.15-.35-.25-.13-.1-.25-.2-.35-.3-.07.13-.12.27-.15.4v.4c0 .13.02.27.05.4s.07.25.1.35c.07.13.13.25.2.35.07.13.15.25.25.35.1.07.2.15.3.25.1.07.2.13.3.2.13.07.27.15.4.25.1.07.22.17.35.3.1.1.18.22.25.35.1.1.18.22.25.35s.12.27.15.4.07.28.1.45c.02.09.04.19.04.28l-.49.02c-.03-.2-.1-.38-.2-.55-.07-.17-.17-.32-.3-.45-.17-.13-.33-.27-.5-.4-.2-.1-.42-.2-.65-.3-.23-.07-.5-.13-.8-.2s-.62-.12-.95-.15c-.1.1-.2.25-.3.45s-.18.42-.25.65c-.1.27-.18.55-.25.85s-.12.6-.15.9c-.07.33-.1.65-.1.95v.95c.03.3.1.57.2.8.07.27.17.48.3.65-.13.1-.28.2-.45.3-.13.07-.27.15-.4.25s-.27.22-.4.35c-.13.1-.27.22-.4.35l-.35.35s-.25.27-.35.4c-.13.13-.25.27-.35.4s-.22.27-.35.4h-1.9c-.13-.13-.25-.27-.35-.4s-.22-.27-.35-.4c-.1-.13-.22-.27-.35-.4l-.35-.35c-.13-.13-.27-.25-.4-.35-.13-.13-.27-.25-.4-.35s-.27-.2-.4-.3c-.17-.1-.32-.18-.45-.25.13-.17.23-.38.3-.65.1-.23.15-.5.15-.8.03-.3.05-.62.05-.95 0-.3-.03-.62-.1-.95-.03-.3-.08-.6-.15-.9s-.15-.58-.25-.85c-.07-.27-.15-.48-.25-.65-.1-.2-.2-.35-.3-.45-.33.03-.65.08-.95.15-.27.07-.53.13-.8.2-.23.1-.43.2-.6.3-.2.13-.37.27-.5.4s-.25.28-.35.45c-.05.08-.09.17-.13.26l-.52-.06c.03-.17.07-.32.1-.45.07-.13.13-.25.2-.35.07-.13.13-.27.2-.4.1-.13.2-.25.3-.35l.3-.3c.13-.07.27-.13.4-.2.1-.07.2-.13.3-.2s.2-.15.3-.25.18-.22.25-.35c.07-.1.13-.22.2-.35.03-.1.07-.22.1-.35s.05-.27.05-.4v-.4a1.63 1.63 0 0 0-.15-.4c-.1.1-.22.2-.35.3-.1.1-.22.18-.35.25-.1.1-.22.18-.35.25s-.27.13-.4.2-.27.13-.4.2-.27.12-.4.15-.28.07-.45.1c-.13.03-.27.07-.4.1-.3.03-.6.13-.9.3-.27.13-.53.33-.8.6-.23.23-.45.5-.65.8-.2.33-.37.68-.5 1.05-.17.37-.27.75-.3 1.15-.07.43-.1.87-.1 1.3.03.43.12.87.25 1.3.13.47.32.92.55 1.35-.4-.53-.72-1.07-.95-1.6s-.4-1.05-.5-1.55c-.07-.5-.07-1 0-1.5.07-.47.18-.93.35-1.4z"/><path fill="#A04B4B" d="M7.55 18.05c.03.3.08.6.15.9.07.33.13.65.2.95s.15.6.25.9l.3.9c.07.3.17.6.3.9-.07.03-.12.08-.15.15-.07.07-.13.12-.2.15-.03.07-.08.13-.15.2-.03.07-.08.13-.15.2-.03.07-.08.13-.15.2-.03.07-.08.13-.15.2-.03.07-.07.13-.1.2-.07.07-.12.13-.15.2-.17-.4-.33-.82-.5-1.25-.13-.4-.27-.82-.4-1.25-.13-.4-.27-.82-.4-1.25l-.3-1.3-.3-1.3c-.07-.43-.13-.88-.2-1.35-.07-.43-.12-.88-.15-1.35-.07-.47-.1-.93-.1-1.4.1-.03.22-.07.35-.1.1-.07.22-.12.35-.15.1-.03.22-.07.35-.1s.25-.07.35-.1c.13-.03.25-.07.35-.1.13-.03.25-.08.35-.15.13-.03.25-.07.35-.1.13-.03.25-.07.35-.1 0 .1.02.18.05.25 0 .1.02.18.05.25.03.1.07.18.1.25 0 .1.02.18.05.25.03.1.07.18.1.25.03.1.07.18.1.25.07.07.12.13.15.2s.08.13.15.2c-.33.1-.58.18-.75.25-.2.03-.47.12-.8.25.03.33.07.65.1.95 0 .33.03.67.1 1 .03.3.08.62.15.95z"/></svg>