<svg xmlns="http://www.w3.org/2000/svg" width="40" height="40"><g fill-rule="evenodd"><path fill="#D3C9B4" d="M20 0q2.05 0 4.05.4 1.9.4 3.75 1.15 1.75.8 3.4 1.85 1.6 1.1 2.95 2.45T36.6 8.8q1.05 1.65 1.85 3.4.75 1.85 1.15 3.75.4 2 .4 4.05t-.4 4.05q-.4 1.9-1.15 3.75-.8 1.75-1.85 3.4-1.1 1.6-2.45 2.95T31.2 36.6q-1.65 1.05-3.4 1.85-1.85.75-3.75 1.15-2 .4-4.05.4t-4.05-.4q-1.9-.4-3.75-1.15-1.75-.8-3.4-1.85-1.6-1.1-2.95-2.45T3.4 31.2q-1.05-1.65-1.85-3.4Q.8 25.95.4 24.05 0 22.05 0 20t.4-4.05q.4-1.9 1.15-3.75.8-1.75 1.85-3.4 1.1-1.6 2.45-2.95T8.8 3.4q1.65-1.05 3.4-1.85Q14.05.8 15.95.4q2-.4 4.05-.4m2.35 22.15 15.4-1.7q0 .45-.05.85 0 .45-.05.9-.05.4-.15.85-.05.4-.15.8-.1.45-.2.85t-.25.8-.3.8q-.1.4-.3.75l-5.6-2.9v-.1q.05-.05.05-.1t0-.1 0-.1 0-.05v-.1l-.05-.05v-.05q.05-.05.05-.15.05-.05.05-.15.05-.05.05-.15v-.15q.05-.05.05-.15 0-.05-.05-.1v-.1q0-.05-.05-.1 0-.05-.05-.05 0-.05-.05-.05-.05-.05-.1-.05l-.05.05h-.1q-.05.05-.1.05l-.1.1-.05.1q0-.05-.05-.05l-.05-.05q-.05-.05-.1-.05t-.05 0q-.05.05-.1.05t-.1.05-.1.1-.1.1-.1.1q-.05.1-.1.15t-.1.15q0 .05-.05.15-.05.05-.05.15-.05.05-.05.15-.05.05-.05.15 0 .05-.05.15l-.1.1q-.05.05-.05.15l-.1.1q-.05.1-.05.15-.05.1-.05.15-.05.1-.05.15-.05.1-.05.2-.05.05-.05.15v.25q0 .05.05.1v.1l.05.05.05.05h.1q.05.05.05 0v.25q0 .05.05.1v.1l.05.05q.05.05.1.05 0 .05.05.05t.1-.05.1-.05.1-.05.1-.05.1-.1q0-.05.05-.1t.1-.15l.1-.1q0-.1.05-.15.05 0 .05-.05h.1q0-.05.05-.05l.1-.1.05-.05 6 2.2q-.15.35-.35.7-.15.35-.35.65l-.4.7-.4.6q-.25.35-.45.65l-.5.6q-.25.3-.5.55l-.5.6-5.55-6.2q-.1.2-.2.3l-.5.45q-.05.05-.05.1-.05 0-.1.05 0 .05-.05.05 0 .05-.05.05l6.2 5.45-.55.55q-.3.25-.55.5-.3.2-.6.45t-.65.45q-.3.2-.6.45-.35.2-.65.35l-.7.4q-.35.15-.7.35l-2.2-5.95.05-.05.1-.1q0-.05.05-.05.05-.05.05-.1l.05-.05v-.05l.05-.05v-.05q.05-.05.15-.05l.1-.1q.1 0 .15-.05t.1-.1.1-.1.1-.1q0-.05.05-.1v-.25l-.05-.05q0-.05-.05-.05t-.1-.05h-.35v-.15l-.05-.05-.05-.05q-.05 0-.1-.05h-.4q-.05 0-.15.05h-.15q-.1.05-.15.05-.1.05-.15.1-.1 0-.15.05-.1.05-.15.1t-.1.1q-.1.05-.15.05t-.15.05-.15.05-.15.05-.15.05l-.1.1q-.1 0-.15.05-.1.05-.15.1t-.1.1-.1.1-.1.1-.05.1-.05.1v.05q0 .05.05.1v.05q.05.05.1.05l-.1.1-.1.1q0 .05-.05.1v.2q0 .05.05.1l.05.05q.05 0 .1.05h.35q.1 0 .15-.05.1 0 .15-.05.1 0 .15-.05.1 0 .15-.05h.05q0 .05.05.05t.05 0h.35l3 5.6q-.4.15-.8.35-.4.15-.8.25-.4.15-.85.25-.4.15-.85.25-.4.1-.85.15-.4.1-.85.15t-.9.05-.9.05l1.75-15.4.2-.2m-4.7 0 .2.2 1.7 15.4q-.45 0-.85-.05-.45 0-.9-.05-.4-.05-.85-.15-.4-.05-.8-.15-.45-.1-.85-.2t-.8-.25-.8-.3q-.4-.1-.75-.3l2.9-5.6h.1q.05.05.1.05t.1 0 .1 0 .05 0h.1l.05-.05h.05q.05.05.15.05.05.05.15.05.05.05.15.05h.15q.05.05.15.05.05 0 .1-.05h.1q.05 0 .1-.05.05 0 .05-.05.05 0 .05-.05.05-.05.05-.1l-.05-.05v-.1q-.05-.05-.05-.1l-.1-.1-.1-.05q.05 0 .05-.05l.05-.05q.05-.05.05-.1t0-.05q-.05-.05-.05-.1t-.05-.1-.1-.1-.1-.1-.1-.1q-.1-.05-.15-.1t-.15-.1q-.05 0-.15-.05-.05-.05-.15-.05-.05-.05-.15-.05-.05-.05-.15-.05-.05 0-.15-.05l-.1-.1q-.05-.05-.15-.05l-.1-.1q-.1-.05-.15-.05-.1-.05-.15-.05-.1-.05-.15-.05-.1-.05-.2-.05-.05-.05-.15-.05h-.25q-.05 0-.1.05h-.1l-.05.05-.05.05v.1q-.05.05 0 .05h-.25q-.05 0-.1.05h-.1l-.05.05q-.05.05-.05.1-.05 0-.05.05t.05.1.05.1.05.1.05.1.1.1q.05 0 .1.05t.15.1l.1.1q.1 0 .15.05 0 .05.05.05v.1q.05 0 .05.05l.1.1.05.05-2.2 6q-.35-.15-.7-.35-.35-.15-.65-.35l-.7-.4-.6-.4q-.35-.25-.65-.45l-.6-.5q-.3-.25-.55-.5l-.6-.5h.05l6.15-5.55-.1-.05q0-.05-.05-.05l-.05-.05q-.05-.05-.1-.05 0-.05-.05-.05l-.3-.3-.05-.05-.05-.05-.05-.05-.05-.05q0-.05-.05-.05 0-.05-.05-.05 0-.05-.05-.05v-.05l-5.45 6.2-.55-.55q-.25-.3-.5-.55-.2-.3-.45-.6t-.45-.65q-.2-.3-.45-.6-.2-.35-.35-.65l-.4-.7q-.15-.35-.35-.7l5.95-2.2.05.05.1.1q.05 0 .05.05.05.05.1.05l.05.05h.05l.05.05h.05q.05.05.05.15l.1.1q0 .1.05.15t.1.1.1.1.1.1q.05 0 .1.05h.25l.05-.05q.05 0 .05-.05t.05-.1v-.35h.15l.05-.05.05-.05q0-.05.05-.1v-.4q0-.05-.05-.15v-.15q-.05-.1-.05-.15-.05-.1-.1-.15 0-.1-.05-.15-.05-.1-.1-.15t-.1-.1q-.05-.1-.05-.15t-.05-.15-.05-.15-.05-.15-.05-.15l-.1-.1q0-.1-.05-.15-.05-.1-.1-.15t-.1-.1-.1-.1-.1-.1-.1-.05-.1-.05h-.05q-.05 0-.1.05h-.05q-.05.05-.05.1l-.1-.1-.1-.1q-.05 0-.1-.05h-.2q-.05 0-.1.05l-.05.05q0 .05-.05.1v.35q0 .1.05.15 0 .1.05.15 0 .1.05.15 0 .1.05.15v.05q-.05 0-.05.05t0 .05v.35l-5.6 3q-.15-.4-.35-.8-.15-.4-.25-.8-.15-.4-.25-.85-.15-.4-.25-.85-.1-.4-.15-.85-.1-.4-.15-.85t-.05-.9-.05-.9l15.4 1.75m-3.15 5.1h-.1q-.05 0-.1-.05-.05 0-.1-.05-.1 0-.15-.05t-.15-.1l-.15-.15q-.1-.05-.15-.1l-.15-.15-.15-.15q-.05-.1-.15-.15-.05-.1-.1-.15-.05-.1-.1-.15-.05-.1-.05-.15-.05-.1-.05-.15-.05-.05-.05-.1t0-.1l-.15-.15q-.05-.05-.1-.15-.05-.05-.1-.15-.05-.05-.1-.15l-.1-.1q0-.1-.05-.15 0-.05-.05-.1v-.25q.05 0 .05-.05h.1q0-.05.05-.05t.1.05h.1q.1.05.15.05.05.05.15.1v-.1l.05-.05.05-.05h.2q.05.05.1.05.05.05.15.05.05.05.15.1.05.05.15.1.05.05.15.1.05.1.15.15l.15.15q.05.05.1.15.1.05.15.1.05.1.1.15.05.1.1.15t.15.1.15.1l.15.15q.05.05.1.15.1.05.15.15l.15.15q.05.05.1.15.05.05.1.15t.1.15q0 .05.05.15v.3q0 .05-.05.05t-.05 0q0 .05-.05.05.05.05.05.15.05.05.05.1.05.05.05.1t0 .1 0 .1l-.05.05-.05.05h-.2q-.05 0-.15-.05-.05 0-.1-.05-.1-.05-.15-.1-.05 0-.15-.05l-.15-.15q-.05-.05-.15-.1l-.15-.15m12.75-1.75v.1q0 .05-.05.1 0 .05-.05.1 0 .1-.05.15t-.1.15l-.15.15q-.05.1-.1.15l-.15.15-.15.15q-.1.05-.15.15-.1.05-.15.1-.1.05-.15.1-.1.05-.15.05-.1.05-.15.05-.05.05-.1.05t-.1 0l-.15.15q-.05.05-.15.1-.05.05-.15.1-.05.05-.15.1l-.1.1q-.1 0-.15.05-.05 0-.1.05h-.25q0-.05-.05-.05v-.1q-.05 0-.05-.05t.05-.1v-.1q.05-.1.05-.15.05-.05.1-.15h-.1l-.05-.05-.05-.05v-.2q.05-.05.05-.1.05-.05.05-.15.05-.05.1-.15.05-.05.1-.15.05-.05.1-.15.1-.05.15-.15l.15-.15q.05-.05.15-.1.05-.1.1-.15.1-.05.15-.1.1-.05.15-.1t.1-.15.1-.15l.15-.15q.05-.05.15-.1.05-.1.15-.15l.15-.15q.05-.05.15-.1.05-.05.15-.1t.15-.1q.05 0 .15-.05h.3q.05 0 .05.05t0 .05q.05 0 .05.05.05-.05.15-.05.05-.05.1-.05.05-.05.1-.05t.1 0 .1 0l.05.05.05.05v.2q0 .05-.05.15 0 .05-.05.1-.05.1-.1.15 0 .05-.05.15l-.15.15q-.05.05-.1.15l-.15.15m-4.9-.05.55 1.2q-.45.2-.8.3l.25-1.5m-4.45 1.5q-.5-.2-.7-.25l.5-1.15.2 1.4m-.6-3.9.2 1.35-.95 2.1q-.15-.05-.25-.15l-.2-.1-.2-.1q-.1-.1-.2-.15l-.15-.15q-.1-.05-.15-.15-.1-.05-.2-.15-.1-.05-.2-.2l2.3-2.3m5.2 1.5.15-1.35 2.3 2.25-.2.2q-.1.1-.2.15l-.15.15-.2.1-.2.1q-.05.05-.2.1l-.2.1q-.15.05-.25.1l-.85-1.9m.55-1.85 1.35-.2 2.1.95q-.05.15-.15.25l-.1.2-.1.2q-.1.1-.15.2l-.15.15q-.05.1-.15.15-.05.1-.15.2-.05.1-.2.2l-2.3-2.3m-7.6-.2 1.35.15-2.25 2.3-.2-.2q-.1-.1-.15-.2l-.15-.15-.1-.2-.1-.2q-.05-.05-.1-.2l-.1-.2q-.05-.15-.1-.25l1.9-.85m-.9-.15-1.2.55q-.2-.45-.3-.8l1.5.25m12.4-.25q-.2.5-.25.7l-1.15-.5 1.4-.2M20 17.4q.25 0 .5.05.3.05.5.15.25.1.45.25t.4.3l.3.4q.15.2.25.45.1.2.15.5.05.25.05.5t-.05.5q-.05.3-.15.5-.1.25-.25.45t-.3.4l-.4.3q-.2.15-.45.25-.2.1-.5.15-.25.05-.5.05t-.5-.05q-.3-.05-.5-.15-.25-.1-.45-.25t-.4-.3l-.3-.4q-.15-.2-.25-.45-.1-.2-.15-.5-.05-.25-.05-.5t.05-.5q.05-.3.15-.5.1-.25.25-.45t.3-.4l.4-.3q.2-.15.45-.25.2-.1.5-.15.25-.05.5-.05m0 .95q.15 0 .35.05.15 0 .3.05.15.1.3.15.1.1.25.2.1.15.2.25.05.15.15.3l.1.3V20q0 .15-.05.35 0 .15-.05.3-.1.15-.15.3-.1.1-.2.25-.15.1-.25.2-.15.05-.3.15l-.3.1H20q-.15 0-.35-.05-.15 0-.3-.05-.15-.1-.3-.15-.1-.1-.25-.2-.1-.15-.2-.25-.05-.15-.15-.3l-.1-.3V20q0-.15.05-.35 0-.15.05-.3.1-.15.15-.3.1-.1.2-.25.15-.1.25-.2.15-.05.3-.15l.3-.1H20m2.15-.7-1.7-15.4q.45 0 .85.05.45 0 .9.05.4.05.85.15.4.05.8.15.45.1.85.2t.8.25.8.3q.4.1.75.3l-2.9 5.6h-.1q-.05-.05-.1-.05t-.1 0-.1 0-.05 0h-.1l-.05.05h-.05q-.05-.05-.15-.05-.05-.05-.15-.05-.05-.05-.15-.05h-.15q-.05-.05-.15-.05-.05 0-.1.05h-.1q-.05 0-.1.05-.05 0-.05.05-.05 0-.05.05-.05.05-.05.1l.05.05v.1q.05.05.05.1l.1.1.1.05q-.05 0-.05.05l-.05.05q-.05.05-.05.1t0 .05q.05.05.05.1t.05.1.1.1.1.1.1.1q.1.05.15.1t.15.1q.05 0 .15.05.05.05.15.05.05.05.15.05.05.05.15.05.05 0 .15.05l.1.1q.05.05.15.05l.1.1q.1.05.15.05.1.05.15.05.1.05.15.05.1.05.2.05.05.05.15.05h.25q.05 0 .1-.05h.1l.05-.05.05-.05v-.1q.05-.05 0-.05h.25q.05 0 .1-.05h.1l.05-.05q.05-.05.05-.1.05 0 .05-.05t-.05-.1-.05-.1-.05-.1-.05-.1-.1-.1q-.05 0-.1-.05t-.15-.1l-.1-.1q-.1 0-.15-.05 0-.05-.05-.05V10q-.05 0-.05-.05l-.1-.1-.05-.05 2.2-6q.35.15.7.35.35.15.65.35.35.2.65.4.35.2.65.4.35.25.65.45l.6.5q.3.25.55.5l.6.5-.5.45-5.7 5.1q.2.15.35.25l.4.4q.15.2.25.3l5.45-6.2.55.55q.25.3.5.55.2.3.45.6t.45.65q.2.3.45.6.2.35.35.65l.4.7q.15.35.35.7l-5.95 2.2-.05-.05-.1-.1q-.05 0-.05-.05-.05-.05-.1-.05l-.05-.05h-.05l-.05-.05h-.05q-.05-.05-.05-.15l-.1-.1q0-.1-.05-.15t-.1-.1-.1-.1-.1-.1q-.05 0-.1-.05h-.25l-.05.05q-.05 0-.05.05t-.05.1v.35h-.15l-.05.05-.05.05q0 .05-.05.1v.4q0 .05.05.15v.15q.05.1.05.15.05.1.1.15 0 .1.05.15.05.1.1.15t.1.1q.05.1.05.15t.05.15.05.15.05.15.05.15l.1.1q0 .1.05.15.05.1.1.15t.1.1.1.1.1.1.1.05.1.05h.05q.05 0 .1-.05h.05q.05-.05.05-.1l.1.1.1.1q.05 0 .1.05h.2q.05 0 .1-.05l.05-.05q0-.05.05-.1v-.35q0-.1-.05-.15 0-.1-.05-.15 0-.1-.05-.15 0-.1-.05-.15v-.05q.05 0 .05-.05t0-.05v-.35l5.6-3q.15.4.35.8.15.4.25.8.15.4.25.85.15.4.25.85.1.4.15.85.1.4.15.85t.05.9.05.9l-15.4-1.75-.2-.2m-4.3 0-.2.2-15.4 1.7q0-.45.05-.85 0-.45.05-.9.05-.4.15-.85.05-.4.15-.8.1-.45.2-.85t.25-.8.3-.8q.1-.4.3-.75l5.6 2.9v.1q-.05.05-.05.1t0 .1 0 .1 0 .05v.1l.05.05v.05q-.05.05-.05.15-.05.05-.05.15-.05.05-.05.15v.15q-.05.05-.05.15 0 .05.05.1v.1q0 .05.05.1 0 .05.05.05 0 .05.05.05.05.05.1.05l.05-.05h.1q.05-.05.1-.05l.1-.1.05-.1q0 .05.05.05l.05.05q.05.05.1.05t.05 0q.05-.05.1-.05t.1-.05.1-.1.1-.1.1-.1q.05-.1.1-.15t.1-.15q0-.05.05-.15.05-.05.05-.15.05-.05.05-.15.05-.05.05-.15 0-.05.05-.15l.1-.1q.05-.05.05-.15l.1-.1q.05-.1.05-.15.05-.1.05-.15.05-.1.05-.15.05-.1.05-.2.05-.05.05-.15v-.25q0-.05-.05-.1v-.1l-.05-.05-.05-.05h-.1q-.05-.05-.05 0v-.25q0-.05-.05-.1v-.1l-.05-.05q-.05-.05-.1-.05 0-.05-.05-.05t-.1.05-.1.05-.1.05-.1.05-.1.1q0 .05-.05.1t-.1.15l-.1.1q0 .1-.05.15-.05 0-.05.05H10q0 .05-.05.05l-.1.1-.05.05-6-2.2q.15-.35.35-.7.15-.35.35-.65l.4-.7.4-.6q.25-.35.45-.65l.5-.6q.25-.3.5-.55l.5-.6 5.55 6.2q.1-.2.2-.3l.5-.5q.2-.2.25-.2l-6.2-5.45.55-.55q.3-.25.55-.5.3-.2.6-.45t.65-.45q.3-.2.6-.45.35-.2.65-.35l.7-.4q.35-.15.7-.35l2.2 5.95-.05.05-.1.1q0 .05-.05.05-.05.05-.05.1l-.05.05v.05l-.05.05v.05q-.05.05-.15.05l-.1.1q-.1 0-.15.05t-.1.1-.1.1-.1.1q0 .05-.05.1v.25l.05.05q0 .05.05.05t.1.05h.35v.15l.05.05.05.05q.05 0 .1.05h.4q.05 0 .15-.05h.15q.1-.05.15-.05.1-.05.15-.1.1 0 .15-.05.1-.05.15-.1t.1-.1q.1-.05.15-.05t.15-.05.15-.05.15-.05.15-.05l.1-.1q.1 0 .15-.05.1-.05.15-.1t.1-.1.1-.1.1-.1.05-.1.05-.1v-.05q0-.05-.05-.1v-.05q-.05-.05-.1-.05l.1-.1.1-.1q0-.05.05-.1v-.2q0-.05-.05-.1l-.05-.05q-.05 0-.1-.05h-.35q-.1 0-.15.05-.1 0-.15.05-.1 0-.15.05-.1 0-.15.05h-.05q0-.05-.05-.05t-.05 0h-.35l-3-5.6q.4-.15.8-.35.4-.15.8-.25.4-.15.85-.25.4-.15.85-.25.4-.1.85-.15.4-.1.85-.15t.9-.05.9-.05l-1.75 15.4m7.6 0 1.2-.55q.2.45.3.8l-1.5-.25m-12.4.25q.2-.5.25-.7l1.15.5-1.4.2m11.5-.4-1.35-.15 2.25-2.3.2.2q.1.1.15.2l.15.15.1.2.1.2q.05.05.1.2l.1.2q.05.15.1.25l-1.9.85m-7.6-.2-1.35.2-2.1-.95q.05-.15.15-.25l.1-.2.1-.2q.1-.1.15-.2l.15-.15q.05-.1.15-.15.05-.1.15-.2.05-.1.2-.2l2.3 2.3m5.75-.35-.2-1.35.95-2.1q.15.05.25.15l.2.1.2.1q.1.1.2.15l.15.15q.1.05.15.15.1.05.2.15.1.05.2.2l-2.3 2.3m-5.2-1.5-.15 1.35-2.3-2.25.2-.2q.1-.1.2-.15l.15-.15.2-.1.2-.1q.05-.05.2-.1l.2-.1q.15-.05.25-.1l.85 1.9m-4.75-.95v-.1q0-.05.05-.1 0-.05.05-.1 0-.1.05-.15t.1-.15l.15-.15q.05-.1.1-.15l.15-.15.15-.15q.1-.05.15-.15.1-.05.15-.1.1-.05.15-.1.1-.05.15-.05.1-.05.15-.05.05-.05.1-.05t.1 0l.15-.15q.05-.05.15-.1.05-.05.15-.1.05-.05.15-.1l.1-.1q.1 0 .15-.05.05 0 .1-.05h.25q0 .05.05.05v.1q.05 0 .05.05t-.05.1v.1q-.05.1-.05.15-.05.05-.1.15h.1l.05.05.05.05v.2q-.05.05-.05.1-.05.05-.05.15-.05.05-.1.15-.05.05-.1.15-.05.05-.1.15-.1.05-.15.15l-.15.15q-.05.05-.15.1-.05.1-.1.15-.1.05-.15.1-.1.05-.15.1t-.1.15-.1.15l-.15.15q-.05.05-.15.1-.05.1-.15.15l-.15.15q-.05.05-.15.1-.05.05-.15.1t-.15.1q-.05 0-.15.05h-.3q-.05 0-.05-.05t0-.05q-.05 0-.05-.05-.05.05-.15.05-.05.05-.1.05-.05.05-.1.05t-.1 0-.1 0l-.05-.05-.05-.05v-.2q0-.05.05-.15 0-.05.05-.1.05-.1.1-.15 0-.05.05-.15l.15-.15q.05-.05.1-.15l.15-.15m12.75-1.75h.1q.05 0 .1.05.05 0 .1.05.1 0 .15.05t.15.1l.15.15q.1.05.15.1l.15.15.15.15q.05.1.15.15.05.1.1.15.05.1.1.15.05.1.05.15.05.1.05.15.05.05.05.1t0 .1l.15.15q.05.05.1.15.05.05.1.15.05.05.1.15l.1.1q0 .1.05.15 0 .05.05.1v.25q-.05 0-.05.05h-.1q0 .05-.05.05t-.1-.05h-.1q-.1-.05-.15-.05-.05-.05-.15-.1v.1l-.05.05-.05.05h-.2q-.05-.05-.1-.05-.05-.05-.15-.05-.05-.05-.15-.1-.05-.05-.15-.1-.05-.05-.15-.1-.05-.1-.15-.15l-.15-.15q-.05-.05-.1-.15-.1-.05-.15-.1-.05-.1-.1-.15-.05-.1-.1-.15t-.15-.1-.15-.1l-.15-.15q-.05-.05-.1-.15-.1-.05-.15-.15l-.15-.15q-.05-.05-.1-.15-.05-.05-.1-.15t-.1-.15q0-.05-.05-.15v-.3q0-.05.05-.05t.05 0q0-.05.05-.05-.05-.05-.05-.15-.05-.05-.05-.1-.05-.05-.05-.1t0-.1 0-.1l.05-.05.05-.05h.2q.05 0 .15.05.05 0 .1.05.1.05.15.1.05 0 .15.05l.15.15q.05.05.15.1l.15.15m-7.85 1.8-.55-1.2q.45-.2.8-.3l-.25 1.5m4.45-1.5q.5.2.7.25l-.5 1.15-.2-1.4m5.1-9.3h.05-.1.05"/><path fill="#6E5050" d="M27.15 26.25q0 .05-.05.1l-.05.05q0 .05-.05.1l-.5.45q-.05.05-.05.1-.05 0-.1.05 0 .05-.05.05 0 .05-.05.05l6.2 5.45q-.25.25-.55.5-.25.3-.55.5l-.6.5q-.3.2-.6.45-.3.2-.65.4-.3.2-.65.4-.3.2-.65.35-.35.2-.7.35l-.05.05-2.2-5.95.05-.05.1-.1q0-.05.05-.05.05-.05.05-.1l.05-.05v-.05l.05-.05v-.05q.05-.05.15-.05l.1-.1q.1 0 .15-.05t.1-.1.1-.1.1-.1q0-.05.05-.1v-.3h-.05q-.05-.05-.1-.05 0-.05-.05-.05t-.1 0-.1 0-.05 0h-.1v-.15l-.05-.05q-.05-.05-.1-.05 0-.05-.05-.05t-.1 0-.1 0-.1 0-.1 0-.15.05h-.15q-.1.05-.15.05-.1.05-.15.1-.1 0-.15.05-.1.05-.15.1t-.1.1q-.1.05-.15.05t-.15.05-.15.05-.15.05-.15.05l-.1.1q-.1 0-.15.05-.1.05-.15.1t-.1.1-.1.1-.1.1-.05.1-.05.1v.05q0 .05.05.1v.05q.05.05.1.05l-.1.1-.1.1q0 .05-.05.1v.2q0 .05.05.1l.05.05h.05q.05 0 .1.05h.35q.05 0 .1-.05h.1q.05 0 .1-.05t.05 0q.05-.05.1-.05t.1-.05q.05 0 .05.05h.45l3 5.6q-.4.15-.8.35-.4.15-.8.25-.4.15-.8.25-.45.15-.85.25t-.85.15-.85.15q-.45.05-.9.05-.45.05-.9.05h-.05l1.75-15.4.2-.2 15.4-1.7q0 .45-.05.85 0 .45-.05.85-.05.45-.15.85-.05.45-.15.85t-.2.8-.25.8-.25.8-.3.75l-.05.05-5.6-2.9v-.1q.05-.05.05-.1t0-.1 0-.1 0-.05v-.1l-.05-.05v-.05q.05-.05.05-.15.05-.05.05-.15.05-.05.05-.15v-.15q.05-.05.05-.15 0-.05-.05-.1v-.1q0-.05-.05-.1 0-.05-.05-.05 0-.05-.05-.05-.05-.05-.1-.05h-.05l-.05.05h-.05l-.05.05h-.05q0 .05-.05.05l-.05.05-.05.05v.05q-.05-.05-.05-.1-.05 0-.1-.05h-.15l-.05.05h-.05q-.05.05-.1.05 0 .05-.05.05 0 .05-.05.05-.05.05-.05.1l-.1.1q-.05.1-.1.15t-.1.15q0 .05-.05.15-.05.05-.05.15-.05.05-.05.15-.05.05-.05.15 0 .05-.05.15l-.1.1q-.05.05-.05.15l-.1.1q-.05.1-.05.15-.05.1-.05.15-.05.1-.05.15-.05.1-.05.2-.05.05-.05.15v.35l.05.05q0 .05.05.1l.05.05h.05l.05.05q.05 0 .05-.05v.25q0 .05.05.1v.1q.05 0 .05.05l.05.05H29q.05.05.1.05l.05-.05q.05 0 .1-.05.05 0 .1-.05.05 0 .1-.05t.1-.1q0-.05.05-.1t.1-.15l.1-.1q0-.1.05-.15.05 0 .05-.05h.1q0-.05.05-.05l.1-.1.05-.05 6 2.2q-.15.35-.35.7-.15.35-.35.65-.2.35-.4.65-.2.35-.4.65t-.45.6-.45.6l-.5.6q-.25.25-.5.55l-.05.05-5.55-6.2-.05.05M14.2 28.8h-.1q-.05 0-.05.05h-.1q0 .05-.05.05l-.05.05V29l-.05.05q0 .05.05.1 0 .05.05.1 0 .05.05.1 0 .05.05.1t.1.1q.05 0 .1.05t.15.1l.1.1q.1 0 .15.05 0 .05.05.05v.1q.05 0 .05.05l.1.1.05.05-2.2 6q-.35-.15-.7-.35-.35-.15-.65-.35l-.7-.4-.6-.4q-.35-.25-.65-.45l-.6-.5q-.3-.25-.55-.5l-.6-.5h.05l6.15-5.55-.1-.05q0-.05-.05-.05l-.05-.05q-.05-.05-.1-.05 0-.05-.05-.05l-.3-.3-.05-.05q0-.05-.05-.05 0-.05-.05-.05 0-.05-.05-.05 0-.05-.05-.05v-.05q-.05 0-.05-.05-.05 0-.05-.05l-5.45 6.2-.55-.55q-.25-.3-.5-.55-.2-.3-.45-.6t-.45-.65q-.2-.3-.45-.6-.2-.35-.35-.65l-.4-.7q-.15-.35-.35-.7l5.95-2.2.05.05.1.1q.05 0 .05.05.05.05.1.05l.05.05h.05l.05.05h.05q.05.05.05.15l.1.1q0 .1.05.15t.1.1.1.1.1.1q.05 0 .1.05h.2q.05 0 .1-.05l.05-.05v-.05l.05-.05v-.35h.1q.05 0 .1-.05l.05-.05v-.05q.05-.05.05-.1t0-.1 0-.1 0-.15q0-.05-.05-.15v-.15q-.05-.1-.05-.15-.05-.1-.1-.15 0-.1-.05-.15-.05-.1-.1-.15t-.1-.1q-.05-.1-.05-.15t-.05-.15-.05-.15-.05-.15-.05-.15l-.1-.1q0-.1-.05-.15-.05-.1-.1-.15t-.1-.1-.05-.1q-.05 0-.1-.05l-.05-.05q-.05 0-.05-.05h-.1q0-.05-.05-.05h-.1.05-.1q0 .05-.05.05 0 .05-.05.05v.05l-.05-.05q-.05-.05-.05-.1-.05 0-.1-.05h-.05l-.05-.05h-.2q-.05 0-.1.05l-.05.05q0 .05-.05.1v.35q0 .1.05.15 0 .1.05.15 0 .1.05.15 0 .1.05.15v.05q-.05 0-.05.05t0 .05v.35l-5.6 3q-.15-.4-.35-.8-.15-.4-.25-.8-.15-.4-.25-.85-.15-.4-.25-.85-.1-.4-.15-.85-.1-.4-.15-.85t-.05-.9-.05-.9l15.4 1.75.2.2 1.7 15.4q-.45 0-.85-.05-.45 0-.9-.05-.4-.05-.85-.15-.4-.05-.8-.15-.45-.1-.85-.2t-.8-.25-.8-.3q-.4-.1-.75-.3l2.9-5.6h.05q.05 0 .1.05h.4q.05-.05.1-.05t.1.05.1.05h.1q.05 0 .1.05h.25q.05.05.1.05.25-.05.3-.1.05 0 .05-.05.05 0 .05-.05.05-.05.05-.1l-.05-.05v-.1q-.05-.05-.05-.1l-.1-.1-.1-.05q.05 0 .05-.05l.05-.05q.05-.05.05-.1t0-.05q-.05-.05-.05-.1t-.05-.1-.1-.1-.1-.1-.1-.1q-.1-.05-.15-.1t-.15-.1q-.05 0-.15-.05-.05-.05-.15-.05-.05-.05-.15-.05-.05-.05-.15-.05-.05 0-.15-.05l-.1-.1q-.05-.05-.15-.05l-.1-.1q-.1-.05-.15-.05-.1-.05-.15-.05-.1-.05-.15-.05-.1-.05-.2-.05-.05-.05-.15-.05h-.35l-.05.05q-.05 0-.1.05l-.05.05v.1q-.05.05 0 .05h-.2M13 24.2h.15l.05.05h.05l.05.05h.1q0 .05.05.05t.1.05.15.1.15.1q.05.1.15.15l.15.15q.05.05.1.15.1.05.15.1.05.1.1.15.05.1.1.15t.15.1.15.1l.15.15q.05.05.1.15.1.05.15.15l.15.15q.05.05.1.15.05.05.1.15t.1.15q0 .05.05.15v.3q0 .05-.05.05t-.05 0q0 .05-.05.05.05.05.05.15.05.05.05.1.05.05.05.1t0 .1 0 .1l-.05.05-.05.05h-.2q-.05 0-.15-.05-.05 0-.1-.05-.1-.05-.15-.1-.05 0-.15-.05l-.15-.15q-.05-.05-.15-.1l-.15-.15h-.1q-.05 0-.1-.05-.05 0-.15-.05-.05-.05-.1-.05-.1-.05-.15-.1-.1-.05-.15-.15-.1-.05-.15-.1l-.15-.15-.15-.15q-.05-.1-.15-.15-.05-.1-.1-.15-.05-.1-.1-.15-.05-.1-.05-.15-.05-.1-.05-.15-.05-.05-.05-.1t0-.1l-.15-.15q-.05-.05-.1-.15-.05-.05-.1-.15-.05-.05-.1-.15l-.1-.1q0-.1-.05-.15 0-.05-.05-.1v-.15q0-.05.05-.05v-.1h.1q.05-.05.1-.05h.05l.05.05h.1q0 .05.05.05t.05 0l.05.05q.05 0 .1.05v-.1l.05-.05q.05-.05.1-.05m14.7 0h.1q0 .05.05.05l.05.05v.2q0 .05-.05.15 0 .05-.05.1-.05.1-.1.15 0 .05-.05.15l-.15.15q-.05.05-.1.15l-.15.15v.1q0 .05-.05.1 0 .05-.05.1 0 .1-.05.15t-.1.15l-.15.15q-.05.1-.1.15l-.15.15-.15.15q-.1.05-.15.1-.1.05-.15.15-.05.05-.15.05-.05.05-.15.1-.05.05-.1.05-.05.05-.1.05t-.1 0-.05 0l-.15.15q-.05.05-.15.1l-.1.1q-.1.05-.15.1-.1.05-.15.1-.05 0-.15.05h-.1q-.05.05-.1.05h-.15q0-.05-.05-.05v-.1q-.05 0-.05-.05t.05-.1v-.1q.05-.1.05-.15.05-.05.1-.15h-.1l-.05-.05-.05-.05v-.2q.05-.05.05-.1.05-.05.05-.15.05-.05.1-.15.05-.05.1-.15.05-.05.1-.15.1-.05.15-.15l.15-.15q.05-.05.15-.1.05-.1.1-.15.1-.05.15-.1.1-.05.15-.1t.1-.15.1-.15l.15-.15q.05-.05.15-.1.05-.1.15-.15l.15-.15q.05-.05.15-.1.05-.05.15-.1.05 0 .1-.05l.05-.05h.1q0-.05.05-.05t.05 0h.25q.05 0 .05.05.05.05.05.1.05 0 .1-.05.05 0 .05-.05h.1q.05 0 .05-.05h.2-.05m-5.35 1.25.55 1.2-.75.25-.05.05.25-1.5m-4.45 1.5q-.5-.2-.7-.25l.5-1.15.2 1.4m-.6-3.9.2 1.35-.95 2.1q-.15-.05-.25-.15l-.2-.1-.2-.1q-.1-.1-.2-.15l-.15-.15q-.1-.05-.15-.15-.1-.05-.2-.15-.1-.05-.2-.2l2.3-2.3m5.35.15 2.3 2.25-.2.2q-.1.05-.15.15l-.2.1q-.1.05-.15.15-.1 0-.2.05t-.2.1-.2.1q-.15.1-.25.1l-.05.05-.85-1.9.15-1.35m1.75-.7 2.1.95q-.05.15-.1.25-.1.1-.15.2t-.1.2-.15.15l-.1.2-.15.15-.15.15-.2.2-.05.05-2.3-2.3 1.35-.2m-8.95 0 1.35.15-2.25 2.3-.2-.2q-.1-.1-.15-.2l-.15-.15-.1-.2-.1-.2q-.05-.05-.1-.2l-.1-.2q-.05-.15-.1-.25l1.9-.85m-2.4-.4 1.5.25-1.2.55q-.2-.45-.3-.8m13.9 0-.05.05v.1q-.05 0-.05.05t0 .1-.05.05v.1l-.05.05v.1l-.05.05v.05l-1.15-.5 1.4-.2M20 17.4q.25 0 .5.05.3.05.5.15.25.1.45.25t.4.3l.3.4q.15.2.25.45.1.2.15.5.05.25.05.5t-.05.5q-.05.3-.15.5-.1.25-.25.45t-.3.4l-.4.3q-.2.15-.45.25-.2.1-.5.15-.25.05-.5.05t-.5-.05q-.3-.05-.5-.15-.25-.1-.45-.25t-.4-.3l-.3-.4q-.15-.2-.25-.45-.1-.2-.15-.5-.05-.25-.05-.5t.05-.5q.05-.3.15-.5.1-.25.25-.45t.3-.4l.4-.3q.2-.15.45-.25.2-.1.5-.15.25-.05.5-.05m0 .95q.15 0 .35.05.15 0 .3.05.15.1.3.15.1.1.25.2.1.15.2.25.05.15.15.3l.1.3V20q0 .15-.05.35 0 .15-.05.3-.1.15-.15.3-.1.1-.2.25-.15.1-.25.2-.15.05-.3.15l-.3.1H20q-.15 0-.35-.05-.15 0-.3-.05-.15-.1-.3-.15-.1-.1-.25-.2-.1-.15-.2-.25-.05-.15-.15-.3l-.1-.3V20q0-.15.05-.35 0-.15.05-.3.1-.15.15-.3.1-.1.2-.25.15-.1.25-.2.15-.05.3-.15l.3-.1H20m3.75-9.1h-.15q-.05.05-.1.05t-.1-.05h-.1q-.05-.05-.1-.05t-.05-.05h-.3q-.05-.05-.1-.05-.25.05-.3.1-.05 0-.05.05-.05 0-.05.05-.05.05-.05.1l.05.05v.1q.05.05.05.1l.1.1.1.05q-.05 0-.05.05l-.05.05q-.05.05-.05.1t0 .05q.05.05.05.1t.05.1.1.1.1.1.1.1q.1.05.15.1t.15.1q.05 0 .15.05.05.05.15.05.05.05.15.05.05.05.15.05.05 0 .15.05l.1.1q.05.05.15.05l.1.1q.1.05.15.05.1.05.15.05.1.05.15.05.1.05.2.05.05.05.15.05h.25q.05 0 .1-.05h.1l.05-.05.05-.05v-.05l.05-.05q0-.05-.05-.05h.3q.05 0 .05-.05h.1q0-.05.05-.05l.05-.05V11l.05-.05q0-.05-.05-.1 0-.05-.05-.1 0-.05-.05-.1 0-.05-.05-.1t-.1-.1q-.05 0-.1-.05t-.15-.1l-.1-.1q-.1 0-.15-.05 0-.05-.05-.05V10q-.05 0-.05-.05l-.1-.1-.05-.05 2.2-6 .05.05q.35.15.7.35.3.15.65.35.35.15.65.35t.65.45q.3.2.6.45.3.2.6.45t.55.5l.6.5-.5.45-5.7 5.1q.2.15.35.25l.4.4q.15.2.25.3l5.45-6.2.55.55q.25.3.5.55.2.3.45.6t.45.65q.2.3.45.6.2.35.35.65l.4.7q.15.35.35.7l-5.95 2.2-.05-.05-.1-.1q-.05 0-.05-.05-.05-.05-.1-.05l-.05-.05h-.05l-.05-.05h-.05q-.05-.05-.05-.15l-.1-.1q0-.1-.05-.15t-.1-.1-.1-.1-.1-.1q-.05 0-.1-.05h-.2q-.05 0-.1.05l-.05.05v.05q-.05 0-.05.05t0 .1 0 .1 0 .15-.05 0-.05 0q-.05 0-.1.05l-.05.05v.05q-.05.05-.05.1t0 .1 0 .1 0 .15q0 .05.05.15v.15q.05.1.05.15.05.1.1.15 0 .1.05.15.05.1.1.15t.1.1q.05.1.05.15t.05.15.05.15.05.15.05.15l.1.1q0 .1.05.15.05.1.1.15t.1.1.05.1q.05 0 .1.05.05 0 .05.05.05 0 .1.05h.05q0 .05.05.05t.05 0h.05-.05.1q0-.05.05-.05.05-.05.05-.1v.05q.05.05.1.05 0 .05.05.05.05.05.1.05 0 .05.05.05t.05 0h.15-.05.05q.05 0 .1-.05l.05-.05q0-.05.05-.1v-.35q0-.1-.05-.15 0-.1-.05-.15 0-.1-.05-.15 0-.1-.05-.15v-.05q.05 0 .05-.05t0-.05v-.35l5.6-3q.15.4.35.8.15.4.25.8.15.4.25.8.15.45.25.85t.15.85.15.85q.05.45.05.9.05.45.05.9v.05l-15.4-1.75-.2-.2-1.7-15.4q.45 0 .85.05.45 0 .9.05.4.05.85.15.4.05.8.15.45.1.85.2t.8.25.8.3q.4.1.75.3l-2.9 5.6h-.1q0-.05-.05-.05t-.05 0h-.2m-6.7-.05h-.2q-.05 0-.05.05h-.1q-.05 0-.1.05h-.1q-.05.05-.1.05t-.1.05q-.05 0-.05-.05h-.45l-3-5.6q.4-.15.8-.35.4-.15.8-.25.4-.15.85-.25.4-.15.85-.25.4-.1.85-.15.4-.1.85-.15t.9-.05.9-.05l-1.75 15.4-.2.2-15.4 1.7q0-.45.05-.85 0-.45.05-.9.05-.4.15-.85.05-.4.15-.8.1-.45.2-.85t.25-.8.3-.8q.1-.4.3-.75l5.6 2.9v.1q-.05.05-.05.1t0 .1 0 .1 0 .05v.1l.05.05v.05q-.05.05-.05.15-.05.05-.05.15-.05.05-.05.15v.15q-.05.05-.05.15 0 .05.05.1v.1q0 .05.05.1 0 .05.05.05l.05.05q.05.05.1.05h.05l.05-.05h.05q.05 0 .05-.05h.05l.05-.05.05-.05q.05-.05.05-.1v.05l.05.05q.05 0 .1.05h.15l.05-.05q.05 0 .05-.05h.1q0-.05.05-.05 0-.05.05-.05.05-.05.05-.1l.1-.1q.05-.1.1-.15t.1-.15q0-.05.05-.15.05-.05.05-.15.05-.05.05-.15.05-.05.05-.15 0-.05.05-.15l.1-.1q.05-.05.05-.15l.1-.1q.05-.1.05-.15.05-.1.05-.15.05-.1.05-.15.05-.1.05-.2.05-.05.05-.15v-.35l-.05-.05q0-.05-.05-.1l-.05-.05h-.05l-.05-.05-.05.05v-.25q0-.05-.05-.1V14q0-.05-.05-.1l-.05-.05H11l-.05-.05h-.05l-.05.05q-.05 0-.1.05-.05 0-.1.05-.05 0-.1.05t-.1.1q0 .05-.05.1t-.1.15l-.1.1q0 .1-.05.15-.05 0-.05.05H10q0 .05-.05.05l-.05.05-.1.1-6-2.2q.15-.35.35-.7.15-.35.35-.65l.4-.7.4-.6q.25-.35.45-.65l.5-.6q.25-.3.5-.55l.5-.6 5.55 6.2.05-.05q0-.05.05-.1l.05-.05q0-.05.05-.1l.5-.5q.2-.2.25-.2l-6.2-5.45.55-.55q.3-.25.55-.5.3-.2.6-.45t.65-.45q.3-.2.6-.45.35-.2.65-.35l.7-.4q.35-.15.7-.35l2.2 5.95-.05.05-.1.1q0 .05-.05.05-.05.05-.05.1l-.05.05v.05l-.05.05v.05q-.05.05-.15.05l-.1.1q-.1 0-.15.05t-.1.1-.1.1-.1.1q0 .05-.05.1v.25l.05.05v.05h.1q0 .05.05.05t.1 0 .1 0 .1 0 .05 0v.15l.05.05.05.05h.05l.05.05h.4l.15-.05h.15q.1-.05.15-.05.1-.05.15-.1.1 0 .15-.05.1-.05.15-.1t.1-.1q.1-.05.15-.05t.15-.05.15-.05.15-.05.15-.05l.1-.1q.1 0 .15-.05.1-.05.15-.1t.1-.1.1-.1.1-.1.05-.1.05-.1v-.05q0-.05-.05-.1v-.05q-.05-.05-.1-.05l.1-.1.1-.1q0-.05.05-.1v-.2q0-.05-.05-.1l-.05-.05h-.05q-.05 0-.1-.05h-.15m9.6 7.9v.05q0 .05.05.1 0 .05.05.1v.05q.05.05.05.1t.05.1v.1q.05 0 .05.05t0 .1l.05.05-1.5-.25 1.2-.55m-13.35.1 1.15.5-1.4.2q.2-.5.25-.7m12.15-2.15h.05l.2.2.1.2.15.15.1.2.1.2q.05.05.1.2l.1.2q.05.15.1.25l-1.9.85-1.35-.15 2.25-2.3M14.65 15l2.3 2.3-1.35.2-2.1-.95q.05-.15.15-.25l.1-.2.1-.2q.1-.1.15-.2l.15-.15q.05-.1.15-.15.05-.1.15-.2.05-.1.2-.2m8.8-1.5v.05q.15.05.25.1t.2.1q.1.1.2.15t.2.1l.15.15q.1.05.2.15l.15.15q.1.05.2.2l-2.3 2.3-.2-1.35.95-2.1m-6.8.05.85 1.9-.15 1.35-2.3-2.25.2-.2q.1-.1.2-.15l.15-.15.2-.1.2-.1q.05-.05.2-.1l.2-.1q.15-.05.25-.1m-1.1-1.4h.15q0 .05.05.05v.1q.05 0 .05.05t-.05.1v.1q-.05.1-.05.15-.05.05-.1.15h.1l.05.05.05.05v.2q-.05.05-.05.1-.05.05-.05.15-.05.05-.1.15-.05.05-.1.15-.05.05-.1.15-.1.05-.15.15l-.15.15q-.05.05-.15.1-.05.1-.1.15-.1.05-.15.1-.1.05-.15.1t-.1.15-.1.15l-.15.15q-.05.05-.15.1-.05.1-.15.15l-.15.15q-.05.05-.15.1-.05.05-.15.1-.05 0-.1.05l-.05.05h-.1q0 .05-.05.05t-.05 0h-.25q-.05 0-.05-.05-.05-.05-.05-.1-.05 0-.1.05l-.05.05h-.1l-.05.05h-.2.05-.1q0-.05-.05-.05 0-.05-.05-.05v-.2q0-.05.05-.15 0-.05.05-.1.05-.1.1-.15 0-.05.05-.15l.15-.15q.05-.05.1-.15l.15-.15v-.1q0-.05.05-.1 0-.05.05-.1 0-.1.05-.15t.1-.15l.15-.15q.05-.1.1-.15l.15-.15q.1-.05.15-.15.1-.05.15-.1l.15-.15q.1-.05.15-.1.05 0 .15-.05.05-.05.1-.05.05-.05.15-.05h.1l.15-.15q.05-.05.15-.1.05-.05.15-.1l.1-.1q.1-.05.15-.1.05 0 .15-.05h.1q.05-.05.1-.05m8.85-.05h.2q0 .05.05.05t.1.05.05 0q.05.05.1.05.05.05.1.05l.1.1.05.05q.05.05.1.05.05.05.05.1.05.05.1.05l.1.1h.1q.05 0 .1.05.05 0 .15.05l.1.1q.1 0 .15.05l.15.15q.1.05.15.1l.15.15.15.15q.05.1.15.15.05.1.1.15.05.1.1.15.05.1.05.15.05.1.05.15.05.05.05.1t0 .1l.15.15q.05.05.1.15.05.05.1.15.05.05.1.15l.1.1q0 .1.05.15 0 .05.05.1v.15q0 .05-.05.05v.1h-.1q0 .05-.05.05h-.15q0-.05-.05-.05h-.05l-.05-.05h-.05q0-.05-.05-.05t-.05-.05h-.05v.1l-.05.05q-.05.05-.1.05h-.15l-.05-.05h-.05l-.05-.05h-.1q0-.05-.05-.05t-.1-.05-.15-.1-.15-.1q-.05-.1-.15-.15l-.15-.15q-.05-.05-.1-.15-.1-.05-.15-.1-.05-.1-.1-.15-.05-.1-.1-.15t-.15-.1-.15-.1l-.15-.15q-.05-.05-.1-.15-.1-.05-.15-.15l-.15-.15q-.05-.05-.1-.15-.05-.05-.1-.15t-.1-.15q0-.05-.05-.15v-.3q0-.05.05-.05t.05 0q0-.05.05-.05-.05-.05-.05-.15-.05-.05-.05-.1-.05-.05-.05-.1t0-.1 0-.1l.05-.05.05-.05h.1m-6.75 2.45-.55-1.2q.45-.2.8-.3l-.25 1.5m4.45-1.5.05.05h.1q0 .05.05.05t.1 0q.05.05.1.05l.05.05h.1q.05 0 .1.05t.05 0l-.5 1.15-.2-1.4m5.1-9.3h.05-.1.05"/></g></svg>