<svg xmlns="http://www.w3.org/2000/svg" width="40" height="40"><g fill-rule="evenodd"><path fill="#cd5a5a" d="M20 1.4q1.3 0 2.55.35 1.2.4 2.35 1.1t2.15 1.7q1.05 1 1.9 2.3.85 1.25 1.55 2.75t1.15 3.15q.5 1.7.75 3.5.25 1.85.25 3.75t-.25 3.75q-.25 1.8-.75 3.5-.45 1.65-1.15 3.15t-1.55 2.75q-.85 1.3-1.9 2.3-1 1-2.15 1.7-1.15.75-2.35 1.1-1.25.35-2.55.35t-2.55-.35q-1.2-.4-2.35-1.1t-2.15-1.7q-1.05-1-1.9-2.3-.85-1.25-1.55-2.75t-1.15-3.15q-.5-1.7-.75-3.5-.25-1.85-.25-3.75t.25-3.75q.25-1.8.75-3.5Q8.8 11.1 9.5 9.6t1.55-2.75q.85-1.3 1.9-2.3 1-1 2.15-1.7 1.15-.75 2.35-1.1Q18.7 1.4 20 1.4m-1.65 32.75q.2-.65.35-1.25.2-.65.3-1.25.15-.6.25-1.2.1-.55.15-1.1.1-.55.1-1.05t0-.95q-.05-.45-.15-.9l-.2-.8.85-3.45.8 3.55q-.15.35-.25.75t-.1.85q-.05.45 0 .95 0 .45.05 1l.2 1.1q.1.55.25 1.2.15.55.3 1.2.15.6.35 1.25-.15.05-.25.1t-.25.15q-.1.05-.2.2l-.2.2q-.1.15-.15.3-.1.1-.2.3-.05.15-.15.3-.05.15-.15.35l-.2-.3q-.15-.2-.25-.35t-.2-.25-.2-.25-.2-.25q-.15-.1-.25-.15-.1-.1-.2-.15-.1-.1-.2-.1m-1.55-3.4 1.9-1.25v.55q-.05.3-.05.6l-.1.6q-.05.25-.1.55-.1.3-.15.6l-.2.6-.2.6q-.1.3-.25.6t-.05 0l-.4-.3q-.25-.15-.5-.25-.25-.15-.5-.25t-.55-.15q-.3-.1-.6-.15t-.6-.1q-.35-.05-.7-.05-.35-.05-.7-.05l.5-.2q.25-.15.5-.25.25-.15.5-.25t.45-.25q.25-.15.5-.25.2-.15.45-.3.2-.15.45-.3.2-.15.4-.35m6-.25q.2.2.45.35t.45.35l.5.3q.25.2.5.35.3.15.55.3t.55.3.55.25l.6.3h-1.5q-.35 0-.65.05t-.6.15q-.25.05-.5.15t-.45.2q-.25.15-.4.3t-.3.35q-.05 0-.05-.05-.05 0-.1-.05h-.05l-.2-.6q-.15-.3-.2-.55l-.2-.6q-.1-.3-.15-.55l-.1-.6q-.05-.25-.1-.55t-.05-.55q-.05-.3-.05-.6l1.5 1M16 20.85q-.25-.35-.45-.65l-.3-.7q-.1-.35-.15-.7t-.05-.75q0-.35.05-.75.05-.35.15-.75.05-.4.2-.8.1-.35.3-.8-.1-.45-.1-.8-.05-.4 0-.65 0-.35.1-.6t.25-.45.4-.35.55-.3q.35-.1.8-.2.4-.05.95-.15-.3.1-.5.2-.25.15-.45.3-.25.15-.4.3-.2.2-.35.4-.15.25-.25.5t-.1.55q-.05.35-.05.7.05.4.1.85-.15.35-.25.7t-.15.65q-.05.35 0 .65 0 .3.1.55t.25.5.4.45.6.4q.3.15.75.3v.05l.05.05v.15l.05.05V20l.05.05.05.05.05.05.05.05q.05 0 .05.05h.05l.05.05q.05 0 .05.05.1.05.25.1t.3.05q.15.05.35.05h.35q.2 0 .35-.05.2-.05.35-.1t.3-.15.25-.25v-.15l.05-.05v-.05l.05-.05q.05-.05.05-.1.05 0 .05-.05.05 0 .1-.05.35-.15.65-.3t.5-.35q.25-.2.45-.45.15-.25.25-.55t.15-.6q.05-.35 0-.7-.05-.4-.2-.85t-.35-.95q.1-.35.15-.65t.05-.6q-.05-.25-.15-.45-.05-.25-.2-.45-.15-.15-.3-.35-.2-.15-.4-.25-.25-.15-.5-.25-.2-.15-.5-.25.35.05.6.05.35.05.6.1.3.05.5.15.25.1.45.25.25.15.4.35t.25.45l.1.6q0 .4-.1.8.2.55.35 1.05t.25.95.15.9q.05.4.05.8t-.05.75q0 .35-.1.65-.05.3-.15.6t-.25.55q-.55.25-.95.55-.4.25-.7.55-.25.3-.45.6-.15.3-.2.65-.05.3-.05.65 0 .3.05.65 0 .3.1.7.2.95.1.65.05.25.1.45.05.25.15.5t.25.45q.15.25.35.5t.45.5q.3.25.65.5t.75.55q.45.25 1 .55l.2-.1q.15 0 .2-.1l.2-.1.15-.15q.05-.05.1-.15.05-.05.1-.15t.1-.15l.1-.2q.15.05.25.1t.2.1.2.1l.15.15q.05.1.15.2.05.1.05.2.05.15.05.3t0 .3q-.25-.2-.45-.25-.25-.05-.45.05-.2.05-.35.25t-.2.4q-.1.2-.1.45.05.2.15.35.15.15.35.2.3.05.65-.05-.05.2-.15.4-.1.15-.2.2-.1.1-.25.15-.15 0-.35-.05-.15-.05-.35-.2-.25-.15-.45-.35l-.55-.55q-.3-.3-.6-.75l-1.45-.5q-.2-.1-.35-.2t-.3-.2q-.2-.15-.3-.25-.15-.1-.25-.2-.15-.15-.2-.25-.1-.15-.2-.25-.05-.15-.15-.3-.05-.1-.05-.25v-1.35q0-.6-.05-1.15-.1-.5-.15-1-.1-.45-.2-.85-.15-.4-.25-.75-.15-.3-.3-.65-.15-.25-.3-.55-.15-.25-.35-.55-.25.35-.45.7-.2.4-.35.75l-.3.8q-.15.4-.25.8l-.2.9-.1.9q-.05.5-.05 1 0 .45.05 1-.05.15-.15.25-.05.15-.15.25-.05.15-.15.25t-.15.25l-.2.2-.2.2q-.15.1-.25.2t-.25.15q-.05.05-.9.45-.5.25-.85.45-.35.4-.6.65-.3.3-.55.5t-.45.35q-.2.1-.4.15t-.3 0q-.15-.05-.3-.15-.1-.1-.2-.25t-.15-.4q.45.15.75.1.25-.05.4-.2.1-.15.1-.4t-.1-.5l-.3-.4q-.2-.2-.4-.25-.2-.1-.45 0-.2.15-.4.45 0-.15-.05-.25v-.25q0-.1.05-.2.05-.15.1-.25t.1-.2l.2-.2q.15-.05.3-.15t.35-.15q.1.15.15.25l.2.2.2.2q.1.1.2.15.1.1.2.15t.2.05.2.05q.15 0 .25-.05.4-.15.75-.35t.65-.4q.3-.25.55-.5.25-.2.45-.5.2-.25.35-.55t.25-.6q.15-.3.2-.65.1-.3.15-.65.05-.4.1-.65.05-.35.1-.6v-.6q-.05-.3-.1-.55-.05-.3-.2-.55t-.35-.5q-.2-.2-.55-.45-.3-.2-.75-.4m7.1 1.3q.45-.1.85-.25.4-.2.75-.4.35-.25.6-.55.3-.35.45-.75.2-.45.25-.95.1-.55.05-1.25t-.2-1.5q-.2-.85-.5-1.85v-1.2q-.05-.55-.15-1.1t-.25-1.05-.4-.95-.5-.85q-.3-.45-.7-.8-.35-.35-.8-.7-.45-.3-.95-.6h.65q.35 0 .65.05.35.1.65.2.3.15.6.35.3.25.55.55.3.3.55.75.3.4.5 1 .25.55.5 1.25.2-.3.35-.55.15-.3.2-.55.1-.3.1-.55t-.05-.5q0-.25-.15-.5-.1-.25-.25-.5-.15-.2-.35-.45l-.45-.45q.5 0 .9.05.4.1.7.3.3.15.5.45t.35.65.2.8.05.95q0 .55-.05 1.1-.1.6-.2 1.25l.3-.2.2-.3q.1-.2.15-.4.1-.2.15-.4.05-.25.05-.5.05-.2.05-.5 0-.25.05-.55v-.55q.15.35.25.6.15.35.25.65l.1.6q.05.3.05.6t-.1.6q-.05.3-.2.6-.1.3-.3.55-.2.3-.5.6.1.05.25.1.1.05.2.05.1.05.2 0 .1 0 .2-.05.15 0 .25-.05l.15-.15.2-.2q.1-.15.2-.25.05.3.05.55t-.05.45-.1.4q-.1.2-.2.35t-.2.3q-.1.1-.25.15-.15.1-.3.15t-.3.05q-.1 0-.2.05t-.2.15-.15.25-.05.3 0 .25q0 .15.1.3.05.1.15.2.15.1.3.15.1 0 .2.05h.25q.15.05.3.05t.3 0q.2 0 .35-.05.15 0 .3-.05.2-.05.3-.1l.3-.2q-.05.2-.15.4-.05.15-.2.35-.1.15-.25.3-.15.1-.35.25-.15.1-.35.2t-.4.15-.4.15q-.15.05-.35.05-.15 0-.25.05t-.2.1q-.1.1-.15.2-.05.05-.1.15t-.05.2.05.2q0 .1.1.2.05.15.15.2t.15.15l.2.2q.15.1.25.2t.2.2q.1.15.2.25t.2.2q.05.1.1.15.05.1.05.15-.25-.1-.45-.15-.25-.1-.45-.15t-.4-.1h-.8q-.15.05-.35.1l-.3.2-.25.25-.1.4q0 .15.05.35t.1.35l.2.4q.15.2.35.35.15.2.4.4.2.15.5.35.25.2.6.4h-1l-.5-.1q-.25-.05-.5-.15-.2-.1-.45-.2-.2-.15-.45-.3-.2-.15-.45-.35l-.4-.4q-.1.25-.15.45-.1.25-.15.45v.5q0 .25.05.5 0 .25.1.5t.25.5q.15.3.35.55.2.3.45.55h-.2q-.15 0-.25-.05-.1 0-.2-.05-.15 0-.25-.05-.15-.05-.25-.1t-.25-.1q-.1-.1-.25-.15l-.2-.2q-.25-.35-.45-.7-.25-.35-.4-.7t-.25-.7-.15-.7-.05-.65 0-.6q.05-.3.15-.55t.2-.5h.05m-6.65 4.35-.3.3-.3.2q-.15.15-.3.2l-.3.2-.3.1q-.15.05-.25.1-.15.05-.3.05t-.25 0l.45-.45q.2-.25.35-.5.15-.2.25-.45t.15-.45q.05-.25.1-.45v-.5q-.05-.2-.1-.45-.05-.2-.1-.45-.3.25-.6.45t-.55.35-.55.25q-.25.15-.45.2-.25.1-.5.15-.2.05-.4.05t-.4-.05q-.2 0-.35-.1l.4-.2q.2-.15.4-.25l.3-.3.3-.3q.15-.2.25-.4.1-.15.15-.4.1-.2.15-.45t.05-.5q-.1-.1-.25-.2-.1-.1-.3-.15-.15-.1-.3-.1-.15-.05-.35-.05t-.4 0l-.4.1q-.2 0-.45.05-.2.1-.45.15l.1-.2.1-.2q.1-.05.15-.15.1-.1.15-.2.1-.1.15-.2l.2-.2.15-.15.2-.1q.05-.05.1-.15.1-.05.1-.15.05-.1.05-.2v-.25q0-.1-.05-.2t-.1-.2q-.05-.05-.15-.1-.1-.1-.2-.1-.15 0-.35-.05t-.4-.15q-.25-.05-.45-.15-.25-.1-.45-.2-.25-.15-.4-.25-.2-.15-.35-.35-.1-.15-.2-.35-.05-.2-.05-.4.05.1.15.2.1.05.2.15l.3.1q.1 0 .3.05h.85q.1 0 .2-.05.1 0 .2-.1.1-.05.2-.2.15-.1.2-.25.1-.15.15-.3t0-.3q0-.15-.05-.3t-.2-.25-.4-.15q-.2-.05-.35-.1-.15-.1-.3-.15-.15-.1-.25-.2-.1-.15-.2-.25l-.1-.3q-.05-.2-.05-.35 0-.2.05-.45.05-.2.1-.45.05.15.15.25.1.15.15.25.1.05.2.15l.2.1H11q.1-.05.25-.1t.25-.15q-.25-.25-.4-.5-.2-.25-.35-.5t-.25-.5q-.1-.3-.1-.6-.05-.25-.05-.55 0-.35.05-.65.1-.3.25-.65.1-.35.3-.7.05.4.1.75t.1.65q.05.35.1.6t.1.5q.05.2.15.35.05.15.1.25l.15.15h.2q.05.5-.1-.9-.1-.55-.1-.9-.05-.55-.05-.95 0-.5.1-.9.05-.4.25-.75.15-.35.45-.6.3-.3.75-.45t1.05-.15q-.25.2-.45.45-.25.2-.4.45t-.25.5-.15.5-.05.5q.05.3.1.55.1.3.25.6l.4.6q.15-.55.3-1 .2-.5.4-.9t.45-.75.5-.6q.3-.25.6-.45.35-.2.7-.3t.75-.15q.4 0 .85.05-.5.25-.9.55t-.75.7q-.35.35-.6.8-.3.4-.5.85l-.4 1q-.15.5-.25 1.1-.1.55-.2 1.15-.05.55-.1 1.2-.25.75-.45 1.45-.15.7-.25 1.3-.1.65-.1 1.2t.15 1.05q.1.5.3.85.25.4.6.75.4.3.9.5t1.2.3q.1.2.2.45l.1.5q.05.25.05.5-.05.25-.05.55-.05.25-.1.55-.1.25-.2.55-.1.25-.2.55l-.3.6m6.65 0 .15.15.2.2-.35-.35m-4.55-10.95q-.35-.05-1.2.05l.3-.2q.15-.1.35-.2.15-.05.35-.15.25-.05.45-.05.25-.05.5-.05t.55 0 .65.05.7.15q.1.05.25.05h.2q.1.05.2 0h.2q.05 0 .15-.05t.2-.05q.05-.05.15-.1.05-.1.15-.15v.3q-.05.15-.05.3-.05.15-.1.25-.05.15-.1.25-.1.1-.15.2-.1.1-.2.15-.1.1-.25.15t-.3.1l1.45.95q-.05.1-.15.2t-.15.15l-.2.1q-.1.05-.15.1h-.2q-.1.05-.2.05t-.2-.05h-.2q0 .05-.05.1v.1q-.05.1-.05.15t0 .1-.05.1v.3l-.5.1q-.2 0-.4.05t-.35.1q-.2.05-.3.1-.15.1-.3.15l-.2.1q-.1.1-.2.15t-.2.15h-.25q-.05 0 0-.05t0-.05q.05-.05.15-.1.05-.05.1-.15l.1-.1q.05-.1.1-.15.05-.1.05-.15l.1-.2v-.15q.05-.1.05-.2v-.4q0-.05-.05-.1 0-.1-.05-.15 0-.1-.05-.15-.05-.1-.1-.15-.05-.1-.1-.15h-.1q.05-.05.05-.1.05-.1.1-.15t.1-.1.1-.1.1-.15q0-.05.1-.1 0-.05.1-.1l.1-.1.05.05q.05.05.1.05l.05.05h.3q.05 0 .1-.05.05 0 .1-.05.05 0 .1-.05t.05-.1q.05 0 .05-.05.05-.05.05-.15V16q0-.05-.05-.1 0-.05-.05-.1 0-.05-.05-.1t-.1-.05-.1-.05-.1-.05-.1 0-.15 0q-.05.05-.15.05l-.1.1-.1.1q-.1-.05-.15-.1-.1-.05-.15-.1-.05 0-.15-.05-.05 0-.1-.05h-.35q-.05 0-.1.05m.1.55q.05 0 .1-.05h.4l.05.05q.05.05.1.05 0 .05.05.05l-.25.25q-.15.1-.25.2-.15.1-.25.15-.1.1-.2.15-.15.05-.25.05-.1.05-.2.05-.1.05-.15.05-.1 0-.2-.05h-.05q-.05-.05-.1-.05l-.05-.05h-.05q-.05 0-.1-.05l-.05-.05h-.05q-.05-.05-.1-.05h.25q.1-.05.25-.05.1-.05.2-.05l.2-.1q.15-.05.25-.1.05-.05.15-.1.1-.1.2-.15.05-.1.1-.15"/><path fill="#5a3c3c" d="M20 0q1.45 0 2.85.4 1.35.4 2.65 1.15 1.25.8 2.35 1.85 1.15 1.1 2.1 2.45t1.7 2.95q.8 1.65 1.3 3.4.55 1.85.85 3.75.25 2 .25 4.05t-.3 4.05q-.25 1.9-.8 3.75-.5 1.75-1.3 3.4-.75 1.55-1.7 2.95-.95 1.35-2.1 2.45-1.1 1.05-2.35 1.85-1.3.75-2.65 1.15-1.4.4-2.85.4t-2.85-.4q-1.35-.4-2.65-1.15-1.25-.8-2.35-1.85-1.15-1.1-2.1-2.45t-1.7-2.95q-.8-1.65-1.3-3.4-.55-1.85-.85-3.75-.25-2-.25-4.05t.3-4.05q.25-1.9.8-3.75.5-1.75 1.3-3.4.75-1.55 1.7-2.95.95-1.35 2.1-2.45 1.1-1.05 2.35-1.85Q15.8.8 17.15.4 18.55 0 20 0m0 1.4q1.3 0 2.55.35 1.2.4 2.35 1.1t2.15 1.7q1.05 1 1.9 2.3.85 1.25 1.55 2.75t1.15 3.15q.5 1.7.75 3.5.25 1.85.25 3.75t-.25 3.75q-.25 1.8-.75 3.5-.45 1.65-1.15 3.15t-1.55 2.75q-.85 1.3-1.9 2.3-1 1-2.15 1.7-1.15.75-2.35 1.1-1.25.35-2.55.35t-2.55-.35q-1.2-.4-2.35-1.1t-2.15-1.7q-1.05-1-1.9-2.3-.85-1.25-1.55-2.75t-1.15-3.15q-.5-1.7-.75-3.5-.25-1.85-.25-3.75t.25-3.75q.25-1.8.75-3.5Q8.8 11.1 9.5 9.6t1.55-2.75q.85-1.3 1.9-2.3 1-1 2.15-1.7 1.15-.75 2.35-1.1Q18.7 1.4 20 1.4m-1.65 32.75q.2-.65.35-1.25.2-.65.3-1.25.15-.6.25-1.2.1-.55.15-1.1.1-.55.1-1.05t0-.95q-.05-.45-.15-.9l-.2-.8.85-3.45.8 3.55q-.15.35-.25.75t-.1.85q-.05.45 0 .95 0 .45.05 1l.2 1.1q.1.55.25 1.2.15.55.3 1.2.15.6.35 1.25-.15.05-.25.1t-.25.15q-.1.05-.2.2l-.2.2q-.1.15-.15.3-.1.1-.2.3-.05.15-.15.3-.05.15-.15.35l-.2-.3q-.15-.2-.25-.35t-.2-.25-.2-.25-.2-.25q-.15-.1-.25-.15-.1-.1-.2-.15-.1-.1-.2-.1m-1.55-3.4 1.9-1.25v.55q-.05.3-.05.6l-.1.6q-.05.25-.1.55-.1.3-.15.6l-.2.6-.2.6q-.1.3-.25.6t-.05 0l-.4-.3q-.25-.15-.5-.25-.25-.15-.5-.25t-.55-.15q-.3-.1-.6-.15t-.6-.1q-.35-.05-.7-.05-.35-.05-.7-.05l.5-.2q.25-.15.5-.25.25-.15.5-.25t.45-.25q.25-.15.5-.25.2-.15.45-.3.2-.15.45-.3.2-.15.4-.35m6-.25q.2.2.45.35t.45.35l.5.3q.25.2.5.35.3.15.55.3t.55.3.55.25l.6.3h-1.5q-.35 0-.65.05t-.6.15q-.25.05-.5.15t-.45.2q-.25.15-.4.3t-.3.35q-.05 0-.05-.05-.05 0-.1-.05h-.05l-.2-.6q-.15-.3-.2-.55l-.2-.6q-.1-.3-.15-.55l-.1-.6q-.05-.25-.1-.55t-.05-.55q-.05-.3-.05-.6l1.5 1M16 20.85q-.25-.35-.45-.65l-.3-.7q-.1-.35-.15-.7t-.05-.75q0-.35.05-.75.05-.35.15-.75.05-.4.2-.8.1-.35.3-.8-.1-.45-.1-.8-.05-.4 0-.65 0-.35.1-.6t.25-.45.4-.35.55-.3q.35-.1.8-.2.4-.05.95-.15-.3.1-.5.2-.25.15-.45.3-.25.15-.4.3-.2.2-.35.4-.15.25-.25.5t-.1.55q-.05.35-.05.7.05.4.1.85-.15.35-.25.7t-.15.65q-.05.35 0 .65 0 .3.1.55t.25.5.4.45.6.4q.3.15.75.3v.05l.05.05v.15l.05.05V20l.05.05.05.05.05.05.05.05q.05 0 .05.05h.05l.05.05q.05 0 .05.05.1.05.25.1t.3.05q.15.05.35.05h.35q.2 0 .35-.05.2-.05.35-.1t.3-.15.25-.25v-.15l.05-.05v-.05l.05-.05q.05-.05.05-.1.05 0 .05-.05.05 0 .1-.05.35-.15.65-.3t.5-.35q.25-.2.45-.45.15-.25.25-.55t.15-.6q.05-.35 0-.7-.05-.4-.2-.85t-.35-.95q.1-.35.15-.65t.05-.6q-.05-.25-.15-.45-.05-.25-.2-.45-.15-.15-.3-.35-.2-.15-.4-.25-.25-.15-.5-.25-.2-.15-.5-.25.35.05.6.05.35.05.6.1.3.05.5.15.25.1.45.25.25.15.4.35t.25.45l.1.6q0 .4-.1.8.2.55.35 1.05t.25.95.15.9q.05.4.05.8t-.05.75q0 .35-.1.65-.05.3-.15.6t-.25.55q-.55.25-.95.55-.4.25-.7.55-.25.3-.45.6-.15.3-.2.65-.05.3-.05.65 0 .3.05.65 0 .3.1.7.2.95.1.65.05.25.1.45.05.25.15.5t.25.45q.15.25.35.5t.45.5q.3.25.65.5t.75.55q.45.25 1 .55l.2-.1q.15 0 .2-.1l.2-.1.15-.15q.05-.05.1-.15.05-.05.1-.15t.1-.15l.1-.2q.15.05.25.1t.2.1.2.1l.15.15q.05.1.15.2.05.1.05.2.05.15.05.3t0 .3q-.25-.2-.45-.25-.25-.05-.45.05-.2.05-.35.25t-.2.4q-.1.2-.1.45.05.2.15.35.15.15.35.2.3.05.65-.05-.05.2-.15.4-.1.15-.2.2-.1.1-.25.15-.15 0-.35-.05-.15-.05-.35-.2-.25-.15-.45-.35l-.55-.55q-.3-.3-.6-.75l-1.45-.5q-.2-.1-.35-.2t-.3-.2q-.2-.15-.3-.25-.15-.1-.25-.2-.15-.15-.2-.25-.1-.15-.2-.25-.05-.15-.15-.3-.05-.1-.05-.25v-1.35q0-.6-.05-1.15-.1-.5-.15-1-.1-.45-.2-.85-.15-.4-.25-.75-.15-.3-.3-.65-.15-.25-.3-.55-.15-.25-.35-.55-.25.35-.45.7-.2.4-.35.75l-.3.8q-.15.4-.25.8l-.2.9-.1.9q-.05.5-.05 1 0 .45.05 1-.05.15-.15.25-.05.15-.15.25-.05.15-.15.25t-.15.25l-.2.2-.2.2q-.15.1-.25.2t-.25.15q-.05.05-.9.45-.5.25-.85.45-.35.4-.6.65-.3.3-.55.5t-.45.35q-.2.1-.4.15t-.3 0q-.15-.05-.3-.15-.1-.1-.2-.25t-.15-.4q.45.15.75.1.25-.05.4-.2.1-.15.1-.4t-.1-.5l-.3-.4q-.2-.2-.4-.25-.2-.1-.45 0-.2.15-.4.45 0-.15-.05-.25v-.25q0-.1.05-.2.05-.15.1-.25t.1-.2l.2-.2q.15-.05.3-.15t.35-.15q.1.15.15.25l.2.2.2.2q.1.1.2.15.1.1.2.15t.2.05.2.05q.15 0 .25-.05.4-.15.75-.35t.65-.4q.3-.25.55-.5.25-.2.45-.5.2-.25.35-.55t.25-.6q.15-.3.2-.65.1-.3.15-.65.05-.4.1-.65.05-.35.1-.6v-.6q-.05-.3-.1-.55-.05-.3-.2-.55t-.35-.5q-.2-.2-.55-.45-.3-.2-.75-.4m7.1 1.3q.45-.1.85-.25.4-.2.75-.4.35-.25.6-.55.3-.35.45-.75.2-.45.25-.95.1-.55.05-1.25t-.2-1.5q-.2-.85-.5-1.85v-1.2q-.05-.55-.15-1.1t-.25-1.05-.4-.95-.5-.85q-.3-.45-.7-.8-.35-.35-.8-.7-.45-.3-.95-.6h.65q.35 0 .65.05.35.1.65.2.3.15.6.35.3.25.55.55.3.3.55.75.3.4.5 1 .25.55.5 1.25.2-.3.35-.55.15-.3.2-.55.1-.3.1-.55t-.05-.5q0-.25-.15-.5-.1-.25-.25-.5-.15-.2-.35-.45l-.45-.45q.5 0 .9.05.4.1.7.3.3.15.5.45t.35.65.2.8.05.95q0 .55-.05 1.1-.1.6-.2 1.25l.3-.2.2-.3q.1-.2.15-.4.1-.2.15-.4.05-.25.05-.5.05-.2.05-.5 0-.25.05-.55v-.55q.15.35.25.6.15.35.25.65l.1.6q.05.3.05.6t-.1.6q-.05.3-.2.6-.1.3-.3.55-.2.3-.5.6.1.05.25.1.1.05.2.05.1.05.2 0 .1 0 .2-.05.15 0 .25-.05l.15-.15.2-.2q.1-.15.2-.25.05.3.05.55t-.05.45-.1.4q-.1.2-.2.35t-.2.3q-.1.1-.25.15-.15.1-.3.15t-.3.05q-.1 0-.2.05t-.2.15-.15.25-.05.3 0 .25q0 .15.1.3.05.1.15.2.15.1.3.15.1 0 .2.05h.25q.15.05.3.05t.3 0q.2 0 .35-.05.15 0 .3-.05.2-.05.3-.1l.3-.2q-.05.2-.15.4-.05.15-.2.35-.1.15-.25.3-.15.1-.35.25-.15.1-.35.2t-.4.15-.4.15q-.15.05-.35.05-.15 0-.25.05t-.2.1q-.1.1-.15.2-.05.05-.1.15t-.05.2.05.2q0 .1.1.2.05.15.15.2t.15.15l.2.2q.15.1.25.2t.2.2q.1.15.2.25t.2.2q.05.1.1.15.05.1.05.15-.25-.1-.45-.15-.25-.1-.45-.15t-.4-.1h-.8q-.15.05-.35.1l-.3.2-.25.25-.1.4q0 .15.05.35t.1.35l.2.4q.15.2.35.35.15.2.4.4.2.15.5.35.25.2.6.4h-1l-.5-.1q-.25-.05-.5-.15-.2-.1-.45-.2-.2-.15-.45-.3-.2-.15-.45-.35l-.4-.4q-.1.25-.15.45-.1.25-.15.45v.5q0 .25.05.5 0 .25.1.5t.25.5q.15.3.35.55.2.3.45.55h-.2q-.15 0-.25-.05-.1 0-.2-.05-.15 0-.25-.05-.15-.05-.25-.1t-.25-.1q-.1-.1-.25-.15l-.2-.2q-.25-.35-.45-.7-.25-.35-.4-.7t-.25-.7-.15-.7-.05-.65 0-.6q.05-.3.15-.55t.2-.5h.05m-6.65 4.35-.3.3-.3.2q-.15.15-.3.2l-.3.2-.3.1q-.15.05-.25.1-.15.05-.3.05t-.25 0l.45-.45q.2-.25.35-.5.15-.2.25-.45t.15-.45q.05-.25.1-.45v-.5q-.05-.2-.1-.45-.05-.2-.1-.45-.3.25-.6.45t-.55.35-.55.25q-.25.15-.45.2-.25.1-.5.15-.2.05-.4.05t-.4-.05q-.2 0-.35-.1l.4-.2q.2-.15.4-.25l.3-.3.3-.3q.15-.2.25-.4.1-.15.15-.4.1-.2.15-.45t.05-.5q-.1-.1-.25-.2-.1-.1-.3-.15-.15-.1-.3-.1-.15-.05-.35-.05t-.4 0l-.4.1q-.2 0-.45.05-.2.1-.45.15l.1-.2.1-.2q.1-.05.15-.15.1-.1.15-.2.1-.1.15-.2l.2-.2.15-.15.2-.1q.05-.05.1-.15.1-.05.1-.15.05-.1.05-.2v-.25q0-.1-.05-.2t-.1-.2q-.05-.05-.15-.1-.1-.1-.2-.1-.15 0-.35-.05t-.4-.15q-.25-.05-.45-.15-.25-.1-.45-.2-.25-.15-.4-.25-.2-.15-.35-.35-.1-.15-.2-.35-.05-.2-.05-.4.05.1.15.2.1.05.2.15l.3.1q.1 0 .3.05h.85q.1 0 .2-.05.1 0 .2-.1.1-.05.2-.2.15-.1.2-.25.1-.15.15-.3t0-.3q0-.15-.05-.3t-.2-.25-.4-.15q-.2-.05-.35-.1-.15-.1-.3-.15-.15-.1-.25-.2-.1-.15-.2-.25l-.1-.3q-.05-.2-.05-.35 0-.2.05-.45.05-.2.1-.45.05.15.15.25.1.15.15.25.1.05.2.15l.2.1H11q.1-.05.25-.1t.25-.15q-.25-.25-.4-.5-.2-.25-.35-.5t-.25-.5q-.1-.3-.1-.6-.05-.25-.05-.55 0-.35.05-.65.1-.3.25-.65.1-.35.3-.7.05.4.1.75t.1.65q.05.35.1.6t.1.5q.05.2.15.35.05.15.1.25l.15.15h.2q.05.5-.1-.9-.1-.55-.1-.9-.05-.55-.05-.95 0-.5.1-.9.05-.4.25-.75.15-.35.45-.6.3-.3.75-.45t1.05-.15q-.25.2-.45.45-.25.2-.4.45t-.25.5-.15.5-.05.5q.05.3.1.55.1.3.25.6l.4.6q.15-.55.3-1 .2-.5.4-.9t.45-.75.5-.6q.3-.25.6-.45.35-.2.7-.3t.75-.15q.4 0 .85.05-.5.25-.9.55t-.75.7q-.35.35-.6.8-.3.4-.5.85l-.4 1q-.15.5-.25 1.1-.1.55-.2 1.15-.05.55-.1 1.2-.25.75-.45 1.45-.15.7-.25 1.3-.1.65-.1 1.2t.15 1.05q.1.5.3.85.25.4.6.75.4.3.9.5t1.2.3q.1.2.2.45l.1.5q.05.25.05.5-.05.25-.05.55-.05.25-.1.55-.1.25-.2.55-.1.25-.2.55l-.3.6m6.65 0 .15.15.2.2-.35-.35m-4.55-10.95q-.35-.05-1.2.05l.3-.2q.15-.1.35-.2.15-.05.35-.15.25-.05.45-.05.25-.05.5-.05t.55 0 .65.05.7.15q.1.05.25.05h.2q.1.05.2 0h.2q.05 0 .15-.05t.2-.05q.05-.05.15-.1.05-.1.15-.15v.3q-.05.15-.05.3-.05.15-.1.25-.05.15-.1.25-.1.1-.15.2-.1.1-.2.15-.1.1-.25.15t-.3.1l1.45.95q-.05.1-.15.2t-.15.15l-.2.1q-.1.05-.15.1h-.2q-.1.05-.2.05t-.2-.05h-.2q0 .05-.05.1v.1q-.05.1-.05.15t0 .1-.05.1v.3l-.5.1q-.2 0-.4.05t-.35.1q-.2.05-.3.1-.15.1-.3.15l-.2.1q-.1.1-.2.15t-.2.15h-.25q-.05 0 0-.05t0-.05q.05-.05.15-.1.05-.05.1-.15l.1-.1q.05-.1.1-.15.05-.1.05-.15l.1-.2v-.15q.05-.1.05-.2v-.4q0-.05-.05-.1 0-.1-.05-.15 0-.1-.05-.15-.05-.1-.1-.15-.05-.1-.1-.15h-.1q.05-.05.05-.1.05-.1.1-.15t.1-.1.1-.1.1-.15q0-.05.1-.1 0-.05.1-.1l.1-.1.05.05q.05.05.1.05l.05.05h.3q.05 0 .1-.05.05 0 .1-.05.05 0 .1-.05t.05-.1q.05 0 .05-.05.05-.05.05-.15V16q0-.05-.05-.1 0-.05-.05-.1 0-.05-.05-.1t-.1-.05-.1-.05-.1-.05-.1 0-.15 0q-.05.05-.15.05l-.1.1-.1.1q-.1-.05-.15-.1-.1-.05-.15-.1-.05 0-.15-.05-.05 0-.1-.05h-.35q-.05 0-.1.05m.1.55q.05 0 .1-.05h.4l.05.05q.05.05.1.05 0 .05.05.05l-.25.25q-.15.1-.25.2-.15.1-.25.15-.1.1-.2.15-.15.05-.25.05-.1.05-.2.05-.1.05-.15.05-.1 0-.2-.05h-.05q-.05-.05-.1-.05l-.05-.05h-.05q-.05 0-.1-.05l-.05-.05h-.05q-.05-.05-.1-.05h.25q.1-.05.25-.05.1-.05.2-.05l.2-.1q.15-.05.25-.1.05-.05.15-.1.1-.1.2-.15.05-.1.1-.15"/></g></svg>