<svg xmlns="http://www.w3.org/2000/svg" width="40" height="40"><path fill="#CD5A5A" d="M35.9 27.6v2.7l-7.35 3.95V27.6zm-7.35-6.85h7.35v6.05h-7.35zm0-6.35h7.35v5.55h-7.35zm6.35-2.7 1-.8v2.7h-7.35v-2.8l1.2.9H31l1.25-1.35 1.35 1.35zm-18.55 6.4v-1.95h1.9v-2.1h3.5v2.1h1.9v1.95h1.9V20h1.95v14.85L20 38.7l-7.5-3.95V20h1.95v-1.9h1.9zm6.05 14.95v-3.5c0-.1-.02-.22-.05-.35-.03-.1-.08-.22-.15-.35-.07-.1-.13-.22-.2-.35-.1-.1-.2-.22-.3-.35-.1-.1-.22-.2-.35-.3-.13-.13-.27-.25-.4-.35s-.28-.22-.45-.35c-.17-.1-.33-.22-.5-.35-.17.13-.33.25-.5.35s-.32.22-.45.35c-.13.1-.27.22-.4.35-.13.1-.25.2-.35.3-.1.13-.2.25-.3.35-.1.13-.18.25-.25.35s-.12.22-.15.35c-.03.1-.05.22-.05.35v3.5h4.85z"/><path fill="#E6E1A0" d="M22.4 29.55v3.5h-4.85v-3.5c0-.13.02-.25.05-.35.03-.13.08-.25.15-.35s.15-.22.25-.35c.1-.1.2-.22.3-.35.1-.1.22-.2.35-.3.13-.13.27-.25.4-.35.13-.13.28-.25.45-.35s.33-.22.5-.35c.17.13.33.25.5.35.17.13.32.25.45.35s.27.22.4.35c.13.1.25.2.35.3.1.13.2.25.3.35.07.13.13.25.2.35.07.13.12.25.15.35.03.13.05.25.05.35z"/><path fill="#CD5A5A" d="m15.3 15.15.05 1.9h-1.2l-.05-5.75-1.6-2.15V4.9L20 1.3l7.55 3.6v4l-1.65 2.15-.05 6.15H24.6v-2h-1.8v-2.3h-5.5v2.3zM11.45 27.6V34L4.1 30.3v-2.7zM4.1 20.75h7.35v6.05H4.1zm0-6.35h7.35v5.55H4.1zm6.35-2.7 1-.8v2.7H4.1v-2.8l1.15.9H6.5l1.25-1.35L9.1 11.7z"/><path fill="#5A3C3C" d="M11.45 13.6v-2.7l-1 .8H9.1l-1.35-1.35L6.5 11.7H5.25l-1.15-.9v2.8h7.35zm0 6.35V14.4H4.1v5.55h7.35zm0 14.05v-6.4H4.1v2.7l7.35 3.7zm0-7.2v-6.05H4.1v6.05h7.35zm6.8-10.65h-1.9v1.95h-1.9V20H12.5v14.75L20 38.7l7.5-3.85V20h-1.95v-1.9h-1.9v-1.95h-1.9v-2.1h-3.5v2.1zm-.95-.95v-2.3h5.5v2.3h1.8v2h1.25l.05-6.15 1.65-2.15v-4L20 1.3l-7.5 3.6v4.25l1.6 2.15.05 5.75h1.2l-.05-1.9 2 .05zm18.6 11.6v-6.05h-7.35v6.05h7.35zm0-13.2v-2.7l-1 .8h-1.3l-1.35-1.35L31 11.7h-1.25l-1.2-.9v2.8h7.35zm0 6.35V14.4h-7.35v5.55h7.35zm0 10.35v-2.7h-7.35v6.65l7.35-3.95zM37 8.4V31l-17 9-17-9V8.25l2.45 1.85h.75l1.55-1.8 1.7 1.8h.8l1.15-.9V3.9L20 0l8.55 4v5.05l1.4 1.05h.7l1.6-1.8 1.7 1.8h.8L37 8.4z"/></svg>