<svg xmlns="http://www.w3.org/2000/svg" width="40" height="40"><path fill="#461A1A" d="M20.75 13.95c.1-.07.2-.15.3-.25.13-.07.25-.12.35-.15.13-.07.27-.12.4-.15h.4c.13 0 .27.02.4.05.13 0 .25.03.35.1.13.03.25.1.35.2.1.07.2.13.3.2.07.1.15.2.25.3.07.1.12.22.15.35.07.13.12.25.15.35v.4s-.02.27-.05.4c0 .13-.03.27-.1.4-.03.1-.1.22-.2.35-.07.1-.13.2-.2.3-.1.07-.2.13-.3.2-.1.1-.22.17-.35.2-.13.07-.25.1-.35.1-.13.03-.27.05-.4.05s-.27-.02-.4-.05c-.13 0-.27-.03-.4-.1-.1-.03-.22-.1-.35-.2-.1-.07-.2-.13-.3-.2-.07-.1-.13-.2-.2-.3a.73.73 0 0 1-.2-.35.846.846 0 0 1-.1-.4c-.03-.1-.05-.23-.05-.4 0-.13.02-.27.05-.4 0-.13.03-.25.1-.35.03-.13.1-.25.2-.35.07-.1.13-.2.2-.3zm-.7 2.6.15.15c.03.03.07.08.1.15.03.03.07.08.1.15s.05.12.05.15v.4c-.03.07-.05.13-.05.2-.03.03-.07.08-.1.15-.03.03-.07.08-.1.15-.07.03-.12.07-.15.1-.07.03-.12.07-.15.1-.07.03-.13.05-.2.05h-.4a.504.504 0 0 0-.15-.05c-.07-.03-.13-.07-.2-.1l-.1-.1c-.07-.03-.12-.08-.15-.15s-.05-.12-.05-.15c-.03-.07-.07-.13-.1-.2v-.4c.03-.07.07-.12.1-.15 0-.07.02-.13.05-.2.03-.03.08-.07.15-.1.03-.07.07-.12.1-.15.07-.03.13-.05.2-.05.03-.03.08-.07.15-.1h.4c.07.03.13.07.2.1.03 0 .08.02.15.05z"/><path fill="#C85555" d="M21.05 13.7c-.1.1-.2.18-.3.25-.07.1-.13.2-.2.3-.1.1-.17.22-.2.35-.07.1-.1.22-.1.35-.03.13-.05.27-.05.4 0 .17.02.3.05.4 0 .13.03.27.1.4.03.13.1.25.2.35.07.1.13.2.2.3.1.07.2.13.3.2.13.1.25.17.35.2.13.07.27.1.4.1.13.03.27.05.4.05s.27-.02.4-.05c.1 0 .22-.03.35-.1.13-.03.25-.1.35-.2.1-.07.2-.13.3-.2.07-.1.13-.2.2-.3.1-.13.17-.25.2-.35.07-.13.1-.27.1-.4.03-.13.05-.27.05-.4v-.4c-.03-.1-.08-.22-.15-.35-.03-.13-.08-.25-.15-.35-.1-.1-.18-.2-.25-.3-.1-.07-.2-.13-.3-.2a.73.73 0 0 0-.35-.2c-.1-.07-.22-.1-.35-.1-.13-.03-.27-.05-.4-.05h-.4c-.13.03-.27.08-.4.15-.1.03-.22.08-.35.15zm-1 2.85a.504.504 0 0 0-.15-.05c-.07-.03-.13-.07-.2-.1h-.4c-.07.03-.12.07-.15.1-.07 0-.13.02-.2.05-.03.03-.07.08-.1.15-.07.03-.12.07-.15.1-.03.07-.05.13-.05.2-.03.03-.07.08-.1.15v.4c.03.07.07.13.1.2 0 .03.02.08.05.15s.08.12.15.15l.1.1c.07.03.13.07.2.1.03 0 .08.02.15.05h.4c.07 0 .13-.02.2-.05.03-.03.08-.07.15-.1.03-.03.08-.07.15-.1.03-.07.07-.12.1-.15.03-.07.07-.12.1-.15 0-.07.02-.13.05-.2v-.4c0-.03-.02-.08-.05-.15s-.07-.12-.1-.15a.483.483 0 0 0-.1-.15l-.15-.15zm-.35-4.35c.27-.1.53-.17.8-.2.27-.07.53-.1.8-.1s.53.03.8.1c.27.03.53.1.8.2.23.1.45.23.65.4.23.13.43.3.6.5.2.17.37.37.5.6.17.2.3.42.4.65.1.27.17.53.2.8.07.27.1.53.1.8s-.03.53-.1.8c-.03.27-.1.53-.2.8-.1.23-.23.45-.4.65-.13.23-.3.43-.5.6-.17.2-.37.37-.6.5-.2.17-.43.3-.7.4-.23.1-.48.17-.75.2-.27.07-.53.1-.8.1s-.53-.03-.8-.1c-.27-.03-.53-.1-.8-.2-.23-.1-.45-.23-.65-.4-.23-.13-.43-.3-.6-.5-.2-.17-.37-.37-.5-.6-.17-.2-.3-.43-.4-.7-.1-.23-.17-.48-.2-.75-.07-.27-.1-.53-.1-.8s.03-.53.1-.8c.03-.27.1-.53.2-.8.1-.23.23-.45.4-.65.13-.23.3-.43.5-.6.17-.2.37-.37.6-.5.2-.17.42-.3.65-.4z"/><path fill="#F0DDDD" d="M20.5 12c-.27.03-.53.1-.8.2-.23.1-.45.23-.65.4-.23.13-.43.3-.6.5-.2.17-.37.37-.5.6-.17.2-.3.42-.4.65-.1.27-.17.53-.2.8-.07.27-.1.53-.1.8s.03.53.1.8c.03.27.1.52.2.75.1.27.23.5.4.7.13.23.3.43.5.6.17.2.37.37.6.5.2.17.42.3.65.4.27.1.53.17.8.2.27.07.53.1.8.1s.53-.03.8-.1c.27-.03.52-.1.75-.2.27-.1.5-.23.7-.4.23-.13.43-.3.6-.5.2-.17.37-.37.5-.6.17-.2.3-.42.4-.65.1-.27.17-.53.2-.8.07-.27.1-.53.1-.8s-.03-.53-.1-.8c-.03-.27-.1-.53-.2-.8-.1-.23-.23-.45-.4-.65-.13-.23-.3-.43-.5-.6-.17-.2-.37-.37-.6-.5-.2-.17-.42-.3-.65-.4-.27-.1-.53-.17-.8-.2-.27-.07-.53-.1-.8-.1s-.53.03-.8.1zm3.05-3.25c-1.2.33-2.4.73-3.6 1.2-1.33.5-2.63 1.1-3.9 1.8-1.2.67-2.37 1.23-3.5 1.7-1.03.5-2.03.9-3 1.2-.9.3-1.75.53-2.55.7-.77.17-1.47.27-2.1.3-.63 0-1.18-.05-1.65-.15s-.87-.25-1.2-.45-.6-.47-.8-.8c-.17-.3-.27-.63-.3-1 .3.43.65.78 1.05 1.05.37.23.82.42 1.35.55.47.1 1 .13 1.6.1.57-.03 1.18-.13 1.85-.3.63-.17 1.32-.38 2.05-.65.7-.23 1.45-.53 2.25-.9.73-.33 1.53-.72 2.4-1.15.77-.37 1.6-.8 2.5-1.3 1.37-.73 2.77-1.37 4.2-1.9 1.33-.5 2.68-.9 4.05-1.2 1.27-.27 2.53-.45 3.8-.55 1.17-.1 2.3-.12 3.4-.05 1.03.03 2 .13 2.9.3.87.13 1.63.32 2.3.55.63.23 1.15.47 1.55.7.37.27.58.52.65.75-.27-.13-.55-.25-.85-.35-.27-.07-.57-.1-.9-.1-.3 0-.62.02-.95.05-.3.07-.63.17-1 .3-.33.13-.68.28-1.05.45-.37.2-.75.43-1.15.7-.37.27-.75.57-1.15.9-.43.33-.85.7-1.25 1.1.27.1.52.2.75.3.27.13.52.25.75.35.23.13.45.27.65.4.23.13.45.27.65.4s.4.27.6.4c.2.17.38.32.55.45.2.17.38.33.55.5l.5.5c-.13-.07-.27-.15-.4-.25-.17-.07-.32-.13-.45-.2s-.27-.13-.4-.2-.27-.13-.4-.2a1.63 1.63 0 0 1-.4-.15 1.63 1.63 0 0 1-.4-.15c-.13-.03-.27-.07-.4-.1s-.25-.07-.35-.1c-.17.33-.33.65-.5.95-.13.33-.3.65-.5.95-.17.3-.35.58-.55.85s-.4.53-.6.8-.42.52-.65.75c-.2.27-.42.52-.65.75-.23.2-.47.42-.7.65-.23.2-.48.4-.75.6-.1.2-.2.42-.3.65-.1.2-.18.42-.25.65-.07.2-.12.42-.15.65-.03.2-.07.42-.1.65-.03.2-.05.42-.05.65v.65c0 .23.02.47.05.7.07.2.12.42.15.65-.13-.1-.25-.22-.35-.35-.13-.13-.23-.28-.3-.45-.1-.13-.18-.28-.25-.45s-.12-.35-.15-.55c-.03-.17-.05-.35-.05-.55v-.65c.03-.23.07-.47.1-.7.07-.23.13-.48.2-.75-.17.1-.35.18-.55.25-.17.07-.35.13-.55.2-.17.07-.33.13-.5.2-.2.07-.38.13-.55.2-.2.07-.38.12-.55.15-.17.07-.35.12-.55.15-.17.03-.35.07-.55.1-.17.07-.33.1-.5.1-.7.2-1.37.42-2 .65-.67.23-1.28.48-1.85.75-.6.3-1.15.62-1.65.95-.53.37-1.03.75-1.5 1.15-.5.4-.95.82-1.35 1.25-.4.47-.78.97-1.15 1.5-.33.5-.65 1.03-.95 1.6-.27.57-.52 1.17-.75 1.8v-.55c.03-.2.07-.42.1-.65s.1-.47.2-.7c.07-.27.15-.53.25-.8.13-.3.28-.58.45-.85.17-.3.35-.6.55-.9.2-.33.43-.65.7-.95.27-.33.55-.67.85-1-.33-.1-.65-.25-.95-.45-.23-.17-.45-.37-.65-.6-.17-.23-.28-.48-.35-.75-.1-.23-.15-.48-.15-.75s.03-.52.1-.75c.1-.23.22-.43.35-.6.17-.17.35-.3.55-.4s.43-.15.7-.15c.2 0 .4.05.6.15.17.07.33.18.5.35.13.13.25.28.35.45.07.17.13.35.2.55.03.17.03.33 0 .5 0 .2-.03.37-.1.5s-.17.23-.3.3c-.13.1-.28.15-.45.15-.13 0-.27-.02-.4-.05-.07-.03-.15-.08-.25-.15a.579.579 0 0 1-.15-.25c-.03-.07-.07-.15-.1-.25v-.6s.02-.05.05-.05c0 .2.03.37.1.5.07.1.15.2.25.3.1.07.2.1.3.1.13.03.25.02.35-.05.1-.03.18-.1.25-.2.03-.07.05-.17.05-.3 0-.17-.03-.33-.1-.5-.1-.17-.25-.37-.45-.6-.07-.07-.15-.13-.25-.2-.1-.03-.2-.05-.3-.05s-.2.02-.3.05c-.1 0-.2.03-.3.1-.07.03-.15.1-.25.2-.07.07-.13.15-.2.25s-.12.2-.15.3-.05.22-.05.35.02.27.05.4c.03.17.08.32.15.45s.15.25.25.35c.1.13.22.25.35.35s.28.17.45.2c.17.07.33.1.5.1s.35-.03.55-.1c.2-.03.42-.12.65-.25.2-.13.38-.27.55-.4.2-.13.38-.27.55-.4.2-.1.38-.2.55-.3.2-.1.38-.2.55-.3s.33-.18.5-.25c.2-.07.38-.15.55-.25.17-.07.33-.12.5-.15.17-.07.33-.13.5-.2-.5-.03-1-.1-1.5-.2-.47-.1-.93-.23-1.4-.4-.43-.17-.85-.35-1.25-.55-.43-.2-.85-.42-1.25-.65-.37-.27-.73-.55-1.1-.85s-.7-.62-1-.95c-.33-.37-.65-.75-.95-1.15s-.58-.82-.85-1.25c-.1 0-.22.02-.35.05h-1.3c-.07 0-.15-.02-.25-.05-.1 0-.2-.02-.3-.05-.1 0-.2-.02-.3-.05.13-.03.25-.05.35-.05.13-.03.25-.05.35-.05.13-.03.25-.07.35-.1s.22-.07.35-.1c.1-.03.2-.07.3-.1s.22-.07.35-.1c.1-.07.2-.13.3-.2.1-.03.2-.08.3-.15 1.43-.87 2.85-1.62 4.25-2.25 1.3-.57 2.58-1.03 3.85-1.4 1.13-.3 2.25-.52 3.35-.65.97-.13 1.92-.2 2.85-.2.77.03 1.53.1 2.3.2.57.1 1.13.22 1.7.35.37.1.7.22 1 .35.13.03.27.08.4.15.07-.13.15-.28.25-.45.1-.13.22-.28.35-.45.17-.17.33-.32.5-.45.17-.17.35-.33.55-.5.23-.17.48-.33.75-.5s.55-.35.85-.55c.3-.17.62-.35.95-.55.37-.17.75-.35 1.15-.55 0 0-.13-.03-.4-.1-.33-.07-.7-.12-1.1-.15-.57-.07-1.15-.12-1.75-.15-.77-.03-1.55-.03-2.35 0-.93.07-1.87.17-2.8.3-1.1.17-2.18.38-3.25.65z"/><path fill="#461A1A" d="M20.1 7.65c1.5-.53 3.02-.95 4.55-1.25 1.4-.3 2.8-.48 4.2-.55 1.3-.07 2.57-.03 3.8.1 1.13.1 2.18.3 3.15.6.9.27 1.68.58 2.35.95.67.4 1.15.83 1.45 1.3.33.5.47 1 .4 1.5-.3-.17-.58-.3-.85-.4-.3-.1-.6-.18-.9-.25s-.62-.12-.95-.15c-.33 0-.67.02-1 .05-.33.07-.68.15-1.05.25-.37.13-.73.3-1.1.5-.4.2-.8.45-1.2.75s-.8.65-1.2 1.05c.27.1.53.22.8.35s.53.28.8.45.52.33.75.5c.27.2.52.4.75.6s.47.42.7.65c.2.27.4.52.6.75.17.27.33.53.5.8.13.3.25.6.35.9-.13-.07-.28-.15-.45-.25s-.35-.2-.55-.3c-.17-.1-.35-.18-.55-.25l-1.2-.6c-.2-.07-.38-.13-.55-.2-.2-.07-.37-.13-.5-.2-.17-.03-.32-.07-.45-.1-.13.33-.28.65-.45.95s-.33.58-.5.85-.35.53-.55.8c-.17.23-.35.48-.55.75-.17.2-.37.42-.6.65-.2.2-.4.42-.6.65-.23.2-.47.4-.7.6s-.48.4-.75.6c-.13.2-.25.43-.35.7-.1.23-.18.48-.25.75-.03.27-.07.55-.1.85-.03.27-.03.55 0 .85 0 .27.02.55.05.85 0 .27.03.53.1.8.03.27.08.53.15.8.03.23.08.47.15.7-.2-.1-.38-.18-.55-.25-.2-.1-.38-.22-.55-.35-.2-.1-.37-.22-.5-.35-.17-.17-.32-.33-.45-.5-.13-.2-.25-.4-.35-.6-.1-.23-.18-.48-.25-.75s-.1-.55-.1-.85c-.03-.33-.03-.7 0-1.1-.67.27-1.2.45-1.6.55-.3.1-.85.22-1.65.35-.8.2-1.57.45-2.3.75-.67.27-1.32.58-1.95.95-.6.37-1.17.75-1.7 1.15-.5.4-.98.85-1.45 1.35-.43.47-.83.95-1.2 1.45-.4.5-.77 1.05-1.1 1.65-.3.53-.6 1.1-.9 1.7-.27.57-.53 1.17-.8 1.8-.13-.17-.25-.37-.35-.6s-.18-.5-.25-.8c-.03-.33-.05-.67-.05-1 0-.37.03-.73.1-1.1s.17-.75.3-1.15c.1-.4.25-.78.45-1.15.2-.4.42-.78.65-1.15.27-.37.57-.72.9-1.05a2.1 2.1 0 0 1-.75-.5c-.2-.2-.37-.43-.5-.7s-.23-.57-.3-.9a2.64 2.64 0 0 1-.05-.9c0-.3.03-.6.1-.9s.17-.57.3-.8.28-.43.45-.6c.2-.17.42-.27.65-.3-.17-.1-.32-.2-.45-.3-.13-.13-.25-.23-.35-.3-.13-.1-.25-.2-.35-.3-.07-.1-.15-.2-.25-.3-.1-.13-.18-.25-.25-.35-.1-.13-.2-.27-.3-.4-.07-.13-.15-.28-.25-.45-.1-.13-.22-.32-.35-.55-.13 0-.27-.02-.4-.05-.17 0-.33-.02-.5-.05s-.33-.07-.5-.1c-.2-.03-.38-.07-.55-.1-.2-.03-.38-.08-.55-.15s-.33-.13-.5-.2c-.13-.07-.27-.13-.4-.2s-.23-.15-.3-.25c-.53 0-1-.02-1.4-.05-.47-.03-.88-.07-1.25-.1-.4-.1-.75-.2-1.05-.3-.33-.13-.62-.3-.85-.5-.23-.23-.45-.48-.65-.75-.17-.3-.3-.67-.4-1.1-.1-.4-.17-.87-.2-1.4 0-.53.02-1.15.05-1.85.4.6.78 1.1 1.15 1.5.4.43.8.77 1.2 1 .4.3.85.5 1.35.6.47.13.98.18 1.55.15s1.18-.15 1.85-.35c.67-.17 1.42-.43 2.25-.8.8-.3 1.72-.72 2.75-1.25.93-.47 2.02-1.03 3.25-1.7 1.53-.83 3.1-1.53 4.7-2.1zm-.15 2.3c1.2-.47 2.4-.87 3.6-1.2 1.07-.27 2.15-.48 3.25-.65.93-.13 1.87-.23 2.8-.3.8-.03 1.58-.03 2.35 0 .6.03 1.18.08 1.75.15.4.03.77.08 1.1.15.27.07.4.1.4.1-.4.2-.78.38-1.15.55-.33.2-.65.38-.95.55-.3.2-.58.38-.85.55s-.52.33-.75.5c-.2.17-.38.33-.55.5-.17.13-.33.28-.5.45-.13.17-.25.32-.35.45-.1.17-.18.32-.25.45a1.63 1.63 0 0 0-.4-.15c-.3-.13-.63-.25-1-.35-.57-.13-1.13-.25-1.7-.35-.77-.1-1.53-.17-2.3-.2-.93 0-1.88.07-2.85.2-1.1.13-2.22.35-3.35.65-1.27.37-2.55.83-3.85 1.4-1.4.63-2.82 1.38-4.25 2.25-.1.07-.2.12-.3.15-.1.07-.2.13-.3.2-.13.03-.25.07-.35.1s-.2.07-.3.1c-.13.03-.25.07-.35.1s-.22.07-.35.1c-.1 0-.22.02-.35.05-.1 0-.22.02-.35.05.1.03.2.05.3.05.1.03.2.05.3.05.1.03.18.05.25.05h1.3c.13-.03.25-.05.35-.05.27.43.55.85.85 1.25s.62.78.95 1.15c.3.33.63.65 1 .95s.73.58 1.1.85c.4.23.82.45 1.25.65.4.2.82.38 1.25.55.47.17.93.3 1.4.4.5.1 1 .17 1.5.2-.17.07-.33.13-.5.2-.17.03-.33.08-.5.15-.17.1-.35.18-.55.25-.17.07-.33.15-.5.25s-.35.2-.55.3c-.17.1-.35.2-.55.3-.17.13-.35.27-.55.4-.17.13-.35.27-.55.4-.23.13-.45.22-.65.25-.2.07-.38.1-.55.1s-.33-.03-.5-.1c-.17-.03-.32-.1-.45-.2s-.25-.22-.35-.35c-.1-.1-.18-.22-.25-.35s-.12-.28-.15-.45c-.03-.13-.05-.27-.05-.4s.02-.25.05-.35.08-.2.15-.3.13-.18.2-.25c.1-.1.18-.17.25-.2.1-.07.2-.1.3-.1.1-.03.2-.05.3-.05s.2.02.3.05c.1.07.18.13.25.2.2.23.35.43.45.6.07.17.1.33.1.5 0 .13-.02.23-.05.3-.07.1-.15.17-.25.2-.1.07-.22.08-.35.05-.1 0-.2-.03-.3-.1-.1-.1-.18-.2-.25-.3-.07-.13-.1-.3-.1-.5-.03 0-.05.02-.05.05v.6c.03.1.07.18.1.25.03.1.08.18.15.25.1.07.18.12.25.15.13.03.27.05.4.05.17 0 .32-.05.45-.15.13-.07.23-.17.3-.3s.1-.3.1-.5a1.4 1.4 0 0 0 0-.5c-.07-.2-.13-.38-.2-.55-.1-.17-.22-.32-.35-.45-.17-.17-.33-.28-.5-.35-.2-.1-.4-.15-.6-.15-.27 0-.5.05-.7.15s-.38.23-.55.4c-.13.17-.25.37-.35.6-.07.23-.1.48-.1.75s.05.52.15.75c.07.27.18.52.35.75.2.23.42.43.65.6.3.2.62.35.95.45-.3.33-.58.67-.85 1-.27.3-.5.62-.7.95-.2.3-.38.6-.55.9-.17.27-.32.55-.45.85-.1.27-.18.53-.25.8-.1.23-.17.47-.2.7s-.07.45-.1.65v.55c.23-.63.48-1.23.75-1.8.3-.57.62-1.1.95-1.6.37-.53.75-1.03 1.15-1.5.4-.43.85-.85 1.35-1.25.47-.4.97-.78 1.5-1.15.5-.33 1.05-.65 1.65-.95.57-.27 1.18-.52 1.85-.75.63-.23 1.3-.45 2-.65.17 0 .33-.03.5-.1.2-.03.38-.07.55-.1.2-.03.38-.08.55-.15.17-.03.35-.08.55-.15.17-.07.35-.13.55-.2.17-.07.33-.13.5-.2.2-.07.38-.13.55-.2.2-.07.38-.15.55-.25-.07.27-.13.52-.2.75-.03.23-.07.47-.1.7v.65s.02.38.05.55c.03.2.08.38.15.55s.15.32.25.45c.07.17.17.32.3.45.1.13.22.25.35.35-.03-.23-.08-.45-.15-.65-.03-.23-.05-.47-.05-.7v-.65c0-.23.02-.45.05-.65.03-.23.07-.45.1-.65.03-.23.08-.45.15-.65.07-.23.15-.45.25-.65.1-.23.2-.45.3-.65.27-.2.52-.4.75-.6.23-.23.47-.45.7-.65.23-.23.45-.48.65-.75.23-.23.45-.48.65-.75s.4-.53.6-.8.38-.55.55-.85c.2-.3.37-.62.5-.95.17-.3.33-.62.5-.95.1.03.22.07.35.1s.27.07.4.1c.13.07.27.12.4.15.13.07.27.12.4.15.13.07.27.13.4.2s.27.13.4.2.28.13.45.2c.13.1.27.18.4.25l-.5-.5s-.35-.33-.55-.5c-.17-.13-.35-.28-.55-.45-.2-.13-.4-.27-.6-.4s-.42-.27-.65-.4c-.2-.13-.42-.27-.65-.4-.23-.1-.48-.22-.75-.35-.23-.1-.48-.2-.75-.3.4-.4.82-.77 1.25-1.1.4-.33.78-.63 1.15-.9.4-.27.78-.5 1.15-.7.37-.17.72-.32 1.05-.45.37-.13.7-.23 1-.3.33-.03.65-.05.95-.05.33 0 .63.03.9.1.3.1.58.22.85.35-.07-.23-.28-.48-.65-.75-.4-.23-.92-.47-1.55-.7-.67-.23-1.43-.42-2.3-.55-.9-.17-1.87-.27-2.9-.3-1.1-.07-2.23-.05-3.4.05-1.27.1-2.53.28-3.8.55-1.37.3-2.72.7-4.05 1.2-1.43.53-2.83 1.17-4.2 1.9-.9.5-1.73.93-2.5 1.3-.87.43-1.67.82-2.4 1.15-.8.37-1.55.67-2.25.9-.73.27-1.42.48-2.05.65-.67.17-1.28.27-1.85.3-.6.03-1.13 0-1.6-.1-.53-.13-.98-.32-1.35-.55-.4-.27-.75-.62-1.05-1.05.03.37.13.7.3 1 .2.33.47.6.8.8s.73.35 1.2.45 1.02.15 1.65.15c.63-.03 1.33-.13 2.1-.3.8-.17 1.65-.4 2.55-.7.97-.3 1.97-.7 3-1.2 1.13-.47 2.3-1.03 3.5-1.7 1.27-.7 2.57-1.3 3.9-1.8z"/></svg>