<svg xmlns="http://www.w3.org/2000/svg" width="40" height="40"><path fill="#DCB464" d="M28.15 30.5h7.1v4.15l-7.15 1.9V32.5h1.55zM37.3 20l-.3 1.65-.85.25.05 7.55h-8.85l-1.3-1.75.05-5.25h1.15l-.95-1.3c.43 0 .87-.02 1.3-.05.47-.03.92-.05 1.35-.05.47-.03.92-.07 1.35-.1.47-.03.93-.08 1.4-.15.43-.03.88-.08 1.35-.15.47-.03.93-.08 1.4-.15s.95-.15 1.45-.25c.47-.07.93-.15 1.4-.25zm-15.55 6.6c.1.1.18.22.25.35-.07-.1-.15-.22-.25-.35zm.05-24.85c-.18.03-.38.05-.59.05.2-.03.39-.05.59-.05z"/><path fill="#E4DFA2" d="M18.8 34h2.5v3.7h-2.5z"/><path fill="#DCB464" d="M21.1 26.05c.1.1.22.18.35.25-.13-.07-.25-.13-.35-.2-.13-.1-.27-.17-.4-.2.13.03.27.08.4.15z"/><path fill="#E4DFA2" d="M20.65 30.55c-.07.04-.13.06-.2.08-.06.01-.13.02-.2.02V25.8c.13.03.28.07.45.1.13.03.27.1.4.2.1.07.22.13.35.2l.3.3c.1.13.18.25.25.35.07.13.13.27.2.4.03.13.07.28.1.45.03.13.05.28.05.45 0 .13-.02.28-.05.45-.03.13-.07.27-.1.4-.07.13-.13.27-.2.4s-.15.25-.25.35l-.3.3c-.13.1-.27.18-.4.25-.05.03-.11.07-.17.09-.07.02-.14.04-.23.06zm-2.3-4.25c.1-.1.22-.18.35-.25s.27-.12.4-.15c.17-.07.32-.1.45-.1v4.85c-.13-.03-.28-.07-.45-.1-.13-.03-.27-.08-.4-.15s-.25-.15-.35-.25l-.3-.3c-.1-.1-.18-.22-.25-.35-.1-.13-.17-.27-.2-.4a1.63 1.63 0 0 1-.15-.4v-.45c0-.17.02-.32.05-.45 0-.17.03-.32.1-.45s.13-.27.2-.4.15-.25.25-.35l.3-.3z"/><g fill="#DCB464"><path d="M18.24 1.75h-.04c-.2-.03-.4-.07-.6-.1h.05c.2.03.39.07.59.1zm-.64-.1c-.08 0-.17 0-.26-.01.09 0 .18.01.26.01zm.9 10.85v1.4l-1.25 2.2-1.15 1.5V7.7h7.8v10.25l-1.65-2.25-.95-1.75V12.5zM17 1.6c.1.01.21.03.31.04-.11-.01-.21-.02-.32-.04H17z"/><path d="M18.2 19v2.35l-1.65 2.85-1.75 2.35.05-4.75h-.5l3.8-5.1 1.15-2v-1.05h1.15v1.05l1.15 1.95 3.8 5.15h-.55l-.05 4.25-1.75-2.35-1.25-2.3V19z"/><path d="M18.8 37.7h2.5V34h-2.5v3.7zm1.65-7.07c.09-.01.17-.04.25-.08.06-.01.12-.03.18-.06a1.481 1.481 0 0 0 .57-.34l.3-.3s.18-.22.25-.35.13-.27.2-.4c.03-.13.07-.27.1-.4.03-.17.05-.32.05-.45 0-.17-.02-.32-.05-.45-.03-.17-.07-.32-.1-.45-.07-.13-.13-.27-.2-.4s-.15-.25-.25-.35l-.3-.3c-.13-.07-.25-.15-.35-.25a1.63 1.63 0 0 0-.4-.15c-.17-.03-.32-.07-.45-.1v4.85c.07 0 .14-.01.2-.02zm-1.75-4.58c-.13.07-.25.15-.35.25l-.3.3c-.1.1-.18.22-.25.35s-.13.27-.2.4-.1.28-.1.45c-.03.13-.05.28-.05.45v.45c.03.13.08.27.15.4.03.13.1.27.2.4.07.13.15.25.25.35l.3.3c.1.1.22.18.35.25s.27.12.4.15c.17.03.32.07.45.1V25.8c-.13 0-.28.03-.45.1-.13.03-.27.08-.4.15zm1.3 12.7-7.15-1.9V31.6h-.7l5.35-7.2 1.7-2.9V20h1.65v1.55l1.55 2.75 5.45 7.3h-.8v5.25L20 38.75zm-1.75-37c.2 0 .4.02.6.05.18.03.35.05.53.05h.07c.17 0 .35.02.55.05h.05c.08 0 .17 0 .25-.01.12-.01.23-.02.35-.04.08 0 .16 0 .24-.01.05 0 .11-.01.16-.02.05 0 .1-.01.15-.02h.01c.21 0 .41-.02.59-.05.1-.02.2-.03.31-.05s.23-.03.34-.05c.2 0 .4-.02.6-.05.23-.03.45-.07.65-.1.23-.03.47-.08.7-.15.23-.03.47-.07.7-.1l-.2.95-.45.15V6.6h-8.9V2.35l-.45-.15-.2-.95c.23.03.47.08.7.15.23.03.47.07.7.1s.45.07.65.1h.04c.11.02.21.03.32.04.01-.01.02 0 .03 0 .09.01.18.01.26.01.2.03.4.07.6.1h.05z"/><path d="M15 1.25c.23.03.47.08.7.15.23.03.47.07.7.1.2.03.39.07.59.1h-.04c-.2-.03-.42-.07-.65-.1s-.47-.07-.7-.1c-.23-.07-.47-.12-.7-.15h.1zM10.35 32.5h1.45v4.05L4.75 34.7v-4.2h7.1zm3.25-10.05-.05 5.8-.9 1.2H3.8l.05-7.55-.85-.25L2.7 20c.47.1.93.18 1.4.25s.93.13 1.4.2c.43.07.88.13 1.35.2s.92.12 1.35.15.88.07 1.35.1c.43.07.88.1 1.35.1.43.03.87.07 1.3.1s.87.05 1.3.05l-1 1.3h1.1z"/></g><path fill="#968250" d="M4.75 30.5v4.2l7.05 1.85V32.5h-1.45l1.5-2h-7.1zm8.8-2.25.05-5.8h-1.1l1-1.3c-.43 0-.87-.02-1.3-.05s-.87-.07-1.3-.1c-.47 0-.92-.03-1.35-.1-.47-.03-.92-.07-1.35-.1s-.88-.08-1.35-.15-.92-.13-1.35-.2c-.47-.07-.93-.13-1.4-.2s-.93-.15-1.4-.25l.3 1.65.85.25-.05 7.55h8.85l.9-1.2zm14.3 3.35-5.45-7.3-1.55-2.75V20H19.2v1.5l-1.7 2.9-5.35 7.2h.7v5.25l7.15 1.9 7.05-1.9V31.6h.8zm7.4 3.05V30.5h-7.1l1.5 2H28.1v4.05l7.15-1.9zm1.75-13 .3-1.65c-.47.1-.93.18-1.4.25-.5.1-.98.18-1.45.25s-.93.12-1.4.15c-.47.07-.92.12-1.35.15-.47.07-.93.12-1.4.15-.43.03-.88.07-1.35.1-.43 0-.88.02-1.35.05-.43.03-.87.05-1.3.05l.95 1.3H26.1l-.05 5.25 1.3 1.75h8.85l-.05-7.55.85-.25zm-18.8-.3V19h3.6v2.4l1.25 2.3 1.75 2.35.05-4.25h.55l-3.8-5.15-1.15-1.95v-1.05H19.3v1.05l-1.15 2-3.8 5.1h.5l-.05 4.75 1.75-2.35 1.65-2.85zM17.5.7c.27.03.55.05.85.05.27.03.55.07.85.1.27 0 .55.02.85.05.3-.03.58-.05.85-.05.27-.03.55-.07.85-.1.27 0 .55-.02.85-.05.27-.03.55-.07.85-.1s.58-.08.85-.15c.3-.03.58-.07.85-.1.3-.07.58-.12.85-.15.3-.07.6-.13.9-.2l-.7 2.65-.6.15.05 4.8-.65.05V19.4l.25.35c.6 0 1.18-.02 1.75-.05.57 0 1.15-.02 1.75-.05s1.18-.07 1.75-.1c.6-.07 1.2-.13 1.8-.2.6-.03 1.2-.1 1.8-.2.6-.07 1.2-.15 1.8-.25l1.8-.3c.6-.13 1.2-.27 1.8-.4l-1.1 4.3-.9.3.05 7.8-1.05.05v4.95h-.1L20 40 3.5 35.6v-4.95l-1.05-.05.05-7.8-.9-.3-1.1-4.3c.57.13 1.17.27 1.8.4.57.1 1.15.2 1.75.3s1.2.18 1.8.25c.57.07 1.15.13 1.75.2.57.07 1.15.12 1.75.15.57.07 1.15.12 1.75.15.57.03 1.13.05 1.7.05.57.03 1.13.05 1.7.05l.6-.75V7.65l-.65-.05V2.8l-.55-.15L13.2 0c.3.07.58.13.85.2.3.03.6.08.9.15.27.03.55.07.85.1.27.07.55.12.85.15.27.03.55.07.85.1zm1 13.2v-1.4h2.8v1.45l.95 1.75 1.65 2.25V7.7h-7.8v9.9l1.15-1.5 1.25-2.2zm.35-12.1c-.2-.03-.4-.05-.6-.05h-.01c-.2-.03-.39-.07-.59-.1h-.05c-.08 0-.17-.01-.26-.01-.01 0-.02-.01-.03 0-.1-.01-.21-.03-.31-.04h-.01c-.2-.03-.39-.07-.59-.1-.23-.03-.47-.07-.7-.1-.23-.07-.47-.12-.7-.15h-.1l.2.95.45.15V6.6h8.9V2.35l.45-.15.2-.95c-.23.03-.47.07-.7.1-.23.07-.47.12-.7.15-.2.03-.42.07-.65.1-.2.03-.4.05-.6.05h-.05c-.1.01-.19.03-.29.05-.11.02-.21.03-.31.05-.2 0-.39.02-.59.05h-.06c-.03.01-.07.01-.1.02-.05 0-.11.01-.16.02-.08.01-.16.01-.24.01h-.05c-.1.02-.2.03-.3.04-.08.01-.17.01-.25.01H20c-.2-.03-.38-.05-.55-.05h-.07a3.49 3.49 0 0 0-.53-.05z"/></svg>