<svg xmlns="http://www.w3.org/2000/svg" width="40" height="40"><path fill="#E4DFA2" d="m20.4 9.8 2.75 4.85H20.4zm0 15.3v-3l1.75 3zM18.65 34h2.7v3.9h-2.7zm1.1-11.85v2.95h-1.6zm-.25-12.3v4.8h-2.65z"/><g fill="#966E82"><path d="M31.9 26.3v9.3l-3.65.95V32.5h1.5l-6.55-8.85-1.65-2.85 2.05-3.55-2.2-1.3v-1.3h1.75L20.4 9.8v4.85h-.9v-4.8l-.9-.52.33-.58.37-.65-3.35-5.8 1-.6L20 6.95l3.1-5.4 1 .6-3.45 5.95 3.4 5.9 9.15 12.3z"/><path d="m18.93 8.75-.33.58-2.75 4.82-8.64 11.6 8.59-11.6zm.82 16.35v-2.95l-1.6 2.95h1.6zm-1.1 12.8h2.7V34h-2.7v3.9zm3.5-12.8-1.75-3v3h1.75zm-1.65-4.3 2.05 3.5 5.4 7.3h-.75v5.25l-7.1 1.9-7.15-1.9V31.6h-.7l5.4-7.25 2.05-3.55-2-3.5.6-.35 1.8 3.15 1.85-3.25.6.35-2.05 3.6z"/><path d="M20.4 14.65h1v1.3l-1.35 2.3-1.3-2.25-2.1 1.2 2 3.5-2 3.5-6.2 8.3h1.45v4.05L7.95 35.5v-9.2H6.8l.41-.55 8.64-11.6 2.75-4.82.9.52-2.65 4.8h2.65z"/></g><path fill="#6E5050" d="m20.5 20.8 2.05-3.6-.6-.35-1.85 3.25-1.8-3.15-.6.35 2 3.5-2.05 3.55-5.4 7.25h.7v5.25l7.15 1.9 7.1-1.9V31.6h.75l-5.4-7.3-2.05-3.5zm11.4 14.8v-9.3h1.3L24.05 14l-3.4-5.9 3.45-5.95-1-.6-3.1 5.4-3.05-5.25-1 .6 3.35 5.8-.37.65-3.13 5.4-8.59 11.6-.41.55h1.15v9.2l3.95 1.05V32.5h-1.45l6.2-8.3 2-3.5-2-3.5 2.1-1.2 1.3 2.25 1.35-2.3 2.2 1.3-2.05 3.55 1.65 2.85 6.55 8.85h-1.5v4.05l3.65-.95zm1.75-7.8v8.55L20.1 40 6.15 36.25V27.8H3.8l10.4-13.95h-.05l3.4-5.9-3.4-5.85L17.7.05l2.2 3.8L22.15 0l3.7 2.15-3.5 6 2.8 4.8L36.2 27.8h-2.55z"/></svg>