<svg xmlns="http://www.w3.org/2000/svg" width="40" height="40"><path fill="#E4DFA2" d="M18.25 30.75h3.4v4.95h-3.4zm.25-15.1h2.9V20h-2.9z"/><path fill="#E1AAA5" d="M21.65 35.7v-4.95h-3.4v4.95h3.4zm-.8-11.1 7.25 10.9-8.15 2.65-8.15-2.65 7.25-10.9-.1-.1a.483.483 0 0 1-.15-.1l-.1-.1c-.03-.03-.05-.08-.05-.15l-.1-.1c0-.07-.02-.12-.05-.15v-.55c.03-.03.05-.07.05-.1s.02-.07.05-.1c0-.03.02-.08.05-.15l.1-.1c0-.03.02-.07.05-.1s.07-.05.1-.05l.55.4-.15.15c0 .03-.02.05-.05.05v.15c-.03 0-.05.02-.05.05v.2c.03 0 .05.02.05.05v.05c.03 0 .05.02.05.05s.02.05.05.05c0 .03.02.05.05.05v.05l.55-.8.5.8c.03 0 .05-.02.05-.05.03 0 .05-.02.05-.05l.05-.05v-.05l.05-.05v-.05c0-.03.02-.07.05-.1v-.15c-.03-.03-.05-.07-.05-.1s-.02-.05-.05-.05c-.03-.03-.05-.07-.05-.1l-.1-.1.55-.4.1.1s.05.07.05.1l.1.1s.05.07.05.1c.03.03.05.07.05.1s.02.07.05.1v.4c0 .07-.02.12-.05.15 0 .03-.02.08-.05.15 0 .03-.02.07-.05.1-.03.07-.07.12-.1.15 0 .03-.02.07-.05.1s-.08.07-.15.1l-.1.1z"/><path fill="#E1AAA5" d="M21.4 20v-4.35h-2.9V20h2.9zm-.5-17.2.95-.95.2.2c.03.07.08.13.15.2.03.07.07.15.1.25.07.07.12.13.15.2.03.1.07.18.1.25 0 .1.02.18.05.25 0 .1.02.2.05.3v.6c-.03.1-.07.2-.1.3-.03.13-.07.25-.1.35s-.08.2-.15.3c-.03.07-.08.15-.15.25s-.13.18-.2.25l-.25.25c-.07.07-.15.13-.25.2L36.4 32.9l-7 2.2-7.15-10.55c.03-.03.05-.07.05-.1.03-.03.05-.07.05-.1 0-.07.02-.12.05-.15v-.1c.03-.03.05-.07.05-.1v-.15c.03-.03.05-.07.05-.1v-.35a.492.492 0 0 1-.05-.2.492.492 0 0 1-.05-.2c-.03-.07-.07-.13-.1-.2s-.07-.13-.1-.2-.08-.13-.15-.2l-.15-.15a.276.276 0 0 0-.15-.15l-.65-.55-1.15 1-1.15-1-.65.55c-.07.03-.12.08-.15.15l-.15.15c-.07.07-.12.13-.15.2s-.07.13-.1.2-.07.13-.1.2c0 .07-.02.13-.05.2 0 .07-.02.13-.05.2v.45c.03.03.05.07.05.1v.15c.03.03.05.07.05.1s.02.07.05.1c0 .03.02.07.05.1 0 .07.02.12.05.15L10.4 35.1l-6.9-2.2L18.45 6c-.1-.07-.18-.13-.25-.2a.99.99 0 0 1-.25-.25c-.07-.07-.13-.15-.2-.25s-.12-.18-.15-.25c-.07-.1-.12-.2-.15-.3s-.07-.22-.1-.35c-.03-.1-.07-.2-.1-.3v-.6c.03-.1.05-.2.05-.3.03-.07.05-.15.05-.25.03-.07.07-.15.1-.25.03-.07.07-.13.1-.2.07-.1.12-.18.15-.25.07-.07.12-.13.15-.2l.2-.2.95.95-.1.1s-.05.07-.05.1l-.1.1c0 .03-.02.08-.05.15 0 .03-.02.07-.05.1v.15c-.03.03-.05.07-.05.1v.3c0 .07.02.12.05.15 0 .07.02.12.05.15 0 .03.02.08.05.15 0 .03.02.07.05.1s.07.08.1.15l.2.2.85-1.55.85 1.55.2-.2s.07-.08.1-.15c.03-.03.05-.07.05-.1.03-.07.05-.12.05-.15.03-.03.05-.08.05-.15.03-.03.05-.08.05-.15v-.3c0-.03-.02-.07-.05-.1v-.15c-.03-.03-.05-.07-.05-.1a.504.504 0 0 1-.05-.15l-.1-.1c0-.03-.02-.07-.05-.1l-.1-.1z"/><path fill="#AA7873" d="m28.1 35.5-7.25-10.9.1-.1c.07-.03.12-.07.15-.1s.05-.07.05-.1c.03-.03.07-.08.1-.15.03-.03.05-.07.05-.1.03-.07.05-.12.05-.15.03-.03.05-.08.05-.15v-.4c-.03-.03-.05-.07-.05-.1s-.02-.07-.05-.1c0-.03-.02-.07-.05-.1l-.1-.1c0-.03-.02-.07-.05-.1l-.1-.1-.55.4.1.1c0 .03.02.07.05.1.03 0 .05.02.05.05s.02.07.05.1v.15c-.03.03-.05.07-.05.1v.05l-.05.05v.05l-.05.05c0 .03-.02.05-.05.05 0 .03-.02.05-.05.05l-.5-.8-.55.8V24c-.03 0-.05-.02-.05-.05-.03 0-.05-.02-.05-.05s-.02-.05-.05-.05v-.05c0-.03-.02-.05-.05-.05v-.2s.02-.05.05-.05v-.15c.03 0 .05-.02.05-.05l.15-.15-.55-.4c-.03 0-.07.02-.1.05s-.05.07-.05.1l-.1.1c-.03.07-.05.12-.05.15-.03.03-.05.07-.05.1s-.02.07-.05.1v.55c.03.03.05.08.05.15l.1.1c0 .07.02.12.05.15l.1.1c.03.03.08.07.15.1l.1.1-7.25 10.9 8.15 2.65 8.15-2.65zm1.3-.4 7-2.2L21.45 6c.1-.07.18-.13.25-.2l.25-.25c.07-.07.13-.15.2-.25s.12-.18.15-.25c.07-.1.12-.2.15-.3s.07-.22.1-.35c.03-.1.07-.2.1-.3v-.6c-.03-.1-.05-.2-.05-.3a.618.618 0 0 1-.05-.25c-.03-.07-.07-.15-.1-.25a.654.654 0 0 0-.15-.2c-.03-.1-.07-.18-.1-.25a.654.654 0 0 1-.15-.2l-.2-.2-.95.95.1.1s.05.07.05.1l.1.1c0 .03.02.08.05.15 0 .03.02.07.05.1v.15c.03.03.05.07.05.1v.3c0 .07-.02.12-.05.15 0 .07-.02.12-.05.15 0 .03-.02.08-.05.15 0 .03-.02.07-.05.1-.03.07-.07.12-.1.15l-.1.1-.1.1-.85-1.55-.85 1.55-.2-.2c-.03-.07-.07-.12-.1-.15s-.05-.07-.05-.1a.504.504 0 0 1-.05-.15c-.03-.03-.05-.08-.05-.15-.03-.03-.05-.08-.05-.15v-.3c0-.03.02-.07.05-.1v-.15c.03-.03.05-.07.05-.1.03-.07.05-.12.05-.15l.1-.1c0-.03.02-.07.05-.1l.1-.1-.95-.95-.2.2c-.03.07-.08.13-.15.2-.03.07-.08.15-.15.25-.03.07-.07.13-.1.2-.03.1-.07.18-.1.25 0 .1-.02.18-.05.25 0 .1-.02.2-.05.3v.6c.03.1.07.2.1.3.03.13.07.25.1.35s.08.2.15.3c.03.07.08.15.15.25s.13.18.2.25c.07.1.15.18.25.25.07.07.15.13.25.2L3.5 32.9l6.9 2.2 7.25-10.55c-.03-.03-.05-.08-.05-.15-.03-.03-.05-.07-.05-.1-.03-.03-.05-.07-.05-.1s-.02-.07-.05-.1v-.15c0-.03-.02-.07-.05-.1v-.45c.03-.07.05-.13.05-.2.03-.07.05-.13.05-.2.03-.07.07-.13.1-.2s.07-.13.1-.2.08-.13.15-.2l.15-.15c.03-.07.08-.12.15-.15l.65-.55 1.15 1 1.15-1 .65.55c.07.03.12.08.15.15l.15.15c.07.07.12.13.15.2s.07.13.1.2.07.13.1.2c0 .07.02.13.05.2 0 .07.02.13.05.2v.35c0 .03-.02.07-.05.1V24c0 .03-.02.07-.05.1v.1c-.03.03-.05.08-.05.15 0 .03-.02.07-.05.1 0 .03-.02.07-.05.1L29.4 35.1zM23.3 5.95l16.15 28.1L19.95 40 .55 34.1 16.6 5.95a.579.579 0 0 1-.15-.25c-.03-.07-.07-.15-.1-.25a.579.579 0 0 1-.15-.25c-.03-.07-.07-.15-.1-.25 0-.1-.02-.2-.05-.3-.03-.07-.05-.15-.05-.25s-.02-.2-.05-.3v-.7c.03-.13.07-.27.1-.4 0-.1.03-.22.1-.35.03-.13.07-.25.1-.35.07-.13.12-.25.15-.35.07-.13.15-.25.25-.35.07-.1.13-.2.2-.3.1-.1.18-.2.25-.3l1-1 1.85 1.85L21.8 0l.95 1c.1.1.18.2.25.3.1.1.18.2.25.3s.13.22.2.35c.07.1.13.22.2.35.03.1.07.22.1.35s.07.27.1.4c.03.1.05.22.05.35.03.13.05.27.05.4v.3c-.03.1-.05.2-.05.3s-.02.18-.05.25c-.03.1-.05.2-.05.3-.03.1-.07.18-.1.25-.03.1-.07.18-.1.25-.07.1-.12.18-.15.25-.03.1-.08.18-.15.25z"/></svg>