<svg xmlns="http://www.w3.org/2000/svg" width="40" height="40"><path fill="#969696" d="M33.8 5.5V4.35h2V7.4l-.85.85V26.9l-3.15 1.65V17.1l1.3-1.35v-6.4H25v-1.1l-.85-.85V4.35h2V5.5h1.2V4.35h1.95V5.5h1.35V4.35h1.95V5.5z"/><path fill="#685046" d="m16.95 2.15 6.45 7h-9.45z"/><path fill="#E4DFA2" d="M24.05 29.6c.1.17.17.33.2.5.03.2.05.38.05.55v4.4h-5.85v-4.4c0-.17.02-.33.05-.5.03-.2.08-.37.15-.5.07-.17.17-.32.3-.45.1-.17.22-.3.35-.4.13-.13.27-.25.4-.35.17-.1.33-.18.5-.25.2-.07.38-.12.55-.15.2-.03.4-.05.6-.05s.4.02.6.05.38.08.55.15.33.15.5.25.32.22.45.35c.13.1.25.23.35.4.1.13.18.27.25.4z"/><path fill="#969696" d="M24.05 29.6c-.07-.13-.15-.27-.25-.4-.1-.17-.22-.3-.35-.4-.13-.13-.28-.25-.45-.35s-.33-.18-.5-.25-.35-.12-.55-.15-.4-.05-.6-.05-.4.02-.6.05c-.17.03-.35.08-.55.15-.17.07-.33.15-.5.25-.13.1-.27.22-.4.35-.13.1-.25.23-.35.4-.13.13-.23.28-.3.45-.07.13-.12.3-.15.5-.03.17-.05.33-.05.5v4.4h5.85v-4.4c0-.17-.02-.35-.05-.55-.03-.17-.1-.33-.2-.5zm.05-4.85h.9v-.7h1.65v1.85l-.6.7v8.85l-4.7 2.9-4.8-3.15v-8.75l-.6-.65v-1.75h1.75v.7h.95v-.7h1.15v.7h1v-.7h1.1v.7H23v-.7h1.1v.7z"/><path fill="#969696" d="M30.45 16.45V32.7l-3.1 1.95v-7.8l.5-.55v-3.5l-2.9.05v-.1c0-.23-.02-.45-.05-.65-.07-.23-.13-.45-.2-.65-.1-.2-.22-.4-.35-.6s-.28-.38-.45-.55c-.13-.17-.3-.32-.5-.45s-.4-.25-.6-.35-.42-.17-.65-.2c-.23-.07-.47-.1-.7-.1-.27 0-.52.03-.75.1-.2.03-.42.1-.65.2-.2.1-.4.22-.6.35-.17.13-.33.28-.5.45s-.32.35-.45.55-.23.4-.3.6c-.1.2-.18.42-.25.65-.03.2-.05.42-.05.65v.1h-3.4v3.5l.4.45v7.6l-2.65-1.7V16.45l-1.3-1.3V10.5h2.45v1.35h2.1V10.5h2.4v1.35h2.25V10.5h2.4v1.35h2.4V10.5h2.4v1.35h2V10.5h2.4v4.65l-1.3 1.3z"/><path fill="#685046" d="M10.95 17.1 11 31.95 4.65 28.1l4.1-13.7.8.65v.7z"/><path fill="#4B4B4B" d="m11 31.95-.05-14.85-1.4-1.35v-.7l-.8-.65-4.1 13.7L11 31.95zm12.4-22.8-6.45-7-3 7h9.45zm3.25 16.75v-1.85H25v.7h-.9v-.7H23v.7h-1.1v-.7h-1.1v.7h-1v-.7h-1.15v.7h-.95v-.7h-1.75v1.75l.6.65v8.75l4.8 3.15 4.7-2.9V26.6l.6-.7zm5.1-10.75V10.5h-2.4v1.35h-2V10.5h-2.4v1.35h-2.4V10.5h-2.4v1.35H17.9V10.5h-2.4v1.35h-2.1V10.5h-2.45v4.65l1.3 1.3V32.7l2.65 1.7v-7.6l-.4-.45v-3.5h3.4v-.1c0-.23.02-.45.05-.65.07-.23.15-.45.25-.65.07-.2.17-.4.3-.6s.28-.38.45-.55.33-.32.5-.45c.2-.13.4-.25.6-.35.23-.1.45-.17.65-.2.23-.07.48-.1.75-.1.23 0 .47.03.7.1.23.03.45.1.65.2s.4.22.6.35.37.28.5.45c.17.17.32.35.45.55s.25.4.35.6c.07.2.13.42.2.65.03.2.05.42.05.65v.1l2.9-.05v3.5l-.5.55v7.8l3.1-1.95V16.45l1.3-1.3zm-8.8-12.1h14.3v5.3l-.9.8V28l-4 2.15v3l-11 6.85-10.4-6.45-8.2-4.9L8 11.85l1.55 1.35V9.15h2.95L16.7 0l6.25 6.55v-3.5zm10.85 1.3V5.5h-1.2V4.35h-1.95V5.5H29.3V4.35h-1.95V5.5h-1.2V4.35h-2V7.4l.85.85v1.1h8.1v6.4l-1.3 1.35v11.45l3.15-1.65V8.25l.85-.85V4.35h-2z"/></svg>