<svg xmlns="http://www.w3.org/2000/svg" width="32.35" height="42"><g fill-rule="evenodd"><path d="M16.15 1.3 17.3.1l.3-.1.35.1 2.8 2.8.15.3-.15.35-1.2 1.25L26 12.4l.1.3-.1.3-1.6 1.55.05.2v7.15h4.65l.3.1.2.25 2.75 12.1v.25l-.15.2-7.95 7.1-.25.1h-.2l-.2-.15-3.35-4H12.1l-3.35 4-.15.15h-.3l-.2-.1-7.95-7.1-.1-.2-.05-.25 2.75-12.1.2-.25.25-.1h4.7v-7.15l.05-.2L6.35 13l-.15-.3.15-.3 6.45-7.6-1.2-1.25-.15-.35.15-.3L14.4.1l.2-.05h.25l.25.05 1.05 1.2m2.95 1.9-1.5-1.45-1.45 1.55-1.45-1.55-1.5 1.45 1.45 1.5L8 12.6l1.55 1.55 1.55-1.55.3 3.05H9.3v7.65H7.35v3.4h-.9v-3.4h-2.5L1.5 34.1l6.8 6.05 3.15-3.65h3.1v-7.55h3.2v7.55h3.15l3.1 3.65 6.85-6.05-2.5-10.8H25.9v3.4h-.95v-3.4h-1.9v-7.65h-2.1l.3-3.05 1.5 1.55 1.65-1.55-6.7-7.9 1.4-1.5m-.45 14.45h1.8v1.8h-1.8v-1.8m-4.95 0v1.8h-1.85v-1.8h1.85"/><path fill="#bcbec0" d="M13.7 17.65h-1.85v1.8h1.85v-1.8m4.95 0v1.8h1.8v-1.8h-1.8M19.1 3.2l-1.4 1.5 6.7 7.9-1.65 1.55-1.5-1.55-.3 3.05h2.1v7.65h1.9v3.4h.95v-3.4h2.45l2.5 10.8L24 40.15l-3.1-3.65h-3.15v-7.55h-3.2v7.55h-3.1L8.3 40.15 1.5 34.1l2.45-10.8h2.5v3.4h.9v-3.4H9.3v-7.65h2.1l-.3-3.05-1.55 1.55L8 12.6l6.65-7.9-1.45-1.5 1.5-1.45 1.45 1.55 1.45-1.55 1.5 1.45"/><path fill="#6e4d3b" d="m16.85 33 .3-.3.4.3-.4.3-.3-.3m-2.3 3.5h3.2v-7.55h-3.2v7.55"/><path fill="#e4dfa2" d="m17.15 32.7-.3.3.3.3.4-.3-.4-.3"/><path fill="#e6e1a5" d="M13.7 17.65h-1.85v1.8h1.85v-1.8m4.95 1.8h1.8v-1.8h-1.8v1.8"/><path fill="#8c82a0" d="M11.85 17.65h1.85v1.8h-1.85v-1.8m8.6 1.8h-1.8v-1.8h1.8v1.8M17.7 4.7l1.4-1.5-1.5-1.45-1.45 1.55-1.45-1.55-1.5 1.45 1.45 1.5L8 12.6l1.55 1.55 1.55-1.55.3 3.05H9.3v7.65H7.35v3.4h-.9v-3.4h-2.5L1.5 34.1l6.8 6.05 3.15-3.65h3.1v-7.55h3.2v7.55h3.15l3.1 3.65 6.85-6.05-2.5-10.8H25.9v3.4h-.95v-3.4h-1.9v-7.65h-2.1l.3-3.05 1.5 1.55 1.65-1.55-6.7-7.9"/><path fill="#5a4b6e" d="m6.2 12.7 1.75 1.85-.05 7.35H3.2l-.45.35L0 34.35l.15.45L8.3 42h.3l3.5-4.15h8.15L23.8 42l.45-.1 8.1-7.3-2.75-12.35-.5-.35h-4.65l-.05-7.35L26 13l.1-.3-.1-.3-6.45-7.6 1.2-1.25.15-.35L17.95.1 17.6 0l-.3.1-1.15 1.2L15.1.1h-.7l-2.95 3.1.15.35 1.2 1.25-6.6 7.9m11.55 23.8h-6.3L8.3 40.15 1.5 34.1l2.45-10.8h2.5v3.4h.9v-3.4H9.3v-7.65h2.1l-.3-3.05-1.55 1.55L8 12.6l6.65-7.9-1.45-1.5 1.5-1.45 1.45 1.55 1.45-1.55 1.5 1.45-1.4 1.5 6.7 7.9-1.65 1.55-1.5-1.55-.3 3.05h2.1v7.65h1.9v3.4h.95v-3.4h2.45l2.5 10.8L24 40.15l-3.1-3.65h-3.15"/></g></svg>