<svg xmlns="http://www.w3.org/2000/svg" width="38.35" height="42.1"><g fill-rule="evenodd"><path fill="#bcbec0" d="M26.5 2.8 31.2.15l.05.05.15-.1 1.4 1.4-.45.8-.7 1.3h1.9v16.45l-.3 3 1.1.85 3.95 3.05-.45 5.25-.2.05-5.25.4-5.15-6.85-.5-.15-.5.15-1.1.2h-.05v9q2.7-2.7 4.5-6l.85 1.1q-3.8 6.65-10.35 10.4l-.3.25h-1.05l-.25-.25q-6.75-3.8-10.45-10.65L7.2 30.9l-1.3 1.65h-.1l-.1.05-5.25-.45-.4-5.25 4.3-3.2 1-.65v-.1L5 20.05V3.6h1.8l-.45-.8-.7-1.3.7-.65V.8l.7-.7.1.05.1-.1 4 2.25 2.3 1.3H25.1l1.4-.8m4.45-1.2-8.8 5q-.05.85-3 4.3-3-3.5-3.05-4.35L7.3 1.6h-.05l4.95 8.8 1.3.65 3.2 2.5-3.2 2.85-.4.3q-2.4 1.95-3.3 2.4-.15-1.5.6-2.65l.2-.2v-.1l-.1-1-.05-.15h-.15l-1.1.15h-.1l-.2.3q-.85 1.25-.95 2.85t.6 3q-.55.35-.45 1l-6.7 5.05.25 3.45 3.45.3.05-.05 5.2-6.75.75-.3 2.4.6h.75q1.55-.15 2.8-1l.3-.2.05-.05.15-1.1v-.2h-.2l-1-.1h-.05l-.25.15q-1.15.8-2.55.65l2.45-3.3 3.2-3.6q4.65 4.95 5.6 6.9-1.5.15-2.65-.6l-.2-.2-.1.05-1 .1h-.15v.15l.15 1.1v.1l.3.2q1.25.85 2.85.95l1.2-.05 1.8-.55q.35.55 1 .45l5.05 6.7 3.45-.25.3-3.45-6.8-5.25-.3-.75v-.2q.7-1.4.55-2.95-.1-1.55-.95-2.8l-.2-.3-.05-.05-1.15-.1-.15-.05v.2l-.1 1v.05l.15.25q.75 1.05.65 2.55l-6.8-5.5 3.55-2.75.85-.35 5-8.75v-.05l-.05-.05m-4.5 12.2 1.5.05 1.3.2h.1l.5.1.3.45.15.3q1 1.4 1.2 3.2.2 1.75-.45 3.4v.05l1 .75.2-2.25V4.9H30.7l-3.9 6.9h-.05l-.55.05-1.05.65-.05.05v2.55l1.15.95.05.05.15-2.3m-16-3.7L7.6 4.9H6.3v15.15l.2 2-.15.15.55-.45.15-.5q-.55-1.6-.35-3.3t1.15-3.1l.5-.7.5-.1.05-.05 2.8-.25h.05v1.55l.1.75v.05l1.6-1.3v-2l-1.5-.95-.55-.05-.95-1.7m.7 15.45-2.3 3.05q1.75 3.5 4.6 6.4v-8.95l-1.1-.15-.55-.15-.6-.2h-.05"/><path d="m26.5 2.8-1.4.8H13.55l-2.3-1.3H27.3l-.8.5m-20.15 0 .45.8H5v16.45l.35 2.9v.1l-1 .65-.15.1q-.5-2-.5-3.75V2.3h2.35l.3.5m.85 28.1.85-1.05q3.7 6.85 10.45 10.65l.25.25h1.05l.3-.25q6.55-3.75 10.35-10.4l.8 1.1q-3.85 6.55-10.4 10.35l-.1.15-.4.35H18.2l-.5-.5Q11 37.65 7.2 30.9M29.6 29q-1.8 3.3-4.5 6v-9h.05l1.1-.2.5-.15.45.15 2.4 3.2m4.75-5.1-1.1-.85.3-3V3.6h-1.9l.7-1.3h2.5v17.75q0 1.8-.5 3.85m-8.1-7.85-1.15-.95v-2.55l.05-.05 1.05-.65.55-.05h.05l3.9-6.9h1.55v15.15l-.2 2.25-1-.75v-.05q.65-1.65.45-3.4-.2-1.8-1.2-3.2l-.15-.3-.3-.45-.5-.1h-.1l-1.3-.2-1.5-.05h-.05l-.15 2.25m4.7-14.45.05.05v.05l-5 8.75-.85.35-3.55 2.75 6.8 5.5q.1-1.5-.65-2.55l-.15-.25v-.05l.1-1V15l.15.05 1.15.1.05.05.2.3q.85 1.25.95 2.8.15 1.55-.55 2.95v.2l.3.75 6.8 5.25-.3 3.45-3.45.25-5.05-6.7q-.65.1-1-.45l-1.8.55-1.2.05q-1.6-.1-2.85-.95l-.3-.2v-.1l-.15-1.1v-.15h.15l1-.1.1-.05.2.2q1.15.75 2.65.6-.95-1.95-5.6-6.9l-3.2 3.6-2.45 3.3q1.4.15 2.55-.65l.25-.15h.05l1 .1h.2v.2l-.15 1.1-.05.05-.3.2q-1.25.85-2.8 1h-.75l-2.4-.6-.75.3-5.2 6.75-.05.05-3.45-.3-.25-3.45 6.7-5.05q-.1-.65.45-1-.7-1.4-.6-3t.95-2.85l.2-.3h.1l1.1-.15h.15l.05.15.1 1v.1l-.2.2q-.75 1.15-.6 2.65.9-.45 3.3-2.4l.4-.3 3.2-2.85-3.2-2.5-1.3-.65-4.95-8.8h.05l8.8 4.95q.05.85 3.05 4.35 2.95-3.45 3-4.3l8.8-5M6.5 22.05l-.2-2V4.9h1.3l2.85 5.2.9 1.7h.05l.55.05 1.5.95v2l-1.6 1.3v-.05l-.1-.75v-1.55h-.05L8.9 14h-.05l-.05.05-.5.1-.5.7q-.95 1.4-1.15 3.1t.35 3.3l-.15.5-.35.3m5.3 3.7.55.15 1.1.15V35q-2.85-2.9-4.6-6.4l2.3-3.05.65.2"/><g fill="#5a4b6e"><path d="m4.35 23.7 1-.65v-.1L5 20.05V3.6h1.8l-.45-.8-.3-.5H3.7v17.75q0 1.75.5 3.75l.15-.1"/><path d="m11.35 11.8-.9-1.7L7.6 4.9H6.3v15.15l.2 2 .35-.3.15-.5q-.55-1.6-.35-3.3t1.15-3.1l.5-.7.5-.1.05-.05h.05l1.25-.15 1.55-.1h.05v1.55l.1.75v.05l1.6-1.3v-2l-1.5-.95-.55-.05h-.05m1 14.1-.55-.15-.65-.2-2.3 3.05q1.75 3.5 4.6 6.4v-8.95l-1.1-.15"/><path d="M30.45 30.1q-3.8 6.65-10.35 10.4l-.3.25h-1.05l-.25-.25q-6.75-3.8-10.45-10.65L7.2 30.9q3.8 6.75 10.5 10.65l.5.5h2.15l.4-.35.1-.15q6.55-3.8 10.4-10.35l-.8-1.1"/><path d="m26.75 25.65-.5.15-.5.1-.6.1h-.05v9q2.7-2.7 4.5-6l-2.4-3.2-.45-.15m-.3-11.85 1.5.05 1.3.2h.1l.5.1.3.45.15.3q1 1.4 1.2 3.2.2 1.75-.45 3.4v.05l1 .75.2-2.25V4.9H30.7l-3.9 6.9h-.05l-.55.05-1.05.65-.05.05v2.55l1.15.95.15-2.25h.05"/><path d="m32.35 2.3-.7 1.3h1.9v16.45l-.3 3 1.1.85q.5-2.05.5-3.85V2.3h-2.5m-21.1 0 2.3 1.3H25.1l1.4-.8.8-.5H11.25"/></g><path fill="#8c82a0" d="m5.65 1.5.7 1.3.45.8H5v16.45l.35 2.9v.1l-1 .65-4.3 3.2.4 5.25 5.25.45.1-.05h.1l1.3-1.65.85-1.05q3.7 6.85 10.45 10.65l.25.25h1.05l.3-.25q6.55-3.75 10.35-10.4L29.6 29q-1.8 3.3-4.5 6v-9h.05l.6-.1.5-.1.5-.15.5.15 5.15 6.85 5.25-.4.2-.05.45-5.25-3.95-3.05-1.1-.85.3-3V3.6h-1.9l.7-1.3.45-.8L31.4.1l-.15.1-.05-.05-4.7 2.65-1.4.8H13.55l-2.3-1.3-4-2.25-.1.1-.1-.05-.7.7v.05l-.7.65M26.3 16.1l-.05-.05-1.15-.95v-2.55l.05-.05 1.05-.65.55-.05h.05l3.9-6.9h1.55v15.15l-.2 2.25-1-.75v-.05q.65-1.65.45-3.4-.2-1.8-1.2-3.2l-.15-.3-.3-.45-.5-.1h-.1l-1.3-.2-1.5-.05-.15 2.3m-15.85-6 .95 1.7.55.05 1.5.95v2l-1.6 1.3v-.05l-.1-.75v-1.55h-.05l-1.55.1L8.9 14l-.05.05-.5.1-.5.7q-.95 1.4-1.15 3.1t.35 3.3l-.15.5-.55.45.15-.15-.2-2V4.9h1.3l2.85 5.2m.7 15.45h.05l.6.2.55.15 1.1.15V35q-2.85-2.9-4.6-6.4l2.3-3.05M30.95 1.6l.05.05v.05l-5 8.75-.85.35-3.55 2.75 3.55 3.15 3.25 2.35q.1-1.5-.65-2.55l-.15-.25v-.05l.1-1V15l.15.05 1.15.1.05.05.2.3q.85 1.25.95 2.8.15 1.55-.55 2.95v.2l.3.75 6.8 5.25-.3 3.45-3.45.25-5.05-6.7q-.65.1-1-.45l-1.8.55-1.2.05q-1.6-.1-2.85-.95l-.3-.2v-.1l-.15-1.1v-.15h.15l1-.1.1-.05.2.2q1.15.75 2.65.6-.95-1.95-5.6-6.9l-3.2 3.6q-2 2.4-2.45 3.3 1.4.15 2.55-.65l.25-.15h.05l1 .1h.2v.2l-.15 1.1-.05.05-.3.2q-1.25.85-2.8 1h-.75l-2.4-.6-.75.3-5.2 6.75-.05.05-3.45-.3-.25-3.45 6.7-5.05q-.1-.65.45-1-.7-1.4-.6-3t.95-2.85l.2-.3h.1l1.1-.15h.15l.05.15.1 1v.1l-.2.2q-.75 1.15-.6 2.65.9-.45 3.3-2.4l.4-.3 3.2-2.85-3.2-2.5-1.3-.65-4.95-8.8h.05l8.8 4.95q.05.85 3.05 4.35 2.95-3.45 3-4.3l8.8-5"/><path fill="#e6e1a5" d="m31 1.65-.05-.05-8.8 5q-.05.85-3 4.3-3-3.5-3.05-4.35L7.3 1.6h-.05l4.95 8.8 1.3.65 3.2 2.5-3.2 2.85-.4.3q-2.4 1.95-3.3 2.4-.15-1.5.6-2.65l.2-.2v-.1l-.1-1-.05-.15h-.15l-1.1.15h-.1l-.2.3q-.85 1.25-.95 2.85t.6 3q-.55.35-.45 1l-6.7 5.05.25 3.45 3.45.3.05-.05 5.2-6.75.75-.3 2.4.6h.75q1.55-.15 2.8-1l.3-.2.05-.05.15-1.1v-.2h-.2l-1-.1h-.05l-.25.15q-1.15.8-2.55.65.45-.9 2.45-3.3l3.2-3.6q4.65 4.95 5.6 6.9-1.5.15-2.65-.6l-.2-.2-.1.05-1 .1h-.15v.15l.15 1.1v.1l.3.2q1.25.85 2.85.95l1.2-.05 1.8-.55q.35.55 1 .45l5.05 6.7 3.45-.25.3-3.45-6.8-5.25-.3-.75v-.2q.7-1.4.55-2.95-.1-1.55-.95-2.8l-.2-.3-.05-.05-1.15-.1-.15-.05v.2l-.1 1v.05l.15.25q.75 1.05.65 2.55l-3.25-2.35-3.55-3.15 3.55-2.75.85-.35 5-8.75v-.05"/></g><g fill="none" stroke-linecap="round" stroke-linejoin="round" stroke-width=".1"><path stroke="#5a4b6e" d="M32.35 2.3h2.5v17.75q0 1.8-.5 3.85m-28-21.1-.3-.5H3.7v17.75q0 1.75.5 3.75l.15-.1M26.5 2.8l.8-.5H11.25m15 13.75.15-2.25h.05M6.5 22.05l.35-.3.15-.5q-.55-1.6-.35-3.3t1.15-3.1l.5-.7.5-.1.05-.05h.05m2.9 11.75-.65-.2M29.6 29l-2.4-3.2-.45-.15M7.2 30.9q3.8 6.75 10.5 10.65l.5.5h2.15l.4-.35.1-.15q6.55-3.8 10.4-10.35l-.8-1.1M11.4 11.8h-.05l-.9-1.7"/><path stroke="#8c82a0" d="m11.15 25.55-2.3 3.05q1.75 3.5 4.6 6.4v-8.95l-1.1-.15-.55-.15-.6-.2h-.05m.25-13.75.55.05 1.5.95v2l-1.6 1.3v-.05l-.1-.75v-1.55h-.05l-1.55.1L8.9 14l-.05.05-.5.1-.5.7q-.95 1.4-1.15 3.1t.35 3.3l-.15.5-.55.45.15-.15-.2-2V4.9h1.3l2.85 5.2.95 1.7m14.85 4.25-1.15-.95v-2.55l.05-.05 1.05-.65.55-.05h.05l3.9-6.9h1.55v15.15l-.2 2.25-1-.75v-.05q.65-1.65.45-3.4-.2-1.8-1.2-3.2l-.15-.3-.3-.45-.5-.1h-.1l-1.3-.2-1.5-.05-.15 2.3-.05-.05M6.35 2.8l.45.8H5v16.45l.35 2.9v.1l-1 .65-4.3 3.2.4 5.25 5.25.45.1-.05h.1l1.3-1.65.85-1.05q3.7 6.85 10.45 10.65l.25.25h1.05l.3-.25q6.55-3.75 10.35-10.4L29.6 29q-1.8 3.3-4.5 6v-9h.05l.6-.1.5-.1.5-.15.5.15 5.15 6.85 5.25-.4.2-.05.45-5.25-3.95-3.05-1.1-.85.3-3V3.6h-1.9l.7-1.3.45-.8L31.4.1l-.15.1-.05-.05-4.7 2.65-1.4.8H13.55l-2.3-1.3-4-2.25-.1.1-.1-.05-.7.7v.05l-.7.65.7 1.3z"/><path stroke="#e6e1a5" d="m30.95 1.6-8.8 5q-.05.85-3 4.3-3-3.5-3.05-4.35L7.3 1.6h-.05l4.95 8.8 1.3.65 3.2 2.5-3.2 2.85-.4.3q-2.4 1.95-3.3 2.4-.15-1.5.6-2.65l.2-.2v-.1l-.1-1-.05-.15h-.15l-1.1.15h-.1l-.2.3q-.85 1.25-.95 2.85t.6 3q-.55.35-.45 1l-6.7 5.05.25 3.45 3.45.3.05-.05 5.2-6.75.75-.3 2.4.6h.75q1.55-.15 2.8-1l.3-.2.05-.05.15-1.1v-.2h-.2l-1-.1h-.05l-.25.15q-1.15.8-2.55.65.45-.9 2.45-3.3l3.2-3.6q4.65 4.95 5.6 6.9-1.5.15-2.65-.6l-.2-.2-.1.05-1 .1h-.15v.15l.15 1.1v.1l.3.2q1.25.85 2.85.95l1.2-.05 1.8-.55q.35.55 1 .45l5.05 6.7 3.45-.25.3-3.45-6.8-5.25-.3-.75v-.2q.7-1.4.55-2.95-.1-1.55-.95-2.8l-.2-.3-.05-.05-1.15-.1-.15-.05v.2l-.1 1v.05l.15.25q.75 1.05.65 2.55l-3.25-2.35-3.55-3.15 3.55-2.75.85-.35 5-8.75v-.05l-.05-.05z"/></g></svg>