<svg xmlns="http://www.w3.org/2000/svg" width="27.3" height="42"><g fill-rule="evenodd"><path fill="#bcbec0" d="M14.05 16.6v1.05q0 .3.55.85l2.6 2.4v-1.15l-.5-.85-2.5-2.25-.1-.15-.05.1m.05-2.75-.05.1V15l.5.8 2.55 2.3.1.15V17.1l-.5-.85-2.6-2.4m.1-6.75-.1-.1-.05.1v5.2q0 .35.5.85l2.65 2.4v-1.1l-3-7.35M5.4 24.85l-.05-.05-2.6 2.4-.5.85.05 3.75 3.1 1.6v-8.55m.65-.05v1.1l.5.85 2.55 2.3.05.15.05-.1v-1.05q0-.35-.5-.85l-1.15-1v-.05l-1.5-1.35m-.8-2.45-.05-.1-.05.15-2.55 2.3-.45.65v1.3l.05-.1 2.55-2.3.5-.85v-1.05M9.2 26.4v-1.05q0-.2-.5-.85l-2.55-2.25-.1-.15v1.15l.5.85 2.6 2.4.05-.1m1.45-4.8-.55.85V35.9l2.75 1.45.4-18.15-2.6 2.4m.95-4.75h.05l1.1-1.05q.45-.45.55-.8l-.05-1.15-2.6 2.4-.55.85v1.05l.05.1.1-.15 1.35-1.25m1.65-.35-.1.15-2.5 2.25-.55.85v1.05l.05.1 1.45-1.4h.05l1.1-1q.5-.5.5-.85V16.5m0-9.5-.1.1-3.05 7.35.05 1.1 1.45-1.4h.05l1.1-1q.55-.55.55-.85L13.25 7m12.8 26.75-.2.15-12.25 6.4-12.3-6.5v-9.85l4.35-6.35 3.1 4.75.6-12.15 4.3-7.85L18 10.2l.6 12.15 3.1-4.75 4.35 6.35v9.8m-4.8-6.3-1.45 1.4h-.05l-1.6 1.85v4.7l3.15-1.7v-6.15l-.05-.1m0-2.65-1.45 1.35v.05h-.05l-1.1 1q-.5.5-.5.85v1.15l.1-.15 2.55-2.3.5-.85v-1.05l-.05-.05m0-2.7-.05.15-2.55 2.25q-.5.55-.5.85v1.15l2.65-2.4.5-.85V22.2l-.05-.1m3.95 3.25-.45-.65-2.55-2.3-.1-.15v1.15l.5.85 1.1 1h.05l1.45 1.4v-1.3"/><path d="m14.2 7.1 3 7.35v1.1l-2.65-2.4q-.5-.5-.5-.85V7.1l.05-.1.1.1m-.1 6.75 2.6 2.4.5.85v1.15l-.1-.15-2.55-2.3-.5-.8v-1.05l.05-.1m-.05 2.75.05-.1.1.15 2.5 2.25.5.85v1.15l-2.6-2.4q-.55-.55-.55-.85V16.6m5.6 2.05 2.05-3.1 5.4 7.95.2.35V34.8l-.65.35-.25.1-12 6.3-.2.15-.6.3L0 34.85v-11l5.65-8.3 2.05 3.1.35-8.25.05-.3.1-.25L13.65 0l5.6 10.1.4 8.55m5.55 6.7v1.3l-1.45-1.4h-.05l-1.1-1-.5-.85v-1.15l.1.15 2.55 2.3.45.65m-3.95-3.25.05.1v1.05l-.5.85-2.65 2.4v-1.15q0-.3.5-.85l2.55-2.25.05-.15m0 2.7.05.05v1.05l-.5.85-2.55 2.3-.1.15v-1.15q0-.35.5-.85l1.1-1h.05v-.05l1.45-1.35m0 2.65.05.1v6.15l-3.15 1.7v-4.7l1.6-1.85h.05l1.45-1.4m4.8 6.3v-9.8L21.7 17.6l-3.1 4.75L18 10.2l-4.35-7.85-4.3 7.85-.6 12.15-3.1-4.75-4.35 6.35v9.85l12.3 6.5 12.25-6.4.2-.15M13.25 7l.05 5.3q0 .3-.55.85l-1.1 1h-.05l-1.45 1.4-.05-1.1 3.05-7.35.1-.1m0 9.5v1.15q0 .35-.5.85l-1.1 1h-.05l-1.45 1.4-.05-.1v-1.05l.55-.85 2.5-2.25.1-.15m-1.65.35-1.35 1.25-.1.15-.05-.1V17.1l.55-.85 2.6-2.4.05 1.15q-.1.35-.55.8l-1.1 1.05h-.05m-.95 4.75 2.6-2.4-.4 18.15-2.75-1.45V22.45l.55-.85M9.2 26.4l-.05.1-2.6-2.4-.5-.85V22.1l.1.15L8.7 24.5q.5.65.5.85v1.05m-3.95-4.05v1.05l-.5.85-2.55 2.3-.05.1v-1.3l.45-.65 2.55-2.3.05-.15.05.1m.8 2.45 1.5 1.35v.05l1.15 1q.5.5.5.85v1.05l-.05.1-.05-.15-2.55-2.3-.5-.85v-1.1m-.65.05v8.55l-3.1-1.6-.05-3.75.5-.85 2.6-2.4.05.05"/><path fill="#555a64" d="M19.25 10.1 13.65 0 8.1 10.1l-.4 8.55-2.05-3.1L0 23.85v11L13.6 42l13.7-7.2V23.85l-5.6-8.3-2.05 3.1-.4-8.55m-5.6-7.75L18 10.2l.6 12.15 3.1-4.75 4.35 6.35v9.8L13.6 40.3 1.3 33.8v-9.85l4.35-6.35 3.1 4.75.6-12.15 4.3-7.85"/><path fill="#7d8791" d="m10.65 21.6 2.6-2.4-.4 18.15-2.75-1.45V22.45l.55-.85m-4.6 4.3v-1.1l2.65 2.4q.5.5.5.85l-.1 1-2.55-2.3-.5-.85m-3.3 1.3 2.65-2.35v8.55l-3.1-1.6-.05-3.75.5-.85m2.45-4.95.05 1.15q0 .35-.5.85l-2.6 2.4v-1.3l.45-.65 2.6-2.45m3.5 2.25.5.85-.05 1.15-2.6-2.4-.5-.85V22.1l2.65 2.4m4.05-8.7-2.6 2.45-.05-1.15.55-.85 2.6-2.4.05 1.15-.55.8m-2.1 3.1 2.6-2.4v1.15q0 .35-.5.85l-2.6 2.4-.05-1.15.55-.85m-.55-4.45L13.25 7l.05 5.3q0 .3-.55.85l-2.6 2.4-.05-1.1m8.05 16.25 3.1-3.25.05 6.25-3.15 1.7v-4.7m.5-3.5 2.65-2.35v1.05l-.5.85-2.65 2.45v-1.15q0-.35.5-.85m2.6-5.1.05 1.15-.5.85-2.65 2.4v-1.15l.5-.85 2.6-2.4m3.95 3.25v1.3l-2.6-2.4q-.5-.5-.5-.85v-1.15l2.65 2.45.45.65M18 10.2l-4.35-7.85-4.3 7.85-.6 12.15-3.1-4.75-4.35 6.35v9.85l12.3 6.5 12.45-6.55v-9.8L21.7 17.6l-3.1 4.75L18 10.2m-3.9 6.3 2.6 2.4.5.85v1.15l-2.6-2.4q-.55-.55-.55-.85l.05-1.15m0-2.65 2.6 2.4.5.85v1.15l-2.65-2.45-.5-.8.05-1.15m-.05-1.55L14.1 7l3.1 7.45v1.1l-2.65-2.4q-.5-.5-.5-.85"/><path fill="#555a64" d="m13.25 7-3.15 7.45.05 1.1 2.6-2.4q.55-.55.55-.85L13.25 7m.85 0-.05 5.3q0 .35.5.85l2.65 2.4v-1.1L14.1 7m-.85 12.2-2.6 2.4-.55.85V35.9l2.75 1.45.4-18.15M5.4 24.85 2.75 27.2l-.5.85.05 3.75 3.1 1.6v-8.55m15.85 2.6-3.1 3.25v4.7l3.15-1.7-.05-6.25"/><path fill="#ccc4a4" d="m9.2 25.35-.5-.85-2.65-2.4v1.15l.5.85 2.6 2.4.05-1.15m-3.15-.55v1.1l.5.85 2.55 2.3.1-1q0-.35-.5-.85l-2.65-2.4m-.8-1.4-.05-1.15-2.6 2.45-.45.65v1.3l2.6-2.4q.5-.5.5-.85m8-6.9-2.6 2.4-.55.85.05 1.15 2.6-2.4q.5-.5.5-.85V16.5m-3.1 1.75 2.6-2.45.55-.8-.05-1.15-2.6 2.4-.55.85.05 1.15m6.55-2-2.6-2.4-.05 1.15.5.8 2.65 2.45V17.1l-.5-.85m0 2.65-2.6-2.4-.05 1.15q0 .3.55.85l2.6 2.4v-1.15l-.5-.85m4.6 4.35-.05-1.15-2.6 2.4-.5.85v1.15l2.65-2.4.5-.85m3.9 3.4v-1.3l-.45-.65-2.65-2.45v1.15q0 .35.5.85l2.6 2.4m-3.9-1.8-2.65 2.35q-.5.5-.5.85v1.15l2.65-2.45.5-.85v-1.05"/></g></svg>