<svg xmlns="http://www.w3.org/2000/svg" width="26.85" height="38.7"><g fill-rule="evenodd"><path fill="#bcbec0" d="m15.85 4.05-.75-.35q0-.65-.7-1.05l-.8-.15q-1.05 0-1.75.9-2.8-1.35-5.25-1.35l-1.3.15.05.15 1.4.95-2.35-.15-2.3.25v.15Q5.35 5.35 7.25 10l1.7 4.05q1.05 2.9 4 5.2l2.7 1.7-1.3-3.8.75-.75 1-.45.05.05 1.2.8 1.3.85.5.1q.9 0 1-.35l-.15-.5q.7-.2.6-.45h-.2q-.65 0-.65-.2-.5-1.2-.05-1.7l.45-.4.65-.15.25.3.1.55h.05q.4 0 .65-1.05l.9-.3q.5-.35.55-1.4.7-.7-.05-1.3l-1.15.1-.4-.05q-.65-.05-1.05-.9.05-.5-1.5-1.95L17.4 6.4q-.45-.55-.7-1.55l-.85-.8m-1-2.35L16 2.9q1.5.75 1.75 1.7.1.65.5 1.15l.25.25h7.35v14.05q0 3.6-2.5 8.2-3.2 5.9-8.95 9.2l-.25.25H13.1l-.25-.25q-5.75-3.3-8.95-9.2-2.5-4.6-2.5-8.2V6h2.1L1.55 4.45Q.9 4.05 1 3.35q0-.75.8-.95l2.4-.3q.1-.75.85-.95L6.6 1q2.55 0 5 1.15Q13.2 1 14.85 1.7M12.5 5.85q-.4-1.2-.1-2.1.15-.55.9-.65h.05q.8 0 .65.5-.2.85.1 1.8l-.25.55-.75.2q-.55 0-.6-.3m7.15 3.25.15.05.1.7-.1.65-.05.15v.5q.15.8-.25 1.6l-.1.15-.25-.35.1-1-.35-.9-.4-.4-1.35-.45 1.05-.4 1.45-.3m-5.9 23.75 10.75-10.7.25-2.1v-2.8l-11 10.95-11-11.05v2.9l.25 2 10.75 10.8"/><path d="M14.85 1.7q-1.65-.7-3.25.45Q9.15 1 6.6 1l-1.55.15q-.75.2-.85.95l-2.4.3q-.8.2-.8.95-.1.7.55 1.1L3.5 6H1.4v14.05q0 3.6 2.5 8.2 3.2 5.9 8.95 9.2l.25.25h1.05l.25-.25q5.75-3.3 8.95-9.2 2.5-4.6 2.5-8.2V6H18.5l-.25-.25q-.4-.5-.5-1.15-.25-.95-1.75-1.7l-1.15-1.2m1 2.35.85.8q.25 1 .7 1.55L19.15 8q1.55 1.45 1.5 1.95.4.85 1.05.9l.4.05 1.15-.1q.75.6.05 1.3-.05 1.05-.55 1.4l-.9.3q-.25 1.05-.65 1.05h-.05l-.1-.55-.25-.3-.65.15-.45.4q-.45.5.05 1.7 0 .2.65.2h.2q.1.25-.6.45l.15.5q-.1.35-1 .35l-.5-.1-1.3-.85-1.2-.8-.05-.05-1 .45-.75.75 1.3 3.8-2.7-1.7q-2.95-2.3-4-5.2L7.25 10Q5.35 5.35 2.1 3.55V3.4l2.3-.25 2.35.15-1.4-.95-.05-.15 1.3-.15q2.45 0 5.25 1.35.7-.9 1.75-.9l.8.15q.7.4.7 1.05l.75.35m2.85.35.25.6h7.9v15.05q0 3.75-2.55 8.55-3.35 6.2-9.3 9.65l-.45.45H12.7l-.45-.45Q6.3 34.8 2.95 28.6.4 23.8.4 20.05V5h.2q-.75-.85-.6-1.8.15-1.4 1.55-1.75L3.5 1.1Q4 .35 4.8.2L6.6 0q2.5 0 4.9 1.05 1.85-1.1 3.75-.25l1.5 1.35q1.65.95 1.95 2.25m.95 4.7-1.45.3-1.05.4 1.35.45.4.4.35.9-.1 1 .25.35.1-.15q.4-.8.25-1.6v-.5l.05-.15.1-.65-.1-.7-.15-.05M12.5 5.85q.05.3.6.3l.75-.2.25-.55q-.3-.95-.1-1.8.15-.5-.65-.5h-.05q-.75.1-.9.65-.3.9.1 2.1m1.25 27L3 22.05l-.25-2v-2.9l11 11.05 11-10.95v2.8l-.25 2.1-10.75 10.7"/><path fill="#6e8296" d="m19.35 9.7.5-.3-.05-.25-1.6.25-1.05.4 1.35.45.4.4.35.9-.1 1 .25.35.1-.15q.4-.8.25-1.6l.05-.4-.15-.2-.3-.25v-.6m-5.5-3.75.25-.55q-.3-.95-.1-1.8.15-.5-.7-.5-1.65.2-.8 2.75.05.3.6.3l.75-.2"/><path fill="#c0b998" d="M20.25 9.8v.2l.1-.15-.1-.05"/><path fill="#ccc4a4" d="m24.5 22.15.25-2.1v-2.8l-11 10.95-11-11.05v2.9l.25 2 10.75 10.8 10.75-10.7M19.85 9.4l-.5.3v.3l.5-.3.4.1-.4-.4m.15 1.15h-.35l.15.2h.15l.05-.2"/><path fill="#ccc4a4" d="m19.85 9.7-.5.3v.3l.3.25H20l.35-.4-.1-.15v-.2l-.4-.1"/><path fill="#eee6dc" d="m21.85 13.8-1.05.2.25.3.1.55q.45 0 .7-1.05m-2.1 2.45.25.65q.7-.2.6-.45h-.2q-.65 0-.65-.2"/><path fill="#555a64" d="M.6 5H.4v15.05q0 3.75 2.55 8.55 3.35 6.2 9.3 9.65l.45.45h1.85l.45-.45q5.95-3.45 9.3-9.65 2.55-4.8 2.55-8.55V5h-7.9l-.25-.6q-.3-1.3-1.95-2.25L15.25.8q-1.9-.85-3.75.25Q9.1 0 6.6 0L4.8.2q-.8.15-1.3.9l-1.95.35Q.15 1.8 0 3.2q-.15.95.6 1.8m17.15-.4q.1.65.5 1.15l.25.25h7.35v14.05q0 3.6-2.5 8.2-3.2 5.9-8.95 9.2l-.25.25H13.1l-.25-.25q-5.75-3.3-8.95-9.2-2.5-4.6-2.5-8.2V6h2.1L1.55 4.45Q.9 4.05 1 3.35q0-.75.8-.95l2.4-.3q.1-.75.85-.95L6.6 1q2.55 0 5 1.15Q13.2 1 14.85 1.7q.85.55 1.15 1.2 1.5.75 1.75 1.7"/><path fill="#7d8791" d="m24.75 20.05-.25 2.1-10.75 10.7L3 22.05l-.25-2v-2.9l11 11.05 11-10.95v2.8m-6.5-14.3q-.4-.5-.5-1.15-.25-.95-1.75-1.7-.3-.65-1.15-1.2-1.65-.7-3.25.45Q9.15 1 6.6 1l-1.55.15q-.75.2-.85.95l-2.4.3q-.8.2-.8.95-.1.7.55 1.1L3.5 6H1.4v14.05q0 3.6 2.5 8.2 3.2 5.9 8.95 9.2l.25.25h1.05l.25-.25q5.75-3.3 8.95-9.2 2.5-4.6 2.5-8.2V6H18.5l-.25-.25m-3.85-3.1q.7.4.7 1.05l.75.35.85.8q.25 1 .7 1.55L19.15 8q1.55 1.45 1.5 1.95.4.85 1.05.9l1.55-.05q.75.6.05 1.3-.05 1.05-.55 1.4l-.9.3q-.25 1.05-.7 1.05l-.1-.55-.25-.3-.65.15-.45.4q-.45.5.05 1.7 0 .2.65.2h.2q.1.25-.6.45l.15.5q-.1.35-1 .35l-.5-.1-2.55-1.7-1 .45-.75.75 1.3 3.8q-1.25-.55-2.7-1.7-2.95-2.3-4-5.2L7.25 10Q5.35 5.35 2.1 3.55V3.4l2.3-.25 2.35.15L5.3 2.2l1.3-.15q2.45 0 5.25 1.35.7-.9 1.75-.9l.8.15"/><path fill="#ccc4a4" d="m20.35 10.15-.35.4-.05.2h-.15l-.05.4q.15.8-.25 1.6l-.1.15-.25-.35.1-1-.35-.9-.4-.4-1.35-.45 1.05-.4 1.6-.25.05.25.4.4.1.05-.1.15.1.15M14.1 5.4l-.25.55-.75.2q-.55 0-.6-.3-.85-2.55.8-2.75.85 0 .7.5-.2.85.1 1.8m6.7 8.6 1.05-.2.9-.3q.5-.35.55-1.4.7-.7-.05-1.3l-1.55.05q-.65-.05-1.05-.9.05-.5-1.5-1.95L17.4 6.4q-.45-.55-.7-1.55l-.85-.8-.75-.35q0-.65-.7-1.05l-.8-.15q-1.05 0-1.75.9-2.8-1.35-5.25-1.35l-1.3.15 1.45 1.1-2.35-.15-2.3.25v.15Q5.35 5.35 7.25 10l1.7 4.05q1.05 2.9 4 5.2 1.45 1.15 2.7 1.7l-1.3-3.8.75-.75 1-.45 2.55 1.7.5.1q.9 0 1-.35l-.15-.5-.25-.65q-.5-1.2-.05-1.7l.45-.4.65-.15"/></g></svg>