<svg xmlns="http://www.w3.org/2000/svg" width="32" height="42"><g fill-rule="evenodd"><path fill="#bcbec0" d="m26.85 7.9-.5.05-.1-.7-.45-.75-1.1 5.05-2.2.55 1.9 13.95v.25l1.3-2.6.65-1.05 1.7 2.6q1.7 3.05 1.75 5.25l.3 4.45-13.9 4.9-14.25-4.7.3-4.65q.1-2.2 1.85-5.25l1.75-2.6 1.65 3.1 1.75-13.7-2.25-.5-1.05-5.1-.45.75-.1.7-.5-.05-.3-.4.15-.35.1-2.15.35.15q.3-.7 1-.7l.55.1q.8 0 1.75 2.05l1.75-.65 1-1.75.9 1.7h.45l.9-1.7.9 1.7h.45l.9-1.7.9 1.7h.45l.9-1.7.9 1.7h.45l.9-1.7.45.9.75.85 1.75.65.6-1L25 4.5l.55-.1q.7 0 1 .7l.3-.15.15 2.2.15.35-.3.4M12.2 10.2l-.55.95q-.6 1.1-.6 1.9v9h2.3v-9q0-.8-.55-1.9l-.6-.95m5.45 1.9q0-1.2-.85-2.95l-.9-1.5-.9 1.5q-.9 1.75-.9 2.95v20.4h3.55V12.1m2.7-.95-.6-.95-.6.95q-.6 1.1-.6 1.9v9h2.35v-9q0-.8-.55-1.9"/><path d="m26.85 7.9.3-.4-.15-.35-.15-2.2-.3.15q-.3-.7-1-.7l-.55.1-1.2 1.05-.6 1-1.75-.65-.75-.85-.45-.9-.9 1.7h-.45l-.9-1.7-.9 1.7h-.45l-.9-1.7-.9 1.7h-.45l-.9-1.7-.9 1.7h-.45l-.9-1.7-1 1.75-1.75.65Q7.55 4.5 6.75 4.5l-.55-.1q-.7 0-1 .7l-.35-.15-.1 2.15-.15.35.3.4.5.05.1-.7.45-.75L7 11.55l2.25.5-1.75 13.7-1.65-3.1-1.75 2.6Q2.35 28.3 2.25 30.5l-.3 4.65 14.25 4.7 13.9-4.9-.3-4.45q-.05-2.2-1.75-5.25l-1.7-2.6-.65 1.05-1.3 2.6v-.25L22.5 12.1l2.2-.55 1.1-5.05.45.75.1.7.5-.05m2-1.35.55 1.15-1.55 2.2-.85.05-.7 3.35-1.65.4.9 6.7.75-1.1 1.5 2q1 1.25 2.05 3.2 1.75 3.3 1.85 5.95l.3 6-15.2 5.4-.55.15L0 36.7l.4-6.3q.1-2.6 1.9-5.9l2.1-3.2L6 19.35l.35.55.8-6.2-1.7-.4-.7-3.35-.85-.1L2.35 7.7l.55-1.15L3.15 2l1.6.7q.7-.4 1.45-.4l1 .15q1.05.2 2 1.5L11.25 0l1.15 2.15L13.5 0l1.15 2.15 1.1-2.1 1.15 2.1L18 0l1.15 2.15 1.1-2.1 2 3.75.2.25q1.1-1.35 2.1-1.55l1-.2 1.45.4 1.6-.65.25 4.5m-8.5 4.6q.55 1.1.55 1.9v9h-2.35v-9q0-.8.6-1.9l.6-.95.6.95m-2.7.95v20.4H14.1V12.1q0-1.2.9-2.95l.9-1.5.9 1.5q.85 1.75.85 2.95m-5.45-1.9.6.95q.55 1.1.55 1.9v9h-2.3v-9q0-.8.6-1.9l.55-.95"/><path fill="#876e5f" d="m12.2 10.2-.55.95q-.6 1.1-.6 1.9v9h2.3v-9q0-.8-.55-1.9l-.6-.95m5.45 1.9q0-1.2-.85-2.95l-.9-1.5-.9 1.5q-.9 1.75-.9 2.95v20.4h3.55V12.1m2.7-.95-.6-.95-.6.95q-.6 1.1-.6 1.9v9h2.35v-9q0-.8-.55-1.9"/><path fill="#e6dc7d" d="m24.4 26.3-1.9-14.2 2.2-.55 1.1-5.05.45.75.1.7.5-.05.3-.4-.15-.35-.15-2.2-.3.15q-.3-.7-1-.7l-.55.1-1.2 1.05-.6 1-1.75-.65-.75-.85-.45-.9-.9 1.7h-.45l-.9-1.7-.9 1.7h-.45l-.9-1.7-.9 1.7h-.45l-.9-1.7-.9 1.7h-.45l-.9-1.7-1 1.75-1.75.65Q7.55 4.5 6.75 4.5l-.55-.1q-.7 0-1 .7l-.35-.15-.1 2.15-.15.35.3.4.5.05.1-.7.45-.75L7 11.55l2.25.5-1.75 13.7-1.65-3.1-1.75 2.6Q2.35 28.3 2.25 30.5l-.3 4.65 14.25 4.7 13.9-4.9-.3-4.45q-.05-2.2-1.75-5.25l-1.7-2.6-1.95 3.65M11.65 11.15l.55-.95.6.95q.55 1.1.55 1.9v9h-2.3v-9q0-.8.6-1.9m5.15-2q.85 1.75.85 2.95v20.4H14.1V12.1q0-1.2.9-2.95l.9-1.5.9 1.5m2.95 1.05.6.95q.55 1.1.55 1.9v9h-2.35v-9q0-.8.6-1.9l.6-.95"/><path fill="#5f5046" d="M12.4 2.15 11.25 0 9.2 3.95q-.95-1.3-2-1.5l-1-.15q-.75 0-1.45.4L3.15 2 2.9 6.55 2.35 7.7 3.9 9.85l.85.1.7 3.35 1.7.4-.8 6.2-.35-.55-1.6 1.95-2.1 3.2Q.5 27.8.4 30.4L0 36.7 16.25 42 32 36.45l-.3-6q-.1-2.65-1.85-5.95l-2.05-3.2-1.5-2-.75 1.1-.9-6.7 1.65-.4.7-3.35.85-.05 1.55-2.2-.55-1.15-.25-4.5-1.6.65-1.45-.4-1 .2q-1 .2-2.1 1.55l-2.2-4-1.1 2.1L18 0l-1.1 2.15-1.15-2.1-1.1 2.1L13.5 0l-1.1 2.15m10.1 9.95 1.9 14.2 1.95-3.65 1.7 2.6q1.7 3.05 1.75 5.25l.3 4.45-13.9 4.9-14.25-4.7.3-4.65q.1-2.2 1.85-5.25l1.75-2.6 1.65 3.1 1.75-13.7-2.25-.5-1.05-5.1-.45.75-.1.7-.5-.05-.3-.4.15-.35.1-2.15.35.15q.3-.7 1-.7l.55.1q.8 0 1.75 2.05l1.75-.65 1-1.75.9 1.7h.45l.9-1.7.9 1.7h.45l.9-1.7.9 1.7h.45l.9-1.7.9 1.7h.45l.9-1.7.45.9.75.85 1.75.65.6-1L25 4.5l.55-.1q.7 0 1 .7l.3-.15.15 2.2.15.35-.3.4-.5.05-.1-.7-.45-.75-1.1 5.05-2.2.55"/></g></svg>