<svg xmlns="http://www.w3.org/2000/svg" width="26.5" height="42"><g fill-rule="evenodd"><path fill="#bcbec0" d="M14.7 1.45h.2q3.25.1 4.95 2.15 1.5 1.75 1.5 4.55v.65l.5 1.05h3.35v13.6q0 3.5-2.4 7.95-3.15 5.75-8.75 8.95l-.2.25h-.9l-.2-.25Q7.15 37.15 4 31.4q-2.45-4.45-2.45-7.95V9.85h2.2l1.65-2.6-.3-.3L6.45 5.3q3.4-3.85 8.25-3.85m.2 5.85-.05-.05-1.6-1.35.6 2.75.05.15q.15.65 1.1.8l.55.15-.55.15q-1.3.4-1.5.9-.2.6-.25 2.5-.05 2.15.45 2.65l2.4.8q2.2.8 2.35 1.2l-.05.9q-.1.5.05.7l.75 1.15 1.3-.2-.95-1.4-.15-.3q-.2-.45.3-.85l.7-.1.35 1.4q.3 1.3.5 1.4h.2l.95-.15q.6-.2.4-1.8v-.05q.2 0 .2-.8l-3.65-8.2Q18.8 8.75 17.3 8q-1.45-.75-2.35-.7h-.05m2.45-.35 2 1.5q0-1.95-1-3.2-1.1-1.3-3.35-1.4-3.9-.05-6.85 3.2l-.6.7Q8.95 6.45 11 5.5q2.15-.9 3.45-.05.8.5 1 1.35l.6-.1 1.3.25M19 11.2l1.7 3.75h-.35l-1.6-2.45-.9-.15q-.95-.4-1.05-1.65-.85-1.05-.55-1.9l.15.6q.25.65.6.95l1.05.4h.7q.3-.05.25.45m-7.3-3.1-1.75 2.4q-1.25 3.1 1.1 6.65-1.5-1.4-2.25-3.6-.45-1.35-.05-3.25l.5-1.65L11 8.1h.7m1.25-2.35q-5.1.6-7.45 5.85-1.2 2.7-1.45 5.55 1.9 2.2 5.6 3.35 4.05 1.3 5 2.1 1.1 1 2 2.5l.75 1.8q.3-1.75-1.7-5.6-1.65-3.1-.25-4-2-.15-2.55-.95t-.45-3.5q.1-2.9 1.15-3.1l-.7-2.2q-.25-1.35.05-1.8m-9 23.05 1.45 2.95h16l1.5-2.95H3.95"/><path d="M14.7 1.45q-4.85 0-8.25 3.85L5.1 6.95l.3.3-1.65 2.6h-2.2v13.6q0 3.5 2.45 7.95 3.15 5.75 8.75 8.95l.2.25h.9l.2-.25q5.6-3.2 8.75-8.95 2.4-4.45 2.4-7.95V9.85h-3.35l-.5-1.05v-.65q0-2.8-1.5-4.55-1.7-2.05-4.95-2.15h-.2M14.55 0h.25q3.9.1 6.05 2.7 1.8 2.25 1.8 5.4v.3h3.85v15.05q0 3.75-2.55 8.5-3.25 6.1-9.15 9.55l-.5.5h-2.1l-.5-.5q-5.85-3.45-9.15-9.55Q0 27.15 0 23.45V8.4h2.75l.6-.95-.3-.3 2.2-2.8Q9.15 0 14.55 0m-1.6 5.75q-.3.45-.05 1.8l.7 2.2q-1.05.2-1.15 3.1-.1 2.7.45 3.5t2.55.95q-1.4.9.25 4 2 3.85 1.7 5.6l-.75-1.8q-.9-1.5-2-2.5-.95-.8-5-2.1-3.7-1.15-5.6-3.35.25-2.85 1.45-5.55 2.35-5.25 7.45-5.85M11.7 8.1H11l-1.75.55-.5 1.65q-.4 1.9.05 3.25.75 2.2 2.25 3.6-2.35-3.55-1.1-6.65l1.75-2.4m7.3 3.1q.05-.5-.25-.45h-.7l-1.05-.4q-.35-.3-.6-.95l-.15-.6q-.3.85.55 1.9.1 1.25 1.05 1.65l.9.15 1.6 2.45h.35L19 11.2m-1.65-4.25-1.3-.25-.6.1q-.2-.85-1-1.35-1.3-.85-3.45.05-2.05.95-3.45 2.25l.6-.7Q11.1 3.8 15 3.85q2.25.1 3.35 1.4 1 1.25 1 3.2l-2-1.5m-2.45.35h.05q.9-.05 2.35.7 1.5.75 2.05 1.65l3.65 8.2q0 .8-.2.8v.05q.2 1.6-.4 1.8l-.95.15h-.2q-.2-.1-.5-1.4l-.35-1.4-.7.1q-.5.4-.3.85l.15.3.95 1.4-1.3.2-.75-1.15q-.15-.2-.05-.7l.05-.9q-.15-.4-2.35-1.2l-2.4-.8q-.5-.5-.45-2.65.05-1.9.25-2.5.2-.5 1.5-.9l.55-.15L15 9.6q-.95-.15-1.1-.8l-.05-.15-.6-2.75 1.6 1.35.05.05M3.95 28.8H22.9l-1.5 2.95h-16L3.95 28.8"/><path fill="#e6db7e" d="M16.45 9.45q-.15.6.35 1.25.1 1.25 1.05 1.65l.9.15 1.6 2.45h.35L19 11.2q.05-.5-.25-.45h-.7l-1.05-.4-.55-.9M11.7 8.1H11l-1.75.55-.5 1.65q-.85 3.95 2.3 6.85-2.35-3.55-1.1-6.65l1.75-2.4"/><path fill="#5f5046" d="M2.75 8.4H0v15.05q0 3.7 2.55 8.5 3.3 6.1 9.15 9.55l.5.5h2.1l.5-.5q5.9-3.45 9.15-9.55 2.55-4.75 2.55-8.5V8.4h-3.85v-.3q0-3.15-1.8-5.4Q18.7.1 14.8 0h-.25q-5.4 0-9.3 4.35l-2.2 2.8.3.3-.6.95m1.2 20.4 1.45 2.95h16l1.5-2.95H3.95M14.7 1.45h.2q3.25.1 4.95 2.15 1.5 1.75 1.5 4.55v.65l.5 1.05h3.35v13.6q0 3.5-2.4 7.95-3.15 5.75-8.75 8.95l-.2.25h-.9l-.2-.25Q7.15 37.15 4 31.4q-2.45-4.45-2.45-7.95V9.85h2.2l1.65-2.6-.3-.3L6.45 5.3q3.4-3.85 8.25-3.85"/><path fill="#2d2d2d" d="M12.9 7.55q-.25-1.35.05-1.8-5.1.6-7.45 5.85-1.2 2.7-1.45 5.55 1.9 2.2 5.6 3.35 4.05 1.3 5 2.1 1.1 1 2 2.5l.75 1.8q.3-1.75-1.7-5.6-1.65-3.1-.25-4-2-.15-2.55-.95t-.45-3.5q.1-2.9 1.15-3.1l-.7-2.2m3.9 3.15q-.5-.65-.35-1.25l.55.9 1.05.4h.7q.3-.05.25.45l1.7 3.75h-.35l-1.6-2.45-.9-.15q-.95-.4-1.05-1.65m-.7 6.05q2.2.8 2.35 1.2v1.6l.75 1.15 1.3-.2-1.1-1.7q-.2-.45.3-.85l.7-.1.35 1.4q.3 1.3.5 1.4l1.15-.15q.6-.2.4-1.85.2 0 .2-.8l-3.65-8.2Q18.8 8.75 17.3 8q-1.35-.7-2.45-.75l-1.6-1.35.65 2.9q.15.65 1.1.8l.55.15-.55.15q-1.3.4-1.5.9l-.25 2.5q-.05 2.15.45 2.65l2.4.8M11 8.1h.7l-1.75 2.4q-1.25 3.1 1.1 6.65-3.15-2.9-2.3-6.85l.5-1.65L11 8.1m5.05-1.4 1.3.25 2 1.5q0-4.4-4.35-4.6-3.9-.05-6.85 3.2l-.6.7Q8.95 6.45 11 5.5q2.15-.9 3.45-.05.8.5 1 1.35l.6-.1"/><path fill="#e6dc7d" d="M12.95 5.75q-.3.45-.05 1.8l.7 2.2q-1.05.2-1.15 3.1-.1 2.7.45 3.5t2.55.95q-1.4.9.25 4 2 3.85 1.7 5.6l-.75-1.8q-.9-1.5-2-2.5-.95-.8-5-2.1-3.7-1.15-5.6-3.35.25-2.85 1.45-5.55 2.35-5.25 7.45-5.85m5.5 12.2q-.15-.4-2.35-1.2l-2.4-.8q-.5-.5-.45-2.65l.25-2.5q.2-.5 1.5-.9l.55-.15L15 9.6q-.95-.15-1.1-.8l-.65-2.9 1.6 1.35q1.1.05 2.45.75 1.5.75 2.05 1.65l3.65 8.2q0 .8-.2.8.2 1.65-.4 1.85l-1.15.15q-.2-.1-.5-1.4l-.35-1.4-.7.1q-.5.4-.3.85l1.1 1.7-1.3.2-.75-1.15v-1.6M5.4 31.75 3.95 28.8H22.9l-1.5 2.95h-16m11.95-24.8-1.3-.25-.6.1q-.2-.85-1-1.35-1.3-.85-3.45.05-2.05.95-3.45 2.25l.6-.7Q11.1 3.8 15 3.85q4.35.2 4.35 4.6l-2-1.5m-2.45-5.5h-.2q-4.85 0-8.25 3.85L5.1 6.95l.3.3-1.65 2.6h-2.2v13.6q0 3.5 2.45 7.95 3.15 5.75 8.75 8.95l.2.25h.9l.2-.25q5.6-3.2 8.75-8.95 2.4-4.45 2.4-7.95V9.85h-3.35l-.5-1.05v-.65q0-2.8-1.5-4.55-1.7-2.05-4.95-2.15"/></g></svg>