<svg xmlns="http://www.w3.org/2000/svg" width="28.75" height="42"><g fill-rule="evenodd"><path d="m15.15 0 .5 1.75 4.25 7.3v.15l.7 3.4h1.25l-.45 2.55h.3v8.2h5l.25.25 1.8 11.8-.8.45L15.1 41.6l-.65.4-.7-.4L.8 35.85 0 35.4l1.8-11.8.2-.25h5v-8.2h.35L6.9 12.6h1.2l.7-3.4v-.1l.05-.05 4.2-7.3L13.6 0h1.55m4.35 14.15-.9-4.5-4.25-7.3-4.2 7.3-.9 4.5H8.5l.5 2.6h-.6v8.2H3.55l.55 5.5-1.55-2.65-1.05 7.05 9.3 4.25L12 31h4.7l1.2 8.15 9.35-4.3-1.1-7.05-1.55 2.65.6-5.5h-4.85v-8.2h-.6l.45-2.6h-.7m-3.85 9.95H13.1v-9h2.55v9"/><path fill="#bcbec0" d="M15.65 24.1v-9H13.1v9h2.55m3.85-9.95h.7l-.45 2.6h.6v8.2h4.85l-.6 5.5 1.55-2.65 1.1 7.05-9.35 4.3L16.7 31H12l-1.2 8.1-9.3-4.25 1.05-7.05 1.55 2.65-.55-5.5H8.4v-8.2H9l-.5-2.6h.75l.9-4.5 4.2-7.3 4.25 7.3.9 4.5"/><path fill="#e4dfa2" d="M15.65 24.1v-9H13.1v9h2.55"/><path fill="#6e4d3b" d="m14.45 35.1.3-.3.4.3-.4.3-.3-.3m-1.1 0 .3-.3.4.3-.4.3-.3-.3m-2.55 4 7.1.05L16.7 31H12l-1.2 8.1"/><path d="m-.6 13.8-.3.3.3.3.4-.3-.4-.3" style="fill:#e4dfa2" transform="translate(14.25 21)"/><path d="m14.75 34.8-.3.3.3.3.4-.3-.4-.3"/><path fill="#5a3c3c" d="M13.05 1.75 8.8 9.2l-.7 3.4H6.9l.45 2.55H7v8.2H2l-.2.25L0 35.4 14.45 42l.65-.4 13.65-6.2-1.8-11.8-.25-.25h-5v-8.2h-.3l.45-2.55H20.6l-.7-3.55-4.25-7.3-.5-1.75H13.6l-.55 1.75m4.85 37.4-7.1-.05-9.3-4.25 1.05-7.05 1.55 2.65-.55-5.5H8.4v-8.2H9l-.5-2.6h.75l.9-4.5 4.2-7.3 4.25 7.3.9 4.5h.7l-.45 2.6h.6v8.2h4.85l-.6 5.5 1.55-2.65 1.1 7.05-9.35 4.3"/><path fill="#cd5a5a" d="M15.65 15.1v9H13.1v-9h2.55m4.55-.95h-.7l-.9-4.5-4.25-7.3-4.2 7.3-.9 4.5H8.5l.5 2.6h-.6v8.2H3.55l.55 5.5-1.55-2.65-1.05 7.05 9.3 4.25L12 31h4.7l1.2 8.15 9.35-4.3-1.1-7.05-1.55 2.65.6-5.5h-4.85v-8.2h-.6l.45-2.6"/></g></svg>