<svg xmlns="http://www.w3.org/2000/svg" width="33.4" height="42"><g fill-rule="evenodd"><path d="m28.65 4.35.3-.4 3.8 3-1.7 2.15.05.65.1.3h.5l.85 2.35.25-.2.05 1 .05.05.5 1.4-.45.15v.25l.15 1.8-1.45.6v3.35l1.4.45v2.3l-1.5 1.65v1.6h1V32l-.75.45-.15.05v7.6L23.6 42h-.5L15 40.35H0v-7.9h.75L.8 20.4h15v-2.95l-1.45-.6.1-1.8.05-.25-.45-.15.5-1.4.05-.05.05-1 .2.2.9-2.35h.5l.1-.3.05-.65-1.7-2.15 3.8-3 .3.4q1.35-1.55 3.15-2.05l.1-.1V0h3.3v2.15l.3.2q1.75.6 3 2m.7 1.65-.75.95q-.8-2.45-3.3-3.2l-1.25-1V1.5h-.35v1.25l-1 .95q-1.25.3-2.2 1.2-.95.85-1.35 2.05L18.4 6l-1.45 1.2 1.1 1.4-.1 1.45-.5 1.45h-.55l-.8 2.25q1.35.45.9 1.1-.3.4-.6.35l-.3-.1-.05.8 1.35.55v5.4h-15V33.9h-.8v5h3.15v-5H4.3v-.35q.05-1 .75-1.65.7-.7 1.65-.7 1 0 1.7.7.7.65.75 1.65h.05v.35h-.5v5h3.15v-5h-.75v-.35q0-.95.7-1.65t1.7-.7 1.7.7.7 1.65h.05v.35h-.5v5l8.1 1.65h.2V34h-.45v-.35q.05-1 .75-1.7t1.7-.7q.95 0 1.65.7t.75 1.7h.05V34h-.5v5.65l2.65-.7v-7.3l.9-.5v-2.9h-1V24.6l1.5-1.6v-.65l-1.4-.45v-5.45l1.35-.55-.05-.8q-.45.4-.9-.25-.3-.4.3-.8l.6-.3-.8-2.25h-.55l-.5-1.45-.1-1.45 1.15-1.4-1.5-1.2m-2.3 10.2v2.05h-1.7V16.2h1.7m-6.85 8h1.65v4.5H20.2v-4.5m-11 6.05q-1.1-.8-2.5-.8t-2.4.75v-2.15h4.9v2.2m6.75-2.2v2.2q-1.05-.8-2.45-.8t-2.4.75v-2.15h4.85"/><path fill="#bcbec0" d="M15.95 28.05H11.1v2.15q1-.75 2.4-.75t2.45.8v-2.2m-6.75 2.2v-2.2H4.3v2.15q1-.75 2.4-.75t2.5.8m11-6.05v4.5h1.65v-4.5H20.2m6.85-8h-1.7v2.05h1.7V16.2M29.35 6l1.5 1.2-1.15 1.4.1 1.45.5 1.45h.55l.8 2.25-.6.3q-.6.4-.3.8.45.65.9.25l.05.8-1.35.55v5.45l1.4.45V23l-1.5 1.6v3.65h1v2.9l-.9.5v7.3l-2.65.7V34h.5v-.35h-.05q-.05-1-.75-1.7t-1.65-.7q-1 0-1.7.7t-.75 1.7V34h.45v6.55h-.2l-8.1-1.65v-5h.5v-.35h-.05q0-.95-.7-1.65t-1.7-.7-1.7.7-.7 1.65v.35h.75v5H8.7v-5h.5v-.35h-.05q-.05-1-.75-1.65-.7-.7-1.7-.7-.95 0-1.65.7-.7.65-.75 1.65v.35h.45v5H1.6v-5h.8V21.85h15v-5.4l-1.35-.55.05-.8.3.1q.3.05.6-.35.45-.65-.9-1.1l.8-2.25h.55l.5-1.45.1-1.45-1.1-1.4L18.4 6l.75.95q.4-1.2 1.35-2.05.95-.9 2.2-1.2l1-.95V1.5h.35v1.25l1.25 1q2.5.75 3.3 3.2l.75-.95"/><path fill="#6e4d3b" d="m7.9 36.5.3-.3.4.3-.4.3-.3-.3m.8-2.6H4.75v5H8.7v-5m5.9 2.7.3-.3.4.3-.4.3-.3-.3m.8-2.7v5-5m.05 5v-5h-3.6v5h3.6m10.35-1.7.3-.3.4.3-.4.3-.3-.3m-.9 0 .3-.3.4.3-.4.3-.3-.3m2.8-3.2h-3.95v6.55l3.95-.9V34"/><path fill="#c8b982" d="M23.5 40.55h.25V34h-.45v-.35q.05-1 .75-1.7t1.7-.7q.95 0 1.65.7t.8 1.7V34h-.5v5.65l2.65-.7v-7.3l.9-.5v-2.9h-1V24.6l1.5-1.6v-.65l-1.4-.45v-5.45l1.35-.55-.05-.8q-.45.4-.9-.25-.3-.4.3-.8l.6-.3-.8-2.25h-.55l-.5-1.45-.1-1.45 1.15-1.4-1.5-1.2-.75.95q-.8-2.45-3.3-3.2l-1.25-1V1.5h-.35v1.25l-1 .95q-2.7.65-3.55 3.25L18.4 6l-1.45 1.2 1.1 1.4-.1 1.45-.5 1.45h-.55l-.8 2.25q1.35.45.9 1.1-.3.4-.6.35l-.3-.1-.05.8 1.35.55v5.4h-15V33.9h-.8v5h3.15v-5H4.3v-.35q.05-1 .75-1.65.7-.7 1.65-.7 1 0 1.7.7.7.65.8 1.65v.35h-.5v5h3.15v-5h-.75v-.35q0-.95.7-1.65t1.7-.7 1.7.7.7 1.65v.35h-.5v5l8.1 1.65M11.1 30.2v-2.15h4.85v2.2q-1.05-.8-2.45-.8t-2.4.75m-1.9.05q-1.1-.8-2.5-.8t-2.4.75v-2.15h4.9v2.2m12.65-1.55H20.2v-4.5h1.65v4.5m3.5-10.45V16.2h1.7v2.05h-1.7"/><path fill="#91875a" d="M15.8 20.4H.8L.75 32.45H0v7.9h15L23.1 42h.5l8.05-1.9v-7.6l.9-.5v-5.2h-1v-1.6l1.5-1.65v-2.3l-1.4-.45v-3.35l1.45-.6-.15-2.05.45-.15-.55-1.45-.05-1-.25.2-.85-2.35h-.5l-.15-.95 1.7-2.15-3.8-3-.3.4q-1.25-1.4-3-2l-.3-.2V0h-3.3v2.2l-.1.1q-1.8.5-3.15 2.05l-.3-.4-3.8 3 1.7 2.15-.15.95h-.5l-.9 2.35-.2-.2-.1 1.05-.5 1.4.45.15-.15 2.05 1.45.6v2.95m-.4 18.5 8.1 1.65-8.1-1.65m8.15 1.65-8.1-1.65H1.6v-5h.8V21.85h15v-5.4l-1.35-.55.05-.8.3.1q.3.05.6-.35.45-.65-.9-1.1l.8-2.25h.55l.5-1.45.1-1.45-1.1-1.4L18.4 6l.75.95Q20 4.35 22.7 3.7l1-.95V1.5h.35v1.25l1.25 1q2.5.75 3.3 3.2l.75-.95 1.5 1.2-1.15 1.4.1 1.45.5 1.45h.55l.8 2.25-.6.3q-.6.4-.3.8.45.65.9.25l.05.8-1.35.55v5.45l1.4.45V23l-1.5 1.6v3.65h1v2.9l-.9.5v7.3l-2.65.7-3.95.9h-.2"/><path fill="#91875a" d="M4.75 33.9H9.2v-.35q-.1-1-.8-1.65-.7-.7-1.7-.7-.95 0-1.65.7-.7.65-.75 1.65v.35h.45m10.7 0h-.05.5v-.35q0-.95-.7-1.65t-1.7-.7-1.7.7-.7 1.65v.35h4.35m8.3.1h4.45v-.35q-.1-1-.8-1.7t-1.65-.7q-1 0-1.7.7t-.75 1.7V34h.45"/><path fill="#ebe5a9" d="M25.35 16.2v2.05h1.7V16.2h-1.7M20.2 28.7h1.65v-4.5H20.2v4.5m-9.1-.65v2.15q1-.75 2.4-.75t2.45.8v-2.2H11.1m-4.4 1.4q1.4 0 2.5.8v-2.2H4.3v2.15q1-.75 2.4-.75m1.5 6.75-.3.3.3.3.4-.3-.4-.3m6.7.1-.3.3.3.3.4-.3-.4-.3m10.3.6-.3.3.3.3.4-.3-.4-.3m.9 0-.3.3.3.3.4-.3-.4-.3"/></g></svg>