<svg xmlns="http://www.w3.org/2000/svg" width="51.85" height="42"><g fill-rule="evenodd"><path fill="#bcbec0" d="m40.3 5.2.1-.05 1.35.05 1.2.45q1.2.7 1.8 1.6h.4l.85.3q1.15.5 1.8 1.7l.7 1.85.7.7q.6.9.75 2.2.05 1.1-.25 1.95l.25.95v.1q.15.85-.25 1.9v.2l-.15.15q-.4.9-1.2 1.6l-.4.85q-.4.8-1.6 1.5l-.15.05-2 .5-.85.4-.15.05-1.75.05-1.85-.75-.1-.05-2.05 4.8q-4 7.6-11.5 11.85-7.55-4.25-11.5-11.85L12.4 23.4l-.15.1-1.85.75-1.7-.05-.15-.05-.85-.4h-.05l-2.05-.5-.25-.15-1.45-1.4-.4-.85-1.15-1.6-.05-.15h-.05l-.05-.2q-.4-1-.3-1.9v-.35l.1-.1.2-.55-.25-2q0-1.2.75-2.2l.65-.7.7-1.85q.65-1.15 1.8-1.7l.9-.25.35-.05 1.85-1.6 1.15-.4.2-.05 1.15-.05.15.05V1.9l14.25 3 14.45-3v3.3m-2.9 1.45-1.35.15-.7.7-.65 1.15-.8-.9-.3-.05h-1.35q-.85.15-1.25.65-.3.3-.45.95l-.1.8H29.3q-.8 0-1.6.5l-.9.95-.85 1.55-.85-1.55-.95-.95q-.85-.5-1.5-.5l-1.05 1-.3-1.8q-.05-.55-.4-.95-.45-.55-1.3-.65h-1.3l-.3.05-.8.9-.65-1.15-.75-.7-.85-.2-.45.05-1.5.6-.55.55-.6-.45-.65-.3h-.6l-.3-.9.25.95-.7.25-1.2 1.05-.05.85-1-.1h-.5l-.4.15q-.6.2-1 .9l-.5 1.45.05.55-.5.3-.5.45q-.4.55-.4 1.15L4 15.45l.45.45-.4.65-.25.6v.05l.15.95.15.15v.2q.3.65.8 1l.35.25.05.4.25.55.95.85 1.15.3h.05l.45-.2.45.4.45.25h.05l.95.05 1.1-.4.55-.5h.2l.5-.2q.55-.35.75-.95.3-.65.2-1.2l-.2-.35.2-.45.05-.6q-.05-.7-.65-1.2l-.05-.05-1.3-.45-.3.15.1.05.45.5q.45.6.45 1.15l-.1.45-.05.1v.15l-1.1 2.05-.9-.55H9.3l-.7.1L8 19.1l-1.3-.55.45-.9.1-.45-.15-.35-.45-.75.7-.6.4-.45v-.5l-.2-1.1 1.5-.05.25-.1.2-.35.35-1.1 1 .55.5.2.4-.2.1-.1.8-1.05.75 1.05.7.65h.15l.45-.15 1.1-.65.3 1.25.35.8h.65l1.55-.45-.35 1.55-.1 1 .55.15 1.65.15-1 1.35-.45.75.15.15V19q.8 1.25 4.1 3.2l.8.5-.5.85-.65 1.7q0 1.15 1.05 1.95l.45.35-.05.6 1.6 6.15 1.7-6.1-.2-.55.55-.45.6-.65q.75-1.25.05-2.5l-.3-.7.55-.45q3.25-2.8 4.05-4.1l.05-.1-1.5-2.1 1.7-.15q.35 0 .5-.15l-.05-1-.4-1.55 1.55.45h.65q.2 0 .4-.8l.25-1.25 1.15.65.4.15h.15l.7-.65.75-1.05.8 1 .15.15.35.2.5-.2 1-.55.55 1.45.3.1 1.45.05-.2 1.1v.5l.45.45.65.5-.6 1.2.15.45.4.9-1.25.55-.25.4-.3.75-.8-.2-.35-.05-.3.05-.8.6-1.1-1.9-.15-.45-.05-.4.4-1.2.45-.5.1-.05-.25-.15h-.15q-.6 0-1.15.45l-.05.05q-.65.55-.7 1.2l.1.6.15.45-.2.35q-.05.45.2 1.2.25.6.75.95l.55.2.45.25.25.2.95.4.15.05.95-.05h.05l.5-.25.45-.4.45.2 1.15-.3.1-.05.9-.8.2-.55.05-.4.35-.25.9-1.15.2-1.2v-.05l-.2-.55-.4-.6.4-.5.2-1.35-.4-1.15-.5-.45-.5-.3v-.55l-.45-1.45-1-.9-.4-.15h-.5l-1 .1-.05-.85-1.2-1.05-.7-.25-.1-.05h-.6l-.65.3-.6.4-.55-.5-1.45-.6m-11.45 7.4 2.5 3.95-2.5 4-2.5-4 2.5-3.95"/><path d="m37.4 6.65 1.45.6.55.5.6-.4.65-.3h.6l.1.05.7.25 1.2 1.05.05.85 1-.1h.5l.4.15 1 .9.45 1.45v.55l.5.3.5.45.4 1.15-.2 1.35-.4.5.4.6.2.55v.05l-.2 1.2-.9 1.15-.35.25-.05.4-.2.55-.9.8-.1.05-1.15.3-.45-.2-.45.4-.5.25h-.05l-.95.05-.15-.05-.95-.4-.25-.2-.45-.25-.55-.2q-.5-.35-.75-.95-.25-.75-.2-1.2l.2-.35-.15-.45-.1-.6q.05-.65.7-1.2l.05-.05q.55-.45 1.15-.45h.15l.25.15-.1.05-.45.5-.4 1.2.05.4.15.45 1.1 1.9.8-.6.3-.05.35.05.8.2.3-.75.25-.4 1.25-.55-.4-.9-.15-.45.6-1.2-.65-.5-.45-.45v-.5l.2-1.1-1.45-.05-.3-.1-.55-1.45-1 .55-.5.2-.35-.2-.15-.15-.8-1-.75 1.05-.7.65h-.15l-.4-.15-1.15-.65-.25 1.25q-.2.8-.4.8h-.65l-1.55-.45.4 1.55.05 1q-.15.15-.5.15l-1.7.15 1.5 2.1-.05.1q-.8 1.3-4.05 4.1l-.55.45.3.7q.7 1.25-.05 2.5l-.6.65-.55.45.2.55-1.7 6.1-1.6-6.15.05-.6-.45-.35q-1.05-.8-1.05-1.95l.65-1.7.5-.85-.8-.5q-3.3-1.95-4.1-3.2v-.15l-.15-.15.45-.75 1-1.35-1.65-.15-.55-.15.1-1 .35-1.55-1.55.45h-.65l-.35-.8-.3-1.25-1.1.65-.45.15h-.15l-.7-.65-.75-1.05-.8 1.05-.1.1-.4.2-.5-.2-1-.55-.35 1.1-.2.35-.25.1-1.5.05.2 1.1v.5l-.4.45-.7.6.45.75.15.35-.1.45-.45.9 1.3.55.6 1.05.7-.1h.65l.9.55 1.1-2.05v-.15l.05-.1.1-.45q0-.55-.45-1.15l-.45-.5-.1-.05.3-.15 1.3.45.05.05q.6.5.65 1.2l-.05.6-.2.45.2.35q.1.55-.2 1.2-.2.6-.75.95l-.5.2h-.2l-.55.5-1.1.4-.95-.05h-.05l-.45-.25-.45-.4-.45.2h-.05l-1.15-.3-.95-.85-.25-.55-.05-.4-.35-.25q-.5-.35-.8-1v-.2l-.15-.15-.15-.95v-.05l.25-.6.4-.65-.45-.45-.15-1.35q0-.6.4-1.15l.5-.45.5-.3-.05-.55.5-1.45q.4-.7 1-.9l.4-.15h.5l1 .1.05-.85 1.2-1.05.7-.25-.25-.95.3.9h.6l.65.3.6.45.55-.55 1.5-.6.45-.05.85.2.75.7.65 1.15.8-.9.3-.05h1.3q.85.1 1.3.65.35.4.4.95l.3 1.8 1.05-1q.65 0 1.5.5l.95.95.85 1.55.85-1.55.9-.95q.8-.5 1.6-.5h1.15l.1-.8q.15-.65.45-.95.4-.5 1.25-.65h1.35l.3.05.8.9.65-1.15.7-.7 1.35-.15m2.9-1.45V1.9l-14.45 3-14.25-3v3.3l-.15-.05-1.15.05-.2.05-1.15.4-1.85 1.6-.35.05-.9.25q-1.15.55-1.8 1.7l-.7 1.85-.65.7q-.75 1-.75 2.2l.25 2-.2.55-.1.1V17q-.1.9.3 1.9l.05.2h.05l.05.15 1.15 1.6.4.85 1.45 1.4.25.15 2.05.5h.05l.85.4.15.05 1.7.05 1.85-.75.15-.1 2.05 4.85q3.95 7.6 11.5 11.85 7.5-4.25 11.5-11.85l2.05-4.8.1.05 1.85.75 1.75-.05.15-.05.85-.4 2-.5.15-.05q1.2-.7 1.6-1.5l.4-.85q.8-.7 1.2-1.6l.15-.15v-.2q.4-1.05.25-1.9v-.1l-.25-.95q.3-.85.25-1.95-.15-1.3-.75-2.2l-.7-.7-.7-1.85q-.65-1.2-1.8-1.7l-.85-.3h-.4q-.6-.9-1.8-1.6l-1.2-.45-1.35-.05-.1.05M43.85 4l1.9 1.45 1.05.35q1.7.8 2.65 2.45l.8 1.85.45.55q1 1.35 1.15 3.2l-.15 2.05.15.75v.15q.15 1.15-.25 2.4v.7l-.5.5-1.1 1.5-.4.8q-.75 1.3-2.35 2.2l-.2.1-2.3.6-.8.35h-.1l-.2.1-1.4.15-1.1-.1-.6-.15Q36.6 36.25 27.1 41.6l-.35.4h-1.6l-.4-.4q-9.45-5.4-13.4-15.65l-.6.15-1.1.1L8.2 26l-.15-.05h-.1l-3.2-1-.05-.05-.3-.15q-1.45-.9-2.1-2.05l-.45-.8L.8 20.45l-.05-.05-.2-.4v-.1l-.15-.35Q-.1 18.3 0 16.9v-1.05l.15-.15L0 13.85q.15-1.75 1.15-3.2l.45-.55.8-1.85q1.15-1.7 2.65-2.45l1.05-.35L8.05 4l1.65-.65V0h1.9l14.25 3L40.3 0h1.9v3.35l1.65.65m-17.9 10.05L23.45 18l2.5 4 2.5-4-2.5-3.95"/><path fill="#506e50" d="M41.6 5.2h-1.3V1.9l-14.45 3-14.25-3v3.3l-1.5.05-1.15.4q-1.25.7-1.85 1.6l-1.25.3q-1.15.55-1.8 1.7l-.7 1.85-.65.7q-.75 1-.75 2.2l.25 2-.3.65V17q-.1.9.3 1.9l1.3 1.95.4.85 1.7 1.55 2.1.5 1 .45 1.7.05 2-.85 2.05 4.85q3.95 7.6 11.5 11.85 7.5-4.25 11.5-11.85l2.05-4.8 1.95.8 1.9-.1.85-.4 2.15-.55q1.2-.7 1.6-1.5l.4-.85q.8-.7 1.2-1.6l.15-.35q.4-1.05.25-1.9l-.25-1.05q.8-2.2-.5-4.15l-.7-.7-.7-1.85q-.65-1.2-1.8-1.7l-.85-.3h-.4q-.6-.9-1.8-1.6L41.6 5.2m-4.2 1.45 1.45.6.55.5 1.25-.7.7.05.7.25 1.2 1.05.05.85 1.5-.1.4.15 1 .9.45 1.45v.55l1 .75.4 1.15-.2 1.35-.4.5.6 1.2-.2 1.2-1.25 1.4-.25.95-1 .85-1.15.3-.45-.2-1 .65h-1.1l-2.2-1.05-.75-.95-.2-1.2.2-.35-.25-1.05q.05-.65.75-1.25.55-.45 1.15-.45l.4.15-.55.55q-.4.65-.4 1.2l.2.85 1.1 1.9.8-.6h.65l.8.2.55-1.15 1.25-.55-.55-1.35.6-1.2-1.1-.95.2-1.6-1.75-.15-.55-1.45-1.5.75-.5-.35-.8-1-.75 1.05-.85.65-1.55-.8-.25 1.25q-.2.8-.4.8h-.65l-1.55-.45.4 1.55.05 1-.5.15-1.7.15 1.5 2.1-.05.1q-.8 1.3-4.05 4.1l-.55.45.3.7q.7 1.25-.05 2.5l-1.15 1.1.2.55-1.7 6.1-.7-2.35-.9-3.8.05-.6-.45-.35q-1.05-.8-1.05-1.95l.65-1.7.5-.85-.8-.5q-3.3-1.95-4.1-3.2l-.15-.3 1.45-2.1-2.2-.3.45-2.55-1.7.45h-.5l-.35-.8-.3-1.25-1.7.8-.7-.65-.75-1.05-.9 1.15-.4.2-1.5-.75-.55 1.45-.25.1-1.5.05.2 1.6-1.1 1.05.6 1.1-.55 1.35 1.3.55.6 1.05 1.35-.1.9.55L12 18.3l.1-.45q0-.55-.45-1.15l-.55-.55.3-.15q.65 0 1.35.5.6.5.65 1.2l-.05.6-.2.45.2.35q.1.55-.2 1.2-.2.6-.75.95l-.7.2-.55.5-1.1.4-1-.05-.9-.65-.5.2-1.2-.35-.9-.8-.3-.95L4.1 18.5l-.3-1.35.65-1.25-.45-.45-.15-1.35q0-.6.4-1.15l1-.75-.05-.55.5-1.45q.4-.7 1-.9l.4-.15 1.5.1.05-.85 1.2-1.05.7-.3-.25-.9.3.9h.6l1.25.75.55-.55 1.5-.6.45-.05.85.2.75.7.65 1.15.8-.9 1.6-.05q1.55.2 1.7 1.6l.3 1.8 1.05-1q.65 0 1.5.5l.95.95.85 1.55.85-1.55.9-.95q.8-.5 1.6-.5h1.15l.1-.8.45-.95q.4-.5 1.25-.65l1.65.05.8.9.65-1.15.7-.7 1.35-.15"/><path fill="#506e50" d="m28.45 18-2.5-3.95-2.5 3.95 2.5 4 2.5-4"/><path fill="#c8b982" d="M9.7 0v3.35L8.05 4 6.1 5.45l-1.05.35q-1.5.75-2.65 2.45l-.8 1.85-.45.55q-1 1.45-1.15 3.2l.15 1.85-.15.15v1.05q-.1 1.4.4 2.65l.4.9 1.5 2.25q.65 1.15 2.1 2.05l.35.2L8.2 26l1.45.2 1.7-.25Q15.3 36.2 24.75 41.6l.4.4h1.6l.35-.4q9.5-5.35 13.45-15.65l1.7.25 1.7-.25.8-.35q1.2-.1 2.3-.6l.2-.1q1.6-.9 2.35-2.2l.4-.8 1.6-2v-.7q.4-1.25.25-2.4l-.15-.9.15-2.05q-.15-1.85-1.15-3.2l-.45-.55-.8-1.85Q48.5 6.6 46.8 5.8l-1.05-.35L43.85 4l-1.65-.65V0h-1.9L25.85 3 11.6 0H9.7m16.25 14.05 2.5 3.95-2.5 4-2.5-4 2.5-3.95M40.3 5.2h1.3l1.35.45q1.2.7 1.8 1.6h.4l.85.3q1.15.5 1.8 1.7l.7 1.85.7.7q1.3 1.95.5 4.15l.25 1.05q.15.85-.25 1.9l-.15.35q-.4.9-1.2 1.6l-.4.85q-.4.8-1.6 1.5l-2.15.55-.85.4-1.9.1-1.95-.8-2.05 4.8q-4 7.6-11.5 11.85-7.55-4.25-11.5-11.85L12.4 23.4l-2 .85-1.7-.05-1-.45-2.1-.5-1.7-1.55-.4-.85-1.3-1.95q-.4-1-.3-1.9v-.35l.3-.65-.25-2q0-1.2.75-2.2l.65-.7.7-1.85q.65-1.15 1.8-1.7l1.25-.3q.6-.9 1.85-1.6l1.15-.4 1.5-.05V1.9l14.25 3 14.45-3v3.3m-1.45 2.05-1.45-.6-1.35.15-.7.7-.65 1.15-.8-.9-1.65-.05q-.85.15-1.25.65l-.45.95-.1.8H29.3q-.8 0-1.6.5l-.9.95-.85 1.55-.85-1.55-.95-.95q-.85-.5-1.5-.5l-1.05 1-.3-1.8q-.15-1.4-1.7-1.6l-1.6.05-.8.9-.65-1.15-.75-.7-.85-.2-.45.05-1.5.6-.55.55-1.25-.75h-.6l-.3-.9.25.9-.7.3-1.2 1.05-.05.85-1.5-.1-.4.15q-.6.2-1 .9l-.5 1.45.05.55-1 .75q-.4.55-.4 1.15L4 15.45l.45.45-.65 1.25.3 1.35 1.15 1.25.3.95.9.8 1.2.35.5-.2.9.65 1 .05 1.1-.4.55-.5.7-.2q.55-.35.75-.95.3-.65.2-1.2l-.2-.35.2-.45.05-.6q-.05-.7-.65-1.2-.7-.5-1.35-.5l-.3.15.55.55q.45.6.45 1.15l-.1.45-1.15 2.3-.9-.55-1.35.1L8 19.1l-1.3-.55.55-1.35-.6-1.1 1.1-1.05-.2-1.6 1.5-.05.25-.1.55-1.45 1.5.75.4-.2.9-1.15.75 1.05.7.65 1.7-.8.3 1.25.35.8h.5l1.7-.45-.45 2.55 2.2.3-1.45 2.1.15.3q.8 1.25 4.1 3.2l.8.5-.5.85-.65 1.7q0 1.15 1.05 1.95l.45.35-.05.6.9 3.8.7 2.35 1.7-6.1-.2-.55 1.15-1.1q.75-1.25.05-2.5l-.3-.7.55-.45q3.25-2.8 4.05-4.1l.05-.1-1.5-2.1 1.7-.15.5-.15-.05-1-.4-1.55 1.55.45h.65q.2 0 .4-.8l.25-1.25 1.55.8.85-.65.75-1.05.8 1 .5.35 1.5-.75.55 1.45 1.75.15-.2 1.6 1.1.95-.6 1.2.55 1.35-1.25.55-.55 1.15-.8-.2h-.65l-.8.6-1.1-1.9-.2-.85q0-.55.4-1.2l.55-.55-.4-.15q-.6 0-1.15.45-.7.6-.75 1.25l.25 1.05-.2.35.2 1.2.75.95 2.2 1.05h1.1l1-.65.45.2 1.15-.3 1-.85.25-.95 1.25-1.4.2-1.2-.6-1.2.4-.5.2-1.35-.4-1.15-1-.75v-.55l-.45-1.45-1-.9-.4-.15-1.5.1-.05-.85-1.2-1.05-.7-.25-.7-.05-1.25.7-.55-.5"/></g></svg>