<svg xmlns="http://www.w3.org/2000/svg" width="32.8" height="42"><g fill-rule="evenodd"><path fill="#bcbec0" d="M19.55 5.55q1.35-1.3 1.35-3.2l-.05-.5h2.2v34.4L18.2 38.9V28q0-1.4-.9-2.3l-.95-.6q-.45.15-.9.6-.9.9-.9 2.3v10.9L9.7 36.25V1.85h2.2l-.05.5q0 1.85 1.35 3.2 1.3 1.35 3.15 1.35 1.9 0 3.2-1.35m-17.7 10h6.1V35.3L1.85 32V15.55m22.95 0h6.1V32l-6.1 3.3V15.55m-5.25 2.25q1.35-1.35 1.35-3.2t-1.35-3.2q-1.3-1.35-3.2-1.35-1.85 0-3.15 1.35-1.35 1.35-1.35 3.2t1.35 3.2q1.3 1.3 3.15 1.3 1.9 0 3.2-1.3"/><path d="M19.55 5.55q-1.3 1.35-3.2 1.35-1.85 0-3.15-1.35-1.35-1.35-1.35-3.2l.05-.5H9.7v34.4l4.85 2.65V28q0-1.4.9-2.3.45-.45.9-.6l.95.6q.9.9.9 2.3v10.9l4.85-2.65V1.85h-2.2l.05.5q0 1.9-1.35 3.2m-1.3-1.35q.8-.75.8-1.9v-.25L18.8 0h6.1v13.7h7.85v19.35l-16.35 8.9-.05.05v-.05L0 33.05V13.7h7.85V0h6.1l-.25 2.05v.25q0 1.1.8 1.9.75.8 1.85.8 1.15 0 1.9-.8m1.3 13.6q-1.3 1.3-3.2 1.3-1.85 0-3.15-1.3-1.35-1.35-1.35-3.2t1.35-3.2q1.3-1.35 3.15-1.35 1.9 0 3.2 1.35 1.35 1.35 1.35 3.2t-1.35 3.2m5.25-2.25V35.3l6.1-3.3V15.55h-6.1m-22.95 0V32l6.1 3.3V15.55h-6.1"/><path fill="#3c555a" d="M1.9 15.55H8V35.3L1.9 32V15.55m22.95 0h6.1V32l-6.1 3.3V15.55m-3.9-13.2-.05-.5h2.2v34.4l-4.85 2.65V28q0-1.4-.9-2.3l-.95-.6-.9.6q-.9.9-.9 2.3v10.9l-4.85-2.65V1.85h2.2l-.05.5q0 1.85 1.35 3.2 1.3 1.35 3.15 1.35 1.9 0 3.2-1.35 1.35-1.3 1.35-3.2M16.4 42l.05-.05 16.35-8.9V13.7h-7.85V0h-6.1l.25 2.3q0 1.15-.8 1.9-.75.8-1.9.8-1.1 0-1.85-.8-.8-.8-.8-1.9L14 0H7.9v13.7H.05v19.35L16.4 42"/><path fill="#afc3c8" d="M8 15.55H1.9V32L8 35.3V15.55m11.6-4.15q1.35 1.35 1.35 3.2t-1.35 3.2q-1.3 1.3-3.2 1.3-1.85 0-3.15-1.3-1.35-1.35-1.35-3.2t1.35-3.2q1.3-1.35 3.15-1.35 1.9 0 3.2 1.35m1.3-9.55.05.5q0 1.9-1.35 3.2-1.3 1.35-3.2 1.35-1.85 0-3.15-1.35-1.35-1.35-1.35-3.2l.05-.5h-2.2v34.4l4.85 2.65V28q0-1.4.9-2.3l.9-.6.95.6q.9.9.9 2.3v10.9l4.85-2.65V1.85h-2.2m10.05 13.7h-6.1V35.3l6.1-3.3V15.55"/><path fill="#dce6c8" d="M20.95 14.6q0-1.85-1.35-3.2-1.3-1.35-3.2-1.35-1.85 0-3.15 1.35-1.35 1.35-1.35 3.2t1.35 3.2q1.3 1.3 3.15 1.3 1.9 0 3.2-1.3 1.35-1.35 1.35-3.2"/></g></svg>