<svg xmlns="http://www.w3.org/2000/svg" width="32.55" height="42"><g fill-rule="evenodd"><path fill="#bcbec0" d="M30.6 1.9v16.75q0 4.1-2.85 9.6-3.95 7.6-11.45 11.85h-.05Q8.75 35.85 4.8 28.25q-2.85-5.5-2.85-9.6V1.9H30.6M16.25 16.2l2.4 3.8-2.4 3.8L13.9 20l2.35-3.8m1.1-11.5-.65-1.25-.35-.1-.3.1-.65 1.25-1.3 4.85q-.9.75-.9 1.95l.45 1.75q-.75 1.15-.15 2.7l-2.25 4-.25.2-.05.05-.5.1q-.3 0-.5-.25l-.2-.25-.35-.7q.5-.9.5-1.75 0-1.2-.9-1.95l-1.3-4.85Q7.35 9.5 7.05 9.3l-.15-.1h-.15l-.35.1-.65 1.25-1.1 3.8-.2 1.1-.5.65q-.8 1.45-.1 2.9-.45.85-.4 1.7v.05l.05.15.05.05L6.2 25.6l.15.2.3.2.05-.05 4.75-1h.05l4.85-.45q3.8 0 9.25 1.4l.25.05.05.05.3-.2.15-.2L29 20.95l.05-.05.05-.15v-.05q.1-.85-.4-1.7.7-1.45-.1-2.9l-.5-.65-1.3-4.9-.65-1.25-.35-.1h-.15l-.15.1q-.3.2-.65 1.25l-1.3 4.85q-.9.75-.9 1.95 0 .75.45 1.75l-.3.7-.2.25q-.2.25-.5.25-.55 0-2.35-3.6l-.5-.8q.8-1.2.05-2.65l-.05-.1q.7-1.45-.1-2.9l-.5-.65-1.3-4.9m1.3 26.55-2.4-3.75-2.35 3.75 2.35 3.8 2.4-3.8"/><path d="m17.35 4.7 1.3 4.9.5.65q.8 1.45.1 2.9l.05.1q.75 1.45-.05 2.65l.5.8q1.8 3.6 2.35 3.6.3 0 .5-.25l.2-.25.3-.7q-.45-1-.45-1.75 0-1.2.9-1.95l1.3-4.85q.35-1.05.65-1.25l.15-.1h.15l.35.1.65 1.25 1.3 4.9.5.65q.8 1.45.1 2.9.5.85.4 1.7v.05l-.05.15-.05.05-2.65 4.65-.15.2-.3.2-.05-.05-.25-.05q-5.45-1.4-9.25-1.4l-4.85.45h-.05l-4.75 1-.05.05-.3-.2-.15-.2-2.65-4.65-.05-.05-.05-.15v-.05q-.05-.85.4-1.7-.7-1.45.1-2.9l.5-.65.2-1.1 1.1-3.8.65-1.25.35-.1h.15l.15.1q.3.2.65 1.25L9 15.4q.9.75.9 1.95 0 .85-.5 1.75l.35.7.2.25q.2.25.5.25l.5-.1.05-.05.25-.2 2.25-4q-.6-1.55.15-2.7l-.45-1.75q0-1.2.9-1.95l1.3-4.85.65-1.25.3-.1.35.1.65 1.25m-1.1 11.5L13.9 20l2.35 3.8 2.4-3.8-2.4-3.8M30.6 1.9H1.95v16.75q0 4.1 2.85 9.6 3.95 7.6 11.45 11.85h.05q7.5-4.25 11.45-11.85 2.85-5.5 2.85-9.6V1.9M32.55 0v18.65q0 4.5-2.95 10.25-4.1 8.1-12.15 12.7l-.4.4h-1.6l-.35-.4Q7.1 37 2.95 28.9 0 23.15 0 18.65V0h32.55m-13.9 31.25-2.4 3.8-2.35-3.8 2.35-3.75 2.4 3.75"/><path fill="#afc3c8" d="m16.25 27.5 2.4 3.75-2.4 3.8-2.35-3.8 2.35-3.75m14.35-8.85V1.9H1.95v16.75q0 4.1 2.85 9.6 3.95 7.6 11.5 11.85 7.5-4.25 11.45-11.85 2.85-5.5 2.85-9.6M16.35 3.35l.35.1.65 1.25 1.3 4.9.5.65q.8 1.45.1 2.9l.05.1q.75 1.45-.05 2.65l.5.8q1.8 3.6 2.35 3.6l.7-.5.3-.7q-1.1-2.4.45-3.7l.7-3 .6-1.85q.35-1.05.65-1.25l.3-.1.35.1.65 1.25 1.3 4.9.5.65q.8 1.45.1 2.9.5.85.4 1.75l-2.9 5.05-.35.15-.25-.05q-5.45-1.4-9.25-1.4l-4.9.45L6.65 26l-.45-.4-2.75-4.9q-.05-.85.4-1.7-.7-1.45.1-2.9l.5-.65.2-1.1 1.1-3.8.65-1.25.5-.1.15.1q.3.2.65 1.25l.6 1.85.7 3q1.7 1.4.4 3.7l.55.95.5.25.55-.15.25-.2 2.25-4q-.6-1.55.15-2.7l-.45-1.75q0-1.2.9-1.95l.7-3 .6-1.85.65-1.25.3-.1"/><path fill="#afc3c8" d="m18.65 20-2.4-3.8L13.9 20l2.35 3.8 2.4-3.8"/><path fill="#465a5f" d="m16.25 16.2 2.4 3.8-2.4 3.8L13.9 20l2.35-3.8m.45-12.75-.35-.1-.3.1-.65 1.25-.6 1.85-.7 3q-.9.75-.9 1.95l.45 1.75q-.75 1.15-.15 2.7l-2.25 4-.25.2-.55.15-.5-.25-.55-.95q1.3-2.3-.4-3.7l-.7-3-.6-1.85Q7.35 9.5 7.05 9.3l-.15-.1-.5.1-.65 1.25-1.1 3.8-.2 1.1-.5.65q-.8 1.45-.1 2.9-.45.85-.4 1.7l2.75 4.9.45.4 4.8-1.05 4.9-.45q3.8 0 9.25 1.4l.25.05.35-.15 2.9-5.05q.1-.9-.4-1.75.7-1.45-.1-2.9l-.5-.65-1.3-4.9-.65-1.25-.35-.1-.3.1q-.3.2-.65 1.25l-.6 1.85-.7 3q-1.55 1.3-.45 3.7l-.3.7-.7.5q-.55 0-2.35-3.6l-.5-.8q.8-1.2.05-2.65l-.05-.1q.7-1.45-.1-2.9l-.5-.65-1.3-4.9-.65-1.25m1.95 27.8-2.4-3.75-2.35 3.75 2.35 3.8 2.4-3.8"/><path fill="#465a5f" d="M0 18.65q0 4.5 2.95 10.25Q7.1 37 15.1 41.6l.35.4h1.6l.4-.4Q25.5 37 29.6 28.9q2.95-5.75 2.95-10.25V0H0v18.65M30.6 1.9v16.75q0 4.1-2.85 9.6-3.95 7.6-11.45 11.85-7.55-4.25-11.5-11.85-2.85-5.5-2.85-9.6V1.9H30.6"/></g></svg>