<svg xmlns="http://www.w3.org/2000/svg" width="42.3" height="42"><g fill-rule="evenodd"><path d="m21.85 0 5.05.9-.35 1.8q-.2 1.4-1.25 2.6l10.95 10.35L35 17.6q3.35 1.1 4.85 2.9l2.45 2.95h-2.95l.75 10.35-9.25 8.2H29.2l-.45-.35-.1-.05-.5-.35-.15-.65-1.05-2.7q-.75-1.7-2.05-3-1-1-2.55-1.5H19.4q-1.55.5-2.55 1.5-1.2 1.15-2.1 3l-1.15 3.2-.35.3-.55.6h-1.75L1.7 33.75l1.15-10.3H0l2.45-2.95q1.4-1.75 4.85-2.9L6 15.65 17 5.3q-1-1.15-1.3-2.6L15.4.9l5.15-.9.3 1.75.3.3.25-.3.45-1.75m-.6 3.95q-1.8-.65-2.05-2l-1.6.25q.3 1.7 2.3 2.9L8.5 15.75l1.75 2.75q-4.8 1.2-6.3 3H5L3.7 32.9l8.05 7.1h.3l.05-.05L13.25 37q.95-2.1 2.45-3.6 1.55-1.4 3.55-1.95h3.45q2 .55 3.55 1.95 1.5 1.5 2.45 3.6l1.15 2.95.05.05h.4l8-7.1-.8-11.4h1.05q-1.5-1.8-6.3-3l1.8-2.75L22.65 5.1q1.95-1.25 2.25-2.9l-1.6-.25q-.25 1.35-2.05 2m9.4 14.2-9.05-.9h-.7l-9.05.9.1-.05-1.4-2.1.3-.3h20.8l.3.3-1.4 2.1.1.05M17.6 23.9l-5.4.7v-3.1h5.4v2.4m1.6-2.4h4.1v2.3h-4.1v-2.3M6.6 26v-4.5h4v3.4l-4 1.1m25.3-4.5h4V26l-4-1.1v-3.4m-7 0h5.4v3.1l-5.4-.7v-2.4"/><path fill="#bcbec0" d="M24.9 21.5v2.4l5.4.7v-3.1h-5.4m7 0v3.4l4 1.1v-4.5h-4M6.6 26l4-1.1v-3.4h-4V26m12.6-4.5v2.3h4.1v-2.3h-4.1m-1.6 2.4v-2.4h-5.4v3.1l5.4-.7m13.05-5.75-.1-.05 1.4-2.1-.3-.3h-20.8l-.3.3 1.4 2.1-.1.05 9.05-.9h.7l9.05.9m-9.4-14.2q1.8-.65 2.05-2l1.6.25q-.3 1.65-2.25 2.9l11.4 10.65-1.8 2.75q4.8 1.2 6.3 3H37.5l.8 11.4-8 7.1h-.4l-.05-.05L28.7 37q-.95-2.1-2.45-3.6-1.55-1.4-3.55-1.95h-3.45q-2 .55-3.55 1.95-1.5 1.5-2.45 3.6l-1.15 2.95-.05.05h-.3L3.7 32.9 5 21.5H3.95q1.5-1.8 6.3-3L8.5 15.75 19.9 5.1q-2-1.2-2.3-2.9l1.6-.25q.25 1.35 2.05 2"/><path fill="#e1d296" d="M10.6 21.5h-4V26l4-1.1v-3.4m1.6 3.1 5.4-.7v-2.4h-5.4v3.1m11.1-.8v-2.3h-4.1v2.3h4.1m1.6-2.3v2.4l5.4.7v-3.1h-5.4m11 0h-4v3.4l4 1.1v-4.5m-14.3-4.25 8.95.85 1.4-2.1-.3-.3h-20.8l-.3.3 1.4 2.1 9.65-.85"/><path fill="#6e8c6e" d="M6.6 21.5h4v3.4l-4 1.1v-4.5m11 2.4-5.4.7v-3.1h5.4v2.4m5.7-2.4v2.3h-4.1v-2.3h4.1m1.6 2.4v-2.4h5.4v3.1l-5.4-.7m7-2.4h4V26l-4-1.1v-3.4m-1.35-3.4-8.95-.85-9.65.85-1.4-2.1.3-.3h20.8l.3.3-1.4 2.1m-7.9-13q1.95-1.25 2.25-2.9l-1.6-.25q-.25 1.35-2.05 2-1.8-.65-2.05-2l-1.6.25q.3 1.7 2.3 2.9L8.5 15.75l1.75 2.75q-4.8 1.2-6.3 3H5L3.7 32.9l8.05 7.1.35-.05L13.25 37q2-4.45 6-5.55h3.45q4 1.1 6 5.55l1.2 3h.4l8-7.1-.8-11.4h1.05q-1.5-1.8-6.3-3l1.8-2.75L22.65 5.1"/><path fill="#414141" d="m6 15.65 1.3 1.95q-3.45 1.15-4.85 2.9L0 23.45h2.85L1.7 33.75 10.95 42h1.75l.9-.9 1.15-3.2q1.75-3.55 4.65-4.5h2.95q3.05 1 4.6 4.5l1.2 3.35 1.05.75h1.65l9.25-8.2-.75-10.35h2.95l-2.45-2.95q-1.5-1.8-4.85-2.9l1.25-1.95L25.3 5.3q1.05-1.2 1.25-2.6L26.9.9 21.85 0l-.45 1.75-.25.3-.3-.3-.3-1.75-5.15.9.3 1.8Q16 4.15 17 5.3q-4.8 5.5-11 10.35M24.9 2.2q-.3 1.65-2.25 2.9l11.4 10.65-1.8 2.75q4.8 1.2 6.3 3H37.5l.8 11.4-8 7.1h-.4l-1.2-3q-2-4.45-6-5.55h-3.45q-4 1.1-6 5.55l-1.15 2.95-.35.05-8.05-7.1L5 21.5H3.95q1.5-1.8 6.3-3L8.5 15.75 19.9 5.1q-2-1.2-2.3-2.9l1.6-.25q.25 1.35 2.05 2 1.8-.65 2.05-2l1.6.25"/></g></svg>