<svg xmlns="http://www.w3.org/2000/svg" width="26.05" height="42"><g fill-rule="evenodd"><path d="m23.85 3.3.05.1.1.15v.15l.05.05v.1l.05.05q.5 1.75.3 4.15l-.05.3h1.7V23.3q0 3.6-2.35 8.2-1.1 2.2-2.55 4.05-2.85 3.7-7.15 6.15l-.3.3h-1.3l-.3-.3q-4.25-2.45-7.15-6.15l-2.6-4.05Q0 26.9 0 23.3V8.35h1.7V8q-.2-2.3.3-4.1v-.05l.05-.05v-.1l.05-.05.1-.35.25-.35Q4.45.4 6.85.4q1.8 0 2.75 1.4l2-.55h.15l1.2.25 1.65-.25 1.75.3Q17.15 0 19 0q1.35 0 2.75 1 1.2.9 2 2.15l.1.15M19 1.55q-.95 0-1.35.8-.35.7 0 1.55-1.75-1.15-3.05-1.15-1.05 0-1.7.5-.45-.45-1.2-.45l-.05-.05h-.05q-.8 0-3.1 1.35.25-.6 0-1.15Q8.1 1.9 6.85 1.9q-1.6 0-3.2 2l-.1.15-.05.15v.1h-.05Q3 5.95 3.2 7.9l.05.25v.25l.2 1.15H3.3l-.85.35h-.9v13.4q0 3.3 2.3 7.7 1.3 2.5 3.1 4.55 2.55 2.95 6.1 4.9 3.55-1.95 6.1-4.9 1.8-2.05 3.1-4.55 2.3-4.4 2.3-7.7V9.9h-.9l-.85-.35h-.15l.2-1.15v-.5q.2-2.1-.25-3.6v-.1l-.05-.1-1.65-1.75q-1.05-.8-1.9-.8M8.35 22.95l-.05.1.05 1.6q.2 1.5.55 1.8l.75.2q.65-.1.95-.9l-.8-1.2-1.4-1.35-.05-.25M5.6 19.7q.45.6 1.3.7 1.4.25 1.65.7l-.25-1.4-1.45-1.65-1.15-.85-.85-.45 1.2 1q1.05 1.15.6 1.6-.7.75-1.3-.25l.25.6M9.8 7.45h-.05l-1.1.5-.85.8q-.85 1.6-.75 2.5l.05.05q.2 1.65.9 1.9h.1l.65-.4 3.1-4.1-.8-.75q-.55-.4-1.25-.5m5.05 25.65q-.75-.45-1.8-.45t-1.75.45q-.75.4-.75 1l.1.4q.2-.35.9-.35h3.05q.7 0 .9.35l.1-.4q0-.6-.75-1m2.9-10.15-.1.25-.4.45-1 .9-.8 1.2.25.4.75.5.75-.2q.35-.3.55-1.8l.05-1.6-.05-.1m1.4-2.55q1.4-.2 1.55-1.3-.55 1-1.3.25-.45-.45.6-1.6l1.2-1-.85.45-1.1.85-1.5 1.65-.25 1.4.3-.25 1.35-.45m-3.65-6.05-2.2-4-2.7 4.05.1 1.15.55 1.8.9 1.5q.55.65.9.75.75-.2 1.8-2.2 1.1-2.1.65-3.05m1.9-6.45q-.75-.5-1.1-.45l-1.25.5-.6.75 2.45 3.35.45.75q.4.55.7.4.75-.25.95-1.9v-.05q.1-.95-.7-2.5l-.9-.85m-3.95-3.25q.1-.55 1.15-.55 1.1 0 3 1.3l2.2 1.95.1-.4-.1-1.45q-2-2.75-.75-2.65 1.3.1 2.45 1.95.35 1.15.25 3.2l-.05.45-.7 3.1q.2.2.75 0l.25-.25q.55-.4.7-.4l.35.2q.25.6-.25 1.35-.75 1.25-1.85 1.75-1.6.65-3.25 2.55l-1.35 1.8-.25.5-.1.6.55-.7.6-1.15q.85-1.05 2.15-1.6L22 15l.95.2.05 1.1-.2 1.05q-.25 1.45-.85 2.2l-1.8 1.85-.85.7q-.35.4-.4.9l-.05 2.05q0 1.2-.4 1.9l-1.3 2.35q-.8 1.3-.85 1.75-.15 1.3 0 2.6l.05.5-.05.5-1 .9-.6.25-1.65.3-1.7-.3-.55-.25-1-.9-.05-.5.05-.5v-2.6q-.05-.4-.35-.9l-1.8-3.2q-.4-.75-.45-1.9V23q-.05-.5-.45-.9l-.8-.7q-1.1-.85-1.8-1.85-.7-.9-.85-2.2l-.2-1.05v-1.1l1-.2 2.7 1.2q1.25.55 2.15 1.6l.6 1.15.55.7q.15-.3-.4-1.1-2-3.3-4.55-4.35-1.05-.45-1.85-1.75-.55-.85-.25-1.35l.3-.2h.05l.65.4.3.25.4.05.35-.05-.7-3.1L4.35 8q-.2-1.8.2-3.2h.05q1.3-1.7 2.35-1.55 1.15.15.2 1l-.9 1.25-.05 1.45.1.4.3-.35q.25-.35 2.3-1.6 2.15-1.35 2.75-1.3.85.05.8 1.1L11.2 6.25q1.1.2 1.85 1.05h.05l1.95-.95-1.5-1.2-.1-.5"/><path fill="#bcbec0" d="M19 1.55q.85 0 1.9.8l1.65 1.75.05.1v.1q.45 1.5.25 3.6v.5l-.2 1.15h.15l.85.35h.9v13.4q0 3.3-2.3 7.7-1.3 2.5-3.1 4.55-2.55 2.95-6.1 4.9-3.55-1.95-6.1-4.9-1.8-2.05-3.1-4.55-2.3-4.4-2.3-7.7V9.9h.9l.85-.35h.15l-.2-1.15v-.25L3.2 7.9q-.2-1.95.25-3.6h.05v-.1l.05-.15.1-.15q1.6-2 3.2-2 1.25 0 1.65 1.05.25.55 0 1.15 2.3-1.35 3.1-1.35h.05l.05.05q.75 0 1.2.45.65-.5 1.7-.5 1.3 0 3.05 1.15-.35-.85 0-1.55.4-.8 1.35-.8m-5.55 3.1.1.5 1.5 1.2-1.95.95h-.05q-.75-.85-1.85-1.05l1.25-1.05q.05-1.05-.8-1.1-.6-.05-2.75 1.3Q6.85 6.65 6.6 7l-.3.35-.1-.4.05-1.45.9-1.25q.95-.85-.2-1Q5.9 3.1 4.6 4.8h-.05q-.4 1.4-.2 3.2l.05.45.7 3.1-.35.05-.4-.05-.3-.25-.65-.4h-.05l-.3.2q-.3.5.25 1.35.8 1.3 1.85 1.75 2.55 1.05 4.55 4.35.55.8.4 1.1l-.55-.7-.6-1.15q-.9-1.05-2.15-1.6L4.1 15l-1 .2v1.1l.2 1.05q.15 1.3.85 2.2.7 1 1.8 1.85l.8.7q.4.4.45.9v2.05q.05 1.15.45 1.9l1.8 3.2q.3.5.35.9v2.6l-.05.5.05.5 1 .9.55.25 1.7.3 1.65-.3.6-.25 1-.9.05-.5-.05-.5q-.15-1.3 0-2.6.05-.45.85-1.75l1.3-2.35q.4-.7.4-1.9L18.9 23q.05-.5.4-.9l.85-.7 1.8-1.85q.6-.75.85-2.2l.2-1.05-.05-1.1L22 15l-2.7 1.2q-1.3.55-2.15 1.6l-.6 1.15-.55.7.1-.6.25-.5 1.35-1.8q1.65-1.9 3.25-2.55 1.1-.5 1.85-1.75.5-.75.25-1.35l-.35-.2q-.15 0-.7.4l-.25.25q-.55.2-.75 0l.7-3.1.05-.45q.1-2.05-.25-3.2-1.15-1.85-2.45-1.95-1.25-.1.75 2.65l.1 1.45-.1.4-2.2-1.95q-1.9-1.3-3-1.3-1.05 0-1.15.55M17.4 7.9l.9.85q.8 1.55.7 2.5v.05q-.2 1.65-.95 1.9-.3.15-.7-.4l-.45-.75-2.45-3.35.6-.75 1.25-.5q.35-.05 1.1.45m-1.9 6.45q.45.95-.65 3.05-1.05 2-1.8 2.2-.35-.1-.9-.75l-.9-1.5-.55-1.8-.1-1.15 2.7-4.05 2.2 4m3.65 6.05-1.35.45-.3.25.25-1.4 1.5-1.65 1.1-.85.85-.45-1.2 1q-1.05 1.15-.6 1.6.75.75 1.3-.25-.15 1.1-1.55 1.3m-1.4 2.55.05.1-.05 1.6q-.2 1.5-.55 1.8l-.75.2-.75-.5-.25-.4.8-1.2 1-.9.4-.45.1-.25m-2.9 10.15q.75.4.75 1l-.1.4q-.2-.35-.9-.35h-3.05q-.7 0-.9.35l-.1-.4q0-.6.75-1 .7-.45 1.75-.45t1.8.45M9.8 7.45q.7.1 1.25.5l.8.75-3.1 4.1-.65.4H8q-.7-.25-.9-1.9l-.05-.05q-.1-.9.75-2.5l.85-.8 1.1-.5h.05M5.6 19.7l-.25-.6q.6 1 1.3.25.45-.45-.6-1.6l-1.2-1 .85.45 1.15.85L8.3 19.7l.25 1.4q-.25-.45-1.65-.7-.85-.1-1.3-.7m2.75 3.25.05.25 1.4 1.35.8 1.2q-.3.8-.95.9l-.75-.2q-.35-.3-.55-1.8l-.05-1.6.05-.1"/><path fill="#ebebeb" d="m16.5 25.05-.15.1v.7l.15.1.3-.45-.1-.35-.2-.1m-7-.1-.15.1v.7l.15.1.3-.45-.1-.35-.2-.1"/><path fill="#f0f0f0" d="m8.4 23.2 1.4 1.35.8 1.2q-.3.8-.95.9l-.75-.2q-.35-.3-.55-1.8l.05-1.45m-1.5-2.8q-.85-.1-1.3-.7l-.25-.6q.6 1 1.3.25.45-.45-.6-1.6l-1.2-1 2 1.3L8.3 19.7l.25 1.4q-.25-.45-1.65-.7M8.65 7.95l1.15-.5q.7.1 1.25.5l.8.75-3.1 4.1-.75.4q-.7-.25-.95-1.95-.1-.9.75-2.5l.85-.8m4.4 24.7q1.05 0 1.8.45.75.4.75 1l-.1.4q-.2-.35-.9-.35h-3.05q-.7 0-.9.35l-.1-.4q0-.6.75-1 .7-.45 1.75-.45m3.2-8.1 1.5-1.6v1.7q-.2 1.5-.55 1.8l-.75.2-.75-.5-.25-.4.8-1.2m3.75-6.8q-1.05 1.15-.6 1.6.75.75 1.3-.25-.15 1.1-1.55 1.3l-1.35.45-.3.25.25-1.4 1.5-1.65 1.1-.85.85-.45-1.2 1m-6.7-7.4 2.2 4q.45.95-.65 3.05-1.05 2-1.8 2.2l-.9-.75-.9-1.5-.55-1.8-.1-1.15 2.7-4.05m3-2.9q.35-.05 1.1.45l.9.85q.8 1.55.7 2.55-.2 1.65-.95 1.9-.3.15-.7-.4l-2.9-4.1.6-.75 1.25-.5M14.6 4.1q-1.05 0-1.15.55l.1.5 1.5 1.2-2 .95q-.75-.85-1.85-1.05l1.25-1.05q.05-1.05-.8-1.1-.6-.05-2.75 1.3L6.6 7l-.3.35-.1-.4.05-1.45.9-1.25q.95-.85-.2-1Q5.9 3.1 4.55 4.8q-.4 1.4-.2 3.2l.75 3.55h-.75l-1-.65-.3.2q-.3.5.25 1.35.8 1.3 1.85 1.75 2.55 1.05 4.55 4.35.55.8.4 1.1l-.55-.7-.6-1.15q-.9-1.05-2.15-1.6L4.1 15l-1 .2v1.1l.2 1.05q.15 1.3.85 2.2l2.6 2.55q.4.4.45.9v2.05q.05 1.15.45 1.9l1.8 3.2.35.9v3.6l1 .9 1.05.35 1.2.2 1.65-.3.6-.25 1-.9v-1q-.15-1.3 0-2.6.05-.45.85-1.75l1.3-2.35q.4-.7.4-1.9L18.9 23l.4-.9 2.65-2.55q.6-.75.85-2.2l.2-1.05-.05-1.1L22 15l-2.7 1.2q-1.3.55-2.15 1.6l-.6 1.15-.55.7.1-.6 1.6-2.3q1.65-1.9 3.25-2.55 1.1-.5 1.85-1.75.5-.75.25-1.35l-.35-.2-.95.65q-.55.2-.75 0L21.75 8q.25-4.9-2.7-5.15-1.25-.1.75 2.65l.1 1.45-.1.4-2.2-1.95q-1.9-1.3-3-1.3"/><path fill="#5a6e87" d="M13.45 4.65q.1-.55 1.15-.55 1.1 0 3 1.3l2.2 1.95.1-.4-.1-1.45q-2-2.75-.75-2.65Q22 3.1 21.75 8L21 11.55q.2.2.75 0l.95-.65.35.2q.25.6-.25 1.35-.75 1.25-1.85 1.75-1.6.65-3.25 2.55l-1.6 2.3-.1.6.55-.7.6-1.15q.85-1.05 2.15-1.6L22 15l.95.2.05 1.1-.2 1.05q-.25 1.45-.85 2.2L19.3 22.1l-.4.9-.05 2.05q0 1.2-.4 1.9l-1.3 2.35q-.8 1.3-.85 1.75-.15 1.3 0 2.6v1l-1 .9-.6.25-1.65.3-1.2-.2-1.05-.35-1-.9v-3.6l-.35-.9-1.8-3.2q-.4-.75-.45-1.9V23q-.05-.5-.45-.9l-2.6-2.55q-.7-.9-.85-2.2l-.2-1.05v-1.1l1-.2 2.7 1.2q1.25.55 2.15 1.6l.6 1.15.55.7q.15-.3-.4-1.1-2-3.3-4.55-4.35-1.05-.45-1.85-1.75-.55-.85-.25-1.35l.3-.2 1 .65h.75L4.35 8q-.2-1.8.2-3.2 1.35-1.7 2.4-1.55 1.15.15.2 1l-.9 1.25-.05 1.45.1.4.3-.35 2.3-1.6q2.15-1.35 2.75-1.3.85.05.8 1.1L11.2 6.25q1.1.2 1.85 1.05l2-.95-1.5-1.2-.1-.5m7.45-2.3q-1.05-.8-1.9-.8-.95 0-1.35.8-.35.7 0 1.55-3-2-4.75-.65-.45-.45-1.3-.5-.8 0-3.1 1.35.25-.6 0-1.15Q8.1 1.9 6.85 1.9q-1.6 0-3.2 2l-.2.4Q3 5.95 3.2 7.9l.25 1.65-1 .35h-.9v13.4q0 3.3 2.3 7.7 3.2 6.15 9.2 9.45 6-3.3 9.2-9.45 2.3-4.4 2.3-7.7V9.9h-.9l-1-.35.2-1.65q.2-2.1-.25-3.6l-1.7-1.95"/><path fill="#5a6e87" d="m15.5 14.35-2.2-4-2.7 4.05.1 1.15.55 1.8.9 1.5.9.75q.75-.2 1.8-2.2 1.1-2.1.65-3.05m-5.7-6.9-1.15.5-.85.8q-.85 1.6-.75 2.5.25 1.7.95 1.95l.75-.4 3.1-4.1-.8-.75q-.55-.4-1.25-.5m7.6.45q-.75-.5-1.1-.45l-1.25.5-.6.75 2.9 4.1q.4.55.7.4.75-.25.95-1.9.1-1-.7-2.55l-.9-.85m2 11.45q-.45-.45.6-1.6l1.2-1-.85.45-1.1.85-1.5 1.65-.25 1.4.3-.25 1.35-.45q1.4-.2 1.55-1.3-.55 1-1.3.25m-13.8.35q.45.6 1.3.7 1.4.25 1.65.7l-.25-1.4-1.45-1.65-2-1.3 1.2 1q1.05 1.15.6 1.6-.7.75-1.3-.25l.25.6m3.75 5.35.15-.1.2.1.1.35-.3.45-.15-.1v-.7m.45-.5L8.4 23.2l-.05 1.45q.2 1.5.55 1.8l.75.2q.65-.1.95-.9l-.8-1.2m6.55.6.15-.1.2.1.1.35-.3.45-.15-.1v-.7m1.4-2.2-1.5 1.6-.8 1.2.25.4.75.5.75-.2q.35-.3.55-1.8v-1.7m-2.9 10.15q-.75-.45-1.8-.45t-1.75.45q-.75.4-.75 1l.1.4q.2-.35.9-.35h3.05q.7 0 .9.35l.1-.4q0-.6-.75-1"/><path fill="#4b555f" d="M1.7 8.35H0V23.3q0 3.6 2.35 8.2l2.6 4.05q2.9 3.7 7.15 6.15l.3.3h1.3l.3-.3q6.45-3.65 9.7-10.2 2.35-4.6 2.35-8.2V8.35h-1.7l.05-.3q.2-2.4-.35-4.2l-.3-.7Q21.75 0 19 0q-1.85 0-2.65 1.55l-1.75-.3-1.65.25-1.35-.25-2 .55Q8.65.4 6.85.4q-2.4 0-4.4 2.55L2 3.9Q1.5 5.7 1.7 8v.35M19 1.55q.85 0 1.9.8l1.7 1.95q.45 1.5.25 3.6l-.2 1.65 1 .35h.9v13.4q0 3.3-2.3 7.7-3.2 6.15-9.2 9.45-6-3.3-9.2-9.45-2.3-4.4-2.3-7.7V9.9h.9l1-.35L3.2 7.9q-.2-1.95.25-3.6l.2-.4q1.6-2 3.2-2 1.25 0 1.65 1.05.25.55 0 1.15 2.3-1.35 3.1-1.35.85.05 1.3.5 1.75-1.35 4.75.65-.35-.85 0-1.55.4-.8 1.35-.8"/></g></svg>