<svg xmlns="http://www.w3.org/2000/svg" width="30.3" height="42"><g fill-rule="evenodd"><path d="M28.3 6.15 26 2.2l-2.15 3.75-2.2-3.75-2.2 3.75L17.3 2.2l-1.9 3.25 1.85 7.65v.2l-.1.1-.3.5 3.2 3.15.6-.4.15.05 7.7 1.85V6.15h-.2M25.15 0h1.7l1.65 2.9h1.8v17.35q0 4.2-2.75 9.55-3.85 7.6-11.3 11.85l-.35.35h-1.5l-.35-.35Q6.6 37.4 2.75 29.8 0 24.45 0 20.25V2.9h1.65L3.35 0h1.7l1.3 2.35L7.7 0h1.7l1.35 2.35L12.05 0h1.7l1.35 2.35L16.45 0h1.7l1.3 2.35L20.8 0h1.7l1.35 2.35L25.15 0M14.8 5.45 12.9 2.2l-2.15 3.75-2.2-3.75-2.2 3.75L4.2 2.2 1.9 6.15h-.1v12.3l7.5-1.75.15-.05.6.4 3.3-3.15-.3-.5-.1-.1 1.85-7.85m6 15.45-.15.05-.6-.4-3.2 3.4.4.6v.15L15.5 39.15l-.25 1.05q6.9-3.95 10.6-11 2.65-5.1 2.65-8.95V19.1l-7.7 1.8m-2.45-2.15-3.3-3-.25.3-2.9 2.85 3.2 3.1 3.25-3.25M1.8 20.25q0 3.85 2.65 8.95Q8.1 36.2 15 40.15l-.25-1L13 24.7l-.05-.15.4-.6-3.3-3.4-.6.4-.15-.05-7.5-1.75v1.1"/><path fill="#bcbec0" d="M28.3 6.15h.2v12.4l-7.7-1.85-.15-.05-.6.4-3.2-3.15.3-.5.1-.1v-.2L15.4 5.45l1.9-3.25 2.15 3.75 2.2-3.75 2.2 3.75L26 2.2l2.3 3.95m-9.95 12.6L15.1 22l-3.2-3.1 2.9-2.85.25-.3 3.3 3m2.45 2.15 7.7-1.8v1.15q0 3.85-2.65 8.95-3.7 7.05-10.6 11l.25-1.05 1.75-14.45v-.15l-.4-.6 3.2-3.4.6.4.15-.05m-6-15.45-1.85 7.85.1.1.3.5-3.3 3.15-.6-.4-.15.05-7.5 1.75V6.15h.1L4.2 2.2l2.15 3.75 2.2-3.75 2.2 3.75L12.9 2.2l1.9 3.25m-13 14.8v-1.1l7.5 1.75.15.05.6-.4 3.3 3.4-.4.6.05.15 1.75 14.45.25 1Q8.1 36.2 4.45 29.2 1.8 24.1 1.8 20.25"/><path fill="#d3c9b4" d="M0 2.9v17.35q0 4.2 2.75 9.55 3.85 7.6 11.3 11.85l.35.35h1.5l.35-.35q7.45-4.25 11.3-11.85 2.75-5.35 2.75-9.55V2.9h-1.8L26.85 0h-1.7l-1.3 2.35L22.5 0h-1.7l-1.35 2.35L18.15 0h-1.7L15.1 2.35 13.75 0h-1.7l-1.3 2.35L9.4 0H7.7L6.35 2.35 5.05 0h-1.7l-1.7 2.9H0m1.8 17.35v-1.1l7.65 1.8.6-.4 3.3 3.4-.4.6 1.8 14.6.25 1Q8.1 36.2 4.45 29.2 1.8 24.1 1.8 20.25M12.9 2.2l1.9 3.25-1.85 7.85.4.6-3.3 3.15-.6-.4-7.65 1.8V6.15L4.2 2.2l2.15 3.75 2.2-3.75 2.2 3.75L12.9 2.2m7.75 18.75 7.85-1.85v1.15q0 3.85-2.65 8.95-3.7 7.05-10.6 11l.25-1.05 1.75-14.6-.4-.6 3.2-3.4.6.4m-5.6-5.2 3.3 3L15.1 22l-3.2-3.1 3.15-3.15m13.25-9.6h.2v12.4l-7.85-1.9-.6.4-3.2-3.15.4-.6-1.85-7.85 1.9-3.25 2.15 3.75 2.2-3.75 2.2 3.75L26 2.2l2.3 3.95"/><path fill="#6e5050" d="M1.8 19.15v1.1q0 3.85 2.65 8.95Q8.1 36.2 15 40.15l-.25-1-1.8-14.6.4-.6-3.3-3.4-.6.4-7.65-1.8m13-13.7L12.9 2.2l-2.15 3.75-2.2-3.75-2.2 3.75L4.2 2.2 1.8 6.15v12.3l7.65-1.8.6.4 3.3-3.15-.4-.6 1.85-7.85M28.5 19.1l-7.85 1.85-.6-.4-3.2 3.4.4.6-1.75 14.6-.25 1.05q6.9-3.95 10.6-11 2.65-5.1 2.65-8.95V19.1m-10.15-.35-3.3-3-3.15 3.15 3.2 3.1 3.25-3.25M28.5 6.15h-.2L26 2.2l-2.15 3.75-2.2-3.75-2.2 3.75L17.3 2.2l-1.9 3.25 1.85 7.85-.4.6 3.2 3.15.6-.4 7.85 1.9V6.15"/></g></svg>