<svg xmlns="http://www.w3.org/2000/svg" width="37.55" height="68.25"><g fill-rule="evenodd"><path fill="#aaacae" d="M26.35 31.1q0-3.2-2.25-5.5-2.25-2.25-5.5-2.25-3.2 0-5.45 2.25-2.3 2.3-2.3 5.5 0 1.9 1 3.65.85 1.65 2.4 2.7l-3.55 13.1h16.25l-3.8-13.2q1.45-1.05 2.35-2.7.85-1.65.85-3.55M29.4 9.7q4.45 5.75 4.45 13.9l-.1 40.8H3.85V23.6q0-8.15 4.35-13.9 4.4-5.8 10.6-5.8 6.25 0 10.6 5.8"/><path d="M18.8.05Q26.6.05 32.1 7q5.45 6.9 5.45 16.6v44.65H0V23.8Q0 13.9 5.5 7 11.05.05 18.8.05M29.4 9.7q-4.35-5.8-10.6-5.8-6.2 0-10.6 5.8-4.35 5.75-4.35 13.9v40.8h29.9l.1-40.8q0-8.15-4.45-13.9m-3.05 21.4q0 1.9-.85 3.55-.9 1.65-2.35 2.7l3.8 13.2H10.7l3.55-13.1q-1.55-1.05-2.4-2.7-1-1.75-1-3.65 0-3.2 2.3-5.5 2.25-2.25 5.45-2.25 3.25 0 5.5 2.25 2.25 2.3 2.25 5.5"/><path fill="#2d2d2d" d="M24.05 25.6q-2.25-2.3-5.5-2.3t-5.4 2.3q-2.3 2.3-2.3 5.5 0 4.1 3.35 6.3l-3.55 13.1H26.8l-3.7-13.1q3.25-2.4 3.25-6.3 0-3.2-2.3-5.5m13.4-.75.1-1.25q0-9.7-5.5-16.65T18.75 0 5.55 6.95Q0 13.9 0 23.8v44.4h37.45V24.85m-3.7-1.25-.1 1.15V64.4H3.8V23.6q0-8.2 4.4-13.95 4.35-5.8 10.55-5.8 6.15 0 10.65 5.8 4.35 5.75 4.35 13.95"/><path fill="#d7a055" d="M18.55 23.3q3.25 0 5.5 2.3 2.3 2.3 2.3 5.5 0 3.9-3.25 6.3l3.7 13.1H10.65l3.55-13.1q-3.35-2.2-3.35-6.3 0-3.2 2.3-5.5 2.15-2.3 5.4-2.3m15.1 1.45.1-1.15q0-8.2-4.35-13.95-4.5-5.8-10.65-5.8-6.2 0-10.55 5.8Q3.8 15.4 3.8 23.6v40.8h29.85V24.75"/></g></svg>