<svg xmlns="http://www.w3.org/2000/svg" width="22.1" height="42"><g fill-rule="evenodd"><path fill="#bbbdbf" d="m13.15 12.25-2.1 4.45-2.15-4.45-.75.05-.2-.6 3.1-6.55 3.05 6.55-.3.6-.65-.05m1.3 2.3 4.7.3-8.1 21.35L2.9 14.85l4.7-.3 3.45 7.3 3.4-7.3"/><path d="m13.15 12.25.65.05.3-.6-3.05-6.55-3.1 6.55.2.6.75-.05 2.15 4.45 2.1-4.45M11.05 0l5.5 11.7-.4.8 5.95.4L11.05 42 0 12.9l5.9-.4-.4-.8L11.05 0m3.4 14.55-3.4 7.3-3.45-7.3-4.7.3 8.15 21.35 8.1-21.35-4.7-.3"/><path fill="#d7a055" d="m19.15 14.85-4.7-.3-3.4 7.3-3.45-7.3-4.7.3 8.15 21.35 8.1-21.35"/><path fill="#2d2d2d" d="m5.9 12.5-5.9.4L11.05 42 22.1 12.9l-5.95-.4.4-.8L11.05 0 5.5 11.7l.4.8m8.55 2.05 4.7.3-8.1 21.35L2.9 14.85l4.7-.3 3.45 7.3 3.4-7.3m-1.3-2.3-2.1 4.45-2.15-4.45-.75.05-.2-.6 3.1-6.55 3.05 6.55-.3.6-.65-.05"/><path fill="#c88214" d="m11.05 16.7 2.1-4.45.65.05.3-.6-3.05-6.55-3.1 6.55.2.6.75-.05 2.15 4.45"/></g></svg>