<svg xmlns="http://www.w3.org/2000/svg" width="22.45" height="50.2"><g fill-rule="evenodd"><path d="m11.25 5.15-.05-.05-3.15 6.6.25.6.75-.05 2.15 4.4.05-.05v.05l2.15-4.4.6.05h.05l.3-.6-3.1-6.6v.05m5.15 7.35 6.05.4-5 13.05.6.7q2.7 3.3 2.7 7.9l-.05.5V50.2H2.4V34.6q0-4.65 2.7-7.9l.15-.2L0 12.9l6.05-.4-.45-.8L11.25 0l5.6 11.7-.45.8m-5.15 23.6v.05L19.5 14.8h-.05l-4.75-.25h-.05l-3.4 7.2-3.5-7.2H7.7L3 14.8h-.05l8.25 21.35.05-.05m5.4-8.05-.9 2.3q1 1.8 1 4.2l-.05.45v11.2H6.4V34.55q0-1.9.65-3.45l-.95-2.4q-1.7 2.5-1.7 5.9v13.6h14.3V35.05l.05-.5q0-3.8-2.1-6.45v-.05"/><path fill="#bbbdbf" d="m11.25 16.6-.05.05-2.15-4.4-.75.05-.25-.6 3.15-6.6.05.05 3.05 6.55-.3.6-.6-.05h-.05l-2.1 4.35m0 19.5-.05.05L2.95 14.8H3l4.7-.25 3.5 7.25.05-.05 3.4-7.2h.05l4.75.25-8.2 21.3m5.4-8.05v.05q2.1 2.65 2.1 6.45l-.05.5V48.2H4.4V34.6q0-3.4 1.7-5.9l.95 2.4q-.65 1.55-.65 3.45V46.2h10.3V35l.05-.45q0-2.4-1-4.2l.9-2.3"/><path fill="#c98014" d="m13.4 12.25.6.05.3-.6-3.05-6.55-3.2 6.55.25.6.75-.05 2.2 4.35 2.15-4.35"/><path fill="#d8a256" d="m2.95 14.8 8.3 21.3 8.2-21.3-4.8-.25-3.4 7.2-3.55-7.2-4.75.25"/><path fill="#6e503c" d="m16.65 28.1-.9 2.25q1 1.8 1 4.2L16.7 46.2H6.4V34.55q0-1.9.65-3.45l-.95-2.4q-1.7 2.5-1.7 5.9v13.6h14.3l.05-13.65q0-3.8-2.1-6.45"/><path fill="#2d2d2d" d="m0 12.9 5.25 13.6-.15.2q-2.7 3.25-2.7 7.9v15.6h18.3l.05-15.65q0-4.6-2.7-7.9l-.6-.7 5-13.05-6.05-.4.45-.8L11.25 0 5.6 11.7l.45.8-6.05.4m11.25 23.2-8.3-21.3 4.75-.25 3.55 7.2 3.4-7.2 4.8.25-8.2 21.3M14 12.3l-.6-.05-2.15 4.35-2.2-4.35-.75.05-.25-.6 3.2-6.55 3.05 6.55-.3.6m1.75 18.05.9-2.25q2.1 2.65 2.1 6.45L18.7 48.2H4.4V34.6q0-3.4 1.7-5.9l.95 2.4q-.65 1.55-.65 3.45V46.2h10.3l.05-11.65q0-2.4-1-4.2"/></g></svg>