<svg xmlns="http://www.w3.org/2000/svg" width="30.65" height="42"><g fill-rule="evenodd"><path fill="#999" d="m15.7 5.15.5 1.15.15.25 2.45 5.15-.3.65-.7-.1-.15.4-1.3-.1.4-.85-2.1-4.4 1.05-2.15m3.1 1.4.65-1.4 3.1 6.55-.3.65-.65-.1-.15.35-.6-.05.4-.85-2.45-5.15m5.1 8.3L15.7 36.2l-1.15-2.95 7.15-18.5 2.2.1m2.25-.05 1.55.05-8.25 21.35-.75-1.95 7.45-19.45"/><path d="m18.8 6.55 2.45 5.15-.4.85.6.05.15-.35.65.1.3-.65-3.1-6.55-.65 1.4m-3.1-1.4L14.65 7.3l2.1 4.4-.4.85 1.3.1.15-.4.7.1.3-.65-2.45-5.15-.15-.25-.5-1.15M19.45 0l5.6 11.7-.4.85 6 .4L19.45 42l-1.9-4.85L15.7 42l-2.25-5.8-2.3 5.8L0 12.95l6-.4-.45-.85L11.15 0l2.3 4.75L15.7 0l1.85 4 1.9-4m4.45 14.85-2.2-.1-7.15 18.5 1.15 2.95 8.2-21.35m2.25-.05L18.7 34.25l.75 1.95 8.25-21.35-1.55-.05M13.3 12.25l.7.1.25-.65-3.1-6.55-3.1 6.55.2.65.8-.1 2.1 4.45 2.15-4.45M7.7 14.6l-4.75.25 8.2 21.35 8.25-21.35-4.75-.25-3.5 7.25L7.7 14.6"/><path fill="#bbbdbf" d="m13.3 12.25-2.15 4.45-2.1-4.45-.8.1-.2-.65 3.1-6.55 3.1 6.55-.25.65-.7-.1M7.7 14.6l3.45 7.25 3.5-7.25 4.75.25-8.25 21.35-8.2-21.35 4.75-.25"/><path fill="#ffdcaa" d="m27.7 14.85-1.55-.05-7.45 19.45.75 1.95 8.25-21.35"/><path fill="#ebbe7d" d="m23.9 14.85-2.2-.1-7.15 18.5 1.15 2.95 8.2-21.35"/><path fill="#c88214" d="m11.15 16.7 2.15-4.45.7.1.25-.65-3.1-6.55-3.1 6.55.2.65.8-.1 2.1 4.45m7.65-5-3.1-6.55-1.05 2.15 2.1 4.4-.4.85 1.3.1.15-.4.7.1.3-.65m.65-6.55-.65 1.4 2.45 5.15-.4.85.6.05.15-.35.65.1.3-.65-3.1-6.55"/><path fill="#d7a055" d="m7.7 14.6-4.75.25 8.2 21.35 8.25-21.35-4.75-.25-3.5 7.25L7.7 14.6"/><path fill="#2d2d2d" d="m15.7 0-2.25 4.75L11.15 0l-5.6 11.7.45.85-6 .4L11.15 42l2.3-5.8L15.7 42l1.85-4.85 1.9 4.85 11.2-29.05-6-.4.4-.85L19.45 0l-1.9 4-1.85-4M2.95 14.85l4.75-.25 3.45 7.25 3.5-7.25 4.75.25-8.25 21.35-8.2-21.35m10.35-2.6-2.15 4.45-2.1-4.45-.8.1-.2-.65 3.1-6.55 3.1 6.55-.25.65-.7-.1m12.85 2.55 1.55.05-8.25 21.35-.75-1.95 7.45-19.45m-4.45-.05 2.2.1-8.2 21.35-1.15-2.95 7.15-18.5m-6-9.6 3.1 6.55-.3.65-.7-.1-.15.4-1.3-.1.4-.85-2.1-4.4 1.05-2.15m3.1 1.4.65-1.4 3.1 6.55-.3.65-.65-.1-.15.35-.6-.05.4-.85-2.45-5.15"/></g></svg>