<svg xmlns="http://www.w3.org/2000/svg" width="20.55" height="42"><g fill-rule="evenodd"><path fill="#bbbdbf" d="m15.8 11.7-3.55-1.75.7-1.2-2.2-1.95v18.95l3.25 1.3-5.6 12.5L3 26.8l3.2-1.15v-20L8.65 2.6l.05-.15 5.15 4.9 3.6 1.9-1.45 2.5-.2-.05"/><path d="m10.75 7.05 1.95 1.7-.7 1.2 3.75 1.8.05-.05.2.05 1.45-2.5-3.6-1.9-5.15-4.9-.05.15L6.2 5.65v20L3 26.8l5.4 12.75 5.6-12.5-3.25-1.3V7.05m6.05 7.9L12.9 13v11.45L16.95 26l-7.1 16H6.9L0 25.8l3.9-1.45V5.05L8 0h.95l6.15 5.7 5.45 2.8-3.75 6.45"/><path fill="#d7a055" d="M15.75 11.75H16l1.45-2.5-3.6-1.9-5.15-4.9-2.5 3.2v20L3 26.8l5.4 12.75 5.6-12.5-3.25-1.3V7.05l1.95 1.7-.7 1.2 3.75 1.8"/><path fill="#2d2d2d" d="M8 0 3.9 5.05v19.3L0 25.8 6.9 42h2.95l7.1-16-4.05-1.55V13l3.9 1.95 3.75-6.45-5.45-2.8L8.95 0H8m8 11.75h-.25L12 9.95l.7-1.2-1.95-1.7v18.7l3.25 1.3-5.6 12.5L3 26.8l3.2-1.15v-20l2.5-3.2 5.15 4.9 3.6 1.9-1.45 2.5"/></g></svg>