<svg xmlns="http://www.w3.org/2000/svg" width="30.5" height="75"><g fill-rule="evenodd"><path d="m17.1 70.65 5.45-7-7.8-1.3 3.85-4.65h7.2l-10-53.35H14L6.35 57.7h6.15l-6.15 9.65 10.75 3.3m13.4-9.25L18.45 75 0 69.3l5.05-7.9H1.6L10.4 0H19l11.5 61.4"/><path fill="#bbbdbf" d="m17.1 70.65-10.75-3.3 6.15-9.65H6.35L14 4.35h1.8l10 53.35h-7.2l-3.85 4.65 7.8 1.3-5.45 7"/><path fill="#d7a055" d="m17.1 70.65 5.45-7-7.8-1.3 3.85-4.65h7.2l-10-53.35H14L6.35 57.7h6.15l-6.15 9.65 10.75 3.3"/><path fill="#2d2d2d" d="M19 0h-8.6L1.6 61.4h3.45L0 69.3 18.45 75 30.5 61.4 19 0m3.55 63.65-5.45 7-10.75-3.3 6.15-9.65H6.35L14 4.35h1.8l10 53.35h-7.2l-3.85 4.65 7.8 1.3"/></g></svg>