<svg xmlns="http://www.w3.org/2000/svg" width="40" height="38.4"><g fill-rule="evenodd"><path fill="#bcbec0" d="M26.3 8.15q2.1.4 3.65 1.95 1.65 1.65 2 3.9t-.75 4.1q-.9 1.4-2.5 2.05l-1.85.4.15-2.05q1.65-.15 2.45-1.5.8-1.2.5-2.75-.25-1.55-1.45-2.75-1.05-1.05-2.55-1.35l-2.7.3q-.85.45-1.3 1.65l-.25 1.15v.05l-.55 5.05-2.05.1.6-5.3.45-1.95q.7-1.8 2.2-2.55 1.85-.9 3.95-.5m-9.55.8-.4 4.6-2.05.3.85-9.4 5 5.05-.7 2.05-2.7-2.6m6.75 9.9-.35 2.05-9.55.8.4-4.4 2-.05-.2 2.25 7.7-.65m.05 8 2.05-.2-.25 2.8-21.9 5.95 7.35-20.5 8.05-.7-.25 2.05-5.95.5-2 7.05 6.1-.65-.5 6.25 7.25-1.85.05-.7m7.1-6.85 5.1 5.1-17.25 1.55.5-4.6 2.05-.2-.35 2.55 10.6-.95-2.7-2.65 2.05-.8m-8.6-4.1.25-2 4.45-.4-.9 10-2 .05.65-7.85-2.45.2"/><path d="M26.3 8.15q-2.1-.4-3.95.5-1.5.75-2.2 2.55l-.45 1.95-.6 5.3 2.05-.1.55-5.05v-.05l.25-1.15q.45-1.2 1.3-1.65l2.7-.3q1.5.3 2.55 1.35 1.2 1.2 1.45 2.75.3 1.55-.5 2.75-.8 1.35-2.45 1.5l-.15 2.05 1.85-.4q1.6-.65 2.5-2.05 1.1-1.85.75-4.1t-2-3.9Q28.4 8.55 26.3 8.15m-5.8-.9.75-.4q1.7-.85 3.6-.85 3.55 0 6.3 2.65 2.15 2.2 2.55 5.15.45 2.95-1.05 5.35l-.1.15L40 26.75l-12.75 1.1L27 31 0 38.4 9.1 13l3.05-.25L13.25 0l7.25 7.25m1.55 8.65 2.45-.2-.65 7.85 2-.05.9-10-4.45.4-.25 2m8.6 4.1-2.05.8 2.7 2.65-10.6.95.35-2.55-2.05.2-.5 4.6 17.25-1.55-5.1-5.1m-7.1 6.85-.05.7-7.25 1.85.5-6.25-6.1.65 2-7.05 5.95-.5.25-2.05-8.05.7-7.35 20.5 21.9-5.95.25-2.8-2.05.2m-.05-8-7.7.65.2-2.25-2 .05-.4 4.4 9.55-.8.35-2.05m-6.75-9.9 2.7 2.6.7-2.05-5-5.05-.85 9.4 2.05-.3.4-4.6"/><path fill="#c88214" d="m22.3 13.9-.25 2 2.45-.2-.65 7.85 2-.05.9-10-4.45.4m3.3 12.75-2.05.2-.05.7-7.25 1.85.5-6.25-6.1.65 2-7.05 5.95-.5.25-2.05-8.05.7-7.35 20.5 21.9-5.95.25-2.8"/><path fill="#d7a055" d="m23.15 20.9.35-2.05-7.7.65.2-2.25-2 .05-.4 4.4 9.55-.8m-6.8-7.35.4-4.6 2.7 2.6.7-2.05-5-5.05-.85 9.4 2.05-.3m19.4 11.55-5.1-5.1-2.05.8 2.7 2.65-10.6.95.35-2.55-2.05.2-.5 4.6 17.25-1.55m-5.8-15Q28.4 8.55 26.3 8.15t-3.95.5q-1.5.75-2.2 2.55l-.45 1.95-.6 5.3 2.05-.1.55-5.1.25-1.15q.45-1.2 1.3-1.65l2.7-.3q1.5.3 2.55 1.35 1.2 1.2 1.45 2.75.3 1.55-.5 2.75-.8 1.35-2.45 1.5l-.15 2.05 1.85-.4q1.6-.65 2.5-2.05 1.1-1.85.75-4.1t-2-3.9"/><path fill="#2d2d2d" d="m23.5 18.85-.35 2.05-9.55.8.4-4.4 2-.05-.2 2.25 7.7-.65m-1.45-2.95.25-2 4.45-.4-.9 10-2 .05.65-7.85-2.45.2M20.5 7.25 13.25 0l-1.1 12.75L9.1 13 0 38.4 27 31l.25-3.15L40 26.75l-7.45-7.45.1-.15q1.5-2.4 1.05-5.35-.4-2.95-2.55-5.15Q28.4 6 24.85 6q-1.9 0-3.6.85l-.75.4m-3.75 1.7-.4 4.6-2.05.3.85-9.4 5 5.05-.7 2.05-2.7-2.6m6.8 17.9 2.05-.2-.25 2.8-21.9 5.95 7.35-20.5 8.05-.7-.25 2.05-5.95.5-2 7.05 6.1-.65-.5 6.25 7.25-1.85.05-.7m7.1-6.85 5.1 5.1-17.25 1.55.5-4.6 2.05-.2-.35 2.55 10.6-.95-2.7-2.65 2.05-.8M26.3 8.15q2.1.4 3.65 1.95 1.65 1.65 2 3.9t-.75 4.1q-.9 1.4-2.5 2.05l-1.85.4.15-2.05q1.65-.15 2.45-1.5.8-1.2.5-2.75-.25-1.55-1.45-2.75-1.05-1.05-2.55-1.35l-2.7.3q-.85.45-1.3 1.65l-.25 1.15-.55 5.1-2.05.1.6-5.3.45-1.95q.7-1.8 2.2-2.55 1.85-.9 3.95-.5"/></g></svg>