<svg xmlns="http://www.w3.org/2000/svg" width="43" height="35.7"><g fill-rule="evenodd"><path fill="#bcbec0" d="M22.5 17q.05-1.5.85-2.8l1.55-1.9.65-.65-7 .05.6.6 1.55 1.9q.8 1.3.85 2.8.1 2.6-.6 5.25l-.95 4.2q-.7 2.85-1.35 3.75l-.65.95-.95.95H27l-.95-.95-.65-.95q-.65-.95-1.35-3.8l-1-4.15q-.6-2.75-.55-5.25m1.85.05v.3q.35-1.2 1.55-2.2l2.25-1.55 1.9-1.3-2.4-.4L25 15.05q-.6.95-.65 2M18.3 25.7l1.2-5.8q-2.7 7.65-4.8 9.3h2.4q.55-.8 1.2-3.5M16.45 12l-2.35.4 4.05 2.75q1.2 1 1.5 2.2v-.3q-.05-1.05-.6-2L16.45 12M29.3 29.2q-2.25-1.75-4.75-9.3l1.2 5.8q.65 2.7 1.2 3.5h2.35m-.15-14.15L26.6 17q-.8.95-.3 2.35 1.05 3.05 2.9 5.95 2.15 3.4 3.85 3.9h2.15q.85 0 .95.75.1.8-.65.95l-7.1.05 1.6 1.1.15.05h3.1q.8 0 .95.7.15.75-.55 1l-2 .4H12.4l-2-.4-.5-.5v-.65q.15-.3.9-.45l.85-.1h2.2l.2-.05 1.55-1.1-7.1-.05-.5-.35-.1-.6q.1-.75.9-.75h2.15q1.75-.5 3.9-3.9 1.75-2.85 2.85-5.95.5-1.4-.3-2.35l-2.5-1.95q-2.1-1.2-3-2.2l-6.7 1.1q-3.7.3-3.7-1.25 0-1.35 3.6-2.55 4.9-1.7 6.45-2.75l5.5-3.65q3.9-2.25 6.4-2.25Q27 1.5 33.9 5.4l5.55 3.3q2.05 1.5 2.05 3.25 0 2.7-9.25.8l-3.1 2.3"/><path d="M24.35 17.05q.05-1.05.65-2l2.65-3.15 2.4.4-1.9 1.3-2.25 1.55q-1.2 1-1.55 2.2v-.3M22.5 17q-.05 2.5.55 5.25l1 4.15q.7 2.85 1.35 3.8l.65.95.95.95h-9.95l.95-.95.65-.95q.65-.9 1.35-3.75l.95-4.2q.7-2.65.6-5.25-.05-1.5-.85-2.8l-1.55-1.9-.6-.6 7-.05-.65.65-1.55 1.9q-.8 1.3-.85 2.8m7.45-.65q-1.8 1.1-2.15 1.55-.25.35-.05.95 1 2.95 2.7 5.65t2.85 3.2h1.9q.9 0 1.6.55.7.6.85 1.45.1.85-.35 1.65l-1.35 1-.3.1v.05q.2.85-.2 1.6-.45.75-1.25 1.1l-2.55.5H12.4l-2.55-.5q-.95-.35-1.35-1.35-.25-.6-.1-1.4l-.3-.1-1.35-1q-.5-.8-.35-1.65t.85-1.45q.65-.55 1.55-.55h1.9q1.15-.5 2.9-3.2 1.7-2.7 2.7-5.65.2-.6-.05-.95l-4.85-3.45-.2.05-7.15 1q-2.4 0-3.4-1.1Q0 13.7 0 12.7q0-1.65 1.7-2.7 1.1-.65 3.85-1.55Q9.4 7.1 10.7 6.2l.9-.65 5.65-3.6Q20.85 0 23.45 0q3.95 0 11.2 4.1l6.45 4Q43 9.8 43 11.95q0 1.8-1.75 2.65-1.25.5-2.9.5l-5.6-.7-2.8 1.95m-.8-1.3 3.1-2.3q9.25 1.9 9.25-.8 0-1.75-2.05-3.25L33.9 5.4Q27 1.5 23.45 1.5q-2.5 0-6.4 2.25l-5.5 3.65Q10 8.45 5.1 10.15q-3.6 1.2-3.6 2.55 0 1.55 3.7 1.25l6.7-1.1q.9 1 3 2.2L17.4 17q.8.95.3 2.35-1.1 3.1-2.85 5.95-2.15 3.4-3.9 3.9H8.8q-.8 0-.9.75l.1.6.5.35 7.1.05-1.55 1.1-.2.05h-2.2l-.85.1q-.75.15-.9.45v.65l.5.5 2 .4h19.25l2-.4q.7-.25.55-1-.15-.7-.95-.7h-3.1l-.15-.05-1.6-1.1 7.1-.05q.75-.15.65-.95-.1-.75-.95-.75h-2.15q-1.7-.5-3.85-3.9-1.85-2.9-2.9-5.95-.5-1.4.3-2.35l2.55-1.95m.15 14.15h-2.35q-.55-.8-1.2-3.5l-1.2-5.8q2.5 7.55 4.75 9.3M16.45 12l2.6 3.05q.55.95.6 2v.3q-.3-1.2-1.5-2.2L14.1 12.4l2.35-.4m1.85 13.7q-.65 2.7-1.2 3.5h-2.4q2.1-1.65 4.8-9.3l-1.2 5.8"/><path fill="#e1aaa5" d="m14.1 12.4 2.35-.4 2.1-.3 3.9-.2 3.1.15 2.1.25 2.4.4 2.2.45q9.25 1.9 9.25-.8 0-1.75-2.05-3.25L33.9 5.4Q27 1.5 23.45 1.5q-2.5 0-6.4 2.25l-5.5 3.65Q10 8.45 5.1 10.15q-3.6 1.2-3.6 2.55 0 1.55 3.7 1.25l6.7-1.1 2.2-.45"/><path fill="#5a5046" d="M27.65 11.9 25 15.05q-.6.95-.65 2v.3q.35-1.2 1.55-2.2l4.15-2.85-2.4-.4m-8.05 5.15q0-1.05-.55-2L16.45 12l-2.35.4 4.05 2.75q1.05.9 1.45 1.9"/><path fill="#e1c3aa" d="m19.6 17.05-.1 2.85-1.2 5.8q-.65 2.7-1.2 3.5l-1.5 1.75-1.75 1.15-3.05.1q-.75.15-.9.45v.65l.5.5 2 .4h19.25l2-.4q.7-.25.55-1-.15-.7-.95-.7L30 32.05l-1.6-1.1-1.45-1.75q-.55-.8-1.2-3.5l-1.2-5.8-.2-2.55v-.3q.05-1.05.65-2l2.65-3.15-2.1-.25-2.2 2.55q-1.5 2.45-.3 8.05l1 4.15q.7 2.85 1.35 3.8l.65.95.95.95h-9.95l.95-.95.65-.95q.65-.9 1.35-3.75l.95-4.2q1.4-5.35-.25-8.05l-2.15-2.5-2.1.3 2.6 3.05q.55.95.55 2"/><path fill="#c8b496" d="m19.5 19.9.1-2.85q-.4-1-1.45-1.9L14.1 12.4l-2.2.45q.9 1 3 2.2L17.4 17q1.45 1.75-2.55 8.3-2.15 3.4-3.9 3.9H8.8q-.8 0-.9.75l.1.6.5.35 7.1.05 1.5-1.75h-2.4q2.1-1.65 4.8-9.3m12.75-7.15-2.2-.45-4.15 2.85q-1.2 1-1.55 2.2l.2 2.55q2.5 7.55 4.75 9.3h-2.35l1.45 1.75 5.75.05 1.35-.1q.75-.15.65-.95-.1-.75-.95-.75h-2.15q-1.7-.5-3.85-3.9-4.15-6.5-2.6-8.3.55-.75 2.55-1.95l3.1-2.3"/><path fill="#aa7873" d="m32.25 12.75.5 1.65 5.6.7q4.65 0 4.65-3.15 0-2.15-1.9-3.85l-4.75-3.05-1.7-.95Q27.4 0 23.45 0 19.3 0 11.6 5.55l-.9.65q-1.3.9-5.15 2.25Q2.8 9.35 1.7 10 0 11.05 0 12.7q0 2.8 4.05 2.8 2.15 0 7.15-1l.7-1.65-6.7 1.1q-3.7.3-3.7-1.25 0-1.35 3.6-2.55 4.9-1.7 6.45-2.75l5.5-3.65q3.9-2.25 6.4-2.25Q27 1.5 33.9 5.4l5.55 3.3q2.05 1.5 2.05 3.25 0 2.7-9.25.8"/><path fill="#695f50" d="m27.8 17.9 4.95-3.5-.5-1.65-3.1 2.3q-2 1.2-2.55 1.95-1.55 1.8 2.6 8.3 2.15 3.4 3.85 3.9h2.15q.85 0 .95.75.1.8-.65.95l-1.35.1-5.75-.05 1.6 1.1 3.25.05q.8 0 .95.7.15.75-.55 1l-2 .4H12.4l-2-.4-.5-.5v-.65q.15-.3.9-.45l3.05-.1 1.75-1.15-7.1-.05-.5-.35-.1-.6q.1-.75.9-.75h2.15q1.75-.5 3.9-3.9 4-6.55 2.55-8.3l-2.5-1.95q-2.1-1.2-3-2.2l-.7 1.65.2-.05 4.85 3.45q.8 1.1-2.65 6.6-1.75 2.7-2.9 3.2H8.8q-2.05 0-2.4 2-.15.85.35 1.65l1.65 1.1Q8 34.5 9.85 35.2l2.55.5h19.25l2.55-.5q1.9-.85 1.45-2.75l.3-.1q1.95-.55 1.7-2.65-.35-2-2.45-2h-1.9q-1.15-.5-2.85-3.2Q27 19 27.8 17.9"/><path fill="#695f50" d="m23.35 14.2 2.2-2.55-3.1-.15-3.9.2 2.15 2.5q1.65 2.7.25 8.05l-.95 4.2q-.7 2.85-1.35 3.75l-.65.95-.95.95H27l-.95-.95-.65-.95q-.65-.95-1.35-3.8l-1-4.15q-1.2-5.6.3-8.05"/><path fill="#5a5046" d="m18.3 25.7 1.2-5.8q-2.7 7.65-4.8 9.3h2.4q.55-.8 1.2-3.5m6.25-5.8 1.2 5.8q.65 2.7 1.2 3.5h2.35q-2.25-1.75-4.75-9.3"/></g></svg>