<svg xmlns="http://www.w3.org/2000/svg" width="41.95" height="33.7"><g fill-rule="evenodd"><path fill="#231f20" d="M31.5 3.2q.7-.55 1.4-.55.9 0 1.4.6.7.75.55 1.9L33.6 8.5q-.1.3 1.5 3l3.75 6.6 2.65 5.6q.6 1.5.45 2.95-.15 1.6-1.2 2.8-3.8 4.25-14.6 4.25l-16.9-.25q-5.6-.85-8.05-4-2-2.6-.75-5.75.65-1.65 2.7-5.6l3.7-6.6q1.65-2.7 1.5-3L7.1 5.15q-.15-1.15.55-1.9.55-.6 1.4-.6.7 0 1.4.55l1.5 1.4q1.65-1.15 3.1-1.15h.35q1.35.15 2.25.8l.95-2.2Q19.6 0 20.9 0t2.4 2.05l1 2.2q.9-.65 2.25-.8h.35q1.5 0 3.05 1.15H30l1.5-1.4m1.4 1.25L30.05 7H30l-1.1-.95q-1.05-.8-2-.8h-.2q-1 .1-1.75.8l-.55.7-2-1.55q-.6-.3-.9-1.75l-.45-1.6V1.8h-.15v.05l-.45 1.6q-.3 1.45-.9 1.75l-1.4 1-.6.55q-.7-1.35-2.3-1.5h-.2q-.9 0-2 .8l-1.1.95h-.05L9.05 4.45l-.1.05q-.2.2.25 1.3l.85 2.05q.35.9-.35 2.4l-7.6 14.1q-.85 2.2.85 4.35 1.45 1.9 2.6 1.9l.25-.1q.25-.25-.85-1.85-1-1.55 0-2.05l1.75-.4q1.5 0 2.55.85.2 1.65 1.8 2.4l1.55.45.5 1q.9.95 2.7.95t2.45-1.3q.35-.65.35-1.3l-.85-1.05v-7.25l.4-1.6q.75-1.6 2.8-1.6H21q2.05 0 2.8 1.6.4.8.4 1.6v7.25l-.85 1.05.35 1.3q.65 1.3 2.45 1.3t2.65-.95q.45-.5.5-1l1.55-.45q1.65-.75 1.85-2.4l.7-.4q.9-.45 1.85-.45t1.75.4q1 .5 0 2.05-1.1 1.65-.9 1.85l.3.1q1.15 0 2.6-1.9 1.7-2.15.8-4.35l-2.6-5.4-4.95-8.7q-.7-1.5-.35-2.4l.85-2.05q.45-1.1.25-1.3l-.1-.05m-3.25 4.9L27.2 13.9l-1-2.05 2-4.2 1.45 1.7m-3-2.5q.5 0 .9.35l-1.75 3.7q-1.05-3.1.45-3.95l.4-.1m.95 7.9 2.55-4.7 1.4 2.25-2.95 4.3-1-1.85m5.65.75-3.6 3.4-.7-1.5 3-4.35 1.3 2.45m-1.1 8.6q-.5-.45-1.1-1.8l4.1-2.9 1.75 3.9q.6 1.35-.15 1.35h-.2l-1.7-.2-1.5.1q-.75 0-1.2-.45M30 19.7l3.6-3.45 1.2 2.4-4.05 2.85-.75-1.8m-1.3 6.45q-1-3-2.5-6-2.95-6-5.25-6t-5.25 6l-2.5 6q.6-4 1.9-8 2.55-8.05 5.85-8.05t5.85 8.05q1.3 4 1.9 8M10 13.05l2.95 4.35-.7 1.5-3.55-3.4 1.3-2.45m5.3-6.2.4.1q1.5.85.45 3.95l-1.8-3.7.95-.35m-1.55.8 2 4.2-1 2.05-2.45-4.55 1.45-1.7m-.4 8.95-2.95-4.3 1.4-2.25 2.55 4.7-1 1.85m-2.15 4.9-4.05-2.85 1.2-2.4 3.6 3.45-.75 1.8m-6 3.15q-.7 0-.2-1.35l1.8-3.9 4.1 2.9q-.55 1.35-1.1 1.8-.5.45-1.2.45l-1.5-.1-1.7.2h-.2"/><path fill="#bcbec0" d="M5.2 24.65h.2l1.7-.2 1.5.1q.7 0 1.2-.45.55-.45 1.1-1.8l-4.1-2.9L5 23.3q-.5 1.35.2 1.35m6-3.15.75-1.8-3.6-3.45-1.2 2.4 4.05 2.85m2.15-4.9 1-1.85-2.55-4.7-1.4 2.25 2.95 4.3m.4-8.95-1.45 1.7 2.45 4.55 1-2.05-2-4.2m1.55-.8-.95.35 1.8 3.7q1.05-3.1-.45-3.95l-.4-.1m-5.3 6.2L8.7 15.5l3.55 3.4.7-1.5L10 13.05m18.7 13.1q-.6-4-1.9-8-2.55-8.05-5.85-8.05t-5.85 8.05q-1.3 4-1.9 8l2.5-6q2.95-6 5.25-6t5.25 6q1.5 3 2.5 6M30 19.7l.75 1.8 4.05-2.85-1.2-2.4L30 19.7m2.15 4.4q.45.45 1.2.45l1.5-.1 1.7.2h.2q.75 0 .15-1.35l-1.75-3.9-4.1 2.9q.6 1.35 1.1 1.8m1.1-8.6-1.3-2.45-3 4.35.7 1.5 3.6-3.4m-5.65-.75 1 1.85 2.95-4.3-1.4-2.25-2.55 4.7m-.95-7.9-.4.1q-1.5.85-.45 3.95l1.75-3.7q-.4-.35-.9-.35m3 2.5-1.45-1.7-2 4.2 1 2.05 2.45-4.55m3.25-4.9.1.05q.2.2-.25 1.3l-.85 2.05q-.35.9.35 2.4l4.95 8.7 2.6 5.4q.9 2.2-.8 4.35-1.45 1.9-2.6 1.9l-.3-.1q-.2-.2.9-1.85 1-1.55 0-2.05-.8-.4-1.75-.4t-1.85.45l-.7.4q-.2 1.65-1.85 2.4l-1.55.45q-.05.5-.5 1-.85.95-2.65.95t-2.45-1.3l-.35-1.3.85-1.05v-7.25q0-.8-.4-1.6-.75-1.6-2.8-1.6h-.05q-2.05 0-2.8 1.6l-.4 1.6v7.25l.85 1.05q0 .65-.35 1.3-.65 1.3-2.45 1.3t-2.7-.95l-.5-1-1.55-.45q-1.6-.75-1.8-2.4-1.05-.85-2.55-.85l-1.75.4q-1 .5 0 2.05 1.1 1.6.85 1.85l-.25.1q-1.15 0-2.6-1.9-1.7-2.15-.85-4.35l7.6-14.1q.7-1.5.35-2.4L9.2 5.8q-.45-1.1-.25-1.3l.1-.05L11.9 7h.05l1.1-.95q1.1-.8 2-.8h.2q1.6.15 2.3 1.5l.6-.55 1.4-1q.6-.3.9-1.75l.45-1.6V1.8h.15v.05l.45 1.6q.3 1.45.9 1.75l2 1.55.55-.7q.75-.7 1.75-.8h.2q.95 0 2 .8L30 7h.05l2.85-2.55"/><path fill="#aca69b" d="m14.4 7.35 1.05-.45-.2-.05-.95.35.1.15m13.05-.05.05-.1q-.4-.35-.9-.35l.85.45"/><path fill="#a09682" d="m13.15 26.15-.6 3.75.5 1q.9.95 2.7.95t2.45-1.3q.35-.65.35-1.3l-.85-1.05v-7.25l.4-1.6q.75-1.6 2.85-1.6 2.05 0 2.8 1.6.4.8.4 1.6v7.25l-.85 1.05.35 1.3q.65 1.3 2.45 1.3t2.65-.95q.45-.5.5-1l-.6-3.75q-1-3-2.5-6-2.95-6-5.25-6t-5.25 6l-2.5 6m-2-4.65L7.1 18.65l-.35.75 4.1 2.9.3-.8M8.3 16.25l3.6 3.45.3-.8-3.55-3.4-.35.75m5 .35-2.9-4.25-.45.7 2.95 4.35.4-.8m1-1.85.4-.85-2.45-4.55-.5.7 2.55 4.7m-.6-7.1 2 4.2.4-.95-1.7-3.55-.7.3m12.45 4.2 2-4.2-.7-.35-1.7 3.6.4.95m3.45-2.5-2.45 4.55.4.85 2.55-4.7-.5-.7m-.7 8.05 3-4.35-.4-.75-2.95 4.3.35.8m4.3-1.9-3.6 3.4.35.8 3.6-3.45-.35-.75m1.55 3.15L30.7 21.5l.3.8 4.1-2.9-.35-.75"/><path fill="#646464" d="M26.15 20.15q1.5 3 2.5 6-.6-4-1.9-8-2.55-8.05-5.85-8.05t-5.85 8.05q-1.3 4-1.9 8l2.5-6q2.95-6 5.25-6t5.25 6"/><path fill="#646464" d="M20.85 0q-1.3 0-2.3 2.05l-.95 2.2q-.9-.65-2.25-.8H15q-1.45 0-3.1 1.15l-1.5-1.4q-1.6-1.25-2.8.05-.7.75-.55 1.9L8.3 8.5q.15.3-1.5 3l-3.7 6.6-2.7 5.6q-1.25 3.15.75 5.75 2.45 3.15 8.05 4l6.55.25H26.1q10.8 0 14.6-4.25 2.1-2.4.75-5.75l-2.65-5.6-3.75-6.6q-1.6-2.7-1.5-3l1.25-3.35q.15-1.15-.55-1.9-.5-.6-1.4-.6-.7 0-1.4.55L29.9 4.6q-1.55-1.15-3.05-1.15h-.35q-1.35.15-2.25.8l-1-2.2Q22.15 0 20.85 0m.1 1.8.45 1.65q.3 1.45.9 1.75l2 1.55.55-.7q.75-.7 1.75-.8h.2q.95 0 2 .8l1.1.95 2.9-2.55.1.05q.2.2-.25 1.3l-.85 2.05q-.35.9.35 2.4l1.9 3.15 3.05 5.55 2.6 5.4q.9 2.2-.8 4.35-1.45 1.9-2.6 1.9l-.3-.1q-.2-.2.9-1.85 1-1.55 0-2.05-1.75-.85-3.6.05l-.7.4q-.2 1.65-1.85 2.4l-1.5.45q-.05.5-.5 1-.85.95-2.65.95t-2.45-1.3l-.35-1.3.85-1.05v-7.25q0-.8-.4-1.6-.75-1.6-2.8-1.6-2.1 0-2.85 1.6l-.4 1.6v7.25l.85 1.05q0 .65-.35 1.3-.65 1.3-2.45 1.3t-2.7-.95l-.5-1-1.55-.45q-1.6-.75-1.8-2.4-1.05-.85-2.55-.85l-1.75.4q-1 .5 0 2.05 1.1 1.6.85 1.85l-.25.1q-1.15 0-2.6-1.9-1.7-2.15-.85-4.35l2.65-5.4 3.05-5.55 1.9-3.15q.7-1.5.35-2.4L9.15 5.8Q8.7 4.7 8.9 4.5l.1-.05L11.85 7 13 6.05q1.1-.8 2-.8h.2q1.6.15 2.3 1.5l2-1.55q.6-.3.9-1.75l.55-1.65"/><path fill="#f0e6be" d="m15.45 6.9-1.05.45 1.7 3.55q1.05-3.1-.45-3.95l-.2-.05m-1.75.75-1.45 1.7 2.45 4.55 1-2.05-2-4.2m-3.3 4.7 2.9 4.25 1-1.85-2.55-4.7-1.35 2.3m-.45.7-1.3 2.45 3.55 3.4.7-1.5-2.95-4.35m-2.85 5.6 4.05 2.85.75-1.8-3.6-3.45-1.2 2.4m-1.95 6 1.9-.2 1.5.1q1.4 0 2.3-2.25l-4.1-2.9-1.8 3.9q-.5 1.35.2 1.35M26.6 6.85l-.4.1q-1.5.85-.45 3.95l1.7-3.6-.85-.45m1.55.8-2 4.2 1 2.05 2.45-4.55-1.45-1.7m-.6 7.1 1 1.85 2.95-4.3-1.4-2.25-2.55 4.7m4.35-1.7-3 4.35.7 1.5 3.6-3.4-1.3-2.45m1.65 3.2-3.6 3.45.75 1.8 4.05-2.85-1.2-2.4M31 22.3q1 2.25 2.3 2.25l1.5-.1 1.9.2q.75 0 .15-1.35l-1.75-3.9-4.1 2.9"/><path fill="#afa59b" d="m12.55 29.9.6-3.75q.6-4 1.9-8 2.55-8.05 5.85-8.05t5.85 8.05q1.3 4 1.9 8l.6 3.75 1.5-.45q1.65-.75 1.85-2.4l.7-.4q1.85-.9 3.6-.05 1 .5 0 2.05-1.1 1.65-.9 1.85l.3.1q1.15 0 2.6-1.9 1.7-2.15.8-4.35l-2.6-5.4-3.05-5.55-1.9-3.15q-.7-1.5-.35-2.4l.85-2.05q.45-1.1.25-1.3l-.1-.05L29.9 7l-1.1-.95q-1.05-.8-2-.8h-.2q-1 .1-1.75.8l-.55.7-2-1.55q-.6-.3-.9-1.75l-.45-1.65-.55 1.65q-.3 1.45-.9 1.75l-2 1.55q-.7-1.35-2.3-1.5H15q-.9 0-2 .8L11.85 7 9 4.45l-.1.05q-.2.2.25 1.3L10 7.85q.35.9-.35 2.4l-1.9 3.15-3.05 5.55-2.65 5.4q-.85 2.2.85 4.35 1.45 1.9 2.6 1.9l.25-.1q.25-.25-.85-1.85-1-1.55 0-2.05l1.75-.4q1.5 0 2.55.85.2 1.65 1.8 2.4l1.55.45m15.6-22.25 1.45 1.7.5.7 1.4 2.25.4.75 1.3 2.45.35.75 1.2 2.4.35.75 1.75 3.9q.6 1.35-.15 1.35l-1.9-.2-1.5.1q-1.3 0-2.3-2.25l-.3-.8-.75-1.8-.35-.8-.7-1.5-.35-.8-1-1.85-.4-.85-1-2.05-.4-.95q-1.05-3.1.45-3.95l.4-.1q.5 0 .9.35l-.05.1.7.35m-17 13.85-.3.8q-.9 2.25-2.3 2.25l-1.5-.1-1.9.2q-.7 0-.2-1.35l1.8-3.9.35-.75 1.2-2.4.35-.75 1.3-2.45.45-.7 1.35-2.3.5-.7 1.45-1.7.7-.3-.1-.15.95-.35.4.1q1.5.85.45 3.95l-.4.95-1 2.05-.4.85-1 1.85-.4.8-.7 1.5-.3.8-.75 1.8"/></g></svg>