<svg xmlns="http://www.w3.org/2000/svg" width="40" height="37.4"><g fill-rule="evenodd"><path d="m34.85 1.65.35-.5h1.75l.35.75q1.1 2.8.45 8.25l-.35 2.3.95.95v12.95l1.65 1.6V35l-2.45 2.4H2.4L0 35v-7.05l1.6-1.6V13.4l.95-.95-.35-2.3q-.65-5.5.5-8.25l.3-.75h1.75l.35.5q.75.95 1.4 3.1L7.3 4q2.95 2.45 2.95 6.25l-.1 1.25h1.05q-.35-1.35-.35-3 0-4.6 3.1-7.95l2.4-.55.8 1.3Q15.9 2.95 15.5 5.1q1.4-2.55 3.85-3.9L20 .85l.65.35q2.4 1.2 3.8 3.8-.35-2-1.6-3.7l.8-1.3 2.4.55q3.1 3.35 3.1 7.95 0 1.5-.4 3h1.1l-.1-1.25q0-3.85 2.95-6.25l.75.75q.6-2 1.4-3.1M20 2.6q-1.9 1-3.1 3-1.3 2.1-1.3 4.5 0 1.55.55 2.95H16q-2.05-2.7-2.05-6.2T16 .6q-3.8 3.2-3.8 8.1 0 2.35 1 4.35H8.3q.55-1.25.55-2.65 0-3.2-2.45-5.15 1.35 1.75 1.35 4 0 2.1-1.2 3.8h-.2q0-1.7-.25-3.2Q5.6 5 4 2.6q-.45 1-.55 3.05l.15 4.5.5 2.9-1.1 1.1V27.1l-1.6 1.6v5.85L3 36.2h33.95l1.65-1.65V28.7l-1.65-1.6V14.15l-1.05-1.1h-.05l.5-2.9Q37 4.95 36 2.6q-1.55 2.15-2.15 7.25l-.25 3.2h-.15q-1.2-1.7-1.2-3.8 0-2.2 1.3-4-2.4 2-2.4 5.15 0 1.4.55 2.65h-4.9q.95-2.05.95-4.35 0-4.95-3.8-8.1 2.1 2.85 2.1 6.25 0 3.5-2.05 6.2h-.15q.55-1.4.55-2.95 0-2.4-1.3-4.55Q21.9 3.6 20 2.6m3.05 8.65-.25 1.8h-5.65l-.2-1.8q0-1.85 1.05-3.8 1.05-1.9 2-1.9t2 1.9q1.05 1.95 1.05 3.8M21.7 18.2l.35.75v7.7l-.9-1.95q-.65-.85-1.15-.85-.55 0-1.15.85l-.9 1.95v-7.7l.35-.75q.3-.35.75-.35h1.85q.5 0 .8.35m3.1-.35h1.85q.5 0 .8.35l.35.75v7.7q-.3-1.1-.9-1.95-.65-.85-1.15-.85-.55 0-1.15.85t-.9 1.95v-7.7q0-.45.35-.75.3-.35.75-.35m5 .35q.3-.35.75-.35h1.9q.45 0 .8.35l.3.75v7.7q-.3-1.1-.9-1.95-.65-.85-1.15-.85t-1.15.85q-.6.85-.9 1.95v-7.7q0-.45.35-.75M33.55 29v1.45l-.3.8q-.35.35-.8.35h-1.9q-.45 0-.75-.35-.35-.3-.35-.8v-1.3q0-.75.75-2.5.8-1.9 1.3-1.9t1.3 1.7q.75 1.65.75 2.55m-11.5 1.45q0 .5-.35.8-.3.35-.8.35h-1.85q-.45 0-.75-.35-.35-.3-.35-.8v-1.3q0-.75.75-2.5.8-1.9 1.3-1.9t1.3 1.7q.75 1.65.75 2.55v1.45m1.65-1.3q0-.75.75-2.5.8-1.9 1.3-1.9t1.3 1.7q.75 1.65.75 2.55v1.45q0 .5-.35.8-.3.35-.8.35H24.8q-.45 0-.75-.35-.35-.3-.35-.8v-1.3M7.55 17.85H9.4q.5 0 .8.35.35.3.35.75v7.7q-.3-1.1-.9-1.95-.65-.85-1.15-.85-.55 0-1.15.85-.6.8-.95 1.95v-7.7l.35-.75q.35-.35.8-.35m5.75 0h1.85l.8.35q.35.3.35.75v7.7q-.3-1.1-.9-1.95-.65-.85-1.15-.85-.55 0-1.15.85-.6.8-.95 1.95v-7.7q0-.45.35-.75l.8-.35m-2.75 12.6q0 .5-.35.8-.3.35-.8.35H7.55q-.45 0-.8-.35-.35-.3-.35-.8v-1.3q0-.75.75-2.5.85-1.9 1.35-1.9t1.3 1.7q.75 1.65.75 2.55v1.45m1.6-1.3q0-.75.75-2.5.85-1.9 1.35-1.9t1.3 1.7q.75 1.65.75 2.55v1.45q0 .5-.35.8l-.8.35H13.3l-.8-.35q-.35-.3-.35-.8v-1.3"/><path fill="#bcbec0" d="M12.15 29.15v1.3q0 .5.35.8l.8.35h1.85l.8-.35q.35-.3.35-.8V29q0-.9-.75-2.55-.8-1.7-1.3-1.7t-1.35 1.9q-.75 1.75-.75 2.5m-1.6 1.3V29q0-.9-.75-2.55-.8-1.7-1.3-1.7t-1.35 1.9q-.75 1.75-.75 2.5v1.3q0 .5.35.8.35.35.8.35H9.4q.5 0 .8-.35.35-.3.35-.8m2.75-12.6-.8.35q-.35.3-.35.75v7.7q.35-1.15.95-1.95.6-.85 1.15-.85.5 0 1.15.85.6.85.9 1.95v-7.7q0-.45-.35-.75l-.8-.35H13.3m-5.75 0q-.45 0-.8.35l-.35.75v7.7q.35-1.15.95-1.95.6-.85 1.15-.85.5 0 1.15.85.6.85.9 1.95v-7.7q0-.45-.35-.75-.3-.35-.8-.35H7.55m16.15 11.3v1.3q0 .5.35.8.3.35.75.35h1.85q.5 0 .8-.35.35-.3.35-.8V29q0-.9-.75-2.55-.8-1.7-1.3-1.7t-1.3 1.9q-.75 1.75-.75 2.5m-1.65 1.3V29q0-.9-.75-2.55-.8-1.7-1.3-1.7t-1.3 1.9q-.75 1.75-.75 2.5v1.3q0 .5.35.8.3.35.75.35h1.85q.5 0 .8-.35.35-.3.35-.8M33.55 29q0-.9-.75-2.55-.8-1.7-1.3-1.7t-1.3 1.9q-.75 1.75-.75 2.5v1.3q0 .5.35.8.3.35.75.35h1.9q.45 0 .8-.35l.3-.8V29M29.8 18.2q-.35.3-.35.75v7.7q.3-1.1.9-1.95.65-.85 1.15-.85t1.15.85q.6.85.9 1.95v-7.7l-.3-.75q-.35-.35-.8-.35h-1.9q-.45 0-.75.35m-5-.35q-.45 0-.75.35-.35.3-.35.75v7.7q.3-1.1.9-1.95t1.15-.85q.5 0 1.15.85.6.85.9 1.95v-7.7l-.35-.75q-.3-.35-.8-.35H24.8m-3.1.35q-.3-.35-.8-.35h-1.85q-.45 0-.75.35l-.35.75v7.7l.9-1.95q.6-.85 1.15-.85.5 0 1.15.85l.9 1.95v-7.7l-.35-.75m1.35-6.95q0-1.85-1.05-3.8-1.05-1.9-2-1.9t-2 1.9q-1.05 1.95-1.05 3.8l.2 1.8h5.65l.25-1.8M20 2.6q1.9 1 3.1 2.95 1.3 2.15 1.3 4.55 0 1.55-.55 2.95H24q2.05-2.7 2.05-6.2 0-3.4-2.1-6.25 3.8 3.15 3.8 8.1 0 2.3-.95 4.35h4.9q-.55-1.25-.55-2.65 0-3.15 2.4-5.15-1.3 1.8-1.3 4 0 2.1 1.2 3.8h.15l.25-3.2q.6-5.1 2.15-7.25 1 2.35.35 7.55l-.5 2.9h.05l1.05 1.1V27.1l1.65 1.6v5.85l-1.65 1.65H3l-1.6-1.65V28.7L3 27.1V14.15l1.1-1.1-.5-2.9-.15-4.5Q3.55 3.6 4 2.6 5.6 5 6.1 9.85q.25 1.5.25 3.2h.2q1.2-1.7 1.2-3.8 0-2.25-1.35-4Q8.85 7.2 8.85 10.4q0 1.4-.55 2.65h4.9q-1-2-1-4.35 0-4.9 3.8-8.1-2.05 2.75-2.05 6.25t2.05 6.2h.15q-.55-1.4-.55-2.95 0-2.4 1.3-4.5 1.2-2 3.1-3"/><path fill="#dcb464" d="M6.75 18.2q.35-.35.8-.35H9.4q1.15 0 1.15 1.1v7.7q-.3-1.1-.9-1.95-1.9-2.5-3.25 1.95v-7.7l.35-.75m17.3 0q.3-.35.75-.35h1.85q.5 0 .8.35l.35.75v7.7q-.3-1.1-.9-1.95-.65-.85-1.15-.85-.55 0-1.15.85t-.9 1.95v-7.7q0-.45.35-.75M10.55 29v1.45q0 1.15-1.15 1.15H7.55q-1.15 0-1.15-1.15v-1.3q0-.75.75-2.5.85-1.9 1.35-1.9t1.3 1.7q.75 1.65.75 2.55m1.6 1.45v-1.3q0-.75.75-2.5.85-1.9 1.35-1.9t1.3 1.7q.75 1.65.75 2.55v1.45q0 .5-.35.8l-.8.35H13.3l-.8-.35q-.35-.3-.35-.8m.35-12.25.8-.35h1.85l.8.35q.35.3.35.75v7.7q-.3-1.1-.9-1.95-1.9-2.5-3.25 1.95v-7.7q0-.45.35-.75M22.05 29v1.45q0 1.15-1.15 1.15h-1.85q-1.1 0-1.1-1.15v-1.3q0-.75.75-2.5.8-1.9 1.3-1.9t1.3 1.7q.75 1.65.75 2.55m1.65 1.45v-1.3q0-.75.75-2.5.8-1.9 1.3-1.9t1.3 1.7q.75 1.65.75 2.55v1.45q0 1.15-1.15 1.15H24.8q-1.1 0-1.1-1.15m9.1-4q.75 1.65.75 2.55v1.45l-.3.8q-.35.35-.8.35h-1.9q-1.1 0-1.1-1.15v-1.3q0-.75.75-2.5.8-1.9 1.3-1.9t1.3 1.7m-.35-8.6q.45 0 .8.35l.3.75v7.7q-.3-1.1-.9-1.95-.65-.85-1.15-.85t-1.15.85q-.6.85-.9 1.95v-7.7q0-.45.35-.75.3-.35.75-.35h1.9m-11.55 0q.5 0 .8.35l.35.75v7.7l-.9-1.95q-.65-.85-1.15-.85-.55 0-1.15.85l-.9 1.95v-7.7l.35-.75q.3-.35.75-.35h1.85M22 7.45q1.05 1.95 1.05 3.8l-.25 1.8h-5.65l-.2-1.8q0-1.85 1.05-3.8 1.05-1.9 2-1.9t2 1.9m1.1-1.9Q21.9 3.6 20 2.6q-1.9 1-3.1 3-2.25 3.65-.75 7.45H16q-2.05-2.7-2.05-6.2T16 .6q-3.8 3.2-3.8 8.1 0 2.35 1 4.35H8.3q.55-1.25.55-2.65 0-3.2-2.45-5.15 1.35 1.75 1.35 4 0 2.1-1.2 3.8h-.2l-.25-3.2Q5.6 5 4 2.6q-.45 1-.55 3.05l.15 4.5.5 2.9-1.1 1.1V27.1l-1.6 1.6v5.85L3 36.2h33.95l1.65-1.65V28.7l-1.65-1.6V14.15l-1.1-1.1.5-2.9Q37 4.95 36 2.6q-1.55 2.15-2.15 7.25l-.25 3.2h-.15q-1.2-1.7-1.2-3.8 0-2.2 1.3-4-2.4 2-2.4 5.15 0 1.4.55 2.65h-4.9q.95-2.05.95-4.35 0-4.95-3.8-8.1 2.1 2.85 2.1 6.25 0 3.5-2.05 6.2h-.15q1.5-3.8-.75-7.5"/><path fill="#968250" d="M33.55 29q0-.9-.75-2.55-.8-1.7-1.3-1.7t-1.3 1.9q-.75 1.75-.75 2.5v1.3q0 1.15 1.1 1.15h1.9q.45 0 .8-.35l.3-.8V29"/><path fill="#e1e6b4" d="m13.3 17.85-.8.35q-.35.3-.35.75v7.7q1.35-4.45 3.25-1.95.6.85.9 1.95v-7.7q0-.45-.35-.75l-.8-.35H13.3m8.4.35q-.3-.35-.8-.35h-1.85q-.45 0-.75.35l-.35.75v7.7l.9-1.95q.6-.85 1.15-.85.5 0 1.15.85l.9 1.95v-7.7l-.35-.75m3.1-.35q-.45 0-.75.35-.35.3-.35.75v7.7q.3-1.1.9-1.95t1.15-.85q.5 0 1.15.85.6.85.9 1.95v-7.7l-.35-.75q-.3-.35-.8-.35H24.8m8.45.35q-.35-.35-.8-.35h-1.9q-.45 0-.75.35-.35.3-.35.75v7.7q.3-1.1.9-1.95.65-.85 1.15-.85t1.15.85q.6.85.9 1.95v-7.7l-.3-.75m-25.7-.35q-.45 0-.8.35l-.35.75v7.7q1.35-4.45 3.25-1.95.6.85.9 1.95v-7.7q0-1.1-1.15-1.1H7.55"/><path fill="#968250" d="m2.2 10.15.35 2.3-.95.95v12.95L0 27.95V35l2.4 2.4h35.15L40 35v-7.05l-1.65-1.6V13.4l-.95-.95.35-2.3q.65-5.45-.45-8.25l-.35-.75H35.2l-.35.5q-.8 1.1-1.4 3.1L32.7 4q-2.95 2.4-2.95 6.25l.1 1.25h-1.1Q30.4 5.25 26.05.55L23.65 0l-.8 1.3Q24.1 3 24.45 5q-1.4-2.6-3.8-3.8L20 .85l-.65.35Q16.9 2.55 15.5 5.1q.4-2.15 1.65-3.8l-.8-1.3-2.4.55q-3.1 3.35-3.1 7.95 0 1.65.35 3h-1.05l.1-1.25q0-3.8-2.95-6.25l-.8.75q-.65-2.15-1.4-3.1l-.35-.5H3l-.3.75q-1.15 2.75-.5 8.25M20 2.6q1.9 1 3.1 2.95 2.25 3.7.75 7.5H24q2.05-2.7 2.05-6.2 0-3.4-2.1-6.25 3.8 3.15 3.8 8.1 0 2.3-.95 4.35h4.9q-.55-1.25-.55-2.65 0-3.15 2.4-5.15-1.3 1.8-1.3 4 0 2.1 1.2 3.8h.15l.25-3.2q.6-5.1 2.15-7.25 1 2.35.35 7.55l-.5 2.9 1.1 1.1V27.1l1.65 1.6v5.85l-1.65 1.65H3l-1.6-1.65V28.7L3 27.1V14.15l1.1-1.1-.5-2.9-.15-4.5Q3.55 3.6 4 2.6 5.6 5 6.1 9.85l.25 3.2h.2q1.2-1.7 1.2-3.8 0-2.25-1.35-4Q8.85 7.2 8.85 10.4q0 1.4-.55 2.65h4.9q-1-2-1-4.35 0-4.9 3.8-8.1-2.05 2.75-2.05 6.25t2.05 6.2h.15q-1.5-3.8.75-7.45 1.2-2 3.1-3"/><path fill="#968250" d="M23.05 11.25q0-1.85-1.05-3.8-1.05-1.9-2-1.9t-2 1.9q-1.05 1.95-1.05 3.8l.2 1.8h5.65l.25-1.8m-12.5 19.2V29q0-.9-.75-2.55-.8-1.7-1.3-1.7t-1.35 1.9q-.75 1.75-.75 2.5v1.3q0 1.15 1.15 1.15H9.4q1.15 0 1.15-1.15m1.6-1.3v1.3q0 .5.35.8l.8.35h1.85l.8-.35q.35-.3.35-.8V29q0-.9-.75-2.55-.8-1.7-1.3-1.7t-1.35 1.9q-.75 1.75-.75 2.5m9.9 1.3V29q0-.9-.75-2.55-.8-1.7-1.3-1.7t-1.3 1.9q-.75 1.75-.75 2.5v1.3q0 1.15 1.1 1.15h1.85q1.15 0 1.15-1.15m1.65-1.3v1.3q0 1.15 1.1 1.15h1.85q1.15 0 1.15-1.15V29q0-.9-.75-2.55-.8-1.7-1.3-1.7t-1.3 1.9q-.75 1.75-.75 2.5"/></g></svg>