<svg xmlns="http://www.w3.org/2000/svg" width="42" height="41.7"><g fill-rule="evenodd"><path fill="#bcbec0" d="m19.85 2.5 9.55 14.2L39 30.9l-4 1.35-7.9-12.55-7.85-12.5-.15.05-14.6 11.1-.15.1-.1.05-2.05-2.85L19.65 2.6l.1-.1h.1"/><path fill="#bcbec0" d="m13.45 18.7 1.75 5.65 1.75.75 1.7.7 1.05-7.4-3.1.15-3.15.15m5.3-8.6L32.6 33.4l.05.1.05.15-7 3.15-7.05 3.1-8.9-4.35V17.2l9-7.1"/><path fill="#020202" d="M20.8.1 42 31.25v.05L18.55 41.6q-.05.15-.2.1l-.05-.1-10.2-5V17.3L5.85 19l-2.2 1.65L0 15.55 20.75 0l.05.1m-1.55 7.1 7.85 12.5L35 32.25l4-1.35-9.6-14.2-9.55-14.2h-.1l-.1.1L2.2 15.65l2.05 2.85.1-.05.15-.1 14.6-11.1.15-.05m-9.5 10v18.35l8.9 4.35 7.05-3.1 7-3.15-.05-.15-.05-.1-13.85-23.3-9 7.1"/><path fill="#020202" d="m16.6 18.55 3.1-.15-1.05 7.4-1.7-.7-1.75-.75-1.75-5.65 3.15-.15"/><path fill="#69503c" d="M4.25 18.55 19.2 7.2l15.75 25.05 4-1.35L19.8 2.5 2.2 15.7l2.05 2.85"/><path fill="#e6e1a0" d="m19.7 18.4-6.25.35 1.75 5.65 3.45 1.45 1.05-7.45"/><path fill="#3c3228" d="M42 31.3 20.75.05 0 15.6l3.65 5.1 4.45-3.35V36.6l10.3 5.05L42 31.3M19.2 7.2 4.25 18.55 2.2 15.7 19.8 2.5l19.15 28.4-4 1.35L19.2 7.2m-9.45 10 9-7.05 13.95 23.5-14.05 6.25-8.9-4.35V17.2"/><path fill="#8c7864" d="m13.45 18.75 6.25-.35-1.05 7.45-3.45-1.45-1.75-5.65m5.3-8.6-9 7.05v18.35l8.9 4.35 14.05-6.25-13.95-23.5"/></g></svg>