<svg xmlns="http://www.w3.org/2000/svg" width="21.7" height="21.7"><g fill-rule="evenodd"><path d="M21.7 10.85q0 4.45-3.15 7.65-3.2 3.2-7.7 3.2T3.2 18.5Q0 15.3 0 10.85q0-4.5 3.2-7.7Q6.35 0 10.85 0t7.7 3.15q3.15 3.2 3.15 7.7m-6.4-4.3q1.8 1.8 1.8 4.35 0 2.6-1.8 4.45-1.8 1.75-4.4 1.75-2.55 0-4.35-1.75Q4.7 13.5 4.7 10.9q0-2.55 1.85-4.35 1.8-1.8 4.35-1.8 2.6 0 4.4 1.8m2.15 10.95q2.75-2.7 2.75-6.6t-2.75-6.6q-2.7-2.75-6.6-2.75Q7 1.55 4.2 4.3 1.5 7 1.5 10.9t2.7 6.6q2.8 2.75 6.65 2.75 3.9 0 6.6-2.75"/><path fill="#aaacae" d="M15.3 6.55q-1.8-1.8-4.4-1.8-2.55 0-4.35 1.8Q4.7 8.35 4.7 10.9q0 2.6 1.85 4.45 1.8 1.75 4.35 1.75 2.6 0 4.4-1.75 1.8-1.85 1.8-4.45 0-2.55-1.8-4.35m2.15 10.95q-2.7 2.75-6.6 2.75-3.85 0-6.65-2.75-2.7-2.7-2.7-6.6t2.7-6.6Q7 1.55 10.85 1.55q3.9 0 6.6 2.75Q20.2 7 20.2 10.9t-2.75 6.6"/><path fill="#484848" d="M15.3 6.55q-1.8-1.8-4.4-1.8-2.55 0-4.35 1.8Q4.7 8.35 4.7 10.9q0 2.6 1.85 4.45 1.8 1.75 4.35 1.75 2.6 0 4.4-1.75 1.8-1.85 1.8-4.45 0-2.55-1.8-4.35m3.25-3.4Q15.35 0 10.85 0T3.2 3.15Q0 6.35 0 10.85q0 4.45 3.2 7.65 3.15 3.2 7.65 3.2t7.7-3.2q3.15-3.2 3.15-7.65 0-4.5-3.15-7.7m-7.7-1.6q3.9 0 6.6 2.75Q20.2 7 20.2 10.9t-2.75 6.6q-2.7 2.75-6.6 2.75-3.85 0-6.65-2.75-2.7-2.7-2.7-6.6t2.7-6.6Q7 1.55 10.85 1.55"/><path fill="#bec0c2" d="M10.9 4.75q2.6 0 4.4 1.8t1.8 4.35q0 2.6-1.8 4.45-1.8 1.75-4.4 1.75-2.55 0-4.35-1.75Q4.7 13.5 4.7 10.9q0-2.55 1.85-4.35 1.8-1.8 4.35-1.8m6.55-.45q-2.7-2.75-6.6-2.75Q7 1.55 4.2 4.3 1.5 7 1.5 10.9t2.7 6.6q2.8 2.75 6.65 2.75 3.9 0 6.6-2.75 2.75-2.7 2.75-6.6t-2.75-6.6"/></g></svg>