<svg xmlns="http://www.w3.org/2000/svg" width="27.4" height="40.65"><g fill-rule="evenodd"><path d="M15.05 7.4h3.1v2.25l3.35 6.55h5.9v5.25l-.85 1.15v8.35l-12.95 9.7L.85 31.2v-8.35L0 21.65v-5.2h5.75V12.4L3.6 10.65 7.9 2.3V0h4.55v2.3l2.6 5.1m.55 2v.75l-3 5.95v-4.7l1.6-1.3-3.75-7.35V2H9.9v.75L6.15 10.1l1.6 1.3v14.95h-.7l.05-7.9H6.05v1.35h-1v-1.35H4v1.35h-.95v-1.35H2v2.6l.85 1.2v7.95l10.75 7.95 10.95-8.2V22l.85-1.2v-2.6h-1.05v1.35h-1V18.2H22.3v1.35h-.95V18.2H20.3v5.4h-.75v-6.85l-3.4-6.6V9.4h-.55m2.2 9.8h-1.45v-3.35h1.45v3.35m-2.55 0H13.8v-3.35h1.45v3.35M11.7 7.5v3.3h-1.45V7.5h1.45m2 19.25q1.1.05 1.85.85.8.8.8 1.9v4.95h-5.3V29.5q0-1.1.8-1.9.75-.8 1.85-.85"/><path fill="#bcbec0" d="M13.7 26.75q-1.1.05-1.85.85-.8.8-.8 1.9v4.95h5.3V29.5q0-1.1-.8-1.9-.75-.8-1.85-.85m-2-19.25h-1.45v3.3h1.45V7.5m3.55 11.7v-3.35H13.8v3.35h1.45m2.55 0v-3.35h-1.45v3.35h1.45m-2.2-9.8h.55v.75l3.4 6.6v6.85h.75v-5.4h1.05v1.35h.95V18.2h1.05v1.35h1V18.2h1.05v2.6l-.85 1.2v7.95l-10.95 8.2L2.85 30.2v-7.95L2 21.05v-2.6h1.05v1.35H4v-1.35h1.05v1.35h1v-1.35H7.1l-.05 7.9h.7V11.4l-1.6-1.3L9.9 2.75V2h.55v.75l3.75 7.35-1.6 1.3v4.7l3-5.95V9.4"/><path fill="#e4dfa2" d="M15.25 15.85H13.8v3.35h1.45v-3.35M11.7 7.5h-1.45v3.3h1.45V7.5m4.65 11.7h1.45v-3.35h-1.45v3.35"/><path fill="#6e4d3b" d="M11.85 27.6q-.8.8-.8 1.9v4.95h5.3V29.5q0-1.1-.8-1.9-.75-.8-1.85-.85-1.1.05-1.85.85"/><path fill="#969696" d="M11.05 29.5q0-1.1.8-1.9.75-.8 1.85-.85 1.1.05 1.85.85.8.8.8 1.9v4.95h-5.3V29.5m-.8-22h1.45v3.3h-1.45V7.5m3.55 8.35h1.45v3.35H13.8v-3.35m4 3.35h-1.45v-3.35h1.45v3.35m-1.65-9.8h-.55v.75l-3 5.95v-4.7l1.6-1.3-3.75-7.35V2H9.9v.75L6.15 10.1l1.6 1.3v14.95h-.7l.05-7.9H6.05v1.35h-1v-1.35H4v1.35h-.95v-1.35H2v2.6l.85 1.2v7.95l10.75 7.95 10.95-8.2V22l.85-1.2v-2.6h-1.05v1.35h-1V18.2H22.3v1.35h-.95V18.2H20.3v5.4h-.75v-6.85l-3.4-6.6V9.4"/><path fill="#4b4b4b" d="m3.6 10.65 2.15 1.75v4.05H0v5.2l.85 1.2v8.35l12.75 9.45 12.95-9.7V22.6l.85-1.15V16.2h-5.9l-3.35-6.55V7.4h-3.1l-2.6-5.1V0H7.9v2.3l-4.3 8.35m12-1.25h.55v.75l3.4 6.6v6.85h.75v-5.4h1.05v1.35h.95V18.2h1.05v1.35h1V18.2h1.05v2.6l-.85 1.2v7.95l-10.95 8.2L2.85 30.2v-7.95L2 21.05v-2.6h1.05v1.35H4v-1.35h1.05v1.35h1v-1.35H7.1l-.05 7.9h.7V11.4l-1.6-1.3L9.9 2.75V2h.55v.75l3.75 7.35-1.6 1.3v4.7l3-5.95V9.4"/></g></svg>