<svg xmlns="http://www.w3.org/2000/svg" width="32.1" height="40"><g fill-rule="evenodd"><path d="m21.2 2.55 7.35 11.95-3.6 2.4v2l7.15 4.75-3.65 2.4V36.8L17.7 39.95 9.05 37.8l-6.35-.25v-6.9L0 28.1v-5.3l11.75-6.4-2.95-1.9 7.4-11.95V0h5v2.55m-.05 11.65h-1.8v-3.4h1.8v3.4m4.9-.25-6.7-10.8v-1.1h-.95v1.1l-6.65 10.8 2.9 1.9v1.4L2.2 24.05v3.2l2.7 2.6v5.8l2.05.05.05-7.6 4.1-2.05.1 10.2 6.65 1.65 8.8-2.55v-10.3l2.05-1.35-5.55-3.65v-4.2l2.9-1.9m-9.8-3.15h1.8v3.4h-1.8v-3.4M18 27.85v4.85h-3.45v-4.85H18"/><path fill="#bcbec0" d="M18 27.85h-3.45v4.85H18v-4.85M16.25 10.8v3.4h1.8v-3.4h-1.8m9.8 3.15-2.9 1.9v4.2l5.55 3.65-2.05 1.35v10.3l-8.8 2.55-6.65-1.65-.1-10.2L7 28.1l-.05 7.6-2.05-.05v-5.8l-2.7-2.6v-3.2l12.45-6.8v-1.4l-2.9-1.9 6.65-10.8v-1.1h.95v1.1l6.7 10.8m-4.9.25v-3.4h-1.8v3.4h1.8"/><path fill="#e4dfa2" d="M18.05 10.85h-1.8v3.4h1.8v-3.4m1.3 0v3.4h1.8v-3.4h-1.8M18 32.75V27.9h-3.45v4.85H18M7.65 28.6v1.2H8.9v-1.2H7.65m1.5 0v1.2h1.25v-1.2H9.15m0 1.4v1.2h1.25V30H9.15m-1.5 0v1.2H8.9V30H7.65"/><path fill="#554b41" d="m8.8 14.55 2.95 1.9L0 22.85v5.3l2.7 2.55v6.9l6.35.25L17.7 40l10.75-3.15V26.1l3.65-2.4-7.15-4.75v-2l3.6-2.4L21.2 2.6V.05h-5V2.6L8.8 14.55M7.65 31.2V30H8.9v1.2H7.65m1.5 0V30h1.25v1.2H9.15m0-1.4v-1.2h1.25v1.2H9.15m-1.5 0v-1.2H8.9v1.2H7.65m11.7-27.7v1.1l6.7 10.8-2.9 1.9v4.2l5.55 3.65-2.05 1.35v10.3l-8.8 2.55-6.65-1.65-.1-10.2L7 28.15l-.05 7.6-2.05-.05v-5.8l-2.7-2.6v-3.2l12.45-6.8v-1.4l-2.9-1.9L18.4 3.2V2.1h.95"/><path fill="#7d6455" d="M18 27.9v4.85h-3.45V27.9H18m1.35-13.65v-3.4h1.8v3.4h-1.8m-3.1-3.4h1.8v3.4h-1.8v-3.4m3.1-7.65V2.1h-.95v1.1L11.75 14l2.9 1.9v1.4L2.2 24.1v3.2l2.7 2.6v5.8l2.05.05.05-7.6 4.1-2.05.1 10.2 6.65 1.65 8.8-2.55V25.1l2.05-1.35-5.55-3.65v-4.2l2.9-1.9-6.7-10.8"/></g></svg>