<svg xmlns="http://www.w3.org/2000/svg" width="30.4" height="41.2"><g fill-rule="evenodd"><path d="M15.2 3.05 18.1 0l3.95 5.9-2.4 2.5L30.4 25.75l-3.85 5.8-.65-.75.1 3.9-11.1 6.5-10.45-6.4v-3.95l-.6.7L0 25.8 10.7 8.35 8.35 5.9l3.9-5.9 2.95 3.05m4.3 2.2-1.65-2.5L15.2 5.5l-2.65-2.75-1.65 2.5 2.3 2.4L2.4 25.3l1.65 2.5 2.35-2.7.05.1v8.05l8.5 5.15 9-5.25-.15-8.3 2.55 2.95L28 25.3 17.1 7.7l2.4-2.45M17.8 32.1h-5.2l1.25-9.1 2.85.2 1.1 8.9"/><path fill="#bcbec0" d="m17.8 32.1-1.1-8.9-2.85-.2-1.25 9.1h5.2m1.7-26.85L17.1 7.7 28 25.3l-1.65 2.5-2.55-2.95.15 8.3-9 5.25-8.5-5.15V25.2l-.05-.1-2.35 2.7-1.65-2.5L13.2 7.65l-2.3-2.4 1.65-2.5L15.2 5.5l2.65-2.75 1.65 2.5"/><path fill="#e4dfa2" d="m17.8 32.1-1.1-8.9-2.85-.2-1.25 9.1h5.2"/><path fill="#735a4b" d="m8.35 5.9 2.35 2.45L0 25.8l3.85 5.75.6-.7v3.95l10.45 6.4L26 34.7l-.1-3.9.65.75 3.85-5.8L19.65 8.4l2.4-2.5L18.1 0l-2.9 3.05L12.25 0l-3.9 5.9m6.85-.4 2.65-2.75 1.65 2.5-2.4 2.45L28 25.3l-1.65 2.5-2.55-2.95.15 8.3-9 5.25-8.5-5.15-.05-8.15-2.35 2.7-1.65-2.5L13.2 7.65l-2.3-2.4 1.65-2.5L15.2 5.5"/><path fill="#a5826e" d="m16.7 23.2 1.1 8.9h-5.2l1.25-9.1 2.85.2m1.15-20.45L15.2 5.5l-2.65-2.75-1.65 2.5 2.3 2.4L2.4 25.3l1.65 2.5 2.35-2.7.05 8.15 8.5 5.15 9-5.25-.15-8.3 2.55 2.95L28 25.3 17.1 7.7l2.4-2.45-1.65-2.5"/></g></svg>