<svg xmlns="http://www.w3.org/2000/svg" width="39.6" height="42"><g fill-rule="evenodd"><path d="m26.6 11.5 2.6-4.15L39.6 33.5 24.75 42v-3.15Q24.7 32 23.5 28.35q-1-3-2.45-3T18.6 28.4q-1.2 3.7-1.25 10.65v2.9L0 33.75 9.6 14.8l3.1 2.15L18.95 0h2.4l5.25 11.5m-.35 3.9L20.1 2l-6.6 17.85-3.3-2.3-7.8 15.3 13 6.2q0-5.65.85-9.45 1.35-6.1 4.7-6.1 5.4 0 5.55 15.35l10.7-6.15-8.45-21.3-2.5 4"/><path fill="#bcbec0" d="m26.25 15.4 2.5-4 8.45 21.3-10.7 6.15q-.15-15.35-5.55-15.35-3.35 0-4.7 6.1-.85 3.8-.85 9.45l-13-6.2 7.8-15.3 3.3 2.3L20.1 2l6.15 13.4"/><path fill="#ebebeb" d="m30.95 17.2.1-.1-2.25-5.7-2.5 4L20.15 2l-6.6 17.85-3.3-2.3-1.6 3.1q.8.05 1.8-.45 1.2.6 1.8 1.5 2.8.5 5.2-.7 2.85 0 5.2-.6.95-.15 1.9.3 1.25-.6 1.6-2.5.2-.2.9-.1 1.05 0 2.4.4 1.1-.2 1.5-1.3"/><path fill="#ccc" d="M31.05 17.1q.5-.35 1.85-.5l-3.7-9.25-2.6 4.15L21.35 0h-2.4L12.7 16.95 9.6 14.8l-2.5 5q.55.05.65.6l.9.25 1.6-3.1 3.3 2.3L20.15 2l6.15 13.4 2.5-4 2.25 5.7"/><path fill="#4e3a32" d="M32.9 16.6q-1.35.15-1.85.5l6.2 15.6-10.7 6.15Q26.4 23.5 21 23.5q-5.55 0-5.55 15.55l-13-6.2 6.2-12.2-.9-.25q-.1-.55-.65-.6L.05 33.75l17.35 8.2v-2.9q.05-6.95 1.25-10.65 1-3.05 2.45-3.05t2.45 3q1.2 3.65 1.2 10.5V42l14.85-8.5-6.7-16.9"/><path fill="#685046" d="m31.05 17.1-.1.1q-.4 1.1-1.5 1.3-1.35-.4-2.4-.4-.7-.1-.9.1-.35 1.9-1.6 2.5-.95-.45-1.9-.3-2.35.6-5.2.6-2.4 1.2-5.2.7-.6-.9-1.8-1.5-1 .5-1.8.45l-6.2 12.2 13 6.2q0-15.55 5.55-15.55 5.4 0 5.55 15.35l10.7-6.15-6.2-15.6"/></g></svg>