<svg xmlns="http://www.w3.org/2000/svg" width="28.15" height="39.6"><g fill-rule="evenodd"><path d="m20.4 0-2.9 11.85 10.65 27.7h-10.7l-3.4-13.75-3.35 13.75H0l10.65-27.7L7.75 0h5.15l1.15 3 1.2-3h5.15m-2.55 2H16.6l-2.55 6.55L11.55 2H10.3l2.45 10-9.8 25.55h6.2l4.9-20.2L19 37.55h6.2L15.4 12l2.45-10"/><path fill="#bcbec0" d="M17.85 2 15.4 12l9.8 25.55H19l-4.95-20.2-4.9 20.2h-6.2L12.75 12 10.3 2h1.25l2.5 6.55L16.6 2h1.25"/><path fill="#b48764" d="M11.55 2.05H10.3l2.45 10-9.8 25.55h6.2l4.9-20.2L19 37.6h6.2l-9.8-25.55 2.45-10H16.6L14.05 8.6l-2.5-6.55"/><path fill="#735a46" d="m7.75.05 2.9 11.85L0 39.6h10.7l3.35-13.75 3.4 13.75h10.7L17.5 11.9 20.4.05h-5.15l-1.2 3-1.15-3H7.75m2.55 2h1.25l2.5 6.55 2.55-6.55h1.25l-2.45 10 9.8 25.55H19l-4.95-20.2-4.9 20.2h-6.2l9.8-25.55-2.45-10"/></g></svg>