<svg xmlns="http://www.w3.org/2000/svg" width="25.05" height="40.35"><g fill-rule="evenodd"><path fill="#bcbec0" d="M16.2 13.7v3.4H18v-3.4h-1.8m-2.7 3.4v-3.4h-1.8v3.4h1.8m3.6-11.75H20V2h3.05v6.45L20.6 11.4v20.05l-8.15 6.35-8-6.35V11.4L2 8.45V2h3.1v3.35H8V2h3.1v3.35H14V2h3.1v3.35m-10 8.35v3.4h1.75v-3.4H7.1"/><path d="M17.1 5.35V2H14v3.35h-2.9V2H8v3.35H5.1V2H2v6.45l2.45 2.95v20.05l8 6.35 8.15-6.35V11.4l2.45-2.95V2H20v3.35h-2.9M13.5 17.1h-1.8v-3.4h1.8v3.4m2.7-3.4H18v3.4h-1.8v-3.4m8.85-4.5-2.45 2.95V32.4l-10.15 7.95-10-7.95V12.15L0 9.2V0h25.05v9.2M7.1 13.7h1.75v3.4H7.1v-3.4"/><path fill="#e6e1a5" d="M7.1 17.1h1.75v-3.4H7.1v3.4m4.6-3.4v3.4h1.8v-3.4h-1.8m4.5 3.4H18v-3.4h-1.8v3.4"/><path fill="#969696" d="M8.85 17.1H7.1v-3.4h1.75v3.4m2.85 0v-3.4h1.8v3.4h-1.8m6.3 0h-1.8v-3.4H18v3.4M20 2v3.35h-2.9V2H14v3.35h-2.9V2H8v3.35H5.1V2H2v6.45l2.45 2.95v20.05l8 6.35 8.15-6.35V11.4l2.45-2.95V2H20"/><path fill="#4b4b4b" d="m0 9.2 2.45 2.95V32.4l10 7.95L22.6 32.4V12.15l2.45-2.95V0H0v9.2m20-3.85V2h3.05v6.45L20.6 11.4v20.05l-8.15 6.35-8-6.35V11.4L2 8.45V2h3.1v3.35H8V2h3.1v3.35H14V2h3.1v3.35H20"/></g></svg>