<svg xmlns="http://www.w3.org/2000/svg" width="30.25" height="41.8"><g fill-rule="evenodd"><path d="m16.7 0 2 3.45v8.7l5.25 5.8 1.65.35 3.6 6.85 1.05 10.55-9.8.5-5.35 5.6-5.3-5.6-9.8-.5 1.1-10.75 3.55-6.65 1.65-.35 5.25-5.8v-8.7L13.5 0h3.2m-1.15 2h-.9L13.5 4v8.9l-6.2 6.9-1.3.25-2.95 5.5-.85 8.15h5.35l-.5-2.05.25-4.15 2.65-6.15 1.6-2.45 1.95-1.35.05 2.7L11.9 35.5l3.2 3.4 3.25-3.4-1.65-15.2v-2.75l2 1.35 1.55 2.35 2.7 6.25.25 4.15-.5 2.05h5.35l-.8-8-3-5.65-1.3-.25-6.25-6.9V4l-1.15-2"/><path fill="#bcbec0" d="m15.55 2 1.15 2v8.9l6.25 6.9 1.3.25 3 5.65.8 8H22.7l.5-2.05-.25-4.15-2.7-6.25-1.55-2.35-2-1.35v2.75l1.65 15.2-3.25 3.4-3.2-3.4 1.65-15.25-.05-2.7-1.95 1.35-1.6 2.45L7.3 27.5l-.25 4.15.5 2.05H2.2l.85-8.15L6 20.05l1.3-.25 6.2-6.9V4l1.15-2h.9"/><path fill="#41553c" d="M7.2 33.7q-.15-.95-1.5-1.4l.35-.4-.3-.75-.5.65-.4-.1-1.05.9q.1-1.05-1.35-1.1l-.25 2.2h5m6.1 1.15-1.25.8 3.05 3.25 3.25-3.4-.75-6.55-1.2-1.05q-1.35.2-.9 2.35-.25 1.55-1.4 1.35l-.8 3.25M22.3 19.1q-.3 1.8.55 2.8l-.25 2q.2 1.1 1.4 1.4.45.9.5 2.9 1.1.85 2.2 0 .7-.5.6-.1h.2l-.25-2.4-3-5.65-1.3-.25-.65-.7m1.85 13.2q-.4.5-.2 1.4h4.1l-.25-2.25q-1.5-.5-1.9.95-.45.55-1.75-.1M14.9 11.65q1.1 1.1 1.8.95V5.1q-.45-.8-1.3-.8-.4.55-.1 1.9l-.7 1.6v1.3l.6 1.6-.3.95"/><path fill="#a0a0a0" d="M23.95 33.7q-.2-.9.2-1.4 1.3.65 1.75.1.4-1.45 1.9-.95l-.3-3.35h-.2q.1-.4-.6.1-1.1.85-2.2 0-.05-2-.5-2.9-1.2-.3-1.4-1.4l.25-2q-.85-1-.55-2.8l-5.6-6.2v-.3q-.7.15-1.8-.95l.3-.95-.6-1.6V7.8l.7-1.6q-.3-1.35.1-1.9.85 0 1.3.8V4l-1.15-2h-.9L13.5 4v8.9l-6.2 6.9-1.3.25-2.95 5.5-.6 5.95q1.45.05 1.35 1.1l1.05-.9.4.1.5-.65.3.75-.35.4q1.35.45 1.5 1.4h.35l-.5-2.05.25-4.15 2.65-6.15 1.6-2.45 1.95-1.35.05 2.7L11.9 35.5l.15.15 1.25-.8.8-3.25q1.15.2 1.4-1.35-.45-2.15.9-2.35l1.2 1.05-.9-8.65v-2.75l2 1.35 1.55 2.35 2.7 6.25.25 4.15-.5 2.05h1.25"/><path fill="#323232" d="M11.55 3.45v8.7l-5.25 5.8-1.65.35-3.55 6.65L0 35.7l9.8.5 5.3 5.6 5.35-5.6 9.8-.5-1.05-10.55-3.6-6.85-1.65-.35-5.25-5.8v-8.7L16.7 0h-3.2l-1.95 3.45m4-1.45 1.15 2v8.9l5.6 6.2.65.7 1.3.25 3 5.65.25 2.4.3 3.35.25 2.25H22.7l.5-2.05-.25-4.15-2.7-6.25-1.55-2.35-2-1.35v2.75l.9 8.65.75 6.55-3.25 3.4-3.05-3.25-.15-.15 1.65-15.25-.05-2.7-1.95 1.35-1.6 2.45L7.3 27.5l-.25 4.15.5 2.05H2.2l.25-2.2.6-5.95L6 20.05l1.3-.25 6.2-6.9V4l1.15-2h.9"/></g></svg>