<svg xmlns="http://www.w3.org/2000/svg" width="19.45" height="39.7"><g fill-rule="evenodd"><path fill="#bcbec0" d="M12.75 9.3V9h-6v.4q.05 4.8.9 8.6.6 2.9 2.1 6.5 1.45-3.65 2.1-6.5.85-3.85.9-8.7m4.7-7.3v7.4q-.1 8.9-2.7 16.25l-4.6 12h-.8l-4.65-12Q2.1 18.35 2 9.45V2h15.45"/><path d="M12.75 9.3q-.05 4.85-.9 8.7-.65 2.85-2.1 6.5-1.5-3.6-2.1-6.5-.85-3.8-.9-8.6V9h6v.3m6.7-9.3v9.45q-.05 7.05-1.55 12.8-.85 3.25-3.2 8.95-1.85 4.2-2.65 7.05l-.45 1.4H7.85l-.45-1.4q-.8-2.85-2.65-7.05-2.35-5.7-3.2-8.95Q.05 16.5 0 9.5V0h19.45m-2 2H2v7.45q.1 8.9 2.7 16.2l4.65 12h.8l4.6-12q2.6-7.35 2.7-16.25V2"/><path fill="#91b9be" d="M12.75 9.35v-.3h-6v.4q.1 8.1 3 15.1 1.45-3.65 2.1-6.5.85-3.85.9-8.7"/><path fill="#6e9196" d="M17.45 9.45v-7.4H2V9.5q.1 8.9 2.7 16.2l4.65 12h.8l4.6-12q2.6-7.35 2.7-16.25m-4.7-.4v.3q-.05 4.85-.9 8.7-.65 2.85-2.1 6.5-2.9-7-3-15.1v-.4h6"/><path fill="#556c70" d="M19.45.05H0v9.5q.05 7 1.55 12.75.85 3.25 3.2 8.95 1.85 4.2 2.65 7.05l.45 1.4h3.75l.45-1.4q.8-2.85 2.65-7.05 2.35-5.7 3.2-8.95 1.5-5.75 1.55-12.8V.05m-2 2v7.4q-.1 8.9-2.7 16.25l-4.6 12h-.8l-4.65-12Q2.1 18.4 2 9.5V2.05h15.45"/></g></svg>