<svg xmlns="http://www.w3.org/2000/svg" width="29.15" height="42.05"><g fill-rule="evenodd"><path fill="#bcbec0" d="m21.35 3.5 2 1.85-4.2 9.7.9 2.3 1-2.7q1.2-2.75 2-3.2l2.2-.05-1.4 1.2q-.25.25-1.05 2.85l-.85 2.8-.4 5.5-2.8 2-1.45 4.55q1 6.85 1.25 7.05l-2.5.5-1.35 1.5-1.55-1.5-2.55-.5q.3-.2 1.25-7.05l-1.4-4.55-2.8-2-.4-5.5Q5.75 13 5.35 12.6L3.9 11.4l.8-.15 1.4.2q1.35.7 3.05 5.9l.9-2.3-4.2-9.7 2-1.85 3.3 8.45L14.6 17l3.45-5.05 3.3-8.45m-8.6 19.05-2.7-.95.6 2.15 1.9.5.2-1.7m6.4-.95-2.75.95.2 1.7 1.95-.5.6-2.15"/><path d="m21.35 3.5-3.3 8.45L14.6 17l-3.45-5.05-3.3-8.45-2 1.85 4.2 9.7-.9 2.3q-1.7-5.2-3.05-5.9l-1.4-.2-.8.15 1.45 1.2q.4.4 1.9 5.65l.4 5.5 2.8 2 1.4 4.55q-.95 6.85-1.25 7.05l2.55.5 1.55 1.5 1.35-1.5 2.5-.5q-.25-.2-1.25-7.05l1.45-4.55 2.8-2 .4-5.5.85-2.8q.8-2.6 1.05-2.85l1.4-1.2-2.2.05q-.8.45-2 3.2l-1 2.7-.9-2.3 4.2-9.7-2-1.85m-6.75 9.95L16.25 11l4.3-11 5.15 4.8-1.8 4.35-.05.1 2.05.25 3.25 1.05-3.75 3.35-1.5 4.75-.4 5.5-.15.75-2.9 2.1-1.1 3.45.9 5.55 2.9 1.65-3.85 1.55-2.25.5-2.1 2.35-2.75-2.35-2.3-.5-3.85-1.55L8.95 36l.85-5.55L8.75 27l-2.9-2.1-.2-.75-.35-5.5Q4.1 14.6 3.75 13.9L0 10.55 3.3 9.5l2.05-.25-1.9-4.45L8.6 0l4.35 11 1.65 2.45m4.55 8.15-.6 2.15-1.95.5-.2-1.7 2.75-.95m-6.4.95-.2 1.7-1.9-.5-.6-2.15 2.7.95"/><path fill="#96413c" d="m18.55 23.75.6-2.15-2.75.95.2 1.7 1.95-.5m-6 .5.2-1.7-2.7-.95.6 2.15 1.9.5"/><path fill="#e6dcd2" d="M10.05 15.05q3 .35 4.55 1.95l-3.45-5.05-3.3-8.45-2 1.85 4.2 9.7M14.6 17q1.85-1.8 4.55-1.95l4.2-9.7-2-1.85-3.3 8.45L14.6 17m-7.35 1.25q-.1-1.25 1.9-.9-1.7-5.2-3.05-5.9l-1.4-.2-.8.15 1.45 1.2q.4.4 1.9 5.65m12.8-.9q2.05-.05 1.95.7l.8-2.6q.8-2.6 1.05-2.85l1.4-1.2-2.2.05q-.8.45-2 3.2l-1 2.7"/><path fill="#5a8750" d="M9.15 17.35q-2-.35-1.9.9l.4 5.5 2.8 2 1.4 4.55q-.95 6.85-1.25 7.05l2.55.5 1.55 1.5 1.35-1.5 2.5-.5q-.25-.2-1.25-7.05l1.45-4.55 2.8-2 .45-5.7q.1-.75-1.95-.7l-.9-2.3q-2.7.15-4.55 1.95-1.55-1.6-4.55-1.95l-.9 2.3m3.6 5.2-.2 1.7-1.9-.5-.6-2.15 2.7.95m6.4-.95-.6 2.15-1.95.5-.2-1.7 2.75-.95"/><path fill="#4b4b4b" d="M5.35 9.25 3.3 9.5 0 10.55l3.75 3.35 1.55 4.75.35 5.5.2.75 2.9 2.1 1.05 3.45L8.95 36l-2.9 1.65L9.9 39.2l2.3.5 2.75 2.35 2.1-2.35 2.25-.5 3.85-1.55-2.9-1.65-.9-5.55 1.1-3.45 2.9-2.1.45-4.2.1-2.05 1.5-4.75 3.75-3.35L25.9 9.5l-2.05-.25L25.7 4.8 20.55 0l-4.3 11-1.65 2.45L12.95 11 8.6 0 3.45 4.8l1.9 4.45M22 18.05l-.45 5.7-2.8 2-1.45 4.55q1 6.85 1.25 7.05l-2.5.5-1.35 1.5-1.55-1.5-2.55-.5q.3-.2 1.25-7.05l-1.4-4.55-2.8-2-.4-5.5Q5.75 13 5.35 12.6L3.9 11.4l.8-.15 1.4.2q1.35.7 3.05 5.9l.9-2.3-4.2-9.7 2-1.85 3.3 8.45L14.6 17l3.45-5.05 3.3-8.45 2 1.85-4.2 9.7.9 2.3 1-2.7q1.2-2.75 2-3.2l2.2-.05-1.4 1.2q-.25.25-1.05 2.85l-.8 2.6"/></g></svg>