<svg xmlns="http://www.w3.org/2000/svg" width="31.2" height="42"><g fill-rule="evenodd"><path d="M27.75 6.15q1.6 0 2 1.05l.05.5q.1 2.25-.85 3.7l.45.55.15.9q-.15 1.75-1.65 2.6l-.1 1.05q-.4 1.05-1.3 1.75v.15q.1 1.7-1.15 2.75l.1.45q.1 1.85-1.6 3l.7.45 1.5 2.2q.35.5.3 1.05-.05.6-.45 1l.2.05q.65.2 1.35 1.25l.05.1 3.5 6 .2.75v.2l-.1.55q-.4 1.15-1.8 2.2-1.25 1-2.85 1.05h-1l-.25-.05H25l-.35-.05q-.65-.05-1.1-.7-1.25-2.1-3.05-6.3l-.05-.15q-.45-.8-.4-1.45 0-.5.3-.9l-3.75.75q-.75 3.3-1 7.15V42h-3.95v-1.75l-.05-.35.05-7.2q-4.8-.45-7.9-3.45Q.3 25.8 0 20.6v-1.1q.15-2.65 1.2-5.35.75-1.85 2.1-3.9 2.4-3.55 5.55-6.2l.95-.35h.2l.5.1q.25-1.2 1.1-2.35l.95-1.1 1-.35q.6 0 1 .35l1.1 1.2q.9 1.35 1.05 2.7.85-.1 1.35.55l.7 1.55q.2 1.2-.25 2.4l.2.2.4.75.45-.25.45-.1q.4-1.4 1.5-2.15.85-.6 1.65-.6.7 0 1.2.6 1.35-1.05 3.4-1.05m-5.4 2.15q-.75.55-.95 1.6-.4 1.7.5 4 1.35-.25 1.6-1.8.15-1-.1-2.65L23.15 8l-.8.3m-5.5-2.65-1.15.95Q14.45 7.7 14 8.7q-.5.95-.25 1.9l.35.7q2.15-1.45 2.9-3 .75-1.6-.15-2.65m6 8.9 1.45.05 2.45-.35q.85-.35 1.15-1.1l.15-.65-3.85.1q-.95.4-1.25 1.2l-.1.75m2.6-2.9q1.3-.25 2-.9 1.05-1.05.85-3.15-2.05-.3-3.25.9-.75.7-.8 2.1-.05.65.05 1.2l1.15-.15m-6.05-.5q-.75.65-.75 1.8-.05 1.85 1.3 4.1 1.25-.45 1.25-2.15l-.5-2.75-.55-1.4q-.35.1-.75.4m-3.2-.55-1.95 2.05q-.6 1-.4 2l.3.75q2.35-1.35 3.25-2.95.95-1.55.1-2.75l-1.3.9m4.75 7.05h1.5l2.6-.4q1.4-.6 1.35-1.8l-4.1.15q-.95.45-1.25 1.3l-.1.75m-.15 3.2q1.8-.1 2.75-.5Q25.1 19.8 25 18.5l-4.35.2q-1 .45-1.3 1.35l-.1.8h1.55m-2.4-3Q15.65 19 14.45 20.6q-.8 1-.7 2.1l.2.9 1.55-.75 2.45-2q.75-.95.7-2.1l-.25-.9m-.35-4.05q-2.55 1.25-3.6 2.85-.7.95-.55 2l.25.85 1.4-.8q1.55-1.05 2.25-2.05 1.05-1.55.25-2.85m3.65 12.95q-2.35.95-5.55 1.3l1.3-3.8-.1-2.45-2.1 6.3-1.15.05V23.8h-.95v4.3q-4.35-.4-6.55-3.9-1.8-2.85-1.85-7-.05-3.3 2.5-7.65l2.6-3.7.2-.4L10 5.1h-.2Q6.85 7.6 4.55 11L2.6 14.6q-1 2.5-1.05 4.8v1q.2 4.55 3.3 7.65 2.85 2.85 7.9 3.1h.4v8.4l-.05.3h.05l.95-.3q.2-3.95 1.25-8.45 2.7-.2 5.9-1.25.85.95.8 1.6l-.2.7-.3.55.35.95q1.65 3.85 2.95 6.1l1.55.05q1.15-.05 2-.75 1-.75 1.3-1.5v-.25l-3.45-5.85-.6-.75h-.55q-.7 0-1.25-.45-1.2-1-.45-1.5l1.45-.7-1.45-2.15-1.7.85m2.25-5.2-4.6.25q-1.1.45-1.4 1.45l-.1.8h1.65l2.9-.55q1.05-.35 1.4-1.2l.15-.75M13.55 1.4l-.8.95q-.85 1.2-.85 2.3 0 1.75 1.65 3.2 1.65-1.45 1.65-3.2 0-1.1-.8-2.3l-.85-.95m-3.65 5q-.25.9.2 1.9.75 1.55 2.9 3 .9-1.05.1-2.6-.45-1-1.7-2.1l-1.15-.95-.35.75m1.05 4.2-1.3-.9-.3.8q-.2 1 .4 1.95.9 1.6 3.25 2.95.85-1.15-.1-2.75l-1.95-2.05m-2.1 4.05q-.15 1.05.5 2 1.1 1.6 3.65 2.85.2-.3.25-.85.15-1.05-.55-2-.65-1-2.2-2l-1.4-.85-.25.85m-.35 4.1q-.1 1.15.7 2.1 1.25 1.6 4 2.75l.2-.9q.1-1.1-.7-2.1l-2.45-1.95-1.5-.8-.25.9"/><path fill="#bcbec0" d="m8.5 18.75.25-.9 1.5.8 2.45 1.95q.8 1 .7 2.1l-.2.9q-2.75-1.15-4-2.75-.8-.95-.7-2.1m.35-4.1.25-.85 1.4.85q1.55 1 2.2 2 .7.95.55 2-.05.55-.25.85-2.55-1.25-3.65-2.85-.65-.95-.5-2m2.1-4.05 1.95 2.05q.95 1.6.1 2.75-2.35-1.35-3.25-2.95-.6-.95-.4-1.95l.3-.8 1.3.9M9.9 6.4l.35-.75 1.15.95q1.25 1.1 1.7 2.1.8 1.55-.1 2.6-2.15-1.45-2.9-3-.45-1-.2-1.9m3.65-5 .85.95q.8 1.2.8 2.3 0 1.75-1.65 3.2-1.65-1.45-1.65-3.2 0-1.1.85-2.3l.8-.95m10.4 20.15-.15.75q-.35.85-1.4 1.2l-2.9.55h-1.65l.1-.8q.3-1 1.4-1.45l4.6-.25m-2.25 5.2 1.7-.85 1.45 2.15-1.45.7q-.75.5.45 1.5.55.45 1.25.45h.55l.6.75 3.45 5.85v.25q-.3.75-1.3 1.5-.85.7-2 .75l-1.55-.05q-1.3-2.25-2.95-6.1l-.35-.95.3-.55.2-.7q.05-.65-.8-1.6-3.2 1.05-5.9 1.25-1.05 4.5-1.25 8.45l-.95.3h-.05l.05-.3v-8.4h-.4q-5.05-.25-7.9-3.1-3.1-3.1-3.3-7.65v-1q.05-2.3 1.05-4.8L4.55 11q2.3-3.4 5.25-5.9h.2l.05.35-.2.4-2.6 3.7Q4.7 13.9 4.75 17.2q.05 4.15 1.85 7 2.2 3.5 6.55 3.9v-4.3h.95v4.35l1.15-.05 2.1-6.3.1 2.45-1.3 3.8q3.2-.35 5.55-1.3M18.05 13.8q.8 1.3-.25 2.85-.7 1-2.25 2.05l-1.4.8-.25-.85q-.15-1.05.55-2 1.05-1.6 3.6-2.85m.35 4.05.25.9q.05 1.15-.7 2.1l-2.45 2-1.55.75-.2-.9q-.1-1.1.7-2.1 1.2-1.6 3.95-2.75m2.4 3h-1.55l.1-.8q.3-.9 1.3-1.35l4.35-.2q.1 1.3-1.45 1.85-.95.4-2.75.5m.15-3.2.1-.75q.3-.85 1.25-1.3l4.1-.15q.05 1.2-1.35 1.8l-2.6.4h-1.5M16.2 10.6l1.3-.9q.85 1.2-.1 2.75-.9 1.6-3.25 2.95l-.3-.75q-.2-1 .4-2l1.95-2.05m3.2.55q.4-.3.75-.4l.55 1.4.5 2.75q0 1.7-1.25 2.15-1.35-2.25-1.3-4.1 0-1.15.75-1.8m6.05.5-1.15.15q-.1-.55-.05-1.2.05-1.4.8-2.1 1.2-1.2 3.25-.9.2 2.1-.85 3.15-.7.65-2 .9m-2.6 2.9.1-.75q.3-.8 1.25-1.2l3.85-.1-.15.65q-.3.75-1.15 1.1l-2.45.35-1.45-.05m-6-8.9q.9 1.05.15 2.65-.75 1.55-2.9 3l-.35-.7q-.25-.95.25-1.9.45-1 1.7-2.1l1.15-.95m5.5 2.65.8-.3.25 1.45q.25 1.65.1 2.65-.25 1.55-1.6 1.8-.9-2.3-.5-4 .2-1.05.95-1.6"/><path fill="#aca171" d="m15.25 28.1.9-.05 1.3-3.8-.1-2.45-2.1 6.3m-2.1 0 .95.05V23.8h-.95v4.3m2.2 3-2.2.05v8.7l.95-.3q.2-3.95 1.25-8.45"/><g fill="#e6d79c"><path d="m10.25 18.65-1.5-.8-.25.9q-.25 2.8 4.7 4.85l.2-.9q.1-1.1-.7-2.1l-2.45-1.95m5.25 4.2q3.25-1.95 3.15-4.1l-.25-.9q-4.9 2.05-4.65 4.85l.2.9 1.55-.75m.05-4.15q3.9-2.65 2.5-4.9-2.55 1.25-3.6 2.85-.7.95-.55 2l.25.85 1.4-.8M9.1 13.8l-.25.85Q8.45 17.3 13 19.5l.25-.85q.3-2.05-2.75-4l-1.4-.85m3.9 1.6q1.5-2-2.05-4.8l-1.3-.9-.3.8Q8.85 13 13 15.4"/><path d="M17.4 12.45q.95-1.55.1-2.75l-1.3.9q-2.75 2.15-2.35 4.05l.3.75q2.35-1.35 3.25-2.95m-.55-6.8-1.15.95q-2.45 2.15-1.95 4l.35.7q2.15-1.45 2.9-3 .75-1.6-.15-2.65"/><path d="m10.25 5.65-.35.75q-.65 2.35 3.1 4.9 1.6-1.9-1.6-4.7l-1.15-.95m4.15-3.3-.85-.95-.8.95q-2.1 2.95.8 5.5 2.85-2.5.85-5.5m9.9 9.45 1.15-.15q3.2-.6 2.85-4.05-2.05-.3-3.25.9-.75.7-.8 2.1l.05 1.2M23.15 8l-.8.3q-.75.55-.95 1.6-.4 1.7.5 4 2.1-.4 1.5-4.45L23.15 8"/><path d="M24.2 12.6q-.95.4-1.25 1.2l-.1.75 1.45.05 2.45-.35q.85-.35 1.15-1.1l.15-.65-3.85.1m-4.05-1.85-.75.4q-.75.65-.75 1.8-.05 1.85 1.3 4.1 1.25-.45 1.25-2.15l-.5-2.75-.55-1.4"/><path d="m21.05 16.9-.1.75h1.5l2.6-.4q1.4-.6 1.35-1.8l-4.1.15q-.95.45-1.25 1.3m-1.7 3.15-.1.8h1.55q4.35-.25 4.2-2.35l-4.35.2q-1 .45-1.3 1.35m4.45 2.25.15-.75-4.6.25q-1.1.45-1.4 1.45l-.1.8h1.65l2.9-.55q1.05-.35 1.4-1.2"/></g><path fill="#bcbec0" d="m16.15 28.05-.9.05-1.15.05-.95-.05q-4.35-.4-6.55-3.9-4.1-6.5.65-14.65l2.8-4.1L10 5.1h-.2Q6.85 7.6 4.55 11L2.6 14.6q-1 2.5-1.05 4.8v1q.2 4.55 3.3 7.65 2.85 2.85 7.9 3.1h.4l2.2-.05q2.7-.2 5.9-1.25l2.15-1.1 1.45-.7-1.45-2.15-1.7.85q-2.35.95-5.55 1.3"/><path fill="#5f4641" d="m23.4 28.75-2.15 1.1q.85.95.8 1.6l-.5 1.25.35.95q1.65 3.85 2.95 6.1l1.55.05q1.15-.05 2-.75 1-.75 1.3-1.5v-.25l-3.45-5.85-.6-.75h-.55q-.7 0-1.25-.45-1.2-1-.45-1.5"/><path fill="#373737" d="m23.95 21.55-.15.75q-.35.85-1.4 1.2l-2.9.55h-1.65l.1-.8q.3-1 1.4-1.45l4.6-.25m-5.9-7.75q1.4 2.25-2.5 4.9l-1.4.8-.25-.85q-.15-1.05.55-2 1.05-1.6 3.6-2.85m-.55-4.1q.85 1.2-.1 2.75-.9 1.6-3.25 2.95l-.3-.75q-.4-1.9 2.35-4.05l1.3-.9m-7.7-6-.95.35Q.5 11.1 0 19.5v1.1q.3 5.2 3.75 8.65 3.1 3 7.9 3.45V42h3.95v-2.25q.25-3.85 1-7.15l3.75-.75q-.7.95.1 2.35l.05.15q1.8 4.2 3.05 6.3.45.65 1.1.7l1.8.1q1.6-.05 2.85-1.05 1.4-1.05 1.8-2.2l.1-.75-.2-.75-3.55-6.1q-.7-1.05-1.35-1.25l-.2-.05q.95-.95.15-2.05l-1.5-2.2-.7-.45q1.7-1.15 1.6-3l-.1-.45q1.25-1.05 1.15-2.75v-.15q.9-.7 1.3-1.75l.1-1.05q1.5-.85 1.65-2.6l-.15-.9-.45-.55q.95-1.45.85-3.7l-.05-.5q-.4-1.05-2-1.05-2.05 0-3.4 1.05-1.05-1.25-2.85 0-1.1.75-1.5 2.15l-.9.35-.6-.95q.45-1.2.25-2.4l-.7-1.55q-.5-.65-1.35-.55-.15-1.35-1.05-2.7l-1.1-1.2q-.4-.35-1-.35l-1 .35-.95 1.1q-.85 1.15-1.1 2.35l-.7-.1m3.35 27.45h-.4q-5.05-.25-7.9-3.1-3.1-3.1-3.3-7.65v-1q.05-2.3 1.05-4.8L4.55 11q2.3-3.4 5.25-5.9h.2l.05.35-2.8 4.1Q2.5 17.7 6.6 24.2q2.2 3.5 6.55 3.9v-4.3h.95v4.35l1.15-.05 2.1-6.3.1 2.45-1.3 3.8q3.2-.35 5.55-1.3l1.7-.85 1.45 2.15-1.45.7q-.75.5.45 1.5.55.45 1.25.45h.55l.6.75 3.45 5.85v.25q-.3.75-1.3 1.5-.85.7-2 .75l-1.55-.05q-1.3-2.25-2.95-6.1l-.35-.95.5-1.25q.05-.65-.8-1.6-3.2 1.05-5.9 1.25-1.05 4.5-1.25 8.45l-.95.3v-8.7m-4.4-13.3 1.5.8 2.45 1.95q.8 1 .7 2.1l-.2.9q-4.95-2.05-4.7-4.85l.25-.9m.1-3.2.25-.85 1.4.85q3.05 1.95 2.75 4l-.25.85q-4.55-2.2-4.15-4.85m2.1-4.05q3.55 2.8 2.05 4.8-4.15-2.4-3.65-4.9l.3-.8 1.3.9M9.9 6.4l.35-.75 1.15.95q3.2 2.8 1.6 4.7-3.75-2.55-3.1-4.9m3.65-5 .85.95q2 3-.85 5.5-2.9-2.55-.8-5.5l.8-.95m7.4 16.25.1-.75q.3-.85 1.25-1.3l4.1-.15q.05 1.2-1.35 1.8l-2.6.4h-1.5m-1.7 3.2.1-.8q.3-.9 1.3-1.35l4.35-.2q.15 2.1-4.2 2.35h-1.55m-.6-2.1q.1 2.15-3.15 4.1l-1.55.75-.2-.9q-.25-2.8 4.65-4.85l.25.9m.75-7.6.75-.4.55 1.4.5 2.75q0 1.7-1.25 2.15-1.35-2.25-1.3-4.1 0-1.15.75-1.8m6.05.5-1.15.15-.05-1.2q.05-1.4.8-2.1 1.2-1.2 3.25-.9.35 3.45-2.85 4.05m-2.5 2.15q.3-.8 1.25-1.2l3.85-.1-.15.65q-.3.75-1.15 1.1l-2.45.35-1.45-.05.1-.75M15.7 6.6l1.15-.95q.9 1.05.15 2.65-.75 1.55-2.9 3l-.35-.7q-.5-1.85 1.95-4m6.65 1.7.8-.3.25 1.45q.6 4.05-1.5 4.45-.9-2.3-.5-4 .2-1.05.95-1.6"/></g></svg>