<svg xmlns="http://www.w3.org/2000/svg" width="40.8" height="42"><g fill-rule="evenodd"><path fill="#bcbec0" d="m26.6 10.1-4.65-4.7-3.3 7.95 7.95-3.25m1.05 9.2v-6.6L19.7 16l7.95 3.3m-5.75 7.25 4.65-4.65-7.95-3.3 3.3 7.95m-16.45-4.7 4.65 4.7 3.3-7.95-7.95 3.25M1.8 34q1.05.25 2.45 1.1 2.25 1.2 3.35 1.2 1.15 0 3-1.2 2.05-1.25 3.1-1.25t3.25 1.25q2.25 1.2 3.35 1.2 1.15 0 3-1.2 2.05-1.25 3.1-1.25t3.25 1.25q2.25 1.2 3.3 1.2 1.1 0 3.05-1.2 2.05-1.25 3.1-1.25h.15v4.2h-.15q-1.05 0-3.1 1.2-1.9 1.25-3.05 1.25l-1.85-.45-2.5-1.35q-1.3-.65-2.2-.65-1.05 0-3.1 1.2-1.85 1.25-3 1.25t-3.35-1.25q-2.15-1.2-3.25-1.2-1.05 0-3.1 1.2-1.85 1.25-3.05 1.25l-1.8-.45L3.2 38.7l-1.4-.55V34m15.15-6.9 1.05.55h1.3L16 19.7l-2.6 6.2h.3q1 0 3.25 1.2M10.1 5.4l-4.65 4.65 7.95 3.3-3.3-7.95m-5.75 7.25v6.6L12.3 16l-7.95-3.35m15-8.3h-6.6L16 12.3l3.35-7.95M22 1.5l8.5 8.5v12l-3.95 3.9q1 .05 3.1 1.2 2.35 1.25 3.3 1.25 1 0 3.05-1.25 2.1-1.2 3.1-1.2h.15v4.2l-.15-.05q-1.1 0-3.1 1.25-1.95 1.2-3.05 1.2l-1.85-.4-2.5-1.35q-1.4-.7-2.2-.7-1.1 0-3.1 1.25-1.85 1.2-3 1.2-1.1 0-3.35-1.2l-1.7-.85H12.2l-1.6.85q-1.85 1.2-3.05 1.2l-1.8-.4-2.55-1.35-1.4-.55V26l2.45 1.1q2.35 1.25 3.35 1.25l.25-.05-6.3-6.3V10L10 1.5h12"/><path d="M27.65 19.3 19.7 16l7.95-3.3v6.6m-1.05-9.2-7.95 3.25 3.3-7.95 4.65 4.7M22.6 0l9.35 9.35V22.6l-2.65 2.65 1.05.55q1.85 1 2.6 1 .65 0 2.2-.95 2.55-1.5 3.9-1.5l1.75.15-.1 8h.1l-.1 7.1-1.75-.05q-.65.05-2.2 1Q34.5 42 32.9 42q-1.25 0-2.45-.6l-2.6-1.35-1.5-.5q-.7 0-2.3 1Q21.8 42 20.25 42q-1.45 0-4.05-1.4-1.8-1.05-2.55-1.05-.6 0-2.3 1Q9.05 42 7.5 42q-1.15 0-2.45-.6l-2.6-1.35-1.1-.45-1.1-.25v-15.3l1.6.45L0 22.6V9.35L9.35 0H22.6M22 1.5H10L1.55 10v12l6.3 6.3-.25.05q-1 0-3.35-1.25L1.8 26v4.2l1.4.55 2.55 1.35 1.8.4q1.2 0 3.05-1.2l1.6-.85h3.05l1.7.85q2.25 1.2 3.35 1.2 1.15 0 3-1.2 2-1.25 3.1-1.25.8 0 2.2.7l2.5 1.35 1.85.4q1.1 0 3.05-1.2 2-1.25 3.1-1.25l.15.05v-4.2h-.15q-1 0-3.1 1.2-2.05 1.25-3.05 1.25-.95 0-3.3-1.25-2.1-1.15-3.1-1.2L30.5 22V10L22 1.5m-2.65 2.85L16 12.3l-3.25-7.95h6.6m-15 8.3L12.3 16l-7.95 3.25v-6.6M10.1 5.4l3.3 7.95-7.95-3.3L10.1 5.4m6.85 21.7q-2.25-1.2-3.25-1.2h-.3l2.6-6.2 3.3 7.95H18l-1.05-.55M1.8 34v4.15l1.4.55 2.55 1.35 1.8.45q1.2 0 3.05-1.25 2.05-1.2 3.1-1.2 1.1 0 3.25 1.2 2.2 1.25 3.35 1.25t3-1.25q2.05-1.2 3.1-1.2.9 0 2.2.65l2.5 1.35 1.85.45q1.15 0 3.05-1.25 2.05-1.2 3.1-1.2h.15v-4.2h-.15q-1.05 0-3.1 1.25-1.95 1.2-3.05 1.2-1.05 0-3.3-1.2-2.2-1.25-3.25-1.25t-3.1 1.25q-1.85 1.2-3 1.2-1.1 0-3.35-1.2-2.2-1.25-3.25-1.25t-3.1 1.25q-1.85 1.2-3 1.2-1.1 0-3.35-1.2-1.4-.85-2.45-1.1m3.65-12.15 7.95-3.25-3.3 7.95-4.65-4.7m16.45 4.7-3.3-7.95 7.95 3.3-4.65 4.65"/><path fill="#6987aa" d="M19.3 27.65H18l-1.05-.55q-2.25-1.2-3.25-1.2h-.3l-3.3.65-2.25 1.75-.25.05q-1 0-3.35-1.25L1.8 26v4.2l1.4.55 2.55 1.35 1.8.4q1.2 0 3.05-1.2l1.6-.85h3.05l1.7.85q2.25 1.2 3.35 1.2 1.15 0 3-1.2 2-1.25 3.1-1.25.8 0 2.2.7l2.5 1.35 1.85.4q1.1 0 3.05-1.2 2-1.25 3.1-1.25l.15.05v-4.2h-.15q-1 0-3.1 1.2-2.05 1.25-3.05 1.25-.95 0-3.3-1.25-2.1-1.15-3.1-1.2l-4.65.65-2.6 1.1"/><path fill="#3c5573" d="M4.25 35.1q-1.4-.85-2.45-1.1v4.15l1.4.55 2.55 1.35 1.8.45q1.2 0 3.05-1.25 2.05-1.2 3.1-1.2 1.1 0 3.25 1.2 2.2 1.25 3.35 1.25t3-1.25q2.05-1.2 3.1-1.2.9 0 2.2.65l2.5 1.35 1.85.45q1.15 0 3.05-1.25 2.05-1.2 3.1-1.2h.15v-4.2h-.15q-1.05 0-3.1 1.25-1.95 1.2-3.05 1.2-1.05 0-3.3-1.2-2.2-1.25-3.25-1.25t-3.1 1.25q-1.85 1.2-3 1.2-1.1 0-3.35-1.2-2.2-1.25-3.25-1.25t-3.1 1.25q-1.85 1.2-3 1.2-1.1 0-3.35-1.2"/><g fill="#2d2d2d"><path d="M1.8 34q1.05.25 2.45 1.1 2.25 1.2 3.35 1.2 1.15 0 3-1.2 2.05-1.25 3.1-1.25t3.25 1.25q2.25 1.2 3.35 1.2 1.15 0 3-1.2 2.05-1.25 3.1-1.25t3.25 1.25q2.25 1.2 3.3 1.2 1.1 0 3.05-1.2 2.05-1.25 3.1-1.25h.15v4.2h-.15q-1.05 0-3.1 1.2-1.9 1.25-3.05 1.25l-1.85-.45-2.5-1.35q-1.3-.65-2.2-.65-1.05 0-3.1 1.2-1.85 1.25-3 1.25t-3.35-1.25q-2.15-1.2-3.25-1.2-1.05 0-3.1 1.2-1.85 1.25-3.05 1.25l-1.8-.45L3.2 38.7l-1.4-.55V34m6.05-5.7-6-3.8-1.6-.45v15.3l1.1.25 3.7 1.8q1.3.6 2.45.6 1.55 0 3.85-1.45 1.7-1 2.3-1 .75 0 2.55 1.05 2.6 1.4 4.05 1.4 1.55 0 3.8-1.45 1.6-1 2.3-1l1.5.5 2.6 1.35q2.8 1.4 6.3-.85 1.55-.95 2.2-1l1.75.05.1-7.1h-.1l.1-8-1.75-.15q-1.35 0-3.9 1.5-1.55.95-2.2.95-.75 0-2.6-1l-.55-.3-3.25.4q1 .05 3.1 1.2 2.35 1.25 3.3 1.25 1 0 3.05-1.25 2.1-1.2 3.1-1.2h.15v4.2l-.15-.05q-1.1 0-3.1 1.25-1.95 1.2-3.05 1.2l-1.85-.4-2.5-1.35q-1.4-.7-2.2-.7-1.1 0-3.1 1.25-1.85 1.2-3 1.2-1.1 0-3.35-1.2l-1.7-.85H12.2l-1.6.85q-1.85 1.2-3.05 1.2l-1.8-.4-2.55-1.35-1.4-.55V26l2.45 1.1q2.35 1.25 3.35 1.25l.25-.05"/><path d="m5.45 21.85 4.65 4.7 3.3-7.95-7.95 3.25m-1.1-9.2v6.6L12.3 16l-7.95-3.35m9.05.7L10.1 5.4l-4.65 4.65 7.95 3.3m5.95-9h-6.6L16 12.3l3.35-7.95m7.25 5.75-4.65-4.7-3.3 7.95 7.95-3.25m1.05 9.2v-6.6L19.7 16l7.95 3.3m-5.75 7.25 4.65-4.65-7.95-3.3 3.3 7.95M16 19.7l-2.6 6.2h.3q1 0 3.25 1.2l1.05.55h1.3L16 19.7"/><path d="m0 22.6 1.85 1.9 6 3.8-6.3-6.3V10L10 1.5h12l8.5 8.5v12l-3.95 3.9 3.25-.4-.5-.25 2.65-2.65V9.35L22.6 0H9.35L0 9.35V22.6"/></g><path fill="#735541" d="m26.55 21.9-4.65 4.65-3.3-7.95 7.95 3.3M10.1 5.4l3.3 7.95-7.95-3.3L10.1 5.4m5.1 9.55.5-.15.5.05.45.25.3.4.15.5-.15.5-.3.4-.45.25-.5.05-.5-.15-.4-.35-.2-.45v-.5l.2-.45.4-.35m-5.1 11.6-4.65-4.7 7.95-3.25-3.3 7.95 3.3-.65 2.6-6.2 3.3 7.95 2.6-1.1 4.65-.65L30.5 22V10L22 1.5H10L1.55 10v12l6.3 6.3 2.25-1.75m-5.75-7.3v-6.6L12.3 16l-7.95 3.25m8.4-14.9h6.6L16 12.3l-3.25-7.95m14.9 8.35v6.6L19.7 16l7.95-3.3m-5.7-7.3 4.65 4.7-7.95 3.25 3.3-7.95"/><path fill="#7d7d7d" d="m15.35 15.85.5-.3.35.15.15.3-.15.3-.35.15-.3-.05-.2-.25v-.3m.35-1.05-.5.15-.4.35-.2.45v.5l.2.45.4.35.5.15.5-.05.45-.25.3-.4.15-.5-.15-.5-.3-.4-.45-.25-.5-.05"/><path fill="#735541" d="m15.85 15.55-.5.3v.3l.2.25.3.05.35-.15.15-.3-.15-.3-.35-.15"/></g></svg>