<svg xmlns="http://www.w3.org/2000/svg" width="36.45" height="36.8"><g fill-rule="evenodd"><path d="M30.5 4.85q-.35-.45-.75 0l-.65.7-3.05-3.5q-.35-.35-.75 0L22.1 5.8q-.35.45 0 .85L25 10l-6.45 6.9-7.8-8.45 6.5-5.8q.4-.3-.05-.3l-5.35 1.1q-2.5.75-4.05 1.8l-.4-.4-.65-.1-.1.1L5.6 6.1q-.35.35-.05.85l.3.35q-1.6 2.85-3.05 10.05l-1.15 6.6q-.1.9.15.05l7-13.1 7.2 8.8L5.6 30.9q-.35.45 0 .85l2.55 2.95q.3.4.7 0l9.7-11.9 9.75 11.9q.4.4.7 0l2.55-2.95q.35-.4 0-.85l-10.4-11.2 5.95-7.3 1.35 1.55.85.6 5.15 2.15q.55.2.35-.35l-1.85-6-.55-1-1.45-1.65.65-.75q.3-.5-.05-.85L30.5 4.85m0-2.1 1.2.7 1.05 1.25q1.1 1.2.5 2.85l.35.45.95 1.7 1.85 6q.35 1.15-.25 2.05l-.95.8-1.3-.05-5.2-2.1q-.85-.35-1.45-1.1l-.1-.1-3.6 4.4 9.15 9.9q.7.7.7 1.8 0 1.15-.65 1.8l-2.55 2.95q-.6.75-1.55.75t-1.6-.8l-8.5-10.35L10.1 36q-.6.75-1.55.8-.95 0-1.6-.75l-2.55-2.9q-.65-.7-.65-1.85 0-1.1.7-1.8l9.15-9.9L9 13.95l-5.7 11q-.55 1.2-1.6 1.2H.9l-.55-.65q-.5-.7-.35-1.85Q1.45 12.75 3.85 7.4q-.45-1.6.55-2.7l1.05-1.25q.5-.55 1.2-.7h.1l1.2.2 1.8-.85Q12.9.8 17.05.4h.2q1.4 0 1.8 1.45.25.9-.1 1.6l-.7.8-4.95 4.3 5.25 5.7 4-4.3L20.9 8q-.65-.65-.65-1.8 0-1.1.65-1.8L24.15.7l.6-.45.95-.25q.9 0 1.55.7l1.95 2.25 1.3-.2"/><path fill="#bcbec0" d="m30.5 4.85 1.05 1.25q.35.35.05.85l-.65.75 1.45 1.65.55 1 1.85 6q.2.55-.35.35l-5.15-2.15-.85-.6-1.35-1.55-5.95 7.3 10.4 11.2q.35.45 0 .85L29 34.7q-.3.4-.7 0l-9.75-11.9-9.7 11.9q-.4.4-.7 0L5.6 31.75q-.35-.4 0-.85L16 19.7l-7.2-8.8-7 13.1q-.25.85-.15-.05l1.15-6.6q1.45-7.2 3.05-10.05l-.3-.35q-.3-.5.05-.85l1.05-1.25.1-.1.65.1.4.4q1.55-1.05 4.05-1.8l5.35-1.1q.45 0 .05.3l-6.5 5.8 7.8 8.45L25 10l-2.9-3.35q-.35-.4 0-.85l3.2-3.75q.4-.35.75 0l3.05 3.5.65-.7q.4-.45.75 0"/><path fill="#969696" d="m8.85 10.9 1.95-2.45 6.5-5.8q.4-.3-.05-.3l-3.4.6-1.95.5q-2.5.75-4.05 1.8L5.9 7.3q-1.6 2.85-3.05 10.05l-1.15 6.6q-.1.9.15.05l4.95-9.65 2.05-3.45m16.2-.9 2.1 2.4 1.35 1.55.85.6 5.15 2.15q.55.2.35-.35l-1.85-6-.55-1L31 7.7l-1.85-2.15-3.05-3.5q-.35-.35-.75 0l-3.2 3.75q-.35.45 0 .85l2.9 3.35"/><path fill="#735a4b" d="m27.15 12.4-2.1-2.4-6.45 6.9-7.8-8.45-1.95 2.45 7.2 8.8-10.4 11.2q-.35.45 0 .85L8.2 34.7q.3.4.7 0l9.7-11.9 9.75 11.9q.4.4.7 0l2.55-2.95q.35-.4 0-.85L21.2 19.7l5.95-7.3m2-6.85L31 7.7l.65-.75q.3-.5-.05-.85l-1.05-1.25q-.35-.45-.75 0l-.65.7M5.9 7.3l1.95-2.05-.4-.4-.65-.1L5.65 6.1q-.35.35-.05.85l.3.35"/><g fill="#2d2d2d"><path d="m27.2 15.2-.05-2.8-5.95 7.3 10.4 11.2q.35.45 0 .85l-2.55 2.95q-.3.4-.7 0L18.6 22.8 8.9 34.7q-.4.4-.7 0l-2.55-2.95q-.35-.4 0-.85l10.4-11.2-7.2-8.8.2 3.05 4.6 5.65-9.15 9.9q-.7.7-.7 1.8 0 1.15.65 1.85L7 36.05q.65.75 1.6.75.95-.05 1.55-.8l8.45-10.35L27.1 36q.65.8 1.6.8t1.55-.75l2.55-2.95q.65-.65.65-1.8 0-1.1-.7-1.8l-9.15-9.9 3.6-4.4"/><path d="m27.2 15.2.1.1q.6.75 1.45 1.1l5.2 2.1 1.3.05q.6-.2.95-.8.6-.9.25-2.05l-1.85-6-1.3-2.15q.6-1.65-.5-2.85l-1.05-1.25-1.2-.7-1.3.2L27.3.7q-.65-.7-1.55-.7l-.95.25-.6.45-3.25 3.7q-.65.7-.65 1.8 0 1.15.65 1.8l1.65 1.95 2.45.05-2.9-3.35q-.35-.4 0-.85l3.2-3.75q.4-.35.75 0l3.05 3.5.65-.7q.4-.45.75 0L31.6 6.1q.35.35.05.85L31 7.7l1.45 1.65.55 1 1.85 6q.2.55-.35.35l-5.15-2.15-.85-.6-1.35-1.55.05 2.8M9.05 13.95l-.2-3.05-2.05 3.45L1.85 24q-.25.85-.15-.05l1.15-6.6Q4.3 10.15 5.9 7.3l-.3-.35q-.3-.5.05-.85L6.8 4.75l.65.1.4.4Q9.4 4.2 11.9 3.45l1.95-.5 3.4-.6q.45 0 .05.3l-6.5 5.8 2.55.1 4.95-4.3.7-.8q.35-.7.1-1.6Q18.7.4 17.3.4h-.2q-4.15.4-7.3 1.7L8 2.95l-1.3-.2q-.7.15-1.2.7L4.45 4.7q-1 1.1-.55 2.7Q1.5 12.75.05 23.65-.1 24.8.4 25.5l.55.65h.8q1.05 0 1.6-1.2l3.45-6.9 2.25-4.1"/><path d="m22.6 9.95-4 4.3-5.25-5.7-2.55-.1 7.8 8.45 6.45-6.9-2.45-.05"/></g></g></svg>