<svg xmlns="http://www.w3.org/2000/svg" width="22.4" height="41.4"><g fill-rule="evenodd"><path fill="#bcbec0" d="m12.65 5.15-1.4 2.95-1.4-2.95 1.4-3 1.4 3m-.7 12.55.5 1.85 2.55-3.8-.75-8.25 5.6 13-5.65 13.3h-.05L16 24l-3.1 1.25-.5 4.85-1.5 3.45 2.25 1.35-1.9 4-.75-1.75-.65-3.5 1.25-3.55-1.7-4.9L6.45 24l1.8 9.8L2.5 20.5l5.7-13-.7 8.4 2.65 3.8.3-2.1 2.1-2.3-.85-2.9-1.65 1.5L9.8 15l-.45-.5.7-6.3 1.85 2.15 1.65 5.25-1.6 2.1"/><path d="m11.95 17.7 1.6-2.1-1.65-5.25-1.85-2.15-.7 6.3.45.5.25-1.1 1.65-1.5.85 2.9-2.1 2.3-.3 2.1-2.65-3.8.7-8.4-5.7 13 5.75 13.3-1.8-9.8 2.95 1.2 1.7 4.9-1.25 3.55.65 3.5.75 1.75 1.9-4-2.25-1.35 1.5-3.45.5-4.85L16 24l-1.85 9.8h.05l5.65-13.3-5.6-13 .75 8.25-2.55 3.8-.5-1.85m.7-12.55-1.4-3-1.4 3 1.4 2.95 1.4-2.95M22.4 20.3l-9.9 21.1H9.8L0 20.3 9.6.05h3.3l9.5 20.25"/><path fill="#c85555" d="m16 23.95-1.85 9.8 5.7-13.3-5.6-13L15 15.7l-2.55 3.8-.5-1.85 1.6-2.1-1.65-5.25-1.85-2.15-.7 6.3.45.5.25-1.1 1.65-1.5.85 2.9-2.1 2.3-.3 2.1-2.65-3.8.7-8.4-5.7 13 5.75 13.3-1.8-9.8 2.95 1.2 1.7 4.9-1.25 3.55.65 3.5.75 1.75 1.9-4-2.25-1.35 1.5-3.45.5-4.85 3.1-1.25m-4.75-15.9 1.4-2.95-1.4-3-1.4 3 1.4 2.95"/><path fill="#c3c3c3" d="m14.15 33.75 1.85-9.8-3.1 1.25-.5 4.85-1.5 3.45 2.25 1.35-1.9 4-.75-1.75-.65-3.5 1.25-3.55-1.7-4.9-2.95-1.2 1.8 9.8-5.75-13.3 5.7-13-.7 8.4 2.65 3.8.3-2.1 2.1-2.3-.85-2.9-1.65 1.5-.25 1.1-.45-.5.7-6.3 1.85 2.15 1.65 5.25-1.6 2.1.5 1.85L15 15.7l-.75-8.25 5.6 13-5.7 13.3M12.9 0H9.6L0 20.25l9.8 21.1h2.7l9.9-21.1L12.9 0m-.25 5.1-1.4 2.95-1.4-2.95 1.4-3 1.4 3"/></g></svg>