<svg xmlns="http://www.w3.org/2000/svg" width="32.8" height="39.8"><g fill-rule="evenodd"><path d="m28.6 5.8.15.2.85 2 1.25 4.7q1.1 1.2 1.75 2.95.65 2 .2 3.95-.45 1.9-1.75 2.9l-1 .55q1.7 2.2 1.7 3.95.05 1.6-.7 2.85L29.7 31.5q-.9.8-1.15 1.35l-.5 1.3-1.7 3.45q-1.35 1.85-3.3 2.05l-1.8.1q-2.75 0-4.95-1.1l-3.35-2.35q-2.05-1.7-3.25-2.15L9.2 34q-6.5-1.85-7.85-5.1-.95-2.25.35-4.8l.3-.5q-.85-.4-1.4-1.4-.7-1.25-.6-3.35.05-1.75.5-3.2.65-1.75 1.7-2.9L4.1 6.3l.15-.3Q5 4.7 6.15 4.6h.2q.9 0 1.5.7 1.6-3.75 3.95-4.05h.25q.7 0 1.3.5.1-.85.85-1.4L15.3 0q1.55 0 3.1 2.7l.25-.5q.55-.8 1.55-.8h.2q2.7.3 4.45 4.55l.35-.55q.65-.65 1.5-.65h.15q1 .05 1.75 1.05m-11.05-.45-1.2-2.25q-.85-1.25-1.1-1.1l.05 1.2q.25 1.3.05 2.25l-.55 2.4V8l-.25 1.8-.2.2q-1.1 1.35-1 3.85.15 2.5 1.25 3 1.8.75 3.3-.9.9-1 1.25-3 .4-2.1-.3-3.2l-.9-.85V8l-.2-2-.2-.65M21 6.4l-.2 4.1-.3.15q-.9.8-.85 3.45.1 2.8 1.4 3.8.7.55 1.85.6 1.2.1 1.6-.5.85-1.15 1.05-3.95.35-2.6-1-3.7l-.7-.2L23.6 8l-.8-2q-1.15-2.45-2.6-2.6-.15 0 .2 1l.6 2m5.85 6.9q-.7.65-1.1 3-.3 2.1-.15 3.5.1 1.05 1.7 1.6l2.65-.2q.85-.65 1.1-2.05.25-1.35-.2-2.75-.65-1.8-1.7-2.65L28 9.15 27.6 8q-.55-1.2-.9-1.25-.3-.05-.25 1.25l.4 5.3m3.05 13.9q0-2.4-4.25-5.8-3.9-3.05-6.5-3.65-2.45-.55-5.15.65L9.65 21l-3.4 1.55q-1.95.8-2.9 2.55-1.8 3.4 2.05 5.65 2 1.15 4.95 1.85l5.25 3.65q3.05 2.2 7.25 1.75 1.45-.15 2.5-2.15l1.55-3.6q.35-.7 1.9-2.3 1.15-1.15 1.1-2.75M11.3 6l.55-1.75q.35-1 .2-1-1.3.15-2.4 2.75l-.3.65L8.9 8q-.6 1.85-.6 3.2-.65 1-.65 2.65l.4 2.65q.4 1.35 1 2.05.55.65 1.75.2 1.05-.35 1.6-1 .7-.85.7-3.5 0-2.3-.55-3.4-.45-.95-1.5-1.1l.2-3.45.05-.3m-9 10.4q-.55 1.6-.45 3.4.1 2.1 1.1 2.35l1.4-.15.85-.65 1.15-.25 1-.65q.45-.7.05-3.8-.45-3.25-1.45-3.55H5.8L6.45 8q.15-1.45-.15-1.4L5.55 8l-1.7 5.8q-1.05 1-1.55 2.6"/><path fill="#bcbec0" d="M2.3 16.4q.5-1.6 1.55-2.6L5.55 8l.75-1.4q.3-.05.15 1.4l-.65 5.1h.15q1 .3 1.45 3.55.4 3.1-.05 3.8l-1 .65-1.15.25-.85.65-1.4.15q-1-.25-1.1-2.35-.1-1.8.45-3.4m9-10.4-.05.3-.2 3.45q1.05.15 1.5 1.1.55 1.1.55 3.4 0 2.65-.7 3.5-.55.65-1.6 1-1.2.45-1.75-.2-.6-.7-1-2.05l-.4-2.65q0-1.65.65-2.65 0-1.35.6-3.2l.45-1.35.3-.65q1.1-2.6 2.4-2.75.15 0-.2 1L11.3 6m18.6 21.2q.05 1.6-1.1 2.75-1.55 1.6-1.9 2.3l-1.55 3.6q-1.05 2-2.5 2.15-4.2.45-7.25-1.75l-5.25-3.65q-2.95-.7-4.95-1.85-3.85-2.25-2.05-5.65.95-1.75 2.9-2.55L9.65 21 14 18.4q2.7-1.2 5.15-.65 2.6.6 6.5 3.65 4.25 3.4 4.25 5.8m-3.05-13.9-.4-5.3q-.05-1.3.25-1.25.35.05.9 1.25l.4 1.15 1.15 4.6q1.05.85 1.7 2.65.45 1.4.2 2.75-.25 1.4-1.1 2.05l-2.65.2q-1.6-.55-1.7-1.6-.15-1.4.15-3.5.4-2.35 1.1-3M21 6.4l-.6-2q-.35-1-.2-1 1.45.15 2.6 2.6l.8 2 .25 2.15.7.2q1.35 1.1 1 3.7-.2 2.8-1.05 3.95-.4.6-1.6.5-1.15-.05-1.85-.6-1.3-1-1.4-3.8-.05-2.65.85-3.45l.3-.15.2-4.1m-3.45-1.05.2.65.2 2v.9l.9.85q.7 1.1.3 3.2-.35 2-1.25 3-1.5 1.65-3.3.9-1.1-.5-1.25-3-.1-2.5 1-3.85l.2-.2.25-1.8v-.15l.55-2.4q.2-.95-.05-2.25L15.25 2q.25-.15 1.1 1.1l1.2 2.25"/><path fill="#46505a" d="M11.05 9.8q-.75 1.9-2.75 1.45-.65 1-.65 2.65l.4 2.65q.85 2.95 2.75 2.25 1.05-.35 1.6-1 .7-.85.7-3.5 0-4.2-2.05-4.5m12.75.4h.05q-.75 1.1-3.05.35l-.3.15q-.9.8-.9 3.45.15 4.25 3.25 4.4 1.2.1 1.6-.5.85-1.15 1.05-3.95.35-2.6-1-3.7l-.7-.2"/><path fill="#28323c" d="m3.85 13.85 1.7-5.8.75-1.4q.3-.05.15 1.4l-.65 5.1h.15q1 .3 1.45 3.55.4 3.1-.05 3.8l-1 .65-1.15.25-.85.65-1.4.15q-1-.25-1.1-2.35-.2-3.9 2-6M2.2 12.8Q.1 15.1 0 18.9q-.2 3.75 2 4.75l-.3.5q-1.3 2.55-.35 4.8 1.35 3.25 7.85 5.1l.5.15q1.2.45 3.25 2.15l3.35 2.35q2.2 1.1 4.95 1.1l1.8-.1q1.95-.2 3.3-2.05l1.7-3.45.5-1.3 2.5-3q1.85-3.1-1-6.8l1-.55q1.3-1 1.75-2.9.9-3.8-1.95-6.9l-1.25-4.7-1-2.2q-.75-1-1.75-1.05h-.15q-.85 0-1.5.65l-.35.55Q23.1 1.75 20.4 1.45h-.2q-1 0-1.55.8l-.25.5Q16.85.05 15.3.05L14.2.4q-.75.55-.85 1.4-.6-.5-1.3-.5h-.25q-2.35.3-3.95 4.05-.6-.7-1.5-.7h-.2q-1.15.1-1.9 1.4l-.75 2-1.3 4.75m9.1-6.75-.25 3.75q2.05.3 2.05 4.5 0 2.65-.7 3.5-.55.65-1.6 1-1.9.7-2.75-2.25l-.4-2.65q0-1.65.65-2.65 0-1.35.6-3.2l.75-2q1.1-2.6 2.4-2.75l-.75 2.75m14.35 15.4q6.5 5.2 3.15 8.55l-1.9 2.3-1.55 3.6q-1.05 2-2.5 2.15-4.2.45-7.25-1.75l-5.25-3.65q-9.75-2.3-7-7.5.95-1.75 2.9-2.55l3.4-1.55q2.8-1.95 4.35-2.6 2.7-1.2 5.15-.65 2.6.6 6.5 3.65m1.2-8.1h-.05l-.4-5.3q0-1.3.3-1.25.35.05.9 1.25L28 9.2l1.15 4.6q1.05.85 1.7 2.65.45 1.4.2 2.75-.6 3.3-3.75 2.25-1.6-.55-1.7-1.6-.15-1.4.15-3.5.4-2.35 1.1-3M21 6.45h-.05l-.8-3q1.45.15 2.6 2.6l.8 2 .25 2.15.7.2q1.35 1.1 1 3.7-.2 2.8-1.05 3.95-.4.6-1.6.5-3.1-.15-3.25-4.4 0-2.65.9-3.45l.3-.15.2-2.5v-1.6M17.55 5.4l.2.65.2 2.9.9.85q.7 1.1.3 3.2-.35 2-1.25 3-1.5 1.65-3.3.9-1.1-.5-1.25-3-.1-2.5 1-3.85l.2-.2.25-1.8.55-2.55q.2-.95-.05-2.25l-.05-1.2q.25-.15 1.1 1.1l1.2 2.25"/><path fill="#cdcdcd" d="m5.55 8.05-1.7 5.8q.75.35 2.1-.7H5.8l.65-5.1q.15-1.45-.15-1.4l-.75 1.4m2.75 3.2q2 .45 2.75-1.45l.25-3.75.75-2.75q-1.3.15-2.4 2.75l-.75 2q-.6 1.85-.6 3.2m18.5 2.1h.05q1.65 1.55 2.3.45L28 9.2l-.4-1.15q-.55-1.2-.9-1.25-.3-.05-.3 1.25l.4 5.3m-5.85-6.9 2.85 3.75-.25-2.15-.8-2q-1.15-2.45-2.6-2.6l.8 3m2.9 3.75L21 6.45v1.6l-.2 2.5q2.3.75 3.05-.35m-9.3-.35q2.45.35 3.4-.9l-.2-2.9-.2-.65-1.2-2.25q-.85-1.25-1.1-1.1l.05 1.2q.25 1.3.05 2.25l-.55 2.55-.25 1.8"/><path fill="#46505a" d="M7.4 16.7q-.45-3.25-1.45-3.55-1.35 1.05-2.1.7-2.2 2.1-2 6 .1 2.1 1.1 2.35l1.4-.15.85-.65 1.15-.25 1-.65q.45-.7.05-3.8m10.55-7.75q-.95 1.25-3.4.9l-.2.2q-1.1 1.35-1 3.85.15 2.5 1.25 3 1.8.75 3.3-.9.9-1 1.25-3 .4-2.1-.3-3.2l-.9-.85m11.2 4.85q-.65 1.1-2.3-.45-.7.65-1.1 3-.3 2.1-.15 3.5.1 1.05 1.7 1.6 3.15 1.05 3.75-2.25.25-1.35-.2-2.75-.65-1.8-1.7-2.65"/><path fill="#46505a" d="M28.8 30q3.35-3.35-3.15-8.55-3.9-3.05-6.5-3.65-2.45-.55-5.15.65-1.55.65-4.35 2.6l-3.4 1.55q-1.95.8-2.9 2.55-2.75 5.2 7 7.5l5.25 3.65q3.05 2.2 7.25 1.75 1.45-.15 2.5-2.15l1.55-3.6 1.9-2.3"/></g></svg>