<svg xmlns="http://www.w3.org/2000/svg" width="19.5" height="41"><g fill-rule="evenodd"><path d="m14.45 1.1 4.9 5.75.15 2.5-.65 5.6v2.1l-.6 1.95-.25 1.4.05 3.85-.9 5.4.05 1.75-.6 3.85-.1 2.4-2.3 3.1-3.1-.05-2 .25-2.1-.1-2.85-2.45-1.95-3.2-.6-1.5-.2-4.05-.45-1.85v-3.9L.6 21.95l.15-2.1L0 12.5l.05-3 2.7-3.35 1-.65.6-1.2L5.8 2.75 9.1 0l5.35 1.1M9.8 2.6 7.5 4.55 6.45 5.7l-.8 1.45-1.1.75-2.05 2.5v1.9l.75 7.5-.15 1.95.35 1.85v3.85l.45 1.8.2 3.8.45 1.15 1.5 2.45L8 38.35l1.05.05 1.9-.25h2L14 36.7l.1-1.85.6-3.65-.05-1.85.9-5.45-.05-3.75.3-1.8.55-1.75v-1.9L17 9.2l-.1-1.45-3.75-4.45-3.35-.7m.15 7.65 3.45 4.95v.4q-3 4.65-3.6 5.1-.4 0-3.7-4.95v-.55q3.25-4.95 3.6-4.95h.25"/><path fill="#bcbec0" d="M9.95 10.25H9.7q-.35 0-3.6 4.95v.55q3.3 4.95 3.7 4.95.6-.45 3.6-5.1v-.4l-3.45-4.95M9.8 2.6l3.35.7 3.75 4.45.1 1.45-.65 5.5v1.9l-.55 1.75-.3 1.8.05 3.75-.9 5.45.05 1.85-.6 3.65-.1 1.85-1.05 1.45h-2l-1.9.25L8 38.35l-1.95-1.7-1.5-2.45-.45-1.15-.2-3.8-.45-1.8V23.6l-.35-1.85.15-1.95-.75-7.5v-1.9l2.05-2.5 1.1-.75.8-1.45L7.5 4.55 9.8 2.6"/><path fill="#9bb9af" d="M9.7 10.3h.25l3.45 4.95v.4q-3 4.65-3.6 5.1-.4 0-3.7-4.95v-.55q3.25-4.95 3.6-4.95m3.45-6.95-3.35-.7L7.5 4.6 6.45 5.75l-.8 1.45-1.1.75-2.05 2.5v1.9l.75 7.5-.15 1.95.35 1.85v3.85l.45 1.8.2 3.8.45 1.15 1.5 2.45L8 38.4l1.05.05 1.9-.25h2L14 36.75l.1-1.85.6-3.65-.05-1.85.9-5.45-.05-3.75.3-1.8.55-1.75v-1.9l.65-5.5-.1-1.45-3.75-4.45"/><path fill="#50695f" d="m.05 9.55-.05 3 .75 7.35L.6 22l.35 1.95v3.9l.45 1.85.2 4.05.6 1.5 1.95 3.2L7 40.9l2.1.1 2-.25 3.1.05 2.3-3.1.1-2.4.6-3.85-.05-1.75.9-5.4-.05-3.85.25-1.4.6-1.95V15l.65-5.6-.15-2.5-4.9-5.75L9.1.05 5.8 2.8 4.35 4.35l-.6 1.2-1 .65-2.7 3.35m9.9.75H9.7q-.35 0-3.6 4.95v.55q3.3 4.95 3.7 4.95.6-.45 3.6-5.1v-.4L9.95 10.3M9.8 2.65l3.35.7L16.9 7.8l.1 1.45-.65 5.5v1.9l-.55 1.75-.3 1.8.05 3.75-.9 5.45.05 1.85-.6 3.65-.1 1.85-1.05 1.45h-2l-1.9.25L8 38.4l-1.95-1.7-1.5-2.45-.45-1.15-.2-3.8-.45-1.8v-3.85L3.1 21.8l.15-1.95-.75-7.5v-1.9l2.05-2.5 1.1-.75.8-1.45L7.5 4.6l2.3-1.95"/></g></svg>