<svg xmlns="http://www.w3.org/2000/svg" width="32.4" height="42"><g fill-rule="evenodd"><path fill="#bcbec0" d="M19.65 18.55 21.8 17l6.85 7.4-3.05 5.25-8.5-12.05-3.15 2.15 1.55 2.15-7.4 6.9-5.25-3.05 12.1-8.55-2.2-3.1-2.15 1.55-6.85-7.4L6.8 3l8.5 12.05 3.1-2.15-1.55-2.15 7.4-6.85 5.25 3.05-12.05 8.5 2.2 3.1m-.35 21.7h-1.45l-.5-7.3-2.2.05-.6 7.25h-1.8L8.55 38l3.4-11.2 5.1-4.75-1.45-2 1.2-.85 2.2 3.1 4.8 15.6-4.5 2.35"/><path d="m19.65 18.55-2.2-3.1 12.05-8.5-5.25-3.05-7.4 6.85 1.55 2.15-3.1 2.15L6.8 3 3.75 8.25l6.85 7.4 2.15-1.55 2.2 3.1-12.1 8.55L8.1 28.8l7.4-6.9-1.55-2.15 3.15-2.15 8.5 12.05 3.05-5.25L21.8 17l-2.15 1.55m-.05-2.85.4.55 2-1.4 8.55 9.2-4.8 8.35-3.5-4.9 3.4 11.05L19.1 42h-6.2l-6.2-3.4 2.75-9.05-1.1 1.05L0 25.75l12.75-9.05-.35-.55-2 1.4-8.6-9.2L6.65 0l9.05 12.75.5-.35-1.4-2L24 1.85l8.4 4.8-12.8 9.05m-.3 24.55 4.5-2.35L19 22.3l-2.2-3.1-1.2.85 1.45 2-5.1 4.75L8.55 38l4.2 2.25h1.8l.6-7.25 2.2-.05.5 7.3h1.45"/><path fill="#b4ae76" d="M19.65 18.55 27.1 27l1.55-2.6L21.8 17l-2.15 1.55m-2.8-7.8 1.55 2.15 8.45-7.45-2.6-1.55-7.4 6.85m-6.25 4.9 2.15-1.55L5.3 5.65l-1.55 2.6 6.85 7.4"/><path fill="#696543" d="m12.75 14.1-2.15 1.55-6.85-7.4 1.55-2.6L4.25 4.2 1.8 8.35l8.6 9.2 2-1.4.35-2.05m5.65-1.2-1.55-2.15 7.4-6.85 2.6 1.55 1.35-1.2-4.2-2.4-9.2 8.55 1.4 2 2.2.5M27.1 27l1.05 1.2 2.4-4.15-8.55-9.2-2 1.4-.2-.25-.15 2.55L21.8 17l6.85 7.4L27.1 27m-10.9-7.35-2.25.1 1.55 2.15-7.4 6.9-2.6-1.55-1.3.9 4.15 2.45 1.1-1.05 2.5-2.75 5.1-4.75-1.45-2 .6-.4"/><path fill="#696543" d="M28.15 28.2 27.1 27l-1.5 2.65-8.5-12.05-3.15 2.15 2.25-.1.6-.45 2.2 3.1 3.25 5.2 3.5 4.9 2.4-4.2"/><path fill="#6e4d3b" d="M15.45 34.95v-.7h.75v.7h-.75m.9 0v-.7h.75v.7h-.75m0-.8v-.7h.75v.7h-.75m-.9 0v-.7h.75v.7h-.75m1.35 2.65.3-.3.4.3-.4.3-.3-.3m1.05 3.45-.5-7.3-2.2.05-.6 7.25h3.3"/><path fill="#e4dfa2" d="m17.1 36.5-.3.3.3.3.4-.3-.4-.3"/><path d="M-.55 12.45v.7H.2v-.7h-.75" style="fill:#e4dfa2" transform="translate(16 21)"/><path d="M16.35 33.45v.7h.75v-.7h-.75"/><path d="M.35 13.25v.7h.75v-.7H.35" style="fill:#e4dfa2" transform="translate(16 21)"/><path d="M15.45 34.25v.7h.75v-.7h-.75"/><path fill="#422819" d="m15.75 16.25.5-.3.35.15.15.3-.15.3-.35.15-.3-.05-.2-.25v-.3m.25-.9-.45.2-.3.4-.1.45.1.45.3.4.45.2h.45l.45-.2.45-.85-.45-.85-.45-.2H16"/><path fill="#6e4d3b" d="m16.25 15.95-.5.3v.3l.2.25.3.05.35-.15.15-.3-.15-.3-.35-.15"/><path fill="#b4ae76" d="m13.95 19.75-8.45 7.5 2.6 1.55 7.4-6.9-1.55-2.15"/><path fill="#6e4d3b" d="m27.1 27-7.45-8.45-2.2-3.1 12.05-8.5-2.65-1.5-8.45 7.45-3.1 2.15L6.8 3 5.3 5.65l7.45 8.45 2.2 3.1-12.1 8.55 2.65 1.5 8.45-7.5 3.15-2.15 8.5 12.05L27.1 27M15.55 15.55l.45-.2h.45l.45.2.45.85-.45.85-.45.2H16l-.45-.2-.3-.4-.1-.45.1-.45.3-.4"/><path fill="#4b4b4b" d="M22.25 27.5 19 22.3l4.8 15.6-4.5 2.35h-6.55L8.55 38l3.4-11.2-2.5 2.75L6.7 38.6l6.2 3.4h6.2l6.55-3.45-3.4-11.05m-2.6-8.95L19.8 16l-.2-.3 12.8-9.05-4.2-2.4-1.35 1.2 2.65 1.5-12.05 8.5 2.2 3.1M5.3 5.65 6.8 3l8.5 12.05 3.1-2.15-2.2-.5-.5.35L6.65 0l-2.4 4.2L5.3 5.65m-1.1 22.5 1.3-.9-2.65-1.5 12.1-8.55-2.2-3.1-.35 2.05.35.55L0 25.75l4.2 2.4"/><path fill="#a0a0a0" d="M12.75 40.25h1.8l.6-7.25 2.2-.05.5 7.3h1.45l4.5-2.35L19 22.3l-2.2-3.1-.6.45-.6.4 1.45 2-5.1 4.75L8.55 38l4.2 2.25"/></g></svg>