<svg xmlns="http://www.w3.org/2000/svg" width="39.5" height="38.2"><g fill-rule="evenodd"><path d="m34.4 6.55 2.95.7.7 1.8h1.45l-6.7 21.9h4.9v7.25H.75v-7.25H6.8L0 9.05h2.55L6 6l1.7.1 1.95-3.45 2.5 1.6L15.1 0l7.6.6.25.05.2.1 4 1.65.9 1.6L31 3.9l3.4 2.65M22.6 2.8l-6.7-.55L12.6 7l-2.4-1.5-1.6 2.85-2.1-.1L4.95 9.6H36.3l-.15-.4-2.4-.6-3.25-2.5-3.4.15-1.05-2L22.6 2.8m9.15 25.15q0-2.45-1.5-4.2-1.5-1.7-3.6-1.7t-3.6 1.7q-1.5 1.75-1.5 4.2t1.5 4.15l1.35 1.05h-9.15l1.35-1.05q1.45-1.7 1.45-4.15t-1.45-4.2q-1.5-1.7-3.6-1.7-2.15 0-3.65 1.7-1.5 1.75-1.5 4.2t1.5 4.15l1.35 1.05H2.4v3.35h33.65v-3.35H28.9l1.35-1.05q1.5-1.7 1.5-4.15M28.7 24.8l-2.05 2.4-2.05-2.4q.9-.8 2.05-.8t2.05.8m1.35-2.75q1.55 1.15 2.2 3.15l4.45-13H2.8l4.45 13.15q.7-2.05 2.3-3.25 1.55-1.25 3.45-1.25t3.45 1.25q1.55 1.2 2.25 3.25h2.15q.7-2.05 2.3-3.25 1.55-1.25 3.45-1.25t3.45 1.2m-6.8 5.9q0-1.35.7-2.4l2.1 2.35-2.1 2.4q-.7-1.05-.7-2.35m4-.05 2.1-2.35q.7 1.05.7 2.4 0 1.3-.7 2.35l-2.1-2.4M28.7 31q-.9.85-2.05.85T24.6 31l2.05-2.4L28.7 31m-15.75-7q1.15 0 2.1.8l-2.1 2.4-2.05-2.4q.9-.8 2.05-.8m0 4.6 2.1 2.4q-.95.85-2.1.85T10.9 31l2.05-2.4m-2.65 1.7q-.7-1.05-.7-2.35 0-1.35.7-2.4l2.05 2.35-2.05 2.4m5.35 0-2.05-2.4 2.05-2.35q.7 1.05.7 2.4 0 1.3-.7 2.35"/><path fill="#bcbec0" d="M15.65 30.3q.7-1.05.7-2.35 0-1.35-.7-2.4L13.6 27.9l2.05 2.4m-5.35 0 2.05-2.4-2.05-2.35q-.7 1.05-.7 2.4 0 1.3.7 2.35m2.65-1.7L10.9 31q.9.85 2.05.85t2.1-.85l-2.1-2.4m0-4.6q-1.15 0-2.05.8l2.05 2.4 2.1-2.4q-.95-.8-2.1-.8m15.75 7-2.05-2.4L24.6 31q.9.85 2.05.85T28.7 31m-1.45-3.1 2.1 2.4q.7-1.05.7-2.35 0-1.35-.7-2.4l-2.1 2.35m-4 .05q0 1.3.7 2.35l2.1-2.4-2.1-2.35q-.7 1.05-.7 2.4m6.8-5.9q-1.55-1.2-3.45-1.2t-3.45 1.25q-1.6 1.2-2.3 3.25H18.7q-.7-2.05-2.25-3.25-1.55-1.25-3.45-1.25T9.55 22.1q-1.6 1.2-2.3 3.25L2.8 12.2h33.9l-4.45 13q-.65-2-2.2-3.15M28.7 24.8q-.9-.8-2.05-.8t-2.05.8l2.05 2.4 2.05-2.4m3.05 3.15q0 2.45-1.5 4.15l-1.35 1.05h7.15v3.35H2.4v-3.35h8.3L9.35 32.1q-1.5-1.7-1.5-4.15t1.5-4.2q1.5-1.7 3.65-1.7 2.1 0 3.6 1.7 1.45 1.75 1.45 4.2T16.6 32.1l-1.35 1.05h9.15l-1.35-1.05q-1.5-1.7-1.5-4.15t1.5-4.2q1.5-1.7 3.6-1.7t3.6 1.7q1.5 1.75 1.5 4.2M22.6 2.8l3.45 1.45 1.05 2 3.4-.15 3.25 2.5 2.4.6.15.4H4.95L6.5 8.25l2.1.1 1.6-2.85L12.6 7l3.3-4.75 6.7.55"/><path fill="#28ce41" d="m28.5 8.55.75-.2.15-.7-.55-.4-.65.25-.1.65.4.4"/><path fill="#ce3828" d="m23.85 6.7.25-1.3-1-.9-1.3.4-.25 1.35 1 .9 1.3-.45"/><path fill="#2555af" d="m11.6 8.15.1-.3-.1-.3-.3-.1-.5.1-.1.3.1.3.3.1.5-.1m3.6-.75.25.6.6.25h1.4l.6-.25.25-.6-.25-.6-.6-.25h-1.4l-.6.25-.25.6"/><g fill="#fadc32"><path d="m32.7 10.15-.1-.35-.6-.35-.5.2-.2.5v1.3l.2.5.5.2.5-.2.2-.5v-1.3"/><path d="m32.6 9.8.1-.2V8.55l-.25-.65-.65-.25h-2.4l-.15.7-.75.2V9.6l.25.8.65.25h1.9v-.5l.2-.5.5-.2.6.35"/><path d="M28.5 9.6V8.55l-.4-.4.1-.65.65-.25.55.4h2.4l.65.25.25.65V9.6h3.6l-.15-.4-2.4-.6-3.25-2.5-3.4.15-1.05-2L22.6 2.8l-6.7-.55L12.6 7l-2.4-1.5-1.6 2.85-2.1-.1L4.95 9.6H28.5M15.45 8l-.25-.6.25-.6.6-.25h1.4l.6.25.25.6-.25.6-.6.25h-1.4l-.6-.25m-3.75-.15-.1.3-.5.1-.3-.1-.1-.3.1-.3.5-.1.3.1.1.3M24.1 5.4l-.25 1.3-1.3.45-1-.9.25-1.35 1.3-.4 1 .9"/></g><path fill="#d2b93c" d="m36.15 9.2.15.4 1.75-.55-.7-1.8-2.95-.7L31 3.9l-2.95.1-.9-1.6L22.7.6 15.1 0l-2.95 4.25-2.5-1.6L7.7 6.1 6 6 2.55 9.05l2.4.55L6.5 8.25l2.1.1 1.6-2.85L12.6 7l3.3-4.75 6.7.55 3.45 1.45 1.05 2 3.4-.15 3.25 2.5 2.4.6"/><g fill="#2d2d2d"><path d="m12.35 27.9-2.05-2.35q-.7 1.05-.7 2.4 0 1.3.7 2.35l2.05-2.4m.6-3.9q-1.15 0-2.05.8l2.05 2.4 2.1-2.4q-.95-.8-2.1-.8m2.7 6.3q.7-1.05.7-2.35 0-1.35-.7-2.4L13.6 27.9l2.05 2.4m-2.7-1.7L10.9 31q.9.85 2.05.85t2.1-.85l-2.1-2.4"/><path d="m32.8 30.95-.35 2.2h3.6v3.35H2.4v-3.35h5.25l-.85-2.2H.75v7.25H37.7v-7.25h-4.9m-3.45-5.4-2.1 2.35 2.1 2.4q.7-1.05.7-2.35 0-1.35-.7-2.4m-.65-.75q-.9-.8-2.05-.8t-2.05.8l2.05 2.4 2.05-2.4m-5.45 3.15q0 1.3.7 2.35l2.1-2.4-2.1-2.35q-.7 1.05-.7 2.4"/><path d="m28.7 31-2.05-2.4L24.6 31q.9.85 2.05.85T28.7 31"/></g><path fill="#969696" d="m32.25 25.2 4.45-13H2.8l4.45 13.15q.7-2.05 2.3-3.25 1.55-1.25 3.45-1.25t3.45 1.25q1.55 1.2 2.25 3.25h2.15q.7-2.05 2.3-3.25 1.55-1.25 3.45-1.25t3.45 1.2q1.55 1.15 2.2 3.15"/><path fill="#969696" d="M16.35 27.95q0 1.3-.7 2.35l-2.05-2.4 2.05-2.35q.7 1.05.7 2.4m-6.05-2.4 2.05 2.35-2.05 2.4q-.7-1.05-.7-2.35 0-1.35.7-2.4m.6 5.45 2.05-2.4 2.1 2.4q-.95.85-2.1.85T10.9 31m0-6.2q.9-.8 2.05-.8t2.1.8l-2.1 2.4-2.05-2.4m-.2 8.35h4.55l1.35-1.05q1.45-1.7 1.45-4.15t-1.45-4.2q-1.5-1.7-3.6-1.7-2.15 0-3.65 1.7-1.5 1.75-1.5 4.2t1.5 4.15l1.35 1.05m15.95-4.55L28.7 31q-.9.85-2.05.85T24.6 31l2.05-2.4m.6-.7 2.1-2.35q.7 1.05.7 2.4 0 1.3-.7 2.35l-2.1-2.4m-3.3 2.4q-.7-1.05-.7-2.35 0-1.35.7-2.4l2.1 2.35-2.1 2.4m2.7-6.3q1.15 0 2.05.8l-2.05 2.4-2.05-2.4q.9-.8 2.05-.8m-2.25 9.15h4.5l1.35-1.05q1.5-1.7 1.5-4.15t-1.5-4.2q-1.5-1.7-3.6-1.7t-3.6 1.7q-1.5 1.75-1.5 4.2t1.5 4.15l1.35 1.05"/><path fill="#2d2d2d" d="m36.7 12.2-4.45 13q-.65-2-2.2-3.15-1.55-1.2-3.45-1.2t-3.45 1.25q-1.6 1.2-2.3 3.25H18.7q-.7-2.05-2.25-3.25-1.55-1.25-3.45-1.25T9.55 22.1q-1.6 1.2-2.3 3.25L2.8 12.2h33.9M2.55 9.05H0l.65 1.8 6.15 20.1.85 2.2h3.05L9.35 32.1q-1.5-1.7-1.5-4.15t1.5-4.2q1.5-1.7 3.65-1.7 2.1 0 3.6 1.7 1.45 1.75 1.45 4.2T16.6 32.1l-1.35 1.05h9.15l-1.35-1.05q-1.5-1.7-1.5-4.15t1.5-4.2q1.5-1.7 3.6-1.7t3.6 1.7q1.5 1.75 1.5 4.2t-1.5 4.15l-1.35 1.05h3.55l.35-2.2 4.9-16.3 1.8-5.6h-1.45l-1.75.55h-3.6l-.1.2.1.35v1.3l-.2.5-.5.2-.5-.2-.2-.5v-.8h-1.9l-.65-.25-.25-.8H4.95l-2.4-.55"/><path fill="#503c32" d="M15.25 33.15H2.4v3.35h33.65v-3.35h-20.8"/></g><path fill="none" stroke="#fadc32" stroke-linecap="round" stroke-linejoin="round" stroke-width=".1" d="m23.85 6.7-1.3.45-1-.9.25-1.35 1.3-.4 1 .9-.25 1.3M11.6 8.15l-.5.1-.3-.1-.1-.3.1-.3.5-.1.3.1.1.3-.1.3m3.6-.75.25-.6.6-.25h1.4l.6.25.25.6-.25.6-.6.25h-1.4l-.6-.25-.25-.6m13.3 2.2H4.95L6.5 8.25l2.1.1 1.6-2.85L12.6 7l3.3-4.75 6.7.55 3.45 1.45 1.05 2 3.4-.15 3.25 2.5 2.4.6.15.4h-3.6V8.55l-.25-.65-.65-.25h-2.4l-.55-.4-.65.25-.1.65.4.4V9.6l.25.8.65.25h1.9v.8l.2.5.5.2.5-.2.2-.5v-1.3l-.1-.35.1-.2m-1.4 1.05v-.5l.2-.5.5-.2.6.35m-3.2-2.15-.15.7-.75.2"/></svg>