<svg xmlns="http://www.w3.org/2000/svg" width="29.2" height="38"><g fill-rule="evenodd"><path fill="#bcbec0" d="M21.05 13.05q0 .8.5 1.4.55.6 1.25.6.75 0 1.25-.6.5-.55.5-1.4t-.5-1.4q-.5-.6-1.25-.6-.7 0-1.25.6-.5.6-.5 1.4M16.9 6.8q0-1-.65-1.75T14.7 4.3q-.95 0-1.6.75t-.65 1.75q0 1.05.65 1.8.65.7 1.6.7.9 0 1.55-.7.65-.75.65-1.8m2.85-3.35Q22.2 5 24.05 7.8q3.45 5.35 3.45 12.9 0 4.2-1.9 9.7h1.5v5.65H16.95v-4.7l1.65-2.05q1.5-1.85 2.15-3.75.75-2.1.75-4.85 0-4.7-2.05-7.45-1.9-2.55-4.85-2.55t-4.85 2.55Q7.7 16 7.7 20.7q0 2.75.75 4.85.7 1.9 2.15 3.75l1.55 1.95v4.8H1.85V30.4H3.6q-1.9-5.5-1.9-9.7 0-7.55 3.45-12.9Q7 5 9.45 3.45T14.6 1.9t5.15 1.55M7.1 25.8q0-.85-.5-1.45-.55-.55-1.3-.55-.7 0-1.25.55-.5.6-.5 1.45 0 .8.5 1.4.55.6 1.25.6.75 0 1.3-.6.5-.55.5-1.4m-.7-14.75q-.75 0-1.25.6-.5.55-.5 1.4t.5 1.4q.5.6 1.25.6.7 0 1.25-.6.5-.6.5-1.4t-.5-1.4q-.55-.6-1.25-.6M25.15 27.2q.5-.6.5-1.4 0-.85-.5-1.45-.55-.55-1.25-.55-.75 0-1.25.55-.55.6-.55 1.45t.55 1.4q.5.6 1.25.6.7 0 1.25-.6"/><path d="M19.75 3.45Q17.3 1.9 14.6 1.9T9.45 3.45 5.15 7.8Q1.7 13.15 1.7 20.7q0 4.2 1.9 9.7H1.85v5.65h10.3v-4.8L10.6 29.3q-1.45-1.85-2.15-3.75-.75-2.1-.75-4.85 0-4.7 2.05-7.45 1.9-2.55 4.85-2.55t4.85 2.55Q21.5 16 21.5 20.7q0 2.75-.75 4.85-.65 1.9-2.15 3.75l-1.65 2.05v4.7H27.1V30.4h-1.5q1.9-5.5 1.9-9.7 0-7.55-3.45-12.9-1.85-2.8-4.3-4.35M16.9 6.8q0 1.05-.65 1.8-.65.7-1.55.7-.95 0-1.6-.7-.65-.75-.65-1.8 0-1 .65-1.75t1.6-.75q.9 0 1.55.75t.65 1.75m4.15 6.25q0-.8.5-1.4.55-.6 1.25-.6.75 0 1.25.6.5.55.5 1.4t-.5 1.4q-.5.6-1.25.6-.7 0-1.25-.6-.5-.6-.5-1.4M19.8 20.7q0-3.65-1.4-5.9-1.45-2.2-3.8-2.2t-3.8 2.2q-1.4 2.25-1.4 5.9 0 2.45.65 4.25.55 1.55 1.8 3.05l2 2.55V38H.15v-9.5H1.2Q0 24 0 20.7q0-8.1 3.8-14 2.05-3.2 4.9-4.95Q11.5 0 14.6 0t5.95 1.75q2.8 1.75 4.85 4.95 3.8 5.9 3.8 14 0 3.3-1.2 7.8h.8V38H15.25v-7.35l2.1-2.65q1.25-1.5 1.8-3.05.65-1.8.65-4.25m5.35 6.5q-.55.6-1.25.6-.75 0-1.25-.6-.55-.55-.55-1.4t.55-1.45q.5-.55 1.25-.55.7 0 1.25.55.5.6.5 1.45 0 .8-.5 1.4M6.4 11.05q.7 0 1.25.6.5.6.5 1.4t-.5 1.4q-.55.6-1.25.6-.75 0-1.25-.6-.5-.55-.5-1.4t.5-1.4q.5-.6 1.25-.6m.7 14.75q0 .85-.5 1.4-.55.6-1.3.6-.7 0-1.25-.6-.5-.6-.5-1.4 0-.85.5-1.45.55-.55 1.25-.55.75 0 1.3.55.5.6.5 1.45"/><path fill="#c2c2c2" d="M27.1 30.4h-1.5q4.5-12.95-1.4-22.35l-.15-.25Q20.1 1.9 14.6 1.9T5.15 7.8L5 8.05q-5.9 9.4-1.4 22.35H1.85v5.65h10.3v-4.8L10.6 29.3q-2.9-3.75-2.9-8.6 0-4.7 2.05-7.45 1.9-2.55 4.85-2.55t4.85 2.55Q21.5 16 21.5 20.7q0 5.1-2.9 8.6l-1.65 2.05v4.7H27.1V30.4m-3.2-6.6q1.75 0 1.75 2 0 .8-.5 1.4-.55.6-1.25.6-.75 0-1.25-.6-.55-.55-.55-1.4t.55-1.45q.5-.55 1.25-.55m-18.6 0q1.8 0 1.8 2 0 .85-.5 1.4-.55.6-1.3.6-.7 0-1.25-.6-.5-.6-.5-1.4 0-2 1.75-2m-.15-12.15q.5-.6 1.25-.6.7 0 1.25.6 1.15 1.4 0 2.8-.55.6-1.25.6-.75 0-1.25-.6-.5-.55-.5-1.4t.5-1.4m16.4 0q.55-.6 1.25-.6.75 0 1.25.6.5.55.5 1.4t-.5 1.4q-.5.6-1.25.6-.7 0-1.25-.6-1.15-1.4 0-2.8M14.7 4.3q.9 0 1.55.75t.65 1.75q0 1.05-.65 1.8-.65.7-1.55.7-.95 0-1.6-.7-.65-.75-.65-1.8 0-1 .65-1.75t1.6-.75"/><path fill="#696969" d="M16.25 5.05q-.65-.75-1.55-.75-.95 0-1.6.75t-.65 1.75q0 1.05.65 1.8.65.7 1.6.7.9 0 1.55-.7.65-.75.65-1.8 0-1-.65-1.75m6.55 6q-.7 0-1.25.6-1.15 1.4 0 2.8.55.6 1.25.6.75 0 1.25-.6.5-.55.5-1.4t-.5-1.4q-.5-.6-1.25-.6M7.1 25.8q0-2-1.8-2-1.75 0-1.75 2 0 .8.5 1.4.55.6 1.25.6.75 0 1.3-.6.5-.55.5-1.4m18.55 0q0-2-1.75-2-.75 0-1.25.55-.55.6-.55 1.45t.55 1.4q.5.6 1.25.6.7 0 1.25-.6.5-.6.5-1.4M6.4 11.05q-.75 0-1.25.6-.5.55-.5 1.4t.5 1.4q.5.6 1.25.6.7 0 1.25-.6 1.15-1.4 0-2.8-.55-.6-1.25-.6"/><path fill="#4b4b4b" d="M8.7 1.75Q5.85 3.5 3.8 6.7q-5.95 9.25-2.6 21.8H.15V38h13.7v-7.45l-2-2.55Q9.4 25.05 9.4 20.7q0-3.65 1.4-5.9 1.45-2.2 3.8-2.2t3.8 2.2q1.4 2.25 1.4 5.9 0 4.35-2.45 7.3l-2.1 2.65V38H28.8v-9.5H28q3.35-12.55-2.6-21.8Q21.1 0 14.6 0q-3.1 0-5.9 1.75M25.6 30.4h1.5v5.65H16.95v-4.7l1.65-2.05q2.9-3.5 2.9-8.6 0-4.7-2.05-7.45-1.9-2.55-4.85-2.55t-4.85 2.55Q7.7 16 7.7 20.7q0 4.85 2.9 8.6l1.55 1.95v4.8H1.85V30.4H3.6Q-.9 17.45 5 8.05l.15-.25Q9.1 1.9 14.6 1.9t9.45 5.9l.15.25q5.9 9.4 1.4 22.35"/></g></svg>