<svg xmlns="http://www.w3.org/2000/svg" width="20.9" height="42"><g fill-rule="evenodd"><path fill="#bcbec0" d="M14.5 17.9h-2.05v3.95h2.05V17.9m-2.6-4.6h4.75v-2.7h2.55l-.05 21.9-8.6 7.1-8.45-7.1V1.95h2.5v.7l12.35 2.3L4.6 7.3v6h4.8v-2.7h2.5v2.7"/><path d="M11.9 13.3v-2.7H9.4v2.7H4.6v-6l12.35-2.35L4.6 2.65v-.7H2.1V32.5l8.45 7.1 8.6-7.1.05-21.9h-2.55v2.7H11.9m2.6 4.6v3.95h-2.05V17.9h2.05m4.7-14.35-.95 2.95L7.3 8.65h13.55L20.8 33.3 10.35 42 0 33.25V0h6.25v1L19.2 3.55"/><path fill="#e4dfa2" d="M14.55 17.9H12.5v3.95h2.05V17.9"/><path fill="#694b41" d="M4.65 7.3V1.95h-2.5V13.3h2.5v-6"/><path fill="#4b2d2d" d="m4.65 9 2.7-.35L18.3 6.5l.95-2.95L6.3 1 4.65 2.65 17 4.95 4.65 7.3V9"/><path fill="#a04b4b" d="M4.65 2.65V7.3L17 4.95 4.65 2.65"/><path fill="#969696" d="M4.65 13.3h-2.5v19.2l8.45 7.1 8.6-7.1.05-21.9H16.7v2.7h-4.75v-2.7h-2.5v2.7h-4.8m7.85 4.6h2.05v3.95H12.5V17.9"/><path fill="#4b4b4b" d="M20.9 8.65H7.35L4.65 9v4.3h4.8v-2.7h2.5v2.7h4.75v-2.7h2.55l-.05 21.9-8.6 7.1-8.45-7.1V1.95h2.5v.7L6.3 1V0H.05v33.25L10.4 42l10.45-8.7.05-24.65"/></g></svg>