<svg xmlns="http://www.w3.org/2000/svg" width="41.9" height="34.35"><g fill-rule="evenodd"><path fill="#bcbec0" d="m35.1 2.4.65.05 2-.25.6-.55.4.55-.45.55q-.25.85.2 2.6.45 1.3.15 1.7L37.8 8.1l.1-.85L37.7 6l-1.2 2.35q.55 1.45.25 1.9l-.8 1.25v-.95l-.2-1-.15-.35-.9 2.35q.8 1.5.5 2L34.45 15l-.05-1-.6-1.5-.55 2.35q.95 1.55.75 2.1l-.45 2.25 6.05-2.6q.55.25.75 1.1-1.4 1-2.8 2.45l-1.8 2.1q-1.15 1.6-1.25 3l-.75.85.05-.7-.15-1.2L33 23l-.1-.1-1.9 2.7.25.25 3.7 4.8q.45.6-1.5 1.55-2 1-2.55.2L26.6 27q-2.75-2.75-5.95-3.05-3.5-.35-6.65 1.45-2.95 1.7-4.7 4.85-.55 1-2.65 1.5H5.7q-.55-.2-.2-.75 1.7-3.15 5.05-5.55l-1.5-2.1-.1.05-.65 1.25-.15 1.15.05.7-.75-.85q-.2-2.2-3.05-5.1L1.6 18.1q.2-.85.75-1.1l6.05 2.65-.45-2.25q-.2-.6.75-2.15l-.55-2.3-.6 1.45-.05 1-.75-1.4q-.25-.6.5-2.05l-.9-2.35L6 11v.9l-.8-1.25q-.3-.4.25-1.85l-1.2-2.4-.2 1.3.1.8-.85-1.05q-.3-.35.15-1.7.45-1.7.2-2.6l-.45-.5.4-.6.6.6 2.65.15q1.4-.1 1.8.35l.95 1.2L8.75 4l-1.3-.15 2.1 2q1.65 0 2 .55l.95 1.45-.9-.5-1.5-.3 1.95 2.05q1.8.2 2.1.8l.9 1.7-.9-.65-1.65-.45 1.7 2.05q1.95.35 2.3 1.1l.8 2-.95-.8q-.7-.5-1.7-.7l1.45 2.1q2 .5 2.35 1.45l.7 2.25-.95-1q-.9-.75-1.8-.95l-2.15-.05-.2.05 1.8 4.75q2.5-.85 5.35-1.1 2.55-.2 4.95.55.9-2.75 1.75-4.6l-.2-.05-2.15.05q-1 .25-1.8.95l-.95 1 .7-2.3q.3-.85 2.35-1.45l1.45-2.1q-.85.15-1.7.7l-.95.85.85-2q.3-.75 2.25-1.1l1.7-2.1q-.9.1-1.65.5l-.9.65.9-1.7q.3-.65 2.1-.85l1.95-2-1.5.25-.9.55.95-1.5q.4-.55 2-.55l2.1-1.95-1.3.1-.85.4.95-1.2q.35-.45 1.8-.35M12.45 22.1 11.1 22q-.6.05-1.25.55l-.1.1 2 2 1.9-1-.2-1.15q-.45-2.55-.85-3.95l-.2.05-1.45 1.3-1.05 1.2.55-.1 1.8.25.35.6q.05.35-.15.25m19.75.1-.1-.1-1.25-.5-1.35.1q-.2.05-.1-.25l.3-.6q.4-.4 1.8-.25l.55.1-1.35-1.6-1.15-.9-.2-.05q-.4 1.4-.85 3.95l-.2 1.15 1.9 1 2-2.05"/><path d="M35.1 2.4q-1.45-.1-1.8.35l-.95 1.2.85-.4 1.3-.1-2.1 1.95q-1.6 0-2 .55l-.95 1.5.9-.55 1.5-.25-1.95 2q-1.8.2-2.1.85l-.9 1.7.9-.65q.75-.4 1.65-.5l-1.7 2.1q-1.95.35-2.25 1.1l-.85 2 .95-.85q.85-.55 1.7-.7l-1.45 2.1q-2.05.6-2.35 1.45l-.7 2.3.95-1q.8-.7 1.8-.95l2.15-.05.2.05q-.85 1.85-1.75 4.6-2.4-.75-4.95-.55-2.85.25-5.35 1.1L14.05 18l.2-.05 2.15.05q.9.2 1.8.95l.95 1-.7-2.25q-.35-.95-2.35-1.45l-1.45-2.1q1 .2 1.7.7l.95.8-.8-2q-.35-.75-2.3-1.1l-1.7-2.05 1.65.45.9.65-.9-1.7q-.3-.6-2.1-.8L10.1 7.05l1.5.3.9.5-.95-1.45q-.35-.55-2-.55l-2.1-2 1.3.15.85.35-.95-1.2q-.4-.45-1.8-.35L4.2 2.65l-.6-.6-.4.6.45.5q.25.9-.2 2.6Q3 7.1 3.3 7.45l.85 1.05-.1-.8.2-1.3 1.2 2.4q-.55 1.45-.25 1.85L6 11.9V11l.35-1.4.9 2.35Q6.5 13.4 6.75 14l.75 1.4.05-1 .6-1.45.55 2.3q-.95 1.55-.75 2.15l.45 2.25L2.35 17q-.55.25-.75 1.1l2.8 2.45q2.85 2.9 3.05 5.1l.75.85-.05-.7.15-1.15.65-1.25.1-.05 1.5 2.1Q7.2 27.85 5.5 31q-.35.55.2.75h.95q2.1-.5 2.65-1.5 1.75-3.15 4.7-4.85 3.15-1.8 6.65-1.45 3.2.3 5.95 3.05l4.3 5.4q.55.8 2.55-.2 1.95-.95 1.5-1.55l-3.7-4.8-.25-.25 1.9-2.7.1.1.65 1.2.15 1.2-.05.7.75-.85q.1-1.4 1.25-3l1.8-2.1q1.4-1.45 2.8-2.45-.2-.85-.75-1.1l-6.05 2.6.45-2.25q.2-.55-.75-2.1l.55-2.35.6 1.5.05 1 .75-1.45q.3-.5-.5-2l.9-2.35.15.35.2 1v.95l.8-1.25q.3-.45-.25-1.9L37.7 6l.2 1.25-.1.85.85-1.05q.3-.4-.15-1.7-.45-1.75-.2-2.6l.45-.55-.4-.55-.6.55-2 .25-.65-.05M34.4.75h.85l.1.05.95.05.6-.05.35-.35 1.1-.45h.05q.65 0 1.15.5l.6.9.25 1q-.05.5-.45.9l-.15.15.25 1.4.05.1Q40.7 7 39.9 8l-.8 1q-.2.35-.6.5.1.9-.4 1.6l-.75 1.15-.45.5q.1.8-.25 1.55l-.25.4-.5 1-.3.4.05.4.1-.05 3.2-1.35.65-.15.75.15q1.05.6 1.55 2.05.4 1.1-.6 1.85-1.75 1.2-3.25 2.9-1.8 2.05-1.95 3.45l-.35.9-.8.9-.35.3 1.65 2.2q.65 1 .1 2.1l-.6.8-1.45 1q-1.45.75-2.65.75-1.35 0-2.05-.95l-.7-.95q-2.35-3.25-3.65-4.5-2.3-2.15-4.75-2.4l-.9-.05q-2.7 0-5.1 1.5-2.35 1.5-3.8 4.05-.95 1.65-3.75 2.3l-.85.05q-1.4 0-2.1-1-.5-1.05.05-2.15 1.1-1.9 2.4-3.3l-.1-.1-.5-1q-.15-1.4-1.95-3.45-1.45-1.65-3.2-2.9-1-.65-.65-1.9.55-1.5 1.55-2l.75-.2.65.15 3.3 1.45.05-.45-.3-.4-.5-1-.25-.4q-.35-.7-.25-1.5l-.45-.5-.75-1.2q-.5-.7-.4-1.55l-.6-.55-.6-.75-.2-.2q-.8-1-.2-3.1l.05-.05.25-1.45L2 3.7q-.8-.8-.2-1.9l.6-.9Q2.9.4 3.55.4h.05q.65 0 1.1.45l.35.35.6.05 1.9-.1q1.55 0 2.35.95l.05.1.95 1.2q.3.45.3.95 1.15.3 1.7 1.15l1 1.5.2.85q1 .35 1.5 1.25l.9 1.8.2.7q.95.55 1.25 1.45L18.8 15l.1.7q.8.6 1.05 1.4l.05.1.7 2.25.05.6.35-.05h.15v-.95l.7-2.3.05-.05q.25-.85 1.05-1.45l.1-.65.85-2q.35-.85 1.25-1.4l.2-.75.9-1.75q.45-.85 1.5-1.3l.2-.8 1-1.55q.55-.8 1.7-1.1 0-.55.3-.95L32 1.8l.05-.1q.8-.95 2.35-.95M32.2 22.2l-2 2.05-1.9-1 .2-1.15q.45-2.55.85-3.95l.2.05 1.15.9 1.35 1.6-.55-.1q-1.4-.15-1.8.25l-.3.6q-.1.3.1.25l1.35-.1 1.25.5.1.1m-19.75-.1q.2.1.15-.25l-.35-.6-1.8-.25-.55.1 1.05-1.2 1.45-1.3.2-.05q.4 1.4.85 3.95l.2 1.15-1.9 1-2-2 .1-.1q.65-.5 1.25-.55l1.35.1"/><path fill="#202020" d="M6.1 26.35h.05l.3.55.9 1.45q1.35-1.55 3.2-2.9l-1.5-2.1-.75 1.3-.15 1.15.05.7-.75-.85q-.2-2.2-3.05-5.1L1.6 18.1q.2-.85.75-1.1l6.05 2.65-.45-2.25q-.2-.6.75-2.15l-.55-2.3-.6 1.45-.05 1-.75-1.4q-.25-.6.5-2.05l-.9-2.35L6 11v.9l-.8-1.25q-.3-.4.25-1.85l-1.2-2.4-.2 1.3.1.8-.85-1.05q-.3-.35.15-1.7.45-1.7.2-2.6l-.45-.5.4-.6.6.6 2.65.15q1.4-.1 1.8.35l.95 1.2L8.75 4l-1.3-.15 2.1 2q1.65 0 2 .55l.95 1.45-.9-.5-1.5-.3 1.95 2.05q1.8.2 2.1.8l.9 1.7-.9-.65-1.65-.45 1.7 2.05q1.95.35 2.3 1.1l.8 2-.95-.8q-.7-.5-1.7-.7l1.45 2.1q2 .5 2.35 1.45l.7 2.25-.95-1q-.9-.75-1.8-.95h-2.35l1.8 4.75q5.8-1.95 10.3-.55l1.75-4.6h-2.35q-1 .25-1.8.95l-.95 1 .7-2.3q.3-.85 2.35-1.45l1.45-2.1q-.85.15-1.7.7l-.95.85.85-2q.3-.75 2.25-1.1l1.7-2.1q-.9.1-1.65.5l-.9.65.9-1.7q.3-.65 2.1-.85l1.95-2-1.5.25-.9.55.95-1.5q.4-.55 2-.55l2.1-1.95-1.3.1-.85.4.95-1.2q.35-.45 1.8-.35l.65.05 2-.25.6-.55.4.55-.45.55q-.25.85.2 2.6.45 1.3.15 1.7L37.8 8.1l.1-.85L37.7 6l-1.2 2.35q.55 1.45.25 1.9l-.8 1.25v-.95L35.6 9.2l-.9 2.35q.8 1.5.5 2L34.45 15l-.05-1-.6-1.5-.55 2.35q.95 1.55.75 2.1l-.45 2.25 6.05-2.6q.55.25.75 1.1l-2.8 2.45-1.8 2.1q-1.15 1.6-1.25 3l-.75.85.05-.7-.15-1.2-.75-1.3-1.9 2.7 1.95 2.5 1.65-.65 1.15-1.2.35-.9q.15-1.4 1.95-3.45 1.5-1.7 3.25-2.9 1-.75.6-1.85-.5-1.45-1.55-2.05l-.75-.15-.65.15-3.3 1.4-.05-.4 1.05-1.8q.35-.75.25-1.55l1.2-1.65q.5-.7.4-1.6L39.9 8q.8-1 .2-3.05l-.3-1.5.15-.15q.4-.4.4-.9l-.25-1-.6-.9Q39 0 38.3 0l-1.1.45-.35.35-2.5-.05Q32.8.75 32 1.7L31 3q-.3.4-.3.95-1.15.3-1.7 1.1L28 6.6l-.2.8q-1.05.45-1.5 1.3l-.9 1.75-.2.75q-.9.55-1.25 1.4l-.85 2-.1.65q-.8.6-1.1 1.5l-.7 2.3V20l-.5.05-.05-.6-.75-2.35q-.25-.8-1.05-1.4l-.1-.7-.85-1.95q-.3-.9-1.25-1.45l-.2-.7-.9-1.8q-.5-.9-1.5-1.25l-.2-.85-1-1.5q-.55-.85-1.7-1.15l-.3-.95-1-1.3q-.8-.95-2.35-.95L5 1.2 4.65.85Q4.2.4 3.5.4q-.65 0-1.15.5l-.6.9q-.6 1.1.2 1.9l.15.15-.3 1.5q-.6 2.1.2 3.1l1.4 1.5q-.1.85.4 1.55L5 13.2q-.1.8.25 1.5l1.05 1.8-.05.45-3.3-1.45-.65-.15-.75.2q-1 .5-1.55 2-.35 1.25.65 1.9 1.75 1.25 3.2 2.9 1.8 2.05 1.95 3.45l.3.55"/><path fill="#202020" d="M12.45 22.1 11.1 22q-.6.05-1.25.55l-.1.1 2 2 1.9-1-1.05-5.1-1.65 1.35-1.05 1.2.55-.1 1.8.25.35.6q.05.35-.15.25m19.75.1-1.35-.6-1.35.1q-.2.05-.1-.25l.3-.6q.4-.4 1.8-.25l.55.1-1.35-1.6-1.35-.95-1.05 5.1 1.9 1 2-2.05m4.05 7.45-1.65-2.2-1.65.65 2 2.55q.45.6-1.5 1.55-2 1-2.55.2L26.6 27q-2.75-2.75-5.95-3.05-3.5-.35-6.65 1.45-2.95 1.7-4.7 4.85-.55 1-2.65 1.5H5.7q-1-.35 1.65-3.4l-.9-1.45Q3.1 30.5 4 32.35q.7 1 2.1 1l.85-.05q2.8-.65 3.75-2.3 1.45-2.55 3.8-4.05 2.4-1.5 5.1-1.5l.9.05q2.45.25 4.75 2.4 1.3 1.25 3.65 4.5l.7.95q1.4 1.9 4.7.2l1.45-1 .6-.8q.55-1.1-.1-2.1"/><path fill="#513c32" d="m32.2 22.2-2 2.05.8 1.35 1.9-2.7-.7-.7m5.55-20 .55.55.45-.55-.4-.55-.6.55m-34.1.95.55-.5-.6-.6-.4.6.45.5M14.05 18l-1.45.55 1.05 5.1 2.2-.9-1.8-4.75m-4.3 4.65-.7.7 1.5 2.1 1.2-.8-2-2m18.55.6 1.05-5.1-1.45-.55-1.75 4.6 2.15 1.05"/><path fill="#7e7e7e" d="m30.2 24.25-1.9-1-2.15-1.05q-4.5-1.4-10.3.55l-2.2.9-1.9 1-1.2.8q-1.85 1.35-3.2 2.9-2.65 3.05-1.65 3.4h.95q2.1-.5 2.65-1.5 1.75-3.15 4.7-4.85 3.15-1.8 6.65-1.45 3.2.3 5.95 3.05l4.3 5.4q.55.8 2.55-.2 1.95-.95 1.5-1.55l-2-2.55L31 25.6l-.8-1.35"/><path fill="#4b874b" d="m4.2 2.65-.55.5q.25.9-.2 2.6Q3 7.1 3.3 7.45l.85 1.05-.1-.8.2-1.3 1.2 2.4q-.55 1.45-.25 1.85L6 11.9V11l.35-1.4.9 2.35Q6.5 13.4 6.75 14l.75 1.4.05-1 .6-1.45.55 2.3q-.95 1.55-.75 2.15l.45 2.25L2.35 17q-.55.25-.75 1.1l2.8 2.45q2.85 2.9 3.05 5.1l.75.85-.05-.7.15-1.15.75-1.3.8-.8q.65-.5 1.25-.55l1.35.1q.2.1.15-.25l-.35-.6-1.8-.25-.55.1 1.05-1.2 1.65-1.35 1.45-.55h2.35q.9.2 1.8.95l.95 1-.7-2.25q-.35-.95-2.35-1.45l-1.45-2.1q1 .2 1.7.7l.95.8-.8-2q-.35-.75-2.3-1.1l-1.7-2.05 1.65.45.9.65-.9-1.7q-.3-.6-2.1-.8L10.1 7.05l1.5.3.9.5-.95-1.45q-.35-.55-2-.55l-2.1-2 1.3.15.85.35-.95-1.2q-.4-.45-1.8-.35L4.2 2.65m34.1.1-.55-.55-2 .25-.65-.05q-1.45-.1-1.8.35l-.95 1.2.85-.4 1.3-.1-2.1 1.95q-1.6 0-2 .55l-.95 1.5.9-.55 1.5-.25-1.95 2q-1.8.2-2.1.85l-.9 1.7.9-.65q.75-.4 1.65-.5l-1.7 2.1q-1.95.35-2.25 1.1l-.85 2 .95-.85q.85-.55 1.7-.7l-1.45 2.1q-2.05.6-2.35 1.45l-.7 2.3.95-1q.8-.7 1.8-.95h2.35l1.45.55 1.35.95 1.35 1.6-.55-.1q-1.4-.15-1.8.25l-.3.6q-.1.3.1.25l1.35-.1 1.35.6.7.7.75 1.3.15 1.2-.05.7.75-.85q.1-1.4 1.25-3l1.8-2.1 2.8-2.45q-.2-.85-.75-1.1l-6.05 2.6.45-2.25q.2-.55-.75-2.1l.55-2.35.6 1.5.05 1 .75-1.45q.3-.5-.5-2l.9-2.35.35 1.35v.95l.8-1.25q.3-.45-.25-1.9L37.7 6l.2 1.25-.1.85.85-1.05q.3-.4-.15-1.7-.45-1.75-.2-2.6"/></g></svg>