<svg xmlns="http://www.w3.org/2000/svg" width="38.9" height="42"><g fill-rule="evenodd"><path d="m20.3.6 1.05.2 6.95 13.45 2.4-.9 8.2 14.05-11.6 7.8-2.9-2.55L20.1 42 0 32.3l9.2-20.7 2.55 2.45L16.1 0l1.45.2 1.9 8.4.85-8m.3 12.6 3.6 13.3 4.95 4.55 7.5-5.05L30 14.6l-2.55.9L21.6 4.1l-1 9.1m.65 21-4.6-31.05-4.05 13.2-2.8-2.65-7.55 16.9 17.05 8.25 1.95-4.65"/><path fill="#bcbec0" d="m21.25 34.2-1.95 4.65L2.25 30.6 9.8 13.7l2.8 2.65 4.05-13.2 4.6 31.05m-.65-21 1-9.1 5.85 11.4 2.55-.9L36.65 26l-7.5 5.05-4.95-4.55-3.6-13.3"/><path fill="#e8e8e8" d="M25.95 15.7q.3.2 1.35-.5L21.6 4.1l-1 9.1.45 1.6.3.3q1.05-.15 3.1-1.1.95.55 1.5 1.7m-9.7-1.4 1.95-.6-1.55-10.55-3.2 10.5.8-.15 2 .8"/><path fill="#ccc" d="m27.3 15.2 1.6-1.15-.6.2L21.35.8 20.3.6l-.85 8-1.9-8.4L16.1 0l-4.25 13.8 1.6-.15 3.2-10.5L18.2 13.7l.35-.1q1.45.35 2.5 1.2l-.45-1.6 1-9.1 5.7 11.1"/><path fill="#785f50" d="M27.3 15.2q-1.05.7-1.35.5-.55-1.15-1.5-1.7-2.05.95-3.1 1.1l-.3-.3 3.15 11.7 4.95 4.55 7.5-5.05L30 14.6l-2.55.9-.15-.3"/><path fill="#5f4b41" d="m28.9 14.05-1.6 1.15.15.3 2.55-.9L36.65 26l-7.5 5.05-4.95-4.55-3.15-11.7q-1.05-.85-2.5-1.2l-.35.1 3.05 20.5-1.95 4.65L2.25 30.6 9.8 13.7l2.8 2.65.85-2.7-1.6.15-.1.25L9.2 11.6 0 32.3 20.1 42l4.3-9.35 2.9 2.55 11.6-7.8-8.2-14.05-1.8.7"/><path fill="#785f50" d="m18.2 13.7-1.95.6-2-.8-.8.15-.85 2.7-2.8-2.65-7.55 16.9 17.05 8.25 1.95-4.65-3.05-20.5"/></g></svg>