<svg xmlns="http://www.w3.org/2000/svg" width="35.9" height="42"><g fill-rule="evenodd"><path d="M21.2 1.45q.85 3.7 2.6 7.1 1.05 2 3.2 5.25l2.9 4.95q1.2 2.75 1.2 5.6v5.35H31v1.45h2.45v4.2h2.4V42H0v-6.65h2.45v-4.2h2.4V27h.1v-2.65q0-2.85 1.25-5.6l2.85-4.95q2.2-3.25 3.2-5.25 1.75-3.4 2.6-7.1L15.2 0h5.65l.35 1.45m-1.85.45H16.7q-.95 3.9-2.75 7.45-1.05 2.15-3.3 5.5l-2.7 4.6q-1.1 2.4-1.1 4.9v3.45H8.8q1.2-3.15 2.6-4.95 1.95-2.7 4.45-3.55h4.35q2.5.85 4.45 3.55 1.4 1.8 2.6 4.95h1.95v-3.45q0-2.5-1.1-4.9l-2.7-4.6q-2.2-3.35-3.3-5.5-1.8-3.55-2.75-7.45M6.75 31.7H29.1v-2.8H6.75v2.8M1.9 40.1h32.05v-2.8H1.9v2.8m2.45-4.2H31.5v-2.8H4.35v2.8"/><path fill="#bcbec0" d="M4.35 35.9v-2.8H31.5v2.8H4.35M1.9 40.1v-2.8h32.05v2.8H1.9m4.85-8.4v-2.8H29.1v2.8H6.75m12.6-29.8q.95 3.9 2.75 7.45 1.1 2.15 3.3 5.5l2.7 4.6q1.1 2.4 1.1 4.9v3.45h-1.95q-1.2-3.15-2.6-4.95-1.95-2.7-4.45-3.55h-4.35q-2.5.85-4.45 3.55-1.4 1.8-2.6 4.95H6.85v-3.45q0-2.5 1.1-4.9l2.7-4.6q2.25-3.35 3.3-5.5 1.8-3.55 2.75-7.45h2.65"/><path fill="#c8c8c8" d="m28.15 19.45-6-10.1Q20.35 5.8 19.4 1.9h-2.65q-1.5 6.2-6.05 12.95L8 19.45q-1.1 2.4-1.1 4.9v3.45h1.95q3.95-10.4 11.4-8.5 4.4 1.5 7.05 8.5h1.95v-3.45q0-2.5-1.1-4.9"/><path fill="#735546" d="M29.15 31.7v-2.8H6.8v2.8h22.35m2.4 4.2v-2.8H4.4v2.8h27.15M34 40.1v-2.8H1.95v2.8H34"/><path fill="#2d2d2d" d="m6.9 27.8-.1 1.1h22.35l.1-1.1H27.3q-2.65-7-7.05-8.5-7.45-1.9-11.4 8.5H6.9"/><path fill="#2d2d2d" d="m15.25 0-.35 1.45q-1.3 5.7-5.8 12.35l-2.85 4.95Q5 21.5 5 24.35V27h-.1v4.15H2.5v4.2H.05V42H35.9v-6.65h-2.4v-4.2h-2.45V29.7h.1v-5.35q0-2.85-1.2-5.6l-6.1-10.2q-1.75-3.4-2.6-7.1L20.9 0h-5.65m16.3 33.1v2.8H4.4v-2.8h27.15M34 37.3v2.8H1.95v-2.8H34M6.8 28.9l.1-1.1v-3.45q0-2.5 1.1-4.9l2.7-4.6Q15.25 8.1 16.75 1.9h2.65q.95 3.9 2.75 7.45l6 10.1q1.1 2.4 1.1 4.9v3.45l-.1 1.1v2.8H6.8v-2.8"/></g></svg>