<svg xmlns="http://www.w3.org/2000/svg" width="31.1" height="42"><g fill-rule="evenodd"><path d="M19.1 0q8.2 0 10.65 4.25t.6 16.3q-1.05 6.65-2.85 13-.95 3.55-4.2 6Q20.1 42 16.4 42h-3.1q-3.65 0-6.8-2.55-3.1-2.55-3.85-6.15Q1.3 26.75.45 20.1-.65 11.3 0 7.35q.45-2.9 2.15-3.8 2.3-1.25 7.1-2.35Q14.6 0 19.1 0m5.2 13.7L9.75 28.6l-.25.15-.25-.1-1.8-1.45-.1-.3.1-.25q12.15-11.3 13.5-12.9l-5.5-5.65-5.6 5.55 5.05 4.55q.3.2.1.45-.15.35-1.15 1l-.4.25-.25.05-.25-.1-6.5-6.05-.1-.25.1-.25 8.95-8.55.25-.1.25.15 8.4 8.4q.3.2 0 .5M15.7 2.05Q7.35 2.9 3.05 5.2q-2.4 1.3-.7 14.65.85 6.7 2.15 13.1.6 2.95 3.2 5.05 2.55 2.1 5.6 2.1h3.1q3.05 0 5.75-2.1 2.7-2.05 3.5-4.95 1.5-5.4 2.6-11.6Q30.35 9.1 28.1 5.2q-2.35-4.1-12.4-3.15m2.55 19.35 6.15 5.5q.3.2.1.45l-1.8 1.6-.2.15-.25.05-.25-.1-5.5-6.15-.1-.3.15-.25 1.2-.95.25-.05.25.05"/><path fill="#bcbec0" d="m18.25 21.4-.25-.05-.25.05-1.2.95-.15.25.1.3 5.5 6.15.25.1.25-.05.2-.15 1.8-1.6q.2-.25-.1-.45l-6.15-5.5M15.7 2.05Q25.75 1.1 28.1 5.2q2.25 3.9.15 16.25-1.1 6.2-2.6 11.6-.8 2.9-3.5 4.95-2.7 2.1-5.75 2.1h-3.1q-3.05 0-5.6-2.1-2.6-2.1-3.2-5.05-1.3-6.4-2.15-13.1Q.65 6.5 3.05 5.2q4.3-2.3 12.65-3.15m8.6 11.65q.3-.3 0-.5l-8.4-8.4-.25-.15-.25.1-8.95 8.55-.1.25.1.25 6.5 6.05.25.1.25-.05.4-.25q1-.65 1.15-1 .2-.25-.1-.45l-5.05-4.55 5.6-5.55 5.5 5.65q-1.35 1.6-13.5 12.9l-.1.25.1.3 1.8 1.45.25.1.25-.15L24.3 13.7"/><path fill="#cdbe8c" d="M18.25 21.4h-.5l-1.35 1.2.1.3 5.5 6.15.5.05 2-1.75q.2-.25-.1-.45l-6.15-5.5"/><path fill="#465a46" d="M2.15 3.55q-1.7.9-2.15 3.8-.65 3.95.45 12.75.85 6.65 2.2 13.2.75 3.6 3.85 6.15Q9.65 42 13.3 42h3.1q3.7 0 6.9-2.45 3.25-2.45 4.2-6 1.8-6.35 2.85-13 1.85-12.05-.6-16.3T19.1 0q-4.5 0-9.85 1.2-4.8 1.1-7.1 2.35m13.55-1.5Q25.75 1.1 28.1 5.2q2.25 3.9.15 16.25-1.1 6.2-2.6 11.6-.8 2.9-3.5 4.95-2.7 2.1-5.75 2.1h-3.1q-3.05 0-5.6-2.1-2.6-2.1-3.2-5.05-1.3-6.4-2.15-13.1Q.65 6.5 3.05 5.2q4.3-2.3 12.65-3.15"/><path fill="#698269" d="M17.75 21.4h.5l6.15 5.5q.3.2.1.45l-2 1.75-.5-.05-5.5-6.15-.1-.3 1.35-1.2M28.1 5.2q-2.35-4.1-12.4-3.15Q7.35 2.9 3.05 5.2q-2.4 1.3-.7 14.65.85 6.7 2.15 13.1.6 2.95 3.2 5.05 2.55 2.1 5.6 2.1h3.1q3.05 0 5.75-2.1 2.7-2.05 3.5-4.95 1.5-5.4 2.6-11.6Q30.35 9.1 28.1 5.2m-3.8 8q.3.2 0 .5L9.5 28.75 7.45 27.2l-.1-.3.1-.25q12.15-11.3 13.5-12.9l-5.5-5.65-5.6 5.55 5.05 4.55q.3.2.1.45l-1.55 1.25-.5-.05-6.5-6.05-.1-.25.1-.25 9.2-8.65 8.65 8.55"/><path fill="#d7c8a5" d="M24.3 13.7q.3-.3 0-.5l-8.65-8.55-9.2 8.65-.1.25.1.25 6.5 6.05.5.05L15 18.65q.2-.25-.1-.45l-5.05-4.55 5.6-5.55 5.5 5.65q-1.35 1.6-13.5 12.9l-.1.25.1.3 2.05 1.55L24.3 13.7"/></g></svg>