<svg xmlns="http://www.w3.org/2000/svg" width="24.8" height="42"><g fill-rule="evenodd"><path d="m19.65 7.25 1.3.4v6.3h-1.7l1.4 20.75h4.1V42H0v-7.3h4.1l1.4-20.75H3.8v-6.3l1.3-.4V3.1L11.9 0h1l6.75 3.1v4.15m-1.9-1.95v-1l-5.3-2.4h-.15L7 4.3v1h1v4.8H6.35v-.55H5.7v2.5h1.85L5.9 36.65H1.95v3.45H22.8v-3.45h-3.95l-1.65-24.6h1.85v-2.5h-.65v.55h-1.65V5.3h1m-1.8 14.9v5H13.7v-5h2.25m-4.65-7.45v3.6H9.65v-3.6h1.65m.1 23.8H8.5v-6.4h2.9v6.4"/><path fill="#bcbec0" d="M11.4 36.55v-6.4H8.5v6.4h2.9m-.1-23.8H9.65v3.6h1.65v-3.6m4.65 7.45H13.7v5h2.25v-5m1.8-14.9h-1v4.8h1.65v-.55h.65v2.5H17.2l1.65 24.6h3.95v3.45H1.95v-3.45H5.9l1.65-24.6H5.7v-2.5h.65v.55H8V5.3H7v-1l5.3-2.4h.15l5.3 2.4v1"/><path fill="#e4dfa2" d="M11.35 12.75H9.7v3.6h1.65v-3.6M16 20.2h-2.25v5H16v-5m-4.55 9.95h-2.9v6.4h2.9v-6.4"/><path fill="#6e4d3b" d="m12.5 3.6 4.3 1.7h1v-1l-5.3-2.4-5.45 2.4v1h.5l4.95-1.7m-1.35 6.85v-.35H6.4v-.55h-.65v2.5H19.1v-2.5h-.65v.55H13.7v.35h-2.55m7.75 26.2H2v3.45h20.85v-3.45H18.9"/><path fill="#6e4d3b" d="M11.15 7.95v2.5h2.55v-2.5l-.55.05h-.7l-.65-.1-.65.05"/><path fill="#f7c122" d="m12.2 5.25-.2.6.15-.05.3.2.4-.2-.1-.4-.3-.2-.25.05"/><path fill="#eb9533" d="m13.15 6-.3-.2-.4.2-.2 1.25.25.6-.05.15h.7l.3-1-.3-1"/><path fill="#e2480c" d="m11.8 7.9.65.1.05-.15-.25-.6.2-1.25-.3-.2-.15.05-.25.25-.2 1.15.25.65"/><path fill="#4b4b4b" d="m5.15 7.25-1.3.4v6.3h1.7L4.15 34.7H.05V42H24.8v-7.3h-4.1l-1.4-20.75H21v-6.3l-1.3-.4V3.1L12.95 0h-1l-6.8 3.1v4.15M12.5 1.9l5.3 2.4v1h-1v4.8h1.65v-.55h.65v2.5h-1.85l1.65 24.6h3.95v3.45H2v-3.45h3.95l1.65-24.6H5.75v-2.5h.65v.55h1.65V5.3h-1v-1l5.45-2.4"/><path fill="#969696" d="M8.55 30.15h2.9v6.4h-2.9v-6.4m1.15-17.4h1.65v3.6H9.7v-3.6m4.05 7.45H16v5h-2.25v-5m-7.8 16.45H18.9l-1.65-24.6H7.6l-1.65 24.6M12 5.85l.2-.6.25-.05.3.2.1.4.3.2.3 1-.3 1 .55-.05v2.15h3.1V5.3l-4.3-1.7-4.95 1.7h.5v4.8h3.1V7.95l-.3-.6L11 6.3l.2-.35.25-.05.3.2.25-.25"/><path fill="#969696" d="m11.15 7.95.65-.05-.25-.65.2-1.15-.3-.2-.25.05-.2.35-.15 1.05.3.6"/></g></svg>