<svg xmlns="http://www.w3.org/2000/svg" width="42" height="38.4"><g fill-rule="evenodd"><path fill="#bcbec0" d="M22.05 7.05v.9q8.9 3.8 13.75 10.75 4.25 6.15 4.45 13.3l-1.3.5-.6-3.4q-1-4.05-2.9-7.5-2.85-5.25-8.4-8.6l-5-2.35v3.85l4 1.4q4.55 2.1 7 5.7 2.5 3.55 4 7.65L38 32.6l-13.05 3.2q-.3-5.1-3.95-9.75-3.65 4.65-3.95 9.75L4 32.6l1-3.35q1.45-4.1 3.95-7.65 2.45-3.6 7-5.7 2.25-1.05 4-1.4v-3.85Q17.75 11.3 15 13q-5.55 3.35-8.45 8.6-1.85 3.45-2.9 7.5L3 32.5 1.75 32q.2-7.2 4.45-13.3Q11 11.75 19.95 7.95v-.9L21 4.6l1.05 2.45m8.7 18.1-2.1-3.1-2.15 3.1h4.25m-19.55 0h4.3l-2.15-3.1-2.15 3.1"/><path d="M22.05 7.05 21 4.6l-1.05 2.45v.9Q11 11.75 6.2 18.7 1.95 24.8 1.75 32l1.25.5.65-3.4q1.05-4.05 2.9-7.5Q9.45 16.35 15 13q2.75-1.7 4.95-2.35v3.85q-1.75.35-4 1.4-4.55 2.1-7 5.7-2.5 3.55-3.95 7.65L4 32.6l13.05 3.2q.3-5.1 3.95-9.75 3.65 4.65 3.95 9.75L38 32.6l-.95-3.35q-1.5-4.1-4-7.65-2.45-3.6-7-5.7l-4-1.4v-3.85l5 2.35q5.55 3.35 8.4 8.6 1.9 3.45 2.9 7.5l.6 3.4 1.3-.5q-.2-7.15-4.45-13.3-4.85-6.95-13.75-10.75v-.9m1.6-.75q8.35 3.85 13.2 10.55t5.1 14.85l.05 1.6-20.9 5.1L0 33.3l.05-1.6Q.3 23.55 5.1 16.85T18.25 6.3l2.7-6.3 2.7 6.3M11.2 25.15l2.15-3.1 2.15 3.1h-4.3m19.55 0H26.5l2.15-3.1 2.1 3.1"/><path fill="#917364" d="M22.05 10.65h-2.1v3.85q-1.75.35-4 1.4Q8.5 19.35 5 29.25L4 32.6l13.05 3.2q.3-5.1 3.95-9.75 3.65 4.65 3.95 9.75L38 32.6l-.95-3.35q-3.65-9.95-11-13.35l-4-1.4v-3.85m-6.55 14.5h-4.3l2.15-3.1 2.15 3.1m15.25 0H26.5l2.15-3.1 2.1 3.1"/><path fill="#64825a" d="M19.95 10.65h2.1l5 2.35q8.6 5.2 11.3 16.1l.6 3.4 1.3-.5q-.2-7.15-4.45-13.3-4.85-6.95-13.75-10.75h-2.1Q11 11.75 6.2 18.7 1.95 24.8 1.75 32l1.25.5.65-3.4Q6.5 18.15 15 13q2.75-1.7 4.95-2.35"/><path fill="#917364" d="M19.95 7.05v.9h2.1v-.9L21 4.6l-1.05 2.45"/><path fill="#e6e1a5" d="M11.2 25.15h4.3l-2.15-3.1-2.15 3.1m15.3 0h4.25l-2.1-3.1-2.15 3.1"/><path fill="#373737" d="m20.95 0-2.7 6.3Q9.9 10.15 5.1 16.85T.05 31.7L0 33.3l21.1 5.1L42 33.3l-.05-1.6q-.25-8.15-5.1-14.85T23.65 6.3L20.95 0m1.1 7.95q8.9 3.8 13.75 10.75 4.25 6.15 4.45 13.3l-1.3.5-.6-3.4q-2.7-10.9-11.3-16.1l-5-2.35v3.85l4 1.4q7.35 3.4 11 13.35L38 32.6l-13.05 3.2q-.3-5.1-3.95-9.75-3.65 4.65-3.95 9.75L4 32.6l1-3.35q3.5-9.9 10.95-13.35 2.25-1.05 4-1.4v-3.85Q17.75 11.3 15 13 6.5 18.15 3.65 29.1L3 32.5 1.75 32q.2-7.2 4.45-13.3Q11 11.75 19.95 7.95v-.9L21 4.6l1.05 2.45v.9"/></g></svg>