<svg xmlns="http://www.w3.org/2000/svg" width="41.8" height="40.5"><g fill-rule="evenodd"><path d="M22.8 2.05q-.95.55-1.9.85l-1.3-.55-.6-.3q-2.1 1-3.65 2.55L13.4 7.85l-1 2.3.6.85q.55.95.45 1.6-.15 1.05-1.3 3.85 1.95 1.55 3.1 5.3.8 2.65 1.05 5.85.1.8-.6 2.6-.7 1.75-1.4 2.35-1.6 1.5-3.85.9-2.4-.65-3.95-3.4-1.55-2.6-2.05-6.7-.45-3.5-.05-6.85l.85-5q.4-1.95.2-2.15-.3-.3-1.2 1.45-1.05 2.05-1.75 5.15-.9 3.8-.55 8.2.35 5.05 2.25 8.75.95 2 2.45 3.4 1.4 1.35 3 1.85l3.25.1q1.5-.4 2.75-1.4 2.7-2.25 4.55-5.7l-1.35-14.3 1.35-2-1.35-2.35-4.7-.45L16.6 9.5h8.6l2.4 2.55-4.65.45-1.35 2.35 1.3 2-1.35 14.3 1.3 2q1.6 2.3 3.25 3.7 1.3 1 2.8 1.4l3.2-.1q3.45-1.05 5.5-5.25 1.9-3.7 2.3-8.75.3-4.4-.6-8.2-.7-3.1-1.75-5.15-.95-1.75-1.2-1.45-.2.2.2 2.15l.85 5q.4 3.35-.05 6.85-.5 4.1-2.05 6.7-1.55 2.75-3.95 3.4-2.25.6-3.85-.9-.7-.6-1.4-2.35-.75-1.75-.65-2.6.85-8.45 4.2-11.15-1.1-2.4-1.3-3.85-.1-.65.45-1.6l.6-.85q-1.7-4.25-3-5.55l-2.35-1.85-1.25-.7M22.7 0l.95.4 1.45.8 2.7 2.15q1.55 1.6 3.4 6.2l.45 1.1-.8.9-.6 1 1.75 4.6-1.15.95q-1.3 1-2.2 3.6t-1.25 6.15q0 .7 2.75 1.55 2.85.9 3.4-.2h.05v-.05q1.4-2.35 1.85-6 .4-3.25 0-6.3l-.8-4.7q-.35-1.75-.35-2.4 0-1.05.7-1.7.55-.55 1.4-.55 2.85 0 4.8 8.1.95 4.2.6 8.95-.4 5.4-2.45 9.35-2.5 4.95-6.65 6.2l-2.35.4q-3 0-5.5-2.05-1.25-1.05-3.95-1.05t-4 1.05q-2.45 2.05-5.45 2.05l-2.4-.4q-1.95-.6-3.7-2.2-1.75-1.65-2.9-3.95-2.05-4-2.45-9.4-.4-4.8.6-8.9.55-2.65 1.5-4.8Q3.65 7.5 5.4 7.5q.75 0 1.4.55.7.65.7 1.7 0 .65-.35 2.4l-.85 4.7q-.35 3.1.05 6.3.5 3.7 1.85 6v.05q.6 1.1 3.45.2 2.75-.85 2.75-1.5-.8-7.7-3.45-9.8l-1.2-.95.6-1.35q1.05-2.4 1.15-3.25l-.6-1-.75-.9.45-1.1q1.85-4.6 3.4-6.2 1.75-1.8 4.15-2.95l.95-.4 1.8.95L22.7 0"/><path fill="#bcbec0" d="m22.8 2.05 1.25.7L26.4 4.6q1.3 1.3 3 5.55l-.6.85q-.55.95-.45 1.6.2 1.45 1.3 3.85-3.35 2.7-4.2 11.15-.1.85.65 2.6.7 1.75 1.4 2.35 1.6 1.5 3.85.9 2.4-.65 3.95-3.4 1.55-2.6 2.05-6.7.45-3.5.05-6.85l-.85-5q-.4-1.95-.2-2.15.25-.3 1.2 1.45 1.05 2.05 1.75 5.15.9 3.8.6 8.2-.4 5.05-2.3 8.75-2.05 4.2-5.5 5.25l-3.2.1q-1.5-.4-2.8-1.4-1.65-1.4-3.25-3.7l-1.3-2 1.35-14.3-1.3-2 1.35-2.35 4.65-.45-2.4-2.55h-8.6l-2.45 2.55 4.7.45 1.35 2.35-1.35 2 1.35 14.3q-1.85 3.45-4.55 5.7-1.25 1-2.75 1.4l-3.25-.1q-1.6-.5-3-1.85-1.5-1.4-2.45-3.4-1.9-3.7-2.25-8.75-.35-4.4.55-8.2.7-3.1 1.75-5.15.9-1.75 1.2-1.45.2.2-.2 2.15l-.85 5q-.4 3.35.05 6.85.5 4.1 2.05 6.7 1.55 2.75 3.95 3.4 2.25.6 3.85-.9.7-.6 1.4-2.35.7-1.8.6-2.6-.25-3.2-1.05-5.85-1.15-3.75-3.1-5.3 1.15-2.8 1.3-3.85.1-.65-.45-1.6l-.6-.85 1-2.3 1.95-3.25Q16.9 3.05 19 2.05l.6.3 1.3.55q.95-.3 1.9-.85"/><path fill="#eeead6" d="M26.1 30.2q-.65-1.55-.65-2.4-.5 7.9-3.9 3.35l1.3 2q3 4.3 6.05 5.1 1.75.6 3.2-.1 3.45-1.05 5.5-5.25 1.9-3.7 2.3-8.75.3-4.4-.6-8.2-.7-3.1-1.75-5.15-.95-1.75-1.2-1.45-.2.2.2 2.15l.85 5q.4 3.35-.05 6.85-.5 4.1-2.05 6.7-1.55 2.75-3.95 3.4-3.55.95-5.25-3.25m-13.2 8.05q4.1-1.1 7.3-7.1-2.5 4.2-3.9-3.55.1.8-.6 2.6-1.7 4.2-5.25 3.25-2.4-.65-3.95-3.4-1.55-2.6-2.05-6.7-.45-3.5-.05-6.85l.85-5q.4-1.95.2-2.15-.3-.3-1.2 1.45-2.9 5.7-2.3 13.35.6 8.3 4.7 12.15 2.9 2.8 6.25 1.95"/><path fill="#6e5f41" d="m22.9 16.85-1.35 14.3q3.4 4.55 3.9-3.35v-.2q.85-8.45 4.2-11.15-1.1-2.4-1.3-3.85-.1-.65.45-1.6l.6-.85q-1.7-4.25-3-5.55l-2.35-1.85-1.25-.7-1.9.85-1.9-.85q-2.1 1-3.65 2.55L13.4 7.85l-1 2.3.6.85q.55.95.45 1.6-.15 1.05-1.3 3.85 3.5 2.8 4.15 11.15 1.4 7.75 3.9 3.55l-1.35-14.3 1.35-2-1.35-2.35-4.7-.45L16.6 9.5h8.6l2.4 2.55-4.65.45-1.35 2.35 1.3 2"/><path fill="#968264" d="m21.55 31.15 1.35-14.3-1.3-2 1.35-2.35 4.65-.45-2.4-2.55h-8.6l-2.45 2.55 4.7.45 1.35 2.35-1.35 2 1.35 14.3h1.35"/><path fill="#4b4b4b" d="M18.15.4Q15.75 1.55 14 3.35q-1.55 1.6-3.4 6.2l-.45 1.1 1.35 1.9q-.1.85-1.15 3.25l-.6 1.35 1.2.95q2.65 2.1 3.45 9.8 0 2.8-2.15 3.5-2.45.75-4.05-2.25-1.35-2.3-1.85-6-.4-3.2-.05-6.3l1.2-7.1q0-1.05-.7-1.7Q4.35 6 2.1 10.85 1.15 13 .6 15.65q-1 4.1-.6 8.9.65 8.95 5.35 13.35 1.75 1.6 3.7 2.2l2.4.4q3 0 5.45-2.05 2.15-1.7 3.9-2.1 2 .4 4.05 2.1 2.5 2.05 5.5 2.05l2.35-.4q4.15-1.25 6.65-6.2 2.05-3.95 2.45-9.35.35-4.75-.6-8.95-1.95-8.1-4.8-8.1-.85 0-1.4.55-.7.65-.7 1.7l1.15 7.1q.4 3.05 0 6.3-.45 3.65-1.9 6.05-1.65 3.2-4 2.5-2.15-.7-2.15-3.85.75-7.7 3.45-9.75l1.15-.95-1.75-4.6.6-1 .8-.9-.45-1.1q-1.85-4.6-3.4-6.2L25.1 1.2 22.7 0l-1.8.95L19.1 0l-.95.4m7.3 27.4q0 .85.65 2.4 1.7 4.2 5.25 3.25 2.4-.65 3.95-3.4 1.55-2.6 2.05-6.7.45-3.5.05-6.85l-.85-5q-.4-1.95-.2-2.15.25-.3 1.2 1.45 1.05 2.05 1.75 5.15.9 3.8.6 8.2-.4 5.05-2.3 8.75-2.05 4.2-5.5 5.25-1.45.7-3.2.1-3.05-.8-6.05-5.1l-1.3-2H20.2q-3.2 6-7.3 7.1-3.35.85-6.25-1.95-4.1-3.85-4.7-12.15-.6-7.65 2.3-13.35.9-1.75 1.2-1.45.2.2-.2 2.15l-.85 5q-.4 3.35.05 6.85.5 4.1 2.05 6.7 1.55 2.75 3.95 3.4 3.55.95 5.25-3.25.7-1.8.6-2.6-.65-8.35-4.15-11.15 1.15-2.8 1.3-3.85.1-.65-.45-1.6l-.6-.85 1-2.3 1.95-3.25Q16.9 3.05 19 2.05l1.9.85 1.9-.85 1.25.7L26.4 4.6q1.3 1.3 3 5.55l-.6.85q-.55.95-.45 1.6.2 1.45 1.3 3.85-3.35 2.7-4.2 11.15v.2"/></g></svg>