<svg xmlns="http://www.w3.org/2000/svg" width="27.2" height="42"><g fill-rule="evenodd"><path d="m18.3 7.8 2.75.6 2.2 1.95v.85l3.9-.6-.7 8.75.55 3.35-.05.25-.25 2.9V26l-.05.1-.5 2.45.9.7-.85 8.4L18.6 42h-5l-9.45-5.2.2-4.6-.5-3-.5-1.7v-.15L3.1 25.7 0 20.05l3.2-.45.35-2.25-.35-3.45q-.45-3.95-.3-5.75.1-1.25.55-1.8.25-.6.65-3.15L4.25 2 9.8 0l4.7 1.15.85 1.8 3.1 2.4-.15 2.45m3.65 6.45-.9-1.75v-1.25L19.9 10.2 18 9.85l-2.15 2.05.35-5.6-2.65-2.05-.65-1.4-3.2-.8-3.85 1.4q-.5 3.6-1 4.1-.3.3-.15 3.25l.65 6.6-.65 3.95-1.75.25 1.9 3.45.25 2.05.5 1.65.5 3.35-.1 3.55L13.9 40h3.95l6.3-3.6.6-6.25-1-.75.75-3.7.25-2.95-.5-3.3.5-6.5-1.65.25-1.15 1.05m-1.65 11.2v8.15h-6l.55-2.85q.75-3.1 1.6-4.3.9-1.2 2.45-1.2l1.4.2M9.05 12.55V9.2h1.65v3.35H9.05"/><path fill="#bcbec0" d="M9.05 12.55h1.65V9.2H9.05v3.35m11.25 12.9-1.4-.2q-1.55 0-2.45 1.2-.85 1.2-1.6 4.3l-.55 2.85h6v-8.15m1.65-11.2 1.15-1.05 1.65-.25-.5 6.5.5 3.3-.25 2.95-.75 3.7 1 .75-.6 6.25-6.3 3.6H13.9L6 35.65l.1-3.55-.5-3.35-.5-1.65-.25-2.05-1.9-3.45 1.75-.25.65-3.95-.65-6.6q-.15-2.95.15-3.25.5-.5 1-4.1l3.85-1.4 3.2.8.65 1.4L16.2 6.3l-.35 5.6L18 9.85l1.9.35 1.15 1.05v1.25l.9 1.75"/><path fill="#e4dfa2" d="M10.75 12.55V9.2H9.1v3.35h1.65"/><path fill="#4b4b4b" d="m4.3 2-.8 4.35q-.95 1.2-.25 7.55l.35 3.45-.35 2.25-3.2.45 3.1 5.65.25 1.8.5 1.7.5 3-.2 4.6 9.45 5.2h5l7.6-4.35.85-8.4-.9-.7.55-2.7.3-3.15-.55-3.35.7-8.75-3.9.6v-.85L21.1 8.4l-2.75-.6.15-2.45-3.1-2.4-.85-1.8L9.85 0 4.3 2m9.3 2.25 2.65 2.05-.35 5.6 2.15-2.05 1.9.35 1.15 1.05v1.25l.9 1.75 1.15-1.05 1.65-.25-.5 6.5.5 3.3-.25 2.95-.75 3.7 1 .75-.6 6.25-6.3 3.6h-3.95l-7.9-4.35.1-3.55-.5-3.35-.5-1.65-.25-2.05L3 21.6l1.75-.25.65-3.95-.65-6.6q-.15-2.95.15-3.25.5-.5 1-4.1l3.85-1.4 3.2.8.65 1.4"/><path fill="#969696" d="M16.5 26.45q.9-1.2 2.45-1.2l1.4.2v8.15h-6l.55-2.85q.75-3.1 1.6-4.3M10.75 9.2v3.35H9.1V9.2h1.65m5.5-2.9L13.6 4.25l-.65-1.4-3.2-.8-3.85 1.4q-.5 3.6-1 4.1-.3.3-.15 3.25l.65 6.6-.65 3.95L3 21.6l1.9 3.45.25 2.05.5 1.65.5 3.35-.1 3.55 7.9 4.35h3.95l6.3-3.6.6-6.25-1-.75.75-3.7.25-2.95-.5-3.3.5-6.5-1.65.25L22 14.25l-.9-1.75v-1.25l-1.15-1.05-1.9-.35-2.15 2.05.35-5.6"/><path fill="#6e4d3b" d="M18.95 25.25q-1.55 0-2.45 1.2-.85 1.2-1.6 4.3l-.55 2.85h6v-8.15l-1.4-.2"/></g></svg>