<svg xmlns="http://www.w3.org/2000/svg" width="29.2" height="42"><g fill-rule="evenodd"><path d="m24.25 9.6-5.5 5.5.25 7.2 3.95-.65L29.2 34.4 14.6 42 0 34.4l6.35-12.65 3.95.6.2-7.25L5 9.6 14.6 0l9.65 9.6M14.6 2.95 7.95 9.6l4.65 4.65V34l-3-1.55-1.4-9.8L2.8 33.5l11.8 6.15 11.85-6.15-5.35-10.9-1.4 9.8-3.05 1.6V14.25l4.6-4.65-6.65-6.65m0 9L12.25 9.6l2.35-2.35 2.35 2.35-2.35 2.35"/><path fill="#bcbec0" d="m14.6 11.95 2.35-2.35-2.35-2.35-2.35 2.35 2.35 2.35m0-9 6.65 6.65-4.6 4.65V34l3.05-1.6 1.4-9.8 5.35 10.9-11.85 6.15L2.8 33.5l5.4-10.85 1.4 9.8 3 1.55V14.25L7.95 9.6l6.65-6.65"/><path fill="#a0a0a0" d="M15.5 28.6q.3.3 1.15-.2V14.25l4.6-4.65-6.65-6.65L7.95 9.6l4.65 4.65V27.5q1.35.05 1.1.8.9.15 1.3-.6h.2q.9 0 .3.9m6.6-.3 1.45-.65-2.45-5.05-.8 5.5q2-2.05 1.8.2m-16.45-.6q.75.1 1.35.6.4-.1.6-.6.85-.45.85.5l.45-.15-.7-5.4-2.55 5.05M14.6 7.25l2.35 2.35-2.35 2.35-2.35-2.35 2.35-2.35"/><path fill="#4b5f8c" d="m23.55 27.65-1.45.65q.2-2.25-1.8-.2l-.6 4.3-3.05 1.6v-5.6q-.85.5-1.15.2.6-.9-.3-.9H15q-.4.75-1.3.6.25-.75-1.1-.8V34l-3-1.55-.7-4.4-.45.15q0-.95-.85-.5-.2.5-.6.6-.6-.5-1.35-.6L2.8 33.5l11.8 6.15 11.85-6.15-2.9-5.85"/><path fill="#373737" d="M14.6 0 5 9.6l5.5 5.5-.2 7.25-3.95-.6L0 34.4 14.6 42l14.6-7.6-6.25-12.75-3.95.65-.25-7.2 5.5-5.5L14.6 0M8.9 28.05l.7 4.4 3 1.55V14.25L7.95 9.6l6.65-6.65 6.65 6.65-4.6 4.65V34l3.05-1.6.6-4.3.8-5.5 2.45 5.05 2.9 5.85-11.85 6.15L2.8 33.5l2.85-5.8 2.55-5.05.7 5.4"/><path fill="#373737" d="M16.95 9.6 14.6 7.25 12.25 9.6l2.35 2.35 2.35-2.35"/></g></svg>