<svg xmlns="http://www.w3.org/2000/svg" width="28.3" height="40.4"><g fill-rule="evenodd"><path d="M14.25 0q1.75 0 3.2.95 1.4.95 2.1 2.55H28l-3.65 7.4h-1.7l2.2 22.1h3.45v7.4H0V33h3.55l2.2-22.1h-1.8L.3 3.5h8.65Q9.6 1.9 11 .95 12.45 0 14.25 0m0 1.85q-1.55 0-2.65 1t-1.25 2.5h-7.1l1.85 3.7h2.7l-2.6 25.8H1.85v3.7h24.6v-3.7H23.2l-2.6-25.8h2.6l1.85-3.7h-6.9q-.2-1.5-1.3-2.5t-2.6-1m.1 13.9q.55 1.75 1.8 4.65 1 2.8 1.05 6.25v8.2h-6v-8.2q.05-3.45 1.05-6.25l1.8-4.65h.3"/><path fill="#bcbec0" d="M14.35 15.75h-.3l-1.8 4.65q-1 2.8-1.05 6.25v8.2h6v-8.2q-.05-3.45-1.05-6.25-1.25-2.9-1.8-4.65m-.1-13.9q1.5 0 2.6 1t1.3 2.5h6.9l-1.85 3.7h-2.6l2.6 25.8h3.25v3.7H1.85v-3.7H5.2l2.6-25.8H5.1l-1.85-3.7h7.1q.15-1.5 1.25-2.5t2.65-1"/><path d="m-.4 5.95-.5.3v.3l.2.25.3.05.35-.15.15-.3-.15-.3-.35-.15" style="fill:#535050" transform="translate(14 21)"/><path d="m15.1 26.95-.5.3v.3l.2.25.3.05.5-.45-.15-.3-.35-.15"/><path fill="#966e82" d="M16.15 20.4q1 2.8 1.05 6.25v8.2h-6v-8.2q.05-3.45 1.05-6.25 1.3-2.9 1.8-4.65h.3l1.8 4.65m2-15.05q-.2-1.5-1.3-2.5t-2.6-1q-1.55 0-2.65 1t-1.25 2.5h-7.1l1.85 3.7h2.7l-2.6 25.8H1.85v3.7h24.6v-3.7H23.2l-2.6-25.8h2.6l1.85-3.7h-6.9"/><path fill="#6e5050" d="M3.95 10.9h1.8L3.55 33H0v7.4h28.3V33h-3.45l-2.2-22.1h1.7L28 3.5h-8.45Q18 0 14.25 0q-3.9 0-5.3 3.5H.3l3.65 7.4m12.9-8.05q1.1 1 1.3 2.5h6.9l-1.85 3.7h-2.6l2.6 25.8h3.25v3.7H1.85v-3.7H5.2l2.6-25.8H5.1l-1.85-3.7h7.1q.15-1.5 1.25-2.5t2.65-1q1.5 0 2.6 1"/><path fill="#785a5a" d="m14.6 27.25.5-.3.35.15.15.3-.5.45-.3-.05-.2-.25v-.3m-1.5 0 .5-.3.35.15.15.3-.15.3-.35.15-.3-.05-.2-.25v-.3m4.1-.6q-.05-3.45-1.05-6.25l-1.8-4.65h-.3q-.5 1.75-1.8 4.65-1 2.8-1.05 6.25v8.2h6v-8.2"/></g></svg>