<svg xmlns="http://www.w3.org/2000/svg" width="40" height="40"><path fill="#E6E1A0" d="M33.15 20.3h1.55v2.5h-1.55zm0-3.75h1.55v2.5h-1.55zm0-3.75h1.55v2.5h-1.55zm-4 3.75h1.55v2.5h-1.55zm0-3.75h1.55v2.5h-1.55z"/><path fill="#6E8C6E" d="M30.7 19.05v-2.5h-1.55v2.5h1.55zm0-3.75v-2.5h-1.55v2.5h1.55zm4 7.5v-2.5h-1.55v2.5h1.55zm0-3.75v-2.5h-1.55v2.5h1.55zm-8.6-8.2h11.95V25l-7 2.35c0-.03.02-.08.05-.15 0-.03.02-.08.05-.15v-.1c0-.07.02-.12.05-.15v-.3c0-.07.02-.12.05-.15v-.15c0-.27-.03-.55-.1-.85a4.34 4.34 0 0 0-.3-.8c-.1-.27-.25-.52-.45-.75-.17-.27-.37-.52-.6-.75-.2-.2-.43-.42-.7-.65l-.9-.6c-.3-.2-.63-.38-1-.55s-.73-.32-1.1-.45v-9.95zm8.6 4.45v-2.5h-1.55v2.5h1.55z"/><path fill="#E6E1A0" d="M26.1 27.9H13.9a.504.504 0 0 1-.05-.15.483.483 0 0 0-.1-.15c0-.07-.02-.12-.05-.15v-.15c-.03-.03-.05-.08-.05-.15 0-.03-.02-.08-.05-.15v-.25c0-.3.03-.6.1-.9s.17-.58.3-.85.28-.52.45-.75c.2-.27.42-.5.65-.7.23-.23.48-.43.75-.6.27-.2.57-.37.9-.5.3-.17.63-.3 1-.4.33-.1.68-.18 1.05-.25v-3.2h2.4v3.2c.37.07.72.15 1.05.25.37.1.7.23 1 .4.33.13.63.3.9.5.27.17.52.37.75.6A4.38 4.38 0 0 1 26 25a3.942 3.942 0 0 1 .4 1.75V27c-.03.07-.05.12-.05.15 0 .07-.02.12-.05.15v.15c-.03.07-.05.12-.05.15-.03.03-.07.08-.1.15 0 .03-.02.08-.05.15z"/><path fill="#6E8C6E" d="M26 25a4.38 4.38 0 0 0-1.1-1.45c-.23-.23-.48-.43-.75-.6-.27-.2-.57-.37-.9-.5-.3-.17-.63-.3-1-.4-.33-.1-.68-.18-1.05-.25v-3.2h-2.4v3.2c-.37.07-.72.15-1.05.25-.37.1-.7.23-1 .4-.33.13-.63.3-.9.5-.27.17-.52.37-.75.6A4.38 4.38 0 0 0 14 25a3.942 3.942 0 0 0-.4 1.75V27c.03.07.05.12.05.15 0 .07.02.12.05.15v.15c.03.03.05.08.05.15.03.03.07.08.1.15 0 .03.02.08.05.15h12.2c.03-.07.05-.12.05-.15.03-.07.07-.12.1-.15 0-.03.02-.08.05-.15v-.15c.03-.03.05-.08.05-.15 0-.03.02-.08.05-.15v-.25c0-.3-.03-.6-.1-.9s-.17-.58-.3-.85zm-.65-2.9c.37.13.7.27 1 .4.3.17.6.33.9.5.27.17.5.35.7.55.23.2.45.4.65.6.17.2.32.42.45.65.1.23.18.47.25.7s.1.47.1.7-.03.48-.1.75c-.07.23-.17.47-.3.7s-.3.45-.5.65c-.17.23-.38.45-.65.65-.23.2-.5.38-.8.55-.27.17-.57.33-.9.5-.33.13-.68.27-1.05.4-.4.13-.8.25-1.2.35l.05-.05L20 32.05l-3.95-1.3h.05c-.4-.1-.78-.22-1.15-.35-.4-.13-.77-.27-1.1-.4-.33-.17-.63-.33-.9-.5-.3-.17-.57-.35-.8-.55-.27-.2-.48-.42-.65-.65-.2-.2-.37-.42-.5-.65s-.23-.47-.3-.7c-.07-.27-.1-.52-.1-.75s.03-.47.1-.7.15-.47.25-.7c.13-.23.28-.45.45-.65l.6-.6c.23-.2.48-.38.75-.55s.57-.33.9-.5c.3-.13.63-.27 1-.4.33-.13.7-.25 1.1-.35h-.1V9.9L20 8l4.3 1.9v11.85h-.04c.37.1.72.22 1.09.35z"/><path fill="#E6E1A0" d="M9.05 16.55h1.55v2.5H9.05zm0-3.75h1.55v2.5H9.05zM5.1 20.3h1.5v2.5H5.1zm0-3.75h1.5v2.5H5.1zm0-3.75h1.5v2.5H5.1z"/><path fill="#6E8C6E" d="M10.6 19.05v-2.5H9.05v2.5h1.55zm0-3.75v-2.5H9.05v2.5h1.55zm-4 7.5v-2.5H5.1v2.5h1.5zm0-3.75v-2.5H5.1v2.5h1.5zm0-3.75v-2.5H5.1v2.5h1.5zm2.35 12.05-7-2.35V10.85H13.9v9.95c-.4.13-.77.28-1.1.45-.37.17-.7.35-1 .55-.33.2-.63.4-.9.6-.27.23-.5.47-.7.7-.23.23-.43.47-.6.7-.2.23-.35.48-.45.75-.13.27-.23.53-.3.8-.07.3-.1.58-.1.85v.3c.03.03.05.08.05.15v.15c.03.03.05.08.05.15 0 .03.02.08.05.15v.1c.03.07.05.12.05.15z"/><path fill="#414141" d="M1.95 10.85V25l7 2.35c0-.03-.02-.08-.05-.15v-.1a.504.504 0 0 1-.05-.15c0-.07-.02-.12-.05-.15v-.15c0-.07-.02-.12-.05-.15v-.3c0-.27.03-.55.1-.85.07-.27.17-.53.3-.8.1-.27.25-.52.45-.75.17-.23.37-.47.6-.7.2-.23.43-.47.7-.7.27-.2.57-.4.9-.6.3-.2.63-.38 1-.55.33-.17.7-.32 1.1-.45v-9.95H1.95zM28.2 21.8l.9.6c.27.23.5.45.7.65.23.23.43.48.6.75.2.23.35.48.45.75.13.27.23.53.3.8.07.3.1.58.1.85v.15c-.03.03-.05.08-.05.15v.3c-.03.03-.05.08-.05.15v.1c-.03.07-.05.12-.05.15-.03.07-.05.12-.05.15l7-2.35V10.85H26.1v9.95c.37.13.73.28 1.1.45s.7.35 1 .55zM40 26.45l-20 7.6-20-7.6V8.85h13.9V8.5L20 5.95l6.1 2.55v.35H40v17.6zM26.35 22.5c-.3-.13-.63-.27-1-.4s-.72-.25-1.09-.35h.04V9.9L20 8l-4.35 1.9v11.85h.1c-.4.1-.77.22-1.1.35-.37.13-.7.27-1 .4-.33.17-.63.33-.9.5s-.52.35-.75.55l-.6.6c-.17.2-.32.42-.45.65-.1.23-.18.47-.25.7s-.1.47-.1.7.03.48.1.75c.07.23.17.47.3.7s.3.45.5.65c.17.23.38.45.65.65.23.2.5.38.8.55.27.17.57.33.9.5.33.13.7.27 1.1.4.37.13.75.25 1.15.35h-.05l3.95 1.3 3.95-1.35-.05.05c.4-.1.8-.22 1.2-.35.37-.13.72-.27 1.05-.4.33-.17.63-.33.9-.5.3-.17.57-.35.8-.55.27-.2.48-.42.65-.65.2-.2.37-.42.5-.65s.23-.47.3-.7c.07-.27.1-.52.1-.75s-.03-.47-.1-.7-.15-.47-.25-.7c-.13-.23-.28-.45-.45-.65-.2-.2-.42-.4-.65-.6-.2-.2-.43-.38-.7-.55-.3-.17-.6-.33-.9-.5z"/></svg>