<svg xmlns="http://www.w3.org/2000/svg" width="40" height="40"><path fill="#968250" d="M40 12.95v15.4L20 38.7 0 28.35V8h8.55v4.95H14v-8.7h1.8V.6h8.45v3.65h1.8v8.7h5.35V8h8.55v4.95H40zM37.65 27V10.3h-3.9v5.05h-10V6.4h-1.8V2.9h-3.9v3.5h-1.8v8.95h-10V10.3h-3.9V27L20 35.7 37.65 27z"/><path fill="#DCB464" d="M37.65 10.3V27L20 35.7 2.35 27V10.3h3.9v5.05h10V6.4h1.8V2.9h3.9v3.5h1.8v8.95h10V10.3h3.9zm-4 10.9v-3c0-.1-.02-.18-.05-.25 0-.1-.02-.18-.05-.25a.579.579 0 0 0-.15-.25c-.03-.07-.08-.13-.15-.2s-.13-.12-.2-.15a.654.654 0 0 0-.2-.15.915.915 0 0 0-.25-.05c-.1-.03-.2-.05-.3-.05s-.18.02-.25.05c-.1 0-.18.02-.25.05s-.15.08-.25.15c-.07.03-.12.08-.15.15l-.2.2c-.03.07-.07.15-.1.25-.03.07-.07.13-.1.2v3.3h2.65zm-3.65 0v-3c0-.1-.02-.18-.05-.25 0-.1-.02-.18-.05-.25a.579.579 0 0 0-.15-.25c-.03-.07-.08-.13-.15-.2s-.13-.12-.2-.15a.654.654 0 0 0-.2-.15.915.915 0 0 0-.25-.05.915.915 0 0 0-.25-.05c-.1 0-.18.02-.25.05-.1 0-.2.02-.3.05-.07.03-.13.08-.2.15-.07.03-.13.08-.2.15s-.12.13-.15.2c-.07.07-.12.15-.15.25-.03.07-.05.13-.05.2-.03.1-.05.2-.05.3v3H30zm-3.6 0v-3c0-.1-.02-.18-.05-.25 0-.1-.02-.18-.05-.25a.579.579 0 0 0-.15-.25c-.03-.07-.08-.13-.15-.2s-.13-.12-.2-.15a.579.579 0 0 0-.25-.15.618.618 0 0 0-.25-.05c-.07-.03-.15-.05-.25-.05s-.18.02-.25.05c-.1 0-.18.02-.25.05-.1.03-.18.08-.25.15-.07.03-.13.08-.2.15-.03.07-.08.13-.15.2-.03.07-.07.15-.1.25-.03.07-.07.13-.1.2v3.3h2.65zm-5 8.5v-4.15h-2.8v4.15h2.8zm-5.15-8.5v-3.25c-.03-.1-.07-.18-.1-.25-.03-.1-.07-.18-.1-.25a.654.654 0 0 1-.15-.2.654.654 0 0 0-.2-.15.579.579 0 0 0-.25-.15.618.618 0 0 0-.25-.05c-.07-.03-.15-.05-.25-.05s-.18.02-.25.05c-.1 0-.18.02-.25.05-.1.03-.18.08-.25.15-.07.03-.13.08-.2.15s-.12.13-.15.2-.07.15-.1.25c-.03.07-.07.13-.1.2-.03.1-.05.2-.05.3v3h2.65zm-3.6 0v-3c0-.1-.02-.18-.05-.25 0-.1-.02-.18-.05-.25a.579.579 0 0 0-.15-.25c-.03-.07-.08-.13-.15-.2s-.13-.12-.2-.15a.579.579 0 0 0-.25-.15.492.492 0 0 0-.2-.05c-.1-.03-.2-.05-.3-.05s-.18.02-.25.05c-.1 0-.18.02-.25.05-.1.03-.18.08-.25.15-.07.03-.13.08-.2.15-.03.07-.08.13-.15.2-.03.07-.07.15-.1.25-.03.07-.07.13-.1.2v3.3h2.65zM9 21.2v-3.25c-.03-.1-.07-.18-.1-.25-.03-.1-.07-.18-.1-.25l-.2-.2c-.03-.07-.1-.12-.2-.15-.07-.07-.13-.12-.2-.15s-.15-.05-.25-.05a.915.915 0 0 0-.25-.05c-.1 0-.18.02-.25.05-.1 0-.18.02-.25.05-.1.03-.18.08-.25.15-.07.03-.13.08-.2.15s-.12.13-.15.2c-.07.07-.12.15-.15.25-.03.07-.05.13-.05.2-.03.1-.05.2-.05.3v3H9z"/><path fill="#E6E1A0" d="M33.65 18.2v3H31v-3.3c.03-.07.07-.13.1-.2.03-.1.07-.18.1-.25l.2-.2c.03-.07.08-.12.15-.15.1-.07.18-.12.25-.15s.15-.05.25-.05c.07-.03.15-.05.25-.05s.2.02.3.05c.07 0 .15.02.25.05.07.03.13.08.2.15.07.03.13.08.2.15s.12.13.15.2c.07.07.12.15.15.25.03.07.05.15.05.25.03.07.05.15.05.25zm-3.65 0v3h-2.65v-3c0-.1.02-.2.05-.3 0-.07.02-.13.05-.2.03-.1.08-.18.15-.25.03-.07.08-.13.15-.2s.13-.12.2-.15c.07-.07.13-.12.2-.15.1-.03.2-.05.3-.05.07-.03.15-.05.25-.05.07 0 .15.02.25.05.07 0 .15.02.25.05.07.03.13.08.2.15.07.03.13.08.2.15s.12.13.15.2c.07.07.12.15.15.25.03.07.05.15.05.25.03.07.05.15.05.25zm-3.6 0v3h-2.65v-3.3c.03-.07.07-.13.1-.2.03-.1.07-.18.1-.25.07-.07.12-.13.15-.2.07-.07.13-.12.2-.15.07-.07.15-.12.25-.15.07-.03.15-.05.25-.05.07-.03.15-.05.25-.05s.18.02.25.05c.1 0 .18.02.25.05.1.03.18.08.25.15.07.03.13.08.2.15s.12.13.15.2c.07.07.12.15.15.25.03.07.05.15.05.25.03.07.05.15.05.25zm-7.8 7.35h2.8v4.15h-2.8zm-2.35-7.35v3H13.6v-3c0-.1.02-.2.05-.3.03-.07.07-.13.1-.2.03-.1.07-.18.1-.25s.08-.13.15-.2.13-.12.2-.15c.07-.07.15-.12.25-.15.07-.03.15-.05.25-.05.07-.03.15-.05.25-.05s.18.02.25.05c.1 0 .18.02.25.05.1.03.18.08.25.15.07.03.13.08.2.15.03.07.08.13.15.2.03.07.07.15.1.25.03.07.07.15.1.25v.25zm-3.6 0v3H10v-3.3c.03-.07.07-.13.1-.2.03-.1.07-.18.1-.25.07-.07.12-.13.15-.2.07-.07.13-.12.2-.15.07-.07.15-.12.25-.15.07-.03.15-.05.25-.05.07-.03.15-.05.25-.05s.2.02.3.05c.07 0 .13.02.2.05.1.03.18.08.25.15.07.03.13.08.2.15s.12.13.15.2c.07.07.12.15.15.25.03.07.05.15.05.25.03.07.05.15.05.25zM9 18.2v3H6.35v-3c0-.1.02-.2.05-.3 0-.07.02-.13.05-.2.03-.1.08-.18.15-.25.03-.07.08-.13.15-.2s.13-.12.2-.15c.07-.07.15-.12.25-.15.07-.03.15-.05.25-.05.07-.03.15-.05.25-.05.07 0 .15.02.25.05.1 0 .18.02.25.05s.13.08.2.15c.1.03.17.08.2.15l.2.2c.03.07.07.15.1.25.03.07.07.15.1.25v.25z"/></svg>