<svg xmlns="http://www.w3.org/2000/svg" width="40" height="40"><path fill="#5A4641" d="M17.998 10.861c.033-.133.067-.25.1-.35.067-.1.15-.2.25-.3.067-.1.15-.2.25-.3s.2-.183.3-.25c.133-.067.25-.117.35-.15a.883.883 0 0 1 .4-.1 2.35 2.35 0 0 1 .45-.05h.3c.067.033.15.05.25.05l.3.1.2.1c.1.033.183.083.25.15a.768.768 0 0 1 .2.15l.2.2a.768.768 0 0 1 .15.2c.1 0 .2.017.3.05.1 0 .2.017.3.05l.3.1c.067.033.15.067.25.1.067.033.15.083.25.15a.768.768 0 0 1 .2.15c.067.033.133.083.2.15s.117.133.15.2h2.5l-6.25-9.4-6.3 9.4h4.05l.1-.4z"/><path fill="#6E5050" d="M15.771 25.682c.081.029.164.052.247.073.087.022.176.037.264.054.086.017.172.033.253.068.021.009.041.021.061.03h.001a.07.07 0 0 1 .013.005l-.009-.005a.061.061 0 0 1-.014-.007l.037.017a.02.02 0 0 0 .006.004l-.007-.003-.013-.006.035.019c.055.027.11.052.163.081.076.042.152.081.224.128a1.824 1.824 0 0 1 .147.105l.002.001.017.008v-.043l-.3-1.05 2.15-4.05v.35c.033.1.067.183.1.25l.1.2c.033.067.083.117.15.15s.117.067.15.1c.067.033.133.05.2.05.067.033.117.05.15.05h.4c.067 0 .117-.017.15-.05a.57.57 0 0 0 .35-.15.768.768 0 0 0 .15-.2.54.54 0 0 0 .1-.2.562.562 0 0 0 .05-.25c.033-.1.05-.2.05-.3l2.15 4.05-.35 1.05.047.047c.019-.008.037-.018.056-.025a.249.249 0 0 1 .029-.011l.029-.004c.021-.002.043-.004.063-.009l.033-.011.015-.006.007-.003c.038-.02.075-.043.113-.062l.048-.023-.002.001.057-.031c.072-.042.14-.091.209-.137.033-.023.068-.044.102-.067l.097-.067c.043-.03.091-.049.137-.073a.538.538 0 0 1 .04-.025l-.009.002-.017.007a.356.356 0 0 1 .055-.025l-.027.014-.002.001.015-.005c.021-.01.039-.024.06-.032.039-.015.08-.025.119-.037.042-.013.084-.026.126-.041.083-.028.166-.058.247-.093.084-.035.166-.073.25-.109l.124-.052.062-.026.011-.005c.073-.038.141-.085.21-.128.011-.007.023-.011.034-.016l-1.238-.199-.85-1.9c-.167-.433-.3-.85-.4-1.25s-.167-.767-.2-1.1c-.033-.367-.033-.7 0-1s.1-.583.2-.85.233-.5.4-.7c.167-.233.367-.433.6-.6s.5-.317.8-.45.633-.233 1-.3h8.4l3.15-4.65-12.85.05-.45 1.1c-.067.133-.15.25-.25.35-.067.1-.15.183-.25.25s-.183.133-.25.2c-.1.033-.2.05-.3.05s-.2-.017-.3-.05c-.1 0-.2-.033-.3-.1l-.3-.2-.3-.3c0-.3.017-.6.05-.9a.321.321 0 0 1 .15-.15.768.768 0 0 1 .2-.15l.2-.1a1.96 1.96 0 0 1 .25-.1l.2-.1.2-.1c.1-.033.183-.067.25-.1.1 0 .183-.017.25-.05a1.96 1.96 0 0 1-.25-.1 1.96 1.96 0 0 1-.25-.1 1.96 1.96 0 0 1-.25-.1c-.1-.033-.183-.067-.25-.1s-.15-.05-.25-.05a.448.448 0 0 0-.2-.05.831.831 0 0 0-.25-.05h-.2a.54.54 0 0 0-.1-.2.54.54 0 0 0-.1-.2l-.1-.2a.321.321 0 0 0-.15-.15.321.321 0 0 0-.15-.15l-.2-.1a1.96 1.96 0 0 0-.25-.1h-.6l-.3.1-.2.1a.321.321 0 0 0-.15.15l-.15.15-.1.2-.1.2-.1.2c-.033.1-.05.2-.05.3-.033.1-.05.2-.05.3a1.66 1.66 0 0 0-.05.4v.75c0 .1.017.2.05.3v.25l-.3.3c-.133.067-.25.133-.35.2s-.2.1-.3.1a.831.831 0 0 1-.25.05c-.1 0-.2-.017-.3-.05a1.655 1.655 0 0 1-.25-.2.902.902 0 0 1-.25-.25c-.1-.1-.183-.217-.25-.35l-.5-1.1-12.7-.05 3.15 4.65h8.3c.333.133.65.267.95.4.267.167.517.333.75.5s.45.367.65.6c.167.2.3.433.4.7.1.233.183.5.25.8.033.3.033.617 0 .95s-.1.7-.2 1.1c-.1.367-.233.767-.4 1.2l-.85 1.9-1.244.199.023.011c.003.002.01.004.013.007.015.013.025.03.038.044.05.053.121.08.183.116l.11.068c.037.023.076.044.114.066.074.043.145.09.219.133l.02.011c.022.011.045.024.068.034l.079.032z"/><path fill="#4B874B" d="M36.248 25.261c-.033-.2-.083-.4-.15-.6l-.2-.6c-.1-.2-.217-.383-.35-.55a3.574 3.574 0 0 0-.45-.55c-.167-.2-.35-.383-.55-.55s-.417-.333-.65-.5a3.663 3.663 0 0 0-.15-.65l-.2-.6a10.11 10.11 0 0 0-.2-.55c-.1-.2-.2-.383-.3-.55s-.217-.333-.35-.5l-.45-.45a7.669 7.669 0 0 0-.5-.45l-.6-.4c.067.1.133.25.2.45.067.167.117.3.15.4.067.167.117.3.15.4.033.167.067.317.1.45l.1.4c.033.133.05.267.05.4s-.017.283-.05.45l-.1.4c-.2-.267-.383-.517-.55-.75s-.333-.45-.5-.65c-.2-.2-.383-.367-.55-.5-.167-.167-.35-.317-.55-.45s-.417-.233-.65-.3a3.245 3.245 0 0 0-1.45-.15c-.267.033-.567.083-.9.15.233.1.45.183.65.25l.5.25c.167.1.317.2.45.3.133.067.25.15.35.25.133.1.233.217.3.35.1.1.167.217.2.35.067.1.133.233.2.4.033.133.067.283.1.45a9.56 9.56 0 0 1-.7-.2c-.233-.033-.45-.067-.65-.1a4.662 4.662 0 0 0-.65-.05 4 4 0 0 0-.65.05l-.7.1a9.56 9.56 0 0 1-.7.2c-.233.067-.483.133-.75.2-.233.1-.5.2-.8.3l1 .1c.3.067.583.117.85.15.3.067.567.133.8.2.267.1.5.183.7.25.233.1.433.2.6.3.2.1.367.2.5.3.167.1.3.217.4.35.122.122.208.243.274.365.008.003.016.005.022.011.008.007.015.016.022.024.02.024.041.047.06.072.022.03.037.066.048.101.01.029.017.059.025.089l.033.13.079.321c.054.212.116.423.209.621-.002-.004-.007-.008-.01-.011l-.011-.013c.032.098.049.21.049.34 0 .133-.017.267-.05.4 0 .133-.017.283-.05.45a1.916 1.916 0 0 1-.15.4 3.476 3.476 0 0 1-.15.45c-.067.133-.15.283-.25.45-.067.167-.15.317-.25.45-.1.167-.217.333-.35.5h.4c.167 0 .317-.017.45-.05l.4-.1.4-.2.4-.3c.167-.133.317-.283.45-.45s.267-.35.4-.55.267-.433.4-.7c.133.067.267.15.4.25.1.1.2.233.3.4.067.133.133.283.2.45s.133.35.2.55c.033.2.067.417.1.65.033.2.067.417.1.65s.05.483.05.75c.033.233.05.483.05.75.2-.167.35-.367.45-.6.133-.2.25-.417.35-.65.067-.233.133-.483.2-.75.033-.233.067-.483.1-.75 0-.267-.017-.55-.05-.85 0-.267-.033-.55-.1-.85a9.152 9.152 0 0 0-.4-1.75 2.35 2.35 0 0 1 .45-.05c.167 0 .317.017.45.05l.4.2c.133.067.25.15.35.25.133.1.25.217.35.35s.2.283.3.45c.1.133.217.283.35.45.1.167.2.35.3.55v-.6c-.034-.233-.067-.45-.1-.65zm-25.45 2.95.4.1c.133.033.283.05.45.05h.4c-.133-.167-.25-.333-.35-.5s-.2-.317-.3-.45a5.843 5.843 0 0 0-.2-.45 5.843 5.843 0 0 0-.2-.45l-.1-.4a9.577 9.577 0 0 0-.1-.45v-.744l-.008.009-.015.017.003-.003c.032-.04.049-.09.064-.139s.029-.099.051-.146c.02-.041.045-.079.07-.117a.438.438 0 0 0 .065-.125c.014-.05.02-.103.026-.154.006-.05.014-.099.023-.149.015-.08.027-.16.046-.238a.536.536 0 0 1 .095-.217l.035-.042-.005-.002c.067-.133.167-.267.3-.4.1-.133.233-.25.4-.35l.5-.3.6-.3.7-.2c.267-.1.533-.167.8-.2l.9-.2c.3-.033.617-.067.95-.1a6.329 6.329 0 0 0-.8-.3c-.267-.1-.517-.183-.75-.25s-.467-.117-.7-.15-.45-.067-.65-.1a4.662 4.662 0 0 0-.65-.05 4 4 0 0 0-.65.05c-.2 0-.417.033-.65.1l-.7.2c.033-.167.067-.317.1-.45s.083-.267.15-.4.15-.25.25-.35c.067-.133.15-.25.25-.35s.217-.183.35-.25c.133-.1.283-.2.45-.3.167-.067.35-.15.55-.25.167-.067.367-.15.6-.25-.3-.1-.6-.15-.9-.15-.267-.033-.517-.033-.75 0s-.467.083-.7.15c-.2.067-.4.167-.6.3l-.6.4c-.167.167-.333.35-.5.55s-.35.417-.55.65l-.5.75a.883.883 0 0 1-.1-.4 1.872 1.872 0 0 1 0-.85c0-.133.017-.267.05-.4s.083-.283.15-.45c.033-.1.067-.233.1-.4.067-.1.133-.233.2-.4l.15-.45-.6.4a5.97 5.97 0 0 1-.5.45 5.348 5.348 0 0 1-.4.45c-.133.167-.25.333-.35.5s-.2.35-.3.55c-.1.167-.183.35-.25.55s-.117.4-.15.6c-.067.2-.117.417-.15.65-.267.167-.5.333-.7.5s-.383.35-.55.55a7.94 7.94 0 0 0-.4.55c-.133.167-.25.35-.35.55s-.183.4-.25.6-.117.4-.15.6l-.1.6v.65c.133-.2.25-.367.35-.5.1-.2.2-.367.3-.5.1-.167.217-.317.35-.45.1-.133.2-.25.3-.35.133-.1.267-.183.4-.25s.267-.117.4-.15a.883.883 0 0 1 .4-.1c.015 0 .03.004.045.005h.107v.011c.116.007.232.012.348.035-.1.3-.183.583-.25.85l-.2.9c-.033.3-.067.583-.1.85v.85c0 .267.033.517.1.75.033.267.083.517.15.75.1.233.217.45.35.65.133.233.283.433.45.6a6.14 6.14 0 0 0 .05-.75 6.14 6.14 0 0 0 .05-.75c.033-.233.067-.45.1-.65.033-.233.083-.45.15-.65.033-.2.083-.383.15-.55s.15-.317.25-.45a.913.913 0 0 1 .3-.4c.1-.1.217-.183.35-.25.133.267.267.517.4.75.133.2.283.383.45.55l.4.4.4.3c.133.066.283.132.45.199z"/><path fill="#5A4641" d="M29.198 36.761c-.3-.467-.6-.917-.9-1.35s-.617-.867-.95-1.3l-1-1.2-1.1-1.1-1.2-1.1c-.4-.333-.817-.667-1.25-1l-1.4-1 .4-.2c.133-.1.267-.183.4-.25l.4-.2.4-.2c.133-.1.267-.183.4-.25.167-.067.317-.133.45-.2l.4-.2c.167-.067.317-.133.45-.2v-.05c.267-.133.7-.333 1.3-.6a71.424 71.424 0 0 1 3.345-1.448l-.006-.006-.022-.027c-.003-.003-.008-.008-.01-.012a2.756 2.756 0 0 1-.127-.331c-.063-.201-.109-.407-.16-.611-.011-.042-.023-.084-.033-.127-.007-.028-.014-.057-.023-.085a.43.43 0 0 0-.027-.062c-.005-.003-.01-.007-.016-.007-.003 0-.008-.009-.01-.011a.313.313 0 0 0-.017-.021c-.132.066-.28.132-.444.198l-.5.2a5.843 5.843 0 0 1-.45.2 5.843 5.843 0 0 1-.45.2 1.75 1.75 0 0 1-.45.15 5.843 5.843 0 0 1-.45.2l-.4.2a5.866 5.866 0 0 0-.444.197l-.014.009c-.036.024-.073.047-.11.069s-.076.04-.114.058l.012-.006-.034.016-.018.01c-.086.039-.173.074-.26.111l-.25.109a3.588 3.588 0 0 1-.372.134l-.1.031c-.019.009-.037.02-.056.03l-.007.004c-.033.022-.065.046-.098.069s-.067.044-.101.066a6.315 6.315 0 0 0-.104.07 1.867 1.867 0 0 1-.254.15l-.002.001a.892.892 0 0 0-.06.033c-.04.022-.082.042-.124.062l.026-.012a.41.41 0 0 1-.04.019l-.017.008c-.004.002-.016.005-.019.009l-.006.003-.04.018a.402.402 0 0 1-.058.021c-.021.006-.042.008-.063.01-.01.001-.021.002-.03.005l-.393.196c-.133.067-.25.133-.35.2l-.4.2c-.1.067-.217.133-.35.2s-.25.133-.35.2c-.133.067-.25.15-.35.25-.133.067-.25.133-.35.2-.133.067-.25.133-.35.2-.8-.5-1.767-1.05-2.9-1.65v-.002c-.024-.01-.081-.037-.06-.03l.003.001c-.015-.007-.03-.014-.044-.023a.828.828 0 0 1-.048-.034c-.035-.025-.069-.05-.104-.073-.074-.048-.152-.089-.229-.132l-.07-.038-.05-.025a.775.775 0 0 0-.063-.021c-.089-.023-.18-.038-.271-.056a2.445 2.445 0 0 1-.51-.149c-.021-.007-.04-.019-.06-.029l-.018-.007.018.01.013.006a.875.875 0 0 1-.058-.027l.027.011-.012-.006-.038-.022c-.05-.026-.102-.048-.151-.078-.075-.045-.149-.092-.225-.135-.075-.042-.145-.092-.221-.132-.032-.017-.065-.034-.095-.055a.279.279 0 0 1-.042-.035l-.032-.037a153.94 153.94 0 0 0-3.598-1.527.544.544 0 0 0-.082.22c-.018.08-.031.161-.046.242-.009.051-.014.104-.021.155s-.015.103-.038.15c-.019.041-.046.079-.072.117a.695.695 0 0 0-.061.118c-.016.044-.027.089-.042.133s-.034.086-.064.122l-.033.04c3.531 1.466 6.18 2.732 7.946 3.798-.467.333-.917.667-1.35 1l-1.3 1c-.4.367-.783.733-1.15 1.1l-1.1 1.1-1 1.2c-.333.433-.65.867-.95 1.3s-.6.883-.9 1.35-.583.95-.85 1.45h2.55c.2-.467.433-.933.7-1.4.233-.433.483-.867.75-1.3l.8-1.2.9-1.1c.3-.333.633-.667 1-1 .3-.333.633-.65 1-.95l1.1-.9c.367-.267.75-.533 1.15-.8.4.267.783.533 1.15.8l1.1.9c.333.3.667.617 1 .95.333.3.65.633.95 1 .333.367.633.733.9 1.1.3.4.583.8.85 1.2s.517.833.75 1.3c.267.433.5.9.7 1.4h2.55a79.7 79.7 0 0 1-.849-1.45z"/><path fill="#D3C9B4" fill-rule="evenodd" d="M27.848 11.161h11.65l-5.05 6.75h-.95c.1.1.2.217.3.35s.183.267.25.4c.1.133.183.267.25.4.067.1.133.233.2.4.033.133.083.267.15.4.033.133.083.267.15.4.033.133.067.283.1.45.033.133.05.283.05.45.233.2.45.383.65.55l.6.6.5.7c.133.267.267.55.4.85.1.3.183.617.25.95.067.367.1.75.1 1.15s-.033.833-.1 1.3c-.067.5-.167 1.033-.3 1.6l-2-2.25v.8c-.033.3-.05.567-.05.8a4.878 4.878 0 0 1-.15.75c-.067.267-.15.517-.25.75s-.217.467-.35.7-.317.45-.55.65c-.2.2-.433.4-.7.6-.3.2-.633.367-1 .5v-1.7s-.017-.333-.05-.5a2.57 2.57 0 0 0-.05-.5l-.1-.5a9.577 9.577 0 0 0-.1-.45 2.795 2.795 0 0 1-.15-.5 5.97 5.97 0 0 1-.45.5c-.133.133-.283.25-.45.35-.167.133-.35.233-.55.3-.167.1-.35.167-.55.2-.2.067-.4.117-.6.15h-.6s-.4-.017-.6-.05c-.233 0-.45-.033-.65-.1l-1 1.5c.3.3.583.6.85.9.3.3.583.6.85.9.267.333.517.667.75 1 .267.333.517.667.75 1l.7 1.1c.2.367.417.75.65 1.15.2.367.4.75.6 1.15s.4.817.6 1.25h-5.25a5.163 5.163 0 0 0-.35-.75l-.3-.7c-.133-.233-.25-.45-.35-.65-.133-.233-.25-.45-.35-.65-.133-.2-.25-.4-.35-.6l-.4-.6c-.1-.2-.217-.383-.35-.55l-.4-.5-3.65 5.4-3.65-5.35c-.133.167-.25.333-.35.5a7.94 7.94 0 0 1-.4.55c-.1.2-.217.4-.35.6-.1.167-.217.367-.35.6-.1.2-.217.4-.35.6-.1.233-.217.467-.35.7-.1.2-.2.433-.3.7-.133.233-.25.467-.35.7h-5.25c.2-.433.4-.85.6-1.25s.4-.783.6-1.15c.233-.4.45-.783.65-1.15.233-.367.467-.717.7-1.05.233-.367.483-.7.75-1 .233-.333.483-.667.75-1l.8-.9.9-.9-1.05-1.55c-.233.033-.45.067-.65.1s-.4.05-.6.05a4 4 0 0 1-.65-.05c-.2 0-.383-.033-.55-.1-.2-.033-.383-.1-.55-.2-.2-.067-.383-.15-.55-.25a5.348 5.348 0 0 1-.45-.4 2.163 2.163 0 0 1-.45-.5 3.476 3.476 0 0 0-.15.45 2.795 2.795 0 0 0-.15.5l-.1.5c0 .167-.017.333-.05.5v.5c-.033.167-.05.35-.05.55v1.15a8.226 8.226 0 0 1-.95-.5c-.3-.2-.55-.4-.75-.6s-.383-.417-.55-.65c-.133-.233-.25-.467-.35-.7s-.183-.483-.25-.75c-.033-.233-.067-.5-.1-.8a5.353 5.353 0 0 1-.05-.75c0-.2-.017-.467-.05-.8l-1.95 2.25a18.1 18.1 0 0 1-.3-1.55c-.067-.5-.1-.95-.1-1.35s.033-.783.1-1.15a3.08 3.08 0 0 1 .25-.95c.1-.3.233-.583.4-.85.133-.233.3-.467.5-.7.167-.2.35-.4.55-.6.2-.167.417-.35.65-.55.033-.167.067-.317.1-.45s.067-.283.1-.45c.033-.133.083-.267.15-.4.033-.133.083-.267.15-.4.067-.167.133-.317.2-.45s.133-.25.2-.35l.3-.4c.1-.133.2-.25.3-.35h-1.2l-4.5-6.75h11.35l7.75-11.45 7.75 11.45m-12.95 14 1.25-.2.85-1.9c.167-.433.3-.833.4-1.2.1-.4.167-.767.2-1.1s.033-.65 0-.95c-.067-.3-.15-.567-.25-.8-.1-.267-.233-.5-.4-.7-.2-.233-.417-.433-.65-.6s-.483-.333-.75-.5c-.3-.133-.617-.267-.95-.4h-8.3l-3.15-4.65 12.7.05.5 1.1c.067.133.15.25.25.35.067.1.15.183.25.25.067.067.15.133.25.2.1.033.2.05.3.05.067 0 .15-.017.25-.05.1 0 .2-.033.3-.1s.217-.133.35-.2l.3-.3v-.25a.953.953 0 0 1-.05-.3v-.75c0-.133.017-.267.05-.4 0-.1.017-.2.05-.3 0-.1.017-.2.05-.3l.1-.2.1-.2.1-.2.15-.15a.321.321 0 0 1 .15-.15l.2-.1.3-.1h.6c.1.033.183.067.25.1l.2.1a.321.321 0 0 1 .15.15.321.321 0 0 1 .15.15l.1.2a.54.54 0 0 1 .1.2.54.54 0 0 1 .1.2h.2c.067 0 .15.017.25.05.067 0 .133.017.2.05.1 0 .183.017.25.05s.15.067.25.1c.067.033.15.067.25.1.067.033.15.067.25.1.067.033.15.067.25.1a.562.562 0 0 1-.25.05 1.96 1.96 0 0 1-.25.1l-.2.1-.2.1a1.96 1.96 0 0 0-.25.1l-.2.1a.768.768 0 0 0-.2.15.321.321 0 0 0-.15.15c-.033.3-.05.6-.05.9l.3.3.3.2c.1.067.2.1.3.1.1.033.2.05.3.05s.2-.017.3-.05c.067-.067.15-.133.25-.2s.183-.15.25-.25c.1-.1.183-.217.25-.35l.45-1.1 12.85-.05-3.15 4.65h-8.4a4.417 4.417 0 0 0-1.8.75 2.589 2.589 0 0 0-.6.6c-.167.2-.3.433-.4.7s-.167.55-.2.85-.033.633 0 1c.033.333.1.7.2 1.1s.233.817.4 1.25l.85 1.9 1.25.2c.133-.067.283-.133.45-.2l.4-.2c.167-.067.317-.133.45-.2a1.75 1.75 0 0 0 .45-.15c.167-.067.317-.133.45-.2.167-.067.317-.133.45-.2l.5-.2c.167-.067.317-.133.45-.2a1.583 1.583 0 0 0-.3-.4c-.1-.133-.233-.25-.4-.35-.133-.1-.3-.2-.5-.3-.167-.1-.367-.2-.6-.3-.2-.067-.433-.15-.7-.25-.233-.067-.5-.133-.8-.2a8.945 8.945 0 0 1-.85-.15l-1-.1c.3-.1.567-.2.8-.3.267-.067.517-.133.75-.2.267-.067.5-.133.7-.2l.7-.1a4 4 0 0 1 .65-.05c.2 0 .417.017.65.05.2.033.417.067.65.1.2.067.433.133.7.2a9.577 9.577 0 0 0-.1-.45 2.208 2.208 0 0 0-.2-.4.74.74 0 0 0-.2-.35 1.002 1.002 0 0 0-.3-.35c-.1-.1-.217-.183-.35-.25-.133-.1-.283-.2-.45-.3l-.5-.25c-.2-.067-.417-.15-.65-.25.333-.067.633-.117.9-.15a3.245 3.245 0 0 1 1.45.15c.233.067.45.167.65.3s.383.283.55.45c.167.133.35.3.55.5.167.2.333.417.5.65s.35.483.55.75l.1-.4c.033-.167.05-.317.05-.45s-.017-.267-.05-.4l-.1-.4a9.577 9.577 0 0 1-.1-.45 7.196 7.196 0 0 0-.15-.4 7.196 7.196 0 0 0-.15-.4 1.96 1.96 0 0 0-.2-.45l.6.4c.2.167.367.317.5.45l.45.45c.133.167.25.333.35.5s.2.35.3.55c.067.167.133.35.2.55l.2.6c.067.2.117.417.15.65.233.167.45.333.65.5s.383.35.55.55c.167.167.317.35.45.55.133.167.25.35.35.55l.2.6c.067.2.117.4.15.6s.067.417.1.65v.6c-.1-.2-.2-.383-.3-.55-.133-.167-.25-.317-.35-.45-.1-.167-.2-.317-.3-.45s-.217-.25-.35-.35c-.1-.1-.217-.183-.35-.25l-.4-.2a1.872 1.872 0 0 0-.45-.05 2.35 2.35 0 0 0-.45.05c.1.3.183.6.25.9s.117.583.15.85c.067.3.1.583.1.85.033.3.05.583.05.85-.033.267-.067.517-.1.75-.067.267-.133.517-.2.75-.1.233-.217.45-.35.65-.1.233-.25.433-.45.6 0-.267-.017-.517-.05-.75 0-.267-.017-.517-.05-.75s-.067-.45-.1-.65c-.033-.233-.067-.45-.1-.65-.067-.2-.133-.383-.2-.55s-.133-.317-.2-.45c-.1-.167-.2-.3-.3-.4a2.654 2.654 0 0 0-.4-.25c-.133.267-.267.5-.4.7s-.267.383-.4.55-.283.317-.45.45l-.4.3-.4.2-.4.1c-.133.033-.283.05-.45.05h-.4c.133-.167.25-.333.35-.5.1-.133.183-.283.25-.45.1-.167.183-.317.25-.45.067-.167.117-.317.15-.45.067-.133.117-.267.15-.4a2.35 2.35 0 0 0 .05-.45c.033-.133.05-.267.05-.4s-.017-.25-.05-.35c-1.233.5-2.35.983-3.35 1.45-.6.267-1.033.467-1.3.6v.1-.05a5.843 5.843 0 0 1-.45.2l-.4.2a5.843 5.843 0 0 1-.45.2c-.133.067-.267.15-.4.25l-.4.2-.4.2c-.133.067-.267.15-.4.25l-.4.2 1.4 1c.433.333.85.667 1.25 1l1.2 1.1 1.1 1.1 1 1.2c.333.433.65.867.95 1.3s.6.883.9 1.35c.267.467.55.95.85 1.45h-2.55a9.1 9.1 0 0 0-.7-1.4c-.233-.467-.483-.9-.75-1.3s-.55-.8-.85-1.2a13.185 13.185 0 0 0-.9-1.1c-.3-.367-.617-.7-.95-1-.333-.333-.667-.65-1-.95l-1.1-.9c-.367-.267-.75-.533-1.15-.8-.4.267-.783.533-1.15.8l-1.1.9c-.367.3-.7.617-1 .95-.367.333-.7.667-1 1l-.9 1.1-.8 1.2c-.267.433-.517.867-.75 1.3-.267.467-.5.933-.7 1.4h-2.55c.267-.5.55-.983.85-1.45s.6-.917.9-1.35.617-.867.95-1.3l1-1.2 1.1-1.1c.367-.367.75-.733 1.15-1.1l1.3-1c.433-.333.883-.667 1.35-1-1.767-1.067-4.417-2.333-7.95-3.8v.75c.033.133.067.283.1.45l.1.4c.067.133.133.283.2.45.067.133.133.283.2.45.1.133.2.283.3.45s.217.333.35.5h-.4c-.167 0-.317-.017-.45-.05l-.4-.1a5.843 5.843 0 0 1-.45-.2l-.4-.3-.4-.4a3.574 3.574 0 0 1-.45-.55 15.045 15.045 0 0 1-.4-.75c-.133.067-.25.15-.35.25a.913.913 0 0 0-.3.4c-.1.133-.183.283-.25.45s-.117.35-.15.55c-.067.2-.117.417-.15.65-.033.2-.067.417-.1.65 0 .233-.017.483-.05.75 0 .233-.017.483-.05.75a2.816 2.816 0 0 1-.45-.6c-.133-.2-.25-.417-.35-.65a4.878 4.878 0 0 1-.15-.75 2.703 2.703 0 0 1-.1-.75v-.85c.033-.267.067-.55.1-.85l.2-.9c.067-.267.15-.55.25-.85a2.57 2.57 0 0 0-.5-.05.883.883 0 0 0-.4.1c-.133.033-.267.083-.4.15s-.267.15-.4.25c-.1.1-.2.217-.3.35-.133.133-.25.283-.35.45-.1.133-.2.3-.3.5-.1.133-.217.3-.35.5v-.65l.1-.6c.033-.2.083-.4.15-.6s.15-.4.25-.6.217-.383.35-.55c.133-.2.267-.383.4-.55.167-.2.35-.383.55-.55s.433-.333.7-.5c.033-.233.083-.45.15-.65.033-.2.083-.4.15-.6s.15-.383.25-.55c.1-.2.2-.383.3-.55s.217-.333.35-.5c.133-.133.267-.283.4-.45a5.97 5.97 0 0 0 .5-.45l.6-.4-.15.45c-.067.167-.133.3-.2.4-.033.167-.067.3-.1.4-.067.167-.117.317-.15.45s-.05.267-.05.4a1.872 1.872 0 0 0 0 .85c0 .133.033.267.1.4l.5-.75c.2-.233.383-.45.55-.65s.333-.383.5-.55l.6-.4c.2-.133.4-.233.6-.3.233-.067.467-.117.7-.15s.483-.033.75 0c.3 0 .6.05.9.15-.233.1-.433.183-.6.25-.2.1-.383.183-.55.25-.167.1-.317.2-.45.3-.133.067-.25.15-.35.25s-.183.217-.25.35c-.1.1-.183.217-.25.35s-.117.267-.15.4-.067.283-.1.45l.7-.2c.233-.067.45-.1.65-.1a4 4 0 0 1 .65-.05c.2 0 .417.017.65.05.2.033.417.067.65.1s.467.083.7.15.483.15.75.25c.233.067.5.167.8.3-.333.033-.65.067-.95.1l-.9.2c-.267.033-.533.1-.8.2l-.7.2-.6.3-.5.3c-.167.1-.3.217-.4.35a1.583 1.583 0 0 0-.3.4c1.3.533 2.516 1.05 3.65 1.55m8.1 1.1-.05-.05.35-1.05-2.15-4.05c0 .1-.017.2-.05.3 0 .1-.017.183-.05.25a.54.54 0 0 1-.1.2.768.768 0 0 1-.15.2.57.57 0 0 1-.35.15c-.033.033-.083.05-.15.05h-.4a.393.393 0 0 1-.15-.05.448.448 0 0 1-.2-.05c-.033-.033-.083-.067-.15-.1s-.117-.083-.15-.15l-.1-.2a1.96 1.96 0 0 1-.1-.25v-.35l-2.15 4.05.3 1.05v.05c1.133.6 2.1 1.15 2.9 1.65.1-.067.217-.133.35-.2.1-.067.217-.133.35-.2.1-.1.217-.183.35-.25.1-.067.217-.133.35-.2s.25-.133.35-.2l.4-.2c.1-.067.217-.133.35-.2l.4-.2m.85-.4.1-.15v.1l-.1.05m-4.1-14.8c0 .033.033.1.1.2.1.1.2.217.3.35l.55.55h.05c.033 0 .05-.017.05-.05.033-.033.05-.067.05-.1.033-.033.05-.067.05-.1v-.35c0-.033-.017-.067-.05-.1s-.067-.05-.1-.05a.57.57 0 0 0-.15-.1.57.57 0 0 0-.15-.1c-.067 0-.133-.017-.2-.05s-.117-.05-.15-.05a.448.448 0 0 0-.2-.05h-.15m-1.85.2h-4.05l6.3-9.4 6.25 9.4h-2.5c-.033-.067-.083-.133-.15-.2s-.133-.117-.2-.15a.768.768 0 0 0-.2-.15 2.297 2.297 0 0 0-.25-.15 1.96 1.96 0 0 1-.25-.1l-.3-.1a.953.953 0 0 0-.3-.05.953.953 0 0 0-.3-.05.768.768 0 0 0-.15-.2l-.2-.2a.768.768 0 0 0-.2-.15.622.622 0 0 0-.25-.15l-.2-.1-.3-.1a.562.562 0 0 1-.25-.05h-.3a2.35 2.35 0 0 0-.45.05.883.883 0 0 0-.4.1c-.1.033-.217.083-.35.15-.1.067-.2.15-.3.25s-.183.2-.25.3c-.1.1-.183.2-.25.3-.033.1-.067.217-.1.35l-.1.4" clip-rule="evenodd"/></svg>