<svg xmlns="http://www.w3.org/2000/svg" width="40" height="40"><path fill="#968250" d="M16.9 31.7v-5.3l-3.05-.4v4.85l3.05.85zm11.05 5.65-23.65-7v-9.6l-1.05.2v-1.8L12 16.2l1.45-10.95-.7-.05v-.95l4.7-1.9L26 2.6v.95l-.45.25 1.15 12.6 10.4 5.05v1.4l-1.35.5v9.3l-7.8 4.7z"/><path fill="#E6E1A0" d="M16.9 26.4v5.3l-3.05-.85V26z"/><path fill="#DCB464" d="m12 16.2-8.75 2.95v1.8l1.05-.2v9.6l23.65 7 7.8-4.7v-9.3l1.35-.5v-1.4L26.7 16.4 25.55 3.8l.45-.25V2.6l-8.55-.25-4.7 1.9v.95l.7.05L12 16.2zm-2.05-1.45 1.1-7.7h-.5V2.6l6.8-2.6 10.8.55V4.7l-.35.25 1.1 10 10.4 5.1v5.1l-1.25.5V34l-10.1 6-25.9-8.15V23.3l-1.3.35L.7 17.7l9.25-2.95z"/></svg>