<svg xmlns="http://www.w3.org/2000/svg" width="40" height="40"><g fill-rule="evenodd"><path fill="#AA7873" d="M20 40q1.6-.5 3.1-1.15 1.55-.7 2.95-1.55 1.45-.85 2.75-1.85 1.35-1 2.45-2.15 1.15-1.15 2.05-2.45.95-1.3 1.6-2.7.65-1.45 1-2.95.35-1.55.35-3.2V0H3.75v22q0 1.7.35 3.3t1 3.05 1.6 2.8q.9 1.3 2.05 2.45t2.45 2.15 2.75 1.8T16.9 39q1.55.6 3.1 1M17.95 3H6.3v18.65q0 1.3.25 2.6.25 1.2.7 2.4t1.1 2.3Q9 30 9.8 31q.8.95 1.75 1.8.9.9 1.95 1.65 1.05.7 2.15 1.3 1.15.6 2.3 1.05v-4q.15.05.25.1.15.05.25.05.15.05.25.1.15.05.25.05l.3.1q.1 0 .25.05.1.05.25.05.1.05.25.05.15-.05.25-.05.15-.05.25-.05.15-.05.25-.1.15-.05.3-.05.1-.05.25-.1.1-.05.25-.1.1 0 .25-.05t.25-.1v4q1.15-.5 2.3-1.15 1.1-.65 2.15-1.4t1.95-1.65q.95-.85 1.75-1.8.8-1 1.45-2.05.65-1.1 1.1-2.2.45-1.2.7-2.4t.25-2.45V3H22.05v3.65h-4.1V3M20 31.7q1.15-.3 2.3-.75 1.1-.45 2.15-1 1.05-.6 2.05-1.3.95-.7 1.8-1.45.85-.8 1.5-1.65.7-.9 1.15-1.8.5-.9.75-1.85t.25-1.9V8.3H8.05V20q0 1 .25 2 .25.95.75 1.9.5.9 1.15 1.8.7.85 1.55 1.65.8.8 1.8 1.5.95.65 2 1.2 1.05.6 2.2 1 1.1.4 2.25.65m0-1.8q.95-.25 1.95-.6.95-.4 1.85-.9.9-.45 1.7-1.05T27 26.1q.75-.7 1.3-1.4.6-.75 1-1.5.4-.8.6-1.6.25-.8.25-1.6v-9.9H9.85V20q0 .85.25 1.7.2.8.6 1.6t1 1.55q.6.7 1.3 1.4.7.65 1.5 1.25.85.55 1.75 1.05.9.45 1.85.8t1.9.55m-5.05-17.2q.35 0 .65.05.35.1.65.2.3.15.55.35.25.15.5.4.2.2.4.5.2.25.3.55.15.3.2.6.05.35.05.7t-.05.65q-.05.35-.2.65t-.3.55l-.4.5q-.25.25-.5.4-.25.2-.55.3-.3.15-.65.2-.3.1-.65.1t-.7-.1q-.3-.05-.6-.2-.3-.1-.55-.3-.3-.15-.5-.4-.25-.25-.45-.5-.15-.25-.3-.55-.1-.3-.2-.65-.05-.3-.05-.65t.05-.65q.1-.35.2-.65.15-.3.3-.55.2-.3.45-.5.2-.25.45-.4.3-.2.6-.35.3-.1.6-.15.35-.1.7-.1m10.1 0q.35 0 .7.05l.6.2q.3.15.55.35.3.15.5.4.25.2.45.5.15.25.3.55l.2.6q.05.35.05.7t-.05.65q-.1.35-.2.65-.15.3-.3.55-.2.25-.45.5-.2.25-.45.4-.3.2-.6.3-.3.15-.6.2-.35.1-.7.1t-.65-.1q-.35-.05-.65-.2-.3-.1-.55-.3-.25-.15-.5-.4l-.4-.5q-.2-.25-.3-.55-.15-.3-.2-.65-.05-.3-.05-.65t.05-.65q.05-.35.2-.65t.3-.55q.2-.3.4-.5.25-.25.5-.4.25-.2.55-.35.3-.1.65-.15.3-.1.65-.1"/><path fill="#E1AAA5" d="M17.95 3H6.3v18.65q0 1.3.25 2.6.25 1.2.7 2.4t1.1 2.3Q9 30 9.8 31q.8.95 1.75 1.8.9.9 1.95 1.65 1.05.7 2.15 1.3 1.15.6 2.3 1.05v-4q.15.05.25.1.15.05.25.05.15.05.25.1.15.05.25.05l.3.1q.1 0 .25.05.1.05.25.05.1.05.25.05.15-.05.25-.05.15-.05.25-.05.15-.05.25-.1.15-.05.3-.05.1-.05.25-.1.1-.05.25-.1.1 0 .25-.05t.25-.1v4q1.15-.5 2.3-1.15 1.1-.65 2.15-1.4t1.95-1.65q.95-.85 1.75-1.8.8-1 1.45-2.05.65-1.1 1.1-2.2.45-1.2.7-2.4t.25-2.45V3H22.05v3.65h-4.1V3M20 31.7q1.15-.3 2.3-.75 1.1-.45 2.15-1 1.05-.6 2.05-1.3.95-.7 1.8-1.45.85-.8 1.5-1.65.7-.9 1.15-1.8.5-.9.75-1.85t.25-1.9V8.3H8.05V20q0 1 .25 2 .25.95.75 1.9.5.9 1.15 1.8.7.85 1.55 1.65.8.8 1.8 1.5.95.65 2 1.2 1.05.6 2.2 1 1.1.4 2.25.65m0-1.8q.95-.25 1.95-.6.95-.4 1.85-.9.9-.45 1.7-1.05T27 26.1q.75-.7 1.3-1.4.6-.75 1-1.5.4-.8.6-1.6.25-.8.25-1.6v-9.9H9.85V20q0 .85.25 1.7.2.8.6 1.6t1 1.55q.6.7 1.3 1.4.7.65 1.5 1.25.85.55 1.75 1.05.9.45 1.85.8t1.9.55m-5.05-17.2q.35 0 .65.05.35.1.65.2.3.15.55.35.25.15.5.4.2.2.4.5.2.25.3.55.15.3.2.6.05.35.05.7t-.05.65q-.05.35-.2.65t-.3.55l-.4.5q-.25.25-.5.4-.25.2-.55.3-.3.15-.65.2-.3.1-.65.1t-.7-.1q-.3-.05-.6-.2-.3-.1-.55-.3-.3-.15-.5-.4-.25-.25-.45-.5-.15-.25-.3-.55-.1-.3-.2-.65-.05-.3-.05-.65t.05-.65q.1-.35.2-.65.15-.3.3-.55.2-.3.45-.5.2-.25.45-.4.3-.2.6-.35.3-.1.6-.15.35-.1.7-.1m10.1 0q.35 0 .7.05l.6.2q.3.15.55.35.3.15.5.4.25.2.45.5.15.25.3.55l.2.6q.05.35.05.7t-.05.65q-.1.35-.2.65-.15.3-.3.55-.2.25-.45.5-.2.25-.45.4-.3.2-.6.3-.3.15-.6.2-.35.1-.7.1t-.65-.1q-.35-.05-.65-.2-.3-.1-.55-.3-.25-.15-.5-.4l-.4-.5q-.2-.25-.3-.55-.15-.3-.2-.65-.05-.3-.05-.65t.05-.65q.05-.35.2-.65t.3-.55q.2-.3.4-.5.25-.25.5-.4.25-.2.55-.35.3-.1.65-.15.3-.1.65-.1"/></g></svg>