<svg xmlns="http://www.w3.org/2000/svg" width="40" height="40"><path fill="#E6E1A0" d="M29.2 13.75c.13.2.25.35.35.45-.1.03-.2.07-.3.1s-.22.05-.35.05a1.23 1.23 0 0 1-.7 0c-.1 0-.22-.02-.35-.05-.13 0-.27-.02-.4-.05s-.27-.07-.4-.1a1.63 1.63 0 0 0-.4-.15c-.03 0-.57-.18-1.6-.55-.63-.2-1.12-.33-1.45-.4.5-.37.97-.67 1.4-.9.37-.2.73-.32 1.1-.35.33-.07.63-.07.9 0s.52.17.75.3c.2.13.4.3.6.5a46.633 46.633 0 0 1 .85 1.15zm-13.1-1.4c.2.07.42.17.65.3-.17.1-.37.2-.6.3s-.5.2-.8.3c-.23.07-.52.13-.85.2-.23.07-.53.13-.9.2-.5.13-.8.2-.9.2-.33.1-.62.18-.85.25-.3.07-.55.13-.75.2-.27.1-.48.2-.65.3 0-.23.02-.43.05-.6.03-.2.08-.38.15-.55.03-.2.08-.37.15-.5s.15-.27.25-.4c.07-.13.15-.25.25-.35.07-.1.17-.18.3-.25.1-.07.22-.13.35-.2.1-.03.22-.07.35-.1s.28-.07.45-.1h.45c.17 0 .33.02.5.05s.35.07.55.1.4.08.6.15.4.13.6.2c.2.1.42.2.65.3z"/><path fill="#AFC3C8" d="M4.57 26.01c.04.05.06.08.07.09-.02-.02-.04-.05-.07-.09zm-.03-.05a7.68 7.68 0 0 1-.27-.37c-.01-.03-.02-.06-.04-.09.14.2.25.35.31.46z"/><path fill="#3C555A" d="M4.57 26.01c.03.04.05.07.07.09-.01-.01-.03-.04-.07-.09zM28.9 14.35c.13 0 .25-.02.35-.05s.2-.07.3-.1c-.1-.1-.22-.25-.35-.45l-.4-.55c-.17-.23-.32-.43-.45-.6-.2-.2-.4-.37-.6-.5-.23-.13-.48-.23-.75-.3s-.57-.07-.9 0c-.37.03-.73.15-1.1.35-.43.23-.9.53-1.4.9.33.07.82.2 1.45.4 1.03.37 1.57.55 1.6.55.13.03.27.08.4.15.13.03.27.07.4.1s.27.05.4.05c.13.03.25.05.35.05a1.23 1.23 0 0 0 .7 0zm7.05 1.6c.13.2.28.4.45.6.17.23.33.47.5.7.2.27.37.52.5.75.17.27.32.5.45.7.13.27.23.48.3.65.07.2.1.37.1.5s-.05.27-.15.4-.23.25-.4.35c-.17.13-.35.25-.55.35-.17.1-.37.2-.6.3-.17.1-.35.18-.55.25-.17.07-.35.13-.55.2-.1.03-.22.07-.35.1-.03.03-.08.05-.15.05 0 0 .02.03.05.1s.07.13.1.2c.03.13.08.25.15.35.03.17.08.32.15.45.03.13.08.27.15.4.03.17.07.32.1.45s.07.25.1.35v.3s-.03.13-.1.2c-.03.07-.08.12-.15.15-.07.07-.13.12-.2.15s-.15.07-.25.1c-.07.03-.13.07-.2.1s-.13.05-.2.05c-.07.03-.12.05-.15.05h-.05v.05c.03.03.05.08.05.15v.15s-.02.13-.05.2v.15c0 .07-.02.12-.05.15-.03.07-.05.12-.05.15-.03 0-.07.02-.1.05.03.03.05.07.05.1s.02.07.05.1c0 .07-.02.12-.05.15v.15c0 .07-.02.12-.05.15 0 .07-.02.13-.05.2-.03.03-.07.08-.1.15 0 .03-.02.07-.05.1v.05c0-.03.02-.02.05.05 0 .03.02.07.05.1.03.07.05.12.05.15.03.03.05.08.05.15.03.07.05.12.05.15v.35c0 .07-.02.13-.05.2s-.08.15-.15.25c-.03.03-.08.12-.15.25-.07.1-.12.18-.15.25-.07.1-.12.18-.15.25-.07.1-.12.2-.15.3s-.05.18-.05.25c-.03.1-.05.2-.05.3 0 .17.02.35.05.55s.07.43.1.7c.07.23.12.5.15.8.07.27.15.55.25.85.07.27.13.55.2.85l.3.9c.1.27.2.53.3.8.1.3.2.57.3.8s.15.45.15.65c0 .17-.05.32-.15.45s-.27.25-.5.35c-.2.1-.48.18-.85.25-.3.07-.7.12-1.2.15-.43.03-.95.05-1.55.05-.53.03-1.18.05-1.95.05h-2.35c0-.07-.03-.95-.1-2.65-.1-1.83-.13-3.22-.1-4.15-.03-.23-.07-.47-.1-.7s-.07-.47-.1-.7-.08-.45-.15-.65c-.03-.23-.08-.47-.15-.7s-.15-.45-.25-.65c-.07-.23-.15-.47-.25-.7-.1-.2-.2-.42-.3-.65-.13-.2-.27-.42-.4-.65-.1.03-.2.07-.3.1h-.65c-.13 0-.25-.02-.35-.05-.13 0-.25-.02-.35-.05s-.2-.07-.3-.1a.654.654 0 0 0-.2-.15.654.654 0 0 1-.15-.2c-.1.03-.2.07-.3.1-.13.03-.25.07-.35.1-.13.03-.27.05-.4.05H21a.9.9 0 0 1-.4 0c-.13 0-.25-.02-.35-.05-.13-.03-.23-.07-.3-.1-.1-.03-.18-.07-.25-.1-.03.07-.08.12-.15.15-.1.03-.2.08-.3.15-.13.03-.27.05-.4.05-.13.03-.28.05-.45.05-.13 0-.28-.02-.45-.05-.13 0-.27-.02-.4-.05s-.23-.08-.3-.15c-.1-.07-.18-.13-.25-.2.03.07.03.13 0 .2l-.15.15c-.07.03-.15.07-.25.1s-.2.05-.3.05c-.13.03-.27.05-.4.05h-.35c-.13 0-.27-.02-.4-.05-.1-.03-.2-.07-.3-.1-.13.23-.27.45-.4.65-.1.23-.2.45-.3.65-.13.23-.23.47-.3.7-.1.2-.18.42-.25.65-.1.23-.18.47-.25.7-.07.2-.12.42-.15.65-.07.23-.12.47-.15.7s-.07.47-.1.7c.03.97.05 2.37.05 4.2v2.7H7.8c-.73 0-1.35-.02-1.85-.05-.53-.03-.98-.08-1.35-.15-.37-.03-.68-.1-.95-.2-.23-.13-.42-.27-.55-.4-.13-.17-.23-.37-.3-.6-.03-.2-.05-.45-.05-.75l.3-1.9c.2-1.37.37-2.3.5-2.8.03-.13.08-.27.15-.4.03-.13.08-.28.15-.45.07-.1.13-.23.2-.4.07-.07.15-.2.25-.4.07-.17.13-.3.2-.4.07-.13.12-.25.15-.35.07-.13.12-.25.15-.35.03-.13.05-.23.05-.3v-.2c0-.1-.02-.18-.05-.25s-.08-.13-.15-.2c-.03-.07-.07-.13-.1-.2 0 0-.05-.07-.15-.2-.07-.1-.12-.17-.15-.2-.03-.07-.07-.13-.1-.2-.03-.03-.05-.08-.05-.15V27c.03-.03.05-.07.05-.1.03-.03.07-.08.1-.15.03 0 .07-.03.1-.1s.07-.12.1-.15.05-.07.05-.1c.03-.07.05-.12.05-.15.03-.03.03-.07 0-.1 0-.07-.03-.15-.1-.25-.03-.07-.08-.15-.15-.25-.01-.02-.01-.04-.03-.06.11.16.2.28.27.37-.06-.11-.17-.26-.31-.46v-.01c-.09-.14-.2-.3-.33-.49-.1-.13-.17-.23-.2-.3-.1-.13-.17-.25-.2-.35a1.053 1.053 0 0 1-.2-.6c0-.1.02-.2.05-.3 0-.07.03-.17.1-.3.03-.1.08-.2.15-.3s.13-.2.2-.3.13-.2.2-.3c.07-.07.12-.13.15-.2l.2-.2s-.05-.02-.15-.05c-.1-.07-.2-.12-.3-.15-.17-.1-.32-.18-.45-.25-.17-.1-.33-.22-.5-.35-.2-.1-.38-.22-.55-.35s-.32-.27-.45-.4-.23-.27-.3-.4-.1-.27-.1-.4.05-.3.15-.5c.07-.17.17-.37.3-.6.13-.2.3-.42.5-.65.17-.23.35-.47.55-.7.17-.2.33-.4.5-.6.17-.17.33-.35.5-.55.1-.1.2-.22.3-.35.03-.03.08-.07.15-.1l-.05-.05c0-.03-.02-.08-.05-.15s-.07-.13-.1-.2c-.03-.1-.07-.2-.1-.3 0-.1-.02-.2-.05-.3s-.05-.2-.05-.3a.915.915 0 0 1-.05-.25c.03-.1.05-.18.05-.25.57-1.57 1.22-3 1.95-4.3.7-1.17 1.45-2.2 2.25-3.1.73-.8 1.52-1.5 2.35-2.1.73-.53 1.5-.97 2.3-1.3.67-.3 1.35-.53 2.05-.7.57-.13 1.13-.22 1.7-.25.4-.03.77-.05 1.1-.05.13.03.27.05.4.05-.03.1-.05.22-.05.35-.03.13-.05.28-.05.45v.95c.03.17.07.33.1.5 0 .13.03.27.1.4.03.13.07.25.1.35.07.1.13.17.2.2s.13.1.2.2.15.2.25.3c.07.1.15.22.25.35.07.13.15.27.25.4s.18.27.25.4.13.27.2.4.12.25.15.35.07.18.1.25c0 0 .02-.08.05-.25 0-.23.02-.47.05-.7.07-.37.13-.72.2-1.05.1-.4.2-.78.3-1.15.13-.4.27-.78.4-1.15.2-.37.4-.68.6-.95.2-.33.43-.57.7-.7.3-.2.6-.28.9-.25.53 0 1.12.12 1.75.35.6.2 1.22.5 1.85.9.6.37 1.22.82 1.85 1.35a28.393 28.393 0 0 1 3.45 3.45c.5.63.97 1.27 1.4 1.9.43.6.82 1.2 1.15 1.8.3.6.55 1.15.75 1.65.03.1.05.2.05.3.03.13.05.27.05.4s-.02.27-.05.4c0 .13-.02.27-.05.4 0 .13-.02.27-.05.4 0 .1-.02.2-.05.3-.03.07-.05.13-.05.2v.05s.03.05.1.15c.13.17.25.3.35.4zm-19.8-3c.23-.1.43-.2.6-.3-.23-.13-.45-.23-.65-.3-.23-.1-.45-.2-.65-.3-.2-.07-.4-.13-.6-.2s-.4-.12-.6-.15-.38-.07-.55-.1-.33-.05-.5-.05h-.45c-.17.03-.32.07-.45.1s-.25.07-.35.1c-.13.07-.25.13-.35.2-.13.07-.23.15-.3.25-.1.1-.18.22-.25.35-.1.13-.18.27-.25.4s-.12.3-.15.5c-.07.17-.12.35-.15.55-.03.17-.05.37-.05.6.17-.1.38-.2.65-.3.2-.07.45-.13.75-.2.23-.07.52-.15.85-.25.1 0 .4-.07.9-.2.37-.07.67-.13.9-.2.33-.07.62-.13.85-.2.3-.1.57-.2.8-.3z"/><path fill="#3C555A" d="M4.23 25.49v.01c.02.03.03.06.04.09-.05-.07-.11-.15-.17-.24.05.05.09.09.13.14z"/><g fill="#AFC3C8"><path d="M1.86 26.93c.03.04.06.1.08.16-.03-.06-.05-.11-.08-.16zm-.09-.19c.03.05.06.11.09.19-.03-.07-.06-.14-.09-.19zm-.11-.21c.02.03.05.09.1.18-.05-.09-.08-.15-.1-.18z"/><path d="M2.75 29.05v-.2s-.02-.15-.05-.25c-.03-.07-.07-.13-.1-.2 0-.07-.03-.13-.1-.2-.03-.07-.07-.14-.1-.2-.03-.09-.06-.16-.1-.19v-.01a.492.492 0 0 1-.05-.2.492.492 0 0 1-.05-.2c0-.03.02-.08.05-.15 0-.03.02-.07.05-.1.03-.07.07-.12.1-.15 0 0 .03-.05.1-.15l.1-.1c.03-.07.05-.12.05-.15.03-.07.05-.12.05-.15.03-.03.03-.08 0-.15 0-.07-.02-.15-.05-.25-.03-.07-.08-.15-.15-.25-.03-.1-.08-.2-.15-.3-.03-.03-.1-.15-.2-.35a.75.75 0 0 1-.2-.3c-.07-.13-.12-.23-.15-.3-.07-.13-.12-.23-.15-.3A.915.915 0 0 1 1.6 24v-.25c.03-.07.07-.15.1-.25s.07-.18.1-.25c.03-.1.08-.2.15-.3.03-.07.07-.13.1-.2s.08-.13.15-.2c.03-.03.05-.07.05-.1l.05-.05-.1-.1a.99.99 0 0 1-.25-.25c-.13-.1-.27-.22-.4-.35l-.4-.4c-.17-.2-.32-.37-.45-.5-.13-.2-.25-.38-.35-.55-.13-.17-.22-.33-.25-.5-.07-.17-.1-.33-.1-.5 0-.13.05-.3.15-.5.07-.2.17-.4.3-.6.1-.2.23-.42.4-.65s.33-.47.5-.7c.13-.17.3-.37.5-.6.13-.17.27-.33.4-.5l.3-.3c.03-.03.07-.08.1-.15l-.05-.05c0-.03-.02-.08-.05-.15s-.07-.15-.1-.25-.07-.2-.1-.3-.05-.2-.05-.3c-.03-.1-.07-.2-.1-.3v-.35c0-.1.02-.18.05-.25.57-1.73 1.23-3.3 2-4.7.67-1.3 1.42-2.43 2.25-3.4.77-.93 1.6-1.73 2.5-2.4.8-.6 1.63-1.1 2.5-1.5.8-.33 1.63-.62 2.5-.85.73-.17 1.52-.28 2.35-.35.57-.03 1.23-.07 2-.1H20c-.03.07-.05.13-.05.2-.03.1-.07.18-.1.25 0 .1-.02.18-.05.25v.75c0 .1.02.18.05.25 0 .07.02.15.05.25 0 0 .02-.03.05-.1s.07-.13.1-.2c.1-.13.18-.25.25-.35.13-.13.27-.25.4-.35.13-.13.3-.25.5-.35.2-.13.42-.25.65-.35.23-.07.5-.13.8-.2.33-.03.67-.05 1-.05.6 0 1.25.13 1.95.4.63.2 1.3.52 2 .95.67.4 1.35.87 2.05 1.4A33.343 33.343 0 0 1 33.5 6.4c.57.67 1.1 1.33 1.6 2 .47.67.88 1.32 1.25 1.95.33.63.6 1.22.8 1.75.1.23.17.47.2.7.07.2.12.4.15.6v1c0 .13-.02.25-.05.35 0 .1-.02.18-.05.25 0 .07-.02.12-.05.15v.05s.03.05.1.15c.17.2.27.32.3.35.17.2.32.38.45.55.17.23.33.47.5.7.2.27.37.52.5.75.17.27.3.5.4.7.13.27.23.5.3.7.07.23.1.43.1.6 0 .23-.05.45-.15.65s-.23.4-.4.6c-.13.17-.3.35-.5.55-.2.13-.4.28-.6.45-.17.13-.35.25-.55.35-.17.1-.33.2-.5.3-.13.07-.25.12-.35.15-.03.03-.08.07-.15.1l.05.05c0 .07.02.15.05.25s.07.2.1.3c.03.13.07.25.1.35.03.17.07.32.1.45s.07.25.1.35v.65c-.03.07-.07.13-.1.2l-.2.2c-.1.07-.18.12-.25.15-.1.07-.2.12-.3.15-.07.07-.15.12-.25.15-.07.03-.13.07-.2.1-.07 0-.12.02-.15.05h-.05v.05c-.03.03-.05.07-.05.1-.03.07-.05.12-.05.15-.03.07-.07.13-.1.2 0 .1-.02.18-.05.25 0 .07-.02.13-.05.2 0 .07-.02.13-.05.2v.35c0 .07.02.13.05.2 0 .03.02.08.05.15 0 .03.02.1.05.2 0 .07.02.12.05.15 0 .07.02.12.05.15v.35c0 .07-.02.15-.05.25-.03.07-.07.15-.1.25 0 .07-.03.15-.1.25-.07.17-.1.25-.1.25-.07.1-.1.2-.1.3-.07.1-.1.2-.1.3-.03.1-.07.18-.1.25v.3c0 .13.02.27.05.4 0 .17.02.33.05.5s.07.35.1.55c.03.17.07.35.1.55.07.17.12.35.15.55.07.2.12.38.15.55.07.2.13.37.2.5.07.2.13.37.2.5.13.27.23.5.3.7.1.3.18.57.25.8.07.3.1.57.1.8 0 .3-.03.57-.1.8s-.2.45-.4.65c-.2.23-.45.42-.75.55-.33.17-.73.28-1.2.35-.5.1-1.08.15-1.75.15H25v-8.3c-.03-.17-.05-.33-.05-.5-.03-.13-.07-.28-.1-.45s-.07-.32-.1-.45a2.95 2.95 0 0 1-.15-.45 2.95 2.95 0 0 1-.15-.45c-.07-.17-.13-.32-.2-.45s-.13-.27-.2-.4c-.1-.13-.18-.27-.25-.4-.07 0-.13.02-.2.05h-.4s-.13-.02-.2-.05h-.2a.492.492 0 0 0-.2-.05c-.07-.03-.13-.07-.2-.1s-.12-.07-.15-.1c-.1.03-.2.07-.3.1-.13 0-.25.02-.35.05-.1 0-.2.02-.3.05h-.7c-.1 0-.2-.02-.3-.05-.13 0-.25-.02-.35-.05-.13-.03-.25-.07-.35-.1-.1.03-.2.07-.3.1s-.2.07-.3.1-.2.05-.3.05c-.1.03-.22.05-.35.05h-.3c-.1-.03-.2-.05-.3-.05-.1-.03-.2-.07-.3-.1-.1 0-.22-.03-.35-.1l-.1.1c-.07 0-.12.02-.15.05s-.08.05-.15.05c-.03.03-.08.05-.15.05h-.15c-.07.03-.13.03-.2 0H16c-.07 0-.13-.02-.2-.05-.1.1-.18.2-.25.3-.07.13-.13.27-.2.4-.07.1-.13.22-.2.35s-.13.28-.2.45c-.03.13-.08.28-.15.45-.03.17-.07.33-.1.5s-.07.33-.1.5c0 .2-.02.4-.05.6V40H3.5c-.2-.03-.38-.07-.55-.1s-.3-.07-.4-.1c-.13-.07-.27-.13-.4-.2-.1-.07-.2-.15-.3-.25-.07-.1-.13-.2-.2-.3-.07-.13-.13-.27-.2-.4s-.13-.3-.2-.5c-.03-.13-.07-.3-.1-.5s-.05-.43-.05-.7c0-.23.02-.48.05-.75 0-.27.02-.55.05-.85 0-.27.02-.55.05-.85.03-.27.07-.55.1-.85.03-.27.07-.52.1-.75s.07-.45.1-.65c.03-.13.07-.28.1-.45.03-.13.08-.27.15-.4.03-.13.1-.28.2-.45.03-.1.1-.25.2-.45.1-.23.15-.37.15-.4.07-.13.13-.27.2-.4.03-.13.07-.25.1-.35.07-.1.1-.2.1-.3zm.05 8.2c.07.23.17.43.3.6.13.13.32.27.55.4.27.1.58.17.95.2.37.07.82.12 1.35.15.5.03 1.12.05 1.85.05H13v-2.7c0-1.83-.02-3.23-.05-4.2.03-.23.07-.47.1-.7s.08-.47.15-.7c.03-.23.08-.45.15-.65.07-.23.15-.47.25-.7.07-.23.15-.45.25-.65.07-.23.17-.47.3-.7.1-.2.2-.42.3-.65.13-.2.27-.42.4-.65.1.03.2.07.3.1.13.03.27.05.4.05h.35c.13 0 .27-.02.4-.05.1 0 .2-.02.3-.05s.18-.07.25-.1l.15-.15c.03-.07.03-.13 0-.2.07.07.15.13.25.2.07.07.17.12.3.15s.27.05.4.05c.17.03.32.05.45.05.17 0 .32-.02.45-.05.13 0 .27-.02.4-.05.1-.07.2-.12.3-.15.07-.03.12-.08.15-.15.07.03.15.07.25.1.07.03.17.07.3.1.1.03.22.05.35.05a.9.9 0 0 0 .4 0h.4s.27-.02.4-.05c.1-.03.22-.07.35-.1.1-.03.2-.07.3-.1.03.07.08.13.15.2.07.03.13.08.2.15.1.03.2.07.3.1s.22.05.35.05c.1.03.22.05.35.05h.65c.1-.03.2-.07.3-.1.13.23.27.45.4.65.1.23.2.45.3.65.1.23.18.47.25.7.1.2.18.42.25.65s.12.47.15.7c.07.2.12.42.15.65s.07.47.1.7.07.47.1.7c-.03.93 0 2.32.1 4.15.07 1.7.1 2.58.1 2.65H29c.77 0 1.42-.02 1.95-.05.6 0 1.12-.02 1.55-.05.5-.03.9-.08 1.2-.15.37-.07.65-.15.85-.25.23-.1.4-.22.5-.35s.15-.28.15-.45c0-.2-.05-.42-.15-.65s-.2-.5-.3-.8c-.1-.27-.2-.53-.3-.8l-.3-.9c-.07-.3-.13-.58-.2-.85-.1-.3-.18-.58-.25-.85-.03-.3-.08-.57-.15-.8-.03-.27-.07-.5-.1-.7s-.05-.38-.05-.55c0-.1.02-.2.05-.3 0-.07.02-.15.05-.25s.08-.2.15-.3c.03-.07.08-.15.15-.25.03-.07.08-.15.15-.25.07-.13.12-.22.15-.25.07-.1.12-.18.15-.25s.05-.13.05-.2v-.35c0-.03-.02-.08-.05-.15 0-.07-.02-.12-.05-.15 0-.03-.02-.08-.05-.15-.03-.03-.05-.07-.05-.1-.03-.07-.05-.08-.05-.05v-.05c.03-.03.05-.07.05-.1.03-.07.07-.12.1-.15.03-.07.05-.13.05-.2.03-.03.05-.08.05-.15v-.15c.03-.03.05-.08.05-.15-.03-.03-.05-.07-.05-.1s-.02-.07-.05-.1c.03-.03.07-.05.1-.05 0-.03.02-.08.05-.15.03-.03.05-.08.05-.15v-.15c.03-.07.05-.13.05-.2v-.15c0-.07-.02-.12-.05-.15v-.05h.05c.03 0 .08-.02.15-.05.07 0 .13-.02.2-.05s.13-.07.2-.1c.1-.03.18-.07.25-.1s.13-.08.2-.15c.07-.03.12-.08.15-.15.07-.07.1-.13.1-.2v-.3c-.03-.1-.07-.22-.1-.35s-.07-.28-.1-.45a1.63 1.63 0 0 1-.15-.4 1.49 1.49 0 0 1-.15-.45c-.07-.1-.12-.22-.15-.35-.03-.07-.07-.13-.1-.2s-.05-.1-.05-.1c.07 0 .12-.02.15-.05.13-.03.25-.07.35-.1.2-.07.38-.13.55-.2.2-.07.38-.15.55-.25.23-.1.43-.2.6-.3.2-.1.38-.22.55-.35.17-.1.3-.22.4-.35s.15-.27.15-.4-.03-.3-.1-.5c-.07-.17-.17-.38-.3-.65-.13-.2-.28-.43-.45-.7-.13-.23-.3-.48-.5-.75-.17-.23-.33-.47-.5-.7-.17-.2-.32-.4-.45-.6-.1-.1-.22-.23-.35-.4a2.9 2.9 0 0 1-.1-.15v-.05c0-.07.02-.13.05-.2.03-.1.05-.2.05-.3.03-.13.05-.27.05-.4.03-.13.05-.27.05-.4.03-.13.05-.27.05-.4s-.02-.27-.05-.4c0-.1-.02-.2-.05-.3-.2-.5-.45-1.05-.75-1.65-.33-.6-.72-1.2-1.15-1.8-.43-.63-.9-1.27-1.4-1.9a28.393 28.393 0 0 0-3.45-3.45c-.63-.53-1.25-.98-1.85-1.35-.63-.4-1.25-.7-1.85-.9-.63-.23-1.22-.35-1.75-.35-.3-.03-.6.05-.9.25-.27.13-.5.37-.7.7-.2.27-.4.58-.6.95-.13.37-.27.75-.4 1.15-.1.37-.2.75-.3 1.15-.07.33-.13.68-.2 1.05-.03.23-.05.47-.05.7-.03.17-.05.25-.05.25-.03-.07-.07-.15-.1-.25s-.08-.22-.15-.35-.13-.27-.2-.4-.15-.27-.25-.4-.18-.27-.25-.4c-.1-.13-.18-.25-.25-.35-.1-.1-.18-.2-.25-.3s-.13-.17-.2-.2-.13-.1-.2-.2c-.03-.1-.07-.22-.1-.35a.846.846 0 0 1-.1-.4c-.03-.17-.07-.33-.1-.5V2.7c0-.17.02-.32.05-.45 0-.13.02-.25.05-.35-.13 0-.27-.02-.4-.05-.33 0-.7.02-1.1.05-.57.03-1.13.12-1.7.25-.7.17-1.38.4-2.05.7-.8.33-1.57.77-2.3 1.3-.83.6-1.62 1.3-2.35 2.1-.8.9-1.55 1.93-2.25 3.1-.73 1.3-1.38 2.73-1.95 4.3 0 .07-.02.15-.05.25 0 .07.02.15.05.25 0 .1.02.2.05.3s.05.2.05.3c.03.1.07.2.1.3.03.07.07.13.1.2s.05.12.05.15l.05.05c-.07.03-.12.07-.15.1-.1.13-.2.25-.3.35-.17.2-.33.38-.5.55-.17.2-.33.4-.5.6-.2.23-.38.47-.55.7-.2.23-.37.45-.5.65-.13.23-.23.43-.3.6-.1.2-.15.37-.15.5s.03.27.1.4.17.27.3.4.28.27.45.4.35.25.55.35c.17.13.33.25.5.35.13.07.28.15.45.25.1.03.2.08.3.15.1.03.15.05.15.05l-.2.2c-.03.07-.08.13-.15.2-.07.1-.13.2-.2.3s-.13.2-.2.3-.12.2-.15.3c-.07.13-.1.23-.1.3-.03.1-.05.2-.05.3s.02.2.05.3.08.2.15.3c.03.1.1.22.2.35.03.07.1.17.2.3.13.19.24.35.33.49-.04-.05-.08-.09-.13-.14.06.09.12.17.17.24.02.02.02.04.03.06.07.1.12.18.15.25.07.1.1.18.1.25.03.03.03.07 0 .1 0 .03-.02.08-.05.15 0 .03-.02.07-.05.1s-.07.08-.1.15-.07.1-.1.1c-.03.07-.07.12-.1.15 0 .03-.02.07-.05.1v.15c0 .07.02.12.05.15.03.07.07.13.1.2.03.03.08.1.15.2.1.13.15.2.15.2.03.07.07.13.1.2.07.07.12.13.15.2s.05.15.05.25v.2c0 .07-.02.17-.05.3-.03.1-.08.22-.15.35-.03.1-.08.22-.15.35-.07.1-.13.23-.2.4-.1.2-.18.33-.25.4-.07.17-.13.3-.2.4-.07.17-.12.32-.15.45-.07.13-.12.27-.15.4-.13.5-.3 1.43-.5 2.8l-.3 1.9c0 .3.02.55.05.75z"/></g></svg>