<svg xmlns="http://www.w3.org/2000/svg" width="40" height="40"><g fill-rule="evenodd"><path fill="#28323C" d="M23.65 2.55V0H9.3v2.55H7.75v2.8H6.1V9l1 1.7-.85 23.35-.95.9V40h10.25v-5.1l-.95-.9-.85-23.3 1-1.7v-.8h10.5V9l1 1.7-.85 23.35-.95.9V40H34.7v-5.1l-.95-.9-.85-23.3 1-1.7V5.35h-1.55v-2.8h-8.7m-1.5 1.3v-2.5h-11.4v2.5h-1.6V6.7H7.6v2.1l.95 1.45L7.7 34.9l-1 1v2.6h7.45v-2.6l-1-1-.85-24.65.95-1.45V6.85h13.5V8.8l.95 1.45-.85 24.65-1 1v2.6h7.45v-2.6l-1-1-.85-24.65.95-1.45V6.7h-1.45V3.85h-8.8"/><path fill="#46505A" d="M22.15 3.85v-2.5h-11.4v2.5h-1.6V6.7H7.6v2.1l.95 1.45L7.7 34.9l-1 1v2.6h7.45v-2.6l-1-1-.85-24.65.95-1.45V6.85h13.5V8.8l.95 1.45-.85 24.65-1 1v2.6h7.45v-2.6l-1-1-.85-24.65.95-1.45V6.7h-1.45V3.85h-8.8"/></g></svg>