<?xml version="1.0" encoding="UTF-8" standalone="no"?>
<svg xmlns:xlink="http://www.w3.org/1999/xlink" height="39.55px" width="28.15px" xmlns="http://www.w3.org/2000/svg">
  <g transform="matrix(1.0, 0.0, 0.0, 1.0, 14.05, 19.7)">
    <path d="M6.35 -19.7 L3.45 -7.85 14.1 19.85 3.4 19.85 0.0 6.1 -3.35 19.85 -14.05 19.85 -3.4 -7.85 -6.3 -19.7 -1.15 -19.7 0.0 -16.7 1.2 -19.7 6.35 -19.7 M3.8 -17.7 L2.55 -17.7 0.0 -11.15 -2.5 -17.7 -3.75 -17.7 -1.3 -7.7 -11.1 17.85 -4.9 17.85 0.0 -2.35 4.95 17.85 11.15 17.85 1.35 -7.7 3.8 -17.7" fill="#000000" fill-rule="evenodd" stroke="none"/>
    <path d="M3.8 -17.7 L1.35 -7.7 11.15 17.85 4.95 17.85 0.0 -2.35 -4.9 17.85 -11.1 17.85 -1.3 -7.7 -3.75 -17.7 -2.5 -17.7 0.0 -11.15 2.55 -17.7 3.8 -17.7" fill="#c1ae95" fill-rule="evenodd" stroke="none"/>
  </g>
</svg>
