<?xml version="1.0" encoding="UTF-8" standalone="no"?>
<svg xmlns:xlink="http://www.w3.org/1999/xlink" height="40.35px" width="25.05px" xmlns="http://www.w3.org/2000/svg">
  <g transform="matrix(1.0, 0.0, 0.0, 1.0, 12.5, 20.1)">
    <path d="M4.6 -14.75 L4.6 -18.1 1.5 -18.1 1.5 -14.75 -1.4 -14.75 -1.4 -18.1 -4.5 -18.1 -4.5 -14.75 -7.4 -14.75 -7.4 -18.1 -10.5 -18.1 -10.5 -11.65 -8.05 -8.7 -8.05 11.35 -0.05 17.7 8.1 11.35 8.1 -8.7 10.55 -11.65 10.55 -18.1 7.5 -18.1 7.5 -14.75 4.6 -14.75 M1.0 -3.0 L-0.8 -3.0 -0.8 -6.4 1.0 -6.4 1.0 -3.0 M3.7 -6.4 L5.5 -6.4 5.5 -3.0 3.7 -3.0 3.7 -6.4 M12.55 -10.9 L10.1 -7.95 10.1 12.3 -0.05 20.25 -10.05 12.3 -10.05 -7.95 -12.5 -10.9 -12.5 -20.1 12.55 -20.1 12.55 -10.9 M-5.4 -6.4 L-3.65 -6.4 -3.65 -3.0 -5.4 -3.0 -5.4 -6.4" fill="#000000" fill-rule="evenodd" stroke="none"/>
    <path d="M3.7 -6.4 L3.7 -3.0 5.5 -3.0 5.5 -6.4 3.7 -6.4 M1.0 -3.0 L1.0 -6.4 -0.8 -6.4 -0.8 -3.0 1.0 -3.0 M4.6 -14.75 L7.5 -14.75 7.5 -18.1 10.55 -18.1 10.55 -11.65 8.1 -8.7 8.1 11.35 -0.05 17.7 -8.05 11.35 -8.05 -8.7 -10.5 -11.65 -10.5 -18.1 -7.4 -18.1 -7.4 -14.75 -4.5 -14.75 -4.5 -18.1 -1.4 -18.1 -1.4 -14.75 1.5 -14.75 1.5 -18.1 4.6 -18.1 4.6 -14.75 M-5.4 -6.4 L-5.4 -3.0 -3.65 -3.0 -3.65 -6.4 -5.4 -6.4" fill="#c1ae95" fill-rule="evenodd" stroke="none"/>
  </g>
</svg>
