<?xml version="1.0" encoding="UTF-8" standalone="no"?>
<svg xmlns:xlink="http://www.w3.org/1999/xlink" height="41.8px" width="30.25px" xmlns="http://www.w3.org/2000/svg">
  <g transform="matrix(1.0, 0.0, 0.0, 1.0, 15.1, 20.8)">
    <path d="M1.6 -20.8 L3.6 -17.35 3.6 -8.65 8.85 -2.85 10.5 -2.5 14.1 4.35 15.15 14.9 5.35 15.4 0.0 21.0 -5.3 15.4 -15.1 14.9 -14.0 4.15 -10.45 -2.5 -8.8 -2.85 -3.55 -8.65 -3.55 -17.35 -1.6 -20.8 1.6 -20.8 M0.45 -18.8 L-0.45 -18.8 -1.6 -16.8 -1.6 -7.9 -7.8 -1.0 -9.1 -0.75 -12.05 4.75 -12.9 12.9 -7.55 12.9 -8.05 10.85 -7.8 6.7 -5.15 0.55 -3.55 -1.9 -1.6 -3.25 -1.55 -0.55 -3.2 14.7 0.0 18.1 3.25 14.7 1.6 -0.5 1.6 -3.25 3.6 -1.9 5.15 0.45 7.85 6.7 8.1 10.85 7.6 12.9 12.95 12.9 12.15 4.9 9.15 -0.75 7.85 -1.0 1.6 -7.9 1.6 -16.8 0.45 -18.8" fill="#000000" fill-rule="evenodd" stroke="none"/>
    <path d="M0.45 -18.8 L1.6 -16.8 1.6 -7.9 7.85 -1.0 9.15 -0.75 12.15 4.9 12.95 12.9 7.6 12.9 8.1 10.85 7.85 6.7 5.15 0.45 3.6 -1.9 1.6 -3.25 1.6 -0.5 3.25 14.7 0.0 18.1 -3.2 14.7 -1.55 -0.55 -1.6 -3.25 -3.55 -1.9 -5.15 0.55 -7.8 6.7 -8.05 10.85 -7.55 12.9 -12.9 12.9 -12.05 4.75 -9.1 -0.75 -7.8 -1.0 -1.6 -7.9 -1.6 -16.8 -0.45 -18.8 0.45 -18.8" fill="#c1ae95" fill-rule="evenodd" stroke="none"/>
  </g>
</svg>
