<?xml version="1.0" encoding="UTF-8" standalone="no"?>
<svg xmlns:xlink="http://www.w3.org/1999/xlink" height="40.35px" width="25.3px" xmlns="http://www.w3.org/2000/svg">
  <g transform="matrix(1.0, 0.0, 0.0, 1.0, 12.65, 20.1)">
    <path d="M2.0 -20.1 L2.0 -19.8 Q6.4 -18.8 8.8 -14.55 L12.65 -14.55 12.65 -8.55 11.65 -8.55 11.65 -5.5 10.0 -3.7 10.0 12.35 -0.1 20.25 -10.0 12.35 -10.0 -3.7 -11.65 -5.5 -11.65 -8.55 -12.65 -8.55 -12.65 -14.55 -8.8 -14.55 Q-6.4 -18.8 -2.05 -19.8 L-2.05 -20.05 2.0 -20.1 M0.0 -17.8 L-0.05 -17.8 Q-2.5 -17.7 -4.55 -16.2 -5.85 -15.2 -6.75 -13.8 L-7.55 -12.25 -10.65 -12.25 -10.65 -10.3 -9.65 -10.3 -9.65 -6.0 -8.0 -4.2 -8.0 11.65 -0.1 17.95 8.0 11.65 8.0 -4.2 9.65 -6.0 9.65 -10.3 10.65 -10.3 10.65 -12.25 7.55 -12.25 6.75 -13.8 Q5.85 -15.2 4.55 -16.2 2.5 -17.7 0.0 -17.8 M2.35 -5.0 Q3.3 -3.55 3.3 -1.5 L3.3 7.6 -3.35 7.6 -3.35 -1.5 Q-3.35 -3.55 -2.35 -5.0 -1.4 -6.5 0.0 -6.6 1.4 -6.5 2.35 -5.0" fill="#000000" fill-rule="evenodd" stroke="none"/>
    <path d="M2.35 -5.0 Q1.4 -6.5 0.0 -6.6 -1.4 -6.5 -2.35 -5.0 -3.35 -3.55 -3.35 -1.5 L-3.35 7.6 3.3 7.6 3.3 -1.5 Q3.3 -3.55 2.35 -5.0 M0.0 -17.8 Q2.5 -17.7 4.55 -16.2 5.85 -15.2 6.75 -13.8 L7.55 -12.25 10.65 -12.25 10.65 -10.3 9.65 -10.3 9.65 -6.0 8.0 -4.2 8.0 11.65 -0.1 17.95 -8.0 11.65 -8.0 -4.2 -9.65 -6.0 -9.65 -10.3 -10.65 -10.3 -10.65 -12.25 -7.55 -12.25 -6.75 -13.8 Q-5.85 -15.2 -4.55 -16.2 -2.5 -17.7 -0.05 -17.8 L0.0 -17.8" fill="#c1ae95" fill-rule="evenodd" stroke="none"/>
  </g>
</svg>
