<?xml version="1.0" encoding="UTF-8" standalone="no"?>
<svg xmlns:xlink="http://www.w3.org/1999/xlink" height="50.2px" width="22.45px" xmlns="http://www.w3.org/2000/svg">
  <g transform="matrix(1.0, 0.0, 0.0, 1.0, 11.15, 20.95)">
    <path d="M2.85 -8.65 L2.9 -8.65 3.2 -9.25 0.1 -15.85 0.1 -15.8 0.05 -15.85 -3.1 -9.25 -2.85 -8.65 -2.1 -8.7 0.05 -4.3 0.1 -4.35 0.1 -4.3 2.25 -8.7 2.85 -8.65 M5.25 -8.45 L11.3 -8.05 6.3 5.0 6.9 5.7 Q9.6 9.0 9.6 13.6 L9.55 14.1 9.55 29.25 -8.75 29.25 -8.75 13.65 Q-8.75 9.0 -6.05 5.75 L-5.9 5.55 -11.15 -8.05 -5.1 -8.45 -5.55 -9.25 0.1 -20.95 5.7 -9.25 5.25 -8.45 M8.3 -6.15 L3.55 -6.4 3.5 -6.4 0.1 0.8 -3.4 -6.4 -3.45 -6.4 -8.15 -6.15 -8.2 -6.15 0.05 15.2 0.1 15.15 0.1 15.2 8.35 -6.15 8.3 -6.15 M5.5 7.1 L4.6 9.4 Q5.6 11.2 5.6 13.6 L5.55 14.05 5.55 25.25 -4.75 25.25 -4.75 13.6 Q-4.75 11.7 -4.1 10.15 L-5.05 7.75 Q-6.75 10.25 -6.75 13.65 L-6.75 27.25 7.55 27.25 7.55 14.1 7.6 13.6 Q7.6 9.8 5.5 7.15 L5.5 7.1" fill="#000000" fill-rule="evenodd" stroke="none"/>
    <path d="M2.85 -8.65 L2.25 -8.7 2.2 -8.7 0.1 -4.35 0.05 -4.3 -2.1 -8.7 -2.85 -8.65 -3.1 -9.25 0.05 -15.85 0.1 -15.8 3.15 -9.25 2.85 -8.65 M0.1 0.8 L3.5 -6.4 3.55 -6.4 8.3 -6.15 0.1 15.15 0.05 15.2 -8.2 -6.15 -8.15 -6.15 -3.45 -6.4 0.05 0.85 0.1 0.8 M5.5 7.1 L5.5 7.15 Q7.6 9.8 7.6 13.6 L7.55 14.1 7.55 27.25 -6.75 27.25 -6.75 13.65 Q-6.75 10.25 -5.05 7.75 L-4.1 10.15 Q-4.75 11.7 -4.75 13.6 L-4.75 25.25 5.55 25.25 5.55 14.05 5.6 13.6 Q5.6 11.2 4.6 9.4 L5.5 7.1" fill="#c1ae95" fill-rule="evenodd" stroke="none"/>
  </g>
</svg>
