<?xml version="1.0" encoding="UTF-8" standalone="no"?>
<svg xmlns:xlink="http://www.w3.org/1999/xlink" height="68.2px" width="37.55px" xmlns="http://www.w3.org/2000/svg">
  <g transform="matrix(1.0, 0.0, 0.0, 1.0, 18.7, 33.65)">
    <path d="M0.1 -29.8 Q6.35 -29.8 10.7 -24.0 15.15 -18.25 15.15 -10.1 L15.05 30.7 -14.85 30.7 -14.85 -10.1 Q-14.85 -18.25 -10.5 -24.0 -6.1 -29.8 0.1 -29.8 M7.65 -2.6 Q7.65 -5.8 5.4 -8.1 3.15 -10.35 -0.1 -10.35 -3.3 -10.35 -5.55 -8.1 -7.85 -5.8 -7.85 -2.6 -7.85 -0.7 -6.85 1.05 -6.0 2.7 -4.45 3.75 L-8.0 16.85 8.25 16.85 4.45 3.65 Q5.9 2.6 6.8 0.95 7.65 -0.7 7.65 -2.6" fill="#c1ae95" fill-rule="evenodd" stroke="none"/>
    <path d="M7.65 -2.6 Q7.65 -0.7 6.8 0.95 5.9 2.6 4.45 3.65 L8.25 16.85 -8.0 16.85 -4.45 3.75 Q-6.0 2.7 -6.85 1.05 -7.85 -0.7 -7.85 -2.6 -7.85 -5.8 -5.55 -8.1 -3.3 -10.35 -0.1 -10.35 3.15 -10.35 5.4 -8.1 7.65 -5.8 7.65 -2.6 M0.1 -29.8 Q-6.1 -29.8 -10.5 -24.0 -14.85 -18.25 -14.85 -10.1 L-14.85 30.7 15.05 30.7 15.15 -10.1 Q15.15 -18.25 10.7 -24.0 6.35 -29.8 0.1 -29.8 M0.1 -33.65 Q7.9 -33.65 13.4 -26.7 18.85 -19.8 18.85 -10.1 L18.85 34.55 -18.7 34.55 -18.7 -9.9 Q-18.7 -19.8 -13.2 -26.7 -7.65 -33.65 0.1 -33.65" fill="#000000" fill-rule="evenodd" stroke="none"/>
  </g>
</svg>
