<?xml version="1.0" encoding="UTF-8" standalone="no"?>
<svg xmlns:xlink="http://www.w3.org/1999/xlink" height="42.0px" width="22.1px" xmlns="http://www.w3.org/2000/svg">
  <g transform="matrix(1.0, 0.0, 0.0, 1.0, 10.9, 21.1)">
    <path d="M3.55 -6.55 L0.15 0.75 -3.3 -6.55 -8.0 -6.25 0.15 15.1 8.25 -6.25 3.55 -6.55 M5.25 -8.6 L11.2 -8.2 0.15 20.9 -10.9 -8.2 -5.0 -8.6 -5.4 -9.4 0.15 -21.1 5.65 -9.4 5.25 -8.6 M2.9 -8.8 L3.2 -9.4 0.15 -15.95 -2.95 -9.4 -2.75 -8.8 -2.0 -8.85 0.15 -4.4 2.25 -8.85 2.9 -8.8" fill="#000000" fill-rule="evenodd" stroke="none"/>
    <path d="M3.55 -6.55 L8.25 -6.25 0.15 15.1 -8.0 -6.25 -3.3 -6.55 0.15 0.75 3.55 -6.55 M2.9 -8.8 L2.25 -8.85 0.15 -4.4 -2.0 -8.85 -2.75 -8.8 -2.95 -9.4 0.15 -15.95 3.2 -9.4 2.9 -8.8" fill="#c1ae95" fill-rule="evenodd" stroke="none"/>
  </g>
</svg>
