<?xml version="1.0" encoding="UTF-8" standalone="no"?>
<svg xmlns:xlink="http://www.w3.org/1999/xlink" height="40.45px" width="20.95px" xmlns="http://www.w3.org/2000/svg">
  <g transform="matrix(1.0, 0.0, 0.0, 1.0, 10.45, 20.15)">
    <path d="M0.35 -18.25 L-0.65 -18.25 -1.2 -15.0 -1.9 -13.8 Q-2.8 -12.4 -4.5 -10.65 L-6.2 -8.75 Q-6.85 -7.75 -6.85 -6.75 L-6.85 -2.5 -6.0 -4.7 Q-5.15 -6.4 -4.05 -7.35 -3.05 -8.25 -1.6 -8.75 L-1.9 -5.75 Q-2.75 -4.4 -5.0 -2.05 L-6.85 0.05 Q-7.6 1.15 -7.6 2.3 L-7.6 7.0 -6.65 4.55 Q-5.7 2.65 -4.5 1.6 -3.55 0.7 -2.3 0.25 L-2.6 3.3 -7.5 8.85 Q-8.35 10.05 -8.35 11.3 L-8.35 16.45 -7.3 13.75 Q-6.3 11.75 -4.95 10.55 -4.15 9.85 -3.0 9.25 L-3.3 13.8 0.15 17.05 3.45 13.95 3.1 9.3 Q4.15 9.75 4.95 10.55 6.25 11.65 7.3 13.75 L8.35 16.45 8.35 11.3 Q8.35 10.05 7.55 8.85 L2.7 3.35 Q2.45 1.8 2.35 0.25 3.6 0.7 4.55 1.6 5.8 2.8 6.7 4.55 L7.65 7.0 7.65 2.3 Q7.65 1.15 6.9 0.05 L5.05 -2.05 Q2.95 -4.15 1.9 -5.85 L1.6 -8.75 Q3.05 -8.35 4.1 -7.35 5.2 -6.4 6.05 -4.7 L6.9 -2.5 6.9 -6.75 Q6.9 -7.75 6.2 -8.75 L2.7 -12.55 1.75 -13.8 1.05 -15.05 0.35 -18.25 M2.1 -20.15 L3.1 -15.4 Q3.45 -14.65 4.15 -13.8 L8.1 -9.5 Q9.05 -8.05 9.05 -6.45 L9.05 -0.2 Q9.75 1.05 9.75 2.6 L9.75 8.7 Q10.5 10.1 10.5 11.6 L10.5 17.5 6.35 17.5 5.5 15.25 0.15 20.3 -5.4 15.05 -6.3 17.5 -10.45 17.5 -10.45 11.6 Q-10.45 10.0 -9.75 8.7 L-9.75 2.6 Q-9.75 1.15 -9.0 -0.2 L-9.0 -6.45 Q-9.0 -8.05 -8.05 -9.5 L-4.35 -13.8 -3.25 -15.4 -2.45 -20.05 2.1 -20.15" fill="#000000" fill-rule="evenodd" stroke="none"/>
    <path d="M0.35 -18.25 L1.05 -15.05 1.75 -13.8 2.7 -12.55 6.2 -8.75 Q6.9 -7.75 6.9 -6.75 L6.9 -2.5 6.05 -4.7 Q5.2 -6.4 4.1 -7.35 3.05 -8.35 1.6 -8.75 L1.9 -5.85 Q2.95 -4.15 5.05 -2.05 L6.9 0.05 Q7.65 1.15 7.65 2.3 L7.65 7.0 6.7 4.55 Q5.8 2.8 4.55 1.6 3.6 0.7 2.35 0.25 2.45 1.8 2.7 3.35 L7.55 8.85 Q8.35 10.05 8.35 11.3 L8.35 16.45 7.3 13.75 Q6.25 11.65 4.95 10.55 4.15 9.75 3.1 9.3 L3.45 13.95 0.15 17.05 -3.3 13.8 -3.0 9.25 Q-4.15 9.85 -4.95 10.55 -6.3 11.75 -7.3 13.75 L-8.35 16.45 -8.35 11.3 Q-8.35 10.05 -7.5 8.85 L-2.6 3.3 -2.3 0.25 Q-3.55 0.7 -4.5 1.6 -5.7 2.65 -6.65 4.55 L-7.6 7.0 -7.6 2.3 Q-7.6 1.15 -6.85 0.05 L-5.0 -2.05 Q-2.75 -4.4 -1.9 -5.75 L-1.6 -8.75 Q-3.05 -8.25 -4.05 -7.35 -5.15 -6.4 -6.0 -4.7 L-6.85 -2.5 -6.85 -6.75 Q-6.85 -7.75 -6.2 -8.75 L-4.5 -10.65 Q-2.8 -12.4 -1.9 -13.8 L-1.2 -15.0 -0.65 -18.25 0.35 -18.25" fill="#c1ae95" fill-rule="evenodd" stroke="none"/>
  </g>
</svg>
