<?xml version="1.0" encoding="UTF-8" standalone="no"?>
<svg xmlns:xlink="http://www.w3.org/1999/xlink" height="38.4px" width="40.0px" xmlns="http://www.w3.org/2000/svg">
  <g transform="matrix(1.0, 0.0, 0.0, 1.0, 20.0, 19.2)">
    <path d="M1.5 -7.45 L1.0 -2.85 -1.0 -2.65 -0.7 -5.25 -11.25 -4.3 -8.6 -1.6 -10.6 -0.8 -15.75 -5.95 1.5 -7.45 M9.35 -4.65 L3.25 -4.0 3.8 -10.2 -3.45 -8.4 -3.55 -7.7 -5.55 -7.45 -5.3 -10.25 16.55 -16.25 9.2 4.3 1.15 5.0 1.45 2.95 7.35 2.4 9.35 -4.65 M6.0 1.9 L4.0 1.95 4.2 -0.35 -3.5 0.35 -3.15 -1.7 6.4 -2.55 6.0 1.9 M3.65 5.6 L5.7 5.35 4.9 14.7 -0.15 9.65 0.6 7.6 3.25 10.25 3.65 5.6 M-1.7 5.85 L-1.1 0.85 0.9 0.7 0.3 6.0 Q0.3 6.85 -0.1 7.95 -0.85 9.75 -2.35 10.5 -4.25 11.4 -6.3 11.0 -8.4 10.65 -9.95 9.1 -11.6 7.4 -11.95 5.15 -12.3 2.9 -11.15 1.1 -9.8 -1.1 -6.85 -1.4 L-7.0 0.65 Q-8.55 0.8 -9.45 2.15 -10.25 3.4 -9.95 4.95 -9.65 6.5 -8.5 7.65 -7.45 8.75 -5.95 9.0 L-3.25 8.7 Q-1.8 8.0 -1.7 5.9 L-1.7 5.85 M-5.85 -4.35 L-3.8 -4.4 -4.5 3.45 -2.0 3.25 -2.3 5.3 -6.75 5.7 -5.85 -4.35" fill="#c1ae95" fill-rule="evenodd" stroke="none"/>
    <path d="M9.35 -4.65 L7.35 2.4 1.45 2.95 1.15 5.0 9.2 4.3 16.55 -16.25 -5.3 -10.25 -5.55 -7.45 -3.55 -7.7 -3.45 -8.4 3.8 -10.2 3.25 -4.0 9.35 -4.65 M1.5 -7.45 L-15.75 -5.95 -10.6 -0.8 -8.6 -1.6 -11.25 -4.3 -0.7 -5.25 -1.0 -2.65 1.0 -2.85 1.5 -7.45 M-12.55 -0.1 L-20.0 -7.55 -7.25 -8.7 -6.95 -11.85 20.0 -19.2 10.9 6.2 7.9 6.45 6.75 19.2 -0.5 11.9 -1.25 12.35 Q-2.85 13.15 -4.85 13.15 -8.55 13.15 -11.1 10.5 -13.25 8.35 -13.7 5.4 -14.15 2.4 -12.65 0.0 L-12.55 -0.1 M-5.85 -4.35 L-6.75 5.7 -2.3 5.3 -2.0 3.25 -4.5 3.45 -3.8 -4.4 -5.85 -4.35 M-1.7 5.85 L-1.7 5.9 Q-1.8 8.0 -3.25 8.7 L-5.95 9.0 Q-7.45 8.75 -8.5 7.65 -9.65 6.5 -9.95 4.95 -10.25 3.4 -9.45 2.15 -8.55 0.8 -7.0 0.65 L-6.85 -1.4 Q-9.8 -1.1 -11.15 1.1 -12.3 2.9 -11.95 5.15 -11.6 7.4 -9.95 9.1 -8.4 10.65 -6.3 11.0 -4.25 11.4 -2.35 10.5 -0.85 9.75 -0.1 7.95 0.3 6.85 0.3 6.0 L0.9 0.7 -1.1 0.85 -1.7 5.85 M3.65 5.6 L3.25 10.25 0.6 7.6 -0.15 9.65 4.9 14.7 5.7 5.35 3.65 5.6 M6.0 1.9 L6.4 -2.55 -3.15 -1.7 -3.5 0.35 4.2 -0.35 4.0 1.95 6.0 1.9" fill="#000000" fill-rule="evenodd" stroke="none"/>
  </g>
</svg>
