<?xml version="1.0" encoding="UTF-8" standalone="no"?>
<svg xmlns:xlink="http://www.w3.org/1999/xlink" height="38.4px" width="40.0px" xmlns="http://www.w3.org/2000/svg">
  <g transform="matrix(1.0, 0.0, 0.0, 1.0, 20.0, 19.2)">
    <path d="M6.3 -11.05 Q8.4 -10.65 9.95 -9.1 11.6 -7.45 11.95 -5.2 12.3 -2.95 11.2 -1.1 10.3 0.3 8.7 0.95 L6.85 1.35 7.0 -0.7 Q8.65 -0.85 9.45 -2.2 10.25 -3.4 9.95 -4.95 9.7 -6.5 8.5 -7.7 7.45 -8.75 5.95 -9.05 L3.25 -8.75 Q2.4 -8.3 1.95 -7.1 L1.7 -5.95 1.7 -5.9 1.15 -0.85 -0.9 -0.75 -0.3 -6.05 0.15 -8.0 Q0.85 -9.8 2.35 -10.55 4.2 -11.45 6.3 -11.05 M-0.55 -7.65 L-3.25 -10.25 -3.65 -5.65 -5.7 -5.35 -4.85 -14.75 0.15 -9.7 -0.55 -7.65 M3.5 -0.35 L3.15 1.7 -6.4 2.5 -6.0 -1.9 -4.0 -1.95 -4.2 0.3 3.5 -0.35 M3.5 8.35 L3.55 7.65 5.6 7.45 5.35 10.25 -16.55 16.2 -9.2 -4.3 -1.15 -5.0 -1.4 -2.95 -7.35 -2.45 -9.35 4.6 -3.25 3.95 -3.75 10.2 3.5 8.35 M10.65 0.8 L15.75 5.9 -1.5 7.45 -1.0 2.85 1.05 2.65 0.7 5.2 11.3 4.25 8.6 1.6 10.65 0.8 M2.05 -3.3 L2.3 -5.3 6.75 -5.7 5.85 4.3 3.85 4.35 4.5 -3.5 2.05 -3.3" fill="#c1ae95" fill-rule="evenodd" stroke="none"/>
    <path d="M6.3 -11.05 Q4.2 -11.45 2.35 -10.55 0.85 -9.8 0.15 -8.0 L-0.3 -6.05 -0.9 -0.75 1.15 -0.85 1.7 -5.9 1.7 -5.95 1.95 -7.1 Q2.4 -8.3 3.25 -8.75 L5.95 -9.05 Q7.45 -8.75 8.5 -7.7 9.7 -6.5 9.95 -4.95 10.25 -3.4 9.45 -2.2 8.65 -0.85 7.0 -0.7 L6.85 1.35 8.7 0.95 Q10.3 0.3 11.2 -1.1 12.3 -2.95 11.95 -5.2 11.6 -7.45 9.95 -9.1 8.4 -10.65 6.3 -11.05 M0.5 -11.95 L1.25 -12.35 Q2.95 -13.2 4.85 -13.2 8.4 -13.2 11.15 -10.55 13.3 -8.35 13.7 -5.4 14.15 -2.45 12.65 -0.05 L12.55 0.1 20.0 7.55 7.25 8.65 7.0 11.8 -20.0 19.2 -10.9 -6.2 -7.85 -6.45 -6.75 -19.2 0.5 -11.95 M2.05 -3.3 L4.5 -3.5 3.85 4.35 5.85 4.3 6.75 -5.7 2.3 -5.3 2.05 -3.3 M10.65 0.8 L8.6 1.6 11.3 4.25 0.7 5.2 1.05 2.65 -1.0 2.85 -1.5 7.45 15.75 5.9 10.65 0.8 M3.5 8.35 L-3.75 10.2 -3.25 3.95 -9.35 4.6 -7.35 -2.45 -1.4 -2.95 -1.15 -5.0 -9.2 -4.3 -16.55 16.2 5.35 10.25 5.6 7.45 3.55 7.65 3.5 8.35 M3.5 -0.35 L-4.2 0.3 -4.0 -1.95 -6.0 -1.9 -6.4 2.5 3.15 1.7 3.5 -0.35 M-0.55 -7.65 L0.15 -9.7 -4.85 -14.75 -5.7 -5.35 -3.65 -5.65 -3.25 -10.25 -0.55 -7.65" fill="#000000" fill-rule="evenodd" stroke="none"/>
  </g>
</svg>
