<?xml version="1.0" encoding="UTF-8" standalone="no"?>
<svg xmlns:xlink="http://www.w3.org/1999/xlink" height="35.7px" width="43.0px" xmlns="http://www.w3.org/2000/svg">
  <g transform="matrix(1.0, 0.0, 0.0, 1.0, 21.5, 17.85)">
    <path d="M13.15 -13.75 L14.85 -12.8 19.6 -9.75 Q21.5 -8.05 21.5 -5.9 21.5 -4.1 19.75 -3.25 18.5 -2.75 16.85 -2.75 L11.25 -3.45 8.45 -1.5 Q6.65 -0.4 6.3 0.05 6.05 0.4 6.25 1.0 7.25 3.95 8.95 6.65 10.65 9.35 11.8 9.85 L13.7 9.85 Q14.6 9.85 15.3 10.4 16.0 11.0 16.15 11.85 16.25 12.7 15.8 13.5 15.3 14.25 14.45 14.5 L14.15 14.6 14.15 14.65 Q14.35 15.5 13.95 16.25 13.5 17.0 12.7 17.35 L10.15 17.85 -9.1 17.85 -11.65 17.35 Q-12.6 17.0 -13.0 16.0 -13.25 15.4 -13.1 14.6 L-13.4 14.5 -14.75 13.5 Q-15.25 12.7 -15.1 11.85 -14.95 11.0 -14.25 10.4 -13.6 9.85 -12.7 9.85 L-10.8 9.85 Q-9.65 9.35 -7.9 6.65 -6.2 3.95 -5.2 1.0 -5.0 0.4 -5.25 0.05 L-7.4 -1.5 -10.1 -3.4 -10.3 -3.35 Q-15.3 -2.35 -17.45 -2.35 -19.85 -2.35 -20.85 -3.45 -21.5 -4.15 -21.5 -5.15 -21.5 -6.8 -19.8 -7.85 -18.7 -8.5 -15.95 -9.4 -12.1 -10.75 -10.8 -11.65 L-9.9 -12.3 Q-6.5 -14.75 -4.25 -15.9 -0.65 -17.85 1.95 -17.85 5.9 -17.85 13.15 -13.75 M4.05 -6.2 L3.4 -5.55 1.85 -3.65 Q1.05 -2.35 1.0 -0.85 0.95 1.65 1.55 4.4 L2.55 8.55 Q3.25 11.4 3.9 12.35 L4.55 13.3 5.5 14.25 -4.45 14.25 -3.5 13.3 -2.85 12.35 Q-2.2 11.45 -1.5 8.6 L-0.55 4.4 Q0.15 1.75 0.05 -0.85 0.0 -2.35 -0.8 -3.65 L-2.35 -5.55 -2.95 -6.15 0.95 -6.35 4.05 -6.2 M4.8 -4.35 L6.15 -5.95 8.55 -5.55 6.65 -4.25 Q5.05 -3.3 4.4 -2.7 3.2 -1.7 2.85 -0.5 L2.85 -0.8 Q2.9 -1.85 3.5 -2.8 L4.8 -4.35 M7.65 -2.8 L10.75 -5.1 Q20.0 -3.2 20.0 -5.9 20.0 -7.65 17.95 -9.15 17.25 -9.7 12.4 -12.45 5.5 -16.35 1.95 -16.35 -0.55 -16.35 -4.45 -14.1 L-9.95 -10.45 Q-11.5 -9.4 -16.4 -7.7 -20.0 -6.5 -20.0 -5.15 -20.0 -3.6 -16.3 -3.9 L-9.6 -5.0 Q-8.7 -4.0 -6.6 -2.8 L-4.1 -0.85 Q-3.3 0.1 -3.8 1.5 -4.9 4.6 -6.65 7.45 -8.8 10.85 -10.55 11.35 L-12.7 11.35 Q-13.5 11.35 -13.6 12.1 L-13.5 12.7 -13.0 13.05 -11.6 13.15 -10.25 13.1 -5.9 13.1 -7.45 14.2 -7.65 14.25 -9.85 14.25 -10.7 14.35 Q-11.45 14.5 -11.6 14.8 L-11.6 15.45 -11.1 15.95 -9.1 16.35 10.15 16.35 12.15 15.95 Q12.85 15.7 12.7 14.95 12.55 14.25 11.75 14.25 L8.65 14.25 8.5 14.2 6.9 13.1 11.25 13.1 12.65 13.15 14.0 13.05 Q14.75 12.9 14.65 12.1 14.55 11.35 13.7 11.35 L11.55 11.35 Q9.85 10.85 7.7 7.45 5.85 4.55 4.8 1.5 4.3 0.1 5.1 -0.85 5.65 -1.6 7.65 -2.8 M3.05 2.05 Q5.55 9.6 7.8 11.35 L5.45 11.35 Q4.9 10.55 4.25 7.85 L3.4 3.95 3.05 2.05 M-7.4 -5.45 L-5.05 -5.85 -3.75 -4.35 -2.45 -2.8 Q-1.9 -1.85 -1.85 -0.8 L-1.85 -0.5 Q-2.15 -1.7 -3.35 -2.7 L-5.6 -4.25 -7.4 -5.45 M-2.35 3.95 L-3.2 7.85 Q-3.85 10.55 -4.4 11.35 L-6.8 11.35 Q-4.7 9.7 -2.0 2.05 L-2.35 3.95" fill="#000000" fill-rule="evenodd" stroke="none"/>
    <path d="M-2.35 3.95 L-2.0 2.05 Q-4.7 9.7 -6.8 11.35 L-4.4 11.35 Q-3.85 10.55 -3.2 7.85 L-2.35 3.95 M-7.4 -5.45 L-5.6 -4.25 -3.35 -2.7 Q-2.15 -1.7 -1.85 -0.5 L-1.85 -0.8 Q-1.9 -1.85 -2.45 -2.8 L-3.75 -4.35 -5.05 -5.85 -7.4 -5.45 M3.05 2.05 L3.4 3.95 4.25 7.85 Q4.9 10.55 5.45 11.35 L7.8 11.35 Q5.55 9.6 3.05 2.05 M7.65 -2.8 Q5.65 -1.6 5.1 -0.85 4.3 0.1 4.8 1.5 5.85 4.55 7.7 7.45 9.85 10.85 11.55 11.35 L13.7 11.35 Q14.55 11.35 14.65 12.1 14.75 12.9 14.0 13.05 L12.65 13.15 11.25 13.1 6.9 13.1 8.5 14.2 8.65 14.25 11.75 14.25 Q12.55 14.25 12.7 14.95 12.85 15.7 12.15 15.95 L10.15 16.35 -9.1 16.35 -11.1 15.95 -11.6 15.45 -11.6 14.8 Q-11.45 14.5 -10.7 14.35 L-9.85 14.25 -7.65 14.25 -7.45 14.2 -5.9 13.1 -10.25 13.1 -11.6 13.15 -13.0 13.05 -13.5 12.7 -13.6 12.1 Q-13.5 11.35 -12.7 11.35 L-10.55 11.35 Q-8.8 10.85 -6.65 7.45 -4.9 4.6 -3.8 1.5 -3.3 0.1 -4.1 -0.85 L-6.6 -2.8 Q-8.7 -4.0 -9.6 -5.0 L-16.3 -3.9 Q-20.0 -3.6 -20.0 -5.15 -20.0 -6.5 -16.4 -7.7 -11.5 -9.4 -9.95 -10.45 L-4.45 -14.1 Q-0.55 -16.35 1.95 -16.35 5.5 -16.35 12.4 -12.45 17.25 -9.7 17.95 -9.15 20.0 -7.65 20.0 -5.9 20.0 -3.2 10.75 -5.1 L7.65 -2.8 M4.8 -4.35 L3.5 -2.8 Q2.9 -1.85 2.85 -0.8 L2.85 -0.5 Q3.2 -1.7 4.4 -2.7 5.05 -3.3 6.65 -4.25 L8.55 -5.55 6.15 -5.95 4.8 -4.35 M4.05 -6.2 L0.95 -6.35 -2.95 -6.15 -2.35 -5.55 -0.8 -3.65 Q0.0 -2.35 0.05 -0.85 0.15 1.75 -0.55 4.4 L-1.5 8.6 Q-2.2 11.45 -2.85 12.35 L-3.5 13.3 -4.45 14.25 5.5 14.25 4.55 13.3 3.9 12.35 Q3.25 11.4 2.55 8.55 L1.55 4.4 Q0.95 1.65 1.0 -0.85 1.05 -2.35 1.85 -3.65 L3.4 -5.55 4.05 -6.2" fill="#c1ae95" fill-rule="evenodd" stroke="none"/>
  </g>
</svg>
