<?xml version="1.0" encoding="UTF-8" standalone="no"?>
<svg xmlns:xlink="http://www.w3.org/1999/xlink" height="39.7px" width="30.9px" xmlns="http://www.w3.org/2000/svg">
  <g transform="matrix(1.0, 0.0, 0.0, 1.0, 15.45, 19.85)">
    <path d="M1.6 -18.0 Q1.9 -17.85 2.05 -16.75 2.2 -15.65 2.3 -15.6 L3.4 -14.2 4.35 -12.15 3.5 -11.55 3.8 -11.0 4.25 -8.85 4.2 -5.8 5.25 -4.55 4.9 -2.25 5.65 -1.4 5.15 -1.1 5.15 -1.0 5.25 -0.6 5.2 -0.5 4.95 4.2 5.35 4.5 4.75 6.1 5.0 6.6 4.75 7.95 5.2 8.55 4.9 12.5 5.65 13.2 6.5 13.15 6.65 13.2 7.1 12.8 7.5 12.55 Q7.6 12.4 7.95 12.85 L8.6 12.8 Q9.25 12.0 8.5 12.55 L8.7 9.95 8.45 7.9 8.45 6.4 8.6 4.9 8.5 4.25 8.6 3.6 9.15 3.55 10.3 4.0 12.45 4.75 13.0 5.15 13.0 5.55 Q12.95 5.95 13.05 6.1 L12.95 7.25 12.9 8.25 12.75 9.45 Q12.5 10.5 13.2 10.85 14.1 11.5 13.85 12.75 13.6 13.9 14.2 18.4 L14.1 18.4 14.15 18.55 -14.2 18.55 Q-14.2 17.2 -12.85 16.2 L-12.9 14.05 -12.95 11.9 -13.05 9.5 Q-13.1 8.2 -12.85 7.95 L-12.4 7.55 -12.15 6.8 -12.15 5.1 -12.05 2.7 -12.3 0.7 -12.05 -1.1 Q-11.9 -2.0 -11.4 -1.75 L-9.75 -0.85 Q-9.2 -0.05 -9.15 0.75 L-8.6 3.0 -8.4 4.85 -8.2 8.2 -7.95 11.85 -7.55 13.25 -5.95 13.25 -5.55 13.05 Q-5.25 12.85 -5.1 11.95 L-4.9 10.7 -4.6 9.3 -4.25 8.25 -3.95 7.55 -4.2 6.4 -4.55 4.8 -3.95 4.45 -3.7 -0.15 -4.3 -1.1 -4.05 -2.05 Q-3.8 -3.05 -4.35 -3.6 L-4.0 -9.4 -2.55 -11.65 -2.4 -13.35 -1.95 -15.95 -1.35 -18.25 -0.05 -18.6 1.6 -18.0" fill="#c1ae95" fill-rule="evenodd" stroke="none"/>
    <path d="M0.35 -19.75 L2.15 -19.1 Q3.15 -18.6 3.35 -16.55 L3.4 -16.25 4.4 -15.0 5.55 -12.6 5.9 -11.7 5.05 -11.1 5.5 -8.95 5.5 -7.25 5.45 -6.25 6.6 -4.9 6.25 -2.65 6.3 -2.6 6.9 -1.85 6.85 -0.65 6.55 -0.5 6.6 -0.35 6.45 -0.15 6.3 3.65 6.9 4.1 6.15 6.0 6.35 6.4 6.1 7.65 6.5 8.2 6.25 11.9 6.65 11.65 6.7 11.6 Q7.1 11.3 7.35 11.25 L7.4 10.95 7.45 9.9 7.35 8.5 Q7.1 8.05 7.3 5.5 L7.35 5.0 Q7.1 3.35 7.75 2.7 8.2 2.25 8.9 2.25 L9.4 2.3 10.65 2.8 11.85 3.2 13.3 3.85 Q14.1 4.25 14.25 4.9 L14.25 5.8 14.25 7.1 14.05 9.45 13.95 9.75 13.95 9.9 Q15.6 10.9 15.1 13.05 14.95 13.75 15.4 17.65 L15.45 19.85 -15.45 19.85 -15.45 18.55 Q-15.35 16.85 -14.1 15.65 L-14.15 13.4 -14.2 11.8 -14.25 10.6 -14.3 9.6 -14.3 8.2 -13.7 7.05 -13.4 6.8 -13.25 2.85 -13.35 2.35 -13.55 0.6 -13.3 -1.15 -13.25 -1.3 Q-12.85 -3.05 -11.6 -3.05 L-10.9 -2.9 -8.75 -1.6 Q-8.0 -0.65 -7.85 0.65 L-7.35 2.9 -7.3 3.4 Q-7.15 3.95 -7.15 4.85 L-6.95 9.15 -6.75 11.45 -6.55 12.0 -6.4 12.0 -5.85 9.3 -5.3 7.45 -5.45 6.55 -5.75 5.15 -6.0 4.2 -5.2 3.75 -5.0 0.2 -5.4 -0.45 Q-5.65 -0.95 -5.4 -1.9 -5.1 -2.55 -5.25 -2.7 L-5.65 -3.1 -5.2 -9.8 -3.75 -12.05 -3.65 -13.35 -3.25 -16.05 Q-2.7 -18.8 -2.0 -19.25 L-0.25 -19.8 0.05 -19.85 0.35 -19.75 M1.6 -18.0 L-0.05 -18.6 -1.35 -18.25 -1.95 -15.95 -2.4 -13.35 -2.55 -11.65 -4.0 -9.4 -4.35 -3.6 Q-3.8 -3.05 -4.05 -2.05 L-4.3 -1.1 -3.7 -0.15 -3.95 4.45 -4.55 4.8 -4.2 6.4 -3.95 7.55 -4.25 8.25 -4.6 9.3 -4.9 10.7 -5.1 11.95 Q-5.25 12.85 -5.55 13.05 L-5.95 13.25 -7.55 13.25 -7.95 11.85 -8.2 8.2 -8.4 4.85 -8.6 3.0 -9.15 0.75 Q-9.2 -0.05 -9.75 -0.85 L-11.4 -1.75 Q-11.9 -2.0 -12.05 -1.1 L-12.3 0.7 -12.05 2.7 -12.15 5.1 -12.15 6.8 -12.4 7.55 -12.85 7.95 Q-13.1 8.2 -13.05 9.5 L-12.95 11.9 -12.9 14.05 -12.85 16.2 Q-14.2 17.2 -14.2 18.55 L14.15 18.55 14.1 18.4 14.2 18.4 Q13.6 13.9 13.85 12.75 14.1 11.5 13.2 10.85 12.5 10.5 12.75 9.45 L12.9 8.25 12.95 7.25 13.05 6.1 Q12.95 5.95 13.0 5.55 L13.0 5.15 12.45 4.75 10.3 4.0 9.15 3.55 8.6 3.6 8.5 4.25 8.6 4.9 8.45 6.4 8.45 7.9 8.7 9.95 8.5 12.55 Q9.25 12.0 8.6 12.8 L7.95 12.85 Q7.6 12.4 7.5 12.55 L7.1 12.8 6.65 13.2 6.5 13.15 5.65 13.2 4.9 12.5 5.2 8.55 4.75 7.95 5.0 6.6 4.75 6.1 5.35 4.5 4.95 4.2 5.2 -0.5 5.25 -0.6 5.15 -1.0 5.15 -1.1 5.65 -1.4 4.9 -2.25 5.25 -4.55 4.2 -5.8 4.25 -8.85 3.8 -11.0 3.5 -11.55 4.35 -12.15 3.4 -14.2 2.3 -15.6 Q2.2 -15.65 2.05 -16.75 1.9 -17.85 1.6 -18.0" fill="#000000" fill-rule="evenodd" stroke="none"/>
  </g>
</svg>
