<?xml version="1.0" encoding="UTF-8" standalone="no"?>
<svg xmlns:xlink="http://www.w3.org/1999/xlink" height="39.65px" width="19.45px" xmlns="http://www.w3.org/2000/svg">
  <g transform="matrix(1.0, 0.0, 0.0, 1.0, 9.7, 19.75)">
    <path d="M3.05 -10.45 Q3.0 -5.6 2.15 -1.75 1.5 1.1 0.05 4.75 -1.45 1.15 -2.05 -1.75 -2.9 -5.55 -2.95 -10.35 L-2.95 -10.75 3.05 -10.75 3.05 -10.45 M9.75 -19.75 L9.75 -10.3 Q9.7 -3.25 8.2 2.5 7.35 5.75 5.0 11.45 3.15 15.65 2.35 18.5 L1.9 19.9 -1.85 19.9 -2.3 18.5 Q-3.1 15.65 -4.95 11.45 -7.3 5.75 -8.15 2.5 -9.65 -3.25 -9.7 -10.25 L-9.7 -19.75 9.75 -19.75 M7.75 -17.75 L-7.7 -17.75 -7.7 -10.3 Q-7.6 -1.4 -5.0 5.9 L-0.35 17.9 0.45 17.9 5.05 5.9 Q7.65 -1.45 7.75 -10.35 L7.75 -17.75" fill="#000000" fill-rule="evenodd" stroke="none"/>
    <path d="M3.05 -10.45 L3.05 -10.75 -2.95 -10.75 -2.95 -10.35 Q-2.9 -5.55 -2.05 -1.75 -1.45 1.15 0.05 4.75 1.5 1.1 2.15 -1.75 3.0 -5.6 3.05 -10.45 M7.75 -17.75 L7.75 -10.35 Q7.65 -1.45 5.05 5.9 L0.45 17.9 -0.35 17.9 -5.0 5.9 Q-7.6 -1.4 -7.7 -10.3 L-7.7 -17.75 7.75 -17.75" fill="#c1ae95" fill-rule="evenodd" stroke="none"/>
  </g>
</svg>
