<?xml version="1.0" encoding="UTF-8" standalone="no"?>
<svg xmlns:xlink="http://www.w3.org/1999/xlink" height="33.7px" width="42.05px" xmlns="http://www.w3.org/2000/svg">
  <g transform="matrix(1.0, 0.0, 0.0, 1.0, 21.0, 16.85)">
    <path d="M-15.75 7.8 L-15.55 7.8 -13.85 7.6 -13.15 7.65 -12.35 7.7 Q-11.65 7.7 -11.15 7.25 -10.6 6.8 -10.05 5.45 L-14.15 2.55 -15.95 6.45 Q-16.45 7.8 -15.75 7.8 M-9.75 4.65 L-9.0 2.85 -12.6 -0.6 -13.8 1.8 -9.75 4.65 M-7.6 -0.25 L-6.6 -2.1 -9.15 -6.8 -10.55 -4.55 -7.6 -0.25 M-5.65 -10.0 L-6.6 -9.65 -4.8 -5.95 Q-3.75 -9.05 -5.25 -9.9 L-5.65 -10.0 M-7.2 -9.2 L-8.65 -7.5 -6.2 -2.95 -5.2 -5.0 -7.2 -9.2 M-10.95 -3.8 L-12.25 -1.35 -8.7 2.05 -8.0 0.55 -10.95 -3.8 M9.05 2.85 L9.8 4.65 13.85 1.8 12.65 -0.6 9.05 2.85 M7.75 9.3 Q7.15 5.3 5.85 1.3 3.3 -6.75 0.0 -6.75 -3.3 -6.75 -5.85 1.3 -7.15 5.3 -7.75 9.3 L-5.25 3.3 Q-2.3 -2.7 0.0 -2.7 2.3 -2.7 5.25 3.3 6.75 6.3 7.75 9.3 M11.2 7.25 Q11.65 7.7 12.4 7.7 L13.9 7.6 15.6 7.8 15.8 7.8 Q16.55 7.8 15.95 6.45 L14.2 2.55 10.1 5.45 Q10.7 6.8 11.2 7.25 M12.3 -1.35 L11.0 -3.8 8.0 0.55 8.7 2.05 12.3 -1.35 M6.65 -2.1 L7.65 -0.25 10.6 -4.55 9.2 -6.8 6.65 -2.1 M8.7 -7.5 L7.25 -9.2 5.25 -5.0 6.25 -2.95 8.7 -7.5 M5.7 -10.0 L5.3 -9.9 Q3.8 -9.05 4.85 -5.95 L6.6 -9.65 Q6.2 -10.0 5.7 -10.0 M0.1 -15.05 L0.1 -15.0 0.55 -13.4 Q0.85 -11.95 1.45 -11.65 L3.45 -10.1 4.0 -10.8 Q4.75 -11.5 5.75 -11.6 L5.95 -11.6 Q6.9 -11.6 7.95 -10.8 L9.05 -9.85 9.1 -9.85 10.45 -11.1 11.95 -12.4 12.05 -12.35 Q12.25 -12.15 11.8 -11.05 L10.95 -9.0 Q10.6 -8.1 11.3 -6.6 L13.2 -3.45 16.25 2.1 18.85 7.5 Q19.75 9.7 18.05 11.85 16.6 13.75 15.45 13.75 L15.15 13.65 Q14.95 13.45 16.05 11.8 17.05 10.25 16.05 9.75 15.25 9.35 14.3 9.35 13.35 9.35 12.45 9.8 L11.75 10.2 Q11.55 11.85 9.9 12.6 L8.35 13.05 Q8.3 13.55 7.85 14.05 7.0 15.0 5.2 15.0 3.4 15.0 2.75 13.7 L2.4 12.4 3.25 11.35 3.25 4.1 Q3.25 3.3 2.85 2.5 2.1 0.9 0.05 0.9 L0.0 0.9 Q-2.05 0.9 -2.8 2.5 L-3.2 4.1 -3.2 11.35 -2.35 12.4 Q-2.35 13.05 -2.7 13.7 -3.35 15.0 -5.15 15.0 -6.95 15.0 -7.85 14.05 L-8.35 13.05 -9.9 12.6 Q-11.5 11.85 -11.7 10.2 -12.75 9.35 -14.25 9.35 L-16.0 9.75 Q-17.0 10.25 -16.0 11.8 -14.9 13.4 -15.15 13.65 L-15.4 13.75 Q-16.55 13.75 -18.0 11.85 -19.7 9.7 -18.85 7.5 L-16.2 2.1 -13.15 -3.45 -11.25 -6.6 Q-10.55 -8.1 -10.9 -9.0 L-11.75 -11.05 Q-12.2 -12.15 -12.0 -12.35 L-11.9 -12.4 -10.45 -11.1 -9.05 -9.85 -9.0 -9.85 -7.9 -10.8 Q-6.8 -11.6 -5.9 -11.6 L-5.7 -11.6 Q-4.1 -11.45 -3.4 -10.1 L-2.8 -10.65 -1.4 -11.65 Q-0.8 -11.95 -0.5 -13.4 L-0.05 -15.0 -0.05 -15.05 0.1 -15.05" fill="#c1ae95" fill-rule="evenodd" stroke="none"/>
    <path d="M10.55 -13.65 Q11.25 -14.2 11.95 -14.2 12.85 -14.2 13.35 -13.6 14.05 -12.85 13.9 -11.7 L13.15 -9.55 12.65 -8.35 Q12.55 -8.05 14.15 -5.35 L14.75 -4.4 17.9 1.25 20.55 6.85 Q21.15 8.35 21.0 9.8 20.85 11.4 19.8 12.6 16.0 16.85 5.2 16.85 L-5.15 16.85 -11.7 16.6 Q-17.3 15.75 -19.75 12.6 -21.75 10.0 -20.5 6.85 -19.85 5.2 -17.8 1.25 L-14.7 -4.4 -14.1 -5.35 Q-12.45 -8.05 -12.6 -8.35 L-13.1 -9.55 -13.85 -11.7 Q-14.0 -12.85 -13.3 -13.6 -12.75 -14.2 -11.9 -14.2 -11.2 -14.2 -10.5 -13.65 L-9.0 -12.25 Q-7.35 -13.4 -5.9 -13.4 L-5.55 -13.4 Q-4.2 -13.25 -3.3 -12.6 L-2.35 -14.8 Q-1.35 -16.85 -0.05 -16.85 1.25 -16.85 2.35 -14.8 L3.35 -12.6 Q4.25 -13.25 5.6 -13.4 L5.95 -13.4 Q7.45 -13.4 9.0 -12.25 L9.05 -12.25 10.55 -13.65 M0.1 -15.05 L-0.05 -15.05 -0.05 -15.0 -0.5 -13.4 Q-0.8 -11.95 -1.4 -11.65 L-2.8 -10.65 -3.4 -10.1 Q-4.1 -11.45 -5.7 -11.6 L-5.9 -11.6 Q-6.8 -11.6 -7.9 -10.8 L-9.0 -9.85 -9.05 -9.85 -10.45 -11.1 -11.9 -12.4 -12.0 -12.35 Q-12.2 -12.15 -11.75 -11.05 L-10.9 -9.0 Q-10.55 -8.1 -11.25 -6.6 L-13.15 -3.45 -16.2 2.1 -18.85 7.5 Q-19.7 9.7 -18.0 11.85 -16.55 13.75 -15.4 13.75 L-15.15 13.65 Q-14.9 13.4 -16.0 11.8 -17.0 10.25 -16.0 9.75 L-14.25 9.35 Q-12.75 9.35 -11.7 10.2 -11.5 11.85 -9.9 12.6 L-8.35 13.05 -7.85 14.05 Q-6.95 15.0 -5.15 15.0 -3.35 15.0 -2.7 13.7 -2.35 13.05 -2.35 12.4 L-3.2 11.35 -3.2 4.1 -2.8 2.5 Q-2.05 0.9 0.0 0.9 L0.05 0.9 Q2.1 0.9 2.85 2.5 3.25 3.3 3.25 4.1 L3.25 11.35 2.4 12.4 2.75 13.7 Q3.4 15.0 5.2 15.0 7.0 15.0 7.85 14.05 8.3 13.55 8.35 13.05 L9.9 12.6 Q11.55 11.85 11.75 10.2 L12.45 9.8 Q13.35 9.35 14.3 9.35 15.25 9.35 16.05 9.75 17.05 10.25 16.05 11.8 14.95 13.45 15.15 13.65 L15.45 13.75 Q16.6 13.75 18.05 11.85 19.75 9.7 18.85 7.5 L16.25 2.1 13.2 -3.45 11.3 -6.6 Q10.6 -8.1 10.95 -9.0 L11.8 -11.05 Q12.25 -12.15 12.05 -12.35 L11.95 -12.4 10.45 -11.1 9.1 -9.85 9.05 -9.85 7.95 -10.8 Q6.9 -11.6 5.95 -11.6 L5.75 -11.6 Q4.75 -11.5 4.0 -10.8 L3.45 -10.1 1.45 -11.65 Q0.85 -11.95 0.55 -13.4 L0.1 -15.0 0.1 -15.05 M5.7 -10.0 Q6.2 -10.0 6.6 -9.65 L4.85 -5.95 Q3.8 -9.05 5.3 -9.9 L5.7 -10.0 M8.7 -7.5 L6.25 -2.95 5.25 -5.0 7.25 -9.2 8.7 -7.5 M6.65 -2.1 L9.2 -6.8 10.6 -4.55 7.65 -0.25 6.65 -2.1 M12.3 -1.35 L8.7 2.05 8.0 0.55 11.0 -3.8 12.3 -1.35 M11.2 7.25 Q10.7 6.8 10.1 5.45 L14.2 2.55 15.95 6.45 Q16.55 7.8 15.8 7.8 L15.6 7.8 13.9 7.6 12.4 7.7 Q11.65 7.7 11.2 7.25 M7.75 9.3 Q6.75 6.3 5.25 3.3 2.3 -2.7 0.0 -2.7 -2.3 -2.7 -5.25 3.3 L-7.75 9.3 Q-7.15 5.3 -5.85 1.3 -3.3 -6.75 0.0 -6.75 3.3 -6.75 5.85 1.3 7.15 5.3 7.75 9.3 M9.05 2.85 L12.65 -0.6 13.85 1.8 9.8 4.65 9.05 2.85 M-10.95 -3.8 L-8.0 0.55 -8.7 2.05 -12.25 -1.35 -10.95 -3.8 M-7.2 -9.2 L-5.2 -5.0 -6.2 -2.95 -8.65 -7.5 -7.2 -9.2 M-5.65 -10.0 L-5.25 -9.9 Q-3.75 -9.05 -4.8 -5.95 L-6.6 -9.65 -5.65 -10.0 M-7.6 -0.25 L-10.55 -4.55 -9.15 -6.8 -6.6 -2.1 -7.6 -0.25 M-9.75 4.65 L-13.8 1.8 -12.6 -0.6 -9.0 2.85 -9.75 4.65 M-15.75 7.8 Q-16.45 7.8 -15.95 6.45 L-14.15 2.55 -10.05 5.45 Q-10.6 6.8 -11.15 7.25 -11.65 7.7 -12.35 7.7 L-13.15 7.65 -13.85 7.6 -15.55 7.8 -15.75 7.8" fill="#231f20" fill-rule="evenodd" stroke="none"/>
  </g>
</svg>
