<?xml version="1.0" encoding="UTF-8" standalone="no"?>
<svg xmlns:xlink="http://www.w3.org/1999/xlink" height="37.4px" width="40.0px" xmlns="http://www.w3.org/2000/svg">
  <g transform="matrix(1.0, 0.0, 0.0, 1.0, 20.0, 18.7)">
    <path d="M16.95 -17.55 L17.3 -16.8 Q18.4 -14.0 17.75 -8.55 L17.4 -6.25 18.35 -5.3 18.35 7.65 20.0 9.25 20.0 16.3 17.55 18.7 -17.6 18.7 -20.0 16.3 -20.0 9.25 -18.4 7.65 -18.4 -5.3 -17.45 -6.25 -17.8 -8.55 Q-18.45 -14.05 -17.3 -16.8 L-17.0 -17.55 -15.25 -17.55 -14.9 -17.05 Q-14.15 -16.1 -13.5 -13.95 L-12.7 -14.7 Q-9.75 -12.25 -9.75 -8.45 L-9.85 -7.2 -8.8 -7.2 Q-9.15 -8.55 -9.15 -10.2 -9.15 -14.8 -6.05 -18.15 L-3.65 -18.7 -2.85 -17.4 Q-4.1 -15.75 -4.5 -13.6 -3.1 -16.15 -0.65 -17.5 L0.0 -17.85 0.65 -17.5 Q3.05 -16.3 4.45 -13.7 4.1 -15.7 2.85 -17.4 L3.65 -18.7 6.05 -18.15 Q9.15 -14.8 9.15 -10.2 9.15 -8.7 8.75 -7.2 L9.85 -7.2 9.75 -8.45 Q9.75 -12.3 12.7 -14.7 L13.45 -13.95 Q14.05 -15.95 14.85 -17.05 L15.2 -17.55 16.95 -17.55 M0.0 -16.1 Q-1.9 -15.1 -3.1 -13.1 -4.4 -11.0 -4.4 -8.6 -4.4 -7.05 -3.85 -5.65 L-4.0 -5.65 Q-6.05 -8.35 -6.05 -11.85 -6.05 -15.35 -4.0 -18.1 -7.8 -14.9 -7.8 -10.0 -7.8 -7.65 -6.8 -5.65 L-11.7 -5.65 Q-11.15 -6.9 -11.15 -8.3 -11.15 -11.5 -13.6 -13.45 -12.25 -11.7 -12.25 -9.45 -12.25 -7.35 -13.45 -5.65 L-13.65 -5.65 Q-13.65 -7.35 -13.9 -8.85 -14.4 -13.7 -16.0 -16.1 -16.45 -15.1 -16.55 -13.05 L-16.4 -8.55 -15.9 -5.65 -17.0 -4.55 -17.0 8.4 -18.6 10.0 -18.6 15.85 -17.0 17.5 16.95 17.5 18.6 15.85 18.6 10.0 16.95 8.4 16.95 -4.55 15.9 -5.65 15.85 -5.65 16.35 -8.55 Q17.0 -13.75 16.0 -16.1 14.45 -13.95 13.85 -8.85 L13.6 -5.65 13.45 -5.65 Q12.25 -7.35 12.25 -9.45 12.25 -11.65 13.55 -13.45 11.15 -11.45 11.15 -8.3 11.15 -6.9 11.7 -5.65 L6.8 -5.65 Q7.75 -7.7 7.75 -10.0 7.75 -14.95 3.95 -18.1 6.05 -15.25 6.05 -11.85 6.05 -8.35 4.0 -5.65 L3.85 -5.65 Q4.4 -7.05 4.4 -8.6 4.4 -11.0 3.1 -13.15 1.9 -15.1 0.0 -16.1 M3.05 -7.45 L2.8 -5.65 -2.85 -5.65 -3.05 -7.45 Q-3.05 -9.3 -2.0 -11.25 -0.95 -13.15 0.0 -13.15 0.95 -13.15 2.0 -11.25 3.05 -9.3 3.05 -7.45 M4.8 -0.85 L6.65 -0.85 Q7.15 -0.85 7.45 -0.5 L7.8 0.25 7.8 7.95 Q7.5 6.85 6.9 6.0 6.25 5.15 5.75 5.15 5.2 5.15 4.6 6.0 4.0 6.85 3.7 7.95 L3.7 0.25 Q3.7 -0.2 4.05 -0.5 4.35 -0.85 4.8 -0.85 M1.7 -0.5 L2.05 0.25 2.05 7.95 1.15 6.0 Q0.5 5.15 0.0 5.15 -0.55 5.15 -1.15 6.0 L-2.05 7.95 -2.05 0.25 -1.7 -0.5 Q-1.4 -0.85 -0.95 -0.85 L0.9 -0.85 Q1.4 -0.85 1.7 -0.5 M13.25 -0.5 L13.55 0.25 13.55 7.95 Q13.25 6.85 12.65 6.0 12.0 5.15 11.5 5.15 11.0 5.15 10.35 6.0 9.75 6.85 9.45 7.95 L9.45 0.25 Q9.45 -0.2 9.8 -0.5 10.1 -0.85 10.55 -0.85 L12.45 -0.85 Q12.9 -0.85 13.25 -0.5 M13.55 10.3 L13.55 11.75 13.25 12.55 Q12.9 12.9 12.45 12.9 L10.55 12.9 Q10.1 12.9 9.8 12.55 9.45 12.25 9.45 11.75 L9.45 10.45 Q9.45 9.7 10.2 7.95 11.0 6.05 11.5 6.05 12.0 6.05 12.8 7.75 13.55 9.4 13.55 10.3 M3.7 10.45 Q3.7 9.7 4.45 7.95 5.25 6.05 5.75 6.05 6.25 6.05 7.05 7.75 7.8 9.4 7.8 10.3 L7.8 11.75 Q7.8 12.25 7.45 12.55 7.15 12.9 6.65 12.9 L4.8 12.9 Q4.35 12.9 4.05 12.55 3.7 12.25 3.7 11.75 L3.7 10.45 M2.05 11.75 Q2.05 12.25 1.7 12.55 1.4 12.9 0.9 12.9 L-0.95 12.9 Q-1.4 12.9 -1.7 12.55 -2.05 12.25 -2.05 11.75 L-2.05 10.45 Q-2.05 9.7 -1.3 7.95 -0.5 6.05 0.0 6.05 0.5 6.05 1.3 7.75 2.05 9.4 2.05 10.3 L2.05 11.75 M-12.45 -0.85 L-10.6 -0.85 Q-10.1 -0.85 -9.8 -0.5 -9.45 -0.2 -9.45 0.25 L-9.45 7.95 Q-9.75 6.85 -10.35 6.0 -11.0 5.15 -11.5 5.15 -12.05 5.15 -12.65 6.0 -13.25 6.8 -13.6 7.95 L-13.6 0.25 -13.25 -0.5 Q-12.9 -0.85 -12.45 -0.85 M-6.7 -0.85 L-4.85 -0.85 Q-4.45 -0.65 -4.05 -0.5 -3.7 -0.2 -3.7 0.25 L-3.7 7.95 Q-4.0 6.85 -4.6 6.0 -5.25 5.15 -5.75 5.15 -6.3 5.15 -6.9 6.0 -7.5 6.8 -7.85 7.95 L-7.85 0.25 Q-7.85 -0.2 -7.5 -0.5 L-6.7 -0.85 M-7.85 10.45 Q-7.85 9.7 -7.1 7.95 -6.25 6.05 -5.75 6.05 -5.25 6.05 -4.45 7.75 -3.7 9.4 -3.7 10.3 L-3.7 11.75 Q-3.7 12.25 -4.05 12.55 -4.45 12.75 -4.85 12.9 L-6.7 12.9 -7.5 12.55 Q-7.85 12.25 -7.85 11.75 L-7.85 10.45 M-9.45 11.75 Q-9.45 12.25 -9.8 12.55 -10.1 12.9 -10.6 12.9 L-12.45 12.9 Q-12.9 12.9 -13.25 12.55 -13.6 12.25 -13.6 11.75 L-13.6 10.45 Q-13.6 9.7 -12.85 7.95 -12.0 6.05 -11.5 6.05 -11.0 6.05 -10.2 7.75 -9.45 9.4 -9.45 10.3 L-9.45 11.75" fill="#000000" fill-rule="evenodd" stroke="none"/>
    <path d="M-9.45 11.75 L-9.45 10.3 Q-9.45 9.4 -10.2 7.75 -11.0 6.05 -11.5 6.05 -12.0 6.05 -12.85 7.95 -13.6 9.7 -13.6 10.45 L-13.6 11.75 Q-13.6 12.25 -13.25 12.55 -12.9 12.9 -12.45 12.9 L-10.6 12.9 Q-10.1 12.9 -9.8 12.55 -9.45 12.25 -9.45 11.75 M-7.85 10.45 L-7.85 11.75 Q-7.85 12.25 -7.5 12.55 L-6.7 12.9 -4.85 12.9 Q-4.45 12.75 -4.05 12.55 -3.7 12.25 -3.7 11.75 L-3.7 10.3 Q-3.7 9.4 -4.45 7.75 -5.25 6.05 -5.75 6.05 -6.25 6.05 -7.1 7.95 -7.85 9.7 -7.85 10.45 M-6.7 -0.85 L-7.5 -0.5 Q-7.85 -0.2 -7.85 0.25 L-7.85 7.95 Q-7.5 6.8 -6.9 6.0 -6.3 5.15 -5.75 5.15 -5.25 5.15 -4.6 6.0 -4.0 6.85 -3.7 7.95 L-3.7 0.25 Q-3.7 -0.2 -4.05 -0.5 -4.45 -0.65 -4.85 -0.85 L-6.7 -0.85 M-12.45 -0.85 Q-12.9 -0.85 -13.25 -0.5 L-13.6 0.25 -13.6 7.95 Q-13.25 6.8 -12.65 6.0 -12.05 5.15 -11.5 5.15 -11.0 5.15 -10.35 6.0 -9.75 6.85 -9.45 7.95 L-9.45 0.25 Q-9.45 -0.2 -9.8 -0.5 -10.1 -0.85 -10.6 -0.85 L-12.45 -0.85 M2.05 11.75 L2.05 10.3 Q2.05 9.4 1.3 7.75 0.5 6.05 0.0 6.05 -0.5 6.05 -1.3 7.95 -2.05 9.7 -2.05 10.45 L-2.05 11.75 Q-2.05 12.25 -1.7 12.55 -1.4 12.9 -0.95 12.9 L0.9 12.9 Q1.4 12.9 1.7 12.55 2.05 12.25 2.05 11.75 M3.7 10.45 L3.7 11.75 Q3.7 12.25 4.05 12.55 4.35 12.9 4.8 12.9 L6.65 12.9 Q7.15 12.9 7.45 12.55 7.8 12.25 7.8 11.75 L7.8 10.3 Q7.8 9.4 7.05 7.75 6.25 6.05 5.75 6.05 5.25 6.05 4.45 7.95 3.7 9.7 3.7 10.45 M13.55 10.3 Q13.55 9.4 12.8 7.75 12.0 6.05 11.5 6.05 11.0 6.05 10.2 7.95 9.45 9.7 9.45 10.45 L9.45 11.75 Q9.45 12.25 9.8 12.55 10.1 12.9 10.55 12.9 L12.45 12.9 Q12.9 12.9 13.25 12.55 L13.55 11.75 13.55 10.3 M13.25 -0.5 Q12.9 -0.85 12.45 -0.85 L10.55 -0.85 Q10.1 -0.85 9.8 -0.5 9.45 -0.2 9.45 0.25 L9.45 7.95 Q9.75 6.85 10.35 6.0 11.0 5.15 11.5 5.15 12.0 5.15 12.65 6.0 13.25 6.85 13.55 7.95 L13.55 0.25 13.25 -0.5 M1.7 -0.5 Q1.4 -0.85 0.9 -0.85 L-0.95 -0.85 Q-1.4 -0.85 -1.7 -0.5 L-2.05 0.25 -2.05 7.95 -1.15 6.0 Q-0.55 5.15 0.0 5.15 0.5 5.15 1.15 6.0 L2.05 7.95 2.05 0.25 1.7 -0.5 M4.8 -0.85 Q4.35 -0.85 4.05 -0.5 3.7 -0.2 3.7 0.25 L3.7 7.95 Q4.0 6.85 4.6 6.0 5.2 5.15 5.75 5.15 6.25 5.15 6.9 6.0 7.5 6.85 7.8 7.95 L7.8 0.25 7.45 -0.5 Q7.15 -0.85 6.65 -0.85 L4.8 -0.85 M3.05 -7.45 Q3.05 -9.3 2.0 -11.25 0.95 -13.15 0.0 -13.15 -0.95 -13.15 -2.0 -11.25 -3.05 -9.3 -3.05 -7.45 L-2.85 -5.65 2.8 -5.65 3.05 -7.45 M0.0 -16.1 Q1.9 -15.1 3.1 -13.15 4.4 -11.0 4.4 -8.6 4.4 -7.05 3.85 -5.65 L4.0 -5.65 Q6.05 -8.35 6.05 -11.85 6.05 -15.25 3.95 -18.1 7.75 -14.95 7.75 -10.0 7.75 -7.7 6.8 -5.65 L11.7 -5.65 Q11.15 -6.9 11.15 -8.3 11.15 -11.45 13.55 -13.45 12.25 -11.65 12.25 -9.45 12.25 -7.35 13.45 -5.65 L13.6 -5.65 13.85 -8.85 Q14.45 -13.95 16.0 -16.1 17.0 -13.75 16.35 -8.55 L15.85 -5.65 15.9 -5.65 16.95 -4.55 16.95 8.4 18.6 10.0 18.6 15.85 16.95 17.5 -17.0 17.5 -18.6 15.85 -18.6 10.0 -17.0 8.4 -17.0 -4.55 -15.9 -5.65 -16.4 -8.55 -16.55 -13.05 Q-16.45 -15.1 -16.0 -16.1 -14.4 -13.7 -13.9 -8.85 -13.65 -7.35 -13.65 -5.65 L-13.45 -5.65 Q-12.25 -7.35 -12.25 -9.45 -12.25 -11.7 -13.6 -13.45 -11.15 -11.5 -11.15 -8.3 -11.15 -6.9 -11.7 -5.65 L-6.8 -5.65 Q-7.8 -7.65 -7.8 -10.0 -7.8 -14.9 -4.0 -18.1 -6.05 -15.35 -6.05 -11.85 -6.05 -8.35 -4.0 -5.65 L-3.85 -5.65 Q-4.4 -7.05 -4.4 -8.6 -4.4 -11.0 -3.1 -13.1 -1.9 -15.1 0.0 -16.1" fill="#c1ae95" fill-rule="evenodd" stroke="none"/>
  </g>
</svg>
