<?xml version="1.0" encoding="UTF-8" standalone="no"?>
<svg xmlns:xlink="http://www.w3.org/1999/xlink" height="36.0px" width="42.0px" xmlns="http://www.w3.org/2000/svg">
  <g transform="matrix(1.0, 0.0, 0.0, 1.0, 21.0, 18.0)">
    <path d="M14.0 -2.1 L18.55 16.0 8.85 16.0 5.6 3.6 -0.45 -1.75 -2.05 5.55 -3.95 3.2 -8.1 16.0 -18.55 16.0 -16.25 2.35 -13.0 0.85 -10.7 -11.85 -9.1 -14.1 -7.45 -10.95 4.6 -10.6 6.1 -12.65 9.15 -8.95 10.0 -4.2 14.0 -2.1" fill="#c1ae95" fill-rule="evenodd" stroke="none"/>
    <path d="M11.7 -5.55 L15.65 -3.45 21.0 18.0 7.25 18.0 3.75 4.7 0.65 2.0 -1.1 10.1 -3.3 7.35 -6.75 18.0 -21.0 18.0 -18.15 0.95 -14.85 -0.55 -12.7 -12.6 -8.95 -18.0 -6.35 -12.9 3.5 -12.6 5.9 -15.9 10.95 -9.8 11.7 -5.55 M14.0 -2.1 L10.0 -4.2 9.15 -8.95 6.1 -12.65 4.6 -10.6 -7.45 -10.95 -9.1 -14.1 -10.7 -11.85 -13.0 0.85 -16.25 2.35 -18.55 16.0 -8.1 16.0 -3.95 3.2 -2.05 5.55 -0.45 -1.75 5.6 3.6 8.85 16.0 18.55 16.0 14.0 -2.1" fill="#231f20" fill-rule="evenodd" stroke="none"/>
  </g>
</svg>
