<?xml version="1.0" encoding="UTF-8" standalone="no"?>
<svg xmlns:xlink="http://www.w3.org/1999/xlink" height="42.0px" width="20.55px" xmlns="http://www.w3.org/2000/svg">
  <g transform="matrix(1.0, 0.0, 0.0, 1.0, 10.05, 21.15)">
    <path d="M5.75 -9.45 L2.2 -11.2 2.9 -12.4 0.7 -14.35 0.7 -14.1 0.7 4.6 3.95 5.9 -1.65 18.4 -7.05 5.65 -3.85 4.5 -3.85 -15.5 -1.4 -18.55 -1.35 -18.7 3.8 -13.8 7.4 -11.9 5.95 -9.4 5.75 -9.45" fill="#c1ae95" fill-rule="evenodd" stroke="none"/>
    <path d="M0.7 -14.1 L2.65 -12.4 1.95 -11.2 5.7 -9.4 5.75 -9.45 5.95 -9.4 7.4 -11.9 3.8 -13.8 -1.35 -18.7 -1.4 -18.55 -3.85 -15.5 -3.85 4.5 -7.05 5.65 -1.65 18.4 3.95 5.9 0.7 4.6 0.7 -14.1 M6.75 -6.2 L2.85 -8.15 2.85 3.3 6.9 4.85 -0.2 20.85 -3.15 20.85 -10.05 4.65 -6.15 3.2 -6.15 -16.1 -2.05 -21.15 -1.1 -21.15 5.05 -15.45 10.5 -12.65 6.75 -6.2" fill="#000000" fill-rule="evenodd" stroke="none"/>
  </g>
</svg>
