<?xml version="1.0" encoding="UTF-8" standalone="no"?>
<svg xmlns:xlink="http://www.w3.org/1999/xlink" height="42.05px" width="29.15px" xmlns="http://www.w3.org/2000/svg">
  <g transform="matrix(1.0, 0.0, 0.0, 1.0, 14.55, 20.95)">
    <path d="M6.8 -17.45 L3.5 -9.0 0.05 -3.95 -3.4 -9.0 -6.7 -17.45 -8.7 -15.6 -4.5 -5.9 -5.4 -3.6 Q-7.1 -8.8 -8.45 -9.5 L-9.85 -9.7 -10.65 -9.55 -9.2 -8.35 Q-8.8 -7.95 -7.3 -2.7 L-6.9 2.8 -4.1 4.8 -2.7 9.35 Q-3.65 16.2 -3.95 16.4 L-1.4 16.9 0.15 18.4 1.5 16.9 4.0 16.4 Q3.75 16.2 2.75 9.35 L4.2 4.8 7.0 2.8 7.4 -2.7 8.25 -5.5 Q9.05 -8.1 9.3 -8.35 L10.7 -9.55 8.5 -9.5 Q7.7 -9.05 6.5 -6.3 L5.5 -3.6 4.6 -5.9 8.8 -15.6 6.8 -17.45 M9.35 -11.8 L9.3 -11.7 11.35 -11.45 14.6 -10.4 10.85 -7.05 9.35 -2.3 8.95 3.2 8.8 3.95 5.9 6.05 4.8 9.5 5.7 15.05 8.6 16.7 4.75 18.25 2.5 18.75 0.4 21.1 -2.35 18.75 -4.65 18.25 -8.5 16.7 -5.6 15.05 -4.75 9.5 -5.8 6.05 -8.7 3.95 -8.9 3.2 -9.25 -2.3 Q-10.45 -6.35 -10.8 -7.05 L-14.55 -10.4 -11.25 -11.45 -9.2 -11.7 -11.1 -16.15 -5.95 -20.95 -1.6 -9.95 0.05 -7.5 1.7 -9.95 6.0 -20.95 11.15 -16.15 9.35 -11.8 M2.05 3.3 L1.85 1.6 4.6 0.65 4.0 2.8 2.05 3.3 M-3.9 2.8 L-4.5 0.65 -1.8 1.6 -2.0 3.3 -3.9 2.8" fill="#000000" fill-rule="evenodd" stroke="none"/>
    <path d="M6.8 -17.45 L8.8 -15.6 4.6 -5.9 5.5 -3.6 6.5 -6.3 Q7.7 -9.05 8.5 -9.5 L10.7 -9.55 9.3 -8.35 Q9.05 -8.1 8.25 -5.5 L7.4 -2.7 7.0 2.8 4.2 4.8 2.75 9.35 Q3.75 16.2 4.0 16.4 L1.5 16.9 0.15 18.4 -1.4 16.9 -3.95 16.4 Q-3.65 16.2 -2.7 9.35 L-4.1 4.8 -6.9 2.8 -7.3 -2.7 Q-8.8 -7.95 -9.2 -8.35 L-10.65 -9.55 -9.85 -9.7 -8.45 -9.5 Q-7.1 -8.8 -5.4 -3.6 L-4.5 -5.9 -8.7 -15.6 -6.7 -17.45 -3.4 -9.0 0.05 -3.95 3.5 -9.0 6.8 -17.45 M-3.9 2.8 L-2.0 3.3 -1.8 1.6 -4.5 0.65 -3.9 2.8 M2.05 3.3 L4.0 2.8 4.6 0.65 1.85 1.6 2.05 3.3" fill="#c1ae95" fill-rule="evenodd" stroke="none"/>
  </g>
</svg>
