<?xml version="1.0" encoding="UTF-8" standalone="no"?>
<svg xmlns:xlink="http://www.w3.org/1999/xlink" height="42.0px" width="31.2px" xmlns="http://www.w3.org/2000/svg">
  <g transform="matrix(1.0, 0.0, 0.0, 1.0, 15.6, 21.0)">
    <path d="M14.15 -13.8 L14.2 -13.3 Q14.3 -11.05 13.35 -9.6 L13.8 -9.05 13.95 -8.15 Q13.8 -6.4 12.3 -5.55 L12.2 -4.5 Q11.8 -3.45 10.9 -2.75 L10.9 -2.6 Q11.0 -0.9 9.75 0.15 L9.85 0.6 Q9.95 2.45 8.25 3.6 8.65 3.7 8.95 4.05 L10.45 6.25 Q10.8 6.75 10.75 7.3 10.7 7.9 10.3 8.3 L10.5 8.35 Q11.15 8.55 11.85 9.6 L11.9 9.7 15.4 15.7 15.6 16.45 15.6 16.65 15.5 17.2 Q15.1 18.35 13.7 19.4 12.45 20.4 10.85 20.45 L9.85 20.45 9.6 20.4 9.4 20.4 9.05 20.35 Q8.4 20.3 7.95 19.65 6.7 17.55 4.9 13.35 L4.85 13.2 Q4.4 12.4 4.45 11.75 4.45 11.25 4.75 10.85 L1.0 11.6 Q0.25 14.9 0.0 18.75 L0.0 21.0 -3.95 21.0 -3.95 19.25 -4.0 18.9 -3.95 11.7 Q-8.75 11.25 -11.85 8.25 -15.3 4.8 -15.6 -0.4 L-15.6 -1.5 Q-15.45 -4.15 -14.4 -6.85 -13.65 -8.7 -12.3 -10.75 -9.9 -14.3 -6.75 -16.95 L-5.8 -17.3 -5.6 -17.3 -5.1 -17.2 Q-4.85 -18.4 -4.0 -19.55 L-3.05 -20.65 -2.05 -21.0 Q-1.45 -21.0 -1.05 -20.65 L0.05 -19.45 Q0.95 -18.1 1.1 -16.75 1.95 -16.85 2.45 -16.2 L3.15 -14.65 Q3.35 -13.45 2.9 -12.25 L3.1 -12.05 3.5 -11.3 3.95 -11.55 4.4 -11.65 Q4.8 -13.05 5.9 -13.8 6.75 -14.4 7.55 -14.4 8.25 -14.4 8.75 -13.8 10.1 -14.85 12.15 -14.85 13.75 -14.85 14.15 -13.8 M6.75 -12.7 Q6.0 -12.15 5.8 -11.1 5.4 -9.4 6.3 -7.1 7.65 -7.35 7.9 -8.9 8.05 -9.9 7.8 -11.55 L7.55 -13.0 6.75 -12.7 M0.1 -14.4 Q-1.15 -13.3 -1.6 -12.3 -2.1 -11.35 -1.85 -10.4 L-1.5 -9.7 Q0.65 -11.15 1.4 -12.7 2.15 -14.3 1.25 -15.35 L0.1 -14.4 M7.25 -6.45 L8.7 -6.4 11.15 -6.75 Q12.0 -7.1 12.3 -7.85 L12.45 -8.5 8.6 -8.4 Q7.65 -8.0 7.35 -7.2 L7.25 -6.45 M9.85 -9.35 Q11.15 -9.6 11.85 -10.25 12.9 -11.3 12.7 -13.4 10.65 -13.7 9.45 -12.5 8.7 -11.8 8.65 -10.4 8.6 -9.75 8.7 -9.2 L9.85 -9.35 M1.9 -11.3 L0.6 -10.4 Q-0.8 -9.3 -1.35 -8.35 -1.95 -7.35 -1.75 -6.35 L-1.45 -5.6 Q0.9 -6.95 1.8 -8.55 2.75 -10.1 1.9 -11.3 M3.05 -8.05 Q3.0 -6.2 4.35 -3.95 5.6 -4.4 5.6 -6.1 L5.1 -8.85 4.55 -10.25 Q4.2 -10.15 3.8 -9.85 3.05 -9.2 3.05 -8.05 M3.05 -2.25 L2.8 -3.15 Q0.05 -2.0 -1.15 -0.4 -1.95 0.6 -1.85 1.7 L-1.65 2.6 -0.1 1.85 Q1.55 0.85 2.35 -0.15 3.1 -1.1 3.05 -2.25 M3.65 -0.15 L5.2 -0.15 Q7.0 -0.25 7.95 -0.65 9.5 -1.2 9.4 -2.5 L5.05 -2.3 Q4.05 -1.85 3.75 -0.95 L3.65 -0.15 M9.45 -3.75 Q10.85 -4.35 10.8 -5.55 L6.7 -5.4 Q5.75 -4.95 5.45 -4.1 L5.35 -3.35 6.85 -3.35 9.45 -3.75 M2.45 -7.2 Q-0.1 -5.95 -1.15 -4.35 -1.85 -3.4 -1.7 -2.35 L-1.45 -1.5 -0.05 -2.3 Q1.5 -3.35 2.2 -4.35 3.25 -5.9 2.45 -7.2 M8.35 0.55 L3.75 0.8 Q2.65 1.25 2.35 2.25 L2.25 3.05 3.9 3.05 6.8 2.5 Q7.85 2.15 8.2 1.3 L8.35 0.55 M6.1 5.75 Q3.75 6.7 0.55 7.05 L1.85 3.25 1.75 0.8 Q0.8 3.2 -0.35 7.1 L-1.5 7.15 -1.5 2.8 -2.45 2.8 -2.45 7.1 Q-6.8 6.7 -9.0 3.2 -10.8 0.35 -10.85 -3.8 -10.9 -7.1 -8.35 -11.45 L-5.75 -15.15 -5.55 -15.55 -5.6 -15.9 -5.8 -15.9 Q-8.75 -13.4 -11.05 -10.0 L-13.0 -6.4 Q-14.0 -3.9 -14.05 -1.6 L-14.05 -0.6 Q-13.85 3.95 -10.75 7.05 -7.9 9.9 -2.85 10.15 L-2.45 10.15 -2.45 18.55 -2.5 18.85 -2.45 18.85 -1.5 18.55 Q-1.3 14.6 -0.25 10.1 2.45 9.9 5.65 8.85 6.5 9.8 6.45 10.45 L6.25 11.15 5.95 11.7 6.3 12.65 Q7.95 16.5 9.25 18.75 L10.8 18.8 Q11.95 18.75 12.8 18.05 13.8 17.3 14.1 16.55 L14.1 16.3 10.65 10.45 10.05 9.7 9.5 9.7 Q8.8 9.7 8.25 9.25 7.05 8.25 7.8 7.75 8.2 7.45 9.25 7.05 L7.8 4.9 6.1 5.75 M-2.05 -19.6 L-2.85 -18.65 Q-3.7 -17.45 -3.7 -16.35 -3.7 -14.6 -2.05 -13.15 -0.4 -14.6 -0.4 -16.35 -0.4 -17.45 -1.2 -18.65 L-2.05 -19.6 M-5.7 -14.6 Q-5.95 -13.7 -5.5 -12.7 -4.75 -11.15 -2.6 -9.7 -1.7 -10.75 -2.5 -12.3 -2.95 -13.3 -4.2 -14.4 L-5.35 -15.35 -5.7 -14.6 M-4.65 -10.4 L-5.95 -11.3 -6.25 -10.5 Q-6.45 -9.5 -5.85 -8.55 -4.95 -6.95 -2.6 -5.6 -1.75 -6.75 -2.7 -8.35 -3.25 -9.3 -4.65 -10.4 M-6.5 -7.2 L-6.75 -6.35 Q-6.9 -5.3 -6.25 -4.35 -5.15 -2.75 -2.6 -1.5 -2.4 -1.8 -2.35 -2.35 -2.2 -3.4 -2.9 -4.35 -3.55 -5.35 -5.1 -6.35 L-6.5 -7.2 M-6.4 -0.15 Q-5.15 1.45 -2.4 2.6 L-2.2 1.7 Q-2.1 0.6 -2.9 -0.4 L-5.35 -2.35 -6.85 -3.15 -7.1 -2.25 Q-7.2 -1.1 -6.4 -0.15" fill="#000000" fill-rule="evenodd" stroke="none"/>
    <path d="M8.35 0.55 L8.2 1.3 Q7.85 2.15 6.8 2.5 L3.9 3.05 2.25 3.05 2.35 2.25 Q2.65 1.25 3.75 0.8 L8.35 0.55 M2.45 -7.2 Q3.25 -5.9 2.2 -4.35 1.5 -3.35 -0.05 -2.3 L-1.45 -1.5 -1.7 -2.35 Q-1.85 -3.4 -1.15 -4.35 -0.1 -5.95 2.45 -7.2 M9.45 -3.75 L6.85 -3.35 5.35 -3.35 5.45 -4.1 Q5.75 -4.95 6.7 -5.4 L10.8 -5.55 Q10.85 -4.35 9.45 -3.75 M3.65 -0.15 L3.75 -0.95 Q4.05 -1.85 5.05 -2.3 L9.4 -2.5 Q9.5 -1.2 7.95 -0.65 7.0 -0.25 5.2 -0.15 L3.65 -0.15 M3.05 -2.25 Q3.1 -1.1 2.35 -0.15 1.55 0.85 -0.1 1.85 L-1.65 2.6 -1.85 1.7 Q-1.95 0.6 -1.15 -0.4 0.05 -2.0 2.8 -3.15 L3.05 -2.25 M3.05 -8.05 Q3.05 -9.2 3.8 -9.85 4.2 -10.15 4.55 -10.25 L5.1 -8.85 5.6 -6.1 Q5.6 -4.4 4.35 -3.95 3.0 -6.2 3.05 -8.05 M1.9 -11.3 Q2.75 -10.1 1.8 -8.55 0.9 -6.95 -1.45 -5.6 L-1.75 -6.35 Q-1.95 -7.35 -1.35 -8.35 -0.8 -9.3 0.6 -10.4 L1.9 -11.3 M9.85 -9.35 L8.7 -9.2 Q8.6 -9.75 8.65 -10.4 8.7 -11.8 9.45 -12.5 10.65 -13.7 12.7 -13.4 12.9 -11.3 11.85 -10.25 11.15 -9.6 9.85 -9.35 M7.25 -6.45 L7.35 -7.2 Q7.65 -8.0 8.6 -8.4 L12.45 -8.5 12.3 -7.85 Q12.0 -7.1 11.15 -6.75 L8.7 -6.4 7.25 -6.45 M0.1 -14.4 L1.25 -15.35 Q2.15 -14.3 1.4 -12.7 0.65 -11.15 -1.5 -9.7 L-1.85 -10.4 Q-2.1 -11.35 -1.6 -12.3 -1.15 -13.3 0.1 -14.4 M6.75 -12.7 L7.55 -13.0 7.8 -11.55 Q8.05 -9.9 7.9 -8.9 7.65 -7.35 6.3 -7.1 5.4 -9.4 5.8 -11.1 6.0 -12.15 6.75 -12.7 M-6.4 -0.15 Q-7.2 -1.1 -7.1 -2.25 L-6.85 -3.15 -5.35 -2.35 -2.9 -0.4 Q-2.1 0.6 -2.2 1.7 L-2.4 2.6 Q-5.15 1.45 -6.4 -0.15 M-6.5 -7.2 L-5.1 -6.35 Q-3.55 -5.35 -2.9 -4.35 -2.2 -3.4 -2.35 -2.35 -2.4 -1.8 -2.6 -1.5 -5.15 -2.75 -6.25 -4.35 -6.9 -5.3 -6.75 -6.35 L-6.5 -7.2 M-4.65 -10.4 Q-3.25 -9.3 -2.7 -8.35 -1.75 -6.75 -2.6 -5.6 -4.95 -6.95 -5.85 -8.55 -6.45 -9.5 -6.25 -10.5 L-5.95 -11.3 -4.65 -10.4 M-5.7 -14.6 L-5.35 -15.35 -4.2 -14.4 Q-2.95 -13.3 -2.5 -12.3 -1.7 -10.75 -2.6 -9.7 -4.75 -11.15 -5.5 -12.7 -5.95 -13.7 -5.7 -14.6 M-2.05 -19.6 L-1.2 -18.65 Q-0.4 -17.45 -0.4 -16.35 -0.4 -14.6 -2.05 -13.15 -3.7 -14.6 -3.7 -16.35 -3.7 -17.45 -2.85 -18.65 L-2.05 -19.6" fill="#c1ae95" fill-rule="evenodd" stroke="none"/>
    <path d="M6.1 5.75 L7.8 4.9 9.25 7.05 Q8.2 7.45 7.8 7.75 7.05 8.25 8.25 9.25 8.8 9.7 9.5 9.7 L10.05 9.7 10.65 10.45 14.1 16.3 14.1 16.55 Q13.8 17.3 12.8 18.05 11.95 18.75 10.8 18.8 L9.25 18.75 Q7.95 16.5 6.3 12.65 L5.95 11.7 6.25 11.15 6.45 10.45 Q6.5 9.8 5.65 8.85 2.45 9.9 -0.25 10.1 -1.3 14.6 -1.5 18.55 L-2.45 18.85 -2.5 18.85 -2.45 18.55 -2.45 10.15 -2.85 10.15 Q-7.9 9.9 -10.75 7.05 -13.85 3.95 -14.05 -0.6 L-14.05 -1.6 Q-14.0 -3.9 -13.0 -6.4 L-11.05 -10.0 Q-8.75 -13.4 -5.8 -15.9 L-5.6 -15.9 -5.55 -15.55 -5.75 -15.15 -8.35 -11.45 Q-10.9 -7.1 -10.85 -3.8 -10.8 0.35 -9.0 3.2 -6.8 6.7 -2.45 7.1 L-2.45 2.8 -1.5 2.8 -1.5 7.15 -0.35 7.1 Q0.8 3.2 1.75 0.8 L1.85 3.25 0.55 7.05 Q3.75 6.7 6.1 5.75" fill="#c1ae95" fill-rule="evenodd" stroke="none"/>
  </g>
</svg>
