<?xml version="1.0" encoding="UTF-8" standalone="no"?>
<svg xmlns:xlink="http://www.w3.org/1999/xlink" height="42.0px" width="40.8px" xmlns="http://www.w3.org/2000/svg">
  <g transform="matrix(1.0, 0.0, 0.0, 1.0, 20.4, 21.0)">
    <path d="M-18.6 13.0 Q-17.55 13.25 -16.15 14.1 -13.9 15.3 -12.8 15.3 -11.65 15.3 -9.8 14.1 -7.75 12.85 -6.7 12.85 -5.65 12.85 -3.45 14.1 -1.2 15.3 -0.1 15.3 1.05 15.3 2.9 14.1 4.95 12.85 6.0 12.85 7.05 12.85 9.25 14.1 11.5 15.3 12.55 15.3 13.65 15.3 15.6 14.1 17.65 12.85 18.7 12.85 L18.85 12.85 18.85 17.05 18.7 17.05 Q17.65 17.05 15.6 18.25 13.7 19.5 12.55 19.5 L10.7 19.05 8.2 17.7 Q6.9 17.05 6.0 17.05 4.95 17.05 2.9 18.25 1.05 19.5 -0.1 19.5 -1.25 19.5 -3.45 18.25 -5.6 17.05 -6.7 17.05 -7.75 17.05 -9.8 18.25 -11.65 19.5 -12.85 19.5 L-14.65 19.05 -17.2 17.7 -18.6 17.15 -18.6 13.0" fill="#c1ae95" fill-rule="evenodd" stroke="none"/>
    <path d="M6.2 -10.9 L-1.75 -7.65 1.55 -15.6 6.2 -10.9 M7.25 -1.7 L-0.7 -5.0 7.25 -8.3 7.25 -1.7 M1.6 -19.5 L-10.4 -19.5 -18.85 -11.0 -18.85 1.0 -12.55 7.3 -12.8 7.35 Q-13.8 7.35 -16.15 6.1 -17.45 5.4 -18.6 5.0 L-18.6 9.2 -17.2 9.75 -14.65 11.1 -12.85 11.5 Q-11.65 11.5 -9.8 10.3 L-8.2 9.45 -5.15 9.45 -3.45 10.3 Q-1.2 11.5 -0.1 11.5 1.05 11.5 2.9 10.3 4.9 9.05 6.0 9.05 6.8 9.05 8.2 9.75 L10.7 11.1 12.55 11.5 Q13.65 11.5 15.6 10.3 17.6 9.05 18.7 9.05 L18.85 9.1 18.85 4.9 18.7 4.9 Q17.7 4.9 15.6 6.1 13.55 7.35 12.55 7.35 11.6 7.35 9.25 6.1 7.15 4.95 6.15 4.9 L10.1 1.0 10.1 -11.0 1.6 -19.5 M2.2 -21.0 L11.55 -11.65 11.55 1.6 8.9 4.25 9.95 4.8 Q11.8 5.8 12.55 5.8 13.2 5.8 14.75 4.85 17.3 3.35 18.65 3.35 L20.4 3.5 20.3 11.5 20.4 11.5 20.3 18.6 18.55 18.55 Q17.9 18.6 16.35 19.55 14.1 21.0 12.5 21.0 11.25 21.0 10.05 20.4 L7.45 19.05 5.95 18.55 Q5.25 18.55 3.65 19.55 1.4 21.0 -0.15 21.0 -1.6 21.0 -4.2 19.6 -6.0 18.55 -6.75 18.55 -7.35 18.55 -9.05 19.55 -11.35 21.0 -12.9 21.0 -14.05 21.0 -15.35 20.4 L-17.95 19.05 -19.05 18.6 -20.15 18.35 -20.15 3.05 -18.55 3.5 -20.4 1.6 -20.4 -11.65 -11.05 -21.0 2.2 -21.0 M-1.05 -16.65 L-4.4 -8.7 -7.65 -16.65 -1.05 -16.65 M-16.05 -8.35 L-8.1 -5.0 -16.05 -1.75 -16.05 -8.35 M-14.95 -10.95 L-10.3 -15.6 -7.0 -7.65 -14.95 -10.95 M-2.4 6.65 L-3.45 6.1 Q-5.7 4.9 -6.7 4.9 L-7.0 4.9 -4.4 -1.3 -1.1 6.65 -2.4 6.65 M-14.95 0.85 L-7.0 -2.4 -10.3 5.55 -14.95 0.85 M-18.6 13.0 L-18.6 17.15 -17.2 17.7 -14.65 19.05 -12.85 19.5 Q-11.65 19.5 -9.8 18.25 -7.75 17.05 -6.7 17.05 -5.6 17.05 -3.45 18.25 -1.25 19.5 -0.1 19.5 1.05 19.5 2.9 18.25 4.95 17.05 6.0 17.05 6.9 17.05 8.2 17.7 L10.7 19.05 12.55 19.5 Q13.7 19.5 15.6 18.25 17.65 17.05 18.7 17.05 L18.85 17.05 18.85 12.85 18.7 12.85 Q17.65 12.85 15.6 14.1 13.65 15.3 12.55 15.3 11.5 15.3 9.25 14.1 7.05 12.85 6.0 12.85 4.95 12.85 2.9 14.1 1.05 15.3 -0.1 15.3 -1.2 15.3 -3.45 14.1 -5.65 12.85 -6.7 12.85 -7.75 12.85 -9.8 14.1 -11.65 15.3 -12.8 15.3 -13.9 15.3 -16.15 14.1 -17.55 13.25 -18.6 13.0 M1.5 5.55 L-1.8 -2.4 6.15 0.9 1.5 5.55" fill="#000000" fill-rule="evenodd" stroke="none"/>
    <path d="M1.6 -19.5 L10.1 -11.0 10.1 1.0 6.15 4.9 Q7.15 4.95 9.25 6.1 11.6 7.35 12.55 7.35 13.55 7.35 15.6 6.1 17.7 4.9 18.7 4.9 L18.85 4.9 18.85 9.1 18.7 9.05 Q17.6 9.05 15.6 10.3 13.65 11.5 12.55 11.5 L10.7 11.1 8.2 9.75 Q6.8 9.05 6.0 9.05 4.9 9.05 2.9 10.3 1.05 11.5 -0.1 11.5 -1.2 11.5 -3.45 10.3 L-5.15 9.45 -8.2 9.45 -9.8 10.3 Q-11.65 11.5 -12.85 11.5 L-14.65 11.1 -17.2 9.75 -18.6 9.2 -18.6 5.0 Q-17.45 5.4 -16.15 6.1 -13.8 7.35 -12.8 7.35 L-12.55 7.3 -18.85 1.0 -18.85 -11.0 -10.4 -19.5 1.6 -19.5 M7.25 -1.7 L7.25 -8.3 -0.7 -5.0 7.25 -1.7 M6.2 -10.9 L1.55 -15.6 -1.75 -7.65 6.2 -10.9 M-14.95 0.85 L-10.3 5.55 -7.0 -2.4 -14.95 0.85 M-2.4 6.65 L-1.1 6.65 -4.4 -1.3 -7.0 4.9 -6.7 4.9 Q-5.7 4.9 -3.45 6.1 L-2.4 6.65 M-14.95 -10.95 L-7.0 -7.65 -10.3 -15.6 -14.95 -10.95 M-16.05 -8.35 L-16.05 -1.75 -8.1 -5.0 -16.05 -8.35 M-1.05 -16.65 L-7.65 -16.65 -4.4 -8.7 -1.05 -16.65 M1.5 5.55 L6.15 0.9 -1.8 -2.4 1.5 5.55" fill="#c1ae95" fill-rule="evenodd" stroke="none"/>
  </g>
</svg>
