<?xml version="1.0" encoding="UTF-8" standalone="no"?>
<svg xmlns:xlink="http://www.w3.org/1999/xlink" height="40.65px" width="27.4px" xmlns="http://www.w3.org/2000/svg">
  <g transform="matrix(1.0, 0.0, 0.0, 1.0, 13.7, 20.25)">
    <path d="M1.35 -12.85 L4.45 -12.85 4.45 -10.6 7.8 -4.05 13.7 -4.05 13.7 1.2 12.85 2.35 12.85 10.7 -0.1 20.4 -12.85 10.95 -12.85 2.6 -13.7 1.4 -13.7 -3.8 -7.95 -3.8 -7.95 -7.85 -10.1 -9.6 -5.8 -17.95 -5.8 -20.25 -1.25 -20.25 -1.25 -17.95 1.35 -12.85 M1.9 -10.85 L1.9 -10.1 -1.1 -4.15 -1.1 -8.85 0.5 -10.15 -3.25 -17.5 -3.25 -18.25 -3.8 -18.25 -3.8 -17.5 -7.55 -10.15 -5.95 -8.85 -5.95 6.1 -6.65 6.1 -6.6 -1.8 -7.65 -1.8 -7.65 -0.45 -8.65 -0.45 -8.65 -1.8 -9.7 -1.8 -9.7 -0.45 -10.65 -0.45 -10.65 -1.8 -11.7 -1.8 -11.7 0.8 -10.85 2.0 -10.85 9.95 -0.1 17.9 10.85 9.7 10.85 1.75 11.7 0.55 11.7 -2.05 10.65 -2.05 10.65 -0.7 9.65 -0.7 9.65 -2.05 8.6 -2.05 8.6 -0.7 7.65 -0.7 7.65 -2.05 6.6 -2.05 6.6 3.35 5.85 3.35 5.85 -3.5 2.45 -10.1 2.45 -10.85 1.9 -10.85 M2.65 -1.05 L2.65 -4.4 4.1 -4.4 4.1 -1.05 2.65 -1.05 M1.55 -4.4 L1.55 -1.05 0.1 -1.05 0.1 -4.4 1.55 -4.4 M-2.0 -12.75 L-2.0 -9.45 -3.45 -9.45 -3.45 -12.75 -2.0 -12.75 M-1.85 7.35 Q-1.1 6.55 0.0 6.5 1.1 6.55 1.85 7.35 2.65 8.15 2.65 9.25 L2.65 14.2 -2.65 14.2 -2.65 9.25 Q-2.65 8.15 -1.85 7.35" fill="#000000" fill-rule="evenodd" stroke="none"/>
    <path d="M-1.85 7.35 Q-2.65 8.15 -2.65 9.25 L-2.65 14.2 2.65 14.2 2.65 9.25 Q2.65 8.15 1.85 7.35 1.1 6.55 0.0 6.5 -1.1 6.55 -1.85 7.35 M-2.0 -12.75 L-3.45 -12.75 -3.45 -9.45 -2.0 -9.45 -2.0 -12.75 M1.55 -4.4 L0.1 -4.4 0.1 -1.05 1.55 -1.05 1.55 -4.4 M2.65 -1.05 L4.1 -1.05 4.1 -4.4 2.65 -4.4 2.65 -1.05 M1.9 -10.85 L2.45 -10.85 2.45 -10.1 5.85 -3.5 5.85 3.35 6.6 3.35 6.6 -2.05 7.65 -2.05 7.65 -0.7 8.6 -0.7 8.6 -2.05 9.65 -2.05 9.65 -0.7 10.65 -0.7 10.65 -2.05 11.7 -2.05 11.7 0.55 10.85 1.75 10.85 9.7 -0.1 17.9 -10.85 9.95 -10.85 2.0 -11.7 0.8 -11.7 -1.8 -10.65 -1.8 -10.65 -0.45 -9.7 -0.45 -9.7 -1.8 -8.65 -1.8 -8.65 -0.45 -7.65 -0.45 -7.65 -1.8 -6.6 -1.8 -6.65 6.1 -5.95 6.1 -5.95 -8.85 -7.55 -10.15 -3.8 -17.5 -3.8 -18.25 -3.25 -18.25 -3.25 -17.5 0.5 -10.15 -1.1 -8.85 -1.1 -4.15 1.9 -10.1 1.9 -10.85" fill="#c1ae95" fill-rule="evenodd" stroke="none"/>
  </g>
</svg>
