<?xml version="1.0" encoding="UTF-8" standalone="no"?>
<svg xmlns:xlink="http://www.w3.org/1999/xlink" height="36.8px" width="36.6px" xmlns="http://www.w3.org/2000/svg">
  <g transform="matrix(1.0, 0.0, 0.0, 1.0, 18.3, 18.4)">
    <path d="M11.5 -13.55 L10.85 -12.85 7.8 -16.35 Q7.45 -16.7 7.05 -16.35 L3.85 -12.6 Q3.5 -12.15 3.85 -11.75 L6.75 -8.4 0.3 -1.5 -7.5 -9.95 -1.0 -15.75 Q-0.6 -16.05 -1.05 -16.05 L-6.4 -14.95 Q-8.9 -14.2 -10.45 -13.15 L-10.85 -13.55 -11.5 -13.65 -11.6 -13.55 -12.65 -12.3 Q-13.0 -11.95 -12.7 -11.45 L-12.4 -11.1 Q-14.0 -8.25 -15.45 -1.05 L-16.6 5.55 Q-16.7 6.45 -16.45 5.6 L-9.45 -7.5 -2.25 1.3 -12.65 12.5 Q-13.0 12.95 -12.65 13.35 L-10.1 16.3 Q-9.8 16.7 -9.4 16.3 L0.3 4.4 10.05 16.3 Q10.45 16.7 10.75 16.3 L13.3 13.35 Q13.65 12.95 13.3 12.5 L2.9 1.3 8.85 -6.0 10.2 -4.45 11.05 -3.85 16.2 -1.7 Q16.75 -1.5 16.55 -2.05 L14.7 -8.05 14.15 -9.05 12.7 -10.7 13.35 -11.45 Q13.65 -11.95 13.3 -12.3 L12.25 -13.55 Q11.9 -14.0 11.5 -13.55 M10.95 -15.45 L12.25 -15.65 13.45 -14.95 14.5 -13.7 Q15.6 -12.5 15.0 -10.85 L15.35 -10.4 16.3 -8.7 18.15 -2.7 Q18.5 -1.55 17.9 -0.65 17.55 -0.05 16.95 0.15 L15.65 0.1 10.45 -2.0 Q9.6 -2.35 9.0 -3.1 L8.9 -3.2 5.3 1.2 14.45 11.1 Q15.15 11.8 15.15 12.9 15.15 14.05 14.5 14.7 L11.95 17.65 Q11.35 18.4 10.4 18.4 9.45 18.4 8.8 17.6 L0.3 7.25 -8.15 17.6 Q-8.75 18.35 -9.7 18.4 -10.65 18.4 -11.3 17.65 L-13.85 14.75 Q-14.5 14.05 -14.5 12.9 -14.5 11.8 -13.8 11.1 L-4.65 1.2 -9.25 -4.45 -14.95 6.55 Q-15.5 7.75 -16.55 7.75 L-17.35 7.75 -17.9 7.1 Q-18.4 6.4 -18.25 5.25 -16.8 -5.65 -14.4 -11.0 -14.85 -12.6 -13.85 -13.7 L-12.8 -14.95 Q-12.3 -15.5 -11.6 -15.65 L-11.5 -15.65 -10.3 -15.45 -8.5 -16.3 Q-5.35 -17.6 -1.2 -18.0 L-1.0 -18.0 Q0.4 -18.0 0.8 -16.55 1.05 -15.65 0.7 -14.95 L0.0 -14.15 -4.95 -9.85 0.3 -4.15 4.3 -8.45 2.65 -10.4 Q2.0 -11.05 2.0 -12.2 2.0 -13.3 2.65 -14.0 L5.9 -17.7 6.5 -18.15 7.45 -18.4 Q8.35 -18.4 9.0 -17.7 L10.95 -15.45" fill="#000000" fill-rule="evenodd" stroke="none"/>
    <path d="M11.5 -13.55 Q11.9 -14.0 12.25 -13.55 L13.3 -12.3 Q13.65 -11.95 13.35 -11.45 L12.7 -10.7 14.15 -9.05 14.7 -8.05 16.55 -2.05 Q16.75 -1.5 16.2 -1.7 L11.05 -3.85 10.2 -4.45 8.85 -6.0 2.9 1.3 13.3 12.5 Q13.65 12.95 13.3 13.35 L10.75 16.3 Q10.45 16.7 10.05 16.3 L0.3 4.4 -9.4 16.3 Q-9.8 16.7 -10.1 16.3 L-12.65 13.35 Q-13.0 12.95 -12.65 12.5 L-2.25 1.3 -9.45 -7.5 -16.45 5.6 Q-16.7 6.45 -16.6 5.55 L-15.45 -1.05 Q-14.0 -8.25 -12.4 -11.1 L-12.7 -11.45 Q-13.0 -11.95 -12.65 -12.3 L-11.6 -13.55 -11.5 -13.65 -10.85 -13.55 -10.45 -13.15 Q-8.9 -14.2 -6.4 -14.95 L-1.05 -16.05 Q-0.6 -16.05 -1.0 -15.75 L-7.5 -9.95 0.3 -1.5 6.75 -8.4 3.85 -11.75 Q3.5 -12.15 3.85 -12.6 L7.05 -16.35 Q7.45 -16.7 7.8 -16.35 L10.85 -12.85 11.5 -13.55" fill="#c1ae95" fill-rule="evenodd" stroke="none"/>
  </g>
</svg>
