<?xml version="1.0" encoding="UTF-8" standalone="no"?>
<svg xmlns:xlink="http://www.w3.org/1999/xlink" height="41.35px" width="22.4px" xmlns="http://www.w3.org/2000/svg">
  <g transform="matrix(1.0, 0.0, 0.0, 1.0, 11.15, 20.7)">
    <path d="M0.8 -3.05 L1.3 -1.2 3.85 -5.0 3.1 -13.25 8.7 -0.25 3.05 13.05 3.0 13.05 4.85 3.25 1.75 4.5 1.25 9.35 -0.25 12.8 2.0 14.15 0.1 18.15 -0.65 16.4 -1.3 12.9 -0.05 9.35 -1.75 4.45 -4.7 3.25 -2.9 13.05 -8.65 -0.25 -2.95 -13.25 -3.65 -4.85 -1.0 -1.05 -0.7 -3.15 1.4 -5.45 0.55 -8.35 -1.1 -6.85 -1.35 -5.75 -1.8 -6.25 -1.1 -12.55 0.75 -10.4 2.4 -5.15 0.8 -3.05 M1.5 -15.6 L0.1 -12.65 -1.3 -15.6 0.1 -18.6 1.5 -15.6" fill="#c1ae95" fill-rule="evenodd" stroke="none"/>
    <path d="M1.5 -15.6 L0.1 -18.6 -1.3 -15.6 0.1 -12.65 1.5 -15.6 M0.8 -3.05 L2.4 -5.15 0.75 -10.4 -1.1 -12.55 -1.8 -6.25 -1.35 -5.75 -1.1 -6.85 0.55 -8.35 1.4 -5.45 -0.7 -3.15 -1.0 -1.05 -3.65 -4.85 -2.95 -13.25 -8.65 -0.25 -2.9 13.05 -4.7 3.25 -1.75 4.45 -0.05 9.35 -1.3 12.9 -0.65 16.4 0.1 18.15 2.0 14.15 -0.25 12.8 1.25 9.35 1.75 4.5 4.85 3.25 3.0 13.05 3.05 13.05 8.7 -0.25 3.1 -13.25 3.85 -5.0 1.3 -1.2 0.8 -3.05 M1.75 -20.7 L11.25 -0.45 1.35 20.65 -1.35 20.65 -11.15 -0.45 -1.55 -20.7 1.75 -20.7" fill="#000000" fill-rule="evenodd" stroke="none"/>
  </g>
</svg>
