<?xml version="1.0" encoding="UTF-8" standalone="no"?>
<svg xmlns:xlink="http://www.w3.org/1999/xlink" height="39.75px" width="33.0px" xmlns="http://www.w3.org/2000/svg">
  <g transform="matrix(1.0, 0.0, 0.0, 1.0, 16.5, 19.85)">
    <path d="M10.35 -15.1 Q11.35 -15.05 12.1 -14.05 L12.25 -13.85 13.1 -11.85 13.25 -11.4 14.35 -7.15 Q15.45 -5.95 16.1 -4.2 16.75 -2.2 16.3 -0.25 15.85 1.65 14.55 2.65 L13.55 3.2 Q15.25 5.4 15.25 7.15 15.3 8.75 14.55 10.0 L13.2 11.65 Q12.3 12.45 12.05 13.0 L11.55 14.3 9.85 17.75 Q8.5 19.6 6.55 19.8 L4.75 19.9 Q2.0 19.9 -0.2 18.8 L-3.55 16.45 Q-5.6 14.75 -6.8 14.3 L-7.3 14.15 Q-13.8 12.3 -15.15 9.05 -16.1 6.8 -14.8 4.25 L-14.5 3.75 Q-15.35 3.35 -15.9 2.35 -16.6 1.1 -16.5 -1.0 -16.45 -2.75 -16.0 -4.2 -15.35 -5.95 -14.3 -7.1 L-13.0 -11.85 -12.4 -13.55 -12.25 -13.85 Q-11.5 -15.15 -10.35 -15.25 L-10.15 -15.25 Q-9.25 -15.25 -8.65 -14.55 -7.05 -18.3 -4.7 -18.6 L-4.45 -18.6 Q-3.75 -18.6 -3.15 -18.1 -3.05 -18.95 -2.3 -19.5 L-1.2 -19.85 Q0.35 -19.85 1.9 -17.15 L2.15 -17.65 Q2.7 -18.45 3.7 -18.45 L3.9 -18.45 Q6.6 -18.15 8.35 -13.9 L8.7 -14.45 Q9.35 -15.1 10.2 -15.1 L10.35 -15.1 M1.05 -14.5 L-0.15 -16.75 Q-1.0 -18.0 -1.25 -17.85 L-1.2 -16.65 Q-0.95 -15.35 -1.15 -14.4 L-1.25 -13.85 -1.7 -12.0 -1.7 -11.85 -1.95 -10.05 -2.15 -9.85 Q-3.25 -8.5 -3.15 -6.0 -3.0 -3.5 -1.9 -3.0 -0.1 -2.25 1.4 -3.9 2.3 -4.9 2.65 -6.9 3.05 -9.0 2.35 -10.1 L1.45 -10.95 1.45 -11.85 1.25 -13.85 1.05 -14.5 M4.5 -13.45 L4.5 -11.85 4.3 -9.35 4.0 -9.2 Q3.1 -8.4 3.15 -5.75 3.25 -2.95 4.55 -1.95 5.25 -1.4 6.4 -1.35 7.6 -1.25 8.0 -1.85 8.85 -3.0 9.05 -5.8 9.4 -8.4 8.05 -9.5 L7.35 -9.7 7.1 -11.85 6.85 -12.5 6.3 -13.85 Q5.15 -16.3 3.7 -16.45 3.55 -16.45 3.9 -15.45 L4.4 -13.85 4.5 -13.45 M10.0 -10.8 L10.35 -6.55 Q9.65 -5.9 9.25 -3.55 8.95 -1.45 9.1 -0.05 9.2 1.0 10.8 1.55 12.45 2.1 13.45 1.35 14.3 0.7 14.55 -0.7 14.8 -2.05 14.35 -3.45 13.7 -5.25 12.65 -6.1 L11.5 -10.7 11.1 -11.85 Q10.55 -13.05 10.2 -13.1 9.9 -13.15 9.95 -11.85 L10.0 -10.8 M13.4 7.35 Q13.4 4.95 9.15 1.55 5.25 -1.5 2.65 -2.1 0.2 -2.65 -2.5 -1.45 -4.05 -0.8 -6.85 1.15 L-10.25 2.7 Q-12.2 3.5 -13.15 5.25 -14.95 8.65 -11.1 10.9 -9.1 12.05 -6.15 12.75 L-0.9 16.4 Q2.15 18.6 6.35 18.15 7.8 18.0 8.85 16.0 L10.4 12.4 Q10.75 11.7 12.3 10.1 13.45 8.95 13.4 7.35 M-5.2 -13.85 L-4.65 -15.6 Q-4.3 -16.6 -4.45 -16.6 -5.75 -16.45 -6.85 -13.85 L-7.15 -13.2 -7.6 -11.85 Q-8.2 -10.0 -8.2 -8.65 -8.85 -7.65 -8.85 -6.0 L-8.45 -3.35 Q-8.05 -2.0 -7.45 -1.3 -6.9 -0.65 -5.7 -1.1 -4.65 -1.45 -4.1 -2.1 -3.4 -2.95 -3.4 -5.6 -3.4 -7.9 -3.95 -9.0 -4.4 -9.95 -5.45 -10.1 L-5.35 -11.85 -5.25 -13.55 -5.2 -13.85 M-12.65 -6.05 Q-13.7 -5.05 -14.2 -3.45 -14.75 -1.85 -14.65 -0.05 -14.55 2.05 -13.55 2.3 L-12.15 2.15 -11.3 1.5 -10.15 1.25 -9.15 0.6 Q-8.7 -0.1 -9.1 -3.2 -9.55 -6.45 -10.55 -6.75 L-10.7 -6.75 -10.2 -10.9 -10.05 -11.85 Q-9.9 -13.3 -10.2 -13.25 L-10.95 -11.85 -12.65 -6.05" fill="#000000" fill-rule="evenodd" stroke="none"/>
    <path d="M-12.65 -6.05 L-10.95 -11.85 -10.2 -13.25 Q-9.9 -13.3 -10.05 -11.85 L-10.2 -10.9 -10.7 -6.75 -10.55 -6.75 Q-9.55 -6.45 -9.1 -3.2 -8.7 -0.1 -9.15 0.6 L-10.15 1.25 -11.3 1.5 -12.15 2.15 -13.55 2.3 Q-14.55 2.05 -14.65 -0.05 -14.75 -1.85 -14.2 -3.45 -13.7 -5.05 -12.65 -6.05 M-5.2 -13.85 L-5.25 -13.55 -5.35 -11.85 -5.45 -10.1 Q-4.4 -9.95 -3.95 -9.0 -3.4 -7.9 -3.4 -5.6 -3.4 -2.95 -4.1 -2.1 -4.65 -1.45 -5.7 -1.1 -6.9 -0.65 -7.45 -1.3 -8.05 -2.0 -8.45 -3.35 L-8.85 -6.0 Q-8.85 -7.65 -8.2 -8.65 -8.2 -10.0 -7.6 -11.85 L-7.15 -13.2 -6.85 -13.85 Q-5.75 -16.45 -4.45 -16.6 -4.3 -16.6 -4.65 -15.6 L-5.2 -13.85 M13.4 7.35 Q13.45 8.95 12.3 10.1 10.75 11.7 10.4 12.4 L8.85 16.0 Q7.8 18.0 6.35 18.15 2.15 18.6 -0.9 16.4 L-6.15 12.75 Q-9.1 12.05 -11.1 10.9 -14.95 8.65 -13.15 5.25 -12.2 3.5 -10.25 2.7 L-6.85 1.15 Q-4.05 -0.8 -2.5 -1.45 0.2 -2.65 2.65 -2.1 5.25 -1.5 9.15 1.55 13.4 4.95 13.4 7.35 M10.0 -10.8 L9.95 -11.85 Q9.9 -13.15 10.2 -13.1 10.55 -13.05 11.1 -11.85 L11.5 -10.7 12.65 -6.1 Q13.7 -5.25 14.35 -3.45 14.8 -2.05 14.55 -0.7 14.3 0.7 13.45 1.35 12.45 2.1 10.8 1.55 9.2 1.0 9.1 -0.05 8.95 -1.45 9.25 -3.55 9.65 -5.9 10.35 -6.55 L10.0 -10.8 M4.5 -13.45 L4.4 -13.85 3.9 -15.45 Q3.55 -16.45 3.7 -16.45 5.15 -16.3 6.3 -13.85 L6.85 -12.5 7.1 -11.85 7.35 -9.7 8.05 -9.5 Q9.4 -8.4 9.05 -5.8 8.85 -3.0 8.0 -1.85 7.6 -1.25 6.4 -1.35 5.25 -1.4 4.55 -1.95 3.25 -2.95 3.15 -5.75 3.1 -8.4 4.0 -9.2 L4.3 -9.35 4.5 -11.85 4.5 -13.45 M1.05 -14.5 L1.25 -13.85 1.45 -11.85 1.45 -10.95 2.35 -10.1 Q3.05 -9.0 2.65 -6.9 2.3 -4.9 1.4 -3.9 -0.1 -2.25 -1.9 -3.0 -3.0 -3.5 -3.15 -6.0 -3.25 -8.5 -2.15 -9.85 L-1.95 -10.05 -1.7 -11.85 -1.7 -12.0 -1.25 -13.85 -1.15 -14.4 Q-0.95 -15.35 -1.2 -16.65 L-1.25 -17.85 Q-1.0 -18.0 -0.15 -16.75 L1.05 -14.5" fill="#c1ae95" fill-rule="evenodd" stroke="none"/>
  </g>
</svg>
