<?xml version="1.0" encoding="UTF-8" standalone="no"?>
<svg xmlns:xlink="http://www.w3.org/1999/xlink" height="40.95px" width="19.5px" xmlns="http://www.w3.org/2000/svg">
  <g transform="matrix(1.0, 0.0, 0.0, 1.0, 9.75, 20.45)">
    <path d="M4.7 -19.35 L9.6 -13.6 9.75 -11.1 9.1 -5.5 9.1 -3.4 8.5 -1.45 8.25 -0.05 8.3 3.8 7.4 9.2 7.45 10.95 6.85 14.8 6.75 17.2 4.45 20.3 1.35 20.25 -0.65 20.5 -2.75 20.4 -5.6 17.95 -7.55 14.75 -8.15 13.25 -8.35 9.2 -8.8 7.35 -8.8 3.45 -9.15 1.5 -9.0 -0.6 -9.75 -7.95 -9.7 -10.95 -7.0 -14.3 -6.0 -14.95 -5.4 -16.15 -3.95 -17.7 -0.65 -20.45 4.7 -19.35 M0.05 -17.85 L-2.25 -15.9 -3.3 -14.75 -4.1 -13.3 -5.2 -12.55 -7.25 -10.05 -7.25 -8.15 -6.5 -0.65 -6.65 1.3 -6.3 3.15 -6.3 7.0 -5.85 8.8 -5.65 12.6 -5.2 13.75 -3.7 16.2 -1.75 17.9 -0.7 17.95 1.2 17.7 3.2 17.7 4.25 16.25 4.35 14.4 4.95 10.75 4.9 8.9 5.8 3.45 5.75 -0.3 6.05 -2.1 6.6 -3.85 6.6 -5.75 7.25 -11.25 7.15 -12.7 3.4 -17.15 0.05 -17.85 M3.65 -4.85 Q0.65 -0.2 0.05 0.25 -0.35 0.25 -3.65 -4.7 L-3.65 -5.25 Q-0.4 -10.2 -0.05 -10.2 L0.2 -10.2 3.65 -5.25 3.65 -4.85" fill="#000000" fill-rule="evenodd" stroke="none"/>
    <path d="M3.65 -4.85 L3.65 -5.25 0.2 -10.2 -0.05 -10.2 Q-0.4 -10.2 -3.65 -5.25 L-3.65 -4.7 Q-0.35 0.25 0.05 0.25 0.65 -0.2 3.65 -4.85 M0.05 -17.85 L3.4 -17.15 7.15 -12.7 7.25 -11.25 6.6 -5.75 6.6 -3.85 6.05 -2.1 5.75 -0.3 5.8 3.45 4.9 8.9 4.95 10.75 4.35 14.4 4.25 16.25 3.2 17.7 1.2 17.7 -0.7 17.95 -1.75 17.9 -3.7 16.2 -5.2 13.75 -5.65 12.6 -5.85 8.8 -6.3 7.0 -6.3 3.15 -6.65 1.3 -6.5 -0.65 -7.25 -8.15 -7.25 -10.05 -5.2 -12.55 -4.1 -13.3 -3.3 -14.75 -2.25 -15.9 0.05 -17.85" fill="#c1ae95" fill-rule="evenodd" stroke="none"/>
  </g>
</svg>
