<?xml version="1.0" encoding="UTF-8" standalone="no"?>
<svg xmlns:xlink="http://www.w3.org/1999/xlink" height="42.0px" width="32.4px" xmlns="http://www.w3.org/2000/svg">
  <g transform="matrix(1.0, 0.0, 0.0, 1.0, 16.2, 21.0)">
    <path d="M3.8 -4.75 L5.8 -6.15 14.35 3.05 9.55 11.4 6.05 6.5 9.45 17.55 2.9 21.0 -3.3 21.0 -9.5 17.6 -6.75 8.55 -7.85 9.6 -16.2 4.75 -3.45 -4.3 -3.8 -4.85 -5.8 -3.45 -14.4 -12.65 -9.55 -21.0 -0.5 -8.25 0.0 -8.6 -1.4 -10.6 7.8 -19.15 16.2 -14.35 3.4 -5.3 3.8 -4.75 M3.45 -2.45 L1.25 -5.55 13.3 -14.05 8.05 -17.1 0.65 -10.25 2.2 -8.1 -0.9 -5.95 -9.4 -18.0 -12.45 -12.75 -5.6 -5.35 -3.45 -6.9 -1.25 -3.8 -13.35 4.75 -8.1 7.8 -0.7 0.9 -2.25 -1.25 Q-0.65 -2.3 0.9 -3.4 L9.4 8.65 12.45 3.4 5.6 -4.0 3.45 -2.45 M3.1 19.25 L7.6 16.9 2.8 1.3 0.6 -1.8 -0.6 -0.95 0.85 1.05 -4.25 5.8 -7.65 17.0 -3.45 19.25 -1.65 19.25 -1.05 12.0 1.15 11.95 1.65 19.25 3.1 19.25" fill="#000000" fill-rule="evenodd" stroke="none"/>
    <path d="M3.1 19.25 L1.65 19.25 1.15 11.95 -1.05 12.0 -1.65 19.25 -3.45 19.25 -7.65 17.0 -4.25 5.8 0.85 1.05 -0.6 -0.95 0.6 -1.8 2.8 1.3 7.6 16.9 3.1 19.25 M3.45 -2.45 L5.6 -4.0 12.45 3.4 9.4 8.65 0.9 -3.4 Q-0.65 -2.3 -2.25 -1.25 L-0.7 0.9 -8.1 7.8 -13.35 4.75 -1.25 -3.8 -3.45 -6.9 -5.6 -5.35 -12.45 -12.75 -9.4 -18.0 -0.9 -5.95 2.2 -8.1 0.65 -10.25 8.05 -17.1 13.3 -14.05 1.25 -5.55 3.45 -2.45" fill="#c1ae95" fill-rule="evenodd" stroke="none"/>
  </g>
</svg>
