<?xml version="1.0" encoding="UTF-8" standalone="no"?>
<svg xmlns:xlink="http://www.w3.org/1999/xlink" height="38.2px" width="39.5px" xmlns="http://www.w3.org/2000/svg">
  <g transform="matrix(1.0, 0.0, 0.0, 1.0, 19.75, 19.1)">
    <path d="M11.25 -15.2 L14.65 -12.55 17.6 -11.85 18.3 -10.05 19.75 -10.05 18.7 -7.0 13.05 11.85 17.95 11.85 17.95 19.1 -19.0 19.1 -19.0 11.85 -12.95 11.85 -18.7 -7.0 -19.75 -10.05 -17.2 -10.05 -13.75 -13.1 -12.05 -13.0 -10.1 -16.45 -7.6 -14.85 -4.65 -19.1 2.95 -18.5 3.2 -18.45 3.4 -18.35 7.4 -16.7 8.3 -15.1 11.25 -15.2 M6.3 -14.85 L2.85 -16.3 -3.85 -16.85 -7.15 -12.1 -9.55 -13.6 -11.15 -10.75 -13.25 -10.85 -14.8 -9.5 16.55 -9.5 16.4 -9.9 14.0 -10.5 10.75 -13.0 7.35 -12.85 6.3 -14.85 M12.5 6.1 L16.95 -6.9 -16.95 -6.9 -12.5 6.25 Q-11.8 4.2 -10.2 3.0 -8.65 1.75 -6.75 1.75 -4.85 1.75 -3.3 3.0 -1.75 4.2 -1.05 6.25 L1.1 6.25 Q1.8 4.2 3.4 3.0 4.95 1.75 6.85 1.75 8.75 1.75 10.3 2.95 11.85 4.1 12.5 6.1 M10.5 4.65 Q9.0 2.95 6.9 2.95 4.8 2.95 3.3 4.65 1.8 6.4 1.8 8.85 1.8 11.3 3.3 13.0 3.9 13.7 4.65 14.05 L-4.5 14.05 Q-3.7 13.6 -3.15 13.0 -1.7 11.3 -1.7 8.85 -1.7 6.4 -3.15 4.65 -4.65 2.95 -6.75 2.95 -8.9 2.95 -10.4 4.65 -11.9 6.4 -11.9 8.85 -11.9 11.3 -10.4 13.0 -9.8 13.7 -9.05 14.05 L-17.35 14.05 -17.35 17.4 16.3 17.4 16.3 14.05 9.15 14.05 10.5 13.0 Q12.0 11.3 12.0 8.85 12.0 6.4 10.5 4.65 M8.95 5.7 L6.9 8.1 4.85 5.7 Q5.75 4.9 6.9 4.9 8.05 4.9 8.95 5.7 M3.5 8.85 Q3.5 7.5 4.2 6.45 L6.3 8.8 4.2 11.2 Q3.5 10.15 3.5 8.85 M8.95 11.9 Q8.05 12.75 6.9 12.75 5.75 12.75 4.85 11.9 L6.9 9.5 8.95 11.9 M9.6 6.45 Q10.3 7.5 10.3 8.85 10.3 10.15 9.6 11.2 L7.5 8.8 9.6 6.45 M-6.8 4.9 Q-5.65 4.9 -4.7 5.7 L-6.8 8.1 -8.85 5.7 Q-7.95 4.9 -6.8 4.9 M-7.4 8.8 L-9.45 11.2 Q-10.15 10.15 -10.15 8.85 -10.15 7.5 -9.45 6.45 L-7.4 8.8 M-6.8 9.5 L-4.7 11.9 Q-5.65 12.75 -6.8 12.75 -7.95 12.75 -8.85 11.9 L-6.8 9.5 M-4.1 11.2 L-6.15 8.8 -4.1 6.45 Q-3.4 7.5 -3.4 8.85 -3.4 10.15 -4.1 11.2" fill="#000000" fill-rule="evenodd" stroke="none"/>
    <path d="M-4.1 11.2 Q-3.4 10.15 -3.4 8.85 -3.4 7.5 -4.1 6.45 L-6.15 8.8 -4.1 11.2 M-6.8 9.5 L-8.85 11.9 Q-7.95 12.75 -6.8 12.75 -5.65 12.75 -4.7 11.9 L-6.8 9.5 M-7.4 8.8 L-9.45 6.45 Q-10.15 7.5 -10.15 8.85 -10.15 10.15 -9.45 11.2 L-7.4 8.8 M-6.8 4.9 Q-7.95 4.9 -8.85 5.7 L-6.8 8.1 -4.7 5.7 Q-5.65 4.9 -6.8 4.9 M9.6 6.45 L7.5 8.8 9.6 11.2 Q10.3 10.15 10.3 8.85 10.3 7.5 9.6 6.45 M8.95 11.9 L6.9 9.5 4.85 11.9 Q5.75 12.75 6.9 12.75 8.05 12.75 8.95 11.9 M3.5 8.85 Q3.5 10.15 4.2 11.2 L6.3 8.8 4.2 6.45 Q3.5 7.5 3.5 8.85 M8.95 5.7 Q8.05 4.9 6.9 4.9 5.75 4.9 4.85 5.7 L6.9 8.1 8.95 5.7 M10.5 4.65 Q12.0 6.4 12.0 8.85 12.0 11.3 10.5 13.0 L9.15 14.05 16.3 14.05 16.3 17.4 -17.35 17.4 -17.35 14.05 -9.05 14.05 Q-9.8 13.7 -10.4 13.0 -11.9 11.3 -11.9 8.85 -11.9 6.4 -10.4 4.65 -8.9 2.95 -6.75 2.95 -4.65 2.95 -3.15 4.65 -1.7 6.4 -1.7 8.85 -1.7 11.3 -3.15 13.0 -3.7 13.6 -4.5 14.05 L4.65 14.05 Q3.9 13.7 3.3 13.0 1.8 11.3 1.8 8.85 1.8 6.4 3.3 4.65 4.8 2.95 6.9 2.95 9.0 2.95 10.5 4.65 M12.5 6.1 Q11.85 4.1 10.3 2.95 8.75 1.75 6.85 1.75 4.95 1.75 3.4 3.0 1.8 4.2 1.1 6.25 L-1.05 6.25 Q-1.75 4.2 -3.3 3.0 -4.85 1.75 -6.75 1.75 -8.65 1.75 -10.2 3.0 -11.8 4.2 -12.5 6.25 L-16.95 -6.9 16.95 -6.9 12.5 6.1 M6.3 -14.85 L7.35 -12.85 10.75 -13.0 14.0 -10.5 16.4 -9.9 16.55 -9.5 -14.8 -9.5 -13.25 -10.85 -11.15 -10.75 -9.55 -13.6 -7.15 -12.1 -3.85 -16.85 2.85 -16.3 6.3 -14.85" fill="#c1ae95" fill-rule="evenodd" stroke="none"/>
  </g>
</svg>
