<?xml version="1.0" encoding="UTF-8" standalone="no"?>
<svg xmlns:xlink="http://www.w3.org/1999/xlink" height="38.0px" width="29.2px" xmlns="http://www.w3.org/2000/svg">
  <g transform="matrix(1.0, 0.0, 0.0, 1.0, 14.6, 19.0)">
    <path d="M0.0 -17.1 Q-2.7 -17.1 -5.15 -15.55 -7.6 -14.0 -9.45 -11.2 -12.9 -5.85 -12.9 1.7 -12.9 5.9 -11.0 11.4 L-12.75 11.4 -12.75 17.05 -2.45 17.05 -2.45 12.25 -4.0 10.3 Q-5.45 8.45 -6.15 6.55 -6.9 4.45 -6.9 1.7 -6.9 -3.0 -4.85 -5.75 -2.95 -8.3 0.0 -8.3 2.95 -8.3 4.85 -5.75 6.9 -3.0 6.9 1.7 6.9 4.45 6.15 6.55 5.5 8.45 4.0 10.3 L2.35 12.35 2.35 17.05 12.5 17.05 12.5 11.4 11.0 11.4 Q12.9 5.9 12.9 1.7 12.9 -5.85 9.45 -11.2 7.6 -14.0 5.15 -15.55 2.7 -17.1 0.0 -17.1 M0.0 -19.0 Q3.1 -19.0 5.95 -17.25 8.75 -15.5 10.8 -12.3 14.6 -6.4 14.6 1.7 14.6 5.0 13.4 9.5 L14.2 9.5 14.2 19.0 0.65 19.0 0.65 11.65 2.75 9.0 Q4.0 7.5 4.55 5.95 5.2 4.15 5.2 1.7 5.2 -1.95 3.8 -4.2 2.35 -6.4 0.0 -6.4 -2.35 -6.4 -3.8 -4.2 -5.2 -1.95 -5.2 1.7 -5.2 4.15 -4.55 5.95 -4.0 7.5 -2.75 9.0 L-0.75 11.55 -0.75 19.0 -14.45 19.0 -14.45 9.5 -13.4 9.5 Q-14.6 5.0 -14.6 1.7 -14.6 -6.4 -10.8 -12.3 -8.75 -15.5 -5.9 -17.25 -3.1 -19.0 0.0 -19.0 M1.65 -13.95 Q2.3 -13.2 2.3 -12.2 2.3 -11.15 1.65 -10.4 1.0 -9.7 0.1 -9.7 -0.85 -9.7 -1.5 -10.4 -2.15 -11.15 -2.15 -12.2 -2.15 -13.2 -1.5 -13.95 -0.85 -14.7 0.1 -14.7 1.0 -14.7 1.65 -13.95 M8.2 -7.95 Q8.95 -7.95 9.45 -7.35 9.95 -6.8 9.95 -5.95 9.95 -5.1 9.45 -4.55 8.95 -3.95 8.2 -3.95 7.5 -3.95 6.95 -4.55 6.45 -5.15 6.45 -5.95 6.45 -6.75 6.95 -7.35 7.5 -7.95 8.2 -7.95 M10.55 8.2 Q10.0 8.8 9.3 8.8 8.55 8.8 8.05 8.2 7.5 7.65 7.5 6.8 7.5 5.95 8.05 5.35 8.55 4.8 9.3 4.8 10.0 4.8 10.55 5.35 11.05 5.95 11.05 6.8 11.05 7.6 10.55 8.2 M-8.2 -7.95 Q-7.5 -7.95 -6.95 -7.35 -6.45 -6.75 -6.45 -5.95 -6.45 -5.15 -6.95 -4.55 -7.5 -3.95 -8.2 -3.95 -8.95 -3.95 -9.45 -4.55 -9.95 -5.1 -9.95 -5.95 -9.95 -6.8 -9.45 -7.35 -8.95 -7.95 -8.2 -7.95 M-8.0 5.35 Q-7.5 5.95 -7.5 6.8 -7.5 7.65 -8.0 8.2 -8.55 8.8 -9.3 8.8 -10.0 8.8 -10.55 8.2 -11.05 7.6 -11.05 6.8 -11.05 5.95 -10.55 5.35 -10.0 4.8 -9.3 4.8 -8.55 4.8 -8.0 5.35" fill="#000000" fill-rule="evenodd" stroke="none"/>
    <path d="M0.0 -17.1 Q2.7 -17.1 5.15 -15.55 7.6 -14.0 9.45 -11.2 12.9 -5.85 12.9 1.7 12.9 5.9 11.0 11.4 L12.5 11.4 12.5 17.05 2.35 17.05 2.35 12.35 4.0 10.3 Q5.5 8.45 6.15 6.55 6.9 4.45 6.9 1.7 6.9 -3.0 4.85 -5.75 2.95 -8.3 0.0 -8.3 -2.95 -8.3 -4.85 -5.75 -6.9 -3.0 -6.9 1.7 -6.9 4.45 -6.15 6.55 -5.45 8.45 -4.0 10.3 L-2.45 12.25 -2.45 17.05 -12.75 17.05 -12.75 11.4 -11.0 11.4 Q-12.9 5.9 -12.9 1.7 -12.9 -5.85 -9.45 -11.2 -7.6 -14.0 -5.15 -15.55 -2.7 -17.1 0.0 -17.1 M-8.0 5.35 Q-8.55 4.8 -9.3 4.8 -10.0 4.8 -10.55 5.35 -11.05 5.95 -11.05 6.8 -11.05 7.6 -10.55 8.2 -10.0 8.8 -9.3 8.8 -8.55 8.8 -8.0 8.2 -7.5 7.65 -7.5 6.8 -7.5 5.95 -8.0 5.35 M-8.2 -7.95 Q-8.95 -7.95 -9.45 -7.35 -9.95 -6.8 -9.95 -5.95 -9.95 -5.1 -9.45 -4.55 -8.95 -3.95 -8.2 -3.95 -7.5 -3.95 -6.95 -4.55 -6.45 -5.15 -6.45 -5.95 -6.45 -6.75 -6.95 -7.35 -7.5 -7.95 -8.2 -7.95 M10.55 8.2 Q11.05 7.6 11.05 6.8 11.05 5.95 10.55 5.35 10.0 4.8 9.3 4.8 8.55 4.8 8.05 5.35 7.5 5.95 7.5 6.8 7.5 7.65 8.05 8.2 8.55 8.8 9.3 8.8 10.0 8.8 10.55 8.2 M8.2 -7.95 Q7.5 -7.95 6.95 -7.35 6.45 -6.75 6.45 -5.95 6.45 -5.15 6.95 -4.55 7.5 -3.95 8.2 -3.95 8.95 -3.95 9.45 -4.55 9.95 -5.1 9.95 -5.95 9.95 -6.8 9.45 -7.35 8.95 -7.95 8.2 -7.95 M1.65 -13.95 Q1.0 -14.7 0.1 -14.7 -0.85 -14.7 -1.5 -13.95 -2.15 -13.2 -2.15 -12.2 -2.15 -11.15 -1.5 -10.4 -0.85 -9.7 0.1 -9.7 1.0 -9.7 1.65 -10.4 2.3 -11.15 2.3 -12.2 2.3 -13.2 1.65 -13.95" fill="#c1ae95" fill-rule="evenodd" stroke="none"/>
  </g>
</svg>
