<?xml version="1.0" encoding="UTF-8" standalone="no"?>
<svg xmlns:xlink="http://www.w3.org/1999/xlink" height="42.0px" width="20.85px" xmlns="http://www.w3.org/2000/svg">
  <g transform="matrix(1.0, 0.0, 0.0, 1.0, 10.4, 21.0)">
    <path d="M4.1 -3.1 L2.05 -3.1 2.05 0.85 4.1 0.85 4.1 -3.1 M6.25 -7.7 L6.25 -10.4 8.8 -10.4 8.75 11.5 0.15 18.6 -8.3 11.5 -8.3 -19.05 -5.8 -19.05 -5.8 -18.35 6.55 -16.05 -5.8 -13.7 -5.8 -7.7 -1.0 -7.7 -1.0 -10.4 1.5 -10.4 1.5 -7.7 6.25 -7.7" fill="#c1ae95" fill-rule="evenodd" stroke="none"/>
    <path d="M6.25 -7.7 L1.5 -7.7 1.5 -10.4 -1.0 -10.4 -1.0 -7.7 -5.8 -7.7 -5.8 -13.7 6.55 -16.05 -5.8 -18.35 -5.8 -19.05 -8.3 -19.05 -8.3 11.5 0.15 18.6 8.75 11.5 8.8 -10.4 6.25 -10.4 6.25 -7.7 M4.1 -3.1 L4.1 0.85 2.05 0.85 2.05 -3.1 4.1 -3.1 M8.8 -17.45 L7.85 -14.5 -3.1 -12.35 10.45 -12.35 10.4 12.3 -0.05 21.0 -10.4 12.25 -10.4 -21.0 -4.15 -21.0 -4.15 -20.0 8.8 -17.45" fill="#000000" fill-rule="evenodd" stroke="none"/>
  </g>
</svg>
