<?xml version="1.0" encoding="UTF-8" standalone="no"?>
<svg xmlns:xlink="http://www.w3.org/1999/xlink" height="34.3px" width="42.05px" xmlns="http://www.w3.org/2000/svg">
  <g transform="matrix(1.0, 0.0, 0.0, 1.0, 21.0, 17.15)">
    <path d="M14.3 -16.4 L14.4 -16.35 15.35 -16.3 15.95 -16.35 16.3 -16.7 17.4 -17.15 17.45 -17.15 Q18.1 -17.15 18.6 -16.65 L19.2 -15.75 19.45 -14.75 Q19.4 -14.25 19.0 -13.85 L18.85 -13.7 19.1 -12.3 19.15 -12.2 Q19.75 -10.15 18.95 -9.15 L18.15 -8.15 Q17.95 -7.8 17.55 -7.65 17.65 -6.75 17.15 -6.05 L16.4 -4.9 15.95 -4.4 Q16.05 -3.6 15.7 -2.85 L15.45 -2.45 14.95 -1.45 14.65 -1.05 14.7 -0.65 14.8 -0.7 18.0 -2.05 18.65 -2.2 19.4 -2.05 Q20.45 -1.45 20.95 0.0 21.35 1.1 20.35 1.85 18.6 3.05 17.1 4.75 15.3 6.8 15.15 8.2 L14.8 9.1 14.65 9.25 14.0 10.0 13.65 10.3 15.3 12.5 Q15.95 13.5 15.4 14.6 L14.8 15.4 13.35 16.4 Q11.9 17.15 10.7 17.15 9.35 17.15 8.65 16.2 L7.95 15.25 Q5.6 12.0 4.3 10.75 2.0 8.6 -0.45 8.35 L-1.35 8.3 Q-4.05 8.3 -6.45 9.8 -8.8 11.3 -10.25 13.85 -11.2 15.5 -14.0 16.15 L-14.85 16.2 Q-16.25 16.2 -16.95 15.2 -17.45 14.15 -16.9 13.05 -15.8 11.15 -14.5 9.75 L-14.6 9.65 -15.1 8.65 Q-15.25 7.25 -17.05 5.2 -18.5 3.55 -20.25 2.3 -21.25 1.65 -20.9 0.4 -20.35 -1.1 -19.35 -1.6 L-18.6 -1.8 -17.95 -1.65 -14.65 -0.2 -14.6 -0.65 -14.9 -1.05 -15.4 -2.05 -15.65 -2.45 Q-16.0 -3.15 -15.9 -3.95 L-16.35 -4.45 -17.1 -5.65 Q-17.6 -6.35 -17.5 -7.2 L-18.1 -7.75 -18.7 -8.5 -18.9 -8.7 Q-19.7 -9.7 -19.1 -11.8 L-19.05 -11.85 -18.8 -13.3 -18.95 -13.45 Q-19.75 -14.25 -19.15 -15.35 L-18.55 -16.25 Q-18.05 -16.75 -17.4 -16.75 L-17.35 -16.75 Q-16.7 -16.75 -16.25 -16.3 L-15.9 -15.95 -15.3 -15.9 -14.35 -15.95 -14.2 -15.95 -13.4 -16.0 Q-11.85 -16.0 -11.05 -15.05 L-11.0 -14.95 -10.05 -13.75 Q-9.75 -13.3 -9.75 -12.8 -8.6 -12.5 -8.05 -11.65 L-7.05 -10.15 -6.85 -9.3 Q-5.85 -8.95 -5.35 -8.05 L-4.45 -6.25 -4.25 -5.55 Q-3.3 -5.0 -3.0 -4.1 L-2.15 -2.15 -2.05 -1.45 Q-1.25 -0.85 -1.0 -0.05 L-0.95 0.05 -0.25 2.3 -0.2 2.9 0.15 2.85 0.3 2.85 0.3 1.9 1.0 -0.4 1.05 -0.45 Q1.3 -1.3 2.1 -1.9 L2.2 -2.55 3.05 -4.55 Q3.4 -5.4 4.3 -5.95 L4.5 -6.7 5.4 -8.45 Q5.85 -9.3 6.9 -9.75 L7.1 -10.55 8.1 -12.1 Q8.65 -12.9 9.8 -13.2 9.8 -13.75 10.1 -14.15 L11.05 -15.35 11.1 -15.45 Q11.9 -16.4 13.45 -16.4 L14.3 -16.4 M12.25 -13.6 L13.55 -13.7 11.45 -11.75 Q9.85 -11.75 9.45 -11.2 L8.5 -9.7 9.4 -10.25 10.9 -10.5 8.95 -8.5 Q7.15 -8.3 6.85 -7.65 L5.95 -5.95 6.85 -6.6 Q7.6 -7.0 8.5 -7.1 L6.8 -5.0 Q4.85 -4.65 4.55 -3.9 L3.7 -1.9 4.65 -2.75 Q5.5 -3.3 6.35 -3.45 L4.9 -1.35 Q2.85 -0.75 2.55 0.1 L1.85 2.4 2.8 1.4 Q3.6 0.7 4.6 0.45 L6.75 0.4 6.95 0.45 Q6.1 2.3 5.2 5.05 2.8 4.3 0.25 4.5 -2.6 4.75 -5.1 5.6 L-6.9 0.85 -6.7 0.8 -4.55 0.85 Q-3.65 1.05 -2.75 1.8 L-1.8 2.8 -2.5 0.55 Q-2.85 -0.4 -4.85 -0.9 L-6.3 -3.0 Q-5.3 -2.8 -4.6 -2.3 L-3.65 -1.5 -4.45 -3.5 Q-4.8 -4.25 -6.75 -4.6 L-8.45 -6.65 -6.8 -6.2 -5.9 -5.55 -6.8 -7.25 Q-7.1 -7.85 -8.9 -8.05 L-10.85 -10.1 -9.35 -9.8 -8.45 -9.3 -9.4 -10.75 Q-9.75 -11.3 -11.4 -11.3 L-13.5 -13.3 -12.2 -13.15 -11.35 -12.8 -12.3 -14.0 Q-12.7 -14.45 -14.1 -14.35 L-16.75 -14.5 -17.35 -15.1 -17.75 -14.5 -17.3 -14.0 Q-17.05 -13.1 -17.5 -11.4 -17.95 -10.05 -17.65 -9.7 L-16.8 -8.65 -16.9 -9.45 -16.7 -10.75 -15.5 -8.35 Q-16.05 -6.9 -15.75 -6.5 L-14.95 -5.25 -14.95 -6.15 -14.6 -7.55 -13.7 -5.2 Q-14.45 -3.75 -14.2 -3.15 L-13.45 -1.75 -13.4 -2.75 -12.8 -4.2 -12.25 -1.9 Q-13.2 -0.35 -13.0 0.25 L-12.55 2.5 -18.6 -0.15 Q-19.15 0.1 -19.35 0.95 L-16.55 3.4 Q-13.7 6.3 -13.5 8.5 L-12.75 9.35 -12.8 8.65 -12.65 7.5 -12.0 6.25 -11.9 6.2 -10.4 8.3 Q-13.75 10.7 -15.45 13.85 -15.8 14.4 -15.25 14.6 L-14.3 14.6 Q-12.2 14.1 -11.65 13.1 -9.9 9.95 -6.95 8.25 -3.8 6.45 -0.3 6.8 2.9 7.1 5.65 9.85 L9.95 15.25 Q10.5 16.05 12.5 15.05 14.45 14.1 14.0 13.5 L10.95 9.5 10.3 8.7 10.05 8.45 11.95 5.75 12.05 5.85 12.7 7.05 12.85 8.25 12.8 8.95 13.55 8.1 Q13.65 6.7 14.8 5.1 L16.6 3.0 Q18.0 1.55 19.4 0.55 19.2 -0.3 18.65 -0.55 L12.6 2.05 13.05 -0.2 Q13.25 -0.75 12.3 -2.3 L12.85 -4.65 13.45 -3.15 13.5 -2.15 14.25 -3.6 Q14.55 -4.1 13.75 -5.6 L14.65 -7.95 14.8 -7.6 15.0 -6.6 15.0 -5.65 15.8 -6.9 Q16.1 -7.35 15.55 -8.8 L16.75 -11.15 16.95 -9.9 16.85 -9.05 17.7 -10.1 Q18.0 -10.5 17.55 -11.8 17.1 -13.55 17.35 -14.4 L17.8 -14.95 17.4 -15.5 16.8 -14.95 14.8 -14.7 14.15 -14.75 Q12.7 -14.85 12.35 -14.4 L11.4 -13.2 12.25 -13.6 M11.25 5.05 L9.25 7.1 7.35 6.1 7.55 4.95 Q8.0 2.4 8.4 1.0 L8.6 1.05 9.75 1.95 10.4 2.65 11.1 3.55 10.55 3.45 Q9.15 3.3 8.75 3.7 L8.45 4.3 Q8.35 4.6 8.55 4.55 L9.9 4.45 11.15 4.95 11.25 5.05 M-8.5 4.95 Q-8.3 5.05 -8.35 4.7 L-8.7 4.1 -10.5 3.85 -11.05 3.95 -10.0 2.75 -8.55 1.45 -8.35 1.4 Q-7.95 2.8 -7.5 5.35 L-7.3 6.5 -9.2 7.5 -11.2 5.5 -11.1 5.4 Q-10.45 4.9 -9.85 4.85 L-8.5 4.95" fill="#000000" fill-rule="evenodd" stroke="none"/>
    <path d="M-8.5 4.95 L-9.85 4.85 Q-10.45 4.9 -11.1 5.4 L-11.2 5.5 -9.2 7.5 -7.3 6.5 -7.5 5.35 Q-7.95 2.8 -8.35 1.4 L-8.55 1.45 -10.0 2.75 -11.05 3.95 -10.5 3.85 -8.7 4.1 -8.35 4.7 Q-8.3 5.05 -8.5 4.95 M11.25 5.05 L11.15 4.95 9.9 4.45 8.55 4.55 Q8.35 4.6 8.45 4.3 L8.75 3.7 Q9.15 3.3 10.55 3.45 L11.1 3.55 10.4 2.65 9.75 1.95 8.6 1.05 8.4 1.0 Q8.0 2.4 7.55 4.95 L7.35 6.1 9.25 7.1 11.25 5.05 M12.25 -13.6 L11.4 -13.2 12.35 -14.4 Q12.7 -14.85 14.15 -14.75 L14.8 -14.7 16.8 -14.95 17.4 -15.5 17.8 -14.95 17.35 -14.4 Q17.1 -13.55 17.55 -11.8 18.0 -10.5 17.7 -10.1 L16.85 -9.05 16.95 -9.9 16.75 -11.15 15.55 -8.8 Q16.1 -7.35 15.8 -6.9 L15.0 -5.65 15.0 -6.6 14.8 -7.6 14.65 -7.95 13.75 -5.6 Q14.55 -4.1 14.25 -3.6 L13.5 -2.15 13.45 -3.15 12.85 -4.65 12.3 -2.3 Q13.25 -0.75 13.05 -0.2 L12.6 2.05 18.65 -0.55 Q19.2 -0.3 19.4 0.55 18.0 1.55 16.6 3.0 L14.8 5.1 Q13.65 6.7 13.55 8.1 L12.8 8.95 12.85 8.25 12.7 7.05 12.05 5.85 11.95 5.75 10.05 8.45 10.3 8.7 10.95 9.5 14.0 13.5 Q14.45 14.1 12.5 15.05 10.5 16.05 9.95 15.25 L5.65 9.85 Q2.9 7.1 -0.3 6.8 -3.8 6.45 -6.95 8.25 -9.9 9.95 -11.65 13.1 -12.2 14.1 -14.3 14.6 L-15.25 14.6 Q-15.8 14.4 -15.45 13.85 -13.75 10.7 -10.4 8.3 L-11.9 6.2 -12.0 6.25 -12.65 7.5 -12.8 8.65 -12.75 9.35 -13.5 8.5 Q-13.7 6.3 -16.55 3.4 L-19.35 0.95 Q-19.15 0.1 -18.6 -0.15 L-12.55 2.5 -13.0 0.25 Q-13.2 -0.35 -12.25 -1.9 L-12.8 -4.2 -13.4 -2.75 -13.45 -1.75 -14.2 -3.15 Q-14.45 -3.75 -13.7 -5.2 L-14.6 -7.55 -14.95 -6.15 -14.95 -5.25 -15.75 -6.5 Q-16.05 -6.9 -15.5 -8.35 L-16.7 -10.75 -16.9 -9.45 -16.8 -8.65 -17.65 -9.7 Q-17.95 -10.05 -17.5 -11.4 -17.05 -13.1 -17.3 -14.0 L-17.75 -14.5 -17.35 -15.1 -16.75 -14.5 -14.1 -14.35 Q-12.7 -14.45 -12.3 -14.0 L-11.35 -12.8 -12.2 -13.15 -13.5 -13.3 -11.4 -11.3 Q-9.75 -11.3 -9.4 -10.75 L-8.45 -9.3 -9.35 -9.8 -10.85 -10.1 -8.9 -8.05 Q-7.1 -7.85 -6.8 -7.25 L-5.9 -5.55 -6.8 -6.2 -8.45 -6.65 -6.75 -4.6 Q-4.8 -4.25 -4.45 -3.5 L-3.65 -1.5 -4.6 -2.3 Q-5.3 -2.8 -6.3 -3.0 L-4.85 -0.9 Q-2.85 -0.4 -2.5 0.55 L-1.8 2.8 -2.75 1.8 Q-3.65 1.05 -4.55 0.85 L-6.7 0.8 -6.9 0.85 -5.1 5.6 Q-2.6 4.75 0.25 4.5 2.8 4.3 5.2 5.05 6.1 2.3 6.95 0.45 L6.75 0.4 4.6 0.45 Q3.6 0.7 2.8 1.4 L1.85 2.4 2.55 0.1 Q2.85 -0.75 4.9 -1.35 L6.35 -3.45 Q5.5 -3.3 4.65 -2.75 L3.7 -1.9 4.55 -3.9 Q4.85 -4.65 6.8 -5.0 L8.5 -7.1 Q7.6 -7.0 6.85 -6.6 L5.95 -5.95 6.85 -7.65 Q7.15 -8.3 8.95 -8.5 L10.9 -10.5 9.4 -10.25 8.5 -9.7 9.45 -11.2 Q9.85 -11.75 11.45 -11.75 L13.55 -13.7 12.25 -13.6" fill="#c1ae95" fill-rule="evenodd" stroke="none"/>
  </g>
</svg>
