<?xml version="1.0" encoding="UTF-8" standalone="no"?>
<svg xmlns:xlink="http://www.w3.org/1999/xlink" height="42.0px" width="38.9px" xmlns="http://www.w3.org/2000/svg">
  <g transform="matrix(1.0, 0.0, 0.0, 1.0, 19.45, 21.0)">
    <path d="M1.9 -20.2 L8.85 -6.75 11.25 -7.65 19.45 6.4 7.85 14.2 4.95 11.65 0.65 21.0 -19.45 11.3 -10.25 -9.4 -7.7 -6.95 -3.35 -21.0 -1.9 -20.8 0.0 -12.4 0.85 -20.4 1.9 -20.2 M2.15 -16.9 L1.15 -7.8 4.75 5.5 9.7 10.05 17.2 5.0 10.55 -6.4 8.0 -5.5 2.15 -16.9 M-6.85 -4.65 L-9.65 -7.3 -17.2 9.6 -0.15 17.85 1.8 13.2 -2.8 -17.85 -6.85 -4.65" fill="#000000" fill-rule="evenodd" stroke="none"/>
    <path d="M-6.85 -4.65 L-2.8 -17.85 1.8 13.2 -0.15 17.85 -17.2 9.6 -9.65 -7.3 -6.85 -4.65 M2.15 -16.9 L8.0 -5.5 10.55 -6.4 17.2 5.0 9.7 10.05 4.75 5.5 1.15 -7.8 2.15 -16.9" fill="#c1ae95" fill-rule="evenodd" stroke="none"/>
  </g>
</svg>
