<?xml version="1.0" encoding="UTF-8" standalone="no"?>
<svg xmlns:xlink="http://www.w3.org/1999/xlink" height="42.0px" width="35.85px" xmlns="http://www.w3.org/2000/svg">
  <g transform="matrix(1.0, 0.0, 0.0, 1.0, 17.9, 21.0)">
    <path d="M13.6 12.1 L13.6 14.9 -13.55 14.9 -13.55 12.1 13.6 12.1 M16.05 16.3 L16.05 19.1 -16.0 19.1 -16.0 16.3 16.05 16.3 M11.2 7.9 L11.2 10.7 -11.15 10.7 -11.15 7.9 11.2 7.9 M4.2 -11.65 Q5.3 -9.5 7.5 -6.15 L10.2 -1.55 Q11.3 0.85 11.3 3.35 L11.3 6.8 9.35 6.8 Q8.15 3.65 6.75 1.85 4.8 -0.85 2.3 -1.7 L-2.05 -1.7 Q-4.55 -0.85 -6.5 1.85 -7.9 3.65 -9.1 6.8 L-11.05 6.8 -11.05 3.35 Q-11.05 0.85 -9.95 -1.55 L-7.25 -6.15 Q-5.0 -9.5 -3.95 -11.65 -2.15 -15.2 -1.2 -19.1 L1.45 -19.1 Q2.4 -15.2 4.2 -11.65" fill="#c1ae95" fill-rule="evenodd" stroke="none"/>
    <path d="M5.9 -12.45 Q6.95 -10.45 9.1 -7.2 L12.0 -2.25 Q13.2 0.5 13.2 3.35 L13.2 8.7 13.1 8.7 13.1 10.15 15.55 10.15 15.55 14.35 17.95 14.35 17.95 21.0 -17.9 21.0 -17.9 14.35 -15.45 14.35 -15.45 10.15 -13.05 10.15 -13.05 6.0 -12.95 6.0 -12.95 3.35 Q-12.95 0.5 -11.7 -2.25 L-8.85 -7.2 Q-6.65 -10.45 -5.65 -12.45 -3.9 -15.85 -3.05 -19.55 L-2.7 -21.0 2.95 -21.0 3.3 -19.55 Q4.15 -15.85 5.9 -12.45 M4.2 -11.65 Q2.4 -15.2 1.45 -19.1 L-1.2 -19.1 Q-2.15 -15.2 -3.95 -11.65 -5.0 -9.5 -7.25 -6.15 L-9.95 -1.55 Q-11.05 0.85 -11.05 3.35 L-11.05 6.8 -9.1 6.8 Q-7.9 3.65 -6.5 1.85 -4.55 -0.85 -2.05 -1.7 L2.3 -1.7 Q4.8 -0.85 6.75 1.85 8.15 3.65 9.35 6.8 L11.3 6.8 11.3 3.35 Q11.3 0.85 10.2 -1.55 L7.5 -6.15 Q5.3 -9.5 4.2 -11.65 M11.2 7.9 L-11.15 7.9 -11.15 10.7 11.2 10.7 11.2 7.9 M16.05 16.3 L-16.0 16.3 -16.0 19.1 16.05 19.1 16.05 16.3 M13.6 12.1 L-13.55 12.1 -13.55 14.9 13.6 14.9 13.6 12.1" fill="#000000" fill-rule="evenodd" stroke="none"/>
  </g>
</svg>
