<?xml version="1.0" encoding="UTF-8" standalone="no"?>
<svg xmlns:xlink="http://www.w3.org/1999/xlink" height="42.0px" width="31.4px" xmlns="http://www.w3.org/2000/svg">
  <g transform="matrix(1.0, 0.0, 0.0, 1.0, 15.7, 21.0)">
    <path d="M2.8 0.4 L2.55 0.35 2.3 0.4 1.1 1.35 0.95 1.6 1.05 1.9 6.55 8.05 6.8 8.15 7.05 8.1 7.25 7.95 9.05 6.35 Q9.25 6.1 8.95 5.9 L2.8 0.4 M0.25 -18.95 Q10.3 -19.9 12.65 -15.8 14.9 -11.9 12.8 0.45 11.7 6.65 10.2 12.05 9.4 14.95 6.7 17.0 4.0 19.1 0.95 19.1 L-2.15 19.1 Q-5.2 19.1 -7.75 17.0 -10.35 14.9 -10.95 11.95 -12.25 5.55 -13.1 -1.15 -14.8 -14.5 -12.4 -15.8 -8.1 -18.1 0.25 -18.95 M8.85 -7.8 L0.45 -16.2 0.2 -16.35 -0.05 -16.25 -9.0 -7.7 -9.1 -7.45 -9.0 -7.2 -2.5 -1.15 -2.25 -1.05 -2.0 -1.1 -1.6 -1.35 Q-0.6 -2.0 -0.45 -2.35 -0.25 -2.6 -0.55 -2.8 L-5.6 -7.35 0.0 -12.9 2.8 -10.2 5.5 -7.25 Q4.15 -5.65 -8.0 5.65 L-8.1 5.9 -8.0 6.2 -6.2 7.65 -5.95 7.75 -5.7 7.6 8.85 -7.3 Q9.15 -7.6 8.85 -7.8" fill="#c1ae95" fill-rule="evenodd" stroke="none"/>
    <path d="M14.3 -16.75 Q16.75 -12.5 14.9 -0.45 13.85 6.2 12.05 12.55 11.1 16.1 7.85 18.55 4.65 21.0 0.95 21.0 L-2.15 21.0 Q-5.8 21.0 -8.95 18.45 -12.05 15.9 -12.8 12.3 -14.15 5.75 -15.0 -0.9 -16.1 -9.7 -15.45 -13.65 -15.0 -16.55 -13.3 -17.45 -11.0 -18.7 -6.2 -19.8 -0.85 -21.0 3.65 -21.0 11.85 -21.0 14.3 -16.75 M8.85 -7.8 Q9.15 -7.6 8.85 -7.3 L-5.7 7.6 -5.95 7.75 -6.2 7.65 -8.0 6.2 -8.1 5.9 -8.0 5.65 Q4.15 -5.65 5.5 -7.25 L2.8 -10.2 0.0 -12.9 -5.6 -7.35 -0.55 -2.8 Q-0.25 -2.6 -0.45 -2.35 -0.6 -2.0 -1.6 -1.35 L-2.0 -1.1 -2.25 -1.05 -2.5 -1.15 -9.0 -7.2 -9.1 -7.45 -9.0 -7.7 -0.05 -16.25 0.2 -16.35 0.45 -16.2 8.85 -7.8 M0.25 -18.95 Q-8.1 -18.1 -12.4 -15.8 -14.8 -14.5 -13.1 -1.15 -12.25 5.55 -10.95 11.95 -10.35 14.9 -7.75 17.0 -5.2 19.1 -2.15 19.1 L0.95 19.1 Q4.0 19.1 6.7 17.0 9.4 14.95 10.2 12.05 11.7 6.65 12.8 0.45 14.9 -11.9 12.65 -15.8 10.3 -19.9 0.25 -18.95 M2.8 0.4 L8.95 5.9 Q9.25 6.1 9.05 6.35 L7.25 7.95 7.05 8.1 6.8 8.15 6.55 8.05 1.05 1.9 0.95 1.6 1.1 1.35 2.3 0.4 2.55 0.35 2.8 0.4" fill="#000000" fill-rule="evenodd" stroke="none"/>
  </g>
</svg>
