<?xml version="1.0" encoding="UTF-8" standalone="no"?>
<svg xmlns:xlink="http://www.w3.org/1999/xlink" height="42.0px" width="24.75px" xmlns="http://www.w3.org/2000/svg">
  <g transform="matrix(1.0, 0.0, 0.0, 1.0, 12.35, 21.0)">
    <path d="M-0.95 9.15 L-3.85 9.15 -3.85 15.55 -0.95 15.55 -0.95 9.15 M-1.05 -8.25 L-2.7 -8.25 -2.7 -4.65 -1.05 -4.65 -1.05 -8.25 M3.6 -0.8 L1.35 -0.8 1.35 4.2 3.6 4.2 3.6 -0.8 M0.1 -19.1 L5.4 -16.7 5.4 -15.7 4.4 -15.7 4.4 -10.9 6.05 -10.9 6.05 -11.45 6.7 -11.45 6.7 -8.95 4.85 -8.95 6.5 15.65 10.45 15.65 10.45 19.1 -10.4 19.1 -10.4 15.65 -6.45 15.65 -4.8 -8.95 -6.65 -8.95 -6.65 -11.45 -6.0 -11.45 -6.0 -10.9 -4.35 -10.9 -4.35 -15.7 -5.35 -15.7 -5.35 -16.7 -0.05 -19.1 0.1 -19.1" fill="#c1ae95" fill-rule="evenodd" stroke="none"/>
    <path d="M0.55 -21.0 L7.3 -17.9 7.3 -13.75 8.6 -13.35 8.6 -7.05 6.9 -7.05 8.3 13.7 12.4 13.7 12.4 21.0 -12.35 21.0 -12.35 13.7 -8.25 13.7 -6.85 -7.05 -8.55 -7.05 -8.55 -13.35 -7.25 -13.75 -7.25 -17.9 -0.45 -21.0 0.55 -21.0 M0.1 -19.1 L-0.05 -19.1 -5.35 -16.7 -5.35 -15.7 -4.35 -15.7 -4.35 -10.9 -6.0 -10.9 -6.0 -11.45 -6.65 -11.45 -6.65 -8.95 -4.8 -8.95 -6.45 15.65 -10.4 15.65 -10.4 19.1 10.45 19.1 10.45 15.65 6.5 15.65 4.85 -8.95 6.7 -8.95 6.7 -11.45 6.05 -11.45 6.05 -10.9 4.4 -10.9 4.4 -15.7 5.4 -15.7 5.4 -16.7 0.1 -19.1 M3.6 -0.8 L3.6 4.2 1.35 4.2 1.35 -0.8 3.6 -0.8 M-1.05 -8.25 L-1.05 -4.65 -2.7 -4.65 -2.7 -8.25 -1.05 -8.25 M-0.95 9.15 L-0.95 15.55 -3.85 15.55 -3.85 9.15 -0.95 9.15" fill="#000000" fill-rule="evenodd" stroke="none"/>
  </g>
</svg>
