<?xml version="1.0" encoding="UTF-8" standalone="no"?>
<svg xmlns:xlink="http://www.w3.org/1999/xlink" height="38.4px" width="42.0px" xmlns="http://www.w3.org/2000/svg">
  <g transform="matrix(1.0, 0.0, 0.0, 1.0, 21.0, 19.2)">
    <path d="M1.05 -11.25 Q9.95 -7.45 14.8 -0.5 19.05 5.65 19.25 12.8 L17.95 13.3 17.35 9.9 Q16.35 5.85 14.45 2.4 11.6 -2.85 6.05 -6.2 L1.05 -8.55 1.05 -4.7 5.05 -3.3 Q9.6 -1.2 12.05 2.4 14.55 5.95 16.05 10.05 L17.0 13.4 3.95 16.6 Q3.65 11.5 0.0 6.85 -3.65 11.5 -3.95 16.6 L-17.0 13.4 -16.0 10.05 Q-14.55 5.95 -12.05 2.4 -9.6 -1.2 -5.05 -3.3 -2.8 -4.35 -1.05 -4.7 L-1.05 -8.55 Q-3.25 -7.9 -6.0 -6.2 -11.55 -2.85 -14.45 2.4 -16.3 5.85 -17.35 9.9 L-18.0 13.3 -19.25 12.8 Q-19.05 5.6 -14.8 -0.5 -10.0 -7.45 -1.05 -11.25 L-1.05 -12.15 0.0 -14.6 1.05 -12.15 1.05 -11.25 M5.5 5.95 L9.75 5.95 7.65 2.85 5.5 5.95 M-5.5 5.95 L-7.65 2.85 -9.8 5.95 -5.5 5.95" fill="#c1ae95" fill-rule="evenodd" stroke="none"/>
    <path d="M1.05 -11.25 L1.05 -12.15 0.0 -14.6 -1.05 -12.15 -1.05 -11.25 Q-10.0 -7.45 -14.8 -0.5 -19.05 5.6 -19.25 12.8 L-18.0 13.3 -17.35 9.9 Q-16.3 5.85 -14.45 2.4 -11.55 -2.85 -6.0 -6.2 -3.25 -7.9 -1.05 -8.55 L-1.05 -4.7 Q-2.8 -4.35 -5.05 -3.3 -9.6 -1.2 -12.05 2.4 -14.55 5.95 -16.0 10.05 L-17.0 13.4 -3.95 16.6 Q-3.65 11.5 0.0 6.85 3.65 11.5 3.95 16.6 L17.0 13.4 16.05 10.05 Q14.55 5.95 12.05 2.4 9.6 -1.2 5.05 -3.3 L1.05 -4.7 1.05 -8.55 6.05 -6.2 Q11.6 -2.85 14.45 2.4 16.35 5.85 17.35 9.9 L17.95 13.3 19.25 12.8 Q19.05 5.65 14.8 -0.5 9.95 -7.45 1.05 -11.25 M2.65 -12.9 Q11.0 -9.05 15.85 -2.35 20.7 4.35 20.95 12.5 L21.0 14.1 0.1 19.2 -21.0 14.1 -20.95 12.5 Q-20.7 4.35 -15.9 -2.35 -11.1 -9.05 -2.75 -12.9 L-0.05 -19.2 2.65 -12.9 M-5.5 5.95 L-9.8 5.95 -7.65 2.85 -5.5 5.95 M5.5 5.95 L7.65 2.85 9.75 5.95 5.5 5.95" fill="#000000" fill-rule="evenodd" stroke="none"/>
  </g>
</svg>
