<?xml version="1.0" encoding="UTF-8" standalone="no"?>
<svg xmlns:xlink="http://www.w3.org/1999/xlink" height="40.5px" width="42.0px" xmlns="http://www.w3.org/2000/svg">
  <g transform="matrix(1.0, 0.0, 0.0, 1.0, 21.0, 20.25)">
    <path d="M3.15 -17.5 Q4.35 -16.55 5.5 -15.65 6.8 -14.35 8.5 -10.1 L7.9 -9.25 Q7.35 -8.3 7.45 -7.65 7.65 -6.2 8.75 -3.8 5.4 -1.1 4.55 7.35 4.45 8.2 5.2 9.95 5.9 11.7 6.6 12.3 8.2 13.8 10.45 13.2 12.85 12.55 14.4 9.8 15.95 7.2 16.45 3.1 16.9 -0.4 16.5 -3.75 L15.65 -8.75 Q15.25 -10.7 15.45 -10.9 15.7 -11.2 16.65 -9.45 17.7 -7.4 18.4 -4.3 19.3 -0.5 19.0 3.9 18.6 8.95 16.7 12.65 14.65 16.85 11.2 17.9 L8.0 18.0 Q6.5 17.6 5.2 16.6 3.55 15.2 1.95 12.9 L0.65 10.9 2.0 -3.4 0.7 -5.4 2.05 -7.75 6.7 -8.2 4.3 -10.75 -4.3 -10.75 -6.75 -8.2 -2.05 -7.75 -0.7 -5.4 -2.05 -3.4 -0.7 10.9 Q-2.55 14.35 -5.25 16.6 -6.5 17.6 -8.0 18.0 L-11.25 17.9 Q-12.85 17.4 -14.25 16.05 -15.75 14.65 -16.7 12.65 -18.6 8.95 -18.95 3.9 -19.3 -0.5 -18.4 -4.3 -17.7 -7.4 -16.65 -9.45 -15.75 -11.2 -15.45 -10.9 -15.25 -10.7 -15.65 -8.75 L-16.5 -3.75 Q-16.9 -0.4 -16.45 3.1 -15.95 7.2 -14.4 9.8 -12.85 12.55 -10.45 13.2 -8.2 13.8 -6.6 12.3 -5.9 11.7 -5.2 9.95 -4.5 8.15 -4.6 7.35 -4.85 4.15 -5.65 1.5 -6.8 -2.25 -8.75 -3.8 -7.6 -6.6 -7.45 -7.65 -7.35 -8.3 -7.9 -9.25 L-8.5 -10.1 -7.5 -12.4 -5.55 -15.65 Q-4.0 -17.2 -1.9 -18.2 L-1.3 -17.9 Q-0.6 -17.55 0.0 -17.35 0.95 -17.65 1.9 -18.2 L3.15 -17.5" fill="#c1ae95" fill-rule="evenodd" stroke="none"/>
    <path d="M3.15 -17.5 L1.9 -18.2 Q0.95 -17.65 0.0 -17.35 -0.6 -17.55 -1.3 -17.9 L-1.9 -18.2 Q-4.0 -17.2 -5.55 -15.65 L-7.5 -12.4 -8.5 -10.1 -7.9 -9.25 Q-7.35 -8.3 -7.45 -7.65 -7.6 -6.6 -8.75 -3.8 -6.8 -2.25 -5.65 1.5 -4.85 4.15 -4.6 7.35 -4.5 8.15 -5.2 9.95 -5.9 11.7 -6.6 12.3 -8.2 13.8 -10.45 13.2 -12.85 12.55 -14.4 9.8 -15.95 7.2 -16.45 3.1 -16.9 -0.4 -16.5 -3.75 L-15.65 -8.75 Q-15.25 -10.7 -15.45 -10.9 -15.75 -11.2 -16.65 -9.45 -17.7 -7.4 -18.4 -4.3 -19.3 -0.5 -18.95 3.9 -18.6 8.95 -16.7 12.65 -15.75 14.65 -14.25 16.05 -12.85 17.4 -11.25 17.9 L-8.0 18.0 Q-6.5 17.6 -5.25 16.6 -2.55 14.35 -0.7 10.9 L-2.05 -3.4 -0.7 -5.4 -2.05 -7.75 -6.75 -8.2 -4.3 -10.75 4.3 -10.75 6.7 -8.2 2.05 -7.75 0.7 -5.4 2.0 -3.4 0.65 10.9 1.95 12.9 Q3.55 15.2 5.2 16.6 6.5 17.6 8.0 18.0 L11.2 17.9 Q14.65 16.85 16.7 12.65 18.6 8.95 19.0 3.9 19.3 -0.5 18.4 -4.3 17.7 -7.4 16.65 -9.45 15.7 -11.2 15.45 -10.9 15.25 -10.7 15.65 -8.75 L16.5 -3.75 Q16.9 -0.4 16.45 3.1 15.95 7.2 14.4 9.8 12.85 12.55 10.45 13.2 8.2 13.8 6.6 12.3 5.9 11.7 5.2 9.95 4.45 8.2 4.55 7.35 5.4 -1.1 8.75 -3.8 7.65 -6.2 7.45 -7.65 7.35 -8.3 7.9 -9.25 L8.5 -10.1 Q6.8 -14.35 5.5 -15.65 4.35 -16.55 3.15 -17.5 M2.75 -19.85 L4.2 -19.05 6.9 -16.9 Q8.45 -15.3 10.3 -10.7 L10.75 -9.6 9.95 -8.7 9.35 -7.7 10.55 -4.45 11.1 -3.1 9.95 -2.15 Q8.65 -1.15 7.75 1.45 6.85 4.05 6.5 7.6 6.5 8.3 9.25 9.15 12.1 10.05 12.65 8.95 L12.7 8.95 12.7 8.9 Q14.1 6.55 14.55 2.9 14.95 -0.35 14.55 -3.4 L13.75 -8.1 Q13.4 -9.85 13.4 -10.5 13.4 -11.55 14.1 -12.2 14.65 -12.75 15.5 -12.75 18.35 -12.75 20.3 -4.65 21.25 -0.45 20.9 4.3 20.5 9.7 18.45 13.65 15.95 18.6 11.8 19.85 L9.45 20.25 Q6.45 20.25 3.95 18.2 2.7 17.15 0.0 17.15 -2.7 17.15 -4.0 18.2 -6.45 20.25 -9.45 20.25 L-11.85 19.85 Q-13.8 19.25 -15.55 17.65 -17.3 16.0 -18.45 13.7 -20.5 9.7 -20.9 4.3 -21.3 -0.5 -20.3 -4.6 -19.75 -7.25 -18.8 -9.4 -17.25 -12.75 -15.5 -12.75 -14.75 -12.75 -14.1 -12.2 -13.4 -11.55 -13.4 -10.5 -13.4 -9.85 -13.75 -8.1 L-14.6 -3.4 Q-14.95 -0.3 -14.55 2.9 -14.05 6.6 -12.7 8.9 L-12.7 8.95 Q-12.1 10.05 -9.25 9.15 -6.5 8.3 -6.5 7.65 -7.3 -0.05 -9.95 -2.15 L-11.15 -3.1 -10.55 -4.45 Q-9.5 -6.85 -9.4 -7.7 L-10.0 -8.7 -10.75 -9.6 -10.3 -10.7 Q-8.45 -15.3 -6.9 -16.9 -5.15 -18.7 -2.75 -19.85 L-1.8 -20.25 0.0 -19.3 1.8 -20.25 2.75 -19.85" fill="#000000" fill-rule="evenodd" stroke="none"/>
  </g>
</svg>
