<?xml version="1.0" encoding="UTF-8" standalone="no"?>
<svg xmlns:xlink="http://www.w3.org/1999/xlink" height="41.7px" width="42.0px" xmlns="http://www.w3.org/2000/svg">
  <g transform="matrix(1.0, 0.0, 0.0, 1.0, 21.25, 20.95)">
    <path d="M-0.45 -20.85 L20.75 10.3 20.75 10.35 -2.7 20.65 -2.9 20.75 -2.95 20.65 -13.15 15.65 -13.15 -3.65 -17.6 -0.3 -21.25 -5.4 -0.5 -20.95 -0.45 -20.85 M17.75 9.9 L-1.4 -18.45 -1.45 -18.45 -1.5 -18.45 -1.6 -18.35 -19.05 -5.3 -17.0 -2.45 -16.9 -2.5 -2.15 -13.7 -2.0 -13.75 13.75 11.3 17.75 9.95 17.75 9.9 M-1.55 -2.6 L-1.55 -2.55 -2.6 4.85 -6.05 3.4 -7.8 -2.25 -1.55 -2.6 M-2.5 -10.85 L-11.5 -3.75 -11.5 14.6 -2.6 18.95 11.45 12.7 11.4 12.55 11.35 12.45 -2.5 -10.85" fill="#020202" fill-rule="evenodd" stroke="none"/>
    <path d="M-17.0 -2.45 L-19.05 -5.3 -1.6 -18.35 -1.5 -18.45 -1.45 -18.45 -1.4 -18.45 17.75 9.9 13.75 11.25 -2.0 -13.8 -2.15 -13.75 -16.75 -2.65 -16.85 -2.55 -17.0 -2.45 M-1.55 -2.6 L-7.8 -2.25 -6.05 3.4 -2.6 4.85 -1.55 -2.55 -1.55 -2.6 M-2.5 -10.85 L11.35 12.45 11.4 12.55 11.45 12.7 -2.6 18.95 -11.5 14.6 -11.5 -3.75 -2.5 -10.85" fill="#c1ae95" fill-rule="evenodd" stroke="none"/>
  </g>
</svg>
