<?xml version="1.0" encoding="UTF-8" standalone="no"?>
<svg xmlns:xlink="http://www.w3.org/1999/xlink" height="42.0px" width="27.15px" xmlns="http://www.w3.org/2000/svg">
  <g transform="matrix(1.0, 0.0, 0.0, 1.0, 13.55, 21.0)">
    <path d="M0.95 -19.85 L1.8 -18.05 4.9 -15.65 4.75 -13.2 7.5 -12.6 9.7 -10.65 9.7 -9.8 13.6 -10.4 12.9 -1.65 13.45 1.7 13.4 1.95 13.15 4.85 13.15 5.0 13.1 5.1 12.6 7.55 13.5 8.25 12.65 16.65 5.05 21.0 0.05 21.0 -9.4 15.8 -9.2 11.2 -9.7 8.2 -10.2 6.5 -10.2 6.35 -10.45 4.7 -13.55 -0.95 -10.35 -1.4 -10.0 -3.65 -10.35 -7.1 Q-10.8 -11.05 -10.65 -12.85 -10.55 -14.1 -10.1 -14.65 -9.85 -15.25 -9.45 -17.8 L-9.3 -19.0 -3.75 -21.0 0.95 -19.85 M0.0 -16.75 L-0.65 -18.15 -3.85 -18.95 -7.7 -17.55 Q-8.2 -13.95 -8.7 -13.45 -9.0 -13.15 -8.85 -10.2 L-8.6 -7.3 -8.2 -3.6 -8.85 0.35 -10.6 0.6 -8.7 4.05 -8.45 6.1 -7.95 7.75 -7.45 11.1 -7.55 14.65 0.35 19.0 4.3 19.0 10.6 15.4 11.2 9.15 10.2 8.4 10.95 4.7 11.2 1.75 10.7 -1.55 11.2 -8.05 9.55 -7.8 8.4 -6.75 7.5 -8.5 7.5 -9.75 6.35 -10.8 4.45 -11.15 2.3 -9.1 2.65 -14.7 0.0 -16.75 M-2.85 -8.45 L-4.5 -8.45 -4.5 -11.8 -2.85 -11.8 -2.85 -8.45 M5.35 4.25 L6.75 4.45 6.75 12.6 0.75 12.6 1.3 9.75 Q2.05 6.65 2.9 5.45 3.8 4.25 5.35 4.25" fill="#000000" fill-rule="evenodd" stroke="none"/>
    <path d="M5.35 4.25 Q3.8 4.25 2.9 5.45 2.05 6.65 1.3 9.75 L0.75 12.6 6.75 12.6 6.75 4.45 5.35 4.25 M-2.85 -8.45 L-2.85 -11.8 -4.5 -11.8 -4.5 -8.45 -2.85 -8.45 M0.0 -16.75 L2.65 -14.7 2.3 -9.1 4.45 -11.15 6.35 -10.8 7.5 -9.75 7.5 -8.5 8.4 -6.75 9.55 -7.8 11.2 -8.05 10.7 -1.55 11.2 1.75 10.95 4.7 10.2 8.4 11.2 9.15 10.6 15.4 4.3 19.0 0.35 19.0 -7.55 14.65 -7.45 11.1 -7.95 7.75 -8.45 6.1 -8.7 4.05 -10.6 0.6 -8.85 0.35 -8.2 -3.6 -8.6 -7.3 -8.85 -10.2 Q-9.0 -13.15 -8.7 -13.45 -8.2 -13.95 -7.7 -17.55 L-3.85 -18.95 -0.65 -18.15 0.0 -16.75" fill="#c1ae95" fill-rule="evenodd" stroke="none"/>
  </g>
</svg>
