<?xml version="1.0" encoding="UTF-8" standalone="no"?>
<svg xmlns:xlink="http://www.w3.org/1999/xlink" height="40.4px" width="28.3px" xmlns="http://www.w3.org/2000/svg">
  <g transform="matrix(1.0, 0.0, 0.0, 1.0, 14.15, 20.2)">
    <path d="M0.1 -20.2 Q1.85 -20.2 3.3 -19.25 4.7 -18.3 5.4 -16.7 L13.85 -16.7 10.2 -9.3 8.5 -9.3 10.7 12.8 14.15 12.8 14.15 20.2 -14.15 20.2 -14.15 12.8 -10.6 12.8 -8.4 -9.3 -10.2 -9.3 -13.85 -16.7 -5.2 -16.7 Q-4.55 -18.3 -3.15 -19.25 -1.7 -20.2 0.1 -20.2 M0.1 -18.35 Q-1.45 -18.35 -2.55 -17.35 -3.65 -16.35 -3.8 -14.85 L-10.9 -14.85 -9.05 -11.15 -6.35 -11.15 -8.95 14.65 -12.3 14.65 -12.3 18.35 12.3 18.35 12.3 14.65 9.05 14.65 6.45 -11.15 9.05 -11.15 10.9 -14.85 4.0 -14.85 Q3.8 -16.35 2.7 -17.35 1.6 -18.35 0.1 -18.35 M-1.9 0.2 Q-0.6 -2.7 -0.1 -4.45 L0.2 -4.45 Q0.75 -2.7 2.0 0.2 3.0 3.0 3.05 6.45 L3.05 14.65 -2.95 14.65 -2.95 6.45 Q-2.9 3.0 -1.9 0.2" fill="#000000" fill-rule="evenodd" stroke="none"/>
    <path d="M-1.9 0.2 Q-2.9 3.0 -2.95 6.45 L-2.95 14.65 3.05 14.65 3.05 6.45 Q3.0 3.0 2.0 0.2 0.75 -2.7 0.2 -4.45 L-0.1 -4.45 Q-0.6 -2.7 -1.9 0.2 M0.1 -18.35 Q1.6 -18.35 2.7 -17.35 3.8 -16.35 4.0 -14.85 L10.9 -14.85 9.05 -11.15 6.45 -11.15 9.05 14.65 12.3 14.65 12.3 18.35 -12.3 18.35 -12.3 14.65 -8.95 14.65 -6.35 -11.15 -9.05 -11.15 -10.9 -14.85 -3.8 -14.85 Q-3.65 -16.35 -2.55 -17.35 -1.45 -18.35 0.1 -18.35" fill="#c1ae95" fill-rule="evenodd" stroke="none"/>
  </g>
</svg>
