<?xml version="1.0" encoding="UTF-8" standalone="no"?>
<svg xmlns:xlink="http://www.w3.org/1999/xlink" height="41.2px" width="30.4px" xmlns="http://www.w3.org/2000/svg">
  <g transform="matrix(1.0, 0.0, 0.0, 1.0, 15.2, 20.5)">
    <path d="M0.0 -17.45 L2.9 -20.5 6.85 -14.6 4.45 -12.1 15.2 5.25 11.35 11.05 10.7 10.3 10.8 14.2 -0.3 20.7 -10.75 14.3 -10.75 10.35 -11.35 11.05 -15.2 5.3 -4.5 -12.15 -6.85 -14.6 -2.95 -20.5 0.0 -17.45 M4.3 -15.25 L2.65 -17.75 0.0 -15.0 -2.65 -17.75 -4.3 -15.25 -2.0 -12.85 -12.8 4.8 -11.15 7.3 -8.8 4.6 -8.75 4.7 -8.75 12.75 -0.25 17.9 8.75 12.65 8.6 4.35 11.15 7.3 12.8 4.8 1.9 -12.8 4.3 -15.25 M2.6 11.6 L-2.6 11.6 -1.35 2.5 1.5 2.7 2.6 11.6" fill="#000000" fill-rule="evenodd" stroke="none"/>
    <path d="M2.6 11.6 L1.5 2.7 -1.35 2.5 -2.6 11.6 2.6 11.6 M4.3 -15.25 L1.9 -12.8 12.8 4.8 11.15 7.3 8.6 4.35 8.75 12.65 -0.25 17.9 -8.75 12.75 -8.75 4.7 -8.8 4.6 -11.15 7.3 -12.8 4.8 -2.0 -12.85 -4.3 -15.25 -2.65 -17.75 0.0 -15.0 2.65 -17.75 4.3 -15.25" fill="#c1ae95" fill-rule="evenodd" stroke="none"/>
  </g>
</svg>
