<?xml version="1.0" encoding="UTF-8" standalone="no"?>
<svg xmlns:xlink="http://www.w3.org/1999/xlink" height="42.0px" width="32.35px" xmlns="http://www.w3.org/2000/svg">
  <g transform="matrix(1.0, 0.0, 0.0, 1.0, 16.15, 21.0)">
    <path d="M1.15 -20.9 L1.45 -21.0 1.8 -20.9 4.6 -18.1 4.75 -17.8 4.6 -17.45 3.4 -16.2 9.85 -8.6 9.95 -8.3 9.85 -8.0 8.25 -6.45 8.3 -6.25 8.3 0.9 12.95 0.9 13.25 1.0 13.45 1.25 16.2 13.35 16.2 13.6 16.05 13.8 8.1 20.9 7.85 21.0 7.65 21.0 7.45 20.85 4.1 16.85 -4.05 16.85 -7.4 20.85 -7.55 21.0 -7.85 21.0 -8.05 20.9 -16.0 13.8 -16.1 13.6 -16.15 13.35 -13.4 1.25 -13.2 1.0 -12.95 0.9 -8.25 0.9 -8.25 -6.25 -8.2 -6.45 -9.8 -8.0 -9.95 -8.3 -9.8 -8.6 -3.35 -16.2 -4.55 -17.45 -4.7 -17.8 -4.55 -18.1 -1.75 -20.9 -1.55 -20.95 -1.3 -20.95 -1.05 -20.9 0.0 -19.7 1.15 -20.9 M2.95 -17.8 L1.45 -19.25 0.0 -17.7 -1.45 -19.25 -2.95 -17.8 -1.5 -16.3 -8.15 -8.4 -6.6 -6.85 -5.05 -8.4 -4.75 -5.35 -6.85 -5.35 -6.85 2.3 -8.8 2.3 -8.8 5.7 -9.7 5.7 -9.7 2.3 -12.2 2.3 -14.65 13.1 -7.85 19.15 -4.7 15.5 -1.6 15.5 -1.6 7.95 1.6 7.95 1.6 15.5 4.75 15.5 7.85 19.15 14.7 13.1 12.2 2.3 9.75 2.3 9.75 5.7 8.8 5.7 8.8 2.3 6.9 2.3 6.9 -5.35 4.8 -5.35 5.1 -8.4 6.6 -6.85 8.25 -8.4 1.55 -16.3 2.95 -17.8 M2.5 -3.35 L4.3 -3.35 4.3 -1.55 2.5 -1.55 2.5 -3.35 M-2.45 -3.35 L-2.45 -1.55 -4.3 -1.55 -4.3 -3.35 -2.45 -3.35" fill="#000000" fill-rule="evenodd" stroke="none"/>
    <path d="M-2.45 -3.35 L-4.3 -3.35 -4.3 -1.55 -2.45 -1.55 -2.45 -3.35 M2.5 -3.35 L2.5 -1.55 4.3 -1.55 4.3 -3.35 2.5 -3.35 M2.95 -17.8 L1.55 -16.3 8.25 -8.4 6.6 -6.85 5.1 -8.4 4.8 -5.35 6.9 -5.35 6.9 2.3 8.8 2.3 8.8 5.7 9.75 5.7 9.75 2.3 12.2 2.3 14.7 13.1 7.85 19.15 4.75 15.5 1.6 15.5 1.6 7.95 -1.6 7.95 -1.6 15.5 -4.7 15.5 -7.85 19.15 -14.65 13.1 -12.2 2.3 -9.7 2.3 -9.7 5.7 -8.8 5.7 -8.8 2.3 -6.85 2.3 -6.85 -5.35 -4.75 -5.35 -5.05 -8.4 -6.6 -6.85 -8.15 -8.4 -1.5 -16.3 -2.95 -17.8 -1.45 -19.25 0.0 -17.7 1.45 -19.25 2.95 -17.8" fill="#c1ae95" fill-rule="evenodd" stroke="none"/>
  </g>
</svg>
