<?xml version="1.0" encoding="UTF-8" standalone="no"?>
<svg xmlns:xlink="http://www.w3.org/1999/xlink" height="42.0px" width="38.25px" xmlns="http://www.w3.org/2000/svg">
  <g transform="matrix(1.0, 0.0, 0.0, 1.0, 19.1, 21.0)">
    <path d="M7.35 -18.25 L5.95 -17.45 -5.6 -17.45 -7.9 -18.75 8.15 -18.75 7.35 -18.25 M-12.8 -18.25 L-12.35 -17.45 -14.15 -17.45 -14.15 -1.0 -13.8 1.9 -13.8 2.0 -14.8 2.65 -14.95 2.75 Q-15.45 0.75 -15.45 -1.0 L-15.45 -18.75 -13.1 -18.75 -12.8 -18.25 M-11.95 9.85 L-11.1 8.8 Q-7.4 15.65 -0.65 19.45 L-0.4 19.7 0.65 19.7 0.95 19.45 Q7.5 15.7 11.3 9.05 L12.1 10.15 Q8.25 16.7 1.7 20.5 L1.6 20.65 1.2 21.0 -0.95 21.0 -1.45 20.5 Q-8.15 16.6 -11.95 9.85 M10.45 7.95 Q8.65 11.25 5.95 13.95 L5.95 4.95 6.0 4.95 7.6 4.6 8.05 4.75 10.45 7.95 M15.2 2.85 L14.1 2.0 14.4 -1.0 14.4 -17.45 12.5 -17.45 13.2 -18.75 15.7 -18.75 15.7 -1.0 Q15.7 0.8 15.2 2.85 M7.1 -5.0 L5.95 -5.95 5.95 -8.5 6.0 -8.55 7.05 -9.2 7.6 -9.25 7.65 -9.25 11.55 -16.15 13.1 -16.15 13.1 -1.0 12.9 1.25 11.9 0.5 11.9 0.45 Q12.55 -1.2 12.35 -2.95 12.15 -4.75 11.15 -6.15 L11.0 -6.45 10.7 -6.9 10.2 -7.0 10.1 -7.0 8.8 -7.2 7.3 -7.25 7.25 -7.25 7.1 -5.0 M11.85 -19.4 L11.85 -19.35 6.85 -10.6 6.0 -10.25 2.45 -7.5 9.25 -2.0 Q9.35 -3.5 8.6 -4.55 L8.45 -4.8 8.45 -4.85 8.55 -5.85 8.55 -6.05 8.7 -6.0 9.85 -5.9 9.9 -5.85 10.1 -5.55 Q10.95 -4.3 11.05 -2.75 11.2 -1.2 10.5 0.2 L10.5 0.4 10.8 1.15 17.6 6.4 17.3 9.85 13.85 10.1 8.8 3.4 Q8.15 3.5 7.8 2.95 L6.0 3.5 4.8 3.55 Q3.2 3.45 1.95 2.6 L1.65 2.4 1.65 2.3 1.5 1.2 1.5 1.05 1.65 1.05 2.65 0.95 2.75 0.9 2.95 1.1 Q4.1 1.85 5.6 1.7 4.65 -0.25 0.0 -5.2 L-3.2 -1.6 Q-5.2 0.8 -5.65 1.7 -4.25 1.85 -3.1 1.05 L-2.85 0.9 -2.8 0.9 -1.8 1.0 -1.6 1.0 -1.6 1.2 -1.75 2.3 -1.8 2.35 -2.1 2.55 Q-3.35 3.4 -4.9 3.55 L-5.65 3.55 -8.05 2.95 -8.8 3.25 -14.0 10.0 -14.05 10.05 -17.5 9.75 -17.75 6.3 -11.05 1.25 Q-11.15 0.6 -10.6 0.25 -11.3 -1.15 -11.2 -2.75 -11.1 -4.35 -10.25 -5.6 L-10.05 -5.9 -9.95 -5.9 -8.85 -6.05 -8.7 -6.05 -8.65 -5.9 -8.55 -4.9 -8.55 -4.8 -8.75 -4.6 Q-9.5 -3.45 -9.35 -1.95 -8.45 -2.4 -6.05 -4.35 L-5.65 -4.65 -2.45 -7.5 -5.65 -10.0 -6.95 -10.65 -11.9 -19.45 -11.85 -19.45 -3.05 -14.5 Q-3.0 -13.65 0.0 -10.15 2.95 -13.6 3.0 -14.45 L11.8 -19.45 11.85 -19.4 M-12.65 1.0 L-12.85 -1.0 -12.85 -16.15 -11.55 -16.15 -8.7 -10.95 -7.8 -9.25 -7.75 -9.25 -7.2 -9.2 -5.7 -8.25 -5.7 -6.25 -7.3 -4.95 -7.3 -5.0 -7.4 -5.75 -7.4 -7.3 -7.45 -7.3 -10.25 -7.05 -10.3 -7.05 -10.35 -7.0 -10.85 -6.9 -11.35 -6.2 Q-12.3 -4.8 -12.5 -3.1 -12.7 -1.4 -12.15 0.2 L-12.3 0.7 -12.65 1.0 M-7.35 4.7 L-6.8 4.85 -5.7 5.0 -5.7 13.95 Q-8.55 11.05 -10.3 7.55 L-8.0 4.5 -7.35 4.7" fill="#000000" fill-rule="evenodd" stroke="none"/>
    <path d="M7.35 -18.25 L12.05 -20.9 12.1 -20.85 12.25 -20.95 13.65 -19.55 13.2 -18.75 12.5 -17.45 14.4 -17.45 14.4 -1.0 14.1 2.0 15.2 2.85 19.15 5.9 18.7 11.15 18.5 11.2 13.25 11.6 8.1 4.75 7.6 4.6 6.0 4.95 5.95 4.95 5.95 13.95 Q8.65 11.25 10.45 7.95 L11.3 9.05 Q7.5 15.7 0.95 19.45 L0.65 19.7 -0.4 19.7 -0.65 19.45 Q-7.4 15.65 -11.1 8.8 L-11.95 9.85 -13.25 11.5 -13.35 11.5 -13.45 11.55 -18.7 11.1 -19.1 5.85 -14.8 2.65 -13.8 2.0 -13.8 1.9 -14.15 -1.0 -14.15 -17.45 -12.35 -17.45 -12.8 -18.25 -13.5 -19.55 -12.8 -20.2 -12.8 -20.25 -12.1 -20.95 -12.0 -20.9 -11.9 -21.0 -7.9 -18.75 -5.6 -17.45 5.95 -17.45 7.35 -18.25 M11.85 -19.4 L11.8 -19.45 3.0 -14.45 Q2.95 -13.6 0.0 -10.15 -3.0 -13.65 -3.05 -14.5 L-11.85 -19.45 -11.9 -19.45 -6.95 -10.65 -5.65 -10.0 -2.45 -7.5 -5.65 -4.65 -6.05 -4.35 Q-8.45 -2.4 -9.35 -1.95 -9.5 -3.45 -8.75 -4.6 L-8.55 -4.8 -8.55 -4.9 -8.65 -5.9 -8.7 -6.05 -8.85 -6.05 -9.95 -5.9 -10.05 -5.9 -10.25 -5.6 Q-11.1 -4.35 -11.2 -2.75 -11.3 -1.15 -10.6 0.25 -11.15 0.6 -11.05 1.25 L-17.75 6.3 -17.5 9.75 -14.05 10.05 -14.0 10.0 -8.8 3.25 -8.05 2.95 -5.65 3.55 -4.9 3.55 Q-3.35 3.4 -2.1 2.55 L-1.8 2.35 -1.75 2.3 -1.6 1.2 -1.6 1.0 -1.8 1.0 -2.8 0.9 -2.85 0.9 -3.1 1.05 Q-4.25 1.85 -5.65 1.7 -5.2 0.8 -3.2 -1.6 L0.0 -5.2 Q4.65 -0.25 5.6 1.7 4.1 1.85 2.95 1.1 L2.75 0.9 2.65 0.95 1.65 1.05 1.5 1.05 1.5 1.2 1.65 2.3 1.65 2.4 1.95 2.6 Q3.2 3.45 4.8 3.55 L6.0 3.5 7.8 2.95 Q8.15 3.5 8.8 3.4 L13.85 10.1 17.3 9.85 17.6 6.4 10.8 1.15 10.5 0.4 10.5 0.2 Q11.2 -1.2 11.05 -2.75 10.95 -4.3 10.1 -5.55 L9.9 -5.85 9.85 -5.9 8.7 -6.0 8.55 -6.05 8.55 -5.85 8.45 -4.85 8.45 -4.8 8.6 -4.55 Q9.35 -3.5 9.25 -2.0 L2.45 -7.5 6.0 -10.25 6.85 -10.6 11.85 -19.35 11.85 -19.4 M7.3 -7.25 L8.8 -7.2 10.1 -7.0 10.2 -7.0 10.7 -6.9 11.0 -6.45 11.15 -6.15 Q12.15 -4.75 12.35 -2.95 12.55 -1.2 11.9 0.45 L11.9 0.5 12.9 1.25 13.1 -1.0 13.1 -16.15 11.55 -16.15 7.65 -9.25 7.6 -9.25 7.05 -9.2 6.0 -8.55 5.95 -8.5 5.95 -5.95 7.1 -5.0 7.15 -4.95 7.3 -7.25 M-8.7 -10.95 L-11.55 -16.15 -12.85 -16.15 -12.85 -1.0 -12.65 1.0 -12.8 1.15 -12.25 0.7 -12.1 0.2 Q-12.65 -1.4 -12.45 -3.1 -12.25 -4.8 -11.3 -6.2 L-10.8 -6.9 -10.3 -7.0 -10.25 -7.05 -7.45 -7.3 -7.4 -7.3 -7.4 -5.75 -7.3 -5.0 -7.3 -4.95 -5.7 -6.25 -5.7 -8.25 -7.2 -9.2 -7.75 -9.25 -8.7 -10.95 M-8.0 4.5 L-10.3 7.55 Q-8.55 11.05 -5.7 13.95 L-5.7 5.0 -6.8 4.85 -7.35 4.7 -7.95 4.5 -8.0 4.5" fill="#c1ae95" fill-rule="evenodd" stroke="none"/>
  </g>
</svg>
