<?xml version="1.0" encoding="UTF-8" standalone="no"?>
<svg xmlns:xlink="http://www.w3.org/1999/xlink" height="42.0px" width="27.3px" xmlns="http://www.w3.org/2000/svg">
  <g transform="matrix(1.0, 0.0, 0.0, 1.0, 13.65, 21.0)">
    <path d="M0.55 -13.9 L3.55 -6.55 3.55 -5.45 0.9 -7.85 Q0.4 -8.35 0.4 -8.7 L0.4 -13.9 0.45 -14.0 0.55 -13.9 M0.45 -7.15 L3.05 -4.75 3.55 -3.9 3.55 -2.75 3.45 -2.9 0.9 -5.2 0.4 -6.0 0.4 -7.05 0.45 -7.15 M0.4 -4.4 L0.45 -4.5 0.55 -4.35 3.05 -2.1 3.55 -1.25 3.55 -0.1 0.95 -2.5 Q0.4 -3.05 0.4 -3.35 L0.4 -4.4 M6.0 -2.35 L8.05 -5.45 13.45 2.5 13.65 2.85 13.65 13.8 13.0 14.15 12.75 14.25 0.75 20.55 0.55 20.7 -0.05 21.0 -13.65 13.85 -13.65 2.85 -8.0 -5.45 -5.95 -2.35 -5.6 -10.6 -5.55 -10.9 -5.45 -11.15 0.0 -21.0 5.6 -10.9 6.0 -2.35 M0.0 -18.65 L-4.3 -10.8 -4.9 1.35 -8.0 -3.4 -12.35 2.95 -12.35 12.8 -0.05 19.3 12.2 12.9 12.4 12.75 12.4 2.95 8.05 -3.4 4.95 1.35 4.35 -10.8 0.0 -18.65 M11.55 4.35 L11.55 5.65 10.1 4.25 10.05 4.25 8.95 3.25 Q8.45 2.75 8.45 2.4 L8.45 1.25 8.55 1.4 11.1 3.7 11.55 4.35 M7.65 1.2 L7.65 2.25 7.15 3.1 4.5 5.5 4.5 4.35 Q4.5 4.05 5.0 3.5 L7.55 1.25 7.6 1.1 7.65 1.2 M6.15 5.2 L6.15 5.15 7.6 3.8 7.65 3.85 7.65 4.9 7.15 5.75 4.6 8.05 4.5 8.2 4.5 7.05 Q4.5 6.7 5.0 6.2 L6.1 5.2 6.15 5.2 M7.6 6.45 L7.65 6.55 7.65 12.7 4.5 14.4 4.5 9.7 6.1 7.85 6.15 7.85 7.6 6.45 M-0.4 -14.0 L-0.35 -8.7 Q-0.35 -8.4 -0.9 -7.85 L-2.0 -6.85 -2.05 -6.85 -3.5 -5.45 -3.55 -6.55 -0.5 -13.9 -0.4 -14.0 M-0.9 -5.2 L-2.0 -4.15 -2.05 -4.15 -3.4 -2.9 -3.5 -2.75 -3.55 -2.85 -3.55 -3.9 -3.0 -4.75 -0.4 -7.15 -0.35 -6.0 Q-0.45 -5.65 -0.9 -5.2 M-0.4 -3.35 Q-0.4 -3.0 -0.9 -2.5 L-2.0 -1.5 -2.05 -1.5 -3.5 -0.1 -3.55 -0.2 -3.55 -1.25 -3.0 -2.1 -0.5 -4.35 -0.4 -4.5 -0.4 -3.35 M-4.5 5.5 L-7.1 3.1 -7.6 2.25 -7.6 1.1 -7.5 1.25 -4.95 3.5 Q-4.45 4.15 -4.45 4.35 L-4.45 5.4 -4.5 5.5 M-3.0 0.6 L-0.4 -1.8 -0.8 16.35 -3.55 14.9 -3.55 1.45 -3.0 0.6 M-8.4 2.4 Q-8.4 2.75 -8.9 3.25 L-11.45 5.55 -11.5 5.65 -11.5 4.35 -11.05 3.7 -8.5 1.4 -8.45 1.25 -8.4 1.35 -8.4 2.4 M-8.25 3.85 L-8.25 12.4 -11.35 10.8 -11.4 7.05 -10.9 6.2 -8.3 3.8 -8.25 3.85 M-7.6 3.8 L-6.1 5.15 -6.1 5.2 -4.95 6.2 Q-4.45 6.7 -4.45 7.05 L-4.45 8.1 -4.5 8.2 -4.55 8.05 -7.1 5.75 -7.6 4.9 -7.6 3.8" fill="#000000" fill-rule="evenodd" stroke="none"/>
    <path d="M0.4 -4.4 L0.4 -3.35 Q0.4 -3.05 0.95 -2.5 L3.55 -0.1 3.55 -1.25 3.05 -2.1 0.55 -4.35 0.45 -4.5 0.4 -4.4 M0.45 -7.15 L0.4 -7.05 0.4 -6.0 0.9 -5.2 3.45 -2.9 3.55 -2.75 3.55 -3.9 3.05 -4.75 0.45 -7.15 M0.55 -13.9 L0.45 -14.0 0.4 -13.9 0.4 -8.7 Q0.4 -8.35 0.9 -7.85 L3.55 -5.45 3.55 -6.55 0.55 -13.9 M-7.6 3.8 L-7.6 4.9 -7.1 5.75 -4.55 8.05 -4.5 8.2 -4.45 8.1 -4.45 7.05 Q-4.45 6.7 -4.95 6.2 L-6.1 5.2 -6.1 5.15 -7.6 3.8 M-8.25 3.85 L-8.3 3.8 -10.9 6.2 -11.4 7.05 -11.35 10.8 -8.25 12.4 -8.25 3.85 M-8.4 2.4 L-8.4 1.35 -8.45 1.25 -8.5 1.4 -11.05 3.7 -11.5 4.35 -11.5 5.65 -11.45 5.55 -8.9 3.25 Q-8.4 2.75 -8.4 2.4 M-3.0 0.6 L-3.55 1.45 -3.55 14.9 -0.8 16.35 -0.4 -1.8 -3.0 0.6 M-4.5 5.5 L-4.45 5.4 -4.45 4.35 Q-4.45 4.15 -4.95 3.5 L-7.5 1.25 -7.6 1.1 -7.6 2.25 -7.1 3.1 -4.5 5.5 M-0.4 -3.35 L-0.4 -4.5 -0.5 -4.35 -3.0 -2.1 -3.55 -1.25 -3.55 -0.2 -3.5 -0.1 -2.05 -1.5 -2.0 -1.5 -0.9 -2.5 Q-0.4 -3.0 -0.4 -3.35 M-0.9 -5.2 Q-0.45 -5.65 -0.35 -6.0 L-0.4 -7.15 -3.0 -4.75 -3.55 -3.9 -3.55 -2.85 -3.5 -2.75 -3.4 -2.9 -2.05 -4.15 -2.0 -4.15 -0.9 -5.2 M-0.4 -14.0 L-0.5 -13.9 -3.55 -6.55 -3.5 -5.45 -2.05 -6.85 -2.0 -6.85 -0.9 -7.85 Q-0.35 -8.4 -0.35 -8.7 L-0.4 -14.0 M7.6 6.45 L6.15 7.85 6.1 7.85 4.5 9.7 4.5 14.4 7.65 12.7 7.65 6.55 7.6 6.45 M6.15 5.2 L6.1 5.2 5.0 6.2 Q4.5 6.7 4.5 7.05 L4.5 8.2 4.6 8.05 7.15 5.75 7.65 4.9 7.65 3.85 7.6 3.8 6.15 5.15 6.15 5.2 M7.65 1.2 L7.6 1.1 7.55 1.25 5.0 3.5 Q4.5 4.05 4.5 4.35 L4.5 5.5 7.15 3.1 7.65 2.25 7.65 1.2 M11.55 4.35 L11.1 3.7 8.55 1.4 8.45 1.25 8.45 2.4 Q8.45 2.75 8.95 3.25 L10.05 4.25 10.1 4.25 11.55 5.65 11.55 4.35 M0.0 -18.65 L4.35 -10.8 4.95 1.35 8.05 -3.4 12.4 2.95 12.4 12.75 12.2 12.9 -0.05 19.3 -12.35 12.8 -12.35 2.95 -8.0 -3.4 -4.9 1.35 -4.3 -10.8 0.0 -18.65" fill="#c1ae95" fill-rule="evenodd" stroke="none"/>
  </g>
</svg>
