<?xml version="1.0" encoding="UTF-8" standalone="no"?>
<svg xmlns:xlink="http://www.w3.org/1999/xlink" height="38.7px" width="26.9px" xmlns="http://www.w3.org/2000/svg">
  <g transform="matrix(1.0, 0.0, 0.0, 1.0, 13.45, 19.35)">
    <path d="M1.0 -16.7 Q1.7 -16.3 1.7 -15.65 L2.45 -15.3 3.3 -14.5 Q3.55 -13.5 4.0 -12.95 L5.75 -11.35 Q7.3 -9.9 7.25 -9.4 7.65 -8.55 8.3 -8.5 L8.7 -8.45 9.85 -8.55 Q10.6 -7.95 9.9 -7.25 9.85 -6.2 9.35 -5.85 L8.45 -5.55 Q8.2 -4.5 7.8 -4.5 L7.75 -4.5 7.65 -5.05 7.4 -5.35 6.75 -5.2 6.3 -4.8 Q5.85 -4.3 6.35 -3.1 6.35 -2.9 7.0 -2.9 L7.2 -2.9 Q7.3 -2.65 6.6 -2.45 L6.75 -1.95 Q6.65 -1.6 5.75 -1.6 L5.25 -1.7 Q4.95 -1.8 3.95 -2.55 L2.75 -3.35 2.7 -3.4 1.7 -2.95 0.95 -2.2 2.25 1.6 Q1.0 1.05 -0.45 -0.1 -3.4 -2.4 -4.45 -5.3 L-6.15 -9.35 Q-8.05 -14.0 -11.3 -15.8 L-11.3 -15.95 -9.0 -16.2 -6.65 -16.05 -8.05 -17.0 -8.1 -17.15 -6.8 -17.3 Q-4.35 -17.3 -1.55 -15.95 -0.85 -16.85 0.2 -16.85 L1.0 -16.7 M0.7 -13.95 Q0.4 -14.9 0.6 -15.75 0.75 -16.25 -0.05 -16.25 L-0.1 -16.25 Q-0.85 -16.15 -1.0 -15.6 -1.3 -14.7 -0.9 -13.5 -0.85 -13.2 -0.3 -13.2 L0.45 -13.4 0.7 -13.95 M4.35 -14.75 Q4.1 -15.7 2.6 -16.45 2.3 -17.1 1.45 -17.65 -0.2 -18.35 -1.8 -17.2 -4.25 -18.35 -6.8 -18.35 L-8.35 -18.2 Q-9.1 -18.0 -9.2 -17.25 L-11.6 -16.95 Q-12.4 -16.75 -12.4 -16.0 -12.5 -15.3 -11.85 -14.9 L-9.9 -13.35 -12.0 -13.35 -12.0 0.7 Q-12.0 4.3 -9.5 8.9 -6.3 14.8 -0.55 18.1 L-0.3 18.35 0.75 18.35 1.0 18.1 Q6.75 14.8 9.95 8.9 12.45 4.3 12.45 0.7 L12.45 -13.35 5.1 -13.35 4.85 -13.6 Q4.45 -14.1 4.35 -14.75 M1.85 -18.55 L3.35 -17.2 Q5.0 -16.25 5.3 -14.95 L5.55 -14.35 13.45 -14.35 13.45 0.7 Q13.45 4.45 10.9 9.25 7.55 15.45 1.6 18.9 L1.15 19.35 -0.7 19.35 -1.15 18.9 Q-7.1 15.45 -10.45 9.25 -13.0 4.45 -13.0 0.7 L-13.0 -14.35 -12.8 -14.35 Q-13.55 -15.2 -13.4 -16.15 -13.25 -17.55 -11.85 -17.9 L-9.9 -18.25 Q-9.4 -19.0 -8.6 -19.15 L-6.8 -19.35 Q-4.3 -19.35 -1.9 -18.3 -0.05 -19.4 1.85 -18.55 M6.4 -10.2 L6.25 -10.25 4.8 -9.95 Q3.75 -9.65 3.75 -9.55 L5.1 -9.1 5.5 -8.7 5.85 -7.8 5.75 -6.8 6.0 -6.45 6.1 -6.6 Q6.5 -7.4 6.35 -8.2 L6.35 -8.7 6.4 -8.85 6.5 -9.5 6.4 -10.2 M11.1 2.8 L0.35 13.5 -10.4 2.7 -10.65 0.7 -10.65 -2.2 0.35 8.85 11.35 -2.1 11.35 0.7 11.1 2.8" fill="#000000" fill-rule="evenodd" stroke="none"/>
    <path d="M4.35 -14.75 Q4.45 -14.1 4.85 -13.6 L5.1 -13.35 12.45 -13.35 12.45 0.7 Q12.45 4.3 9.95 8.9 6.75 14.8 1.0 18.1 L0.75 18.35 -0.3 18.35 -0.55 18.1 Q-6.3 14.8 -9.5 8.9 -12.0 4.3 -12.0 0.7 L-12.0 -13.35 -9.9 -13.35 -11.85 -14.9 Q-12.5 -15.3 -12.4 -16.0 -12.4 -16.75 -11.6 -16.95 L-9.2 -17.25 Q-9.1 -18.0 -8.35 -18.2 L-6.8 -18.35 Q-4.25 -18.35 -1.8 -17.2 -0.2 -18.35 1.45 -17.65 2.3 -17.1 2.6 -16.45 4.1 -15.7 4.35 -14.75 M0.7 -13.95 L0.45 -13.4 -0.3 -13.2 Q-0.85 -13.2 -0.9 -13.5 -1.3 -14.7 -1.0 -15.6 -0.85 -16.15 -0.1 -16.25 L-0.05 -16.25 Q0.75 -16.25 0.6 -15.75 0.4 -14.9 0.7 -13.95 M1.0 -16.7 L0.2 -16.85 Q-0.85 -16.85 -1.55 -15.95 -4.35 -17.3 -6.8 -17.3 L-8.1 -17.15 -8.05 -17.0 -6.65 -16.05 -9.0 -16.2 -11.3 -15.95 -11.3 -15.8 Q-8.05 -14.0 -6.15 -9.35 L-4.45 -5.3 Q-3.4 -2.4 -0.45 -0.1 1.0 1.05 2.25 1.6 L0.95 -2.2 1.7 -2.95 2.7 -3.4 2.75 -3.35 3.95 -2.55 Q4.95 -1.8 5.25 -1.7 L5.75 -1.6 Q6.65 -1.6 6.75 -1.95 L6.6 -2.45 Q7.3 -2.65 7.2 -2.9 L7.0 -2.9 Q6.35 -2.9 6.35 -3.1 5.85 -4.3 6.3 -4.8 L6.75 -5.2 7.4 -5.35 7.65 -5.05 7.75 -4.5 7.8 -4.5 Q8.2 -4.5 8.45 -5.55 L9.35 -5.85 Q9.85 -6.2 9.9 -7.25 10.6 -7.95 9.85 -8.55 L8.7 -8.45 8.3 -8.5 Q7.65 -8.55 7.25 -9.4 7.3 -9.9 5.75 -11.35 L4.0 -12.95 Q3.55 -13.5 3.3 -14.5 L2.45 -15.3 1.7 -15.65 Q1.7 -16.3 1.0 -16.7 M6.4 -10.2 L6.5 -9.5 6.4 -8.85 6.35 -8.7 6.35 -8.2 Q6.5 -7.4 6.1 -6.6 L6.0 -6.45 5.75 -6.8 5.85 -7.8 5.5 -8.7 5.1 -9.1 3.75 -9.55 Q3.75 -9.65 4.8 -9.95 L6.25 -10.25 6.4 -10.2 M11.1 2.8 L11.35 0.7 11.35 -2.1 0.35 8.85 -10.65 -2.2 -10.65 0.7 -10.4 2.7 0.35 13.5 11.1 2.8" fill="#c1ae95" fill-rule="evenodd" stroke="none"/>
  </g>
</svg>
