<?xml version="1.0" encoding="UTF-8" standalone="no"?>
<svg xmlns:xlink="http://www.w3.org/1999/xlink" height="42.0px" width="26.5px" xmlns="http://www.w3.org/2000/svg">
  <g transform="matrix(1.0, 0.0, 0.0, 1.0, 13.25, 21.0)">
    <path d="M1.45 -19.55 Q-3.4 -19.55 -6.8 -15.7 L-8.15 -14.05 -7.85 -13.75 -9.5 -11.15 -11.7 -11.15 -11.7 2.45 Q-11.7 5.95 -9.25 10.4 -6.1 16.15 -0.5 19.35 L-0.3 19.6 0.6 19.6 0.8 19.35 Q6.4 16.15 9.55 10.4 11.95 5.95 11.95 2.45 L11.95 -11.15 8.6 -11.15 8.1 -12.2 8.1 -12.85 Q8.1 -15.65 6.6 -17.4 4.9 -19.45 1.65 -19.55 L1.45 -19.55 M1.3 -21.0 L1.55 -21.0 Q5.45 -20.9 7.6 -18.3 9.4 -16.05 9.4 -12.9 L9.4 -12.6 13.25 -12.6 13.25 2.45 Q13.25 6.2 10.7 10.95 7.45 17.05 1.55 20.5 L1.05 21.0 -1.05 21.0 -1.55 20.5 Q-7.4 17.05 -10.7 10.95 -13.25 6.15 -13.25 2.45 L-13.25 -12.6 -10.5 -12.6 -9.9 -13.55 -10.2 -13.85 -8.0 -16.65 Q-4.1 -21.0 1.3 -21.0 M-0.3 -15.25 Q-0.6 -14.8 -0.35 -13.45 -0.1 -12.2 0.35 -11.25 -0.7 -11.05 -0.8 -8.15 -0.9 -5.45 -0.35 -4.65 0.2 -3.85 2.2 -3.7 0.8 -2.8 2.45 0.3 4.45 4.15 4.15 5.9 L3.4 4.1 Q2.5 2.6 1.4 1.6 0.45 0.8 -3.6 -0.5 -7.3 -1.65 -9.2 -3.85 -8.95 -6.7 -7.75 -9.4 -5.4 -14.65 -0.3 -15.25 M-1.55 -12.9 L-2.25 -12.9 Q-3.1 -12.8 -4.0 -12.35 L-4.5 -10.7 Q-4.9 -8.8 -4.45 -7.45 -3.7 -5.25 -2.2 -3.85 -4.55 -7.4 -3.3 -10.5 L-1.55 -12.9 M5.75 -9.8 Q5.8 -10.3 5.5 -10.25 L4.8 -10.25 Q4.1 -10.35 3.75 -10.65 3.4 -10.95 3.15 -11.6 L3.0 -12.2 Q2.7 -11.35 3.55 -10.3 3.65 -9.05 4.6 -8.65 L5.5 -8.5 7.1 -6.05 7.45 -6.05 5.75 -9.8 M4.1 -14.05 L2.8 -14.3 2.2 -14.2 Q2.0 -15.05 1.2 -15.55 -0.1 -16.4 -2.25 -15.5 -4.3 -14.55 -5.7 -13.25 L-5.1 -13.95 Q-2.15 -17.2 1.75 -17.15 4.0 -17.05 5.1 -15.75 6.1 -14.5 6.1 -12.55 5.05 -13.6 4.1 -14.05 M1.65 -13.7 L1.7 -13.7 Q2.6 -13.75 4.05 -13.0 5.55 -12.25 6.1 -11.35 L9.75 -3.15 Q9.75 -2.35 9.55 -2.35 L9.55 -2.3 Q9.75 -0.7 9.15 -0.5 L8.2 -0.35 8.0 -0.35 Q7.8 -0.45 7.5 -1.75 L7.15 -3.15 6.45 -3.05 Q5.95 -2.65 6.15 -2.2 L6.3 -1.9 7.25 -0.5 Q6.3 -0.1 5.95 -0.3 L5.2 -1.45 Q5.05 -1.65 5.15 -2.15 L5.2 -3.05 Q5.05 -3.45 2.85 -4.25 L0.45 -5.05 Q-0.05 -5.55 0.0 -7.7 0.05 -9.6 0.25 -10.2 0.45 -10.7 1.75 -11.1 L2.3 -11.25 1.75 -11.4 Q0.8 -11.55 0.65 -12.2 L0.6 -12.35 0.0 -15.1 1.6 -13.75 1.65 -13.7 M-9.3 7.8 L9.65 7.8 8.15 10.75 -7.85 10.75 -9.3 7.8" fill="#000000" fill-rule="evenodd" stroke="none"/>
    <path d="M1.45 -19.55 L1.65 -19.55 Q4.9 -19.45 6.6 -17.4 8.1 -15.65 8.1 -12.85 L8.1 -12.2 8.6 -11.15 11.95 -11.15 11.95 2.45 Q11.95 5.95 9.55 10.4 6.4 16.15 0.8 19.35 L0.6 19.6 -0.3 19.6 -0.5 19.35 Q-6.1 16.15 -9.25 10.4 -11.7 5.95 -11.7 2.45 L-11.7 -11.15 -9.5 -11.15 -7.85 -13.75 -8.15 -14.05 -6.8 -15.7 Q-3.4 -19.55 1.45 -19.55 M1.65 -13.7 L1.6 -13.75 0.0 -15.1 0.6 -12.35 0.65 -12.2 Q0.8 -11.55 1.75 -11.4 L2.3 -11.25 1.75 -11.1 Q0.45 -10.7 0.25 -10.2 0.05 -9.6 0.0 -7.7 -0.05 -5.55 0.45 -5.05 L2.85 -4.25 Q5.05 -3.45 5.2 -3.05 L5.15 -2.15 Q5.05 -1.65 5.2 -1.45 L5.95 -0.3 Q6.3 -0.1 7.25 -0.5 L6.3 -1.9 6.15 -2.2 Q5.95 -2.65 6.45 -3.05 L7.15 -3.15 7.5 -1.75 Q7.8 -0.45 8.0 -0.35 L8.2 -0.35 9.15 -0.5 Q9.75 -0.7 9.55 -2.3 L9.55 -2.35 Q9.75 -2.35 9.75 -3.15 L6.1 -11.35 Q5.55 -12.25 4.05 -13.0 2.6 -13.75 1.7 -13.7 L1.65 -13.7 M4.1 -14.05 Q5.05 -13.6 6.1 -12.55 6.1 -14.5 5.1 -15.75 4.0 -17.05 1.75 -17.15 -2.15 -17.2 -5.1 -13.95 L-5.7 -13.25 Q-4.3 -14.55 -2.25 -15.5 -0.1 -16.4 1.2 -15.55 2.0 -15.05 2.2 -14.2 L2.8 -14.3 4.1 -14.05 M5.75 -9.8 L7.45 -6.05 7.1 -6.05 5.5 -8.5 4.6 -8.65 Q3.65 -9.05 3.55 -10.3 2.7 -11.35 3.0 -12.2 L3.15 -11.6 Q3.4 -10.95 3.75 -10.65 4.1 -10.35 4.8 -10.25 L5.5 -10.25 Q5.8 -10.3 5.75 -9.8 M-1.55 -12.9 L-3.3 -10.5 Q-4.55 -7.4 -2.2 -3.85 -3.7 -5.25 -4.45 -7.45 -4.9 -8.8 -4.5 -10.7 L-4.0 -12.35 Q-3.1 -12.8 -2.25 -12.9 L-1.55 -12.9 M-0.3 -15.25 Q-5.4 -14.65 -7.75 -9.4 -8.95 -6.7 -9.2 -3.85 -7.3 -1.65 -3.6 -0.5 0.45 0.8 1.4 1.6 2.5 2.6 3.4 4.1 L4.15 5.9 Q4.45 4.15 2.45 0.3 0.8 -2.8 2.2 -3.7 0.2 -3.85 -0.35 -4.65 -0.9 -5.45 -0.8 -8.15 -0.7 -11.05 0.35 -11.25 -0.1 -12.2 -0.35 -13.45 -0.6 -14.8 -0.3 -15.25 M-9.3 7.8 L-7.85 10.75 8.15 10.75 9.65 7.8 -9.3 7.8" fill="#c1ae95" fill-rule="evenodd" stroke="none"/>
  </g>
</svg>
