<?xml version="1.0" encoding="UTF-8" standalone="no"?>
<svg xmlns:xlink="http://www.w3.org/1999/xlink" height="42.0px" width="28.75px" xmlns="http://www.w3.org/2000/svg">
  <g transform="matrix(1.0, 0.0, 0.0, 1.0, 14.35, 21.0)">
    <path d="M0.8 -21.0 L1.3 -19.25 5.55 -11.95 5.55 -11.8 6.25 -8.4 7.5 -8.4 7.05 -5.85 7.35 -5.85 7.35 2.35 12.35 2.35 12.6 2.6 14.4 14.4 13.6 14.85 Q7.2 17.75 0.75 20.6 L0.1 21.0 -0.6 20.6 -13.55 14.85 -14.35 14.4 -12.55 2.6 -12.35 2.35 -7.35 2.35 -7.35 -5.85 -7.0 -5.85 -7.45 -8.4 -6.25 -8.4 -5.55 -11.8 -5.55 -11.9 -5.5 -11.95 -1.3 -19.25 -0.75 -21.0 0.8 -21.0 M5.15 -6.85 L4.25 -11.35 0.0 -18.65 -4.2 -11.35 -5.1 -6.85 -5.85 -6.85 -5.35 -4.25 -5.95 -4.25 -5.95 3.95 -10.8 3.95 -10.25 9.45 -11.8 6.8 -12.85 13.85 -3.55 18.1 -2.35 10.0 2.35 10.0 3.55 18.15 12.9 13.85 11.8 6.8 10.25 9.45 10.85 3.95 6.0 3.95 6.0 -4.25 5.4 -4.25 5.85 -6.85 5.15 -6.85 M1.3 3.1 L-1.25 3.1 -1.25 -5.9 1.3 -5.9 1.3 3.1" fill="#000000" fill-rule="evenodd" stroke="none"/>
    <path d="M1.3 3.1 L1.3 -5.9 -1.25 -5.9 -1.25 3.1 1.3 3.1 M5.15 -6.85 L5.85 -6.85 5.4 -4.25 6.0 -4.25 6.0 3.95 10.85 3.95 10.25 9.45 11.8 6.8 12.9 13.85 3.55 18.15 2.35 10.0 -2.35 10.0 -3.55 18.1 -12.85 13.85 -11.8 6.8 -10.25 9.45 -10.8 3.95 -5.95 3.95 -5.95 -4.25 -5.35 -4.25 -5.85 -6.85 -5.1 -6.85 -4.2 -11.35 0.0 -18.65 4.25 -11.35 5.15 -6.85" fill="#c1ae95" fill-rule="evenodd" stroke="none"/>
  </g>
</svg>
