<?xml version="1.0" encoding="UTF-8" standalone="no"?>
<svg xmlns:xlink="http://www.w3.org/1999/xlink" height="42.0px" width="51.9px" xmlns="http://www.w3.org/2000/svg">
  <g transform="matrix(1.0, 0.0, 0.0, 1.0, 25.95, 21.0)">
    <path d="M14.05 -13.65 L14.7 -13.95 15.3 -13.95 15.4 -13.9 16.1 -13.65 17.3 -12.6 17.35 -11.75 18.35 -11.85 18.85 -11.85 19.25 -11.7 20.25 -10.8 20.7 -9.35 20.7 -8.8 21.2 -8.5 21.7 -8.05 22.1 -6.9 21.9 -5.55 21.5 -5.05 21.9 -4.45 22.1 -3.9 22.1 -3.85 21.9 -2.65 21.0 -1.5 20.65 -1.25 20.6 -0.85 20.4 -0.3 19.5 0.5 19.4 0.55 18.25 0.85 17.8 0.65 17.35 1.05 16.85 1.3 16.8 1.3 15.85 1.35 15.7 1.3 14.75 0.9 14.5 0.7 14.05 0.45 13.5 0.25 Q13.0 -0.1 12.75 -0.7 12.5 -1.45 12.55 -1.9 L12.75 -2.25 12.6 -2.7 12.5 -3.3 Q12.55 -3.95 13.2 -4.5 L13.25 -4.55 Q13.8 -5.0 14.4 -5.0 L14.55 -5.0 14.8 -4.85 14.7 -4.8 14.25 -4.3 Q13.85 -3.65 13.85 -3.1 L13.9 -2.7 14.05 -2.25 15.15 -0.35 15.95 -0.95 16.25 -1.0 16.6 -0.95 17.4 -0.75 17.7 -1.5 17.95 -1.9 19.2 -2.45 18.8 -3.35 18.65 -3.8 19.25 -5.0 18.6 -5.5 18.15 -5.95 18.15 -6.45 18.35 -7.55 16.9 -7.6 16.6 -7.7 16.05 -9.15 15.05 -8.6 Q14.7 -8.4 14.55 -8.4 L14.2 -8.6 14.05 -8.75 13.25 -9.75 12.5 -8.7 11.8 -8.05 11.65 -8.05 11.25 -8.2 10.1 -8.85 9.85 -7.6 Q9.65 -6.8 9.45 -6.8 L8.8 -6.8 7.25 -7.25 7.65 -5.7 7.7 -4.7 Q7.55 -4.55 7.2 -4.55 L5.5 -4.4 7.0 -2.3 6.95 -2.2 Q6.15 -0.9 2.9 1.9 L2.35 2.35 2.65 3.05 Q3.35 4.3 2.6 5.55 L2.0 6.2 1.45 6.65 1.65 7.2 -0.05 13.3 -1.65 7.15 -1.6 6.55 -2.05 6.2 Q-3.1 5.4 -3.1 4.25 L-2.45 2.55 -1.95 1.7 -2.75 1.2 Q-6.05 -0.75 -6.85 -2.0 L-6.85 -2.15 -7.0 -2.3 -6.55 -3.05 -5.55 -4.4 -7.2 -4.55 -7.75 -4.7 -7.65 -5.7 -7.3 -7.25 -8.85 -6.8 -9.5 -6.8 -9.85 -7.6 -10.15 -8.85 -11.25 -8.2 -11.7 -8.05 -11.85 -8.05 -12.55 -8.7 -13.3 -9.75 -14.1 -8.7 -14.2 -8.6 -14.6 -8.4 -15.1 -8.6 -16.1 -9.15 -16.45 -8.05 -16.65 -7.7 -16.9 -7.6 -18.4 -7.55 -18.2 -6.45 -18.2 -5.95 -18.6 -5.5 -19.3 -4.9 -18.85 -4.15 -18.7 -3.8 -18.8 -3.35 -19.25 -2.45 -17.95 -1.9 -17.35 -0.85 -16.65 -0.95 -16.0 -0.95 -15.1 -0.4 -14.0 -2.45 -14.0 -2.6 -13.95 -2.7 -13.85 -3.15 Q-13.85 -3.7 -14.3 -4.3 L-14.75 -4.8 -14.85 -4.85 -14.55 -5.0 Q-13.9 -5.0 -13.25 -4.55 L-13.2 -4.5 Q-12.6 -4.0 -12.55 -3.3 L-12.6 -2.7 -12.8 -2.25 -12.6 -1.9 Q-12.5 -1.35 -12.8 -0.7 -13.0 -0.1 -13.55 0.25 L-14.05 0.45 -14.25 0.45 -14.8 0.95 -15.9 1.35 -16.85 1.3 -16.9 1.3 -17.35 1.05 -17.8 0.65 -18.25 0.85 -18.3 0.85 -19.45 0.55 -20.4 -0.3 -20.65 -0.85 -20.7 -1.25 -21.05 -1.5 Q-21.55 -1.85 -21.85 -2.5 L-21.85 -2.7 -22.0 -2.85 -22.15 -3.8 -22.15 -3.85 -21.9 -4.45 -21.5 -5.1 -21.95 -5.55 -22.1 -6.9 Q-22.1 -7.5 -21.7 -8.05 L-21.2 -8.5 -20.7 -8.8 -20.75 -9.35 -20.25 -10.8 Q-19.85 -11.5 -19.25 -11.7 L-18.85 -11.85 -18.35 -11.85 -17.35 -11.75 -17.3 -12.6 -16.1 -13.65 -15.4 -13.9 -15.65 -14.85 -15.35 -13.95 -14.75 -13.95 -14.1 -13.65 -13.5 -13.2 -12.95 -13.75 -11.45 -14.35 -11.0 -14.4 -10.15 -14.2 -9.4 -13.5 -8.75 -12.35 -7.95 -13.25 -7.65 -13.3 -6.35 -13.3 Q-5.5 -13.2 -5.05 -12.65 -4.7 -12.25 -4.65 -11.7 L-4.35 -9.9 -3.3 -10.9 Q-2.65 -10.9 -1.8 -10.4 L-0.85 -9.45 0.0 -7.9 0.85 -9.45 1.75 -10.4 Q2.55 -10.9 3.35 -10.9 L4.5 -10.9 4.6 -11.7 Q4.75 -12.35 5.05 -12.65 5.45 -13.15 6.3 -13.3 L7.65 -13.3 7.95 -13.25 8.75 -12.35 9.4 -13.5 10.1 -14.2 11.45 -14.35 12.9 -13.75 13.45 -13.25 14.05 -13.65 M14.35 -15.8 L14.35 -19.1 -0.1 -16.1 -14.35 -19.1 -14.35 -15.8 -14.5 -15.85 -15.65 -15.8 -15.85 -15.75 -17.0 -15.35 Q-18.25 -14.65 -18.85 -13.75 L-19.2 -13.7 -20.1 -13.45 Q-21.25 -12.9 -21.9 -11.75 L-22.6 -9.9 -23.25 -9.2 Q-24.0 -8.2 -24.0 -7.0 L-23.75 -5.0 -23.95 -4.45 -24.05 -4.35 -24.05 -4.0 Q-24.15 -3.1 -23.75 -2.1 L-23.7 -1.9 -23.65 -1.9 -23.6 -1.75 -22.45 -0.15 -22.05 0.7 -20.6 2.1 -20.35 2.25 -18.3 2.75 -18.25 2.75 -17.4 3.15 -17.25 3.2 -15.55 3.25 -13.7 2.5 -13.55 2.4 -11.5 7.25 Q-7.55 14.85 0.0 19.1 7.5 14.85 11.5 7.25 L13.55 2.45 13.65 2.5 15.5 3.25 17.25 3.2 17.4 3.15 18.25 2.75 20.25 2.25 20.4 2.2 Q21.6 1.5 22.0 0.7 L22.4 -0.15 Q23.2 -0.85 23.6 -1.75 L23.75 -1.9 23.75 -2.1 Q24.15 -3.15 24.0 -4.0 L24.0 -4.1 23.75 -5.05 Q24.05 -5.9 24.0 -7.0 23.85 -8.3 23.25 -9.2 L22.55 -9.9 21.85 -11.75 Q21.2 -12.95 20.05 -13.45 L19.2 -13.75 18.8 -13.75 Q18.2 -14.65 17.0 -15.35 L15.8 -15.8 14.45 -15.85 14.35 -15.8 M17.9 -17.0 L19.8 -15.55 20.85 -15.2 Q22.55 -14.4 23.5 -12.75 L24.3 -10.9 24.75 -10.35 Q25.75 -9.0 25.9 -7.15 L25.75 -5.1 25.9 -4.35 25.9 -4.2 Q26.05 -3.05 25.65 -1.8 L25.65 -1.1 25.15 -0.6 24.05 0.9 23.65 1.7 Q22.9 3.0 21.3 3.9 L21.1 4.0 Q20.0 4.5 18.8 4.6 L18.0 4.95 17.9 4.95 17.7 5.05 16.3 5.2 15.2 5.1 14.6 4.95 Q10.65 15.25 1.15 20.6 L0.8 21.0 -0.8 21.0 -1.2 20.6 Q-10.65 15.2 -14.6 4.95 L-15.2 5.1 -16.3 5.2 -17.75 5.0 -17.9 4.95 -18.0 4.95 -21.2 3.95 -21.25 3.9 -21.55 3.75 Q-23.0 2.85 -23.65 1.7 L-24.1 0.9 -25.15 -0.55 -25.2 -0.6 -25.4 -1.0 -25.4 -1.1 -25.55 -1.45 Q-26.05 -2.7 -25.95 -4.1 L-25.95 -5.15 -25.8 -5.3 -25.95 -7.15 Q-25.8 -8.9 -24.8 -10.35 L-24.35 -10.9 -23.55 -12.75 Q-22.4 -14.45 -20.9 -15.2 L-19.85 -15.55 -17.9 -17.0 -16.25 -17.65 -16.25 -21.0 -14.35 -21.0 -0.1 -18.0 14.35 -21.0 16.25 -21.0 16.25 -17.65 17.9 -17.0 M0.0 -6.95 L-2.5 -3.0 0.0 1.0 2.5 -3.0 0.0 -6.95" fill="#000000" fill-rule="evenodd" stroke="none"/>
    <path d="M14.35 -15.8 L14.45 -15.85 15.8 -15.8 17.0 -15.35 Q18.2 -14.65 18.8 -13.75 L19.2 -13.75 20.05 -13.45 Q21.2 -12.95 21.85 -11.75 L22.55 -9.9 23.25 -9.2 Q23.85 -8.3 24.0 -7.0 24.05 -5.9 23.75 -5.05 L24.0 -4.1 24.0 -4.0 Q24.15 -3.15 23.75 -2.1 L23.75 -1.9 23.6 -1.75 Q23.2 -0.85 22.4 -0.15 L22.0 0.7 Q21.6 1.5 20.4 2.2 L20.25 2.25 18.25 2.75 17.4 3.15 17.25 3.2 15.5 3.25 13.65 2.5 13.55 2.45 11.5 7.25 Q7.5 14.85 0.0 19.1 -7.55 14.85 -11.5 7.25 L-13.55 2.4 -13.7 2.5 -15.55 3.25 -17.25 3.2 -17.4 3.15 -18.25 2.75 -18.3 2.75 -20.35 2.25 -20.6 2.1 -22.05 0.7 -22.45 -0.15 -23.6 -1.75 -23.65 -1.9 -23.7 -1.9 -23.75 -2.1 Q-24.15 -3.1 -24.05 -4.0 L-24.05 -4.35 -23.95 -4.45 -23.75 -5.0 -24.0 -7.0 Q-24.0 -8.2 -23.25 -9.2 L-22.6 -9.9 -21.9 -11.75 Q-21.25 -12.9 -20.1 -13.45 L-19.2 -13.7 -18.85 -13.75 Q-18.25 -14.65 -17.0 -15.35 L-15.85 -15.75 -15.65 -15.8 -14.5 -15.85 -14.35 -15.8 -14.35 -19.1 -0.1 -16.1 14.35 -19.1 14.35 -15.8 M14.05 -13.65 L13.45 -13.25 12.9 -13.75 11.45 -14.35 10.1 -14.2 9.4 -13.5 8.75 -12.35 7.95 -13.25 7.65 -13.3 6.3 -13.3 Q5.45 -13.15 5.05 -12.65 4.75 -12.35 4.6 -11.7 L4.5 -10.9 3.35 -10.9 Q2.55 -10.9 1.75 -10.4 L0.85 -9.45 0.0 -7.9 -0.85 -9.45 -1.8 -10.4 Q-2.65 -10.9 -3.3 -10.9 L-4.35 -9.9 -4.65 -11.7 Q-4.7 -12.25 -5.05 -12.65 -5.5 -13.2 -6.35 -13.3 L-7.65 -13.3 -7.95 -13.25 -8.75 -12.35 -9.4 -13.5 -10.15 -14.2 -11.0 -14.4 -11.45 -14.35 -12.95 -13.75 -13.5 -13.2 -14.1 -13.65 -14.75 -13.95 -15.35 -13.95 -15.65 -14.85 -15.4 -13.9 -16.1 -13.65 -17.3 -12.6 -17.35 -11.75 -18.35 -11.85 -18.85 -11.85 -19.25 -11.7 Q-19.85 -11.5 -20.25 -10.8 L-20.75 -9.35 -20.7 -8.8 -21.2 -8.5 -21.7 -8.05 Q-22.1 -7.5 -22.1 -6.9 L-21.95 -5.55 -21.5 -5.1 -21.9 -4.45 -22.15 -3.85 -22.15 -3.8 -22.0 -2.85 -21.85 -2.7 -21.85 -2.5 Q-21.55 -1.85 -21.05 -1.5 L-20.7 -1.25 -20.65 -0.85 -20.4 -0.3 -19.45 0.55 -18.3 0.85 -18.25 0.85 -17.8 0.65 -17.35 1.05 -16.9 1.3 -16.85 1.3 -15.9 1.35 -14.8 0.95 -14.25 0.45 -14.05 0.45 -13.55 0.25 Q-13.0 -0.1 -12.8 -0.7 -12.5 -1.35 -12.6 -1.9 L-12.8 -2.25 -12.6 -2.7 -12.55 -3.3 Q-12.6 -4.0 -13.2 -4.5 L-13.25 -4.55 Q-13.9 -5.0 -14.55 -5.0 L-14.85 -4.85 -14.75 -4.8 -14.3 -4.3 Q-13.85 -3.7 -13.85 -3.15 L-13.95 -2.7 -14.0 -2.6 -14.0 -2.45 -15.1 -0.4 -16.0 -0.95 -16.65 -0.95 -17.35 -0.85 -17.95 -1.9 -19.25 -2.45 -18.8 -3.35 -18.7 -3.8 -18.85 -4.15 -19.3 -4.9 -18.6 -5.5 -18.2 -5.95 -18.2 -6.45 -18.4 -7.55 -16.9 -7.6 -16.65 -7.7 -16.45 -8.05 -16.1 -9.15 -15.1 -8.6 -14.6 -8.4 -14.2 -8.6 -14.1 -8.7 -13.3 -9.75 -12.55 -8.7 -11.85 -8.05 -11.7 -8.05 -11.25 -8.2 -10.15 -8.85 -9.85 -7.6 -9.5 -6.8 -8.85 -6.8 -7.3 -7.25 -7.65 -5.7 -7.75 -4.7 -7.2 -4.55 -5.55 -4.4 -6.55 -3.05 -7.0 -2.3 -6.85 -2.15 -6.85 -2.0 Q-6.05 -0.75 -2.75 1.2 L-1.95 1.7 -2.45 2.55 -3.1 4.25 Q-3.1 5.4 -2.05 6.2 L-1.6 6.55 -1.65 7.15 -0.05 13.3 1.65 7.2 1.45 6.65 2.0 6.2 2.6 5.55 Q3.35 4.3 2.65 3.05 L2.35 2.35 2.9 1.9 Q6.15 -0.9 6.95 -2.2 L7.0 -2.3 5.5 -4.4 7.2 -4.55 Q7.55 -4.55 7.7 -4.7 L7.65 -5.7 7.25 -7.25 8.8 -6.8 9.45 -6.8 Q9.65 -6.8 9.85 -7.6 L10.1 -8.85 11.25 -8.2 11.65 -8.05 11.8 -8.05 12.5 -8.7 13.25 -9.75 14.05 -8.75 14.2 -8.6 14.55 -8.4 Q14.7 -8.4 15.05 -8.6 L16.05 -9.15 16.6 -7.7 16.9 -7.6 18.35 -7.55 18.15 -6.45 18.15 -5.95 18.6 -5.5 19.25 -5.0 18.65 -3.8 18.8 -3.35 19.2 -2.45 17.95 -1.9 17.7 -1.5 17.4 -0.75 16.6 -0.95 16.25 -1.0 15.95 -0.95 15.15 -0.35 14.05 -2.25 13.9 -2.7 13.85 -3.1 Q13.85 -3.65 14.25 -4.3 L14.7 -4.8 14.8 -4.85 14.55 -5.0 14.4 -5.0 Q13.8 -5.0 13.25 -4.55 L13.2 -4.5 Q12.55 -3.95 12.5 -3.3 L12.6 -2.7 12.75 -2.25 12.55 -1.9 Q12.5 -1.45 12.75 -0.7 13.0 -0.1 13.5 0.25 L14.05 0.45 14.5 0.7 14.75 0.9 15.7 1.3 15.85 1.35 16.8 1.3 16.85 1.3 17.35 1.05 17.8 0.65 18.25 0.85 19.4 0.55 19.5 0.5 20.4 -0.3 20.6 -0.85 20.65 -1.25 21.0 -1.5 21.9 -2.65 22.1 -3.85 22.1 -3.9 21.9 -4.45 21.5 -5.05 21.9 -5.55 22.1 -6.9 21.7 -8.05 21.2 -8.5 20.7 -8.8 20.7 -9.35 20.25 -10.8 19.25 -11.7 18.85 -11.85 18.35 -11.85 17.35 -11.75 17.3 -12.6 16.1 -13.65 15.4 -13.9 15.3 -13.95 14.7 -13.95 14.05 -13.65 M0.0 -6.95 L2.5 -3.0 0.0 1.0 -2.5 -3.0 0.0 -6.95" fill="#c1ae95" fill-rule="evenodd" stroke="none"/>
  </g>
</svg>
