<?xml version="1.0" encoding="UTF-8" standalone="no"?>
<svg xmlns:xlink="http://www.w3.org/1999/xlink" height="42.0px" width="39.6px" xmlns="http://www.w3.org/2000/svg">
  <g transform="matrix(1.0, 0.0, 0.0, 1.0, 19.8, 20.9)">
    <path d="M6.8 -9.4 L9.4 -13.55 19.8 12.6 4.95 21.1 4.95 17.95 Q4.9 11.1 3.7 7.45 2.7 4.45 1.25 4.45 -0.2 4.45 -1.2 7.5 -2.4 11.2 -2.45 18.15 L-2.45 21.05 -19.8 12.85 -10.2 -6.1 -7.1 -3.95 -0.85 -20.9 1.55 -20.9 6.8 -9.4 M6.45 -5.5 L0.3 -18.9 -6.3 -1.05 -9.6 -3.35 -17.4 11.95 -4.4 18.15 Q-4.4 12.5 -3.55 8.7 -2.2 2.6 1.15 2.6 6.55 2.6 6.7 17.95 L17.4 11.8 8.95 -9.5 6.45 -5.5" fill="#000000" fill-rule="evenodd" stroke="none"/>
    <path d="M6.45 -5.5 L8.95 -9.5 17.4 11.8 6.7 17.95 Q6.55 2.6 1.15 2.6 -2.2 2.6 -3.55 8.7 -4.4 12.5 -4.4 18.15 L-17.4 11.95 -9.6 -3.35 -6.3 -1.05 0.3 -18.9 6.45 -5.5" fill="#c1ae95" fill-rule="evenodd" stroke="none"/>
  </g>
</svg>
