<?xml version="1.0" encoding="UTF-8" standalone="no"?>
<svg xmlns:xlink="http://www.w3.org/1999/xlink" height="42.0px" width="32.55px" xmlns="http://www.w3.org/2000/svg">
  <g transform="matrix(1.0, 0.0, 0.0, 1.0, 16.25, 21.0)">
    <path d="M1.1 -16.3 L2.4 -11.4 2.9 -10.75 Q3.7 -9.3 3.0 -7.85 L3.05 -7.75 Q3.8 -6.3 3.0 -5.1 L3.5 -4.3 Q5.3 -0.7 5.85 -0.7 6.15 -0.7 6.35 -0.95 L6.55 -1.2 6.85 -1.9 Q6.4 -2.9 6.4 -3.65 6.4 -4.85 7.3 -5.6 L8.6 -10.45 Q8.95 -11.5 9.25 -11.7 L9.4 -11.8 9.55 -11.8 9.9 -11.7 10.55 -10.45 11.85 -5.55 12.35 -4.9 Q13.15 -3.45 12.45 -2.0 12.95 -1.15 12.85 -0.3 L12.85 -0.25 12.8 -0.1 12.75 -0.05 10.1 4.6 9.95 4.8 9.65 5.0 9.6 4.95 9.35 4.9 Q3.9 3.5 0.1 3.5 L-4.75 3.95 -4.8 3.95 -9.55 4.95 -9.6 5.0 -9.9 4.8 -10.05 4.6 -12.7 -0.05 -12.75 -0.1 -12.8 -0.25 -12.8 -0.3 Q-12.85 -1.15 -12.4 -2.0 -13.1 -3.45 -12.3 -4.9 L-11.8 -5.55 -11.6 -6.65 -10.5 -10.45 -9.85 -11.7 -9.5 -11.8 -9.35 -11.8 -9.2 -11.7 Q-8.9 -11.5 -8.55 -10.45 L-7.25 -5.6 Q-6.35 -4.85 -6.35 -3.65 -6.35 -2.8 -6.85 -1.9 L-6.5 -1.2 -6.3 -0.95 Q-6.1 -0.7 -5.8 -0.7 L-5.3 -0.8 -5.25 -0.85 -5.0 -1.05 -2.75 -5.05 Q-3.35 -6.6 -2.6 -7.75 L-3.05 -9.5 Q-3.05 -10.7 -2.15 -11.45 L-0.85 -16.3 -0.2 -17.55 0.1 -17.65 0.45 -17.55 1.1 -16.3 M0.0 -4.8 L-2.35 -1.0 0.0 2.8 2.4 -1.0 0.0 -4.8 M16.3 -21.0 L16.3 -2.35 Q16.3 2.15 13.35 7.9 9.25 16.0 1.2 20.6 L0.8 21.0 -0.8 21.0 -1.15 20.6 Q-9.15 16.0 -13.3 7.9 -16.25 2.15 -16.25 -2.35 L-16.25 -21.0 16.3 -21.0 M14.35 -19.1 L-14.3 -19.1 -14.3 -2.35 Q-14.3 1.75 -11.45 7.25 -7.5 14.85 0.0 19.1 L0.05 19.1 Q7.55 14.85 11.5 7.25 14.35 1.75 14.35 -2.35 L14.35 -19.1 M2.4 10.25 L0.0 14.05 -2.35 10.25 0.0 6.5 2.4 10.25" fill="#000000" fill-rule="evenodd" stroke="none"/>
    <path d="M0.0 -4.8 L2.4 -1.0 0.0 2.8 -2.35 -1.0 0.0 -4.8 M1.1 -16.3 L0.45 -17.55 0.1 -17.65 -0.2 -17.55 -0.85 -16.3 -2.15 -11.45 Q-3.05 -10.7 -3.05 -9.5 L-2.6 -7.75 Q-3.35 -6.6 -2.75 -5.05 L-5.0 -1.05 -5.25 -0.85 -5.3 -0.8 -5.8 -0.7 Q-6.1 -0.7 -6.3 -0.95 L-6.5 -1.2 -6.85 -1.9 Q-6.35 -2.8 -6.35 -3.65 -6.35 -4.85 -7.25 -5.6 L-8.55 -10.45 Q-8.9 -11.5 -9.2 -11.7 L-9.35 -11.8 -9.5 -11.8 -9.85 -11.7 -10.5 -10.45 -11.6 -6.65 -11.8 -5.55 -12.3 -4.9 Q-13.1 -3.45 -12.4 -2.0 -12.85 -1.15 -12.8 -0.3 L-12.8 -0.25 -12.75 -0.1 -12.7 -0.05 -10.05 4.6 -9.9 4.8 -9.6 5.0 -9.55 4.95 -4.8 3.95 -4.75 3.95 0.1 3.5 Q3.9 3.5 9.35 4.9 L9.6 4.95 9.65 5.0 9.95 4.8 10.1 4.6 12.75 -0.05 12.8 -0.1 12.85 -0.25 12.85 -0.3 Q12.95 -1.15 12.45 -2.0 13.15 -3.45 12.35 -4.9 L11.85 -5.55 10.55 -10.45 9.9 -11.7 9.55 -11.8 9.4 -11.8 9.25 -11.7 Q8.95 -11.5 8.6 -10.45 L7.3 -5.6 Q6.4 -4.85 6.4 -3.65 6.4 -2.9 6.85 -1.9 L6.55 -1.2 6.35 -0.95 Q6.15 -0.7 5.85 -0.7 5.3 -0.7 3.5 -4.3 L3.0 -5.1 Q3.8 -6.3 3.05 -7.75 L3.0 -7.85 Q3.7 -9.3 2.9 -10.75 L2.4 -11.4 1.1 -16.3 M2.4 10.25 L0.0 6.5 -2.35 10.25 0.0 14.05 2.4 10.25 M14.35 -19.1 L14.35 -2.35 Q14.35 1.75 11.5 7.25 7.55 14.85 0.05 19.1 L0.0 19.1 Q-7.5 14.85 -11.45 7.25 -14.3 1.75 -14.3 -2.35 L-14.3 -19.1 14.35 -19.1" fill="#c1ae95" fill-rule="evenodd" stroke="none"/>
  </g>
</svg>
