<?xml version="1.0" encoding="UTF-8" standalone="no"?>
<svg xmlns:xlink="http://www.w3.org/1999/xlink" height="42.0px" width="39.4px" xmlns="http://www.w3.org/2000/svg">
  <g transform="matrix(1.0, 0.0, 0.0, 1.0, 19.7, 21.0)">
    <path d="M9.75 -16.05 L9.9 -16.05 10.45 -16.1 11.7 -15.9 12.9 -15.35 14.0 -14.55 15.45 -12.55 15.75 -11.9 Q16.3 -10.4 16.1 -8.8 15.6 -5.75 13.4 -3.65 L11.7 -2.3 Q10.35 -1.45 8.85 -1.0 L7.65 -0.7 6.35 -0.55 4.8 -0.6 3.3 -0.85 0.65 -1.9 0.45 -2.0 -1.1 -1.5 -1.2 -1.45 Q-2.55 -0.7 -3.45 0.7 L-3.9 1.35 -4.4 2.5 Q-4.9 3.85 -4.8 5.45 L-4.25 7.8 Q-3.75 9.1 -3.0 9.7 -2.25 10.4 -1.2 10.6 L-0.45 10.75 0.45 10.65 0.6 10.6 1.2 10.45 Q2.15 10.15 2.55 9.25 2.95 8.45 2.7 7.6 2.55 6.95 1.95 6.6 L1.75 6.55 1.7 6.55 1.4 6.5 1.3 6.45 0.9 6.45 0.8 6.5 Q0.4 6.6 0.05 7.2 L0.05 7.15 Q-0.2 6.8 0.15 6.2 L0.35 5.95 Q0.65 5.55 1.25 5.4 L1.95 5.3 2.0 5.3 Q2.6 5.3 3.25 5.65 3.95 6.1 4.3 6.75 5.15 8.25 4.7 9.95 L3.85 11.6 2.35 12.75 1.1 13.3 -0.75 13.6 -1.7 13.5 -2.05 13.45 Q-3.7 13.15 -4.9 12.25 -7.95 9.65 -8.25 5.6 -8.5 2.55 -7.2 0.0 L-7.05 -0.35 -6.2 -1.75 Q-4.9 -3.55 -2.9 -4.7 L-2.7 -4.8 -2.45 -5.95 -2.45 -6.2 Q-2.45 -8.2 -3.55 -10.0 L-3.8 -10.4 -4.9 -11.65 Q-5.65 -12.35 -6.65 -12.85 L-7.5 -13.1 -8.3 -13.4 -9.9 -13.6 -10.15 -13.6 -10.7 -13.5 -10.75 -13.5 -11.25 -13.4 Q-12.3 -13.0 -13.05 -12.1 -13.8 -11.2 -13.95 -10.1 -14.15 -9.15 -13.6 -8.35 -13.1 -7.6 -12.25 -7.35 L-11.8 -7.25 -11.4 -7.35 -11.25 -7.35 -11.0 -7.5 Q-10.65 -7.75 -10.4 -8.35 L-10.35 -8.45 Q-10.2 -8.9 -10.6 -9.45 -10.1 -9.45 -9.75 -8.9 -9.3 -8.0 -9.85 -6.9 -10.35 -5.95 -11.45 -5.65 L-12.15 -5.55 -13.2 -5.6 Q-14.4 -5.9 -15.25 -6.8 -15.9 -7.4 -16.25 -8.35 -16.6 -9.3 -16.55 -10.25 -16.55 -12.1 -15.4 -13.8 -14.25 -15.5 -12.5 -16.25 L-12.25 -16.35 -11.0 -16.7 -9.25 -16.85 -7.75 -16.75 -5.45 -16.05 -3.95 -15.3 -2.85 -14.55 -0.9 -12.5 -0.5 -11.9 Q1.2 -9.2 1.2 -6.3 L1.2 -6.1 2.9 -4.5 2.95 -4.45 2.95 -4.75 2.95 -4.8 4.5 -4.3 6.0 -4.15 6.5 -4.15 6.6 -4.2 8.15 -4.5 8.5 -4.6 Q9.4 -4.9 10.2 -5.45 12.7 -7.25 13.0 -9.15 13.2 -10.25 12.8 -11.35 L11.8 -12.85 11.5 -13.15 Q10.8 -13.8 10.0 -13.75 L9.3 -13.65 8.25 -13.05 7.8 -12.25 7.75 -11.85 8.15 -10.95 8.25 -10.85 Q8.55 -10.55 9.05 -10.55 L9.25 -10.55 8.7 -10.15 8.35 -10.1 8.3 -10.1 7.85 -10.15 Q7.15 -10.4 6.65 -11.2 6.35 -11.75 6.35 -12.5 6.35 -13.3 6.75 -13.95 7.55 -15.4 9.15 -15.9 L9.3 -15.95 9.75 -16.05 M16.0 -17.3 Q17.9 -15.7 18.9 -13.3 19.9 -10.85 19.65 -8.35 L19.6 -8.25 19.6 -8.2 Q18.95 -4.15 15.95 -1.15 15.4 3.85 12.45 9.1 8.35 16.4 0.95 20.65 L0.55 21.0 -1.05 21.0 -1.4 20.65 Q-9.4 16.05 -13.55 7.9 -16.5 2.15 -16.5 -2.35 L-16.5 -3.55 -17.4 -4.3 Q-18.55 -5.4 -19.2 -7.0 -19.8 -8.65 -19.7 -10.3 -19.6 -14.4 -16.5 -17.35 L-16.5 -21.0 16.0 -21.0 16.0 -17.3 M14.1 -19.1 L-14.6 -19.1 -14.6 -16.45 Q-16.05 -15.3 -16.9 -13.65 -17.8 -11.95 -17.8 -10.2 -17.85 -9.0 -17.4 -7.75 -16.9 -6.5 -16.05 -5.7 -15.35 -5.0 -14.6 -4.65 L-14.6 -2.35 Q-14.6 1.75 -11.75 7.25 -7.75 14.9 -0.25 19.1 7.1 15.0 11.1 7.55 13.95 2.3 14.1 -2.05 17.05 -4.65 17.75 -8.55 18.0 -10.8 17.0 -12.95 15.95 -15.1 14.1 -16.3 L14.1 -19.1" fill="#000000" fill-rule="evenodd" stroke="none"/>
    <path d="M3.3 -0.85 L4.8 -0.6 6.35 -0.55 7.65 -0.7 8.85 -1.0 Q10.35 -1.45 11.7 -2.3 L13.4 -3.65 Q15.6 -5.75 16.1 -8.8 16.3 -10.4 15.75 -11.9 L15.45 -12.55 14.0 -14.55 12.9 -15.35 11.7 -15.9 10.45 -16.1 9.9 -16.05 9.75 -16.05 9.25 -15.95 9.1 -15.9 Q7.5 -15.4 6.7 -13.95 6.3 -13.3 6.3 -12.5 6.3 -11.75 6.6 -11.2 7.1 -10.4 7.85 -10.15 L8.3 -10.1 8.35 -10.1 8.7 -10.15 9.25 -10.55 9.05 -10.55 Q8.55 -10.55 8.25 -10.85 L8.15 -10.95 7.75 -11.85 7.8 -12.25 8.25 -13.05 9.3 -13.65 10.0 -13.75 Q10.75 -13.75 11.45 -13.15 L11.75 -12.85 12.75 -11.35 Q13.15 -10.25 12.95 -9.15 12.65 -7.25 10.15 -5.45 9.35 -4.9 8.45 -4.6 L8.1 -4.5 6.55 -4.2 6.5 -4.15 6.0 -4.15 4.5 -4.3 2.95 -4.8 2.95 -4.75 2.9 -4.8 2.9 -4.5 1.2 -6.1 1.2 -6.3 Q1.2 -9.2 -0.5 -11.9 L-0.9 -12.5 -2.85 -14.55 -3.95 -15.3 -5.45 -16.05 -7.75 -16.75 -9.25 -16.85 -11.0 -16.7 -12.25 -16.35 -12.55 -16.25 Q-14.3 -15.5 -15.45 -13.8 -16.6 -12.1 -16.6 -10.25 -16.65 -9.3 -16.3 -8.35 -15.95 -7.4 -15.3 -6.8 -14.45 -5.85 -13.2 -5.6 L-12.15 -5.55 -11.45 -5.65 Q-10.35 -5.95 -9.85 -6.9 -9.3 -8.0 -9.75 -8.9 -10.1 -9.45 -10.6 -9.45 L-10.65 -9.45 Q-10.25 -8.9 -10.4 -8.45 L-10.45 -8.35 Q-10.7 -7.75 -11.05 -7.5 L-11.25 -7.35 -11.4 -7.35 -11.45 -7.35 -11.8 -7.25 -12.25 -7.35 Q-13.1 -7.6 -13.6 -8.35 -14.15 -9.15 -13.95 -10.1 -13.8 -11.2 -13.05 -12.1 -12.3 -13.0 -11.25 -13.4 L-10.75 -13.5 -10.7 -13.5 -10.15 -13.6 -9.9 -13.6 -8.3 -13.4 -7.5 -13.1 -6.7 -12.85 -4.95 -11.65 -3.85 -10.4 -3.6 -10.0 Q-2.5 -8.2 -2.5 -6.2 L-2.5 -5.95 -2.75 -4.8 -2.95 -4.7 Q-4.95 -3.55 -6.25 -1.75 L-7.1 -0.35 -7.25 0.0 Q-8.55 2.55 -8.3 5.6 -8.0 9.65 -4.95 12.25 -3.75 13.15 -2.1 13.45 L-1.7 13.5 -0.75 13.6 1.1 13.3 2.35 12.75 3.85 11.6 4.7 9.95 Q5.15 8.25 4.3 6.75 3.95 6.1 3.25 5.65 2.6 5.3 2.0 5.3 L1.95 5.3 1.25 5.4 1.2 5.4 Q0.6 5.55 0.3 5.95 L0.1 6.2 Q-0.25 6.85 0.0 7.2 L0.05 7.15 0.05 7.2 Q0.4 6.6 0.8 6.5 L0.9 6.45 1.3 6.45 1.4 6.5 1.7 6.55 1.75 6.55 1.9 6.6 Q2.5 6.95 2.65 7.6 2.9 8.45 2.5 9.25 2.1 10.15 1.15 10.45 L0.6 10.6 0.45 10.65 -0.45 10.75 -1.2 10.6 Q-2.25 10.4 -3.0 9.7 -3.75 9.1 -4.25 7.8 L-4.8 5.45 Q-4.9 3.85 -4.4 2.5 L-3.9 1.35 -3.45 0.7 Q-2.55 -0.7 -1.2 -1.45 L-1.1 -1.5 0.45 -2.0 0.6 -1.9 Q1.65 -1.35 2.8 -1.0 L3.3 -0.85 M14.1 -19.1 L14.1 -16.3 Q15.95 -15.1 17.0 -12.95 18.0 -10.8 17.75 -8.55 17.05 -4.65 14.1 -2.05 13.95 2.3 11.1 7.55 7.1 15.0 -0.25 19.1 -7.75 14.9 -11.75 7.25 -14.6 1.75 -14.6 -2.35 L-14.6 -4.65 Q-15.35 -5.0 -16.05 -5.7 -16.9 -6.5 -17.4 -7.75 -17.85 -9.0 -17.8 -10.2 -17.8 -11.95 -16.9 -13.65 -16.05 -15.3 -14.6 -16.45 L-14.6 -19.1 14.1 -19.1" fill="#c1ae95" fill-rule="evenodd" stroke="none"/>
  </g>
</svg>
