<?xml version="1.0" encoding="UTF-8" standalone="no"?>
<svg xmlns:xlink="http://www.w3.org/1999/xlink" height="42.0px" width="26.05px" xmlns="http://www.w3.org/2000/svg">
  <g transform="matrix(1.0, 0.0, 0.0, 1.0, 13.0, 21.0)">
    <path d="M10.85 -17.7 L10.9 -17.6 11.0 -17.45 11.0 -17.3 11.05 -17.25 11.05 -17.15 11.1 -17.1 Q11.6 -15.35 11.4 -12.95 L11.35 -12.65 13.05 -12.65 13.05 2.3 Q13.05 5.9 10.7 10.5 9.6 12.7 8.15 14.55 5.3 18.25 1.0 20.7 L0.7 21.0 -0.6 21.0 -0.9 20.7 Q-5.15 18.25 -8.05 14.55 L-10.65 10.5 Q-13.0 5.9 -13.0 2.3 L-13.0 -12.65 -11.3 -12.65 -11.3 -13.0 Q-11.5 -15.3 -11.0 -17.1 L-11.0 -17.15 -10.95 -17.2 -10.95 -17.3 -10.9 -17.35 -10.8 -17.7 -10.55 -18.05 Q-8.55 -20.6 -6.15 -20.6 -4.35 -20.6 -3.4 -19.2 L-1.4 -19.75 -1.25 -19.75 -0.05 -19.5 1.6 -19.75 3.35 -19.45 Q4.15 -21.0 6.0 -21.0 7.35 -21.0 8.75 -20.0 9.95 -19.1 10.75 -17.85 L10.85 -17.7 M6.0 -19.45 Q5.05 -19.45 4.65 -18.65 4.3 -17.95 4.65 -17.1 2.9 -18.25 1.6 -18.25 0.55 -18.25 -0.1 -17.75 -0.55 -18.2 -1.3 -18.2 L-1.35 -18.25 -1.4 -18.25 Q-2.2 -18.25 -4.5 -16.9 -4.25 -17.5 -4.5 -18.05 -4.9 -19.1 -6.15 -19.1 -7.75 -19.1 -9.35 -17.1 L-9.45 -16.95 -9.5 -16.8 -9.5 -16.7 -9.55 -16.7 Q-10.0 -15.05 -9.8 -13.1 L-9.75 -12.85 -9.75 -12.6 -9.55 -11.45 -9.7 -11.45 -10.55 -11.1 -11.45 -11.1 -11.45 2.3 Q-11.45 5.6 -9.15 10.0 -7.85 12.5 -6.05 14.55 -3.5 17.5 0.05 19.45 3.6 17.5 6.15 14.55 7.95 12.5 9.25 10.0 11.55 5.6 11.55 2.3 L11.55 -11.1 10.65 -11.1 9.8 -11.45 9.65 -11.45 9.85 -12.6 9.85 -13.1 Q10.05 -15.2 9.6 -16.7 L9.6 -16.8 9.55 -16.9 7.9 -18.65 Q6.85 -19.45 6.0 -19.45 M-4.6 2.2 L-4.65 1.95 -4.7 2.05 -4.65 3.65 Q-4.45 5.15 -4.1 5.45 L-3.35 5.65 Q-2.7 5.55 -2.4 4.75 L-3.2 3.55 -4.6 2.2 M-7.4 -1.3 Q-6.95 -0.7 -6.1 -0.6 -4.7 -0.35 -4.45 0.1 L-4.7 -1.3 -6.15 -2.95 -7.3 -3.8 -8.15 -4.25 -6.95 -3.25 Q-5.9 -2.1 -6.35 -1.65 -7.05 -0.9 -7.65 -1.9 L-7.4 -1.3 M-3.2 -13.55 L-3.25 -13.55 -4.35 -13.05 -5.2 -12.25 Q-6.05 -10.65 -5.95 -9.75 L-5.9 -9.7 Q-5.7 -8.05 -5.0 -7.8 L-4.9 -7.8 -4.25 -8.2 -1.15 -12.3 -1.95 -13.05 Q-2.5 -13.45 -3.2 -13.55 M1.85 12.1 Q1.1 11.65 0.05 11.65 -1.0 11.65 -1.7 12.1 -2.45 12.5 -2.45 13.1 L-2.35 13.5 Q-2.15 13.15 -1.45 13.15 L1.6 13.15 Q2.3 13.15 2.5 13.5 L2.6 13.1 Q2.6 12.5 1.85 12.1 M4.75 1.95 L4.65 2.2 4.25 2.65 3.25 3.55 2.45 4.75 2.7 5.15 3.45 5.65 4.2 5.45 Q4.55 5.15 4.75 3.65 L4.8 2.05 4.75 1.95 M7.35 -3.8 L6.25 -2.95 4.75 -1.3 4.5 0.1 4.8 -0.15 6.15 -0.6 Q7.55 -0.8 7.7 -1.9 7.15 -0.9 6.4 -1.65 5.95 -2.1 7.0 -3.25 L8.2 -4.25 7.35 -3.8 M2.5 -6.65 L0.3 -10.65 -2.4 -6.6 -2.3 -5.45 -1.75 -3.65 -0.85 -2.15 Q-0.3 -1.5 0.05 -1.4 0.8 -1.6 1.85 -3.6 2.95 -5.7 2.5 -6.65 M4.4 -13.1 Q3.65 -13.6 3.3 -13.55 L2.05 -13.05 1.45 -12.3 3.9 -8.95 4.35 -8.2 Q4.75 -7.65 5.05 -7.8 5.8 -8.05 6.0 -9.7 L6.0 -9.75 Q6.1 -10.7 5.3 -12.25 L4.4 -13.1 M0.45 -16.35 Q0.55 -16.9 1.6 -16.9 2.7 -16.9 4.6 -15.6 L6.8 -13.65 6.9 -14.05 6.8 -15.5 Q4.8 -18.25 6.05 -18.15 7.35 -18.05 8.5 -16.2 8.85 -15.05 8.75 -13.0 L8.7 -12.55 8.0 -9.45 Q8.2 -9.25 8.75 -9.45 L9.0 -9.7 Q9.55 -10.1 9.7 -10.1 L10.05 -9.9 Q10.3 -9.3 9.8 -8.55 9.05 -7.3 7.95 -6.8 6.35 -6.15 4.7 -4.25 L3.35 -2.45 3.1 -1.95 3.0 -1.35 3.55 -2.05 4.15 -3.2 Q5.0 -4.25 6.3 -4.8 L9.0 -6.0 9.95 -5.8 10.0 -4.7 9.8 -3.65 Q9.55 -2.2 8.95 -1.45 L7.15 0.4 6.3 1.1 Q5.95 1.5 5.9 2.0 L5.85 4.05 Q5.85 5.25 5.45 5.95 L4.15 8.3 Q3.35 9.6 3.3 10.05 3.15 11.35 3.3 12.65 L3.35 13.15 3.3 13.65 2.3 14.55 1.7 14.8 0.05 15.1 -1.65 14.8 -2.2 14.55 -3.2 13.65 -3.25 13.15 -3.2 12.65 -3.2 10.05 Q-3.25 9.65 -3.55 9.15 L-5.35 5.95 Q-5.75 5.2 -5.8 4.05 L-5.8 2.0 Q-5.85 1.5 -6.25 1.1 L-7.05 0.4 Q-8.15 -0.45 -8.85 -1.45 -9.55 -2.35 -9.7 -3.65 L-9.9 -4.7 -9.9 -5.8 -8.9 -6.0 -6.2 -4.8 Q-4.95 -4.25 -4.05 -3.2 L-3.45 -2.05 -2.9 -1.35 Q-2.75 -1.65 -3.3 -2.45 -5.3 -5.75 -7.85 -6.8 -8.9 -7.25 -9.7 -8.55 -10.25 -9.4 -9.95 -9.9 L-9.65 -10.1 -9.6 -10.1 -8.95 -9.7 -8.65 -9.45 -8.25 -9.4 -7.9 -9.45 -8.6 -12.55 -8.65 -13.0 Q-8.85 -14.8 -8.45 -16.2 L-8.4 -16.2 Q-7.1 -17.9 -6.05 -17.75 -4.9 -17.6 -5.85 -16.75 L-6.75 -15.5 -6.8 -14.05 -6.7 -13.65 -6.4 -14.0 Q-6.15 -14.35 -4.1 -15.6 -1.95 -16.95 -1.35 -16.9 -0.5 -16.85 -0.55 -15.8 L-1.8 -14.75 Q-0.7 -14.55 0.05 -13.7 L0.1 -13.7 2.05 -14.65 0.55 -15.85 0.45 -16.35" fill="#000000" fill-rule="evenodd" stroke="none"/>
    <path d="M6.0 -19.45 Q6.85 -19.45 7.9 -18.65 L9.55 -16.9 9.6 -16.8 9.6 -16.7 Q10.05 -15.2 9.85 -13.1 L9.85 -12.6 9.65 -11.45 9.8 -11.45 10.65 -11.1 11.55 -11.1 11.55 2.3 Q11.55 5.6 9.25 10.0 7.95 12.5 6.15 14.55 3.6 17.5 0.05 19.45 -3.5 17.5 -6.05 14.55 -7.85 12.5 -9.15 10.0 -11.45 5.6 -11.45 2.3 L-11.45 -11.1 -10.55 -11.1 -9.7 -11.45 -9.55 -11.45 -9.75 -12.6 -9.75 -12.85 -9.8 -13.1 Q-10.0 -15.05 -9.55 -16.7 L-9.5 -16.7 -9.5 -16.8 -9.45 -16.95 -9.35 -17.1 Q-7.75 -19.1 -6.15 -19.1 -4.9 -19.1 -4.5 -18.05 -4.25 -17.5 -4.5 -16.9 -2.2 -18.25 -1.4 -18.25 L-1.35 -18.25 -1.3 -18.2 Q-0.55 -18.2 -0.1 -17.75 0.55 -18.25 1.6 -18.25 2.9 -18.25 4.65 -17.1 4.3 -17.95 4.65 -18.65 5.05 -19.45 6.0 -19.45 M0.45 -16.35 L0.55 -15.85 2.05 -14.65 0.1 -13.7 0.05 -13.7 Q-0.7 -14.55 -1.8 -14.75 L-0.55 -15.8 Q-0.5 -16.85 -1.35 -16.9 -1.95 -16.95 -4.1 -15.6 -6.15 -14.35 -6.4 -14.0 L-6.7 -13.65 -6.8 -14.05 -6.75 -15.5 -5.85 -16.75 Q-4.9 -17.6 -6.05 -17.75 -7.1 -17.9 -8.4 -16.2 L-8.45 -16.2 Q-8.85 -14.8 -8.65 -13.0 L-8.6 -12.55 -7.9 -9.45 -8.25 -9.4 -8.65 -9.45 -8.95 -9.7 -9.6 -10.1 -9.65 -10.1 -9.95 -9.9 Q-10.25 -9.4 -9.7 -8.55 -8.9 -7.25 -7.85 -6.8 -5.3 -5.75 -3.3 -2.45 -2.75 -1.65 -2.9 -1.35 L-3.45 -2.05 -4.05 -3.2 Q-4.95 -4.25 -6.2 -4.8 L-8.9 -6.0 -9.9 -5.8 -9.9 -4.7 -9.7 -3.65 Q-9.55 -2.35 -8.85 -1.45 -8.15 -0.45 -7.05 0.4 L-6.25 1.1 Q-5.85 1.5 -5.8 2.0 L-5.8 4.05 Q-5.75 5.2 -5.35 5.95 L-3.55 9.15 Q-3.25 9.65 -3.2 10.05 L-3.2 12.65 -3.25 13.15 -3.2 13.65 -2.2 14.55 -1.65 14.8 0.05 15.1 1.7 14.8 2.3 14.55 3.3 13.65 3.35 13.15 3.3 12.65 Q3.15 11.35 3.3 10.05 3.35 9.6 4.15 8.3 L5.45 5.95 Q5.85 5.25 5.85 4.05 L5.9 2.0 Q5.95 1.5 6.3 1.1 L7.15 0.4 8.95 -1.45 Q9.55 -2.2 9.8 -3.65 L10.0 -4.7 9.95 -5.8 9.0 -6.0 6.3 -4.8 Q5.0 -4.25 4.15 -3.2 L3.55 -2.05 3.0 -1.35 3.1 -1.95 3.35 -2.45 4.7 -4.25 Q6.35 -6.15 7.95 -6.8 9.05 -7.3 9.8 -8.55 10.3 -9.3 10.05 -9.9 L9.7 -10.1 Q9.55 -10.1 9.0 -9.7 L8.75 -9.45 Q8.2 -9.25 8.0 -9.45 L8.7 -12.55 8.75 -13.0 Q8.85 -15.05 8.5 -16.2 7.35 -18.05 6.05 -18.15 4.8 -18.25 6.8 -15.5 L6.9 -14.05 6.8 -13.65 4.6 -15.6 Q2.7 -16.9 1.6 -16.9 0.55 -16.9 0.45 -16.35 M4.4 -13.1 L5.3 -12.25 Q6.1 -10.7 6.0 -9.75 L6.0 -9.7 Q5.8 -8.05 5.05 -7.8 4.75 -7.65 4.35 -8.2 L3.9 -8.95 1.45 -12.3 2.05 -13.05 3.3 -13.55 Q3.65 -13.6 4.4 -13.1 M2.5 -6.65 Q2.95 -5.7 1.85 -3.6 0.8 -1.6 0.05 -1.4 -0.3 -1.5 -0.85 -2.15 L-1.75 -3.65 -2.3 -5.45 -2.4 -6.6 0.3 -10.65 2.5 -6.65 M7.35 -3.8 L8.2 -4.25 7.0 -3.25 Q5.95 -2.1 6.4 -1.65 7.15 -0.9 7.7 -1.9 7.55 -0.8 6.15 -0.6 L4.8 -0.15 4.5 0.1 4.75 -1.3 6.25 -2.95 7.35 -3.8 M4.75 1.95 L4.8 2.05 4.75 3.65 Q4.55 5.15 4.2 5.45 L3.45 5.65 2.7 5.15 2.45 4.75 3.25 3.55 4.25 2.65 4.65 2.2 4.75 1.95 M1.85 12.1 Q2.6 12.5 2.6 13.1 L2.5 13.5 Q2.3 13.15 1.6 13.15 L-1.45 13.15 Q-2.15 13.15 -2.35 13.5 L-2.45 13.1 Q-2.45 12.5 -1.7 12.1 -1.0 11.65 0.05 11.65 1.1 11.65 1.85 12.1 M-3.2 -13.55 Q-2.5 -13.45 -1.95 -13.05 L-1.15 -12.3 -4.25 -8.2 -4.9 -7.8 -5.0 -7.8 Q-5.7 -8.05 -5.9 -9.7 L-5.95 -9.75 Q-6.05 -10.65 -5.2 -12.25 L-4.35 -13.05 -3.25 -13.55 -3.2 -13.55 M-7.4 -1.3 L-7.65 -1.9 Q-7.05 -0.9 -6.35 -1.65 -5.9 -2.1 -6.95 -3.25 L-8.15 -4.25 -7.3 -3.8 -6.15 -2.95 -4.7 -1.3 -4.45 0.1 Q-4.7 -0.35 -6.1 -0.6 -6.95 -0.7 -7.4 -1.3 M-4.6 2.2 L-3.2 3.55 -2.4 4.75 Q-2.7 5.55 -3.35 5.65 L-4.1 5.45 Q-4.45 5.15 -4.65 3.65 L-4.7 2.05 -4.65 1.95 -4.6 2.2" fill="#c1ae95" fill-rule="evenodd" stroke="none"/>
  </g>
</svg>
