<?xml version="1.0" encoding="UTF-8" standalone="no"?>
<svg xmlns:xlink="http://www.w3.org/1999/xlink" height="42.0px" width="42.3px" xmlns="http://www.w3.org/2000/svg">
  <g transform="matrix(1.0, 0.0, 0.0, 1.0, 21.15, 21.0)">
    <path d="M2.15 -19.05 Q1.9 -17.7 0.1 -17.05 -1.7 -17.7 -1.95 -19.05 L-3.55 -18.8 Q-3.25 -17.1 -1.25 -15.9 L-12.65 -5.25 -10.9 -2.5 Q-15.7 -1.3 -17.2 0.5 L-16.15 0.5 -17.45 11.9 -9.4 19.0 -9.1 19.0 -9.05 18.95 -7.9 16.0 Q-6.95 13.9 -5.45 12.4 -3.9 11.0 -1.9 10.45 L1.55 10.45 Q3.55 11.0 5.1 12.4 6.6 13.9 7.55 16.0 L8.7 18.95 8.75 19.0 9.15 19.0 17.15 11.9 16.35 0.5 17.4 0.5 Q15.9 -1.3 11.1 -2.5 L12.9 -5.25 1.5 -15.9 Q3.45 -17.15 3.75 -18.8 L2.15 -19.05 M0.7 -21.0 L5.75 -20.1 5.4 -18.3 Q5.2 -16.9 4.15 -15.7 L15.1 -5.35 13.85 -3.4 Q17.2 -2.3 18.7 -0.5 L21.15 2.45 18.2 2.45 18.95 12.8 9.7 21.0 8.05 21.0 7.6 20.65 7.5 20.6 7.0 20.25 6.85 19.6 5.8 16.9 Q5.05 15.2 3.75 13.9 2.75 12.9 1.2 12.4 L-1.75 12.4 Q-3.3 12.9 -4.3 13.9 -5.5 15.05 -6.4 16.9 L-7.55 20.1 -7.9 20.4 -8.45 21.0 -10.2 21.0 -19.45 12.75 -18.3 2.45 -21.15 2.45 -18.7 -0.5 Q-17.3 -2.25 -13.85 -3.4 L-15.15 -5.35 -4.15 -15.7 Q-5.15 -16.85 -5.45 -18.3 L-5.75 -20.1 -0.6 -21.0 -0.3 -19.25 0.0 -18.95 0.25 -19.25 0.7 -21.0 M9.5 -2.85 L0.45 -3.75 -0.25 -3.75 -9.3 -2.85 -9.2 -2.9 -10.6 -5.0 -10.3 -5.3 10.5 -5.3 10.8 -5.0 9.4 -2.9 9.5 -2.85 M10.75 0.5 L14.75 0.5 14.75 5.0 10.75 3.9 10.75 0.5 M2.15 2.8 L-1.95 2.8 -1.95 0.5 2.15 0.5 2.15 2.8 M3.75 0.5 L9.15 0.5 9.15 3.6 3.75 2.9 3.75 0.5 M-3.55 2.9 L-8.95 3.6 -8.95 0.5 -3.55 0.5 -3.55 2.9 M-10.55 3.9 L-14.55 5.0 -14.55 0.5 -10.55 0.5 -10.55 3.9" fill="#000000" fill-rule="evenodd" stroke="none"/>
    <path d="M2.15 -19.05 L3.75 -18.8 Q3.45 -17.15 1.5 -15.9 L12.9 -5.25 11.1 -2.5 Q15.9 -1.3 17.4 0.5 L16.35 0.5 17.15 11.9 9.15 19.0 8.75 19.0 8.7 18.95 7.55 16.0 Q6.6 13.9 5.1 12.4 3.55 11.0 1.55 10.45 L-1.9 10.45 Q-3.9 11.0 -5.45 12.4 -6.95 13.9 -7.9 16.0 L-9.05 18.95 -9.1 19.0 -9.4 19.0 -17.45 11.9 -16.15 0.5 -17.2 0.5 Q-15.7 -1.3 -10.9 -2.5 L-12.65 -5.25 -1.25 -15.9 Q-3.25 -17.1 -3.55 -18.8 L-1.95 -19.05 Q-1.7 -17.7 0.1 -17.05 1.9 -17.7 2.15 -19.05 M-10.55 3.9 L-10.55 0.5 -14.55 0.5 -14.55 5.0 -10.55 3.9 M-3.55 2.9 L-3.55 0.5 -8.95 0.5 -8.95 3.6 -3.55 2.9 M3.75 0.5 L3.75 2.9 9.15 3.6 9.15 0.5 3.75 0.5 M2.15 2.8 L2.15 0.5 -1.95 0.5 -1.95 2.8 2.15 2.8 M10.75 0.5 L10.75 3.9 14.75 5.0 14.75 0.5 10.75 0.5 M9.5 -2.85 L9.4 -2.9 10.8 -5.0 10.5 -5.3 -10.3 -5.3 -10.6 -5.0 -9.2 -2.9 -9.3 -2.85 -0.25 -3.75 0.45 -3.75 9.5 -2.85" fill="#c1ae95" fill-rule="evenodd" stroke="none"/>
  </g>
</svg>
