<svg xmlns="http://www.w3.org/2000/svg" width="40" height="40"><path fill="#E4DFA2" d="M30.75 27.25h2.55v3.8h-2.55zm-10.5-1.85h1.4v1.2h-1.4zm0 1.65h1.4v1.3h-1.4zm0 1.75h1.4v1.3h-1.4zm0-6.25 1.35 2.4h-1.35zm-2 4.5h1.5v1.3h-1.5zm0-1.65h1.5v1.2h-1.5zm1.5-2.85v2.4H18.3zm-1.5 6.25h1.5v1.3h-1.5z"/><path fill="#465A46" d="M19.75 24.95v-2.4l-1.45 2.4h1.45zm0 1.65v-1.2h-1.5v1.2h1.5zm0 1.75v-1.3h-1.5v1.3h1.5zm0 1.75v-1.3h-1.5v1.3h1.5zm1.85-5.15-1.35-2.4v2.4h1.35zm-1.35 3.85v1.3h1.4v-1.3h-1.4zm1.4-.45v-1.3h-1.4v1.3h1.4zm0-1.75v-1.2h-1.4v1.2h1.4zM20 15.6l6.85 9.95-.6.5v8.85l-6.3 1.9-5.7-1.75v-8.9l-.6-.45L20 15.6z"/><path fill="#E4DFA2" d="M6.85 26.8h2.7v4.25h-2.7z"/><path fill="#465A46" d="M33.3 31.05v-3.8h-2.55v3.8h2.55zM9.55 26.8h-2.7v4.25h2.7V26.8zm20.2-21.5a.9.9 0 0 1 0 .4c0 .13-.03.27-.1.4s-.25.55-.55 1.25l1.65 5.95-.55.45v.65h3.45l.05-.05c0-.03.02-.07.05-.1.03-.1.05-.2.05-.3s-.03-.22-.1-.35c0-.07-.05-.22-.15-.45a2.95 2.95 0 0 1-.15-.45c-.03-.2-.05-.38-.05-.55-.03-.2-.03-.38 0-.55.07-.2.15-.4.25-.6.13-.23.3-.45.5-.65.1-.1.23-.18.4-.25.13-.07.28-.1.45-.1.17-.03.35-.05.55-.05.17.03.33.07.5.1s.33.07.5.1c.13.03.28.07.45.1.07.03.15.07.25.1.03.03.07.05.1.05l-.25.65h-.8c-.1.03-.2.05-.3.05-.13 0-.25.02-.35.05-.1 0-.18.02-.25.05-.1.03-.18.07-.25.1-.13.07-.22.17-.25.3a.69.69 0 0 0 0 .35c0 .1.03.23.1.4.03.07.12.22.25.45.1.2.18.37.25.5.1.2.17.4.2.6s.05.4.05.6c-.03.23-.1.45-.2.65-.1.23-.38.87-.85 1.9l2.5 8.9-.9.75-.05 5.2-8.3 2.5v-7.6l1.2-1L20 13.5l-8.65 12.45 1.2 1v7.55l-8.6-2.6v-5.25l-1-.75 2.5-8.85c-.07-.2-.2-.52-.4-.95-.2-.4-.35-.72-.45-.95-.1-.2-.15-.42-.15-.65-.03-.2-.03-.4 0-.6.07-.2.13-.4.2-.6.07-.13.15-.3.25-.5.13-.23.22-.38.25-.45.07-.17.1-.3.1-.4a.69.69 0 0 0 0-.35.462.462 0 0 0-.25-.3c-.07-.03-.13-.07-.2-.1-.1-.03-.2-.05-.3-.05-.1-.03-.2-.05-.3-.05s-.22-.02-.35-.05h-.8l-.25-.65c.02-.02.05-.03.1-.05.1-.03.2-.07.3-.1.13-.03.27-.07.4-.1.17-.03.33-.07.5-.1.2-.03.38-.07.55-.1.17 0 .33.02.5.05.2 0 .37.03.5.1s.25.15.35.25c.2.2.37.42.5.65.1.2.18.4.25.6.03.17.05.35.05.55-.03.17-.07.35-.1.55-.03.13-.08.28-.15.45-.1.23-.15.38-.15.45a.752.752 0 0 0-.05.65c.03.07.07.12.1.15h3.5v-.7l-.6-.45L11 7.35c-.07-.13-.15-.33-.25-.6-.17-.3-.27-.52-.3-.65a.846.846 0 0 1-.1-.4v-.4c.03-.1.08-.22.15-.35.03-.07.08-.17.15-.3s.12-.23.15-.3c.03-.1.05-.18.05-.25.03-.07.03-.13 0-.2s-.08-.13-.15-.2c-.03-.03-.08-.05-.15-.05-.03 0-.08-.02-.15-.05H10a.492.492 0 0 0-.2-.05h-.15c-.03.03-.07.05-.1.05H9.5l-.15-.45h.05c.07-.03.13-.07.2-.1.07 0 .15-.02.25-.05s.2-.05.3-.05c.1-.03.2-.05.3-.05h.35c.1 0 .2.02.3.05s.18.08.25.15a1.63 1.63 0 0 1 .45.8v.35c0 .1-.02.22-.05.35-.03.07-.07.15-.1.25-.03.17-.07.27-.1.3-.03.1-.05.17-.05.2 0 .1.02.17.05.2.03.07.07.12.1.15s.08.07.15.1c.03.03.08.07.15.1.07 0 .13.02.2.05.07 0 .13.02.2.05h.25c.03.03.08.05.15.05H27.3c.1 0 .2-.02.3-.05.1 0 .2-.02.3-.05s.2-.07.3-.1c.07-.03.13-.07.2-.1.07-.07.12-.13.15-.2s.05-.13.05-.2-.02-.13-.05-.2c-.03-.03-.07-.13-.1-.3-.03-.1-.07-.18-.1-.25-.03-.13-.05-.25-.05-.35V3.9c.03-.13.08-.27.15-.4.1-.13.2-.27.3-.4.07-.07.15-.12.25-.15s.2-.05.3-.05h.35c.1 0 .2.02.3.05.1 0 .22.02.35.05.07.03.15.07.25.1.07 0 .12.02.15.05h.05l-.15.45h-.9c-.07.03-.12.05-.15.05-.07.03-.12.05-.15.05-.07.07-.12.13-.15.2s-.03.13 0 .2c0 .07.02.15.05.25.03.07.08.17.15.3s.12.23.15.3c.07.13.12.25.15.35z"/><path fill="#698269" d="M26.25 34.9v-8.85l.6-.5L20 15.6l-6.35 10.1.6.45v8.9l5.7 1.75 6.3-1.9zM29.6 1.25c.3 0 .63.03 1 .1.37.03.77.12 1.2.25.4.13.83.28 1.3.45l-.8 2.65-1.25.05c.07.07.12.13.15.2s.07.15.1.25c.03.07.05.13.05.2 0 .1.02.18.05.25v.25c0 .1-.02.18-.05.25 0 .1-.02.18-.05.25 0 .1-.02.2-.05.3L32 9.5c.2-.23.4-.42.6-.55.23-.17.48-.32.75-.45.27-.1.55-.18.85-.25.27-.07.57-.1.9-.1s.68.02 1.05.05.77.1 1.2.2c.4.1.82.22 1.25.35s.9.3 1.4.5l-1.1 3.45-1.7.05c.13.13.23.28.3.45s.12.35.15.55v.55c0 .17-.02.35-.05.55-.03.17-.08.35-.15.55-.03.17-.1.35-.2.55-.07.17-.13.35-.2.55-.07.13-.15.28-.25.45l2.6 9.55-1.2.9V33L20 39.2 1.85 33v-5.6l-1.2-.85 2.55-9.5c-.1-.17-.18-.33-.25-.5s-.13-.33-.2-.5c-.07-.2-.13-.38-.2-.55a3.74 3.74 0 0 1-.2-1.15c-.03-.2-.03-.4 0-.6.03-.17.08-.33.15-.5.07-.2.17-.37.3-.5l-1.7-.05L0 9.25c.47-.2.93-.37 1.4-.5.43-.13.85-.25 1.25-.35s.78-.17 1.15-.2.72-.05 1.05-.05.65.03.95.1.58.15.85.25c.23.1.47.23.7.4s.43.35.6.55l.8-2.95a.618.618 0 0 1-.05-.25v-.2c-.03-.1-.05-.18-.05-.25s.02-.15.05-.25v-.2c.03-.07.07-.13.1-.2.03-.1.07-.18.1-.25s.07-.12.1-.15L7.75 4.7l-.8-2.65c.47-.17.9-.32 1.3-.45.43-.13.83-.22 1.2-.25.37-.07.72-.1 1.05-.1.3 0 .6.03.9.1.27.07.52.17.75.3s.45.3.65.5c.17.2.32.43.45.7.17.27.3.58.4.95h12.8c.1-.33.22-.63.35-.9s.3-.52.5-.75c.17-.2.37-.37.6-.5s.5-.23.8-.3c.27-.07.57-.1.9-.1zm.15 4.45a.9.9 0 0 0 0-.4c-.03-.1-.08-.22-.15-.35-.03-.07-.08-.17-.15-.3s-.12-.23-.15-.3a.915.915 0 0 1-.05-.25c-.03-.07-.03-.13 0-.2s.08-.13.15-.2c.03 0 .08-.02.15-.05.03 0 .08-.02.15-.05h.9l.15-.45h-.05c-.03-.03-.08-.05-.15-.05-.1-.03-.18-.07-.25-.1-.13-.03-.25-.05-.35-.05-.1-.03-.2-.05-.3-.05h-.35c-.1 0-.2.02-.3.05s-.18.08-.25.15c-.1.13-.2.27-.3.4-.07.13-.12.27-.15.4v.35c0 .1.02.22.05.35.03.07.07.15.1.25.03.17.07.27.1.3.03.07.05.13.05.2s-.02.13-.05.2-.08.13-.15.2c-.07.03-.13.07-.2.1-.1.03-.2.07-.3.1s-.2.05-.3.05c-.1.03-.2.05-.3.05H12.75s-.12-.02-.15-.05h-.25a.492.492 0 0 0-.2-.05.492.492 0 0 0-.2-.05.483.483 0 0 1-.15-.1c-.07-.03-.12-.07-.15-.1s-.07-.08-.1-.15c-.03-.03-.05-.1-.05-.2 0-.03.02-.1.05-.2.03-.03.07-.13.1-.3.03-.1.07-.18.1-.25.03-.13.05-.25.05-.35V3.9a1.63 1.63 0 0 0-.45-.8c-.07-.07-.15-.12-.25-.15s-.2-.05-.3-.05h-.35c-.1 0-.2.02-.3.05-.1 0-.2.02-.3.05s-.18.05-.25.05c-.07.03-.13.07-.2.1h-.05l.15.45h.05s.07-.02.1-.05h.15c.07 0 .13.02.2.05h.4c.07.03.12.05.15.05.07 0 .12.02.15.05.07.07.12.13.15.2s.03.13 0 .2c0 .07-.02.15-.05.25-.03.07-.08.17-.15.3s-.12.23-.15.3c-.07.13-.12.25-.15.35v.4c0 .13.03.27.1.4.03.13.13.35.3.65.1.27.18.47.25.6l-1.65 5.9.6.45v.7h-3.5c-.03-.03-.07-.08-.1-.15s-.05-.17-.05-.3c0-.1.03-.22.1-.35 0-.07.05-.22.15-.45.07-.17.12-.32.15-.45.03-.2.07-.38.1-.55 0-.2-.02-.38-.05-.55-.07-.2-.15-.4-.25-.6-.13-.23-.3-.45-.5-.65-.1-.1-.22-.18-.35-.25s-.3-.1-.5-.1c-.17-.03-.33-.05-.5-.05-.17.03-.35.07-.55.1-.17.03-.33.07-.5.1-.13.03-.27.07-.4.1-.1.03-.2.07-.3.1-.05.02-.08.03-.1.05l.25.65h.8c.13.03.25.05.35.05s.2.02.3.05c.1 0 .2.02.3.05.07.03.13.07.2.1.13.07.22.17.25.3.03.1.03.22 0 .35 0 .1-.03.23-.1.4-.03.07-.12.22-.25.45-.1.2-.18.37-.25.5-.07.2-.13.4-.2.6-.03.2-.03.4 0 .6 0 .23.05.45.15.65.1.23.25.55.45.95.2.43.33.75.4.95l-2.5 8.85 1 .75v5.25l8.6 2.6v-7.55l-1.2-1L20 13.5l9.1 12.3-1.2 1v7.6l8.3-2.5.05-5.2.9-.75-2.5-8.9c.47-1.03.75-1.67.85-1.9.1-.2.17-.42.2-.65 0-.2-.02-.4-.05-.6s-.1-.4-.2-.6c-.07-.13-.15-.3-.25-.5-.13-.23-.22-.38-.25-.45-.07-.17-.1-.3-.1-.4a.69.69 0 0 1 0-.35c.03-.13.12-.23.25-.3.07-.03.15-.07.25-.1.07-.03.15-.05.25-.05.1-.03.22-.05.35-.05.1 0 .2-.02.3-.05h.8l.25-.65c-.03 0-.07-.02-.1-.05-.1-.03-.18-.07-.25-.1-.17-.03-.32-.07-.45-.1-.17-.03-.33-.07-.5-.1s-.33-.07-.5-.1c-.2 0-.38.02-.55.05-.17 0-.32.03-.45.1-.17.07-.3.15-.4.25-.2.2-.37.42-.5.65-.1.2-.18.4-.25.6-.03.17-.03.35 0 .55 0 .17.02.35.05.55.03.13.08.28.15.45.1.23.15.38.15.45.07.13.1.25.1.35s-.02.2-.05.3c-.03.03-.05.07-.05.1l-.05.05H30.2v-.65l.55-.45-1.65-5.95c.3-.7.48-1.12.55-1.25s.1-.27.1-.4z"/></svg>