<svg xmlns="http://www.w3.org/2000/svg" width="40" height="40"><path fill="#7D8791" d="m35.35 23.1-.05 6.15-3.65 1.4v-5l1.15-1.35-2.7-15.75h3.05l3.1 13.65z"/><path fill="#E4DFA2" d="M16 25.65h8v7.45h-8zM18.1 3.6h3.8v2.5h-3.8z"/><path fill="#7D8791" d="M21.9 6.1V3.6h-3.8v2.5h3.8zm2.1 27v-7.45h-8v7.45h8zm-.35-31.55.6 2.05h-.9v1.3l4.2.05L30.7 23.6l-.9 1.15-.05 8.4L20 37.9l-9.75-4.75V24.7l-.95-1.2 3.2-18.6h4.15V3.6h-.85l.5-2.05h7.35zM9.9 8.5 7.2 24.35l1.15 1.3v4.95L4.8 29.25v-6.2l-.9-.9L7 8.5z"/><path fill="#555A64" d="M8.35 30.6v-4.95l-1.15-1.3L9.9 8.5H7L3.9 22.15l.9.9v6.2l3.55 1.35zm21.45-5.85.9-1.15-3.15-18.65-4.2-.05V3.6h.9l-.6-2.05H16.3l-.5 2.05h.85v1.3H12.5L9.3 23.5l.95 1.2v8.45L20 37.9l9.75-4.75.05-8.4zm5.55-1.65.9-.9-3.1-13.65H30.1l2.7 15.75-1.15 1.35v5l3.65-1.4.05-6.15zm3-.2-1.1 1v6.7l-5.6 2.35v1.4L20 40 8.35 34.35v-1.4l-5.5-2.35v-6.7l-1.15-1L5.2 6.75h5l.6-3.5h3.3L15 0h9.95l.85 3.25h3.4l.6 3.5h5.05l3.5 16.15z"/></svg>