<svg xmlns="http://www.w3.org/2000/svg" width="40" height="40"><path fill="#28323C" d="M29.85 7.25c-.01 0-.02.01-.02.01v-.01h.02z"/><path fill="#E4DFA2" d="M21.55 22.3h3.1v7.35h-3.1zm-.3-8.95h2.35v3.85h-2.35zm-4.7 0h2.4v3.85h-2.4zm-1 8.9h3.05v7.4h-3.05z"/><path fill="#46505A" d="M12.75 8.15c.07-.17.1-.3.1-.4.03-.17 0-.3-.1-.4-.1-.13-.27-.27-.5-.4-.23-.1-.55-.2-.95-.3.17-.03.33-.05.5-.05.17-.03.33-.05.5-.05.13 0 .27.02.4.05.13 0 .27.03.4.1.1.03.2.08.3.15.1.03.18.1.25.2.07.07.13.17.2.3.03.1.07.22.1.35v.19c-.01 0-.04.11-.1.31 0 .13-.02.23-.05.3 0 .13.02.23.05.3 0 .13.03.25.1.35.1.1.22.18.35.25.13.1.32.18.55.25.23.07.5.12.8.15h1.15c-.5-3.03-.95-5.03-1.35-6l-.3-.6c-.1-.2-.2-.38-.3-.55s-.22-.32-.35-.45c-.1-.1-.2-.22-.3-.35a.99.99 0 0 0-.25-.25l-.2-.2a.483.483 0 0 0-.15-.1l-.05-.05h3.15l.05.05c.03.03.08.07.15.1l.2.2c.1.07.18.15.25.25.1.13.2.25.3.35.1.13.2.28.3.45.13.17.25.33.35.5.1.23.2.45.3.65V1.25h2.95V3.8l.3-.6c.1-.2.22-.38.35-.55.1-.17.2-.32.3-.45l.35-.35c.07-.1.15-.18.25-.25l.2-.2c.07-.03.12-.07.15-.1.03 0 .05-.02.05-.05h3.15l-.05.05c-.07.03-.12.07-.15.1l-.2.2a.99.99 0 0 0-.25.25l-.35.35c-.1.13-.2.28-.3.45-.13.17-.25.33-.35.5-.1.23-.2.45-.3.65-.43 1-.87 3-1.3 6h1.05c.33-.03.62-.08.85-.15.2-.07.38-.15.55-.25.13-.07.23-.15.3-.25.07-.1.12-.22.15-.35.03-.07.03-.17 0-.3 0-.07-.02-.17-.05-.3-.03-.2-.05-.3-.05-.3v-.2c.03-.13.07-.25.1-.35.03-.13.1-.23.2-.3.07-.1.15-.17.25-.2.07-.07.17-.12.3-.15.1-.07.23-.1.4-.1.13-.03.27-.05.4-.05.17 0 .33.02.5.05.17 0 .33.02.5.05-.4.1-.73.2-1 .3-.2.13-.35.27-.45.4-.1.1-.15.23-.15.4 0 .1.05.23.15.4.07.1.15.25.25.45.17.2.27.33.3.4.1.17.17.3.2.4.03.17.03.3 0 .4-.3.7-1.02 1.83-2.15 3.4v4h-2.4v-3.85h-2.35v3.85h-2.3v-3.85h-2.4v3.85H14.2v-3.85L13.3 12c-.67-1-1.1-1.73-1.3-2.2a.885.885 0 0 1 0-.4c.03-.1.1-.23.2-.4.03-.07.12-.2.25-.4s.23-.35.3-.45z"/><path fill="#46505A" d="M18.6 22.25h-3.05v7.4h3.05v-7.4zm-6.4-5.05h15.7c.13-.1.25-.2.35-.3.07-.07.13-.17.2-.3.03-.1.07-.2.1-.3v-.35a.775.775 0 0 1-.05-.3c0-.03-.02-.13-.05-.3a.915.915 0 0 1-.05-.25.233.233 0 0 1 0-.2c.03-.2.08-.37.15-.5.03-.17.1-.3.2-.4s.22-.2.35-.3c.13-.07.28-.13.45-.2.13-.03.3-.07.5-.1.17-.03.35-.05.55-.05s.42.02.65.05c.23 0 .47.02.7.05-.53.13-.97.28-1.3.45-.33.13-.57.3-.7.5-.1.17-.15.33-.15.5s.07.37.2.6c.07.13.18.32.35.55.2.33.33.53.4.6.13.23.22.42.25.55.07.2.07.38 0 .55-.43.93-1.38 2.47-2.85 4.6v7.3h1.3v3.15L20 38.4l-9.2-5.6v-3.15h1.3v-7.2c-.37-.5-.83-1.17-1.4-2-.77-1.23-1.28-2.13-1.55-2.7a.745.745 0 0 1 0-.55c.03-.13.12-.32.25-.55.03-.07.17-.25.4-.55.17-.27.28-.47.35-.6.1-.2.15-.38.15-.55.03-.2-.02-.38-.15-.55-.13-.2-.35-.37-.65-.5-.33-.17-.78-.32-1.35-.45.27-.03.5-.07.7-.1h.65c.23 0 .43.02.6.05.17 0 .33.03.5.1s.32.13.45.2c.13.1.25.2.35.3s.17.23.2.4c.07.13.12.3.15.5v.2c0 .07-.02.15-.05.25-.03.17-.05.27-.05.3-.03.13-.05.23-.05.3v.35c.03.1.07.2.1.3.03.13.1.23.2.3.07.1.17.2.3.3zm9.35 5.1v7.35h3.1V22.3h-3.1z"/><path fill="#28323C" d="M12.25 5.5c.3.03.58.08.85.15.3.07.58.17.85.3.3.13.57.3.8.5-.03-.13-.07-.25-.1-.35 0-.13-.02-.25-.05-.35-.03-.13-.07-.25-.1-.35-.03-.1-.07-.2-.1-.3-.03-.13-.07-.25-.1-.35s-.07-.18-.1-.25c-.03-.1-.07-.2-.1-.3a.579.579 0 0 0-.15-.25c-.1-.23-.23-.48-.4-.75-.13-.23-.3-.47-.5-.7-.13-.23-.28-.47-.45-.7-.17-.2-.33-.4-.5-.6-.13-.17-.28-.33-.45-.5l-.6-.6-.1-.1H29.2l-.1.1c-.07.1-.13.18-.2.25-.13.1-.27.22-.4.35-.13.17-.27.33-.4.5-.17.2-.33.4-.5.6-.17.23-.33.47-.5.7s-.32.47-.45.7c-.17.27-.32.52-.45.75-.03.07-.07.15-.1.25-.03.07-.07.15-.1.25-.03.07-.07.15-.1.25s-.07.2-.1.3-.07.2-.1.3c-.03.1-.05.2-.05.3-.03.13-.07.25-.1.35s-.07.2-.1.3c.23-.17.5-.3.8-.4.27-.1.53-.18.8-.25.3-.07.58-.1.85-.1s.55.02.85.05c.27.03.53.08.8.15.27.07.52.15.75.25s.45.22.65.35c.2.1.38.22.55.35-.27.1-.57.2-.9.3-.51.2-.77.3-.77.3v.01c-.22.06-.4.12-.53.19-.2.1-.33.18-.4.25-.1.1-.17.2-.2.3s-.02.23.05.4c.07.13.18.3.35.5s.37.43.6.7c.07.07.12.13.15.2 0 .07.02.15.05.25 0 .1-.02.22-.05.35 0 .1-.02.22-.05.35-.07.13-.12.28-.15.45-.07.13-.13.28-.2.45s-.13.33-.2.5c-.1.13-.2.3-.3.5.23-.07.48-.12.75-.15.23-.03.47-.05.7-.05h.75c.23.03.45.08.65.15.23.03.47.08.7.15.2.1.4.18.6.25.2.1.38.2.55.3s.32.22.45.35c-.27.1-.58.22-.95.35-.52.17-.79.26-.81.26-.27.09-.46.17-.59.24-.2.07-.33.15-.4.25-.13.1-.2.2-.2.3-.03.13-.02.27.05.4.07.17.18.35.35.55.17.23.38.48.65.75.1.1.17.23.2.4 0 .2-.03.42-.1.65-.03.23-.12.5-.25.8-.1.27-.23.57-.4.9-.13.3-.3.6-.5.9-.17.33-.35.65-.55.95l-.6.9c-.2.27-.38.52-.55.75v5.35h1.3v5.1L20.05 40l-10.6-6.55v-5.1h1.35v-5.1c-.17-.2-.37-.45-.6-.75-.2-.27-.4-.55-.6-.85-.2-.33-.4-.65-.6-.95-.2-.37-.38-.7-.55-1-.2-.33-.35-.65-.45-.95-.13-.33-.23-.62-.3-.85-.07-.27-.1-.5-.1-.7.03-.2.1-.35.2-.45.27-.27.48-.52.65-.75.17-.2.28-.38.35-.55.07-.13.08-.27.05-.4 0-.1-.05-.2-.15-.3-.1-.1-.25-.18-.45-.25-.13-.07-.33-.15-.6-.25-.02 0-.3-.08-.8-.25-.37-.13-.68-.25-.95-.35.13-.13.28-.25.45-.35s.35-.2.55-.3c.2-.07.4-.15.6-.25.23-.07.45-.12.65-.15.23-.07.47-.12.7-.15s.47-.05.7-.05c.27 0 .52.02.75.05s.47.08.7.15c-.1-.17-.18-.33-.25-.5-.1-.17-.18-.32-.25-.45a2.95 2.95 0 0 1-.15-.45c-.07-.17-.12-.32-.15-.45s-.07-.25-.1-.35v-.35c0-.1.02-.18.05-.25.03-.1.07-.17.1-.2.27-.27.48-.5.65-.7.13-.2.23-.37.3-.5.07-.17.08-.3.05-.4 0-.1-.05-.2-.15-.3-.1-.07-.23-.15-.4-.25-.13-.07-.33-.13-.6-.2-.06-.04-.31-.12-.75-.25-.33-.13-.63-.25-.9-.35.17-.13.37-.27.6-.4.2-.13.43-.25.7-.35.23-.07.48-.13.75-.2a7.265 7.265 0 0 1 1.75-.2zm.6 2.25c0 .1-.03.23-.1.4-.07.1-.17.25-.3.45s-.22.33-.25.4c-.1.17-.17.3-.2.4-.03.17-.03.3 0 .4.2.47.63 1.2 1.3 2.2l.9 1.35v3.85h-2c-.13-.1-.23-.2-.3-.3a.49.49 0 0 1-.2-.3c-.03-.1-.07-.2-.1-.3v-.35c0-.07.02-.17.05-.3 0-.03.02-.13.05-.3.03-.1.05-.18.05-.25v-.2c-.03-.2-.08-.37-.15-.5-.03-.17-.1-.3-.2-.4-.1-.1-.22-.2-.35-.3-.13-.07-.28-.13-.45-.2s-.33-.1-.5-.1c-.17-.03-.37-.05-.6-.05h-.65c-.2.03-.43.07-.7.1.57.13 1.02.28 1.35.45.3.13.52.3.65.5.13.17.18.35.15.55 0 .17-.05.35-.15.55-.07.13-.18.33-.35.6-.23.3-.37.48-.4.55-.13.23-.22.42-.25.55-.07.2-.07.38 0 .55.27.57.78 1.47 1.55 2.7.57.83 1.03 1.5 1.4 2v7.2h-1.3v3.15l9.2 5.6 9.45-5.6v-3.15h-1.3v-7.3c1.47-2.13 2.42-3.67 2.85-4.6.07-.17.07-.35 0-.55-.03-.13-.12-.32-.25-.55-.07-.07-.2-.27-.4-.6-.17-.23-.28-.42-.35-.55-.13-.23-.2-.43-.2-.6s.05-.33.15-.5c.13-.2.37-.37.7-.5.33-.17.77-.32 1.3-.45-.23-.03-.47-.05-.7-.05-.23-.03-.45-.05-.65-.05s-.38.02-.55.05c-.2.03-.37.07-.5.1-.17.07-.32.13-.45.2-.13.1-.25.2-.35.3s-.17.23-.2.4c-.07.13-.12.3-.15.5-.03.07-.03.13 0 .2 0 .07.02.15.05.25.03.17.05.27.05.3 0 .13.02.23.05.3v.35c-.03.1-.07.2-.1.3-.07.13-.13.23-.2.3-.1.1-.22.2-.35.3H26v-4c1.13-1.57 1.85-2.7 2.15-3.4.03-.1.03-.23 0-.4-.03-.1-.1-.23-.2-.4-.03-.07-.13-.2-.3-.4-.1-.2-.18-.35-.25-.45-.1-.17-.15-.3-.15-.4 0-.17.05-.3.15-.4.1-.13.25-.27.45-.4.27-.1.6-.2 1-.3-.17-.03-.33-.05-.5-.05-.17-.03-.33-.05-.5-.05-.13 0-.27.02-.4.05-.17 0-.3.03-.4.1-.13.03-.23.08-.3.15-.1.03-.18.1-.25.2a.49.49 0 0 0-.2.3c-.03.1-.07.22-.1.35v.2s.02.1.05.3c.03.13.05.23.05.3.03.13.03.23 0 .3-.03.13-.08.25-.15.35s-.17.18-.3.25c-.17.1-.35.18-.55.25-.23.07-.52.12-.85.15H23.4c.43-3 .87-5 1.3-6 .1-.2.2-.42.3-.65.1-.17.22-.33.35-.5.1-.17.2-.32.3-.45l.35-.35c.07-.1.15-.18.25-.25l.2-.2c.03-.03.08-.07.15-.1l.05-.05H23.5c0 .03-.02.05-.05.05-.03.03-.08.07-.15.1l-.2.2a.99.99 0 0 0-.25.25l-.35.35c-.1.13-.2.28-.3.45-.13.17-.25.35-.35.55l-.3.6V1.25H18.6V3.8c-.1-.2-.2-.42-.3-.65-.1-.17-.22-.33-.35-.5-.1-.17-.2-.32-.3-.45-.1-.1-.2-.22-.3-.35a.99.99 0 0 0-.25-.25l-.2-.2a.483.483 0 0 1-.15-.1l-.05-.05h-3.15l.05.05c.07.03.12.07.15.1l.2.2c.1.07.18.15.25.25.1.13.2.25.3.35.13.13.25.28.35.45s.2.35.3.55l.3.6c.4.97.85 2.97 1.35 6h-1.15c-.3-.03-.57-.08-.8-.15s-.42-.15-.55-.25c-.13-.07-.25-.15-.35-.25-.07-.1-.1-.22-.1-.35a.775.775 0 0 1-.05-.3c.03-.07.05-.17.05-.3.06-.2.09-.31.1-.31V7.7c-.03-.13-.07-.25-.1-.35-.07-.13-.13-.23-.2-.3a.478.478 0 0 0-.25-.2c-.1-.07-.2-.12-.3-.15a.846.846 0 0 0-.4-.1c-.13-.03-.27-.05-.4-.05-.17 0-.33.02-.5.05-.17 0-.33.02-.5.05.4.1.72.2.95.3.23.13.4.27.5.4.1.1.13.23.1.4z"/></svg>