<svg xmlns="http://www.w3.org/2000/svg" width="40" height="40"><g fill-rule="evenodd"><path fill="#735541" d="M9.7 18.05 7.05 20.9l23.3 17.05 2.25-2.25L9.7 18.05M7 6.85 11.35 2l10.7 4.2L36.25 32l-2.45 2.4-23.2-18.05L7 6.85m1.7 9.6L5.8 8.2l-2.3 2.65 2.65 8.45 2.55-2.85"/><path fill="#2d2d2d" d="M1.75 10.55 11.05 0 23 4.8l15.25 27.6-7.7 7.6L5.2 21.65l-3.45-11.1m7.95 7.5L7.05 20.9l23.3 17.05 2.25-2.25L9.7 18.05M7 6.85 11.35 2l10.7 4.2L36.25 32l-2.45 2.4-23.2-18.05L7 6.85m1.7 9.6L5.8 8.2l-2.3 2.65 2.65 8.45 2.55-2.85"/></g></svg>