<svg xmlns="http://www.w3.org/2000/svg" width="40" height="40"><path fill="#D2BE5A" d="M27.7 15.35h.2c-.06.01-.14.02-.24.02.01-.01.02-.02.04-.02z"/><path fill="#E4DFA2" d="M16.25 15.25h7.5V30h-7.5z"/><path fill="#73694B" d="M23.27 2.29c.01 0 .02.01.03.02-.01 0-.01-.01-.02-.01 0 0 0-.01-.01-.01z"/><g fill="#D2BE5A"><path d="M20.03 2.78c.4.29.94.7 1.62 1.22-.68-.49-1.22-.9-1.62-1.22zm0-.01v.01c-.02.01-.05.03-.08.05.03-.02.06-.05.08-.06z"/><path d="M19.92 2.82c.03-.02.05-.05.08-.07.01.01.02.01.03.02-.02.01-.05.04-.08.06a.55.55 0 0 1-.09.07c-.03.01-.06.03-.08.05.05-.05.1-.09.14-.13z"/><path d="M19.92 2.82c-.04.04-.09.08-.14.13-.01.01-.02.01-.02.01.06-.05.11-.1.16-.14z"/><path d="M19.86 2.9c-.04.03-.08.06-.13.09l.03-.03s.01 0 .02-.01c.02-.02.05-.04.08-.05z"/><path d="m19.76 2.96-.03.03c.01-.01.01-.02.02-.03h.01z"/><path d="M19.75 2.96c-.01.01-.01.02-.02.03l-.09.06c.04-.03.07-.06.11-.09zm-.02.03-.15.12.06-.06.09-.06z"/><path d="m19.64 3.05-.06.06c-.01.01-.03.02-.04.03-.02.01-.04.03-.06.04.04-.03.07-.05.1-.09.02 0 .04-.02.06-.04zm-.41.31c.09-.06.17-.12.25-.18-.19.15-.4.31-.63.47.09-.06.17-.13.25-.19.04-.03.09-.06.13-.1z"/><path d="M19.23 3.36c-.04.04-.09.07-.13.1.05-.03.09-.06.13-.1zM14.2 7.75c.2-.3.42-.58.65-.85.02-.03.05-.05.07-.08-.23.28-.43.55-.62.83l-.24.33c.04-.08.09-.15.14-.23zm-1.06 2.06c-.05.14-.09.28-.13.42.02-.11.06-.22.09-.33.01-.03.02-.06.04-.09zm-.49 5.59h-.15c-.02 0-.04-.01-.06-.02.06 0 .13.01.21.02zm-.8-.2c.07.07.15.12.25.15-.1 0-.18-.05-.25-.15zm-.09-.14c.03.05.06.1.09.14-.03-.04-.07-.08-.09-.14z"/><path d="M11.35 12.65h1.3c.01-.25.03-.49.06-.74.03-.24.05-.47.09-.71.05-.34.12-.67.21-.97.04-.14.08-.28.13-.42.06-.19.13-.38.21-.56.08-.17.16-.33.25-.5.07-.15.16-.29.24-.44.07-.11.13-.22.22-.33l.24-.33c.19-.28.39-.55.62-.83.02-.02.04-.05.06-.07.2-.22.43-.43.67-.65.11-.11.24-.23.38-.35h.01c.07-.06.14-.12.22-.18.08-.05.16-.11.24-.17.23-.2.52-.42.85-.65.2-.13.65-.47 1.34-1h.01c.14-.1.28-.2.4-.29-.08.06-.16.13-.25.19.23-.16.44-.32.63-.47.02-.01.04-.03.06-.04.01-.01.03-.02.04-.03l.15-.12c.05-.03.09-.06.13-.09a.55.55 0 0 0 .09-.07c.03-.02.06-.04.08-.05.4.32.94.73 1.62 1.22.83.57 1.4.97 1.7 1.2l-.6 2.15L21.35 9l.5 1.9.65-1.7 1.6-.75.85-1.85c.17.2.33.38.5.55.17.2.33.4.5.6.13.23.27.45.4.65.13.23.25.48.35.75.1.23.2.48.3.75.07.27.13.55.2.85s.12.6.15.9c.03.33.05.67.05 1h1.3v.4c-.02.08-.03.16-.04.24-.01.05-.01.11-.01.16 0 .2-.02.37-.05.5-.03.17-.07.33-.1.5-.03.17-.07.3-.1.4-.07.13-.13.25-.2.35-.07.07-.13.12-.2.15h-.3c-.02 0-.03.01-.04.02-.08.01-.16.02-.26.03v16.05l-7.25 5.4-7.5-5.7V15.4c-.08-.01-.15-.02-.21-.02-.01-.01-.03-.02-.04-.03h-.3a.579.579 0 0 1-.25-.15c-.03-.04-.06-.09-.09-.14 0 0-.01-.01-.01-.02a.74.74 0 0 1-.05-.19c-.07-.1-.12-.23-.15-.4s-.07-.33-.1-.5c-.03-.13-.05-.28-.05-.45 0-.06 0-.14-.01-.21-.01-.08-.02-.16-.04-.24v-.4zM23.75 30V15.25h-7.5V30h7.5z"/><path d="M11.35 13.05c.02.08.03.16.04.24-.01-.07-.03-.15-.04-.24z"/></g><path fill="#73694B" d="M20.28 2.59c.08-.06.14-.1.18-.14-.04.03-.1.07-.18.14zm-6.53 2.26c.47-.4.98-.83 1.55-1.3.43-.33.98-.73 1.65-1.2 1.08-.81 1.62-1.21 1.62-1.21C19.16.71 19.63.33 20 0c.4.3.92.67 1.55 1.1.81.57 1.35.94 1.6 1.1.02.01.04.03.06.05.01.01.01 0 .01 0 .02.01.04.02.05.04.01 0 .01.01.01.01.01 0 .01.01.02.01.57.39 1.07.75 1.5 1.09.57.43 1.07.83 1.5 1.2.53.47 1 .92 1.4 1.35.4.47.75.93 1.05 1.4.33.53.58 1.07.75 1.6s.25 1.08.25 1.65h1.35v.95c0 .3-.02.62-.05.95 0 .37-.02.73-.05 1.1 0 .4-.02.77-.05 1.1-.07.37-.12.7-.15 1-.07.3-.13.53-.2.7-.1.2-.2.32-.3.35-.07 0-.15.02-.25.05-.13.03-.23.05-.3.05V32.5l-9.6 7.5-9.9-7.9V16.85h-.15l-.05-.05H9.9l-.05-.05h-.1c-.1-.03-.2-.15-.3-.35-.07-.17-.13-.4-.2-.7s-.12-.63-.15-1c-.03-.33-.07-.7-.1-1.1-.03-.37-.05-.73-.05-1.1-.03-.33-.05-.65-.05-.95v-.95h1.35c0-.5.08-1.02.25-1.55.17-.47.42-.95.75-1.45.3-.47.67-.93 1.1-1.4.4-.43.87-.88 1.4-1.35zm.45 2.9c-.05.08-.1.15-.14.23-.09.11-.15.22-.22.33-.14.23-.28.45-.39.69-.04.08-.07.17-.1.25-.08.18-.15.37-.21.56-.02.03-.03.06-.04.09-.03.11-.07.22-.09.33-.09.3-.16.63-.21.97-.04.23-.07.47-.09.71-.03.24-.05.49-.06.74h-1.3v.4c.01.09.03.17.04.24.01.07.01.15.01.21 0 .17.02.32.05.45.03.17.07.33.1.5.03.17.07.3.1.4.03.07.07.13.1.19 0 .01.01.02.01.02.02.06.06.1.09.14.07.1.15.15.25.15h.07c.06.01.15.02.27.03.02.01.04.02.06.02h.15v15.75l7.5 5.7 7.25-5.4V15.4h.25c0-.01 0-.02.01-.03.1 0 .18-.01.24-.02h.1c.07 0 .13-.05.2-.15.07-.07.13-.18.2-.35.03-.1.07-.23.1-.4s.07-.33.1-.5c.03-.13.05-.3.05-.5 0-.05 0-.11.01-.16.01-.07.02-.15.04-.24v-.4h-1.3c0-.33-.02-.67-.05-1-.03-.3-.08-.6-.15-.9s-.13-.58-.2-.85c-.1-.27-.2-.52-.3-.75-.1-.27-.22-.52-.35-.75-.13-.2-.27-.42-.4-.65-.17-.2-.33-.4-.5-.6-.13-.17-.3-.35-.5-.55l-.85 1.85-1.6.75-.65 1.7-.5-1.9 1.4-1.65.6-2.15c-.3-.23-.87-.63-1.7-1.2-.68-.52-1.22-.93-1.62-1.22.07-.06.14-.11.19-.15-.06.04-.12.08-.19.14-.01-.01-.02-.01-.03-.02-.03.02-.05.05-.08.07-.05.04-.1.09-.16.14h-.01c-.04.03-.07.06-.11.09-.02.02-.04.04-.06.04-.1.08-.22.17-.35.27-.04.04-.08.07-.13.1-.12.09-.26.19-.4.29h-.01c-.31.23-.68.5-1.09.8-.47.33-.87.63-1.2.9-.05.04-.1.07-.14.12-.08.05-.15.11-.22.18h-.01c-.29.23-.55.47-.78.7l-.27.3c-.02.02-.04.05-.06.07-.02.03-.05.05-.07.08-.23.27-.45.55-.65.85z"/></svg>