<svg xmlns="http://www.w3.org/2000/svg" width="40" height="40"><g fill="#4B874B"><path d="M11.62 32.48c-.58.09-1.15.19-1.73.3-.08.01-.16.03-.24.04V31.8c0-.3.02-.6.05-.9s.08-.58.15-.85c.07-.3.13-.58.2-.85.07-.23.15-.48.25-.75.1-.23.2-.47.3-.7s.22-.47.35-.7.27-.45.4-.65c-.03.3-.08.57-.15.8-.03.27-.07.52-.1.75-.03.27-.05.53-.05.8-.03.27-.05.52-.05.75v.75c.03.27.07.53.1.8.03.23.07.47.1.7.07.27.15.52.25.75.06-.01.12-.02.17-.02z"/><path d="M9.65 32.8v.02l-1.5.27-.3.06c.03-.37.05-.73.05-1.1 0-.4-.02-.78-.05-1.15 0-.4-.02-.8-.05-1.2-.03-.37-.07-.77-.1-1.2-.03-.37-.08-.77-.15-1.2-.03-.37-.08-.77-.15-1.2-.03-.37-.08-.77-.15-1.2-.07-.37-.13-.78-.2-1.25.17.4.32.73.45 1 .13.4.27.75.4 1.05.13.37.27.73.4 1.1s.25.73.35 1.1c.13.37.23.73.3 1.1.13.4.23.8.3 1.2.1.43.17.87.2 1.3.07.43.13.87.2 1.3zm-2.3-.3.3.69c-.07.01-.15.03-.22.05l.01.01c-.2.04-.39.07-.59.11-.07.01-.67.13-.71.14 0-.03-.01-.08-.03-.15a3.13 3.13 0 0 0-.06-.3 8.65 8.65 0 0 1-.15-.55c-.03-.2-.08-.4-.15-.6-.03-.2-.08-.38-.15-.55-.07-.2-.12-.4-.15-.6-.07-.2-.15-.4-.25-.6-.07-.2-.13-.4-.2-.6l-.3-.6c.13.13.28.27.45.4l.4.4a5.055 5.055 0 0 1 .75.95c.13.2.27.38.4.55.1.2.22.4.35.6.1.2.2.42.3.65z"/></g><path fill="#465A46" d="m4.05 27.807-.7-.2c.067.167.15.333.25.5l.2.6c.1.2.183.4.25.6.067.233.133.45.2.65l.2.7c.067.2.133.417.2.65.033.2.083.417.15.65.033.167.083.367.15.6l-.024.007v.382c.02.092.039.184.07.273.064.182.134.371.153.566l.101-.028c.367-.067.667-.133.9-.2l-.008-.049a11.67 11.67 0 0 0-.092-.452 16.372 16.372 0 0 1-.15-.55c-.033-.2-.083-.4-.15-.6a2.617 2.617 0 0 0-.15-.55c-.067-.2-.117-.4-.15-.6-.067-.2-.15-.4-.25-.6l-.2-.6-.3-.6c.133.133.283.267.45.4l.4.4s.267.283.4.45.25.333.35.5c.133.2.267.383.4.55.1.2.217.4.35.6.1.2.2.417.3.65l.3.7.2-.05a12.84 12.84 0 0 0 0-2.25c0-.4-.017-.8-.05-1.2a88.036 88.036 0 0 1-.1-1.2 19.049 19.049 0 0 0-.15-1.2 19.049 19.049 0 0 0-.15-1.2 19.049 19.049 0 0 0-.15-1.2 33.697 33.697 0 0 1-.199-1.248v-.001c.167.4.317.733.45 1 .133.4.267.75.4 1.05l.4 1.1c.133.367.25.733.35 1.1.133.367.233.733.3 1.1.133.4.233.8.3 1.2.1.433.167.867.2 1.3l.2 1.297v-.998c0-.3.017-.6.05-.9s.083-.583.15-.85c.067-.3.133-.583.2-.85.067-.233.15-.483.25-.75l.3-.7c.1-.233.217-.467.35-.7s.267-.45.4-.65v.002l.001-.001a4.82 4.82 0 0 1-.15.8c-.033.267-.067.517-.1.75-.033.267-.05.533-.05.8a6.14 6.14 0 0 0-.05.75v.75l.1.8.1.7c.067.267.15.516.25.75.327-.06.636-.101.937-.134a3.384 3.384 0 0 0-.14-.631 1.586 1.586 0 0 1-.089-.486l-.008.001-.1-.8c-.033-.267-.067-.55-.1-.85v-1.75c0-.267.017-.55.05-.85 0-.267.017-.533.05-.8s.067-.517.1-.75l.1-.699-.299.15c-.1.033-.2.083-.3.15l-.3.2c-.133.1-.25.2-.35.3-.133.1-.267.233-.4.4-.133.133-.25.3-.35.5-.133.2-.267.433-.4.7-.1.267-.217.55-.35.85v-.001c-.1-.367-.2-.717-.3-1.05l-.3-1.1-.4-1a6.856 6.856 0 0 0-.45-1c-.133-.3-.283-.583-.45-.85s-.333-.517-.5-.75a4.23 4.23 0 0 0-.55-.55c-.167-.167-.35-.3-.55-.4.333 2.133.65 5.017.95 8.65a13.53 13.53 0 0 0-.35-.4l-.35-.35c-.1-.133-.217-.25-.35-.35a1.002 1.002 0 0 0-.35-.3 1.335 1.335 0 0 0-.45-.3c-.133-.1-.3-.183-.5-.25a1.58 1.58 0 0 0-.553-.2z"/><path fill="#83764A" d="m33.998 32.275-.009.003c.069.422.102.851.147 1.277-.403-.074-.807-.148-1.21-.219l-.26-.045c-.072-.016-.152-.032-.216-.048.133.033.283.067.45.1.133.033.283.067.45.1.133.033.267.05.4.05l.4.1c.1.033.217.067.35.1s.25.067.35.1.217.067.35.1c.1 0 .2.017.3.05l.6.2c.2.067.383.15.55.25.2.1.383.2.55.3.167.133.317.25.45.35.167.133.3.267.4.4.1.167.2.317.3.45l.2.5c.033.167.05.333.05.5s-.033.333-.1.5c-.033.133-.1.267-.2.4-.1.1-.217.183-.35.25-.133.1-.283.183-.45.25-.133.033-.3.067-.5.1-.133.033-.3.05-.5.05H36s-.333-.017-.5-.05a25.317 25.317 0 0 0-1.35-.2 42.123 42.123 0 0 1-1.65-.35c-.9-.167-1.533-.283-1.9-.35-.767-.133-1.467-.25-2.1-.35a95.717 95.717 0 0 0-2.15-.35c-.767-.1-1.5-.2-2.2-.3-.767-.067-1.483-.133-2.15-.2-.7-.033-1.367-.05-2-.05s-1.3.017-2 .05c-.667.067-1.383.133-2.15.2-.7.1-1.433.2-2.2.3-.667.1-1.383.217-2.15.35-.633.1-1.333.217-2.1.35-.4.1-1.033.217-1.9.35-.733.167-1.283.283-1.65.35-.533.1-.983.167-1.35.2a2.57 2.57 0 0 1-.5.05h-.5c-.2 0-.383-.017-.55-.05s-.317-.067-.45-.1a5.843 5.843 0 0 1-.45-.2c-.133-.1-.25-.2-.35-.3a1.121 1.121 0 0 1-.2-.4c-.067-.133-.1-.3-.1-.5 0-.167.017-.333.05-.5l.2-.5c.1-.133.2-.283.3-.45l.4-.4c.133-.1.283-.217.45-.35.167-.1.35-.2.55-.3.167-.067.35-.15.55-.25l.6-.2c.031 0 .253-.059.649-.172-.019-.195-.089-.383-.153-.566-.031-.089-.05-.181-.07-.273v-.382a.168.168 0 0 0 .024-.007c-.667.167-1.2.333-1.6.5-.2.067-.417.15-.65.25l-.6.4c-.2.133-.383.3-.55.5-.2.167-.383.35-.55.55l-.4.6c-.133.233-.233.45-.3.65-.1.233-.183.467-.25.7-.033.234-.05.468-.05.701s.033.45.1.65c.033.167.117.333.25.5.1.133.217.267.35.4.133.1.283.2.45.3s.35.183.55.25c.167.033.35.083.55.15.167.033.35.05.55.05.2.033.383.05.55.05.933 0 3.433-.4 7.5-1.2 4.067-.767 7.117-1.15 9.15-1.15s5.083.383 9.15 1.15c4.1.8 6.6 1.2 7.5 1.2a3.4 3.4 0 0 0 .55-.05c.167 0 .35-.033.55-.1.2-.033.383-.067.55-.1.2-.067.383-.15.55-.25s.317-.2.45-.3c.133-.133.25-.267.35-.4.133-.167.217-.333.25-.5.067-.2.1-.417.1-.65s-.017-.467-.05-.7a5.931 5.931 0 0 0-.25-.7 3.701 3.701 0 0 0-.3-.65l-.4-.6a4.33 4.33 0 0 0-.55-.55c-.167-.2-.35-.367-.55-.5l-.6-.4c-.233-.1-.45-.183-.65-.25-.633-.233-1.517-.483-2.65-.75m-8.17-.482v-.016c.044-.264.082-.528.013-.789h.007c-.267 0-.533-.017-.8-.05a8.972 8.972 0 0 0-.753-.066c-.238-.029-.48-.051-.747-.084a7.132 7.132 0 0 0-.694-.04c-.285-.013-.419-.018-.679-.031-.228-.005-.545-.029-.778-.029h-2.3c-.3 0-.617.017-.95.05h-.95l-1 .1c-.333.033-.667.05-1 .05-.333.033-.683.067-1.05.1-.333.033-.667.083-1 .15l-.992.099c.001.167.039.327.089.486a3.536 3.536 0 0 1 .14.631c.036-.004.077-.013.113-.016.4-.067.767-.133 1.1-.2.367-.033.733-.083 1.1-.15l1.1-.1 1.1-.1c.367-.033.717-.05 1.05-.05.367-.033.717-.05 1.05-.05.333-.033.667-.05 1-.05h.85c.3.033.6.05.9.05.3.033.6.05.9.05.3.033.617.067.95.1.3.033.617.067.95.1.3.033.617.067.95.1l.699.074-.327-.057c-.007-.092-.031-.174-.041-.262z"/><g fill-rule="evenodd" clip-rule="evenodd"><path fill="#BBA96B" d="m38.549 36.394-.2-.5c-.1-.133-.2-.283-.3-.45a2.252 2.252 0 0 0-.4-.4c-.133-.1-.283-.217-.45-.35-.167-.1-.35-.2-.55-.3-.167-.1-.35-.183-.55-.25l-.6-.2a.953.953 0 0 0-.3-.05c-.133-.033-.25-.067-.35-.1s-.217-.067-.35-.1-.25-.067-.35-.1l-.4-.1a1.66 1.66 0 0 1-.4-.05 9.577 9.577 0 0 1-.45-.1c-.096-.019-.173-.038-.258-.057l-.334-.057v-.003a2.125 2.125 0 0 0-.21-.047 143.855 143.855 0 0 0-2.248-.412 169.99 169.99 0 0 0-1.427-.246l-1.029-.188c-.085-.015-.626-.116-1.179-.215-.245-.025-.489-.05-.715-.075a87.99 87.99 0 0 1-.95-.1 87.99 87.99 0 0 1-.95-.1 87.99 87.99 0 0 1-.95-.1c-.3 0-.6-.017-.9-.05-.3 0-.6-.017-.9-.05h-.85c-.333 0-.667.017-1 .05-.333 0-.683.017-1.05.05-.333 0-.683.017-1.05.05l-1.1.1-1.1.1c-.367.067-.733.117-1.1.15-.333.067-.7.133-1.1.2-.333.033-.683.083-1.05.15.172-.031.33-.048.493-.07l-.308.047c-.581.096-1.162.197-1.742.3s-1.161.205-1.74.314l-.303.057v.002l-.107.022-.093.028-.004-.01c-.07.014-.141.027-.211.045l.002.018c-.195.035-.39.069-.585.106-.068.013-.67.13-.71.143l.008.049a9.642 9.642 0 0 1-.9.2c-.467.133-.717.2-.75.2l-.6.2c-.2.1-.383.183-.55.25-.2.1-.383.2-.55.3-.167.133-.317.25-.45.35l-.4.4c-.1.167-.2.317-.3.45l-.2.5a2.57 2.57 0 0 0-.05.5c0 .2.033.367.1.5.033.133.1.267.2.4.1.1.217.2.35.3.133.067.283.133.45.2.133.033.283.067.45.1s.35.05.55.05h.5s.333-.017.5-.05c.367-.033.817-.1 1.35-.2.367-.067.917-.183 1.65-.35.867-.134 1.5-.251 1.9-.351.767-.133 1.467-.25 2.1-.35.767-.133 1.483-.25 2.15-.35.767-.1 1.5-.2 2.2-.3.767-.067 1.483-.133 2.15-.2.7-.033 1.367-.05 2-.05s1.3.017 2 .05c.667.067 1.383.133 2.15.2.7.1 1.433.2 2.2.3.667.1 1.383.217 2.15.35.633.1 1.333.217 2.1.35.367.067 1 .183 1.9.35.733.167 1.283.283 1.65.35.533.067.983.133 1.35.2.167.033.333.05.5.05h.5c.2 0 .367-.017.5-.05.2-.033.367-.067.5-.1.167-.067.317-.15.45-.25.133-.067.25-.15.35-.25.1-.133.167-.267.2-.4.067-.167.1-.333.1-.5s-.017-.333-.05-.5z"/><path fill="#614935" d="M32.452 33.26s-.001 0 0 0a20.15 20.15 0 0 0-.151-1.4 16.382 16.382 0 0 0-.15-1.35c-.067-.5-.133-.983-.2-1.45s-.15-.933-.25-1.4c-.067-.5-.15-1-.25-1.5-.1-.467-.2-.95-.3-1.45-.133-.5-.25-.983-.35-1.45l-.016-.062c-.124-.458-.265-.911-.367-1.374l-.017-.064.001-.001c-.12-.567-2.38-6.677-4.16-10.501a1.686 1.686 0 0 1-.138-.586c-1.276.006-2.558.403-3.84.405.279.394.55.8.813 1.219.267.425.525.862.775 1.312a26.9 26.9 0 0 1 1.25 2.65c.333.867.65 1.783.95 2.75.233.867.45 1.767.65 2.7.167.9.3 1.817.4 2.75.1.867.183 1.767.25 2.7v.003c.033.833.067 1.717.1 2.65 0 .8-.017 1.633-.05 2.5a7.965 7.965 0 0 1-.95-.15 16.922 16.922 0 0 1-.235-.025c.553.099 1.094.2 1.179.215l1.029.188a171.331 171.331 0 0 1 3.167.56c.17.031.339.063.508.098.071.012.141.028.21.047v.003l.334.057c-.063-.014-.135-.029-.192-.043v-.001z"/><path fill="#4B874B" d="M36.101 11.81c-.1-.467-.25-.917-.45-1.35s-.45-.85-.75-1.25a6.423 6.423 0 0 0-.999-1.149 8.696 8.696 0 0 0-1.2-1c-.467-.3-.95-.567-1.45-.8s-1.033-.433-1.6-.6c-.2-.067-.4-.117-.6-.15l-.6-.1-.6-.1c-.2 0-.4-.017-.6-.05h-.6c-.2 0-.383.017-.55.05-.2 0-.4.017-.6.05-.167.033-.35.067-.55.1l.003-.002-.004.001.002-.001h-.002a.57.57 0 0 0 .15-.1l.7-.5c.233-.167.467-.317.7-.45l.7-.4c.233-.1.467-.217.7-.35.233-.1.45-.183.65-.25.233-.1.467-.183.7-.25.2-.033.4-.083.6-.15l.599-.1a3.035 3.035 0 0 0-.648-.648 3.23 3.23 0 0 0-.8-.5 3.605 3.605 0 0 0-.9-.3 87.99 87.99 0 0 0-.95-.1 5.85 5.85 0 0 0-1.05.1c-.333.067-.667.15-1 .25a9.75 9.75 0 0 0-1.05.45c-.333.2-.65.417-.95.65l-.2.2c-.1.067-.183.133-.25.2l-.2.2c-.067.067-.133.15-.2.25l-.2.2c-.067.067-.133.15-.2.25a.768.768 0 0 1-.15.2c-.067.1-.117.183-.15.25a.622.622 0 0 0-.25-.15.622.622 0 0 0-.25-.15.622.622 0 0 0-.25-.15 1.96 1.96 0 0 0-.25-.1c-.1-.067-.2-.117-.3-.15-.067-.033-.15-.067-.25-.1s-.2-.05-.3-.05l-.3-.1a6.35 6.35 0 0 0-1.15-.2c-.367-.033-.733-.033-1.1 0s-.717.083-1.05.15c-.333.1-.65.217-.95.35s-.583.3-.85.5-.5.4-.7.6c-.2.233-.367.5-.5.8a2.693 2.693 0 0 0-.349.847c.167-.067.349-.117.549-.15.233-.033.45-.067.65-.1.233-.033.467-.05.7-.05.233-.033.483-.05.75-.05s.517.017.75.05c.267 0 .533.017.8.05.3.033.583.067.85.1l.8.2c.1.033.167.05.2.05l-.002.001h.002-.002l.003.001c-.167.033-.35.083-.55.15-.167.033-.35.083-.55.15-.167.067-.35.133-.55.2-.167.1-.333.183-.5.25-.2.1-.383.2-.55.3l-.5.3c-.167.133-.333.25-.5.35l-.5.4a8.585 8.585 0 0 0-1.25 1.2c-.367.4-.7.833-1 1.3-.267.467-.5.933-.7 1.4-.2.5-.35.983-.45 1.45-.1.5-.15.983-.15 1.45a6.82 6.82 0 0 0 .149 1.397c.1.433.233.867.4 1.3.2.4.45.783.75 1.15.1-.233.217-.482.349-.749.1-.267.233-.533.4-.8a9.48 9.48 0 0 1 .45-.8v-.001c.2-.267.383-.55.55-.85.2-.267.417-.533.65-.8.233-.3.467-.583.7-.85s.483-.533.75-.8.55-.533.85-.8l-.001.004.002-.001-.1.3-.1.3c-.033.133-.067.25-.1.35 0 .1-.017.2-.05.3-.033.133-.05.25-.05.35-.033.133-.05.25-.05.35s-.017.217-.05.35v.35a14.591 14.591 0 0 0 0 1.699c.067.566.167 1.099.3 1.599.167.533.35 1.033.55 1.5.233.467.483.9.75 1.3.3.4.617.767.95 1.1.367.333.75.617 1.15.85a5.95 5.95 0 0 0 2.599.8 8.609 8.609 0 0 1-.399-.799l-.3-.9-.3-1c-.1-.367-.183-.733-.25-1.1s-.117-.733-.15-1.1a14.456 14.456 0 0 1-.2-2.45c0-.4.017-.817.05-1.25 0-.2.017-.417.05-.65a4 4 0 0 0 .05-.65c.033-.2.067-.417.1-.65l.1-.6c.067-.2.117-.4.15-.6s.083-.4.15-.6.117-.4.15-.6c.067-.2.133-.383.2-.55v-.001l.012.018c1.276-.002 2.558-.399 3.84-.405l-.002-.028.016.027.015-.001-.015.001c.043.071.312.518.461.75.836 1.298 2.062 4.18 2.44 5.207.374 1.015 1.838 4.255 1.881 4.315.016-.03.035-.052.05-.083.167-.3.317-.633.45-1 .1-.333.183-.7.25-1.1.067-.367.117-.75.15-1.15 0-.4-.017-.8-.05-1.2-.033-.433-.1-.85-.2-1.25s-.217-.817-.35-1.25c-.167-.4-.35-.8-.55-1.2-.067-.1-.117-.2-.15-.3l-.2-.3c-.067-.1-.117-.2-.15-.3l-.2-.3c-.067-.067-.132-.149-.199-.249s-.133-.183-.2-.25a.902.902 0 0 0-.25-.25 1.655 1.655 0 0 0-.2-.25l-.001-.001.002.001-.001-.002c.367.1.733.217 1.1.35.333.133.683.283 1.05.45.3.167.617.333.95.5l.9.5c.3.167.583.35.85.55.267.167.517.35.75.55.267.167.5.35.7.55.2.167.4.35.6.55.133-.433.2-.882.2-1.349a4.54 4.54 0 0 0-.1-1.349z"/></g><path fill="#423123" d="m33.999 32.298-.098-1.181c-.067-.433-.133-.85-.2-1.25-.033-.433-.083-.85-.15-1.25-.067-.433-.15-.867-.25-1.3-.067-.433-.15-.867-.25-1.3-.067-.433-.15-.867-.25-1.3l-.3-1.3c-.128-.418-.25-.897-.348-1.316-.017.021-.056.047-.074.067-.022.025-.05.05-.073.073a.966.966 0 0 1-.148.125c-.054.037-.106.056-.168.086a1.448 1.448 0 0 1-.209.084c-.139.043-.233.076-.41.116-.138.031-.281.049-.415.093.047.165.102.355.146.52.1.467.217.95.35 1.45.1.5.2.983.3 1.45.1.5.183 1 .25 1.5.1.467.183.933.25 1.4s.133.95.2 1.45c.067.433.117.883.15 1.35.067.467.117.933.15 1.4.064.016.145.032.216.048l.26.045c.404.071.807.145 1.21.219-.045-.426-.078-.855-.147-1.277l.008-.002z"/><path fill="#465A46" d="M32.154 22.11c.166-.365.331-.763.497-1.193a8.89 8.89 0 0 0 .3-1.35c.1-.433.167-.883.2-1.35v-1.3a13.76 13.76 0 0 0-.15-1.3c-.1-.4-.2-.783-.3-1.15a6.856 6.856 0 0 0-.45-1c-.2-.3-.4-.567-.6-.8a.57.57 0 0 0 .15.1c.133.1.283.183.45.25.2.167.417.317.65.45.267.167.517.333.75.5.3.233.583.45.85.65.3.233.583.467.85.7s.517.467.75.7c.233.267.433.517.6.75.133-.467.25-.933.35-1.4.067-.533.117-1.033.15-1.5l-.049-1.551a8.05 8.05 0 0 0-.35-1.55 7.571 7.571 0 0 0-.65-1.5 5.431 5.431 0 0 0-.463-.762 5.758 5.758 0 0 0-.587-.688c-.4-.5-.883-.95-1.45-1.35a12.214 12.214 0 0 0-1.95-1.2c-.333-.167-.917-.35-1.75-.55-.733-.167-1.167-.25-1.3-.25a.393.393 0 0 0 .15-.05l.3-.1a1.75 1.75 0 0 1 .45-.15c.167-.067.333-.117.5-.15l.6-.2c.233-.067.45-.117.65-.15.233-.067.45-.117.65-.15.233-.033.45-.067.65-.1-.1-.2-.212-.396-.337-.587a6.533 6.533 0 0 0-.413-.563c-.3-.3-.633-.583-1-.85s-.767-.483-1.2-.65a6.41 6.41 0 0 0-1.35-.45 19.554 19.554 0 0 0-1.4-.15c-.467 0-.933.05-1.4.15a6.274 6.274 0 0 0-1.3.35c-.433.2-.817.433-1.15.7l-.25.25-.3.2c-.067.1-.133.183-.2.25l-.25.25c-.067.067-.133.15-.2.25l-.25.25c-.067.1-.117.2-.15.3-.067.067-.133.15-.2.25a1.655 1.655 0 0 1-.25-.2.622.622 0 0 1-.25-.15 1.96 1.96 0 0 1-.25-.1.622.622 0 0 1-.25-.15 1.96 1.96 0 0 1-.25-.1l-.3-.1c-.067 0-.167-.017-.3-.05l-.3-.1a8.724 8.724 0 0 0-1.35-.2c-.467 0-.917.05-1.35.15a6.175 6.175 0 0 0-1.35.35c-.433.2-.833.417-1.2.65-.4.267-.767.567-1.1.9-.3.333-.567.7-.8 1.1s-.417.817-.55 1.25c-.133.467-.2.95-.2 1.45.2-.067.4-.117.6-.15.167-.067.35-.117.55-.15l.5-.1c.133-.033.283-.067.45-.1a1.66 1.66 0 0 1 .4-.05 1.66 1.66 0 0 1 .4-.05c.1-.033.217-.05.35-.05.1-.033.2-.05.3-.05-.1.033-.2.083-.3.15l-.3.1a.768.768 0 0 1-.2.15l-.2.1-.25.25c-.033 0-.067.017-.1.05l-.1.1c-.5.467-.95.967-1.35 1.5-.433.533-.8 1.083-1.1 1.65a13.153 13.153 0 0 0-.75 1.8 7.605 7.605 0 0 0-.35 1.9 8.537 8.537 0 0 0 0 1.85c.1.633.267 1.233.5 1.8a6.32 6.32 0 0 0 1 1.7c.4.567.9 1.067 1.5 1.5.067-.3.133-.567.2-.8.067-.267.133-.5.2-.7.1-.2.183-.4.25-.6.067-.167.15-.35.25-.55l.3-.6c.133-.2.267-.417.4-.65s.3-.5.5-.8c.05-.083.129-.208.238-.375.108-.167.246-.375.412-.625l-.1.2c0 .1-.017.2-.05.3v1.65c.033.067.05.133.05.2.1.5.217.967.35 1.4.133.5.283.967.45 1.4.2.467.433.9.7 1.3.267.433.567.833.9 1.2.367.367.783.7 1.25 1s.967.533 1.5.7c.6.2 1.233.35 1.9.45.366.033.746.054 1.138.062s.796.004 1.212-.012c-.167-.367-.3-.65-.4-.85-.133-.3-.267-.583-.4-.85s-.25-.533-.35-.8c-.1-.3-.2-.583-.3-.85l-.3-.9a59.83 59.83 0 0 1-.4-2 155.3 155.3 0 0 1-.1-1.15v-.6a2.838 2.838 0 0 1-.05-.55v-1.65a2.57 2.57 0 0 0 .05-.5 2.57 2.57 0 0 0 .05-.5l.073-.363c-.145-.323-.274-2.524-.387-3.432l-.036-.055c-.067.167-.133.35-.2.55-.033.2-.083.4-.15.6s-.117.4-.15.6-.083.4-.15.6l-.1.6c-.033.233-.067.45-.1.65a4 4 0 0 1-.05.65c-.033.233-.05.45-.05.65-.033.433-.05.85-.05 1.25a14.456 14.456 0 0 0 .2 2.45c.033.367.083.733.15 1.1s.15.733.25 1.1l.3 1 .3.9c.133.3.267.567.4.8a6.217 6.217 0 0 1-1.35-.25c-.433-.133-.85-.317-1.25-.55s-.783-.517-1.15-.85c-.333-.333-.65-.7-.95-1.1-.267-.4-.517-.833-.75-1.3-.2-.467-.383-.967-.55-1.5-.133-.5-.233-1.033-.3-1.6a14.608 14.608 0 0 1 0-1.7v-.35c.033-.133.05-.25.05-.35s.017-.217.05-.35c0-.1.017-.217.05-.35.033-.1.05-.2.05-.3.033-.1.067-.217.1-.35l.1-.3.1-.3c-.3.267-.583.533-.85.8s-.517.533-.75.8-.467.55-.7.85c-.233.267-.45.533-.65.8-.167.3-.35.583-.55.85a9.48 9.48 0 0 0-.45.8c-.167.267-.3.533-.4.8-.133.267-.25.517-.35.75a6.19 6.19 0 0 1-.75-1.15 9.64 9.64 0 0 1-.4-1.3c-.1-.467-.15-.933-.15-1.4s.05-.95.15-1.45c.05-.234.112-.471.188-.713s.162-.487.262-.737c.2-.467.433-.933.7-1.4.3-.467.633-.9 1-1.3a8.585 8.585 0 0 1 1.25-1.2l.5-.4c.167-.1.333-.217.5-.35l.5-.3c.167-.1.35-.2.55-.3.167-.067.333-.15.5-.25.2-.067.383-.133.55-.2.2-.067.383-.117.55-.15.2-.067.383-.117.55-.15a.839.839 0 0 1-.2-.05l-.8-.2c-.267-.033-.55-.067-.85-.1a6.509 6.509 0 0 0-.8-.05c-.233-.033-.483-.05-.75-.05s-.517.017-.75.05c-.233 0-.467.017-.7.05-.2.033-.417.067-.65.1-.2.033-.383.083-.55.15.067-.3.183-.583.35-.85.133-.3.3-.567.5-.8.2-.2.433-.4.7-.6s.55-.367.85-.5.617-.25.95-.35c.333-.067.683-.117 1.05-.15s.733-.033 1.1 0c.4.033.783.1 1.15.2l.3.1c.1 0 .2.017.3.05s.183.067.25.1c.1.033.2.083.3.15.1.033.183.067.25.1.1.033.183.083.25.15.1.033.183.083.25.15.1.033.183.083.25.15.033-.067.083-.15.15-.25a.768.768 0 0 0 .15-.2c.067-.1.133-.183.2-.25l.2-.2c.067-.1.133-.183.2-.25l.2-.2c.067-.067.15-.133.25-.2l.2-.2c.3-.233.617-.45.95-.65a9.75 9.75 0 0 1 1.05-.45c.333-.1.667-.183 1-.25a5.85 5.85 0 0 1 1.05-.1c.333.033.65.067.95.1.333.067.633.167.9.3.3.133.567.3.8.5.233.167.45.383.65.65l-.6.1c-.2.067-.4.117-.6.15-.233.067-.467.15-.7.25-.2.067-.417.15-.65.25-.233.133-.467.25-.7.35l-.7.4a8.074 8.074 0 0 0-.7.45l-.7.5a.57.57 0 0 1-.15.1c.2-.033.383-.067.55-.1.2-.033.4-.05.6-.05.167-.033.35-.05.55-.05h.6c.2.033.4.05.6.05l.6.1.6.1c.2.033.4.083.6.15.567.167 1.1.367 1.6.6s.983.5 1.45.8c.433.3.833.633 1.2 1 .2.183.383.371.55.563s.317.387.45.587a7.06 7.06 0 0 1 .75 1.25 6.367 6.367 0 0 1 .45 1.35c.1.433.133.883.1 1.35 0 .467-.067.917-.2 1.35-.2-.2-.4-.383-.6-.55-.2-.2-.433-.383-.7-.55a6.18 6.18 0 0 0-.75-.55c-.267-.2-.55-.383-.85-.55l-.9-.5c-.333-.167-.65-.333-.95-.5a24.342 24.342 0 0 0-1.05-.45 14.13 14.13 0 0 0-1.1-.35c.067.067.133.15.2.25.1.067.183.15.25.25.067.067.133.15.2.25s.133.183.2.25l.2.3c.033.1.083.2.15.3l.2.3c.033.1.083.2.15.3.2.4.383.8.55 1.2.133.433.25.85.35 1.25s.167.817.2 1.25c.033.4.05.8.05 1.2-.033.4-.083.783-.15 1.15-.067.4-.15.767-.25 1.1-.133.367-.283.7-.45 1-.053.106.009-.009-.048.09-.009.016-1.506-3.295-1.884-4.322s-1.604-3.908-2.44-5.207c-.162-.251-.477-.777-.477-.777s.009.332.14.614c1.78 3.824 4.04 9.934 4.16 10.501.07.33.161.655.254.98.123-.033.248-.057.373-.083.142-.03.282-.07.42-.114.13-.042.261-.086.377-.16a.771.771 0 0 0 .082-.059c.025-.021.057-.044.079-.068s.045-.038.066-.062"/><path fill="#423123" d="M27.351 27.165a62.92 62.92 0 0 0-.25-2.7c-.1-.933-.233-1.85-.4-2.75-.2-.933-.417-1.833-.65-2.7-.3-.967-.617-1.883-.95-2.75a26.815 26.815 0 0 0-1.25-2.65c-.25-.45-.508-.887-.775-1.312a28.22 28.22 0 0 0-.789-1.182c.113.922.23 3.06.387 3.432l.027-.137c.3.667.6 1.35.9 2.05.267.7.5 1.4.7 2.1.233.7.433 1.417.6 2.15.133.667.267 1.367.4 2.1l.3 2.1c.067.667.117 1.367.15 2.1l.1 2v2h-.007c.069.262.031.525-.013.789v.016c.01.089.034.17.041.261l.327.057c.086.009.163.018.251.026.3.067.617.117.95.15.033-.867.05-1.7.05-2.5a323.61 323.61 0 0 0-.05-1.363l-.049-1.287z"/></svg>