<svg xmlns="http://www.w3.org/2000/svg" width="40" height="40"><g fill-rule="evenodd"><path fill="#5a3c3c" d="M10.1 11.2q-.15-.2-.35-.45-.15-.2-.4-.4-.2-.2-.45-.4-.25-.15-.5-.35t-.55-.35q-.3-.2-.6-.35-.3-.2-.65-.35-.3-.2-.65-.35.2-.6.55-1.25t.8-1.3 1-1.3q.5-.65 1.1-1.2.6-.6 1.2-1.1.65-.55 1.3-.95t1.25-.7Q13.8.1 14.4 0q-.15 2.8-.15 3.6l5.6 1.45 5.9-1.5q0-1-.15-3.45.6.1 1.25.4.6.3 1.25.7t1.3.95q.6.5 1.2 1.1.6.55 1.1 1.2.55.65 1 1.3.4.65.75 1.3t.6 1.25q-.35.15-.65.35-.35.15-.6.3-.35.2-.6.35-.3.2-.55.4-.3.15-.5.35l-.5.4q-.2.15-.4.35-.15.25-.3.45.1.15.15.35.05.15.15.35.05.2.15.35l.1.4q.05.2.15.35l.1.4.1.4.1.4q.2-.15.45-.4l.45-.45q.2-.25.45-.55.2-.3.45-.65.2-.3.45-.7.25-.35.5-.75.2-.35.45-.75.25-.35.5-.8.65 1.45 1.1 3 .45 1.5.7 3.1t.3 3.15q.05 1.6-.1 3.1-.2 1.5-.6 2.9T35 27.05t-1.55 2.15q-.95 1-2.1 1.65-.15 1.05-.4 1.95-.3.95-.65 1.75-.35.85-.85 1.55-.55.75-1.15 1.35-.7.6-1.5 1.05-.85.45-1.85.8-1.05.3-2.25.45-1.25.2-2.7.2t-2.7-.15q-1.25-.2-2.3-.5-1-.35-1.85-.8-.8-.5-1.45-1.1t-1.15-1.35q-.5-.7-.85-1.55-.4-.8-.65-1.75-.25-.9-.4-2-1.15-.65-2.1-1.65-.9-.95-1.55-2.2-.65-1.15-1.05-2.6-.4-1.35-.6-2.85-.15-1.5-.1-3.1.05-1.55.3-3.15t.7-3.15 1.1-2.95q.25.45.5.8.25.45.45.8.25.4.5.75t.45.7q.25.35.5.6.2.3.45.6.2.25.45.45l.4.4.1-.4.1-.4q.1-.2.15-.4t.1-.4q.1-.15.15-.35t.15-.35.15-.35.15-.35m16.3-2.8q.15-.2.3-.45t.25-.55q.1-.25.2-.55t.2-.65q.05-.35.15-.7.05-.35.05-.75l.1-.8v-.9q.3.2.55.45l.6.5q.25.25.5.55.25.25.5.55t.45.6q.25.35.45.7.25.3.45.7.2.35.4.75-.25.1-.55.2l-.5.3q-.25.2-.45.4-.25.2-.45.45-.25.25-.45.55t-.4.65-.35.7q-.2.4-.35.8.15.3.25.6.15.25.25.6l.2.6q.1.35.2.65.1.35.15.7.1.35.15.7.1.35.15.7t.1.75q.35-.05.65-.15.35-.15.65-.3.35-.15.65-.35t.55-.45q.3-.25.55-.55.3-.3.55-.65t.5-.7q.25-.4.45-.8l.3 1.2q.15.6.25 1.2t.2 1.15l.1 1.1q.05.5.05 1.05 0 .5-.05 1t-.1.95q-.1.5-.2.95-.2-.65-.4-1.2t-.45-.95q-.2-.4-.5-.7-.25-.3-.55-.5-.3-.15-.6-.2-.35-.05-.7 0-.35.1-.75.3-.35.25-.8.6l-.05 1.9v1.5q.05 2.15-.05 3.9.3-.05.65-.1l.6-.2q.3-.1.6-.25t.6-.3.55-.35.55-.35q.3-.2.55-.45.25-.2.55-.45-.2.55-.45 1-.25.5-.5.95t-.5.85l-.6.8q-.3.35-.65.7l-.7.6q-.35.3-.75.5-.35.25-.8.45-.1.75-.25 1.35-.15.7-.35 1.3t-.45 1.15q-.3.6-.6 1.05-.35.5-.75.95-.4.4-.9.75-.5.4-1.1.65-.6.3-1.3.5.55-.4 1-.9.4-.55.7-1.2.35-.6.55-1.4.25-.7.4-1.6.1-.8.2-1.75.1-.9.15-1.95.05-.9.05-2.05V24.6q0-1.5-.05-2.85-.1-1.4-.25-2.6-.15-1.3-.4-2.4-.25-1.15-.6-2.05-.4-1-.9-1.75-.55-.75-1.2-1.25-.7-.55-1.5-.85-.9-.3-1.9-.3t-1.9.3q-.8.25-1.5.8-.65.55-1.2 1.3-.5.75-.9 1.75-.35.9-.6 2.05-.25 1.1-.4 2.4-.15 1.2-.25 2.6-.05 1.35-.05 2.85v2.15q0 1.15.05 2.05.05 1.05.15 1.95.1.95.2 1.75.15.9.4 1.6.2.8.55 1.4.3.65.75 1.2.4.5.95.9-.7-.2-1.3-.5t-1.1-.65-.95-.8q-.4-.4-.75-.95-.3-.5-.6-1.05-.25-.55-.45-1.2-.2-.6-.35-1.3-.15-.65-.25-1.4-.4-.2-.75-.45t-.7-.5q-.3-.3-.65-.6-.3-.35-.55-.7-.3-.35-.6-.75l-.5-.8q-.2-.45-.45-.9l-.4-1q.25.25.5.4.25.25.5.4l.5.4q.3.15.55.35.3.15.55.25.3.15.55.25.3.15.6.2.3.1.6.15-.05-1.35-.05-3.85v-1.8q0-.2.05-.45v-.85q.05-.2.05-.4-.4-.35-.8-.55-.35-.2-.7-.25t-.65 0q-.35.05-.6.25-.3.15-.55.45-.3.3-.5.75-.25.4-.45.9-.2.55-.4 1.2-.1-.45-.15-.95-.1-.45-.1-.95-.05-.5-.05-1 0-.55.05-1.05 0-.55.1-1.1.05-.6.15-1.15.1-.6.25-1.2t.3-1.2q.2.4.45.75.25.4.5.7.25.35.5.6.25.3.5.55t.55.45.55.35q.3.2.65.3l.6.2.1-.8q.1-.35.15-.75.1-.35.15-.7.1-.4.2-.75t.2-.65q.15-.35.25-.65.15-.35.25-.65l.3-.6q-.15-.4-.35-.75-.15-.3-.35-.65-.2-.3-.4-.55-.2-.3-.4-.55l-.4-.4q-.25-.2-.45-.35-.25-.2-.5-.3-.25-.15-.5-.2.2-.4.4-.75t.4-.7.45-.65q.25-.35.5-.65.2-.3.5-.55.25-.3.5-.55.3-.25.55-.5.3-.2.6-.45v.8q0 .4.05.75.05.4.1.75.05.3.1.65.05.3.15.6.05.3.15.55t.25.5.25.5l1.2-2.45 5 1.05 5.05-1.05 1.45 2.7M20 17.15q.15 0 .35.1.15.1.3.3.15.25.25.5.15.3.25.7.1.35.2.8t.15.9q.05.5.1 1.05t.05 1.1-.05 1.1q0 .5-.1 1-.05.5-.15.95l-.2.8q-.1.35-.25.65-.1.3-.25.5t-.3.3q-.2.1-.35.1t-.35-.1q-.15-.1-.3-.3t-.25-.5q-.15-.3-.25-.65-.1-.4-.2-.85-.1-.4-.15-.9t-.1-1q-.05-.55-.05-1.1t.05-1.1q0-.55.1-1.05.05-.45.15-.9t.2-.8q.1-.4.25-.7.1-.25.25-.5.15-.2.3-.3.2-.1.35-.1"/><path fill="#cd5a5a" d="M26.4 8.4q.15-.2.3-.45t.25-.55q.1-.25.2-.55t.2-.65q.05-.35.15-.7.05-.35.05-.75l.1-.8v-.9q.3.2.55.45l.6.5q.25.25.5.55.25.25.5.55t.45.6q.25.35.45.7.25.3.45.7.2.35.4.75-.25.1-.55.2l-.5.3q-.25.2-.45.4-.25.2-.45.45-.25.25-.45.55t-.4.65-.35.7q-.2.4-.35.8.15.3.25.6.15.25.25.6l.2.6q.1.35.2.65.1.35.15.7.1.35.15.7.1.35.15.7t.1.75q.35-.05.65-.15.35-.15.65-.3.35-.15.65-.35t.55-.45q.3-.25.55-.55.3-.3.55-.65t.5-.7q.25-.4.45-.8l.3 1.2q.15.6.25 1.2t.2 1.15l.1 1.1q.05.5.05 1.05 0 .5-.05 1t-.1.95q-.1.5-.2.95-.2-.65-.4-1.2t-.45-.95q-.2-.4-.5-.7-.25-.3-.55-.5-.3-.15-.6-.2-.35-.05-.7 0-.35.1-.75.3-.35.25-.8.6l-.05 1.9v1.5q.05 2.15-.05 3.9.3-.05.65-.1l.6-.2q.3-.1.6-.25t.6-.3.55-.35.55-.35q.3-.2.55-.45.25-.2.55-.45-.2.55-.45 1-.25.5-.5.95t-.5.85l-.6.8q-.3.35-.65.7l-.7.6q-.35.3-.75.5-.35.25-.8.45-.1.75-.25 1.35-.15.7-.35 1.3t-.45 1.15q-.3.6-.6 1.05-.35.5-.75.95-.4.4-.9.75-.5.4-1.1.65-.6.3-1.3.5.55-.4 1-.9.4-.55.7-1.2.35-.6.55-1.4.25-.7.4-1.6.1-.8.2-1.75.1-.9.15-1.95.05-.9.05-2.05V24.6q0-1.5-.05-2.85-.1-1.4-.25-2.6-.15-1.3-.4-2.4-.25-1.15-.6-2.05-.4-1-.9-1.75-.55-.75-1.2-1.25-.7-.55-1.5-.85-.9-.3-1.9-.3t-1.9.3q-.8.25-1.5.8-.65.55-1.2 1.3-.5.75-.9 1.75-.35.9-.6 2.05-.25 1.1-.4 2.4-.15 1.2-.25 2.6-.05 1.35-.05 2.85v2.15q0 1.15.05 2.05.05 1.05.15 1.95.1.95.2 1.75.15.9.4 1.6.2.8.55 1.4.3.65.75 1.2.4.5.95.9-.7-.2-1.3-.5t-1.1-.65-.95-.8q-.4-.4-.75-.95-.3-.5-.6-1.05-.25-.55-.45-1.2-.2-.6-.35-1.3-.15-.65-.25-1.4-.4-.2-.75-.45t-.7-.5q-.3-.3-.65-.6-.3-.35-.55-.7-.3-.35-.6-.75l-.5-.8q-.2-.45-.45-.9l-.4-1q.25.25.5.4.25.25.5.4l.5.4q.3.15.55.35.3.15.55.25.3.15.55.25.3.15.6.2.3.1.6.15-.05-1.35-.05-3.85v-1.8q0-.2.05-.45v-.85q.05-.2.05-.4-.4-.35-.8-.55-.35-.2-.7-.25t-.65 0q-.35.05-.6.25-.3.15-.55.45-.3.3-.5.75-.25.4-.45.9-.2.55-.4 1.2-.1-.45-.15-.95-.1-.45-.1-.95-.05-.5-.05-1 0-.55.05-1.05 0-.55.1-1.1.05-.6.15-1.15.1-.6.25-1.2t.3-1.2q.2.4.45.75.25.4.5.7.25.35.5.6.25.3.5.55t.55.45.55.35q.3.2.65.3l.6.2.1-.8q.1-.35.15-.75.1-.35.15-.7.1-.4.2-.75t.2-.65q.15-.35.25-.65.15-.35.25-.65l.3-.6q-.15-.4-.35-.75-.15-.3-.35-.65-.2-.3-.4-.55-.2-.3-.4-.55l-.4-.4q-.25-.2-.45-.35-.25-.2-.5-.3-.25-.15-.5-.2.2-.4.4-.75t.4-.7.45-.65q.25-.35.5-.65.2-.3.5-.55.25-.3.5-.55.3-.25.55-.5.3-.2.6-.45v.8q0 .4.05.75.05.4.1.75.05.3.1.65.05.3.15.6.05.3.15.55t.25.5.25.5l1.2-2.45 5 1.05 5.05-1.05 1.45 2.7M20 17.15q.15 0 .35.1.15.1.3.3.15.25.25.5.15.3.25.7.1.35.2.8t.15.9q.05.5.1 1.05t.05 1.1-.05 1.1q0 .5-.1 1-.05.5-.15.95l-.2.8q-.1.35-.25.65-.1.3-.25.5t-.3.3q-.2.1-.35.1t-.35-.1q-.15-.1-.3-.3t-.25-.5q-.15-.3-.25-.65-.1-.4-.2-.85-.1-.4-.15-.9t-.1-1q-.05-.55-.05-1.1t.05-1.1q0-.55.1-1.05.05-.45.15-.9t.2-.8q.1-.4.25-.7.1-.25.25-.5.15-.2.3-.3.2-.1.35-.1"/></g></svg>