<svg xmlns="http://www.w3.org/2000/svg" width="40" height="40"><g fill-rule="evenodd"><path fill="#6e5050" d="M18.1 9.05q0-.1.05-.25v-.65q0-.1-.05-.2v-.2q-.05-.1-.05-.2t-.05-.2q-.1-.2-.1-.45-.05-.2-.05-.45V6q.05-.2.1-.45.1-.25.2-.45l.2-.5q.15-.2.3-.45t.35-.5q.15-.2.25-.4t.15-.4l.1-.5q.05-.2.05-.45V.95q0-.2-.05-.5V0q.3.15.5.35.25.2.45.45.25.2.4.45.15.3.25.6.15.35.15.7.05.35.05.8-.05.4-.15.9-.15.5-.35 1.05v.55q0 .1.05.25.05.1.05.25.05.1.15.2.05.15.1.25.1.15.2.25.05.15.15.25t.15.2.15.2.15.2.15.25q.05.1.1.25.05.1.05.25l.1.3q.05.15.05.3.15.05.35.1.15.05.35.1l.3.1q.15.05.35.1.15.05.3.15l.3.1q.15.1.35.15l.3.2q.15-.2.25-.4t.2-.45.15-.45q.1-.25.15-.55l.1-.5q0-.3.05-.6V6.05q.3.35.55.7.3.35.5.7t.4.7q.15.4.3.75l.2.8q.05.4.05.8t-.05.85-.2.9q.3.3.6.65t.55.7.5.75l.4.8.4.8q.15.45.25.9.15.4.25.85t.15.95q.15.1.3.15.15.1.3.15t.3.1q.15.1.3.15t.35.1l.3.1q.15.05.3.05l.3.1-.2.3q-.15.15-.25.3-.15.15-.3.25-.15.15-.3.25-.15.15-.3.25-.2.1-.35.25l-.4.2q-.2.1-.4.15-.05.45-.15.9t-.25.85q-.1.4-.3.85-.15.4-.35.8-.2.35-.4.75l-.5.7q-.25.35-.55.7-.25.3-.55.65.15.45.2.9.05.4.05.85 0 .4-.05.8t-.2.8q-.1.4-.3.75-.15.4-.4.75-.2.35-.5.7-.25.35-.55.7v-1.3q-.05-.3-.05-.6l-.1-.5q-.1-.3-.15-.55-.1-.25-.2-.45-.1-.25-.2-.45l-.3-.4q-.15.1-.3.15t-.3.15l-.3.1q-.15.1-.3.15t-.3.1-.3.1q-.2.05-.35.1t-.3.1q-.05.15-.05.3l-.1.3-.1.3q-.05.15-.1.25-.05.15-.1.25-.1.15-.15.25-.1.1-.15.2l-.2.2q-.1.15-.2.25-.1.15-.15.3-.1.1-.15.25t-.1.25q-.05.15-.05.3-.05.15-.1.25v.6q.15.5.2.95.1.4.1.8.05.4 0 .8-.05.35-.1.65-.1.3-.25.6-.1.25-.3.5t-.4.45q-.25.2-.5.35v-1.35q0-.25-.05-.45 0-.25-.05-.45-.05-.25-.1-.45-.05-.25-.15-.5-.05-.2-.15-.45-.2-.25-.35-.5t-.3-.45l-.2-.5q-.1-.25-.2-.45-.05-.25-.1-.45v-.45q0-.25.05-.45 0-.25.1-.45.05-.1.05-.2.05-.1.05-.2 0-.15.05-.25v-.7q0-.1-.05-.25v-.25q-.2-.05-.4-.05-.25-.05-.45-.1t-.4-.1-.4-.1q-.2-.1-.4-.15-.2-.1-.4-.15-.15-.1-.35-.15l-.4-.2q-.2.25-.35.5t-.25.5q-.15.25-.2.5-.1.25-.15.5t-.1.55v1.05q.05.25.05.55-.3-.35-.55-.7-.25-.4-.45-.75t-.35-.75q-.15-.35-.25-.7-.1-.4-.15-.75-.05-.4-.05-.75 0-.4.05-.8.05-.35.15-.75l-.7-.7q-.3-.35-.6-.75t-.55-.8q-.25-.45-.5-.85l-.4-.9q-.15-.5-.3-.95-.15-.5-.25-1t-.15-1q-.15-.05-.25-.1-.15-.05-.25-.15-.15-.05-.25-.1-.15 0-.25-.05l-.3-.1q-.1-.05-.25-.05-.1-.05-.25-.1-.1 0-.25-.05.1-.15.2-.25l.2-.3q.1-.1.25-.2.1-.15.25-.25.1-.1.25-.2.15-.15.3-.2l.3-.2q.15-.1.35-.2.05-.5.15-.95.1-.5.25-.95t.35-.9q.15-.45.35-.85l.5-.8.5-.8.6-.7.7-.7q-.1-.4-.15-.75-.05-.4-.05-.75t.05-.75q.05-.35.15-.75.1-.35.25-.7t.35-.75q.2-.35.45-.7t.55-.7q-.05.25-.05.55v1q.05.3.1.55t.1.5l.2.5q.1.25.25.5t.35.45l.4-.2q.15-.05.35-.15.2-.05.4-.15.2-.05.4-.15.2-.05.45-.1l.4-.1.4-.1q.25-.05.45-.1m3.75 1.1h.05q.1 0 .25.05h.1l.05.05h.15l.05.05h.1l.05.05h.15v.05h.1q.05 0 .15.05l.15.05h.05v.05q.05 0 .1.05h.1q.05.05.1.05.1.05.15.05t.1.05.1.05.1.05.1.05h.1v.05h.1V11q.05 0 .1.05h.1v.05h.1v.05h.05l.05.05h.05v.05h.05l.05.05h.05l.05.05H25l.05.05h.05q.15-.15.25-.3.15-.15.25-.35.15-.2.25-.4t.2-.4q.1-.25.2-.45.1-.25.15-.45l.1-.5v-.5q.2.25.3.55.15.25.25.55.05.3.1.55v.6q0 .25-.05.55 0 .25-.1.6-.05.25-.15.6-.05.25-.15.6l.2.2.2.2.05.05v.05h.05v.05h.05v.05h.05v.05h.05v.05h.05v.05l.05.05v.05h.05v.05h.05v.05h.05v.05h.05v.05l.05.05v.05h.05v.05l.05.05.05.05V14h.05v.05h.05v.05l.05.05v.05h.05v.05l.05.05v.05h.05v.05l.05.05v.05h.05v.05l.05.05v.05h.05v.1h.05v.05l.05.05v.05h.05v.1h.05v.05l.05.05v.05l.05.05v.05h.05v.1h.05v.1h.05v.1h.05v.1h.05v.1l.05.05v.1H29v.1h.05v.1l.05.05v.05l.05.05v.1h.05v.15h.05v.1l.05.05v.15h.05v.1l.05.05v.15h.05v.15l.05.05v.15h.05v.1l.05.25v.05l.05.05v.25h.05v.3h.05v.45q.05 0 .05.05t0 .05v.3q.1.05.25.1.1.05.25.1.1.05.25.1.1.05.25.1.1.05.25.1.1.05.2.05.1.05.2.05.1.05.2.05-.05.1-.15.2t-.2.15-.2.15q-.1.1-.25.15-.1.05-.25.1-.1.05-.25.1t-.3.1q-.05.05-.25.1v.05l-.05.05v.25q0 .1-.05.35l-.05.05v.2q-.1.4-.2.75-.1.4-.25.75-.15.4-.3.75t-.35.65l-.4.7q-.25.3-.45.6l-.5.6q-.3.25-.55.55h-.05q.1.35.2.65t.2.6l.1.6q.05.3.05.6.05.35 0 .6-.05.35-.1.6-.05.35-.2.6-.15.35-.3.6v-.5q-.05-.2-.1-.45t-.15-.5-.2-.5q-.15-.25-.25-.5-.15-.2-.25-.4-.15-.25-.3-.45-.15-.15-.3-.35v.05h-.1v.05h-.05q-.05 0-.05.05-.05 0-.1.05h-.05q0 .05-.05.05h-.05v.05h-.05q-.1.05-.25.15h-.05q-.15.1-.35.15-.05.05-.1.05l-.05.05q-.05 0-.1.05h-.1l-.05.05q-.05 0-.3.1h-.05l-.05.05q-.1 0-.3.1h-.05q-.05 0-.15.05-.1 0-.15.05h-.1q-.1.05-.25.05l-.05.05h-.15q0 .3-.05.55 0 .25-.1.5-.05.25-.1.45l-.2.4q-.1.2-.2.35-.05.15-.15.3l-.2.2q-.05.1-.15.2t-.15.25q-.1.1-.15.2l-.1.3q-.05.1-.1.25-.05.1-.1.25 0 .15-.05.25v.5l.2.8q.1.35.15.65t.05.6q.05.25.05.5 0 .2-.05.4 0 .2-.05.35t-.1.3q-.1.15-.15.25v-.7q0-.15-.05-.3 0-.15-.05-.3t-.1-.3q-.05-.2-.1-.35t-.1-.35q-.05-.15-.15-.35l-.3-.4q-.15-.2-.25-.4-.1-.25-.2-.4-.05-.25-.1-.4-.1-.2-.1-.4-.05-.2-.05-.4t.05-.35l.1-.4q.05-.1.05-.25.05-.1.05-.3.05-.15.05-.35v-1.2q-.05-.2-.05-.35 0-.2-.05-.4h-.35l-.05-.05h-.3v-.05h-.25v-.05h-.25l-.05-.05h-.15l-.05-.05h-.1q-.1-.05-.2-.05-.1-.05-.2-.05l-.2-.1q-.1 0-.15-.05-.1-.05-.2-.05l-.2-.1q-.1-.05-.2-.05l-.2-.1q-.05-.05-.3-.15h-.05v-.05h-.1v-.05h-.05l-.1-.05h-.05v-.05H15l-.05-.05h-.05l-.05-.05h-.05v-.05l-.3.4-.3.4q-.15.2-.25.45-.15.2-.25.45-.1.2-.15.4-.1.25-.15.45t-.05.4v.4q-.15-.25-.25-.55-.1-.25-.15-.55-.05-.25-.1-.55v-.55q0-.25.05-.55.05-.25.1-.55.05-.25.1-.55.1-.25.2-.55-.2-.15-.35-.3t-.35-.35l-.3-.3q-.15-.2-.3-.35-.15-.2-.25-.4-.15-.15-.3-.35-.1-.2-.25-.4l-.2-.4-.05-.05v-.05l-.05-.05v-.05h-.05v-.1h-.05v-.1h-.05v-.1h-.05v-.1l-.05-.05v-.1h-.05v-.1h-.05v-.1l-.05-.05v-.1h-.05v-.1l-.05-.05v-.05l-.05-.05v-.15h-.05v-.1l-.05-.05v-.15l-.05-.05v-.1l-.05-.05v-.15l-.05-.05v-.1q0-.05-.05-.05v-.2q0-.05-.05-.05v-.2q-.05 0-.05-.05t0-.05v-.15l-.05-.05v-.25q0-.05-.05-.05v-.45H9.8v-.35l-.2-.1q-.1 0-.25-.05l-.2-.1q-.1 0-.2-.05-.15 0-.25-.05t-.15-.05q-.1-.05-.2-.05T8.2 20q.05-.1.1-.15.1-.05.2-.15.05-.05.15-.1t.2-.1.25-.1.25-.1l.2-.1q.05 0 .25-.1v-.05l.05-.05v-.4h.05v-.3l.05-.05V18H10v-.25h.05v-.2l.05-.05v-.15h.05v-.15l.05-.05V17h.05v-.15l.05-.05v-.1h.05v-.15h.05v-.1l.05-.05v-.1l.05-.05v-.1h.05v-.1l.05-.05v-.05q.1-.25.25-.5.1-.2.25-.45.1-.25.25-.45t.3-.45l.3-.4q.2-.2.35-.4t.35-.35l.4-.4v-.05h.05l.15-.15q-.1-.3-.15-.5-.1-.3-.15-.55t-.1-.5-.05-.5v-.55q0-.25.1-.5.05-.3.15-.55t.25-.55v.4q0 .2.05.4t.15.45l.2.4q.1.2.25.4.1.2.25.4.15.15.3.35l.3.3h.05v-.05h.1v-.05h.1v-.05h.05l.05-.05h.05l.05-.05h.05l.05-.05h.1v-.05h.05l.05-.05h.1v-.05h.1v-.05h.1v-.05H16v-.05h.1v-.05h.1l.05-.05h.1l.05-.05h.1v-.05h.15v-.05h.15v-.05h.15l.05-.05h.15v-.05h.2v-.05h.2v-.05h.2l.05-.05h.25v-.05h.3V10h.4v-.05q.05-.15.05-.3 0-.2.05-.35V7.9q0-.2-.05-.35 0-.15-.05-.25-.1-.25-.15-.5t-.05-.45.05-.45q0-.15.1-.4.05-.15.2-.35.05-.2.2-.4l.25-.4q.15-.25.25-.45t.15-.35q.1-.15.15-.3t.1-.3q.05-.1.1-.25 0-.15.05-.3v-1q.15.1.25.3.1.15.15.35.1.15.15.35 0 .25.05.45 0 .25-.05.45 0 .25-.05.5t-.15.5q-.05.25-.2.5 0 .05-.05.1 0 .1-.05.2-.05.15-.05.3t-.05.3q0 .2.05.35 0 .2.05.4t.15.35q.1.2.25.4.1.15.25.3.1.15.2.35t.2.35l.2.4q.05.2.15.4l.1.4q.05.2.1.35.05.2.05.4m6.4 10.6-5.15-.05q-.05.2-.15.4-.05.25-.15.4-.1.2-.2.35-.15.2-.25.35-.15.15-.35.3-.15.1-.35.25l-.4.2q-.25.1-.5.15v5.25h.05q.75-.1 1.45-.3t1.35-.5q.6-.3 1.2-.75.55-.4 1.05-.9.5-.55.9-1.1.45-.6.75-1.25t.5-1.35.25-1.45m-16.85 0 5.1-.05q.05.2.15.4.05.25.15.4.1.2.2.35.15.2.3.35t.3.3q.15.1.35.25l.4.2q.25.1.5.15v5.25q-.75-.1-1.45-.3t-1.35-.5q-.6-.35-1.2-.75-.55-.45-1.05-.95t-.9-1.05q-.4-.6-.7-1.25-.35-.65-.5-1.35-.2-.7-.3-1.45m5.45 1.95-2.2.05-.75 2.3 2.3-.1.65-2.25m5.9 0 2.25.05.7 2.3-2.25-.1-.7-2.25m-3.9-5.9v-5.25q-.75.1-1.45.3-.65.2-1.3.55-.65.3-1.2.7-.6.45-1.1.95t-.9 1.1q-.4.55-.7 1.2t-.5 1.35-.3 1.45l5.1.05q.05-.2.15-.45.05-.2.15-.35l.2-.4.3-.3.3-.3q.15-.15.35-.25t.4-.2q.25-.1.5-.15m9.4 2.35-5.15.05q-.05-.2-.15-.45-.05-.2-.15-.35l-.2-.4q-.15-.15-.25-.3-.15-.15-.35-.3-.15-.15-.35-.25t-.4-.2q-.25-.1-.5-.15v-5.25q.75.1 1.45.3t1.35.5q.65.35 1.2.75.6.4 1.1.9.5.55.9 1.1.4.6.7 1.25.35.65.55 1.35t.25 1.45m-14.35-4.3 2.3.1.65 2.2h-2.2l-.75-2.3m11.8 0-2.25.1-.7 2.2H25l.7-2.3"/><path fill="#966e82" d="M18.75 9.95q.05-.15.05-.3 0-.2.05-.35V7.9q0-.2-.05-.35 0-.15-.05-.25-.1-.25-.15-.5t-.05-.45.05-.45q0-.15.1-.4.05-.15.2-.35.05-.2.2-.4l.25-.4q.15-.25.25-.45t.15-.35q.1-.15.15-.3t.1-.3q.05-.1.1-.25 0-.15.05-.3v-1q.15.1.25.3.1.15.15.35.1.15.15.35 0 .25.05.45 0 .25-.05.45 0 .25-.05.5t-.15.5q-.05.25-.2.5 0 .05-.05.1 0 .1-.05.2-.05.15-.05.3t-.05.3q0 .2.05.35 0 .2.05.4t.15.35q.1.2.25.4.1.15.25.3.1.15.2.35t.2.35l.2.4q.05.2.15.4l.1.4q.05.2.1.35.05.2.05.4.2.05.45.1l.4.1q.2.05.45.15.2.05.4.15.2.05.4.15t.4.2q.15.1.35.2t.4.2q.15-.15.25-.3.15-.15.25-.35.15-.2.25-.4t.2-.4q.1-.25.2-.45.1-.25.15-.45l.1-.5v-.5q.2.25.3.55.15.25.25.55.05.3.1.55v.6q0 .25-.05.55 0 .25-.1.6-.05.25-.15.6-.05.25-.15.6.35.3.65.65t.55.75q.3.35.5.75.25.4.45.85.2.4.35.85.2.45.3.9.15.45.2.95.1.45.1.95.1.05.25.1.1.05.25.1.1.05.25.1.1.05.25.1.1.05.25.1.1.05.2.05.1.05.2.05.1.05.2.05-.05.1-.15.2t-.2.15-.2.15q-.1.1-.25.15-.1.05-.25.1-.1.05-.25.1t-.3.1q-.05.05-.25.1-.05.45-.15.9t-.2.9q-.15.45-.35.85-.15.45-.35.85t-.45.75q-.25.4-.5.75t-.55.7q-.3.3-.65.6.1.35.2.65t.2.6l.1.6q.05.3.05.6.05.35 0 .6-.05.35-.1.6-.05.35-.2.6-.15.35-.3.6v-.5q-.05-.2-.1-.45t-.15-.5-.2-.5q-.15-.25-.25-.5-.15-.2-.25-.4-.15-.25-.3-.45-.15-.15-.3-.35-.2.1-.35.2l-.4.2q-.15.1-.35.2t-.4.15-.4.15-.4.15-.4.1-.45.1q0 .3-.05.55 0 .25-.1.5-.05.25-.1.45l-.2.4q-.1.2-.2.35-.05.15-.15.3l-.2.2q-.05.1-.15.2t-.15.25q-.1.1-.15.2l-.1.3q-.05.1-.1.25-.05.1-.1.25 0 .15-.05.25v.5l.2.8q.1.35.15.65t.05.6q.05.25.05.5 0 .2-.05.4 0 .2-.05.35t-.1.3q-.1.15-.15.25v-.7q0-.15-.05-.3 0-.15-.05-.3t-.1-.3q-.05-.2-.1-.35t-.1-.35q-.05-.15-.15-.35l-.3-.4q-.15-.2-.25-.4-.1-.25-.2-.4-.05-.25-.1-.4-.1-.2-.1-.4-.05-.2-.05-.4t.05-.35l.1-.4q.05-.1.05-.25.05-.1.05-.3.05-.15.05-.35v-1.2q-.05-.2-.05-.35 0-.2-.05-.4-.25 0-.55-.05l-.5-.1q-.3-.05-.55-.15-.25-.05-.5-.15-.25-.05-.5-.15t-.5-.2-.45-.25-.45-.25l-.3.4-.3.4q-.15.2-.25.45-.15.2-.25.45-.1.2-.15.4-.1.25-.15.45t-.05.4v.4q-.15-.25-.25-.55-.1-.25-.15-.55-.05-.25-.1-.55v-.55q0-.25.05-.55.05-.25.1-.55.05-.25.1-.55.1-.25.2-.55-.4-.3-.75-.7-.3-.35-.65-.75-.3-.4-.55-.8-.3-.4-.5-.85-.25-.45-.4-.95-.2-.45-.3-.95-.15-.5-.25-1-.05-.5-.1-1.05l-.2-.1q-.1 0-.25-.05l-.2-.1q-.1 0-.2-.05-.15 0-.25-.05t-.15-.05q-.1-.05-.2-.05T8.2 20q.05-.1.1-.15.1-.05.2-.15.05-.05.15-.1t.2-.1.25-.1.25-.1l.2-.1q.05 0 .25-.1.05-.5.15-1 .1-.45.2-.95.15-.45.35-.9.15-.45.4-.9.2-.4.45-.8l.6-.8q.25-.4.6-.7l.7-.7q-.1-.3-.15-.5-.1-.3-.15-.55t-.1-.5-.05-.5v-.55q0-.25.1-.5.05-.3.15-.55t.25-.55v.4q0 .2.05.4t.15.45l.2.4q.1.2.25.4.1.2.25.4.15.15.3.35l.3.3q.25-.15.45-.25.25-.1.45-.2l.5-.2.5-.2q.25-.05.5-.15l.5-.1q.3-.05.55-.1t.5-.1m9.5 10.8-5.15-.05q-.05.2-.15.4-.05.25-.15.4-.1.2-.2.35-.15.2-.25.35-.15.15-.35.3-.15.1-.35.25l-.4.2q-.25.1-.5.15v5.25h.05q.75-.1 1.45-.3t1.35-.5q.6-.3 1.2-.75.55-.4 1.05-.9.5-.55.9-1.1.45-.6.75-1.25t.5-1.35.25-1.45m-16.85 0 5.1-.05q.05.2.15.4.05.25.15.4.1.2.2.35.15.2.3.35t.3.3q.15.1.35.25l.4.2q.25.1.5.15v5.25q-.75-.1-1.45-.3t-1.35-.5q-.6-.35-1.2-.75-.55-.45-1.05-.95t-.9-1.05q-.4-.6-.7-1.25-.35-.65-.5-1.35-.2-.7-.3-1.45m3.25 2-.75 2.3 2.3-.1.65-2.25-2.2.05m10.35 0 .7 2.3-2.25-.1-.7-2.25 2.25.05m-6.15-11.2q-.75.1-1.45.3-.65.2-1.3.55-.65.3-1.2.7-.6.45-1.1.95t-.9 1.1q-.4.55-.7 1.2t-.5 1.35-.3 1.45l5.1.05q.05-.2.15-.45.05-.2.15-.35l.2-.4.3-.3.3-.3q.15-.15.35-.25t.4-.2q.25-.1.5-.15v-5.25m1.9 0q.75.1 1.45.3t1.35.5q.65.35 1.2.75.6.4 1.1.9.5.55.9 1.1.4.6.7 1.25.35.65.55 1.35t.25 1.45l-5.15.05q-.05-.2-.15-.45-.05-.2-.15-.35l-.2-.4q-.15-.15-.25-.3-.15-.15-.35-.3-.15-.15-.35-.25t-.4-.2q-.25-.1-.5-.15v-5.25m-6.1 5.6-.75-2.3 2.3.1.65 2.2h-2.2m10.35 0 .7-2.3-2.25.1-.7 2.2H25"/></g></svg>