<svg xmlns="http://www.w3.org/2000/svg" width="40" height="40"><path fill="#CD5A5A" d="M23.5 17.85c-.13.1-.27.2-.4.3-.1.07-.2.12-.3.15-.1.07-.18.1-.25.1s-.1-.02-.1-.05.02-.12.05-.25c.03-.1.08-.25.15-.45.07-.17.15-.35.25-.55.07-.2.17-.4.3-.6.1-.23.2-.45.3-.65s.2-.38.3-.55.18-.3.25-.4c.1-.13.17-.22.2-.25s.08-.03.15 0c.03 0 .07.03.1.1.07.07.12.15.15.25s.07.22.1.35c0 .1.02.22.05.35v.7c-.03.13-.07.23-.1.3s-.1.15-.2.25c-.07.1-.15.2-.25.3-.13.1-.27.2-.4.3-.1.13-.22.23-.35.3zm-7.75-2.95c.07.1.15.23.25.4.13.17.25.37.35.6.1.2.22.4.35.6.1.23.2.45.3.65s.18.38.25.55c.1.2.17.35.2.45.03.13.05.22.05.25s-.03.05-.1.05-.15-.03-.25-.1c-.07-.03-.17-.1-.3-.2-.13-.07-.27-.15-.4-.25s-.25-.2-.35-.3c-.13-.1-.27-.22-.4-.35-.1-.1-.18-.2-.25-.3-.1-.1-.17-.18-.2-.25s-.07-.17-.1-.3c-.03-.1-.05-.2-.05-.3v-.4s.02-.25.05-.35c0-.13.02-.25.05-.35s.07-.18.1-.25.08-.1.15-.1c.03-.03.07-.03.1 0s.1.12.2.25z"/><path fill="#735541" d="M24.4 14.65c-.07-.03-.12-.03-.15 0s-.1.12-.2.25a9.101 9.101 0 0 0-.55.95c-.1.2-.2.42-.3.65-.13.2-.23.4-.3.6-.1.2-.18.38-.25.55-.07.2-.12.35-.15.45-.03.13-.05.22-.05.25s.03.05.1.05.15-.03.25-.1c.1-.03.2-.08.3-.15.13-.1.27-.2.4-.3.13-.07.25-.17.35-.3.13-.1.27-.2.4-.3.1-.1.18-.2.25-.3.1-.1.17-.18.2-.25s.07-.17.1-.3v-.7c-.03-.13-.05-.25-.05-.35-.03-.13-.07-.25-.1-.35s-.08-.18-.15-.25c-.03-.07-.07-.1-.1-.1zm-8.7 2.6c.13.13.27.25.4.35.1.1.22.2.35.3s.27.18.4.25c.13.1.23.17.3.2.1.07.18.1.25.1s.1-.02.1-.05-.02-.12-.05-.25c-.03-.1-.1-.25-.2-.45-.07-.17-.15-.35-.25-.55s-.2-.42-.3-.65c-.13-.2-.25-.4-.35-.6-.1-.23-.22-.43-.35-.6-.1-.17-.18-.3-.25-.4-.1-.13-.17-.22-.2-.25s-.07-.03-.1 0c-.07 0-.12.03-.15.1s-.07.15-.1.25-.05.22-.05.35c-.03.1-.05.22-.05.35v.4c0 .1.02.2.05.3.03.13.07.23.1.3s.1.15.2.25c.07.1.15.2.25.3zM3.35 9c-.17-.23-.32-.45-.45-.65-.1-.17-.2-.33-.3-.5a.483.483 0 0 1-.1-.15s.05.03.15.1c.13.1.28.18.45.25.2.13.42.27.65.4.3.17.58.32.85.45.33.17.67.32 1 .45s.68.27 1.05.4.73.23 1.1.3.73.12 1.1.15h.45c.13 0 .28-.02.45-.05h.4c.13-.03.28-.07.45-.1.13 0 .27-.02.4-.05s.28-.07.45-.1c.13-.03.27-.07.4-.1s.28-.07.45-.1c.07-.17.17-.32.3-.45s.28-.27.45-.4c.17-.1.37-.2.6-.3.27-.1.55-.2.85-.3.3-.07.63-.13 1-.2.4-.07.83-.12 1.3-.15.43-.07.92-.1 1.45-.1a30.066 30.066 0 0 1 3.45 0c.5 0 .97.03 1.4.1.43.03.83.08 1.2.15.37.03.7.1 1 .2.3.07.57.15.8.25s.45.2.65.3c.17.13.32.27.45.4.13.1.25.23.35.4.2.03.35.07.45.1.17.07.33.1.5.1.13.07.28.1.45.1.13.03.28.07.45.1.13.03.27.07.4.1.17 0 .32.02.45.05h.45c.17.03.32.05.45.05.33 0 .7-.03 1.1-.1.37-.07.73-.17 1.1-.3.37-.1.73-.23 1.1-.4.3-.13.62-.28.95-.45.3-.17.58-.33.85-.5.23-.1.45-.22.65-.35.17-.1.32-.2.45-.3.07-.03.12-.07.15-.1 0 0-.03.05-.1.15-.07.17-.15.33-.25.5-.17.23-.32.45-.45.65-.2.27-.4.53-.6.8-.23.3-.48.57-.75.8-.27.3-.55.55-.85.75-.3.23-.62.43-.95.6-.37.17-.72.28-1.05.35-1.43.27-3.02.5-4.75.7 0 .07-.02.13-.05.2 0 .07-.02.13-.05.2 0 .03-.02.08-.05.15s-.05.13-.05.2c-.03.07-.07.13-.1.2 0 .07-.02.13-.05.2s-.05.13-.05.2c-.03.07-.07.13-.1.2l1.5 3.55-1.25-.05.7 2.3-1.45-.7.15 2.45-1.3-.7c.07.9.07 1.48 0 1.75 0 .07-.02.12-.05.15-.03.07-.07.12-.1.15-.03.07-.07.13-.1.2s-.08.13-.15.2l-.55.55c-.1.07-.18.12-.25.15l-.5 3.35-1.05-.85-.7 3.3-.85-1.75-1.3 3.15-1.3-3.15-.85 1.75-.7-3.3-1.05.85-.5-3.3c-.07-.07-.15-.13-.25-.2l-.4-.4a.276.276 0 0 1-.15-.15c-.07-.07-.12-.13-.15-.2s-.07-.13-.1-.2a.483.483 0 0 1-.1-.15c0-.07-.02-.12-.05-.15-.03-.17-.02-.77.05-1.8l-1.35.75.15-2.45-1.45.7.75-2.3-1.3.05 1.5-3.5c-.03-.07-.07-.13-.1-.2s-.05-.13-.05-.2c-.03-.07-.07-.13-.1-.2 0-.07-.02-.13-.05-.2s-.05-.13-.05-.2a.492.492 0 0 1-.05-.2.492.492 0 0 1-.05-.2.492.492 0 0 1-.05-.2c-1.8-.23-3.37-.47-4.7-.7-.37-.07-.72-.18-1.05-.35s-.67-.37-1-.6c-.27-.2-.55-.45-.85-.75-.23-.23-.47-.5-.7-.8-.23-.27-.43-.53-.6-.8z"/><path fill="#2D2D2D" d="M4.8 12.8c-.53-.37-1.03-.8-1.5-1.3-.4-.4-.78-.87-1.15-1.4-.3-.47-.58-.95-.85-1.45-.23-.47-.43-.93-.6-1.4C.53 6.88.4 6.5.3 6.1c-.1-.27-.18-.52-.25-.75 0-.1-.02-.2-.05-.3a5.183 5.183 0 0 0 1 .5c.37.2.73.38 1.1.55.43.23.87.45 1.3.65a26 26 0 0 0 1.5.6 26 26 0 0 0 1.5.6c.5.17.97.3 1.4.4.47.1.87.17 1.2.2h1.05c.07 0 .13-.02.2-.05h.2c.07 0 .13-.02.2-.05.07-.13.15-.27.25-.4.13-.13.28-.27.45-.4.2-.13.42-.27.65-.4.3-.13.62-.27.95-.4.37-.13.77-.25 1.2-.35.47-.1.98-.18 1.55-.25.6-.07 1.25-.13 1.95-.2a52.358 52.358 0 0 1 4.6 0c.63.07 1.25.13 1.85.2.53.07 1.03.15 1.5.25.43.1.83.22 1.2.35.33.13.63.27.9.4s.5.27.7.4.37.27.5.4.23.27.3.4c.07 0 .13.02.2.05h.25c.07.03.13.05.2.05H31c.33-.03.73-.1 1.2-.2.43-.1.9-.23 1.4-.4a26 26 0 0 0 1.5-.6 26 26 0 0 0 1.5-.6c.43-.2.87-.42 1.3-.65.37-.17.73-.35 1.1-.55.27-.13.52-.25.75-.35.07-.07.15-.12.25-.15 0 0-.02.1-.05.3-.07.23-.15.5-.25.8-.1.37-.23.73-.4 1.1-.17.5-.37.97-.6 1.4-.27.53-.55 1.02-.85 1.45-.37.53-.75 1.02-1.15 1.45-.43.47-.92.88-1.45 1.25-.53.4-1.12.72-1.75.95-.13.03-.27.08-.4.15-.13.03-.27.07-.4.1-.17.03-.33.07-.5.1-.17.07-.33.12-.5.15s-.35.07-.55.1-.4.07-.6.1-.4.07-.6.1-.4.05-.6.05c-.17.33-.27.55-.3.65l.1.05 1.5 4.05-1.3-.05.6 2.8-1.8-.6.05 2.55-.95-.5c0 .03-.02.08-.05.15 0 .07-.02.15-.05.25-.03.07-.07.15-.1.25-.07.07-.12.15-.15.25-.07.07-.13.15-.2.25s-.13.2-.2.3l-.25.25c-.07.1-.15.2-.25.3-.1.07-.2.15-.3.25l-.85 4.8-1.15-.85-1.05 3.85-1.2-1.85-1.45 3.2-1.4-3.2-1.25 1.85-1.1-3.8-1.1.8-.85-4.8c-.1-.1-.2-.18-.3-.25-.07-.1-.15-.2-.25-.3a.99.99 0 0 0-.25-.25c-.07-.1-.13-.2-.2-.3a.579.579 0 0 1-.15-.25c-.07-.1-.12-.18-.15-.25-.03-.1-.07-.18-.1-.25a.915.915 0 0 1-.05-.25c0-.03-.02-.07-.05-.1v-.05l-1 .5.05-2.55-1.8.6.6-2.8-1.3.05 1.5-4.05h.05c0-.03-.02-.07-.05-.1 0-.03-.02-.07-.05-.1v-.05c-.03-.03-.05-.07-.05-.1s-.02-.07-.05-.1v-.1c-.03 0-.05-.02-.05-.05s-.02-.07-.05-.1c-.2-.03-.4-.07-.6-.1s-.4-.07-.6-.1c-.17 0-.35-.02-.55-.05-.17-.03-.33-.08-.5-.15-.17-.03-.33-.07-.5-.1s-.32-.07-.45-.1a1.49 1.49 0 0 1-.45-.15c-.13-.03-.25-.07-.35-.1-.63-.23-1.23-.55-1.8-.95zM3.35 9c.17.27.37.53.6.8.23.3.47.57.7.8.3.3.58.55.85.75.33.23.67.43 1 .6s.68.28 1.05.35c1.33.23 2.9.47 4.7.7 0 .07.02.13.05.2 0 .07.02.13.05.2 0 .07.02.13.05.2 0 .07.02.13.05.2s.05.13.05.2c.03.07.07.13.1.2 0 .07.02.13.05.2s.07.13.1.2l-1.5 3.5 1.3-.05-.75 2.3 1.45-.7-.15 2.45 1.35-.75c-.07 1.03-.08 1.63-.05 1.8.03.03.05.08.05.15.03.07.07.12.1.15.03.07.07.13.1.2s.08.13.15.2c.03.07.08.12.15.15l.4.4c.1.07.18.13.25.2l.5 3.3 1.05-.85.7 3.3.85-1.75 1.3 3.15 1.3-3.15.85 1.75.7-3.3 1.05.85.5-3.35c.07-.03.15-.08.25-.15l.55-.55c.07-.07.12-.13.15-.2s.07-.13.1-.2c.03-.03.07-.08.1-.15.03-.03.05-.08.05-.15.07-.27.07-.85 0-1.75l1.3.7-.15-2.45 1.45.7-.7-2.3 1.25.05-1.5-3.55c.03-.07.07-.13.1-.2 0-.07.02-.13.05-.2s.05-.13.05-.2c.03-.07.07-.13.1-.2 0-.07.02-.13.05-.2s.05-.12.05-.15c.03-.07.05-.13.05-.2.03-.07.05-.13.05-.2 1.73-.2 3.32-.43 4.75-.7.33-.07.68-.18 1.05-.35.33-.17.65-.37.95-.6.3-.2.58-.45.85-.75.27-.23.52-.5.75-.8.2-.27.4-.53.6-.8.13-.2.28-.42.45-.65.1-.17.18-.33.25-.5.07-.1.1-.15.1-.15-.03.03-.08.07-.15.1-.13.1-.28.2-.45.3-.2.13-.42.25-.65.35-.27.17-.55.33-.85.5-.33.17-.65.32-.95.45-.37.17-.73.3-1.1.4-.37.13-.73.23-1.1.3-.4.07-.77.1-1.1.1-.13 0-.28-.02-.45-.05h-.45c-.13-.03-.28-.05-.45-.05-.13-.03-.27-.07-.4-.1-.17-.03-.32-.07-.45-.1-.17 0-.32-.03-.45-.1-.17 0-.33-.03-.5-.1-.1-.03-.25-.07-.45-.1-.1-.17-.22-.3-.35-.4-.13-.13-.28-.27-.45-.4-.2-.1-.42-.2-.65-.3s-.5-.18-.8-.25c-.3-.1-.63-.17-1-.2-.37-.07-.77-.12-1.2-.15-.43-.07-.9-.1-1.4-.1a30.066 30.066 0 0 0-3.45 0c-.53 0-1.02.03-1.45.1-.47.03-.9.08-1.3.15-.37.07-.7.13-1 .2-.3.1-.58.2-.85.3-.23.1-.43.2-.6.3-.17.13-.32.27-.45.4s-.23.28-.3.45c-.17.03-.32.07-.45.1s-.27.07-.4.1c-.17.03-.32.07-.45.1s-.27.05-.4.05c-.17.03-.32.07-.45.1h-.4c-.17.03-.32.05-.45.05h-.45c-.37-.03-.73-.08-1.1-.15s-.73-.17-1.1-.3-.72-.27-1.05-.4-.67-.28-1-.45c-.27-.13-.55-.28-.85-.45-.23-.13-.45-.27-.65-.4-.17-.07-.32-.15-.45-.25a2.9 2.9 0 0 0-.15-.1c.03.07.07.12.1.15.1.17.2.33.3.5.13.2.28.42.45.65z"/></svg>