<svg xmlns="http://www.w3.org/2000/svg" width="40" height="40"><path fill="#3C5573" d="M14.05 32.9c.03-.03.08-.07.15-.1s.13-.07.2-.1.12-.05.15-.05c.07-.03.13-.05.2-.05s.12-.02.15-.05h.3c.2 0 .4.02.6.05s.4.07.6.1c.17.03.37.08.6.15.13.03.32.08.55.15.27.1.47.17.6.2.2.03.38.07.55.1.2.07.4.1.6.1.2.03.38.05.55.05h.6c.17-.03.37-.07.6-.1.17-.07.35-.12.55-.15.13-.03.33-.1.6-.2.27-.07.47-.12.6-.15.2-.07.38-.12.55-.15.23-.03.43-.07.6-.1.2-.03.4-.05.6-.05.07 0 .13.02.2.05h.35c.07.03.12.05.15.05.07.03.13.05.2.05.03.03.08.07.15.1l.35.35L20 36.4l-6.15-3.35c.07-.07.13-.12.2-.15z"/><path fill="#6987AA" d="M4.85 27.6c.07 0 .13-.02.2-.05h.2c.03-.03.08-.05.15-.05h.4c.17 0 .35.02.55.05.17.03.35.07.55.1.13.03.3.08.5.15.13.03.32.08.55.15s.42.12.55.15c.2.07.38.12.55.15.2.07.4.1.6.1.17.03.35.05.55.05s.4-.02.6-.05c.2 0 .42-.03.65-.1.17-.03.37-.07.6-.1.17-.07.38-.13.65-.2l.65-.15c.23-.07.45-.12.65-.15s.4-.07.6-.1.4-.05.6-.05.4.02.6.05.4.07.6.1c.17.03.37.08.6.15.13.03.32.08.55.15.27.07.47.12.6.15.2.07.38.12.55.15.2.07.4.1.6.1.2.03.38.05.55.05.2 0 .4-.02.6-.05.17 0 .37-.03.6-.1.17-.03.35-.07.55-.1.13-.07.33-.13.6-.2s.47-.12.6-.15c.2-.07.38-.12.55-.15.23-.03.43-.07.6-.1.2-.03.4-.05.6-.05.17 0 .35.02.55.05s.4.07.6.1c.17.03.35.08.55.15.13.03.33.08.6.15.23.07.42.12.55.15.2.07.4.12.6.15.2.07.38.1.55.1.2.03.4.05.6.05s.42-.02.65-.05c.17 0 .37-.03.6-.1.2-.03.42-.07.65-.1.13-.07.33-.13.6-.2l.65-.15c.23-.07.45-.12.65-.15s.4-.07.6-.1.4-.05.6-.05h.3c.03.03.08.05.15.05.03 0 .08.02.15.05.03 0 .07.02.1.05.07.03.12.07.15.1.07.03.13.07.2.1.03.07.08.13.15.2l-6.3 3.45c-.2-.03-.4-.07-.6-.1-.17-.03-.35-.07-.55-.1-.17-.03-.35-.08-.55-.15-.07 0-.27-.05-.6-.15-.2-.07-.38-.12-.55-.15-.2-.07-.38-.12-.55-.15-.2-.03-.38-.05-.55-.05-.2-.03-.38-.05-.55-.05-.2 0-.4.02-.6.05-.2 0-.4.03-.6.1-.17.03-.35.07-.55.1-.13.07-.33.13-.6.2s-.47.12-.6.15c-.2.07-.4.12-.6.15s-.38.07-.55.1c-.2.03-.4.05-.6.05-.17 0-.35-.02-.55-.05s-.4-.07-.6-.1c-.17-.03-.35-.08-.55-.15-.13-.03-.33-.08-.6-.15-.23-.07-.42-.13-.55-.2-.23-.03-.43-.07-.6-.1-.2-.07-.4-.1-.6-.1-.2-.03-.4-.05-.6-.05h-.5c-.17.03-.35.05-.55.05-.17.03-.35.07-.55.1s-.4.07-.6.1c-.17.03-.35.08-.55.15-.17.03-.35.07-.55.1-.17.03-.35.08-.55.15.08-.02.15-.04.21-.05-.17.05-.42.11-.76.2l-6.4-3.5c.07-.03.12-.07.15-.1.07-.07.12-.1.15-.1.07-.03.12-.07.15-.1zM1.4 21.35V17.6c.07-.03.12-.05.15-.05.1-.07.22-.12.35-.15.17-.07.33-.13.5-.2.23-.1.45-.18.65-.25.23-.1.47-.18.7-.25.27-.07.52-.13.75-.2s.47-.12.7-.15.43-.05.6-.05.35.03.55.1c.17.03.35.1.55.2.13.1.3.22.5.35.13.07.32.18.55.35s.42.28.55.35c.2.13.38.25.55.35.2.1.4.17.6.2.17.07.35.1.55.1s.4-.03.6-.1c.2-.03.42-.1.65-.2.17-.1.37-.22.6-.35.17-.07.38-.18.65-.35.3-.17.52-.28.65-.35.23-.13.45-.25.65-.35s.4-.17.6-.2c.2-.07.4-.1.6-.1s.4.03.6.1c.2.03.4.1.6.2.17.1.37.22.6.35.13.07.32.18.55.35.27.17.47.28.6.35.2.13.38.25.55.35.2.1.4.17.6.2.2.07.38.1.55.1.2 0 .4-.03.6-.1.17-.03.37-.1.6-.2.17-.1.35-.22.55-.35.13-.07.33-.18.6-.35s.47-.28.6-.35c.2-.13.38-.25.55-.35.23-.1.43-.17.6-.2.2-.07.4-.1.6-.1.17 0 .35.03.55.1.2.03.4.1.6.2.17.1.35.22.55.35.13.07.33.18.6.35.23.17.42.28.55.35.2.13.4.25.6.35s.38.17.55.2c.2.07.4.1.6.1s.42-.03.65-.1c.17-.03.37-.1.6-.2.2-.1.42-.22.65-.35.13-.07.33-.18.6-.35.3-.17.52-.28.65-.35.23-.13.45-.25.65-.35s.4-.17.6-.2c.2-.07.4-.1.6-.1.17 0 .37.02.6.05s.47.08.7.15.48.13.75.2c.2.07.42.15.65.25.23.07.45.15.65.25.17.07.33.13.5.2.13.03.25.08.35.15.07.03.1.05.1.05v3.75c-.03 0-.07-.02-.1-.05-.13-.03-.25-.08-.35-.15-.17-.07-.33-.15-.5-.25-.2-.07-.42-.15-.65-.25s-.45-.18-.65-.25c-.27-.1-.52-.18-.75-.25s-.47-.12-.7-.15c-.2-.03-.4-.05-.6-.05s-.4.02-.6.05-.4.1-.6.2c-.2.03-.42.1-.65.2-.13.07-.35.15-.65.25-.27.13-.47.22-.6.25-.23.1-.45.18-.65.25-.23.07-.45.12-.65.15s-.4.05-.6.05c-.17 0-.37-.02-.6-.05-.17-.03-.35-.08-.55-.15-.17-.07-.37-.15-.6-.25-.13-.03-.32-.12-.55-.25-.27-.1-.47-.18-.6-.25-.2-.1-.38-.18-.55-.25a3.74 3.74 0 0 0-1.15-.2c-.2 0-.4.02-.6.05s-.4.1-.6.2c-.17.03-.35.1-.55.2-.13.07-.33.15-.6.25-.27.13-.47.22-.6.25-.2.1-.4.18-.6.25s-.38.12-.55.15c-.2.03-.4.05-.6.05a3.74 3.74 0 0 1-1.15-.2 8.15 8.15 0 0 1-.55-.25c-.13-.03-.33-.12-.6-.25-.23-.1-.42-.18-.55-.25-.23-.1-.43-.18-.6-.25-.2-.07-.4-.12-.6-.15s-.4-.05-.6-.05c-.17 0-.37.02-.6.05-.2.03-.4.1-.6.2-.2.03-.42.1-.65.2-.13.07-.35.15-.65.25-.27.13-.48.22-.65.25-.23.1-.43.18-.6.25-.23.07-.45.12-.65.15s-.4.05-.6.05a3.74 3.74 0 0 1-1.15-.2 8.15 8.15 0 0 1-.55-.25c-.13-.03-.32-.12-.55-.25-.23-.1-.4-.18-.5-.25-.23-.1-.42-.18-.55-.25-.2-.07-.38-.12-.55-.15-.2-.03-.38-.05-.55-.05s-.37.02-.6.05-.47.1-.7.2c-.23.03-.48.1-.75.2-.23.07-.47.15-.7.25-.2.1-.42.18-.65.25-.17.07-.33.15-.5.25-.03 0-.15.05-.35.15-.1.03-.15.05-.15.05z"/><path fill="#3C5573" d="M4 25.7c-.2.03-.4.07-.6.1-.23.03-.43.08-.6.15-.2.03-.38.07-.55.1-.17.07-.3.12-.4.15-.13.07-.23.12-.3.15l-.15-.05v-2.95c.07-.03.12-.05.15-.05.1-.07.22-.12.35-.15.17-.1.33-.18.5-.25.23-.1.45-.18.65-.25.23-.1.47-.18.7-.25.27-.1.52-.18.75-.25s.47-.12.7-.15.43-.05.6-.05.35.02.55.05c.17.03.35.08.55.15.13.07.3.15.5.25.13.03.32.12.55.25.23.1.42.18.55.25.2.1.38.18.55.25.2.07.4.12.6.15.17.03.35.05.55.05s.4-.02.6-.05.42-.08.65-.15c.17-.07.37-.15.6-.25.17-.03.38-.12.65-.25.3-.13.52-.22.65-.25.23-.1.45-.18.65-.25s.4-.12.6-.15.4-.05.6-.05.4.02.6.05.4.08.6.15c.17.07.37.15.6.25.13.03.32.12.55.25.27.13.47.22.6.25.2.1.38.18.55.25a3.74 3.74 0 0 0 1.15.2c.2 0 .4-.02.6-.05.17-.03.37-.08.6-.15.17-.07.35-.15.55-.25.13-.03.33-.12.6-.25s.47-.22.6-.25c.2-.1.38-.18.55-.25.23-.07.43-.12.6-.15.2-.03.4-.05.6-.05a3.74 3.74 0 0 1 1.15.2c.17.07.35.15.55.25.13.03.33.12.6.25.23.1.42.18.55.25.2.1.4.18.6.25s.38.12.55.15c.2.03.4.05.6.05s.42-.02.65-.05c.17-.03.37-.08.6-.15.2-.07.42-.15.65-.25.13-.07.33-.15.6-.25.3-.13.52-.22.65-.25.23-.1.45-.18.65-.25s.4-.12.6-.15.4-.05.6-.05c.17 0 .37.02.6.05s.47.08.7.15.48.15.75.25c.2.07.42.15.65.25.23.07.45.15.65.25.17.07.33.15.5.25.1.03.22.08.35.15.07.03.1.05.1.05v3l-.05.05c-.07-.03-.15-.08-.25-.15-.1-.03-.23-.07-.4-.1-.13-.07-.3-.12-.5-.15s-.4-.08-.6-.15c-.2-.03-.42-.07-.65-.1-.23-.07-.45-.1-.65-.1-.23-.03-.45-.07-.65-.1h-1.15c-.2.03-.4.07-.6.1s-.42.08-.65.15l-.65.15c-.27.1-.47.17-.6.2-.23.03-.45.07-.65.1-.23.07-.45.1-.65.1-.2.03-.4.05-.6.05h-.6c-.17-.03-.35-.07-.55-.1-.17-.03-.37-.08-.6-.15a8.65 8.65 0 0 1-.55-.15c-.27-.1-.47-.17-.6-.2-.2-.03-.38-.07-.55-.1-.2-.07-.4-.1-.6-.1-.2-.03-.38-.05-.55-.05h-.6c-.2.03-.4.07-.6.1-.17.03-.35.08-.55.15-.13.03-.33.08-.6.15-.27.1-.47.17-.6.2-.2.03-.4.07-.6.1-.2.07-.38.1-.55.1-.2.03-.4.05-.6.05h-.55c-.2-.03-.4-.07-.6-.1-.17-.03-.35-.08-.55-.15-.13-.03-.33-.08-.6-.15-.23-.1-.42-.17-.55-.2-.23-.03-.43-.07-.6-.1-.2-.07-.4-.1-.6-.1-.2-.03-.4-.05-.6-.05h-.6c-.2.03-.4.07-.6.1s-.42.08-.65.15l-.65.15c-.27.1-.48.17-.65.2-.23.03-.43.07-.6.1-.23.07-.45.1-.65.1-.2.03-.4.05-.6.05h-.55c-.2-.03-.4-.07-.6-.1-.17-.03-.35-.08-.55-.15-.1-.03-.28-.08-.55-.15-.23-.1-.4-.17-.5-.2-.2-.03-.38-.07-.55-.1-.2-.07-.38-.1-.55-.1-.2-.03-.38-.05-.55-.05h-.55c-.17 0-.37.02-.6.05-.2.03-.42.07-.65.1z"/><path d="M13.85 33.05 20 36.4l5.95-3.25-.35-.35a.483.483 0 0 1-.15-.1c-.07 0-.13-.02-.2-.05-.03 0-.08-.02-.15-.05h-.35a.492.492 0 0 0-.2-.05c-.2 0-.4.02-.6.05-.17.03-.37.07-.6.1-.17.03-.35.08-.55.15-.13.03-.33.08-.6.15-.27.1-.47.17-.6.2-.2.03-.38.08-.55.15-.23.03-.43.07-.6.1h-.6c-.17 0-.35-.02-.55-.05-.2 0-.4-.03-.6-.1-.17-.03-.35-.07-.55-.1-.13-.03-.33-.1-.6-.2a8.65 8.65 0 0 0-.55-.15c-.23-.07-.43-.12-.6-.15-.2-.03-.4-.07-.6-.1s-.4-.05-.6-.05h-.3c-.03.03-.08.05-.15.05s-.13.02-.2.05c-.03 0-.08.02-.15.05s-.13.07-.2.1-.12.07-.15.1c-.07.03-.13.08-.2.15zM6.2 13.8c-.13.17-.25.33-.35.5.2 0 .4.02.6.05.17.07.35.15.55.25.17.07.35.17.55.3.1.1.28.23.55.4.23.13.4.25.5.35.2.13.38.23.55.3.2.1.38.17.55.2.2.07.4.1.6.1.17 0 .37-.02.6-.05.2-.07.4-.15.6-.25.2-.07.42-.17.65-.3.17-.07.38-.18.65-.35.3-.17.52-.3.65-.4.23-.1.45-.2.65-.3.23-.1.45-.17.65-.2.2-.07.4-.1.6-.1s.4.02.6.05c.2.07.4.15.6.25.17.07.35.17.55.3.13.07.32.18.55.35.27.17.45.28.55.35.23.13.42.23.55.3.2.1.4.17.6.2.2.07.38.1.55.1.2 0 .4-.02.6-.05.17-.07.35-.15.55-.25.17-.07.37-.17.6-.3.13-.07.33-.18.6-.35.23-.17.42-.28.55-.35.23-.13.43-.23.6-.3.2-.1.38-.17.55-.2.23-.07.43-.1.6-.1s.35.03.55.1c.17.03.35.1.55.2.17.1.35.2.55.3.13.07.33.2.6.4.23.13.42.25.55.35.2.13.38.23.55.3.2.1.4.17.6.2.2.07.4.1.6.1.17 0 .35-.02.55-.05.2-.07.4-.13.6-.2l.6-.3c.13-.1.35-.22.65-.35.27-.17.47-.3.6-.4.23-.1.45-.2.65-.3.23-.1.45-.18.65-.25.23-.07.45-.1.65-.1-.23-.33-.48-.67-.75-1-.27-.3-.55-.6-.85-.9s-.62-.58-.95-.85l-1.1-.8c-.4-.23-.8-.47-1.2-.7-.43-.2-.87-.4-1.3-.6-.47-.2-.93-.38-1.4-.55-.47-.13-.95-.27-1.45-.4.03-.03.08-.07.15-.1.07-.07.13-.1.2-.1.03-.03.08-.07.15-.1s.13-.05.2-.05h.4c.07 0 .13.02.2.05.07 0 .13.02.2.05a.276.276 0 0 0-.15-.15c-.03-.03-.08-.07-.15-.1s-.13-.07-.2-.1-.13-.05-.2-.05h-.45s-.15.02-.25.05c-.07 0-.15.02-.25.05V7.8c0-.03.02-.07.05-.1l.15-.15c.03-.03.08-.07.15-.1s.13-.07.2-.1c.07-.07.15-.12.25-.15s.2-.07.3-.1.22-.07.35-.1h-.95c-.07.03-.15.05-.25.05h-.2c-.07.03-.12.05-.15.05s-.07.02-.1.05c-.02 0-.04.01-.05.03-.03-.19-.08-.35-.15-.48-.03-.13-.07-.27-.1-.4-.07-.1-.12-.2-.15-.3s-.07-.18-.1-.25-.07-.13-.1-.2-.07-.12-.1-.15a.483.483 0 0 0-.1-.15l-.1-.1v.25c.03.1.05.18.05.25v.25c.03.07.05.15.05.25 0 .07-.02.13-.05.2v.2c-.03.07-.05.13-.05.2-.03.03-.07.08-.1.15-.03-.07-.07-.13-.1-.2a.483.483 0 0 1-.1-.15l-.2-.2c-.03-.07-.1-.13-.2-.2-.07-.07-.13-.15-.2-.25-.07-.07-.15-.13-.25-.2-.07-.07-.17-.13-.3-.2l-.22-.22c.08.12.16.23.22.32.07.13.13.27.2.4.1.1.18.22.25.35.07.1.13.2.2.3.03.13.08.25.15.35.03.13.07.25.1.35s.07.2.1.3.05.19.05.29a.831.831 0 0 0-.15-.19.654.654 0 0 0-.15-.2l-.2-.2a.579.579 0 0 0-.25-.15c-.1-.07-.2-.12-.3-.15-.1-.07-.2-.12-.3-.15s-.22-.08-.35-.15c-.1-.03-.22-.07-.35-.1.07.03.13.08.2.15l.15.15.55.55c.03.07.08.13.15.2.03.03.07.08.1.15.07.07.12.13.15.2-.1 0-.2-.02-.3-.05h-.35c-.1-.03-.2-.05-.3-.05h-.35s-.22-.02-.35-.05h-1.9c-.07.03-.12.05-.15.05h-.15c.07-.13.13-.25.2-.35s.15-.18.25-.25c.1-.1.2-.18.3-.25s.2-.13.3-.2.22-.12.35-.15c.1-.03.22-.07.35-.1h.35c.1-.03.22-.03.35 0-.1-.07-.2-.13-.3-.2-.1-.03-.2-.07-.3-.1s-.22-.05-.35-.05h-.35c-.1.03-.22.07-.35.1-.1.03-.22.07-.35.1-.13.07-.25.13-.35.2-.13.07-.27.13-.4.2-.03-.07-.05-.13-.05-.2s.02-.15.05-.25c.03-.07.08-.15.15-.25.07-.07.13-.15.2-.25.1-.1.2-.18.3-.25.1-.1.22-.2.35-.3s.28-.22.45-.35c.17-.1.33-.2.5-.3-.17.03-.33.08-.5.15-.2.07-.37.12-.5.15-.17.07-.32.12-.45.15s-.27.08-.4.15c-.13.03-.23.07-.3.1-.1.07-.18.12-.25.15s-.12.07-.15.1-.05.07-.05.1c-.13-.27-.27-.5-.4-.7s-.25-.38-.35-.55-.2-.32-.3-.45-.2-.25-.3-.35c-.07-.1-.15-.2-.25-.3l-.2-.2a.654.654 0 0 1-.2-.15c-.07-.03-.13-.07-.2-.1.07.13.12.27.15.4s.08.25.15.35c.03.13.07.25.1.35.03.13.07.27.1.4 0 .1.02.2.05.3v.65c-.03.1-.07.2-.1.3-.03-.07-.1-.13-.2-.2-.07-.1-.15-.18-.25-.25s-.2-.15-.3-.25c-.13-.07-.27-.13-.4-.2-.09-.07-.2-.14-.32-.19-.01-.01-.02-.01-.03-.02h-.01c-.01-.01-.03-.02-.05-.03s-.04-.01-.07-.03c-.02-.01-.05-.02-.08-.04-.08-.03-.17-.08-.28-.13a.488.488 0 0 0-.07-.03c-.01-.01-.03-.02-.04-.03-.1-.05-.22-.1-.36-.15-.18-.09-.4-.19-.64-.3.17.17.33.32.5.45.2.17.37.33.5.5.17.13.32.28.45.45l.45.45c.13.17.25.32.35.45.13.17.25.33.35.5.1.13.18.28.25.45s.12.32.15.45c-.07-.1-.15-.2-.25-.3-.1-.07-.22-.15-.35-.25a.984.984 0 0 0-.4-.15c-.13-.07-.28-.13-.45-.2-.17-.03-.33-.07-.5-.1-.2-.03-.38-.07-.55-.1-.2-.03-.4-.05-.6-.05a4.4 4.4 0 0 0-.65-.05c.17.07.32.15.45.25.13.07.27.13.4.2.17.07.3.15.4.25.13.07.27.13.4.2.13.1.27.2.4.3.1.07.2.15.3.25.13.07.25.15.35.25l.3.3c-.17.03-.32.07-.45.1-.13.07-.28.12-.45.15-.13.03-.27.07-.4.1s-.27.08-.4.15c-.13.03-.27.08-.4.15-.13.03-.27.07-.4.1-.13.07-.27.13-.4.2-.13.03-.27.08-.4.15.03-.1.07-.18.1-.25s.07-.13.1-.2.08-.12.15-.15c.03-.07.08-.13.15-.2l.15-.15c.07-.03.13-.07.2-.1s.13-.07.2-.1.13-.05.2-.05a.492.492 0 0 0-.2-.05h-.25c-.07 0-.13.02-.2.05s-.13.07-.2.1-.15.07-.25.1c-.07.07-.13.12-.2.15l-.2.2c-.07.1-.13.18-.2.25-.03-.03-.05-.07-.05-.1v-.2c0-.03.02-.1.05-.2 0-.07.02-.13.05-.2s.08-.15.15-.25a2.207 2.207 0 0 1 .4-.55c.07-.13.15-.25.25-.35-.1.1-.2.18-.3.25s-.2.13-.3.2c-.07.07-.15.13-.25.2-.07.07-.13.12-.2.15l-.3.3c-.03.07-.07.1-.1.1v.1c-.13-.13-.27-.25-.4-.35l-.3-.3c-.1-.07-.2-.13-.3-.2a.579.579 0 0 0-.25-.15.654.654 0 0 0-.35-.2.504.504 0 0 0-.15-.05.504.504 0 0 0-.15-.05c.07.1.12.18.15.25.07.07.12.13.15.2.07.07.12.13.15.2s.07.13.1.2c.07.07.1.13.1.2.03.07.07.13.1.2s.05.13.05.2v.2a.483.483 0 0 1-.15-.1c-.07-.03-.15-.07-.25-.1-.07 0-.15-.02-.25-.05a.775.775 0 0 0-.3-.05c-.1-.03-.2-.05-.3-.05s-.22-.02-.35-.05h-.38c0-.01-.13-.03-.37-.05.17.07.32.12.45.15.13.07.27.13.4.2s.25.13.35.2c.13.07.25.13.35.2.13.07.25.13.35.2s.18.13.25.2l.25.25s.13.15.2.25c-.07-.03-.13-.07-.2-.1s-.15-.07-.25-.1c-.1 0-.2-.02-.3-.05-.1 0-.2.02-.3.05H8.6c-.13.03-.27.07-.4.1-.1.03-.22.07-.35.1s-.27.07-.4.1c.1.03.18.05.25.05.1 0 .2.02.3.05.1 0 .2.02.3.05.07 0 .15.02.25.05s.18.05.25.05c.1.03.18.07.25.1.1.03.18.07.25.1.1.03.18.07.25.1-.2.1-.4.22-.6.35-.17.13-.35.27-.55.4-.17.13-.33.28-.5.45-.17.13-.32.27-.45.4-.17.17-.32.33-.45.5-.17.13-.32.28-.45.45s-.25.33-.35.5zM5.05 27.55c-.07.03-.13.05-.2.05-.03.03-.08.07-.15.1-.03 0-.08.03-.15.1-.03.03-.08.07-.15.1l6.4 3.5c.34-.09.59-.15.76-.2-.06.01-.13.03-.21.05.2-.07.38-.12.55-.15.2-.03.38-.07.55-.1.2-.07.38-.12.55-.15.2-.03.4-.07.6-.1s.38-.07.55-.1c.2 0 .38-.02.55-.05h.5c.2 0 .4.02.6.05.2 0 .4.03.6.1.17.03.37.07.6.1.13.07.32.13.55.2.27.07.47.12.6.15.2.07.38.12.55.15.2.03.4.07.6.1s.38.05.55.05c.2 0 .4-.02.6-.05.17-.03.35-.07.55-.1s.4-.08.6-.15c.13-.03.33-.08.6-.15s.47-.13.6-.2c.2-.03.38-.07.55-.1.2-.07.4-.1.6-.1.2-.03.4-.05.6-.05.17 0 .35.02.55.05.17 0 .35.02.55.05.17.03.35.08.55.15.17.03.35.08.55.15.33.1.53.15.6.15.2.07.38.12.55.15.2.03.38.07.55.1.2.03.4.07.6.1l6.3-3.45a.654.654 0 0 1-.15-.2c-.07-.03-.13-.07-.2-.1a.483.483 0 0 0-.15-.1c-.03-.03-.07-.05-.1-.05a.504.504 0 0 0-.15-.05c-.07 0-.12-.02-.15-.05h-.3c-.2 0-.4.02-.6.05s-.4.07-.6.1-.42.08-.65.15l-.65.15c-.27.07-.47.13-.6.2-.23.03-.45.07-.65.1-.23.07-.43.1-.6.1-.23.03-.45.05-.65.05s-.4-.02-.6-.05c-.17 0-.35-.03-.55-.1-.2-.03-.4-.08-.6-.15a8.65 8.65 0 0 1-.55-.15c-.27-.07-.47-.12-.6-.15-.2-.07-.38-.12-.55-.15-.2-.03-.4-.07-.6-.1s-.38-.05-.55-.05c-.2 0-.4.02-.6.05-.17.03-.37.07-.6.1-.17.03-.35.08-.55.15-.13.03-.33.08-.6.15s-.47.13-.6.2c-.2.03-.38.07-.55.1-.23.07-.43.1-.6.1-.2.03-.4.05-.6.05-.17 0-.35-.02-.55-.05-.2 0-.4-.03-.6-.1-.17-.03-.35-.08-.55-.15-.13-.03-.33-.08-.6-.15a8.65 8.65 0 0 0-.55-.15c-.23-.07-.43-.12-.6-.15-.2-.03-.4-.07-.6-.1s-.4-.05-.6-.05-.4.02-.6.05-.4.07-.6.1-.42.08-.65.15l-.65.15c-.27.07-.48.13-.65.2-.23.03-.43.07-.6.1-.23.07-.45.1-.65.1-.2.03-.4.05-.6.05s-.38-.02-.55-.05c-.2 0-.4-.03-.6-.1-.17-.03-.35-.08-.55-.15-.13-.03-.32-.08-.55-.15s-.42-.12-.55-.15c-.2-.07-.37-.12-.5-.15-.2-.03-.38-.07-.55-.1-.2-.03-.38-.05-.55-.05h-.4s-.12.02-.15.05h-.2zM20 38.45 0 27.55v-11.3s.33-.15 1-.45c.8-.33 1.53-.62 2.2-.85.07-.17.15-.35.25-.55.1-.17.2-.33.3-.5.1-.2.2-.38.3-.55s.22-.33.35-.5.27-.32.4-.45c.13-.17.27-.33.4-.5s.28-.32.45-.45c.13-.17.28-.32.45-.45-.03-.1-.05-.2-.05-.3a.356.356 0 0 1 0-.25c0-.1.02-.18.05-.25 0-.07.03-.13.1-.2.03-.1.08-.17.15-.2l.2-.2s.15-.12.25-.15c.1-.07.2-.12.3-.15l-1.25-.95c.07-.1.13-.2.2-.3s.15-.18.25-.25c.07-.07.15-.12.25-.15.07-.07.15-.12.25-.15s.2-.05.3-.05h.35c.1 0 .2.02.3.05.1 0 .2.02.3.05L7.6 6.4c.13-.07.28-.13.45-.2.13-.03.27-.07.4-.1s.27-.05.4-.05.28.02.45.05c.13.03.27.07.4.1s.27.07.4.1c.13.07.27.13.4.2.1.07.22.13.35.2l-.35-.85c0-.03.03-.08.1-.15.07-.03.15-.07.25-.1.07-.03.17-.07.3-.1.1-.03.22-.07.35-.1h.35a1.23 1.23 0 0 1 .7 0c.1 0 .18.02.25.05-.03-.07-.07-.13-.1-.2-.03-.1-.07-.2-.1-.3-.07-.1-.13-.2-.2-.3s-.13-.2-.2-.3c-.07-.13-.13-.25-.2-.35s-.13-.2-.2-.3c-.1-.13-.18-.23-.25-.3-.07-.1-.13-.2-.2-.3.1-.03.2-.05.3-.05.13-.03.25-.05.35-.05.13-.03.25-.05.35-.05h.4c.13.03.28.05.45.05.13.03.27.07.4.1.17.03.33.08.5.15.13.03.28.08.45.15v-.2s-.02-.13-.05-.2c0-.07-.02-.15-.05-.25a.492.492 0 0 1-.05-.2c-.03-.07-.07-.15-.1-.25-.03-.07-.07-.13-.1-.2s-.07-.15-.1-.25c-.03-.07-.07-.15-.1-.25.27-.03.52-.05.75-.05.2.03.42.08.65.15.2.03.4.12.6.25.17.1.35.22.55.35l.45.45c.17.13.32.28.45.45s.27.33.4.5c.1.13.22.32.35.55.1-.03.22-.07.35-.1s.27-.07.4-.1c.17-.07.32-.1.45-.1.13-.03.28-.07.45-.1.13-.03.28-.07.45-.1h.4c.13-.03.27-.05.4-.05h.3c.07 0 .13.02.2.05.07 0 .13.02.2.05.07 0 .13.02.2.05s.13.07.2.1.12.08.15.15c.07.03.13.08.2.15l.2.2c.07.07.13.15.2.25.03-.13-.02-.48-.15-1.05.1-.03.2-.03.3 0 .1 0 .2.02.3.05.13.03.25.08.35.15.13.07.27.15.4.25l.7.7c.1.17.2.32.3.45.1.17.2.35.3.55.13 0 .25.02.35.05.13 0 .25.02.35.05s.2.07.3.1c.1 0 .2.03.3.1.07.03.15.07.25.1.07.03.13.08.2.15s.12.13.15.2c.07.03.12.1.15.2l.1.65c.53.2 1.05.4 1.55.6.5.23.98.48 1.45.75.47.23.92.5 1.35.8l1.2.9c.4.33.77.67 1.1 1s.65.68.95 1.05.57.75.8 1.15.45.8.65 1.2c1.13.47 2.25.93 3.35 1.4v11.3l-20 10.9zM1.4 26.3l.15.05c.07-.03.17-.08.3-.15.1-.03.23-.08.4-.15.17-.03.35-.07.55-.1.17-.07.37-.12.6-.15.2-.03.4-.07.6-.1.23-.03.45-.07.65-.1.23-.03.43-.05.6-.05h.55s.35.02.55.05c.17 0 .35.03.55.1.17.03.35.07.55.1.1.03.27.1.5.2.27.07.45.12.55.15.2.07.38.12.55.15.2.03.4.07.6.1h.55c.2 0 .4-.02.6-.05.2 0 .42-.03.65-.1.17-.03.37-.07.6-.1.17-.03.38-.1.65-.2l.65-.15c.23-.07.45-.12.65-.15s.4-.07.6-.1h.6c.2 0 .4.02.6.05.2 0 .4.03.6.1.17.03.37.07.6.1.13.03.32.1.55.2.27.07.47.12.6.15.2.07.38.12.55.15.2.03.4.07.6.1h.55c.2 0 .4-.02.6-.05.17 0 .35-.03.55-.1.2-.03.4-.07.6-.1.13-.03.33-.1.6-.2.27-.07.47-.12.6-.15.2-.07.38-.12.55-.15.2-.03.4-.07.6-.1h.6c.17 0 .35.02.55.05.2 0 .4.03.6.1.17.03.35.07.55.1.13.03.33.1.6.2.23.07.42.12.55.15.23.07.43.12.6.15.2.03.38.07.55.1h.6c.2 0 .4-.02.6-.05.2 0 .42-.03.65-.1.2-.03.42-.07.65-.1.13-.03.33-.1.6-.2l.65-.15c.23-.07.45-.12.65-.15s.4-.07.6-.1h1.15c.2.03.42.07.65.1.2 0 .42.03.65.1.23.03.45.07.65.1.2.07.4.12.6.15s.37.08.5.15c.17.03.3.07.4.1.1.07.18.12.25.15l.05-.05v-3s-.03-.02-.1-.05c-.13-.07-.25-.12-.35-.15-.17-.1-.33-.18-.5-.25-.2-.1-.42-.18-.65-.25-.23-.1-.45-.18-.65-.25-.27-.1-.52-.18-.75-.25s-.47-.12-.7-.15-.43-.05-.6-.05c-.2 0-.4.02-.6.05s-.4.08-.6.15-.42.15-.65.25c-.13.03-.35.12-.65.25-.27.1-.47.18-.6.25-.23.1-.45.18-.65.25-.23.07-.43.12-.6.15-.23.03-.45.05-.65.05s-.4-.02-.6-.05c-.17-.03-.35-.08-.55-.15s-.4-.15-.6-.25c-.13-.07-.32-.15-.55-.25-.27-.13-.47-.22-.6-.25-.2-.1-.38-.18-.55-.25a3.74 3.74 0 0 0-1.15-.2c-.2 0-.4.02-.6.05-.17.03-.37.08-.6.15-.17.07-.35.15-.55.25-.13.03-.33.12-.6.25s-.47.22-.6.25c-.2.1-.38.18-.55.25-.23.07-.43.12-.6.15-.2.03-.4.05-.6.05a3.74 3.74 0 0 1-1.15-.2 8.15 8.15 0 0 1-.55-.25c-.13-.03-.33-.12-.6-.25-.23-.13-.42-.22-.55-.25-.23-.1-.43-.18-.6-.25-.2-.07-.4-.12-.6-.15s-.4-.05-.6-.05-.4.02-.6.05-.4.08-.6.15-.42.15-.65.25c-.13.03-.35.12-.65.25-.27.13-.48.22-.65.25-.23.1-.43.18-.6.25-.23.07-.45.12-.65.15s-.4.05-.6.05-.38-.02-.55-.05c-.2-.03-.4-.08-.6-.15a8.15 8.15 0 0 1-.55-.25c-.13-.07-.32-.15-.55-.25-.23-.13-.42-.22-.55-.25-.2-.1-.37-.18-.5-.25-.2-.07-.38-.12-.55-.15-.2-.03-.38-.05-.55-.05s-.37.02-.6.05-.47.08-.7.15-.48.15-.75.25c-.23.07-.47.15-.7.25-.2.07-.42.15-.65.25-.17.07-.33.15-.5.25-.13.03-.25.08-.35.15-.03 0-.08.02-.15.05v2.95zm.15-8.75c-.03 0-.08.02-.15.05v3.75s.05-.02.15-.05c.2-.1.32-.15.35-.15.17-.1.33-.18.5-.25.23-.07.45-.15.65-.25.23-.1.47-.18.7-.25.27-.1.52-.17.75-.2.23-.1.47-.17.7-.2s.43-.05.6-.05.35.02.55.05c.17.03.35.08.55.15.13.07.32.15.55.25.1.07.27.15.5.25.23.13.42.22.55.25.2.1.38.18.55.25a3.74 3.74 0 0 0 1.15.2c.2 0 .4-.02.6-.05s.42-.08.65-.15c.17-.07.37-.15.6-.25.17-.03.38-.12.65-.25.3-.1.52-.18.65-.25.23-.1.45-.17.65-.2.2-.1.4-.17.6-.2.23-.03.43-.05.6-.05.2 0 .4.02.6.05s.4.08.6.15c.17.07.37.15.6.25.13.07.32.15.55.25.27.13.47.22.6.25.2.1.38.18.55.25a3.74 3.74 0 0 0 1.15.2c.2 0 .4-.02.6-.05.17-.03.35-.08.55-.15s.4-.15.6-.25c.13-.03.33-.12.6-.25.27-.1.47-.18.6-.25.2-.1.38-.17.55-.2.2-.1.4-.17.6-.2s.4-.05.6-.05a3.74 3.74 0 0 1 1.15.2c.17.07.35.15.55.25.13.07.33.15.6.25.23.13.42.22.55.25.23.1.43.18.6.25.2.07.38.12.55.15.23.03.43.05.6.05.2 0 .4-.02.6-.05s.42-.08.65-.15c.2-.07.42-.15.65-.25.13-.03.33-.12.6-.25.3-.1.52-.18.65-.25.23-.1.45-.17.65-.2.2-.1.4-.17.6-.2s.4-.05.6-.05.4.02.6.05c.23.03.47.08.7.15s.48.15.75.25c.2.07.42.15.65.25s.45.18.65.25c.17.1.33.18.5.25.1.07.22.12.35.15.03.03.07.05.1.05V17.6s-.03-.02-.1-.05c-.1-.07-.22-.12-.35-.15-.17-.07-.33-.13-.5-.2-.2-.1-.42-.18-.65-.25-.23-.1-.45-.18-.65-.25-.27-.07-.52-.13-.75-.2s-.47-.12-.7-.15-.43-.05-.6-.05c-.2 0-.4.03-.6.1-.2.03-.4.1-.6.2s-.42.22-.65.35c-.13.07-.35.18-.65.35-.27.17-.47.28-.6.35-.23.13-.45.25-.65.35-.23.1-.43.17-.6.2-.23.07-.45.1-.65.1s-.4-.03-.6-.1c-.17-.03-.35-.1-.55-.2s-.4-.22-.6-.35c-.13-.07-.32-.18-.55-.35-.27-.17-.47-.28-.6-.35-.2-.13-.38-.25-.55-.35-.2-.1-.4-.17-.6-.2-.2-.07-.38-.1-.55-.1-.2 0-.4.03-.6.1-.17.03-.37.1-.6.2-.17.1-.35.22-.55.35-.13.07-.33.18-.6.35s-.47.28-.6.35c-.2.13-.38.25-.55.35-.23.1-.43.17-.6.2-.2.07-.4.1-.6.1-.17 0-.35-.03-.55-.1-.2-.03-.4-.1-.6-.2-.17-.1-.35-.22-.55-.35-.13-.07-.33-.18-.6-.35-.23-.17-.42-.28-.55-.35-.23-.13-.43-.25-.6-.35-.2-.1-.4-.17-.6-.2-.2-.07-.4-.1-.6-.1s-.4.03-.6.1c-.2.03-.4.1-.6.2s-.42.22-.65.35c-.13.07-.35.18-.65.35-.27.17-.48.28-.65.35-.23.13-.43.25-.6.35-.23.1-.45.17-.65.2-.2.07-.4.1-.6.1s-.38-.03-.55-.1c-.2-.03-.4-.1-.6-.2-.17-.1-.35-.22-.55-.35-.13-.07-.32-.18-.55-.35s-.42-.28-.55-.35c-.2-.13-.37-.25-.5-.35-.2-.1-.38-.17-.55-.2-.2-.07-.38-.1-.55-.1s-.37.02-.6.05-.47.08-.7.15-.48.13-.75.2c-.23.07-.47.15-.7.25-.2.07-.42.15-.65.25-.17.07-.33.13-.5.2-.13.03-.25.08-.35.15z"/><path fill="#4B874B" d="M18.416 7.908h-.01.02-.01l.026.001.086.004.016.001c.053.002.106 0 .158.005h-.05c.037 0 .075.002.112.007.064-.12.121-.233.186-.326.07-.1.15-.18.25-.25.1-.1.2-.18.3-.25s.2-.13.3-.2.22-.12.35-.15c.1-.03.22-.07.35-.1h.35c.1-.03.22-.03.35 0-.1-.07-.2-.13-.3-.2-.1-.03-.2-.07-.3-.1s-.22-.05-.35-.05h-.35c-.1.03-.22.07-.35.1-.1.03-.22.07-.35.1-.13.07-.25.13-.35.2-.13.07-.27.13-.4.2-.03-.07-.05-.13-.05-.2s.02-.15.05-.25c.03-.07.08-.15.15-.25.07-.07.13-.15.2-.25.1-.1.2-.18.3-.25.1-.1.22-.2.35-.3s.28-.22.45-.35c.17-.1.33-.2.5-.3-.17.03-.33.08-.5.15-.2.07-.37.12-.5.15-.17.07-.32.12-.45.15s-.27.08-.4.15c-.13.03-.23.07-.3.1-.1.07-.18.12-.25.15s-.12.07-.15.1-.05.07-.05.1c-.13-.27-.27-.5-.4-.7s-.25-.38-.35-.55-.2-.32-.3-.45-.2-.25-.3-.35c-.07-.1-.15-.2-.25-.3l-.2-.2a.654.654 0 0 1-.2-.15c-.07-.03-.13-.07-.2-.1.07.13.12.27.15.4s.08.25.15.35c.03.13.07.25.1.35.03.13.07.27.1.4 0 .1.02.2.05.3v.65c-.03.1-.07.2-.1.3-.03-.07-.1-.13-.2-.2-.07-.1-.15-.18-.25-.25s-.2-.15-.3-.25c-.13-.07-.27-.13-.4-.2-.09-.07-.2-.14-.32-.19-.01-.01-.02-.01-.03-.02h-.01a.488.488 0 0 0-.07-.03.219.219 0 0 0-.05-.03c-.07-.02-.15-.06-.22-.09 0-.01-.01-.01-.01-.01h-.01c-.18-.08-.43-.19-.73-.33.05.02.1.03.14.05-.18-.09-.4-.19-.64-.3.17.17.33.32.5.45.2.17.37.33.5.5.17.13.32.28.45.45l.45.45c.13.17.25.32.35.45.13.17.25.33.35.5.1.13.18.28.25.45s.12.32.15.45c-.07-.1-.15-.2-.25-.3-.1-.07-.22-.15-.35-.25a.984.984 0 0 0-.4-.15c-.13-.07-.28-.13-.45-.2-.17-.03-.33-.07-.5-.1-.2-.03-.38-.07-.55-.1-.2-.03-.4-.05-.6-.05a4.4 4.4 0 0 0-.65-.05c.17.07.32.15.45.25.13.07.27.13.4.2.17.07.3.15.4.25.13.07.27.13.4.2.13.1.27.2.4.3.1.07.2.15.3.25.13.07.25.15.35.25l.293.293h.01l.02-.001.052-.003.094-.01a9.562 9.562 0 0 0 .563-.105l.339-.078c.113-.025.227-.047.342-.065.231-.037.463-.066.695-.094.116-.014.231-.03.346-.048s.23-.041.346-.056c.111-.015.222-.024.334-.026l.047.002h.004l.031-.001zm3.234-.958.55.55c.03.07.08.13.15.2.03.03.07.08.1.15a.645.645 0 0 1 .145.194h.049c.018.007.036.011.054.016.164.036.332.042.497.065l.122.019c.04.007.081.011.122.019.079.016.155.041.233.058.161.035.326.044.486.081a10.308 10.308 0 0 0 .487.092c.041.007.083.013.124.022l.11.023c.064.011.128.025.189.048.031-.027.07-.061.132-.087.07-.07.13-.1.2-.1.03-.03.08-.07.15-.1s.13-.05.2-.05h.4c.07 0 .13.02.2.05.07 0 .13.02.2.05a.276.276 0 0 0-.15-.15c-.03-.03-.08-.07-.15-.1s-.13-.07-.2-.1-.13-.05-.2-.05h-.45c-.07 0-.15.02-.25.05-.07 0-.15.02-.25.05V7.8c0-.03.02-.07.05-.1l.15-.15c.03-.03.08-.07.15-.1s.13-.07.2-.1c.07-.07.15-.12.25-.15s.2-.07.3-.1.22-.07.35-.1h-.95c-.07.03-.15.05-.25.05h-.2c-.07.03-.12.05-.15.05s-.07.02-.1.05c-.02 0-.04.01-.05.03-.03-.19-.08-.35-.15-.48-.03-.13-.07-.27-.1-.4-.07-.1-.12-.2-.15-.3s-.07-.18-.1-.25-.07-.13-.1-.2-.07-.12-.1-.15a.483.483 0 0 0-.1-.15l-.1-.1v.25c.03.1.05.18.05.25v.25c.03.07.05.15.05.25 0 .07-.02.13-.05.2v.2c-.03.07-.05.13-.05.2-.03.03-.07.08-.1.15-.03-.07-.07-.13-.1-.2a.483.483 0 0 1-.1-.15l-.2-.2c-.03-.07-.1-.13-.2-.2-.07-.07-.13-.15-.2-.25-.07-.07-.15-.13-.25-.2-.07-.07-.17-.13-.3-.2l-.22-.22c.08.12.16.23.22.32.07.13.13.27.2.4.1.1.18.22.25.35.07.1.13.2.2.3.03.13.08.25.15.35.03.13.07.25.1.35s.07.2.1.3.05.19.05.29a.831.831 0 0 0-.15-.19.654.654 0 0 0-.15-.2l-.2-.2a.579.579 0 0 0-.25-.15c-.1-.07-.2-.12-.3-.15-.1-.07-.2-.12-.3-.15s-.22-.08-.35-.15c-.1-.03-.22-.07-.35-.1.07.03.13.08.2.15l.15.15z"/><path fill="#BBA96B" d="M33.3 13.3c-.27-.3-.55-.6-.85-.9s-.62-.58-.95-.85l-1.1-.8c-.4-.23-.8-.47-1.2-.7-.43-.2-.87-.4-1.3-.6-.47-.2-.93-.38-1.4-.55-.47-.13-.95-.27-1.45-.4.001-.001.006-.003.007-.005h-.063a.43.43 0 0 0-.05-.019c-.071-.022-.146-.031-.218-.046-.039-.008-.077-.018-.117-.025-.041-.007-.083-.013-.124-.021l-.243-.044c-.081-.015-.162-.035-.243-.051-.161-.031-.326-.041-.485-.082-.078-.02-.155-.042-.235-.054-.082-.012-.163-.027-.245-.037-.083-.01-.167-.017-.25-.027a2.506 2.506 0 0 1-.125-.018c-.038-.007-.078-.013-.114-.028h.018A1.086 1.086 0 0 1 22.3 8h-.35c-.1-.03-.2-.05-.3-.05h-.35c-.1 0-.22-.02-.35-.05h-1.9c-.07.03-.12.05-.15.05h-.15l.013-.022h-.021c-.015 0-.035.003-.05 0a.31.31 0 0 0-.044-.007l-.012-.001h.003-.027c-.023 0-.046-.003-.069-.006-.055-.002-.109-.006-.164-.006a3.085 3.085 0 0 0-.428.047c-.23.041-.461.072-.693.099-.233.027-.466.061-.697.102-.228.041-.452.105-.679.149-.111.021-.222.044-.333.061a2.267 2.267 0 0 1-.339.027h-.017l.007.007c-.17.03-.32.07-.45.1-.13.07-.28.12-.45.15-.13.03-.27.07-.4.1s-.27.08-.4.15c-.13.03-.27.08-.4.15-.13.03-.27.07-.4.1-.13.07-.27.13-.4.2-.13.03-.27.08-.4.15l.003-.007-.013.007-.021.012-.009.005c-.022.011-.043.022-.066.032l-.111.066c-.041.024-.083.045-.124.069l-.022.013-.036.021.005-.002.015-.007a.341.341 0 0 1-.041.022l.021-.013-.019.008c-.025.013-.049.03-.075.042-.032.014-.064.026-.096.038-.105.045-.209.089-.309.145l-.031.019c-.045.027-.091.05-.137.075l-.057.032-.009.005-.006.003c.006-.003 0 0-.001.001-.009.005-.002.001 0 0-.002.001-.009.005 0 0l-.009.005-.006.003-.054.03-.128.067-.003.002-.008.004-.008.004c-.001.001-.008.004-.001.001l-.006.003-.004.002-.002.001-.007.004-.002.001a.044.044 0 0 0-.009.005l-.029.016c-.081.046-.161.094-.241.141l-.12.069-.063.034.006-.003-.003.002-.021.011-.05.027a3.505 3.505 0 0 1-.354.165.143.143 0 0 0-.02.014c-.018.013-.033.03-.052.042l-.021.012.004.002c-.2.1-.4.22-.6.35-.17.13-.35.27-.55.4-.17.13-.33.28-.5.45-.17.13-.32.27-.45.4-.17.17-.32.33-.45.5-.17.13-.32.28-.45.45s-.25.33-.35.5c-.13.17-.25.33-.35.5.2 0 .4.02.6.05.17.07.35.15.55.25.17.07.35.17.55.3.1.1.28.23.55.4.23.13.4.25.5.35.2.13.38.23.55.3.2.1.38.17.55.2.2.07.4.1.6.1.17 0 .37-.02.6-.05.2-.07.4-.15.6-.25.2-.07.42-.17.65-.3.17-.07.38-.18.65-.35.3-.17.52-.3.65-.4.23-.1.45-.2.65-.3.23-.1.45-.17.65-.2.2-.07.4-.1.6-.1s.4.02.6.05c.2.07.4.15.6.25.17.07.35.17.55.3.13.07.32.18.55.35.27.17.45.28.55.35.23.13.42.23.55.3.2.1.4.17.6.2.2.07.38.1.55.1.2 0 .4-.02.6-.05.17-.07.35-.15.55-.25.17-.07.37-.17.6-.3.13-.07.33-.18.6-.35.23-.17.42-.28.55-.35.23-.13.43-.23.6-.3.2-.1.38-.17.55-.2.23-.07.43-.1.6-.1s.35.03.55.1c.17.03.35.1.55.2.17.1.35.2.55.3.13.07.33.2.6.4.23.13.42.25.55.35.2.13.38.23.55.3.2.1.4.17.6.2.2.07.4.1.6.1.17 0 .35-.02.55-.05.2-.07.4-.13.6-.2l.6-.3c.13-.1.35-.22.65-.35.27-.17.47-.3.6-.4.23-.1.45-.2.65-.3.23-.1.45-.18.65-.25.23-.07.45-.1.65-.1-.23-.33-.48-.67-.75-1z"/><path fill="#4B874B" d="m10.836 10.045.118-.071c.016-.009.034-.014.05-.023l.026-.016.028-.017.009-.005-.011.006-.003.001.027-.014-.007.004-.006.003.003-.002.031-.015.059-.027.125-.053.027-.011c.055-.023.107-.055.163-.076l.008-.003.077-.043.089-.054c.038-.022.075-.045.113-.066l-.003.001c-.016.007.014-.009.036-.02.024-.012.047-.025.072-.036l.008-.004a.437.437 0 0 0 .022-.012l.005-.003c.03-.095.067-.173.096-.24.03-.07.07-.13.1-.2s.08-.12.15-.15c.03-.07.08-.13.15-.2l.15-.15c.07-.03.13-.07.2-.1s.13-.07.2-.1.13-.05.2-.05a.492.492 0 0 0-.2-.05H12.7c-.07 0-.13.02-.2.05s-.13.07-.2.1-.15.07-.25.1c-.07.07-.13.12-.2.15l-.2.2c-.07.1-.13.18-.2.25A.155.155 0 0 1 11.4 9v-.2c0-.03.02-.1.05-.2 0-.07.02-.13.05-.2s.08-.15.15-.25a2.207 2.207 0 0 1 .4-.55c.07-.13.15-.25.25-.35-.1.1-.2.18-.3.25s-.2.13-.3.2c-.07.07-.15.13-.25.2-.07.07-.13.12-.2.15l-.3.3c-.03.07-.07.1-.1.1v.1c-.13-.13-.27-.25-.4-.35l-.3-.3c-.1-.07-.2-.13-.3-.2a.579.579 0 0 0-.25-.15.654.654 0 0 0-.35-.2.504.504 0 0 0-.15-.05.504.504 0 0 0-.15-.05c.07.1.12.18.15.25.07.07.12.13.15.2.07.07.12.13.15.2s.07.13.1.2c.07.07.1.13.1.2.03.07.07.13.1.2s.05.13.05.2v.2a.483.483 0 0 1-.15-.1c-.07-.03-.15-.07-.25-.1-.07 0-.15-.02-.25-.05a.775.775 0 0 0-.3-.05c-.1-.03-.2-.05-.3-.05s-.22-.02-.35-.05h-.38c0-.01-.13-.03-.37-.05.17.07.32.12.45.15.13.07.27.13.4.2s.25.13.35.2c.13.07.25.13.35.2.13.07.25.13.35.2s.18.13.25.2l.25.25s.13.15.2.25c-.07-.03-.13-.07-.2-.1s-.15-.07-.25-.1c-.1 0-.2-.02-.3-.05-.1 0-.2.02-.3.05H8.6c-.13.03-.27.07-.4.1-.1.03-.22.07-.35.1s-.27.07-.4.1c.1.03.18.05.25.05.1 0 .2.02.3.05.1 0 .2.02.3.05.07 0 .15.02.25.05s.18.05.25.05c.1.03.18.07.25.1.1.03.18.07.25.1.092.028.164.063.23.092.03-.023.065-.039.1-.057a.424.424 0 0 1 .027-.016 1.493 1.493 0 0 1 .139-.066 2.62 2.62 0 0 0 .121-.054l.064-.031.03-.015.026-.014.009-.005.013-.007.059-.033.119-.07a7.45 7.45 0 0 1 .246-.141l.155-.082.11-.057c.029-.015.058-.032.088-.049z"/></svg>