<svg xmlns="http://www.w3.org/2000/svg" width="40" height="40"><path fill="#6E5050" fill-rule="evenodd" d="M21.85 35.2c.133 0 .25-.017.35-.05.133 0 .25-.017.35-.05a1.66 1.66 0 0 1 .4-.05c.1-.033.217-.067.35-.1.1-.033.217-.05.35-.05.1-.033.217-.067.35-.1.1-.033.217-.067.35-.1.1-.033.217-.067.35-.1l1.9 1.3.4-2.25.3-.2a1.1 1.1 0 0 0 .35-.15l.3-.2.3-.2.3-.2.3-.2c.1-.1.2-.183.3-.25l.3-.2 4.7 2.1-2.1-4.7.2-.3c.1-.1.183-.2.25-.3l.2-.3.2-.3.2-.3c.067-.1.117-.2.15-.3.067-.1.133-.217.2-.35.067-.1.117-.2.15-.3l2.3-.4-1.3-1.9c.033-.133.067-.25.1-.35.033-.133.067-.25.1-.35.033-.133.067-.25.1-.35 0-.133.017-.25.05-.35.033-.133.067-.25.1-.35 0-.133.017-.267.05-.4.033-.1.05-.217.05-.35.033-.133.05-.25.05-.35L40 20l-4.8-1.85c0-.133-.017-.25-.05-.35a1.484 1.484 0 0 1-.05-.35 1.66 1.66 0 0 1-.05-.4 4.853 4.853 0 0 1-.1-.35 4.853 4.853 0 0 1-.1-.35c0-.1-.017-.217-.05-.35a4.853 4.853 0 0 1-.1-.35 2.632 2.632 0 0 0-.15-.35l1.35-1.9-2.3-.4c-.067-.1-.117-.2-.15-.3a3.302 3.302 0 0 0-.2-.35l-.2-.3c-.033-.1-.083-.2-.15-.3l-.2-.3c-.067-.1-.15-.2-.25-.3l-.2-.3-.2-.3 2.1-4.7-4.7 2.1-.3-.2c-.1-.067-.2-.15-.3-.25l-.3-.2-.3-.2c-.1-.067-.2-.117-.3-.15l-.3-.2a3.302 3.302 0 0 0-.35-.2c-.1-.033-.2-.083-.3-.15l-.4-2.3-1.95 1.35a4.853 4.853 0 0 0-.35-.1 4.853 4.853 0 0 0-.35-.1l-.3-.1a4.853 4.853 0 0 1-.35-.1 1.66 1.66 0 0 0-.4-.05 4.853 4.853 0 0 0-.35-.1c-.1 0-.217-.017-.35-.05a1.12 1.12 0 0 1-.35-.05L20 0l-1.85 4.8c-.133 0-.25.017-.35.05-.133.033-.25.05-.35.05l-.4.1c-.1 0-.217.017-.35.05-.1.033-.217.067-.35.1-.1.033-.217.067-.35.1-.1 0-.217.017-.35.05-.1.067-.2.117-.3.15L13.4 4.1 13 6.4c-.1.067-.2.117-.3.15-.133.067-.25.133-.35.2l-.3.2c-.1.067-.2.117-.3.15l-.3.2c-.1.067-.2.15-.3.25l-.3.2-.3.2-4.7-2.1 2.1 4.7-.2.3c-.067.1-.15.2-.25.3l-.2.3-.2.3c-.067.1-.117.2-.15.3l-.2.3c-.067.1-.133.217-.2.35-.067.1-.117.2-.15.3l-2.3.4 1.35 1.9c-.033.1-.067.217-.1.35s-.067.25-.1.35c-.033.133-.067.25-.1.35-.033.133-.067.25-.1.35a1.66 1.66 0 0 0-.05.4c-.033.1-.067.217-.1.35 0 .1-.017.217-.05.35 0 .133-.017.25-.05.35L0 20l4.8 1.85c0 .133.017.25.05.35 0 .133.017.25.05.35.033.133.05.267.05.4.033.1.067.217.1.35.033.1.067.217.1.35 0 .1.017.217.05.35.033.1.067.217.1.35.033.1.067.217.1.35l-1.3 1.9 2.3.4c.067.1.117.2.15.3.067.133.133.25.2.35s.117.2.15.3l.2.3.2.3.2.3c.1.1.183.2.25.3l.2.3-2.1 4.7 4.7-2.1.3.2c.1.1.2.183.3.25l.3.2.3.2.3.2c.1.067.2.117.3.15.1.067.217.133.35.2l.3.2.4 2.25 1.9-1.3c.133.033.25.067.35.1.133.033.25.067.35.1.133.033.25.067.35.1.133.033.25.05.35.05.133.033.25.067.35.1.133 0 .267.017.4.05.1.033.217.05.35.05.133.033.25.05.35.05L20 40l1.85-4.8m-1.1-1.75c.4-.033.783-.067 1.15-.1.4-.067.783-.133 1.15-.2l1.1-.3c.367-.133.717-.267 1.05-.4.367-.167.717-.333 1.05-.5s.65-.35.95-.55c.333-.2.65-.417.95-.65.267-.233.55-.467.85-.7l-2.75-2.75a.448.448 0 0 1 .2-.05.448.448 0 0 1 .2-.05l.2-.1c.067 0 .133-.017.2-.05s.133-.05.2-.05l.2-.1a.393.393 0 0 1 .15-.05l.2-.1L30.05 29l.5-.6c.167-.2.333-.417.5-.65.133-.2.267-.417.4-.65l.4-.7c.133-.233.25-.467.35-.7.133-.233.25-.467.35-.7.1-.267.183-.533.25-.8.1-.233.183-.483.25-.75l.4-.4c.1-.133.217-.267.35-.4l.3-.4c.1-.167.2-.317.3-.45s.2-.283.3-.45c.067-.133.15-.283.25-.45.067-.133.133-.283.2-.45a1.75 1.75 0 0 0 .15-.45 5.843 5.843 0 0 0-.2-.45 1.091 1.091 0 0 0-.2-.45 1.955 1.955 0 0 0-.25-.45 7.132 7.132 0 0 0-.25-.45l-.3-.4c-.1-.133-.217-.283-.35-.45a3.793 3.793 0 0 0-.35-.4 3.793 3.793 0 0 0-.35-.4 4.96 4.96 0 0 0-.25-.75 4.96 4.96 0 0 0-.25-.75 5.163 5.163 0 0 0-.35-.75 6.921 6.921 0 0 0-.35-.7l-.4-.7c-.133-.2-.283-.417-.45-.65-.133-.2-.283-.417-.45-.65l-.5-.6-2.25 2.25a.448.448 0 0 0-.2-.05l-.2-.1a.393.393 0 0 0-.15-.05l-.2-.1c-.067 0-.133-.017-.2-.05s-.133-.05-.2-.05l-.2-.1a.448.448 0 0 1-.2-.05L29 9.95c-.267-.233-.55-.467-.85-.7s-.617-.45-.95-.65c-.3-.2-.617-.383-.95-.55s-.683-.317-1.05-.45a5.646 5.646 0 0 0-1.05-.4 6.817 6.817 0 0 0-1.1-.3c-.367-.1-.75-.183-1.15-.25a155.3 155.3 0 0 0-1.15-.1v5.25h-1.5V6.55c-.4.033-.783.067-1.15.1-.4.067-.783.15-1.15.25a6.817 6.817 0 0 0-1.1.3c-.367.1-.717.233-1.05.4-.367.133-.717.283-1.05.45s-.65.35-.95.55-.6.417-.9.65l-.9.7 2.75 2.75c-.567.2-1.083.383-1.55.55L9.95 11l-.5.6c-.167.2-.317.417-.45.65-.167.2-.317.417-.45.65l-.4.7c-.133.233-.25.467-.35.7-.133.233-.25.483-.35.75a4.96 4.96 0 0 0-.25.75c-.1.267-.183.517-.25.75l-.4.4c-.1.133-.217.267-.35.4-.1.167-.2.317-.3.45l-.3.4c-.1.167-.2.317-.3.45-.067.167-.15.317-.25.45a5.843 5.843 0 0 1-.2.45 3.476 3.476 0 0 0-.15.45c.067.167.133.317.2.45.033.167.1.317.2.45.067.167.15.317.25.45.067.167.15.317.25.45l.3.4c.1.167.217.317.35.45.1.133.217.267.35.4.1.133.217.267.35.4.067.267.15.517.25.75.067.267.15.533.25.8.1.233.217.467.35.7.1.233.217.467.35.7l.4.7c.133.233.283.45.45.65.133.233.283.45.45.65l.5.6 2.25-2.25.2.1c.067 0 .117.017.15.05.067.033.133.05.2.05l.2.1c.067.033.133.05.2.05l.2.1c.067 0 .133.017.2.05s.133.05.2.05L11 30.05c.267.233.55.467.85.7s.617.45.95.65c.3.2.617.383.95.55s.683.333 1.05.5c.333.133.683.267 1.05.4l1.1.3c.367.067.75.133 1.15.2.367.067.75.1 1.15.1V28.2H20c.2.033.45.033.75 0v5.25M5.95 20c.2-.5.45-.983.75-1.45.333-.467.717-.917 1.15-1.35.433-.4.917-.8 1.45-1.2.533-.367 1.1-.717 1.7-1.05.633-.333 1.3-.617 2-.85.7-.267 1.417-.5 2.15-.7.767-.167 1.55-.3 2.35-.4a20.965 20.965 0 0 1 5 0c.8.1 1.583.233 2.35.4.733.2 1.45.433 2.15.7.7.233 1.367.517 2 .85.6.333 1.167.683 1.7 1.05.533.4 1.017.8 1.45 1.2.433.433.8.883 1.1 1.35.333.467.6.95.8 1.45-.2.5-.45.983-.75 1.45-.333.467-.717.917-1.15 1.35s-.917.833-1.45 1.2c-.533.4-1.1.75-1.7 1.05-.633.333-1.3.633-2 .9s-1.417.483-2.15.65c-.767.2-1.55.333-2.35.4a20.965 20.965 0 0 1-5 0c-.8-.1-1.583-.233-2.35-.4-.733-.167-1.45-.383-2.15-.65s-1.367-.567-2-.9c-.6-.3-1.167-.65-1.7-1.05-.533-.367-1.017-.767-1.45-1.2s-.8-.883-1.1-1.35c-.333-.467-.6-.95-.8-1.45M20 25.6c-.6 0-1.183-.033-1.75-.1-.567-.033-1.1-.1-1.6-.2a10.26 10.26 0 0 1-1.45-.3c-.4-.1-.817-.217-1.25-.35a8.33 8.33 0 0 1-1.05-.4c-.3-.1-.583-.217-.85-.35l-.7-.4a1.955 1.955 0 0 1-.45-.25 1.916 1.916 0 0 1-.15-.4 2.632 2.632 0 0 1-.15-.35l-.1-.4-.1-.4a9.577 9.577 0 0 0-.1-.45 1.66 1.66 0 0 0-.05-.4 1.66 1.66 0 0 0-.05-.4v-.85c.033-.167.05-.317.05-.45s.017-.267.05-.4l.1-.4.1-.4.1-.4c.033-.133.083-.267.15-.4a1.1 1.1 0 0 1 .15-.35l.9-.5c.3-.167.633-.333 1-.5.333-.133.683-.267 1.05-.4s.733-.25 1.1-.35c.4-.1.8-.183 1.2-.25.4-.1.817-.167 1.25-.2a16.907 16.907 0 0 1 3.9-.15c.433.033.867.083 1.3.15.433.033.85.1 1.25.2.4.067.8.15 1.2.25.367.1.733.217 1.1.35l1.1.4c.333.133.65.283.95.45.333.167.633.35.9.55.067.133.117.25.15.35.067.133.117.267.15.4l.1.4.1.4.1.4c0 .133.017.267.05.4 0 .133.017.283.05.45v.85c-.033.133-.05.267-.05.4s-.017.267-.05.4l-.1.4c-.033.167-.067.317-.1.45s-.067.25-.1.35a1.916 1.916 0 0 1-.15.4 1.916 1.916 0 0 1-.15.4c-.167.1-.317.2-.45.3-.233.1-.45.217-.65.35-.267.133-.55.25-.85.35-.333.167-.683.3-1.05.4-.367.133-.767.25-1.2.35-.467.133-.95.233-1.45.3-.5.1-1.033.167-1.6.2-.6.067-1.217.1-1.85.1m5.85-5.6a5.758 5.758 0 0 0-.3-1c-.1-.3-.25-.6-.45-.9a4.83 4.83 0 0 0-.55-.8 7.808 7.808 0 0 0-.75-.75c-.233-.2-.5-.383-.8-.55s-.617-.317-.95-.45c-.3-.1-.633-.183-1-.25-.333-.067-.683-.1-1.05-.1s-.717.033-1.05.1c-.367.067-.7.15-1 .25-.333.133-.65.283-.95.45s-.567.35-.8.55a7.808 7.808 0 0 0-.75.75c-.2.233-.4.5-.6.8-.167.3-.317.6-.45.9-.1.333-.183.667-.25 1 .067.333.167.667.3 1 .1.3.25.6.45.9.167.3.35.583.55.85.233.233.483.467.75.7.233.2.5.383.8.55.3.2.617.35.95.45.3.133.633.233 1 .3.333.033.683.05 1.05.05s.717-.033 1.05-.1c.367-.067.7-.15 1-.25.333-.133.65-.283.95-.45s.567-.35.8-.55c.267-.233.517-.467.75-.7.2-.267.4-.55.6-.85.167-.267.317-.567.45-.9.1-.333.183-.667.25-1M20 23.75l.05-.1.2-.2c.1-.133.183-.267.25-.4l.3-.5c.1-.167.2-.35.3-.55.1-.233.183-.45.25-.65.067-.233.133-.45.2-.65a4.994 4.994 0 0 0 0-1.4c-.067-.2-.133-.417-.2-.65-.067-.2-.15-.4-.25-.6-.1-.167-.2-.35-.3-.55-.1-.133-.2-.283-.3-.45a1.348 1.348 0 0 0-.25-.35l-.2-.2c0-.033-.017-.067-.05-.1l-.05.1-.2.2c-.1.1-.2.217-.3.35-.1.167-.2.317-.3.45-.1.2-.2.383-.3.55-.1.2-.183.4-.25.6-.067.233-.133.45-.2.65a4.994 4.994 0 0 0 0 1.4c.067.2.133.417.2.65.067.2.15.417.25.65.1.2.2.383.3.55s.217.333.35.5c.067.133.15.267.25.4.067.067.133.15.2.25l.05.05m-10.6-1.6a.831.831 0 0 1-.05-.25.953.953 0 0 1-.05-.3c-.033-.067-.05-.15-.05-.25s-.017-.183-.05-.25v-.3a.562.562 0 0 1-.05-.25v-1.1c0-.067.017-.15.05-.25v-.25c.033-.1.05-.2.05-.3 0-.067.017-.15.05-.25 0-.067.017-.15.05-.25 0-.1.017-.183.05-.25a.902.902 0 0 0-.25.25.902.902 0 0 0-.25.25l-.25.25c-.067.1-.133.183-.2.25-.067.1-.117.2-.15.3-.067.067-.133.15-.2.25-.033.1-.083.2-.15.3a1.96 1.96 0 0 0-.1.25l.1.3c.067.067.117.15.15.25l.2.3a2.297 2.297 0 0 0 .35.5c.1.1.183.2.25.3l.5.5m21.2 0 .5-.5c.067-.1.15-.2.25-.3a2.297 2.297 0 0 0 .35-.5l.2-.3c.033-.067.083-.15.15-.25l.1-.3-.1-.3a.622.622 0 0 1-.15-.25 1.655 1.655 0 0 0-.2-.25c-.033-.1-.083-.2-.15-.3a1.655 1.655 0 0 1-.2-.25l-.25-.25a.902.902 0 0 0-.25-.25.902.902 0 0 0-.25-.25c.033.1.05.183.05.25.033.1.05.183.05.25.033.1.05.183.05.25 0 .1.017.2.05.3v.25c.033.1.05.183.05.25v1.1c0 .1-.017.183-.05.25v.3c-.033.067-.05.15-.05.25s-.017.183-.05.25c0 .1-.017.183-.05.25 0 .1-.017.2-.05.3" clip-rule="evenodd"/><path fill="#4B2D2D" d="M29.8 20.45v-.85c-.03-.17-.05-.32-.05-.45-.03-.13-.05-.27-.05-.4-.03-.13-.07-.27-.1-.4s-.07-.27-.1-.4-.07-.27-.1-.4-.08-.27-.15-.4c-.03-.1-.08-.22-.15-.35-.27-.2-.57-.38-.9-.55-.3-.17-.62-.32-.95-.45-.37-.13-.73-.27-1.1-.4s-.73-.25-1.1-.35c-.4-.1-.8-.18-1.2-.25-.4-.1-.82-.17-1.25-.2-.43-.07-.87-.12-1.3-.15s-.86-.05-1.29-.05H20c-.43 0-.87.02-1.3.05s-.87.08-1.3.15c-.43.03-.85.1-1.25.2-.4.07-.8.15-1.2.25-.37.1-.73.22-1.1.35s-.72.27-1.05.4c-.37.17-.7.33-1 .5s-.6.33-.9.5c-.07.1-.12.22-.15.35-.07.13-.12.27-.15.4s-.07.27-.1.4-.07.27-.1.4-.07.27-.1.4-.05.27-.05.4-.02.28-.05.45v.85c.03.13.05.27.05.4.03.13.05.27.05.4.03.13.07.28.1.45.03.13.07.27.1.4s.07.27.1.4c.03.1.08.22.15.35.03.13.08.27.15.4.13.1.28.18.45.25.23.13.47.27.7.4.27.13.55.25.85.35.37.17.72.3 1.05.4.43.13.85.25 1.25.35.47.13.95.23 1.45.3.5.1 1.03.17 1.6.2.56.07 1.14.1 1.73.1H20c.63 0 1.25-.03 1.85-.1.57-.03 1.1-.1 1.6-.2.5-.07.98-.17 1.45-.3.43-.1.83-.22 1.2-.35.37-.1.72-.23 1.05-.4.3-.1.58-.22.85-.35.2-.13.42-.25.65-.35.13-.1.28-.2.45-.3.07-.13.12-.27.15-.4.07-.13.12-.27.15-.4.03-.1.07-.22.1-.35s.07-.28.1-.45c.03-.13.07-.27.1-.4s.05-.27.05-.4.02-.27.05-.4zm2.35-.45c-.03-.1-.07-.2-.1-.3a.579.579 0 0 1-.15-.25c-.07-.1-.13-.18-.2-.25-.03-.1-.08-.2-.15-.3-.07-.07-.13-.15-.2-.25l-.25-.25a.99.99 0 0 0-.25-.25.99.99 0 0 0-.25-.25c.03.1.05.18.05.25.03.1.05.18.05.25.03.1.05.18.05.25 0 .1.02.2.05.3v.25c.03.1.05.18.05.25v1.1s-.02.18-.05.25v.3c-.03.07-.05.15-.05.25s-.02.18-.05.25c0 .1-.02.18-.05.25 0 .1-.02.2-.05.3l.5-.5c.07-.1.15-.2.25-.3.07-.07.13-.15.2-.25s.12-.18.15-.25c.07-.1.13-.2.2-.3.03-.07.08-.15.15-.25.03-.1.07-.2.1-.3zM9.3 24c-.53-.37-1.02-.77-1.45-1.2s-.8-.88-1.1-1.35c-.33-.47-.6-.95-.8-1.45.2-.5.45-.98.75-1.45.33-.47.72-.92 1.15-1.35.43-.4.92-.8 1.45-1.2.53-.37 1.1-.72 1.7-1.05.63-.33 1.3-.62 2-.85.7-.27 1.42-.5 2.15-.7.77-.17 1.55-.3 2.35-.4a20.965 20.965 0 0 1 5 0c.8.1 1.58.23 2.35.4.73.2 1.45.43 2.15.7.7.23 1.37.52 2 .85.6.33 1.17.68 1.7 1.05.53.4 1.02.8 1.45 1.2.43.43.8.88 1.1 1.35.33.47.6.95.8 1.45-.2.5-.45.98-.75 1.45-.33.47-.72.92-1.15 1.35s-.92.83-1.45 1.2c-.53.4-1.1.75-1.7 1.05-.63.33-1.3.63-2 .9a16.04 16.04 0 0 1-2.15.65c-.77.2-1.55.33-2.35.4a20.965 20.965 0 0 1-5 0c-.8-.1-1.58-.23-2.35-.4-.56-.13-1.11-.28-1.65-.47-.17-.06-.33-.12-.5-.18-.7-.27-1.37-.57-2-.9-.6-.3-1.17-.65-1.7-1.05zm-1.35-4.25c-.03.07-.07.15-.1.25.03.1.07.2.1.3.07.07.12.15.15.25.07.1.13.2.2.3.03.07.08.15.15.25s.13.18.2.25c.1.1.18.2.25.3l.5.5a.915.915 0 0 1-.05-.25c-.03-.1-.05-.2-.05-.3-.03-.07-.05-.15-.05-.25s-.02-.18-.05-.25v-.3a.618.618 0 0 1-.05-.25v-1.1c0-.07.02-.15.05-.25v-.25c.03-.1.05-.2.05-.3 0-.07.02-.15.05-.25 0-.07.02-.15.05-.25 0-.1.02-.18.05-.25a.99.99 0 0 0-.25.25.99.99 0 0 0-.25.25l-.25.25c-.07.1-.13.18-.2.25-.07.1-.12.2-.15.3-.07.07-.13.15-.2.25-.03.1-.08.2-.15.3z"/><path fill="#4B2D2D" d="m20.05 23.65.2-.2c.1-.13.18-.27.25-.4.1-.17.2-.33.3-.5s.2-.35.3-.55c.1-.23.18-.45.25-.65.07-.23.13-.45.2-.65.03-.23.05-.47.05-.7s-.02-.47-.05-.7c-.07-.2-.13-.42-.2-.65-.07-.2-.15-.4-.25-.6-.1-.17-.2-.35-.3-.55-.1-.13-.2-.28-.3-.45-.07-.13-.15-.25-.25-.35l-.2-.2c0-.03-.02-.07-.05-.1 0 0-.02.03-.05.1l-.2.2c-.1.1-.2.22-.3.35-.1.17-.2.32-.3.45-.1.2-.2.38-.3.55-.1.2-.18.4-.25.6-.07.23-.13.45-.2.65-.03.23-.05.47-.05.7s.02.47.05.7c.07.2.13.42.2.65.07.2.15.42.25.65.1.2.2.38.3.55s.22.33.35.5c.07.13.15.27.25.4.07.07.13.15.2.25l.05.05s.02-.03.05-.1zm1 1.05c-.33.07-.68.1-1.05.1s-.72-.02-1.05-.05c-.37-.07-.7-.17-1-.3-.33-.1-.65-.25-.95-.45-.3-.17-.57-.35-.8-.55-.27-.23-.52-.47-.75-.7-.2-.27-.38-.55-.55-.85-.2-.3-.35-.6-.45-.9-.13-.33-.23-.67-.3-1 .07-.33.15-.67.25-1 .13-.3.28-.6.45-.9.2-.3.4-.57.6-.8.23-.27.48-.52.75-.75.23-.2.5-.38.8-.55s.62-.32.95-.45c.3-.1.63-.18 1-.25.33-.07.68-.1 1.05-.1s.72.03 1.05.1c.37.07.7.15 1 .25.33.13.65.28.95.45s.57.35.8.55c.27.23.52.48.75.75.2.23.38.5.55.8.2.3.35.6.45.9.13.33.23.67.3 1-.07.33-.15.67-.25 1-.13.33-.28.63-.45.9-.2.3-.4.58-.6.85-.23.23-.48.47-.75.7-.23.2-.5.38-.8.55s-.62.32-.95.45c-.3.1-.63.18-1 .25z"/><path fill="#966E82" d="M32.05 19.7c.03.1.07.2.1.3-.03.1-.07.2-.1.3-.07.1-.12.18-.15.25-.07.1-.13.2-.2.3-.03.07-.08.15-.15.25s-.13.18-.2.25c-.1.1-.18.2-.25.3l-.5.5c.03-.1.05-.2.05-.3.03-.07.05-.15.05-.25.03-.07.05-.15.05-.25s.02-.18.05-.25v-.3c.03-.07.05-.15.05-.25v-1.1c0-.07-.02-.15-.05-.25v-.25c-.03-.1-.05-.2-.05-.3 0-.07-.02-.15-.05-.25 0-.07-.02-.15-.05-.25 0-.07-.02-.15-.05-.25.1.07.18.15.25.25.1.07.18.15.25.25l.25.25c.07.1.13.18.2.25.07.1.12.2.15.3.07.07.13.15.2.25.03.1.08.18.15.25z"/><path fill="#A04B4B" d="M29.75 19.15c0 .13.02.28.05.45v.85c-.03.13-.05.27-.05.4s-.02.27-.05.4-.07.27-.1.4c-.03.17-.07.32-.1.45s-.07.25-.1.35c-.03.13-.08.27-.15.4-.03.13-.08.27-.15.4-.17.1-.32.2-.45.3-.23.1-.45.22-.65.35-.27.13-.55.25-.85.35-.33.17-.68.3-1.05.4-.37.13-.77.25-1.2.35-.47.13-.95.23-1.45.3-.5.1-1.03.17-1.6.2-.6.07-1.22.1-1.85.1h-.02l.02-.8c.37 0 .72-.03 1.05-.1.37-.07.7-.15 1-.25.33-.13.65-.28.95-.45s.57-.35.8-.55c.27-.23.52-.47.75-.7.2-.27.4-.55.6-.85.17-.27.32-.57.45-.9.1-.33.18-.67.25-1-.07-.33-.17-.67-.3-1-.1-.3-.25-.6-.45-.9-.17-.3-.35-.57-.55-.8a6.64 6.64 0 0 0-.75-.75c-.23-.2-.5-.38-.8-.55s-.62-.32-.95-.45c-.3-.1-.63-.18-1-.25-.33-.07-.68-.1-1.05-.1l.01-.8c.43 0 .86.02 1.29.05s.87.08 1.3.15c.43.03.85.1 1.25.2.4.07.8.15 1.2.25.37.1.73.22 1.1.35s.73.27 1.1.4c.33.13.65.28.95.45.33.17.63.35.9.55.07.13.12.25.15.35.07.13.12.27.15.4s.07.27.1.4.07.27.1.4.07.27.1.4c0 .13.02.27.05.4z"/><path fill="#966E82" d="M35.1 19.55c.07.13.13.28.2.45-.03.17-.08.32-.15.45-.07.17-.13.32-.2.45-.1.17-.18.32-.25.45-.1.17-.2.32-.3.45s-.2.28-.3.45c-.1.13-.2.27-.3.4-.13.13-.25.27-.35.4l-.4.4c-.07.27-.15.52-.25.75-.07.27-.15.53-.25.8-.1.23-.22.47-.35.7-.1.23-.22.47-.35.7s-.27.47-.4.7-.27.45-.4.65c-.17.23-.33.45-.5.65s-.33.4-.5.6l-2.25-2.25c-.07.03-.13.07-.2.1-.03 0-.08.02-.15.05s-.13.07-.2.1c-.07 0-.13.02-.2.05s-.13.05-.2.05c-.07.03-.13.07-.2.1-.07 0-.13.02-.2.05-.03 0-.07 0-.1.01l-.31-.98c.32-.1.64-.21.96-.33.7-.27 1.37-.57 2-.9.6-.3 1.17-.65 1.7-1.05.53-.37 1.02-.77 1.45-1.2s.82-.88 1.15-1.35c.3-.47.55-.95.75-1.45-.2-.5-.47-.98-.8-1.45-.3-.47-.67-.92-1.1-1.35-.43-.4-.92-.8-1.45-1.2-.53-.37-1.1-.72-1.7-1.05-.63-.33-1.3-.62-2-.85-.7-.27-1.42-.5-2.15-.7-.77-.17-1.55-.3-2.35-.4-.83-.1-1.67-.15-2.5-.15V11.8h.75V6.55c.4.03.78.07 1.15.1.4.07.78.15 1.15.25.37.07.73.17 1.1.3.37.1.72.23 1.05.4.37.13.72.28 1.05.45s.65.35.95.55c.33.2.65.42.95.65s.58.47.85.7l-2.75 2.75c.07.03.13.05.2.05.07.03.13.07.2.1.07 0 .13.02.2.05s.13.05.2.05c.07.03.13.07.2.1.03 0 .08.02.15.05s.13.07.2.1c.07 0 .13.02.2.05L30.05 11c.17.2.33.4.5.6.17.23.32.45.45.65.17.23.32.45.45.65.13.23.27.47.4.7s.25.47.35.7c.13.23.25.48.35.75.1.23.18.48.25.75.1.23.18.48.25.75.13.13.25.27.35.4.13.13.25.27.35.4.13.17.25.32.35.45s.2.27.3.4c.1.17.18.32.25.45.1.13.18.28.25.45.1.13.17.28.2.45zm-14.85 3.9-.2.2c-.03.07-.05.1-.05.1l-.05-.05c-.07-.1-.13-.18-.2-.25-.1-.13-.18-.27-.25-.4-.13-.17-.25-.33-.35-.5s-.2-.35-.3-.55c-.1-.23-.18-.45-.25-.65-.07-.23-.13-.45-.2-.65-.03-.23-.05-.47-.05-.7s.02-.47.05-.7c.07-.2.13-.42.2-.65.07-.2.15-.4.25-.6.1-.17.2-.35.3-.55.1-.13.2-.28.3-.45.1-.13.2-.25.3-.35l.2-.2c.03-.07.05-.1.05-.1.03.03.05.07.05.1l.2.2c.1.1.18.22.25.35.1.17.2.32.3.45.1.2.2.38.3.55.1.2.18.4.25.6.07.23.13.45.2.65.03.23.05.47.05.7s-.02.47-.05.7c-.07.2-.13.42-.2.65-.07.2-.15.42-.25.65-.1.2-.2.38-.3.55s-.2.33-.3.5c-.07.13-.15.27-.25.4z"/><path fill="#A04B4B" d="M15.2 25c-.4-.1-.82-.22-1.25-.35-.33-.1-.68-.23-1.05-.4-.3-.1-.58-.22-.85-.35-.23-.13-.47-.27-.7-.4-.17-.07-.32-.15-.45-.25a1.63 1.63 0 0 1-.15-.4c-.07-.13-.12-.25-.15-.35-.03-.13-.07-.27-.1-.4s-.07-.27-.1-.4c-.03-.17-.07-.32-.1-.45 0-.13-.02-.27-.05-.4 0-.13-.02-.27-.05-.4v-.85c.03-.17.05-.32.05-.45s.02-.27.05-.4.07-.27.1-.4.07-.27.1-.4.07-.27.1-.4.08-.27.15-.4c.03-.13.08-.25.15-.35.3-.17.6-.33.9-.5s.63-.33 1-.5c.33-.13.68-.27 1.05-.4s.73-.25 1.1-.35c.4-.1.8-.18 1.2-.25.4-.1.82-.17 1.25-.2.43-.07.87-.12 1.3-.15s.87-.05 1.3-.05h.01l-.01.8c-.37 0-.72.03-1.05.1-.37.07-.7.15-1 .25-.33.13-.65.28-.95.45s-.57.35-.8.55c-.27.23-.52.48-.75.75-.2.23-.4.5-.6.8-.17.3-.32.6-.45.9-.1.33-.18.67-.25 1 .07.33.17.67.3 1 .1.3.25.6.45.9.17.3.35.58.55.85.23.23.48.47.75.7.23.2.5.38.8.55.3.2.62.35.95.45.3.13.63.23 1 .3.33.03.68.05 1.05.05l-.02.8c-.59 0-1.17-.03-1.73-.1-.57-.03-1.1-.1-1.6-.2-.5-.07-.98-.17-1.45-.3z"/><g fill="#966E82"><path d="M13.5 26.13c.54.19 1.09.34 1.65.47.77.17 1.55.3 2.35.4a20.965 20.965 0 0 0 5 0c.8-.07 1.58-.2 2.35-.4.4-.09.8-.2 1.19-.32l.31.98c-.03.01-.07.03-.1.04L29 30.05c-.3.23-.58.47-.85.7-.3.23-.62.45-.95.65-.3.2-.62.38-.95.55s-.68.33-1.05.5c-.33.13-.68.27-1.05.4l-1.1.3c-.37.07-.75.13-1.15.2-.37.03-.75.07-1.15.1V28.2c-.3.03-.55.03-.75 0h-.75v5.25c-.4 0-.78-.03-1.15-.1-.4-.07-.78-.13-1.15-.2l-1.1-.3c-.37-.13-.72-.27-1.05-.4-.37-.17-.72-.33-1.05-.5s-.65-.35-.95-.55c-.33-.2-.65-.42-.95-.65s-.58-.47-.85-.7l2.75-2.75c-.07 0-.13-.02-.2-.05s-.13-.05-.2-.05c-.07-.03-.13-.07-.2-.1l.35-.97zm-5.55-6.38c.07-.1.12-.2.15-.3.07-.1.13-.18.2-.25.03-.1.08-.2.15-.3.07-.07.13-.15.2-.25l.25-.25c.07-.1.15-.18.25-.25.07-.1.15-.18.25-.25-.03.07-.05.15-.05.25-.03.1-.05.18-.05.25-.03.1-.05.18-.05.25 0 .1-.02.2-.05.3v.25c-.03.1-.05.18-.05.25v1.1s.02.18.05.25v.3c.03.07.05.15.05.25s.02.18.05.25c0 .1.02.2.05.3 0 .07.02.15.05.25l-.5-.5c-.07-.1-.15-.2-.25-.3-.07-.07-.13-.15-.2-.25s-.12-.18-.15-.25c-.07-.1-.13-.2-.2-.3a.579.579 0 0 0-.15-.25c-.03-.1-.07-.2-.1-.3.03-.1.07-.18.1-.25z"/><path d="M7.85 22.8c.43.43.92.83 1.45 1.2.53.4 1.1.75 1.7 1.05.63.33 1.3.63 2 .9.17.06.33.12.5.18l-.35.97c-.07 0-.13-.02-.2-.05s-.13-.07-.2-.1c-.07 0-.13-.02-.2-.05-.03-.03-.08-.05-.15-.05-.07-.03-.13-.07-.2-.1L9.95 29c-.17-.2-.33-.4-.5-.6s-.32-.42-.45-.65c-.17-.2-.32-.42-.45-.65s-.27-.47-.4-.7-.25-.47-.35-.7c-.13-.23-.25-.47-.35-.7-.1-.27-.18-.53-.25-.8-.1-.23-.18-.48-.25-.75-.13-.13-.25-.27-.35-.4-.13-.13-.25-.27-.35-.4-.13-.13-.25-.28-.35-.45-.1-.13-.2-.27-.3-.4s-.18-.28-.25-.45c-.1-.13-.18-.28-.25-.45-.1-.13-.17-.28-.2-.45-.07-.13-.13-.28-.2-.45.03-.13.08-.28.15-.45.07-.13.13-.28.2-.45.1-.13.18-.28.25-.45.1-.13.2-.28.3-.45.1-.13.2-.27.3-.4s.2-.28.3-.45c.13-.13.25-.27.35-.4l.4-.4c.07-.23.15-.48.25-.75.07-.27.15-.52.25-.75.1-.27.22-.52.35-.75.1-.23.22-.47.35-.7s.27-.47.4-.7.28-.45.45-.65c.13-.23.28-.45.45-.65s.33-.4.5-.6l2.25 2.25c.47-.17.98-.35 1.55-.55L11 9.95c.3-.23.6-.47.9-.7s.6-.45.9-.65.62-.38.95-.55.68-.32 1.05-.45c.33-.17.68-.3 1.05-.4.37-.13.73-.23 1.1-.3.37-.1.75-.18 1.15-.25.37-.03.75-.07 1.15-.1v5.25H20v1.05c-.83 0-1.67.05-2.5.15-.8.1-1.58.23-2.35.4-.73.2-1.45.43-2.15.7-.7.23-1.37.52-2 .85-.6.33-1.17.68-1.7 1.05-.53.4-1.02.8-1.45 1.2-.43.43-.82.88-1.15 1.35-.3.47-.55.95-.75 1.45.2.5.47.98.8 1.45.3.47.67.92 1.1 1.35z"/></g></svg>