<svg xmlns="http://www.w3.org/2000/svg" width="40" height="40"><path fill="#465A46" d="M33.9 23.75c.2.37.4.72.6 1.05a6.79 6.79 0 0 1-.6-1.05zm-1.3-3.35c.13.4.25.78.35 1.15-.13-.37-.25-.75-.35-1.15z"/><path fill="#E4DFA2" d="M15.6 26c.07-.47.13-.93.2-1.4l.3-1.4c.1-.5.2-.98.3-1.45.13-.47.27-.93.4-1.4s.27-.93.4-1.4.28-.95.45-1.45h4.7c.13.47.27.93.4 1.4.13.5.27.98.4 1.45s.25.93.35 1.4l.3 1.4c.1.5.2.98.3 1.45.07.47.13.93.2 1.4.1.47.17.93.2 1.4.07.5.13.98.2 1.45h-9.4c.03-.47.07-.93.1-1.4.07-.5.13-.98.2-1.45z"/><g fill="#465A46"><path d="M26.05 11.9c-.43-.33-.83-.68-1.2-1.05-.4-.33-.78-.68-1.15-1.05-.33-.37-.67-.73-1-1.1-.3-.37-.6-.73-.9-1.1l10.9 8.3h-.85c-.57-.33-1.1-.67-1.6-1-.53-.3-1.03-.62-1.5-.95-.5-.33-.97-.67-1.4-1-.47-.37-.9-.72-1.3-1.05zm-18.55 4 10.6-8.05c-.33.43-.68.85-1.05 1.25-.37.43-.73.83-1.1 1.2l-1.15 1.15c-.4.37-.82.72-1.25 1.05-.4.33-.82.65-1.25.95-.43.33-.88.63-1.35.9-.43.3-.88.58-1.35.85-.47.23-.95.47-1.45.7H7.5z"/><path d="M20 37.2 5.2 27.7l-5.2.05L3.9 14.7 20.1 2.8 36.3 15 40 27.75h-4.8L20 37.2zm.1-32.15L5.85 15.9 2.7 25.8h1.15l2.9-9.15H8.1c-.07.47-.12.9-.15 1.3-.07.43-.13.85-.2 1.25a62.156 62.156 0 0 1-.6 2.4c-.13.4-.28.77-.45 1.1-.13.37-.28.73-.45 1.1-.17.33-.35.67-.55 1s-.42.65-.65.95L20 35.3l15.2-9.5c-.27-.33-.5-.67-.7-1s-.4-.68-.6-1.05c-.2-.33-.37-.68-.5-1.05-.17-.37-.32-.75-.45-1.15-.1-.37-.22-.75-.35-1.15-.1-.4-.18-.8-.25-1.2a15.348 15.348 0 0 1-.4-2.55h1.5l2.9 9.15h1.15l-3.15-9.9L20.1 5.05z"/></g><path fill="#698269" d="M26.05 11.9c.4.33.83.68 1.3 1.05.43.33.9.67 1.4 1 .47.33.97.65 1.5.95.5.33 1.03.67 1.6 1h.85L21.8 7.6c.3.37.6.73.9 1.1.33.37.67.73 1 1.1.37.37.75.72 1.15 1.05.37.37.77.72 1.2 1.05zm-17.9 4c.5-.23.98-.47 1.45-.7.47-.27.92-.55 1.35-.85.47-.27.92-.57 1.35-.9.43-.3.85-.62 1.25-.95.43-.33.85-.68 1.25-1.05l1.15-1.15c.37-.37.73-.77 1.1-1.2.37-.4.72-.82 1.05-1.25L7.5 15.9h.65zm7.15 12.95h9.4c-.07-.47-.13-.95-.2-1.45-.03-.47-.1-.93-.2-1.4-.07-.47-.13-.93-.2-1.4-.1-.47-.2-.95-.3-1.45l-.3-1.4c-.1-.47-.22-.93-.35-1.4s-.27-.95-.4-1.45c-.13-.47-.27-.93-.4-1.4h-4.7c-.17.5-.32.98-.45 1.45s-.27.93-.4 1.4-.27.93-.4 1.4c-.1.47-.2.95-.3 1.45l-.3 1.4c-.07.47-.13.93-.2 1.4s-.13.95-.2 1.45c-.03.47-.07.93-.1 1.4zM20 35.3 5.05 25.75c.23-.3.45-.62.65-.95s.38-.67.55-1c.17-.37.32-.73.45-1.1.17-.33.32-.7.45-1.1a62.156 62.156 0 0 0 .6-2.4c.07-.4.13-.82.2-1.25.03-.4.08-.83.15-1.3H6.75l-2.9 9.15H2.7l3.15-9.9L20.1 5.05 34.35 15.9l3.15 9.9h-1.15l-2.9-9.15h-1.5a15.348 15.348 0 0 0 .4 2.55c.07.4.15.8.25 1.2s.22.78.35 1.15c.13.4.28.78.45 1.15.13.37.3.72.5 1.05.17.37.37.72.6 1.05.2.33.43.67.7 1L20 35.3z"/></svg>