<svg xmlns="http://www.w3.org/2000/svg" width="40" height="40"><path fill="#E4DFA2" d="M28.4 18.75V17.4l1.1-.45v1.4zm0 2V19.5l1.1-.4v1.25zm0 2.1V21.5l1.1-.4v1.35z"/><path fill="#28323C" d="M28.39 3.97s0 .01.01.02h-.01v-.02zm-.01-.01s.01 0 .01.01c-.01-.01-.01 0-.01 0v-.01z"/><path fill="#E4DFA2" d="M27.65 21.8v1.35l-1.1.4V22.2zm0-2.05v1.3l-1.1.4V20.2zm0-2.1v1.4l-1.1.4V18.1zm-15.7 7.3c.07-.2.18-.33.35-.4.13-.1.28-.13.45-.1s.35.1.55.2c.17.1.35.25.55.45.17.17.32.37.45.6s.25.48.35.75c.07.27.1.53.1.8v4.6l-2.95-1.4V25.8c0-.33.05-.62.15-.85z"/><path fill="#46505A" d="M28.4 17.4v1.35l1.1-.4v-1.4l-1.1.45zm0 2.1v1.25l1.1-.4V19.1l-1.1.4zm0 2v1.35l1.1-.4V21.1l-1.1.4zm-.75-2.45v-1.4l-1.1.45v1.35l1.1-.4zm0 2v-1.3l-1.1.45v1.25l1.1-.4zm0 2.1V21.8l-1.1.4v1.35l1.1-.4zm-15.35 1.4c-.17.07-.28.2-.35.4-.1.23-.15.52-.15.85v4.65l2.95 1.4v-4.6c0-.27-.03-.53-.1-.8-.1-.27-.22-.52-.35-.75s-.28-.43-.45-.6c-.2-.2-.38-.35-.55-.45-.2-.1-.38-.17-.55-.2s-.32 0-.45.1zM6.35 12.4l.55-.55c.23-.2.45-.4.65-.6.27-.23.52-.47.75-.7l.8-.8V4.1l.9-.4 1.8.4v2.8c.17-.2.35-.4.55-.6.17-.2.33-.4.5-.6.2-.23.38-.45.55-.65s.33-.4.5-.6c.2-.23.38-.45.55-.65.17-.23.33-.45.5-.65.17-.23.32-.45.45-.65.17-.23.33-.45.5-.65L26.45 4.1s.05.12.15.35c.17.3.33.62.5.95.23.43.48.88.75 1.35.33.57.67 1.12 1 1.65.43.63.85 1.23 1.25 1.8.5.67 1 1.27 1.5 1.8.53.63 1.08 1.18 1.65 1.65.63.53 1.25.98 1.85 1.35l.1 2.5-1.8-1.25v5.6l-2.15 4.2v7.3L22.9 37.8 10.25 31v-7.2L7.9 19.6v-4.1l-2.6-.8-.05-1.3.05-.05c.06-.06.13-.12.22-.18-.02 0 .11-.13.38-.37.17-.13.32-.27.45-.4z"/><path fill="#28323C" d="M8.3 10.55c-.23.23-.48.47-.75.7-.2.2-.42.4-.65.6l-.55.55c-.13.13-.28.27-.45.4-.27.24-.4.37-.38.37-.09.06-.16.12-.22.18l-.05.05.05 1.3 2.6.8v4.1l2.35 4.2V31l12.65 6.8 8.35-4.45v-7.3l2.15-4.2v-5.6l1.8 1.25-.1-2.5c-.6-.37-1.22-.82-1.85-1.35-.57-.47-1.12-1.02-1.65-1.65-.5-.53-1-1.13-1.5-1.8-.4-.57-.82-1.17-1.25-1.8-.33-.53-.67-1.08-1-1.65-.27-.47-.52-.92-.75-1.35-.17-.33-.33-.65-.5-.95-.1-.23-.15-.35-.15-.35L15.9 1.85c-.17.2-.33.42-.5.65-.13.2-.28.42-.45.65-.17.2-.33.42-.5.65-.17.2-.35.42-.55.65-.17.2-.33.4-.5.6s-.35.42-.55.65c-.17.2-.33.4-.5.6-.2.2-.38.4-.55.6V4.1L10 3.7l-.9.4v5.65l-.8.8zm-.7-1.9v-6.4l1.5-.6 4.2.6v.05C13.97 1.47 14.53.7 15 0l12.6 2.35c.25.49.51 1.03.78 1.61v.01c.01.01.01.01.01.02.01.01.01.02.02.03.01.03.03.05.04.08.11.22.36.76.75 1.6l.75 1.5c.27.5.53.97.8 1.4.33.47.67.92 1 1.35.4.47.83.92 1.3 1.35.5.47 1.05.93 1.65 1.4.67.47 1.38.93 2.15 1.4l.1 6.2-1.7-.9v3.25L33 26.7l.05 7.6L22.9 40 8.2 31.65V24.3l-2.45-4.2v-3.2l-2.7-.95v-2.88c.09-.08.21-.19.35-.32l.4-.4c.2-.17.38-.33.55-.5.23-.23.47-.45.7-.65.27-.23.52-.48.75-.75.3-.27.6-.55.9-.85s.6-.62.9-.95zm-4.78 4.62c.04-.05.12-.12.23-.22v.02c-.12.1-.19.17-.23.2zm0 0c-.05.05-.05.05 0 0z"/></svg>