<svg xmlns="http://www.w3.org/2000/svg" width="40" height="40"><path fill="#E4DFA2" d="M19.15 22.85c.23-.1.5-.15.8-.15s.57.05.8.15c.23.07.43.17.6.3s.32.3.45.5c.13.17.23.35.3.55.07.17.13.35.2.55.03.17.07.33.1.5.03.1.05.22.05.35v5.9H17.4v-5.8c.03-.03.05-.07.05-.1v-.35c.03-.17.07-.33.1-.5.07-.2.13-.38.2-.55.1-.2.2-.38.3-.55.13-.2.28-.37.45-.5.2-.13.42-.23.65-.3z"/><path fill="#735541" d="m9.8 21.55-1.55 1.5-1.65-1.6c.63-.53 1.27-1.15 1.9-1.85.6-.63 1.22-1.33 1.85-2.1.57-.7 1.15-1.47 1.75-2.3.53-.77 1.1-1.58 1.7-2.45.5-.77 1.03-1.62 1.6-2.55.43-.67.97-1.5 1.6-2.5 1.13-1.83 1.64-2.66 1.54-2.47.56-.9 1.02-1.65 1.41-2.23.33.53.8 1.3 1.4 2.3.7 1.17 1.2 1.98 1.5 2.45.57.93 1.08 1.78 1.55 2.55.57.9 1.1 1.73 1.6 2.5.6.87 1.17 1.68 1.7 2.45.6.8 1.2 1.57 1.8 2.3s1.22 1.42 1.85 2.05c.63.7 1.27 1.32 1.9 1.85L31.5 23.2l-1.7-1.7v9.9l-9.85 6.35-10.15-6.7v-9.5zm12.65 9.95v-5.9c0-.13-.02-.25-.05-.35-.03-.17-.07-.33-.1-.5-.07-.2-.13-.38-.2-.55-.07-.2-.17-.38-.3-.55-.13-.2-.28-.37-.45-.5s-.37-.23-.6-.3c-.23-.1-.5-.15-.8-.15s-.57.05-.8.15c-.23.07-.45.17-.65.3-.17.13-.32.3-.45.5-.1.17-.2.35-.3.55-.07.17-.13.35-.2.55-.03.17-.07.33-.1.5v.35c0 .03-.02.07-.05.1v5.8h5.05z"/><path fill="#2D2D2D" d="M19.87-.14c.01.02.02.05.05.09-.03-.04-.04-.07-.05-.09zM12.1 15.2c-.6.83-1.18 1.6-1.75 2.3-.63.77-1.25 1.47-1.85 2.1-.63.7-1.27 1.32-1.9 1.85l1.65 1.6 1.55-1.5v9.5l10.15 6.7 9.85-6.35v-9.9l1.7 1.7 1.75-1.75c-.63-.53-1.27-1.15-1.9-1.85-.63-.63-1.25-1.32-1.85-2.05s-1.2-1.5-1.8-2.3c-.53-.77-1.1-1.58-1.7-2.45-.5-.77-1.03-1.6-1.6-2.5-.47-.77-.98-1.62-1.55-2.55-.3-.47-.8-1.28-1.5-2.45-.6-1-1.07-1.77-1.4-2.3-.39.58-.85 1.33-1.41 2.23.1-.19-.41.64-1.54 2.47-.63 1-1.17 1.83-1.6 2.5-.57.93-1.1 1.78-1.6 2.55-.6.87-1.17 1.68-1.7 2.45zm-1.7-1.1c.67-.87 1.35-1.8 2.05-2.8.63-.9 1.3-1.88 2-2.95.57-.83 1.2-1.78 1.9-2.85.27-.4.88-1.35 1.85-2.85.73-1.1 1.32-1.98 1.75-2.65.21.33.77 1.23 1.7 2.7.7 1.1 1.3 2.05 1.8 2.85.7 1.03 1.33 2 1.9 2.9.7 1.03 1.37 2 2 2.9.73 1 1.43 1.93 2.1 2.8.73.97 1.45 1.85 2.15 2.65.77.9 1.5 1.72 2.2 2.45.8.8 1.57 1.5 2.3 2.1l-4.6 4.35v6.8L19.95 40 8 32.1v-6.4l-4.1-4.25c.73-.63 1.47-1.37 2.2-2.2.73-.73 1.47-1.55 2.2-2.45.67-.83 1.37-1.73 2.1-2.7z"/></svg>