<svg xmlns="http://www.w3.org/2000/svg" width="40" height="40"><path fill="#CD5A5A" d="M15.55 31.9v-6.65l-3.1-.9v6.15l3.1 1.4zm9.4 6.3-19.8-9.3.1-8.85-2.75-.85c-.33-.23-.52-.63-.55-1.2-.07-.57.02-1.25.25-2.05.23-.77.57-1.62 1-2.55s.93-1.87 1.5-2.8c.6-.93 1.23-1.82 1.9-2.65.67-.87 1.33-1.62 2-2.25.7-.67 1.37-1.18 2-1.55.7-.37 1.32-.53 1.85-.5l14.25 1.8c.1.03.22.05.35.05.1.03.2.07.3.1.13.03.25.07.35.1s.22.08.35.15c.1.03.2.08.3.15.1.03.22.08.35.15.1.07.2.13.3.2.1.03.22.1.35.2l-.05-4.7 1.55-.35 2.4.55.1 8.4c.43.6.87 1.22 1.3 1.85.4.67.78 1.33 1.15 2 .37.63.7 1.28 1 1.95.3.63.55 1.27.75 1.9.23.6.42 1.17.55 1.7.13.57.23 1.07.3 1.5.03.47.02.85-.05 1.15-.03.33-.13.58-.3.75l-1.95-.4-.05 9.55-11.1 5.8z"/><path fill="#E4DFA2" d="M15.55 25.25v6.65l-3.1-1.4v-6.15z"/><path fill="#5A3C3C" d="M9.7 2.6c.73-.4 1.42-.58 2.05-.55L27.55 4c.03 0 .08.02.15.05V.5l2.55-.5 4.65.8.05 9.1c.5.7.97 1.43 1.4 2.2.47.73.88 1.48 1.25 2.25s.7 1.53 1 2.3.57 1.52.8 2.25c.2.73.35 1.42.45 2.05.1.67.15 1.27.15 1.8s-.07 1-.2 1.4c-.13.43-.35.77-.65 1l-1.65-.35-.15 8.75L25.05 40 3.65 29.65l.1-8.4L.7 20.3c-.4-.43-.63-1.05-.7-1.85-.03-.73.08-1.58.35-2.55.23-.97.58-1.98 1.05-3.05.5-1.03 1.07-2.08 1.7-3.15s1.32-2.07 2.05-3c.77-.93 1.53-1.75 2.3-2.45.77-.73 1.52-1.28 2.25-1.65zm2.75 1.05c-.53-.03-1.15.13-1.85.5-.63.37-1.3.88-2 1.55-.67.63-1.33 1.38-2 2.25-.67.83-1.3 1.72-1.9 2.65-.57.93-1.07 1.87-1.5 2.8s-.77 1.78-1 2.55c-.23.8-.32 1.48-.25 2.05.03.57.22.97.55 1.2l2.75.85-.1 8.85 19.8 9.3 11.1-5.8.05-9.55 1.95.4c.17-.17.27-.42.3-.75.07-.3.08-.68.05-1.15-.07-.43-.17-.93-.3-1.5-.13-.53-.32-1.1-.55-1.7-.2-.63-.45-1.27-.75-1.9-.3-.67-.63-1.32-1-1.95-.37-.67-.75-1.33-1.15-2-.43-.63-.87-1.25-1.3-1.85l-.1-8.4-2.4-.55-1.55.35.05 4.7c-.13-.1-.25-.17-.35-.2-.1-.07-.2-.13-.3-.2-.13-.07-.25-.12-.35-.15-.1-.07-.2-.12-.3-.15-.13-.07-.25-.12-.35-.15s-.22-.07-.35-.1c-.1-.03-.2-.07-.3-.1-.13 0-.25-.02-.35-.05l-14.25-1.8z"/></svg>