<svg xmlns="http://www.w3.org/2000/svg" width="40" height="40"><path fill="#966E82" d="M29.35 11.8c.47.57.9 1.15 1.3 1.75s.77 1.23 1.1 1.9c.37.67.67 1.35.9 2.05.27.7.48 1.43.65 2.2l-1.75 1.75-1.7-.35v10.3L20 37.75l-10.15-6.7v-9.9l-1.55.15-1.6-1.6c.2-.8.47-1.58.8-2.35.3-.73.65-1.47 1.05-2.2.4-.7.83-1.38 1.3-2.05.47-.63.95-1.23 1.45-1.8s1.03-1.1 1.6-1.6c.53-.5 1.07-.95 1.6-1.35.57-.4 1.12-.75 1.65-1.05.57-.3 1.12-.55 1.65-.75l-2.1-1.2 1.2-2.1 3.35 1.95 3.35-1.95 1.2 2.1-2.1 1.25.75.45c.5.23 1 .52 1.5.85.53.3 1.05.65 1.55 1.05s.98.85 1.45 1.35c.5.47.97.97 1.4 1.5zM22.5 31.5v-7.6h-5v7.6h5z"/><path fill="#E4DFA2" d="M17.5 23.9h5v7.6h-5z"/><path fill="#6E5050" d="M30.65 13.55c-.4-.6-.83-1.18-1.3-1.75-.43-.53-.9-1.03-1.4-1.5-.47-.5-.95-.95-1.45-1.35s-1.02-.75-1.55-1.05c-.5-.33-1-.62-1.5-.85l-.75-.45 2.1-1.25-1.2-2.1-3.35 1.95-3.35-1.95-1.2 2.1 2.1 1.2c-.53.2-1.08.45-1.65.75-.53.3-1.08.65-1.65 1.05-.53.4-1.07.85-1.6 1.35-.57.5-1.1 1.03-1.6 1.6s-.98 1.17-1.45 1.8c-.47.67-.9 1.35-1.3 2.05-.4.73-.75 1.47-1.05 2.2-.33.77-.6 1.55-.8 2.35l1.6 1.6 1.55-.15v9.9L20 37.75l9.85-6.35V21.1l1.7.35 1.75-1.75c-.17-.77-.38-1.5-.65-2.2-.23-.7-.53-1.38-.9-2.05-.33-.67-.7-1.3-1.1-1.9zm-1.1-5.1c.43.4.85.82 1.25 1.25s.78.88 1.15 1.35c.4.47.77.95 1.1 1.45.33.53.63 1.07.9 1.6.3.6.55 1.18.75 1.75.23.63.43 1.27.6 1.9.17.7.28 1.4.35 2.1l-4.1 3.8v8.85L20 40 8.1 32.1v-8.4l-3.75-3.85c.1-.63.25-1.25.45-1.85.17-.57.37-1.13.6-1.7.2-.53.43-1.07.7-1.6.27-.5.57-1 .9-1.5.3-.47.62-.93.95-1.4.33-.43.7-.87 1.1-1.3.33-.43.7-.85 1.1-1.25.4-.37.8-.75 1.2-1.15L15.7 0 20 2.5 24.3 0l3.9 7.35c.47.37.92.73 1.35 1.1z"/></svg>