<svg xmlns="http://www.w3.org/2000/svg" width="40" height="40"><g fill-rule="evenodd" clip-rule="evenodd"><path fill="#E4DFA2" d="M13.151 34.225 13.1 25.9l-3-.1-.022 6.89"/><path fill="#554B41" d="M32.9 10.2c.067-.133.117-.25.15-.35l.1-.3c.033-.1.067-.217.1-.35 0-.1.017-.2.05-.3v-.3a.562.562 0 0 0 .05-.25.831.831 0 0 0-.05-.25v-.2c-.067-.433-.233-.9-.5-1.4-.233-.433-.533-.9-.9-1.4a40.64 40.64 0 0 0-1.2-1.35c-.4-.367-.85-.767-1.35-1.2-.4-.333-.817-.683-1.25-1.05-.367-.267-.75-.533-1.15-.8a14.356 14.356 0 0 1-.75-.5l-.3-.2-.3.2c-.267.167-.55.35-.85.55-.4.267-.783.55-1.15.85-.467.333-.917.683-1.35 1.05-.5.4-.95.8-1.35 1.2-.467.433-.867.85-1.2 1.25-.367.433-.65.85-.85 1.25-.233.433-.367.833-.4 1.2-.033.167-.05.3-.05.4v1c.033.133.067.25.1.35a.8.8 0 0 0 .1.35c.033.1.067.217.1.35.067.133.133.283.2.45l-.5.05.05 5.75L6.6 18.5V33l13.5 7 13.3-6.85v-22.9l-.5-.05zM10.1 32.7l-1.7-.75V19.9l11.7-2.25v-6.1l1.1-.2c-.067-.1-.117-.2-.15-.3a1.1 1.1 0 0 1-.15-.35 1.1 1.1 0 0 1-.15-.35c-.067-.1-.117-.217-.15-.35s-.083-.267-.15-.4c-.033-.1-.067-.217-.1-.35S20.3 9 20.3 8.9v-.35c0-.367.083-.75.25-1.15a6.1 6.1 0 0 1 .6-1.1c.233-.367.533-.733.9-1.1.3-.333.633-.667 1-1 .333-.3.683-.6 1.05-.9.267-.2.55-.417.85-.65.233-.167.45-.317.65-.45a.622.622 0 0 1 .25-.15l.25.15c.2.133.4.283.6.45.333.233.633.467.9.7.367.267.717.55 1.05.85.367.333.717.667 1.05 1 .333.4.633.767.9 1.1.267.4.467.783.6 1.15.167.4.25.767.25 1.1v.35c-.033.133-.05.25-.05.35l-.1.4c-.033.1-.083.217-.15.35l-.1.4a1.1 1.1 0 0 0-.15.35c-.067.1-.117.2-.15.3-.067.1-.117.2-.15.3l1.15.2V31.9L20.1 37.65l-7-3.45"/><path fill="#7D6455" d="m10.1 32.7-1.7-.75V19.9l11.7-2.25v-6.1l1.1-.2c-.067-.1-.117-.2-.15-.3a1.1 1.1 0 0 1-.15-.35 1.1 1.1 0 0 1-.15-.35c-.067-.1-.117-.217-.15-.35s-.083-.267-.15-.4c-.033-.1-.067-.217-.1-.35S20.3 9 20.3 8.9v-.35c0-.367.083-.75.25-1.15a6.1 6.1 0 0 1 .6-1.1c.233-.367.533-.733.9-1.1.3-.333.633-.667 1-1 .333-.3.683-.6 1.05-.9.267-.2.55-.417.85-.65.233-.167.45-.317.65-.45a.622.622 0 0 1 .25-.15l.25.15c.2.133.4.283.6.45.333.233.633.467.9.7.367.267.717.55 1.05.85.367.333.717.667 1.05 1 .333.4.633.767.9 1.1.267.4.467.783.6 1.15.167.4.25.767.25 1.1v.35c-.033.133-.05.25-.05.35l-.1.4c-.033.1-.083.217-.15.35l-.1.4a1.1 1.1 0 0 0-.15.35c-.067.1-.117.2-.15.3-.067.1-.117.2-.15.3l1.15.2V31.9L20.1 37.65l-7-3.45v-8.3l-3-.1v6.9"/></g></svg>