<svg xmlns="http://www.w3.org/2000/svg" width="40" height="40"><path fill="#E4DFA2" d="M19.2 22.6c.23-.07.5-.1.8-.1s.57.03.8.1c.23.1.45.22.65.35.17.13.3.3.4.5.13.17.25.35.35.55.07.17.12.35.15.55.03.17.07.33.1.5.03.1.05.2.05.3v5.95h-5v-5.95c0-.1.02-.2.05-.3 0-.17.03-.33.1-.5.03-.2.08-.38.15-.55.1-.2.22-.38.35-.55.1-.2.23-.37.4-.5.2-.13.42-.25.65-.35z"/><path fill="#8C82A0" d="M8.25 12.25h1.8v-.75c.03-.33.08-.65.15-.95.07-.37.17-.72.3-1.05.17-.4.37-.78.6-1.15.3-.4.65-.75 1.05-1.05.43-.37.95-.68 1.55-.95.63-.3 1.33-.53 2.1-.7.87-.2 1.82-.32 2.85-.35l-.2-1.2 1.6-2.25L21.6 4.1l-.2 1.2c1.03.07 1.98.2 2.85.4.8.17 1.52.4 2.15.7.57.27 1.07.58 1.5.95.4.33.75.7 1.05 1.1.27.37.47.75.6 1.15.17.33.28.7.35 1.1.03.3.07.6.1.9v.65h1.8v.45c-.03.13-.05.28-.05.45-.03.17-.07.33-.1.5s-.07.33-.1.5c-.07.17-.13.32-.2.45s-.13.25-.2.35c-.1.07-.2.12-.3.15-.1 0-.38.02-.85.05V31.4l-9.85 6.35-10.1-6.7v-15.9H9.7s-.07-.02-.1-.05h-.35c-.1 0-.2-.05-.3-.15s-.18-.22-.25-.35-.13-.28-.2-.45c-.03-.17-.07-.33-.1-.5s-.07-.33-.1-.5v-.45c-.03-.1-.05-.2-.05-.3v-.15zM22.5 31.3v-5.95s-.02-.2-.05-.3c-.03-.17-.07-.33-.1-.5-.03-.2-.08-.38-.15-.55-.1-.2-.22-.38-.35-.55-.1-.2-.23-.37-.4-.5-.2-.13-.42-.25-.65-.35-.23-.07-.5-.1-.8-.1s-.57.03-.8.1c-.23.1-.45.22-.65.35-.17.13-.3.3-.4.5-.13.17-.25.35-.35.55-.07.17-.12.35-.15.55-.07.17-.1.33-.1.5-.03.1-.05.2-.05.3v5.95h5z"/><path fill="#5A4B6E" d="M8.3 10.6c.03-.3.1-.62.2-.95s.23-.68.4-1.05c.2-.37.42-.73.65-1.1.27-.37.58-.72.95-1.05.37-.37.78-.72 1.25-1.05.5-.33 1.03-.62 1.6-.85.6-.3 1.25-.53 1.95-.7.73-.2 1.52-.35 2.35-.45l2.4-3.4 2.35 3.4c.87.1 1.68.23 2.45.4.73.2 1.42.43 2.05.7.57.27 1.08.57 1.55.9.47.3.88.63 1.25 1 .33.33.63.7.9 1.1.23.37.43.73.6 1.1.13.37.25.72.35 1.05s.17.65.2.95h1.6v1.9c-.03.37-.07.73-.1 1.1-.03.4-.07.77-.1 1.1-.03.37-.08.7-.15 1s-.15.53-.25.7c-.1.2-.22.32-.35.35-.07 0-.17.02-.3.05-.17.03-.28.05-.35.05V32.5L20.15 40l-11.9-7.9V16.85H8.1c-.03-.03-.07-.05-.1-.05h-.15c-.03 0-.05-.02-.05-.05h-.15c-.13-.03-.25-.15-.35-.35-.1-.17-.18-.4-.25-.7s-.13-.63-.2-1c-.03-.33-.07-.7-.1-1.1-.03-.37-.05-.73-.05-1.1-.03-.33-.05-.65-.05-.95v-.95H8.3zm1.75 1.65h-1.8v.15c0 .1.02.2.05.3v.45c.03.17.07.33.1.5s.07.33.1.5c.07.17.13.32.2.45s.15.25.25.35.2.15.3.15h.35c.03.03.07.05.1.05h.35v15.9l10.1 6.7L30 31.4V15.15c.47-.03.75-.05.85-.05.1-.03.2-.08.3-.15.07-.1.13-.22.2-.35s.13-.28.2-.45c.03-.17.07-.33.1-.5s.07-.33.1-.5c0-.17.02-.32.05-.45v-.45H30v-.65c-.03-.3-.07-.6-.1-.9-.07-.4-.18-.77-.35-1.1-.13-.4-.33-.78-.6-1.15-.3-.4-.65-.77-1.05-1.1-.43-.37-.93-.68-1.5-.95-.63-.3-1.35-.53-2.15-.7-.87-.2-1.82-.33-2.85-.4l.2-1.2-1.55-2.25-1.6 2.25.2 1.2c-1.03.03-1.98.15-2.85.35-.77.17-1.47.4-2.1.7-.6.27-1.12.58-1.55.95-.4.3-.75.65-1.05 1.05-.23.37-.43.75-.6 1.15a5.8 5.8 0 0 0-.3 1.05c-.07.3-.12.62-.15.95v.75z"/></svg>