<svg xmlns="http://www.w3.org/2000/svg" width="40" height="40"><g fill-rule="evenodd"><path fill="#465a46" d="m39.6 12.9-1.5 5.3-5.15 5-2.7 8.1c-.23-.07-.45-.1-.65-.1-.23 0-.43.02-.6.05-.17.07-.32.15-.45.25s-.27.22-.4.35c-.1.17-.2.37-.3.6s-.18.5-.25.8-.12.63-.15 1c-.07.37-.12.8-.15 1.3-.17.03-.33.08-.5.15s-.33.15-.5.25c-.13.07-.27.15-.4.25s-.25.2-.35.3c-.13.13-.23.27-.3.4-.1.13-.18.27-.25.4-.07.17-.13.33-.2.5-.03.17-.07.35-.1.55-.07.17-.12.27-.15.3-.07.13-.12.23-.15.3-.07.1-.12.18-.15.25-.07.07-.12.13-.15.2-.07.07-.12.13-.15.2-.07.03-.13.07-.2.1-.07.07-.13.1-.2.1-.07.03-.13.07-.2.1-.1 0-.15.02-.15.05H23c-.1 0-.18.02-.25.05h-.45c-.1-.03-.2-.05-.3-.05-.07 0-.15-.02-.25-.05s-.2-.07-.3-.1a.483.483 0 0 0-.15-.1.483.483 0 0 0-.15-.1l-.15-.15a2.9 2.9 0 0 0-.15-.1l-.15-.15a.483.483 0 0 1-.15-.1.483.483 0 0 1-.15-.1H20c-.07.03-.12.07-.15.1-.07.03-.13.07-.2.1l-.25.25a.654.654 0 0 1-.3.3c-.07.03-.13.07-.2.1s-.15.07-.25.1h-.3c-.1.03-.22.05-.35.05h-.6c-.1 0-.2-.02-.3-.05h-.25c-.03 0-.08-.02-.15-.05-.07 0-.13-.02-.2-.05a.483.483 0 0 0-.15-.1.276.276 0 0 0-.15-.15c-.03-.07-.07-.13-.1-.2s-.05-.13-.05-.2c-.03-.07-.07-.15-.1-.25 0-.07-.02-.13-.05-.2v-.25c-.07-.23-.13-.45-.2-.65s-.15-.38-.25-.55-.2-.33-.3-.5c-.1-.13-.22-.27-.35-.4-.13-.1-.27-.2-.4-.3s-.28-.2-.45-.3c-.13-.07-.28-.13-.45-.2s-.33-.12-.5-.15c-.1-.47-.18-.88-.25-1.25-.1-.37-.2-.7-.3-1s-.2-.57-.3-.8-.2-.43-.3-.6-.22-.3-.35-.4-.28-.18-.45-.25-.33-.1-.5-.1c-.2 0-.42.03-.65.1l-2.85-8-5.1-4.55L.4 12.8l2.65-1.1.1.1c.1.13.2.23.3.3l.4.4c.13.17.27.32.4.45l.45.45c.17.13.3.23.4.3.13.1.22.17.25.2.07 0 .1-.03.1-.1-.07-2.2.32-4.2 1.15-6 .73-1.63 1.82-3.07 3.25-4.3C11.22 2.4 12.8 1.53 14.6.9c1.73-.57 3.55-.87 5.45-.9s3.72.23 5.45.8c1.8.57 3.37 1.4 4.7 2.5 1.47 1.17 2.57 2.57 3.3 4.2.83 1.77 1.22 3.73 1.15 5.9 0 .07.03.1.1.1.07-.03.17-.08.3-.15.1-.07.23-.15.4-.25.13-.1.28-.22.45-.35.13-.1.28-.22.45-.35.13-.13.27-.25.4-.35.1-.1.2-.18.3-.25l.1-.1 2.45 1.2zm-3.1 4.7 1.05-3.85-.65-.3-2.1 1.85-2.25.2c.27-2.13.1-4.08-.5-5.85-.57-1.63-1.48-3.03-2.75-4.2-1.17-1.07-2.57-1.9-4.2-2.5-1.57-.57-3.22-.85-4.95-.85s-3.38.28-4.95.85c-1.63.57-3.03 1.4-4.2 2.5a10.187 10.187 0 0 0-2.75 4.2c-.63 1.77-.82 3.72-.55 5.85H5.3l-2.05-2.1-1 .4 1.3 3.95 5.25 4.8 2.45 7c.2-.03.38-.05.55-.05.2 0 .38.03.55.1s.33.15.5.25c.13.1.27.23.4.4.17.17.3.37.4.6.13.2.25.43.35.7.13.27.25.57.35.9s.18.7.25 1.1c.17.07.32.12.45.15.13.07.27.13.4.2s.25.15.35.25c.13.07.25.17.35.3.1.1.2.22.3.35.1.1.18.23.25.4.1.17.18.33.25.5s.12.35.15.55v.2c.03.07.05.13.05.2.03.03.07.08.1.15s.07.12.1.15c0 .07.03.12.1.15.03.07.07.12.1.15s.07.08.1.15c.07.03.12.07.15.1h.25c.03 0 .07-.02.1-.05.03 0 .05-.02.05-.05.03 0 .07-.02.1-.05 0-.03.02-.08.05-.15v-.1c.03-.03.05-.08.05-.15-.03-.23-.05-.45-.05-.65-.03-.23-.05-.45-.05-.65v-.55c0-.2.02-.38.05-.55 0-.13.02-.28.05-.45.03-.13.08-.25.15-.35.03-.13.08-.25.15-.35s.13-.18.2-.25c.03.07.05.12.05.15.03.07.07.13.1.2 0 .03.02.08.05.15.03.03.07.08.1.15.03.03.08.07.15.1.03.07.07.12.1.15.07.03.12.07.15.1.07.03.13.07.2.1.03-.03.07-.05.1-.05l.2-.2c0-.03.02-.07.05-.1v-.55c.03.03.05.08.05.15 0 .03.02.08.05.15 0 .03.02.07.05.1 0 .07.02.12.05.15s.05.07.05.1c.03.03.07.05.1.05l.1.1c.03.03.07.05.1.05s.07-.02.1-.05l.2-.2c.07-.03.12-.07.15-.1s.07-.08.1-.15c.03-.03.05-.08.05-.15.03-.07.07-.12.1-.15.03-.07.07-.13.1-.2.07.03.12.1.15.2.07.07.12.15.15.25s.07.2.1.3c.03.13.07.27.1.4v.5a2 2 0 0 1 0 .6v.65c-.03.27-.07.53-.1.8.03.07.05.12.05.15s.02.07.05.1c0 .03.02.07.05.1 0 .03.02.07.05.1.03 0 .05.02.05.05.03 0 .07.02.1.05h.2c.07-.03.12-.05.15-.05.07-.03.12-.07.15-.1s.08-.07.15-.1c.03-.07.07-.12.1-.15.03-.07.08-.13.15-.2.03-.07.07-.13.1-.2.07-.1.12-.18.15-.25.03-.1.08-.2.15-.3 0-.17.03-.33.1-.5.03-.17.08-.32.15-.45s.13-.25.2-.35c.07-.13.15-.25.25-.35s.22-.18.35-.25c.1-.1.22-.18.35-.25s.27-.13.4-.2.28-.12.45-.15c.03-.4.08-.77.15-1.1.03-.33.1-.63.2-.9.07-.27.17-.52.3-.75.1-.2.22-.38.35-.55.13-.13.27-.25.4-.35.17-.1.33-.18.5-.25.17-.03.35-.05.55-.05s.4.02.6.05l2.35-7.1 5.3-5z"/><path fill="#698269" d="M37.55 13.75 36.5 17.6l-5.3 5-2.35 7.1c-.2-.03-.4-.05-.6-.05s-.38.02-.55.05c-.17.07-.33.15-.5.25-.13.1-.27.22-.4.35-.13.17-.25.35-.35.55-.13.23-.23.48-.3.75-.1.27-.17.57-.2.9-.07.33-.12.7-.15 1.1-.17.03-.32.08-.45.15s-.27.13-.4.2-.25.15-.35.25c-.13.07-.25.15-.35.25s-.18.22-.25.35c-.07.1-.13.22-.2.35s-.12.28-.15.45c-.07.17-.1.33-.1.5-.07.1-.12.2-.15.3-.03.07-.08.15-.15.25-.03.07-.07.13-.1.2-.07.07-.12.13-.15.2-.03.03-.07.08-.1.15-.07.03-.12.07-.15.1s-.08.07-.15.1c-.03 0-.08.02-.15.05h-.2c-.03-.03-.07-.05-.1-.05 0-.03-.02-.05-.05-.05-.03-.03-.05-.07-.05-.1-.03-.03-.05-.07-.05-.1-.03-.03-.05-.07-.05-.1s-.02-.08-.05-.15c.03-.27.07-.53.1-.8v-.65a2 2 0 0 0 0-.6v-.5c-.03-.13-.07-.27-.1-.4-.03-.1-.07-.2-.1-.3s-.08-.18-.15-.25c-.03-.1-.08-.17-.15-.2-.03.07-.07.13-.1.2-.03.03-.07.08-.1.15 0 .07-.02.12-.05.15-.03.07-.07.12-.1.15s-.08.07-.15.1l-.2.2c-.03.03-.07.05-.1.05s-.07-.02-.1-.05l-.1-.1c-.03 0-.07-.02-.1-.05 0-.03-.02-.07-.05-.1s-.05-.08-.05-.15c-.03-.03-.05-.07-.05-.1a.504.504 0 0 1-.05-.15c0-.07-.02-.12-.05-.15v.55c-.03.03-.05.07-.05.1l-.2.2c-.03 0-.07.02-.1.05-.07-.03-.13-.07-.2-.1a.483.483 0 0 0-.15-.1.483.483 0 0 1-.1-.15.483.483 0 0 1-.15-.1.483.483 0 0 0-.1-.15.504.504 0 0 1-.05-.15c-.03-.07-.07-.13-.1-.2 0-.03-.02-.08-.05-.15-.07.07-.13.15-.2.25s-.12.22-.15.35c-.07.1-.12.22-.15.35-.03.17-.05.32-.05.45-.03.17-.05.35-.05.55v.55c0 .2.02.42.05.65 0 .2.02.42.05.65 0 .07-.02.12-.05.15v.1c-.03.07-.05.12-.05.15-.03.03-.07.05-.1.05 0 .03-.02.05-.05.05-.03.03-.07.05-.1.05h-.25a.483.483 0 0 0-.15-.1c-.03-.07-.07-.12-.1-.15s-.07-.08-.1-.15a.15.15 0 0 1-.1-.15c-.03-.03-.07-.08-.1-.15s-.07-.12-.1-.15c0-.07-.02-.13-.05-.2v-.2c-.03-.2-.08-.38-.15-.55s-.15-.33-.25-.5c-.07-.17-.15-.3-.25-.4-.1-.13-.2-.25-.3-.35a1.1 1.1 0 0 0-.35-.3c-.1-.1-.22-.18-.35-.25s-.27-.13-.4-.2a2.95 2.95 0 0 1-.45-.15c-.07-.4-.15-.77-.25-1.1s-.22-.63-.35-.9c-.1-.27-.22-.5-.35-.7-.1-.23-.23-.43-.4-.6-.13-.17-.27-.3-.4-.4-.17-.1-.33-.18-.5-.25s-.35-.1-.55-.1c-.17 0-.35.02-.55.05l-2.45-7-5.25-4.8-1.3-3.95 1-.4 2.05 2.1h2.4c-.27-2.13-.08-4.08.55-5.85.57-1.63 1.48-3.03 2.75-4.2 1.17-1.1 2.57-1.93 4.2-2.5 1.57-.57 3.22-.85 4.95-.85s3.38.28 4.95.85c1.63.6 3.03 1.43 4.2 2.5 1.27 1.17 2.18 2.57 2.75 4.2.6 1.77.77 3.72.5 5.85l2.25-.2 2.1-1.85.65.3zM28.5 22.6c.03-.07.07-.13.1-.2-.07.1-.15.2-.25.3-.07.13-.15.25-.25.35-.13.13-.27.25-.4.35-.1.13-.23.25-.4.35-.13.13-.27.25-.4.35-.17.1-.33.2-.5.3-.17.07-.33.13-.5.2-.2.1-.38.17-.55.2-.23.07-.45.13-.65.2s-.38.13-.55.2c-.13.07-.27.15-.4.25-.1.07-.2.15-.3.25-.07.07-.13.15-.2.25-.03.07-.08.17-.15.3-.03.07-.08.15-.15.25-.07.17-.1.27-.1.3l-1.3-2.95-.15.4 1.55 3.4c.03-.13.07-.27.1-.4s.07-.25.1-.35.07-.2.1-.3.08-.18.15-.25c.03-.1.08-.18.15-.25s.13-.12.2-.15c.07-.07.13-.12.2-.15s.13-.05.2-.05c.03.17.1.32.2.45.07.1.17.18.3.25.13.03.27.05.4.05.17 0 .32-.03.45-.1.17-.03.32-.1.45-.2.17-.1.32-.22.45-.35s.25-.27.35-.4c.1-.17.18-.33.25-.5.03-.1.23-.43.6-1l.35-.35c.03-.03.07-.08.1-.15.07-.07.12-.13.15-.2s.07-.13.1-.2.07-.13.1-.2.07-.15.1-.25zm-9.55 1.65-.15-.4-1.3 2.95c0-.03-.03-.13-.1-.3-.07-.1-.12-.18-.15-.25a.607.607 0 0 0-.15-.3c-.07-.1-.13-.18-.2-.25-.1-.1-.2-.18-.3-.25-.13-.1-.27-.18-.4-.25-.17-.07-.35-.13-.55-.2s-.42-.13-.65-.2c-.17-.03-.35-.1-.55-.2-.17-.07-.33-.13-.5-.2-.17-.1-.32-.2-.45-.3-.17-.1-.32-.22-.45-.35-.13-.1-.27-.22-.4-.35-.13-.1-.25-.22-.35-.35a1.1 1.1 0 0 1-.3-.35c-.1-.1-.18-.2-.25-.3.03.07.07.13.1.2.03.1.07.18.1.25s.07.13.1.2.07.13.1.2.08.13.15.2c.03.07.08.12.15.15.03.07.08.13.15.2l.15.15c.37.57.57.9.6 1 .07.17.15.33.25.5.1.13.22.27.35.4s.28.25.45.35c.13.1.28.17.45.2.17.07.32.1.45.1s.27-.02.4-.05c.13-.07.23-.15.3-.25.1-.13.17-.28.2-.45.07 0 .13.02.2.05.1.03.18.08.25.15l.15.15c.07.07.12.15.15.25.07.07.12.15.15.25s.07.2.1.3c.07.1.1.22.1.35.03.13.07.27.1.4l1.55-3.4z"/><path fill="#cd5a5a" d="M28.6 22.4c-.03.07-.07.13-.1.2-.03.1-.07.18-.1.25s-.07.13-.1.2-.07.13-.1.2-.08.13-.15.2c-.03.07-.07.12-.1.15l-.35.35c-.37.57-.57.9-.6 1-.07.17-.15.33-.25.5-.1.13-.22.27-.35.4s-.28.25-.45.35c-.13.1-.28.17-.45.2-.13.07-.28.1-.45.1-.13 0-.27-.02-.4-.05a.837.837 0 0 1-.3-.25c-.1-.13-.17-.28-.2-.45-.07 0-.13.02-.2.05s-.13.08-.2.15c-.07.03-.13.08-.2.15s-.12.15-.15.25c-.07.07-.12.15-.15.25s-.07.2-.1.3-.07.22-.1.35-.07.27-.1.4l-1.55-3.4.15-.4 1.3 2.95c0-.03.03-.13.1-.3.07-.1.12-.18.15-.25.07-.13.12-.23.15-.3.07-.1.13-.18.2-.25.1-.1.2-.18.3-.25.13-.1.27-.18.4-.25.17-.07.35-.13.55-.2s.42-.13.65-.2c.17-.03.35-.1.55-.2.17-.07.33-.13.5-.2.17-.1.33-.2.5-.3.13-.1.27-.22.4-.35.17-.1.3-.22.4-.35.13-.1.27-.22.4-.35.1-.1.18-.22.25-.35.1-.1.18-.2.25-.3zm-9.8 1.45.15.4-1.55 3.4c-.03-.13-.07-.27-.1-.4 0-.13-.03-.25-.1-.35-.03-.1-.07-.2-.1-.3s-.08-.18-.15-.25a.579.579 0 0 0-.15-.25l-.15-.15a.579.579 0 0 0-.25-.15.492.492 0 0 0-.2-.05c-.03.17-.1.32-.2.45-.07.1-.17.18-.3.25-.13.03-.27.05-.4.05s-.28-.03-.45-.1c-.17-.03-.32-.1-.45-.2-.17-.1-.32-.22-.45-.35s-.25-.27-.35-.4c-.1-.17-.18-.33-.25-.5-.03-.1-.23-.43-.6-1l-.15-.15a.654.654 0 0 1-.15-.2.276.276 0 0 1-.15-.15c-.07-.07-.12-.13-.15-.2s-.07-.13-.1-.2-.07-.13-.1-.2-.07-.15-.1-.25c-.03-.07-.07-.13-.1-.2.07.1.15.2.25.3.07.13.17.25.3.35.1.13.22.25.35.35.13.13.27.25.4.35.13.13.28.25.45.35.13.1.28.2.45.3.17.07.33.13.5.2.2.1.38.17.55.2.23.07.45.13.65.2s.38.13.55.2c.13.07.27.15.4.25.1.07.2.15.3.25.07.07.13.15.2.25.07.07.12.17.15.3.03.07.08.15.15.25.07.17.1.27.1.3l1.3-2.95z"/></g></svg>