<svg xmlns="http://www.w3.org/2000/svg" width="40" height="40"><path fill="#966E82" d="M16.55 23.65v7.1h7v-7.1c0-.17-.02-.32-.05-.45-.03-.2-.08-.4-.15-.6-.07-.27-.15-.5-.25-.7-.1-.27-.23-.5-.4-.7-.17-.23-.37-.43-.6-.6-.27-.2-.57-.35-.9-.45-.37-.1-.75-.15-1.15-.15-.43 0-.83.05-1.2.15-.3.1-.58.25-.85.45-.23.17-.45.37-.65.6-.17.2-.3.43-.4.7-.1.2-.18.43-.25.7-.07.2-.12.4-.15.6v.45zm-5.3-17.4c.4-.4.83-.77 1.3-1.1.5-.37 1.02-.68 1.55-.95.3-.13.6-.25.9-.36.15-.06.3-.11.45-.15.15-.05.3-.1.45-.14.67-.2 1.33-.35 2-.45.7-.1 1.42-.15 2.15-.15h.5s.33.02.5.05h.5c.17.03.33.07.5.1.17 0 .32.02.45.05.17.03.33.07.5.1s.32.07.45.1c.17.03.32.07.45.1l.95-1.15 1.55.65-.2 1.4c.33.17.65.35.95.55l.9.6c.27.23.52.47.75.7s.45.48.65.75c.17.27.33.53.5.8.13.27.25.55.35.85.13.27.22.55.25.85.07.33.1.65.1.95v.45c-.03.13-.07.28-.1.45 0 .13-.03.27-.1.4-.03.17-.07.32-.1.45-.07.13-.12.27-.15.4-.07.13-.13.27-.2.4s-.15.27-.25.4c-.07.13-.15.27-.25.4.23.27.48.57.75.9.23.3.45.63.65 1 .23.33.43.67.6 1 .2.37.38.73.55 1.1.17.33.32.67.45 1 .13.37.23.7.3 1 .1.33.17.65.2.95.07.3.1.57.1.8 0 .57-.05 1.17-.15 1.8-.07.57-.18 1.15-.35 1.75-.13.53-.28 1.1-.45 1.7-.17.47-.35.97-.55 1.5-.17.43-.35.85-.55 1.25-.17.37-.33.7-.5 1-.13.23-.25.45-.35.65-.03.07-.07.15-.1.25l-9.9 6.35-10.15-6.7s-.05-.08-.15-.25c-.13-.2-.27-.42-.4-.65-.17-.37-.33-.72-.5-1.05-.23-.43-.45-.87-.65-1.3-.23-.5-.45-1-.65-1.5-.2-.53-.38-1.07-.55-1.6-.17-.57-.3-1.1-.4-1.6-.07-.57-.1-1.1-.1-1.6 0-.27.02-.55.05-.85.07-.27.15-.57.25-.9s.22-.68.35-1.05.28-.72.45-1.05c.2-.37.4-.73.6-1.1s.42-.72.65-1.05.48-.65.75-.95c.23-.33.48-.63.75-.9-.1-.13-.18-.27-.25-.4-.07-.1-.13-.22-.2-.35s-.13-.27-.2-.4a1.63 1.63 0 0 0-.15-.4c-.03-.13-.07-.28-.1-.45-.03-.13-.07-.27-.1-.4 0-.13-.02-.27-.05-.4v-.45c0-.5.07-1 .2-1.5.17-.47.38-.93.65-1.4.27-.43.58-.85.95-1.25zm2.35 3.85c.07.07.13.12.2.15.07.07.13.1.2.1.07.03.15.05.25.05.07 0 .15-.02.25-.05.1 0 .18-.03.25-.1.1-.03.18-.08.25-.15.07-.03.13-.1.2-.2l.2-.2c.07-.1.13-.2.2-.3.03-.1.07-.2.1-.3s.07-.2.1-.3c.03-.13.05-.25.05-.35v-.3c-.03-.1-.05-.2-.05-.3a.654.654 0 0 0-.15-.2.515.515 0 0 0-.1-.2.654.654 0 0 0-.2-.15c-.07-.07-.13-.1-.2-.1a.915.915 0 0 0-.25-.05c-.1 0-.2.02-.3.05-.07.03-.15.07-.25.1-.07.03-.13.08-.2.15-.1.07-.18.13-.25.2s-.13.15-.2.25c-.07.07-.12.15-.15.25-.07.1-.12.2-.15.3-.03.13-.07.25-.1.35 0 .1-.02.2-.05.3 0 .1.02.2.05.3 0 .1.02.2.05.3.03.07.07.13.1.2.03.1.08.17.15.2z"/><path fill="#E4DFA2" d="M20.05 20c.4 0 .78.05 1.15.15.33.1.63.25.9.45.23.17.43.37.6.6.17.2.3.43.4.7.1.2.18.43.25.7.07.2.12.4.15.6.03.13.05.28.05.45v7.1h-7V23.2c.03-.2.08-.4.15-.6.07-.27.15-.5.25-.7.1-.27.23-.5.4-.7.2-.23.42-.43.65-.6.27-.2.55-.35.85-.45.37-.1.77-.15 1.2-.15z"/><path fill="#6E5050" d="M15.8 7.85c0 .1.02.2.05.3-.03-.1-.07-.2-.1-.3 0-.07-.03-.13-.1-.2.07.07.12.13.15.2zm-.35-4.16zm-1.35.51c.29-.14.59-.26.9-.36-.3.11-.6.23-.9.36z"/><path fill="#E4DFA2" d="M13.7 7.9c.07-.1.13-.18.2-.25s.15-.13.25-.2c.07-.07.13-.12.2-.15.1-.03.18-.07.25-.1.1-.03.2-.05.3-.05.07 0 .15.02.25.05.07 0 .13.03.2.1.07.03.13.08.2.15.03.03.07.1.1.2.07.07.1.13.1.2.03.1.07.2.1.3v.3c0 .1-.02.22-.05.35-.03.1-.07.2-.1.3s-.07.2-.1.3c-.07.1-.13.2-.2.3l-.2.2c-.07.1-.13.17-.2.2-.07.07-.15.12-.25.15-.07.07-.15.1-.25.1-.1.03-.18.05-.25.05-.1 0-.18-.02-.25-.05-.07 0-.13-.03-.2-.1a.654.654 0 0 1-.2-.15c-.07-.03-.12-.1-.15-.2-.03-.07-.07-.13-.1-.2-.03-.1-.05-.2-.05-.3-.03-.1-.03-.2 0-.3v-.3c.03-.1.07-.22.1-.35.03-.1.08-.2.15-.3.03-.1.08-.18.15-.25z"/><path fill="#6E5050" d="M10.3 7.5c-.27.47-.48.93-.65 1.4.13-.47.35-.93.65-1.4z"/><path fill="#6E5050" d="M7.3 18.7c-.13.37-.25.72-.35 1.05s-.18.63-.25.9c-.03.3-.05.58-.05.85 0 .5.03 1.03.1 1.6.1.5.23 1.03.4 1.6.17.53.35 1.07.55 1.6.2.5.42 1 .65 1.5.2.43.42.87.65 1.3.17.33.33.68.5 1.05.13.23.27.45.4.65.1.17.15.25.15.25l10.15 6.7 9.9-6.35c.03-.1.07-.18.1-.25.1-.2.22-.42.35-.65.17-.3.33-.63.5-1 .2-.4.38-.82.55-1.25.2-.53.38-1.03.55-1.5.17-.6.32-1.17.45-1.7.17-.6.28-1.18.35-1.75.1-.63.15-1.23.15-1.8 0-.23-.03-.5-.1-.8-.03-.3-.1-.62-.2-.95-.07-.3-.17-.63-.3-1-.13-.33-.28-.67-.45-1-.17-.37-.35-.73-.55-1.1-.17-.33-.37-.67-.6-1-.2-.37-.42-.7-.65-1-.27-.33-.52-.63-.75-.9.1-.13.18-.27.25-.4.1-.13.18-.27.25-.4s.13-.27.2-.4c.03-.13.08-.27.15-.4.03-.13.07-.28.1-.45.07-.13.1-.27.1-.4.03-.17.07-.32.1-.45v-.45c0-.3-.03-.62-.1-.95-.03-.3-.12-.58-.25-.85-.1-.3-.22-.58-.35-.85-.17-.27-.33-.53-.5-.8-.2-.27-.42-.52-.65-.75s-.48-.47-.75-.7l-.9-.6c-.3-.2-.62-.38-.95-.55l.2-1.4-1.55-.65-.95 1.15c-.13-.03-.28-.07-.45-.1-.13-.03-.28-.07-.45-.1s-.33-.07-.5-.1c-.13-.03-.28-.05-.45-.05-.17-.03-.33-.07-.5-.1h-.5c-.17-.03-.33-.05-.5-.05h-.5c-.73 0-1.45.05-2.15.15-.67.1-1.33.25-2 .45-.15.04-.3.09-.45.14-.15.04-.3.09-.45.15-.31.1-.61.22-.9.36-.53.27-1.05.58-1.55.95-.47.33-.9.7-1.3 1.1-.37.4-.68.82-.95 1.25-.3.47-.52.93-.65 1.4-.13.5-.2 1-.2 1.5v.45c.03.13.05.27.05.4.03.13.07.27.1.4.03.17.07.32.1.45.07.13.12.27.15.4.07.13.13.27.2.4s.13.25.2.35c.07.13.15.27.25.4-.27.27-.52.57-.75.9a10.925 10.925 0 0 0-1.4 2c-.2.37-.4.73-.6 1.1-.17.33-.32.68-.45 1.05zM7 11.55v-.4c-.03-.1-.05-.22-.05-.35 0-.63.08-1.25.25-1.85.2-.6.47-1.17.8-1.7.33-.57.73-1.08 1.2-1.55.47-.5 1-.97 1.6-1.4.6-.4 1.25-.77 1.95-1.1s1.43-.62 2.2-.85c.8-.23 1.62-.42 2.45-.55.87-.1 1.75-.15 2.65-.15h1.15c.13.03.27.05.4.05s.25.02.35.05c.13 0 .27.02.4.05.13 0 .25.02.35.05.13 0 .27.02.4.05L24.6 0l3.6 1.55-.25 1.95c.4.2.77.43 1.1.7.37.23.7.48 1 .75.33.27.63.53.9.8.27.3.52.6.75.9.23.33.43.67.6 1s.32.67.45 1c.1.33.18.68.25 1.05s.1.73.1 1.1v.35c0 .13-.02.27-.05.4 0 .1-.02.22-.05.35-.03.1-.05.22-.05.35-.03.1-.07.22-.1.35-.03.1-.07.22-.1.35-.03.1-.08.2-.15.3-.03.13-.08.25-.15.35.27.33.52.68.75 1.05.23.33.45.68.65 1.05.2.33.38.68.55 1.05.17.33.32.68.45 1.05.13.33.25.67.35 1s.18.65.25.95.12.6.15.9.05.58.05.85c0 .7-.05 1.42-.15 2.15-.1.67-.25 1.35-.45 2.05-.17.6-.37 1.22-.6 1.85-.23.57-.47 1.12-.7 1.65-.23.47-.48.92-.75 1.35-.2.37-.4.72-.6 1.05-.13.23-.28.45-.45.65-.03.1-.08.18-.15.25L20.2 40 8.3 32.1s-.05-.08-.15-.25c-.17-.23-.32-.48-.45-.75-.23-.37-.45-.73-.65-1.1-.27-.47-.52-.95-.75-1.45-.27-.53-.5-1.08-.7-1.65-.27-.6-.48-1.18-.65-1.75-.2-.63-.35-1.25-.45-1.85-.1-.63-.15-1.23-.15-1.8 0-.27.02-.55.05-.85.03-.27.08-.57.15-.9.07-.3.15-.62.25-.95s.22-.67.35-1c.13-.37.28-.72.45-1.05.2-.37.4-.72.6-1.05.2-.37.42-.72.65-1.05.23-.37.48-.72.75-1.05-.07-.1-.12-.22-.15-.35-.03-.1-.07-.2-.1-.3-.07-.13-.12-.25-.15-.35-.03-.13-.05-.25-.05-.35-.03-.13-.07-.25-.1-.35 0-.13-.02-.25-.05-.35z"/></svg>