<svg xmlns="http://www.w3.org/2000/svg" width="40" height="40"><path fill="#554B41" d="M28.2 26.1v2.1l-1.4-1.35zm-10.35 8.75h4.4v1.35h-4.4zm0-3.05h4.4v1.4h-4.4zm0-3.1h4.4v1.4h-4.4z"/><path fill="#E4DFA2" d="M19.75 18.75c.1-.17.18-.35.25-.55.1.17.18.33.25.5.1.17.2.33.3.5s.2.32.3.45c.1.17.2.33.3.5s.2.33.3.5c.1.13.22.28.35.45.1.17.22.33.35.5.1.13.22.28.35.45v3.25h-5v-3.25c.13-.13.25-.28.35-.45.13-.13.25-.27.35-.4.13-.17.25-.32.35-.45.1-.17.22-.33.35-.5a4.39 4.39 0 0 0 .55-.95c.1-.2.2-.38.3-.55z"/><path fill="#554B41" d="m13.05 26.7-1.45 1.45V25.9z"/><path fill="#7D6455" d="M22.25 28.7h-4.4v1.4h4.4v-1.4zm0 3.1h-4.4v1.4h4.4v-1.4zm-4.4 4.4h4.4v-1.35h-4.4v1.35zm-6.25-8.05 1.45-1.45-1.45-.8v2.25zm16.6.05v-2.1l-1.4.75 1.4 1.35zm-18.35-7L8.3 22.4l-1.6-1.3c.63-.47 1.28-.95 1.95-1.45.63-.57 1.27-1.15 1.9-1.75.67-.63 1.3-1.28 1.9-1.95.63-.7 1.23-1.42 1.8-2.15.6-.8 1.17-1.6 1.7-2.4.53-.83 1.05-1.7 1.55-2.6s.95-1.82 1.35-2.75c.43-.97.82-1.93 1.15-2.9.4.97.82 1.93 1.25 2.9.47.93.95 1.83 1.45 2.7.5.9 1.02 1.77 1.55 2.6s1.08 1.63 1.65 2.4 1.15 1.5 1.75 2.2 1.22 1.35 1.85 1.95c.6.63 1.23 1.22 1.9 1.75.63.53 1.27 1.02 1.9 1.45l-1.75 1.4-1.6-1.25V32.4l-1.75.95v-3.6l-2.4-2.35-2.4 1.25v8.05L20 38.4l-3.3-1.7v-8l-2.65-1.45-2.45 2.45v3.65l-1.75-.95V21.2zm12.65 4.1v-3.25c-.13-.17-.25-.32-.35-.45-.13-.17-.25-.33-.35-.5-.13-.17-.25-.32-.35-.45-.1-.17-.2-.33-.3-.5s-.2-.33-.3-.5c-.1-.13-.2-.28-.3-.45s-.2-.33-.3-.5c-.07-.17-.15-.33-.25-.5-.07.2-.15.38-.25.55s-.2.35-.3.55a4.39 4.39 0 0 1-.55.95c-.13.17-.25.33-.35.5-.1.13-.22.28-.35.45-.1.13-.22.27-.35.4-.1.17-.22.32-.35.45v3.25h5z"/><path fill="#554B41" d="M13.1 36.4 8 33.65v-9.1L3.9 21.1c.77-.57 1.48-1.12 2.15-1.65.73-.57 1.42-1.15 2.05-1.75.67-.63 1.32-1.28 1.95-1.95.63-.7 1.27-1.45 1.9-2.25.63-.83 1.27-1.7 1.9-2.6.63-.97 1.28-2 1.95-3.1.63-1.1 1.3-2.3 2-3.6s1.42-2.7 2.15-4.2c.77 1.5 1.48 2.88 2.15 4.15.7 1.3 1.38 2.5 2.05 3.6.63 1.1 1.27 2.12 1.9 3.05.63.97 1.27 1.85 1.9 2.65s1.27 1.55 1.9 2.25 1.3 1.37 2 2c.63.6 1.32 1.18 2.05 1.75.67.53 1.4 1.07 2.2 1.6l-4.6 3.45V34l-4.7 2.7v-6.5l-1.1-1.05-.75.4.05 7.8L19.95 40l-4.9-2.55.05-7.75-.85-.45-1.15 1.15v6zm-2.55-18.5c-.63.6-1.27 1.18-1.9 1.75-.67.5-1.32.98-1.95 1.45l1.6 1.3 1.55-1.2v11.2l1.75.95V29.7l2.45-2.45 2.65 1.45v8l3.3 1.7 3.4-1.7v-8.05l2.4-1.25 2.4 2.35v3.6l1.75-.95V21.25l1.6 1.25 1.75-1.4c-.63-.43-1.27-.92-1.9-1.45-.67-.53-1.3-1.12-1.9-1.75-.63-.6-1.25-1.25-1.85-1.95s-1.18-1.43-1.75-2.2-1.12-1.57-1.65-2.4-1.05-1.7-1.55-2.6c-.5-.87-.98-1.77-1.45-2.7-.43-.97-.85-1.93-1.25-2.9-.33.97-.72 1.93-1.15 2.9-.4.93-.85 1.85-1.35 2.75s-1.02 1.77-1.55 2.6c-.53.8-1.1 1.6-1.7 2.4-.57.73-1.17 1.45-1.8 2.15-.6.67-1.23 1.32-1.9 1.95z"/></svg>