<svg xmlns="http://www.w3.org/2000/svg" width="40" height="40"><path fill="#E4DFA2" d="M25 24.55c0-.13.02-.25.05-.35v-.35c.03-.1.07-.2.1-.3.03-.07.07-.13.1-.2a.654.654 0 0 1 .3-.3c.03-.03.08-.05.15-.05s.13.02.2.05c.03.03.08.07.15.1l.2.2c.03.07.08.13.15.2.03.1.08.2.15.3.03.1.07.22.1.35.03.1.07.22.1.35 0 .13.02.27.05.4v.75c0 .1-.02.2-.05.3 0 .1-.02.2-.05.3-.03.07-.08.13-.15.2-.03.07-.07.13-.1.2-.07.03-.12.07-.15.1-.07.03-.13.05-.2.05s-.13-.02-.2-.05a.483.483 0 0 0-.15-.1.654.654 0 0 1-.15-.2.654.654 0 0 1-.15-.2c-.07-.1-.12-.2-.15-.3s-.07-.22-.1-.35c-.03-.1-.07-.22-.1-.35s-.05-.25-.05-.35c0-.13-.02-.27-.05-.4zM20 28c.03-.1.07-.2.1-.3s.08-.2.15-.3.13-.18.2-.25.13-.12.2-.15c.07-.07.13-.1.2-.1.1-.03.18-.05.25-.05s.15.02.25.05c.07 0 .13.03.2.1.1.03.18.08.25.15.03.07.08.15.15.25s.12.2.15.3.07.2.1.3.07.22.1.35v.8c-.03.1-.07.22-.1.35-.03.1-.07.2-.1.3s-.08.2-.15.3c-.07.07-.12.13-.15.2-.07.07-.15.13-.25.2-.07.03-.13.07-.2.1s-.15.05-.25.05c-.07 0-.15-.02-.25-.05-.07-.03-.13-.07-.2-.1l-.2-.2-.2-.2c-.07-.1-.12-.2-.15-.3s-.07-.22-.1-.35c-.03-.1-.05-.22-.05-.35-.03-.1-.05-.22-.05-.35s.02-.27.05-.4c0-.1.02-.22.05-.35zm-1.1-15.8c-.03 0-.08-.02-.15-.05L18.6 12c-.03-.07-.07-.13-.1-.2-.07-.07-.12-.13-.15-.2s-.05-.15-.05-.25a.915.915 0 0 1-.05-.25c-.03-.1-.05-.2-.05-.3v-.3c.03-.1.07-.2.1-.3 0-.07.02-.15.05-.25.03-.07.07-.13.1-.2.07-.07.12-.13.15-.2.07-.03.12-.07.15-.1.07-.07.12-.1.15-.1.07-.03.13-.05.2-.05s.13.02.2.05c.03 0 .08.02.15.05l.15.15c.03.07.08.13.15.2.03.07.07.13.1.2.03.1.05.18.05.25.03.1.05.2.05.3.03.1.05.2.05.3v.3c-.03.1-.05.18-.05.25-.03.1-.07.18-.1.25s-.07.13-.1.2c-.07.07-.12.13-.15.2s-.08.12-.15.15-.12.05-.15.05c-.07.03-.13.05-.2.05s-.13-.02-.2-.05zm-4.7 1.2c.03-.07.07-.12.1-.15s.07-.05.1-.05c.03-.03.07-.05.1-.05s.07.02.1.05l.1.1c.03.03.05.08.05.15.03.07.05.13.05.2.03.1.05.18.05.25.03.1.05.2.05.3v.6c0 .1-.02.2-.05.3 0 .1-.02.2-.05.3 0 .1-.02.18-.05.25-.03.1-.05.18-.05.25-.03.07-.07.13-.1.2l-.1.1-.1.1h-.1c-.03 0-.07-.02-.1-.05l-.1-.1c0-.03-.02-.08-.05-.15s-.05-.13-.05-.2a.618.618 0 0 1-.05-.25.618.618 0 0 1-.05-.25v-.65c0-.1.02-.2.05-.3 0-.1.02-.2.05-.3 0-.1.02-.18.05-.25s.07-.15.1-.25c0-.07.02-.12.05-.15z"/><path fill="#735541" d="M25.75 26.7c.07.03.12.07.15.1.07.03.13.05.2.05s.13-.02.2-.05c.03-.03.08-.07.15-.1.03-.07.07-.13.1-.2.07-.07.12-.13.15-.2.03-.1.05-.2.05-.3.03-.1.05-.2.05-.3v-.75c-.03-.13-.05-.27-.05-.4-.03-.13-.07-.25-.1-.35-.03-.13-.07-.25-.1-.35-.07-.1-.12-.2-.15-.3a.654.654 0 0 1-.15-.2l-.2-.2a.483.483 0 0 1-.15-.1c-.07-.03-.13-.05-.2-.05s-.12.02-.15.05a.654.654 0 0 0-.3.3c-.03.07-.07.13-.1.2-.03.1-.07.2-.1.3v.35c-.03.1-.05.22-.05.35.03.13.05.27.05.4 0 .1.02.22.05.35s.07.25.1.35c.03.13.07.25.1.35s.08.2.15.3c.03.07.08.13.15.2.03.07.08.13.15.2zM20 29.45c.03.13.07.25.1.35s.08.2.15.3l.2.2.2.2c.07.03.13.07.2.1.1.03.18.05.25.05.1 0 .18-.02.25-.05s.13-.07.2-.1c.1-.07.18-.13.25-.2.03-.07.08-.13.15-.2.07-.1.12-.2.15-.3s.07-.2.1-.3c.03-.13.07-.25.1-.35v-.8c-.03-.13-.07-.25-.1-.35s-.07-.2-.1-.3-.08-.2-.15-.3-.12-.18-.15-.25a.579.579 0 0 0-.25-.15c-.07-.07-.13-.1-.2-.1-.1-.03-.18-.05-.25-.05s-.15.02-.25.05c-.07 0-.13.03-.2.1-.07.03-.13.08-.2.15s-.13.15-.2.25-.12.2-.15.3-.07.2-.1.3c-.03.13-.05.25-.05.35-.03.13-.05.27-.05.4s.02.25.05.35c0 .13.02.25.05.35zm-1.25-17.3c.07.03.12.05.15.05.07.03.13.05.2.05s.13-.02.2-.05c.03 0 .08-.02.15-.05s.12-.08.15-.15.08-.13.15-.2c.03-.07.07-.13.1-.2s.07-.15.1-.25c0-.07.02-.15.05-.25v-.3c0-.1-.02-.2-.05-.3 0-.1-.02-.2-.05-.3 0-.07-.02-.15-.05-.25-.03-.07-.07-.13-.1-.2a.654.654 0 0 1-.15-.2l-.15-.15a.504.504 0 0 0-.15-.05c-.07-.03-.13-.05-.2-.05s-.13.02-.2.05c-.03 0-.08.03-.15.1-.03.03-.08.07-.15.1-.03.07-.08.13-.15.2-.03.07-.07.13-.1.2-.03.1-.05.18-.05.25-.03.1-.07.2-.1.3v.3c0 .1.02.2.05.3 0 .07.02.15.05.25 0 .1.02.18.05.25s.08.13.15.2c.03.07.07.13.1.2l.15.15zm-4.55 4.1c.03.03.07.05.1.05h.1l.1-.1.1-.1c.03-.07.07-.13.1-.2 0-.07.02-.15.05-.25.03-.07.05-.15.05-.25.03-.1.05-.2.05-.3.03-.1.05-.2.05-.3v-.6c0-.1-.02-.2-.05-.3 0-.07-.02-.15-.05-.25 0-.07-.02-.13-.05-.2 0-.07-.02-.12-.05-.15l-.1-.1c-.03-.03-.07-.05-.1-.05s-.07.02-.1.05c-.03 0-.07.02-.1.05s-.07.08-.1.15c-.03.03-.05.08-.05.15-.03.1-.07.18-.1.25s-.05.15-.05.25c-.03.1-.05.2-.05.3-.03.1-.05.2-.05.3v.65c0 .1.02.18.05.25 0 .1.02.18.05.25 0 .07.02.13.05.2s.05.12.05.15l.1.1zM32.3 1.9c.2.07.38.13.55.2.17.1.32.22.45.35.13.1.23.22.3.35.1.13.18.27.25.4s.1.28.1.45v.4c-.03.13-.08.25-.15.35a1.1 1.1 0 0 1-.3.35c-.1.1-.23.18-.4.25-.13.07-.28.13-.45.2s-.35.12-.55.15-.4.07-.6.1-.4.05-.6.05h-.65c-.23 0-.45-.02-.65-.05s-.4-.08-.6-.15c.1.1.18.2.25.3s.12.2.15.3.05.2.05.3c-.03.1-.08.2-.15.3-.03.07-.1.15-.2.25s-.22.18-.35.25c-.13.1-.28.18-.45.25s-.33.12-.5.15c-.03 0-.08.02-.15.05-.03 0-.08.02-.15.05h-.15c-.03 0-.07.02-.1.05h-.15c-.07 0-.12.02-.15.05h-.3c.17 2.27.33 5.73.5 10.4.13 3.6.32 6.03.55 7.3.03.2.08.38.15.55.07.2.17.38.3.55a5.055 5.055 0 0 0 .75.95c.13.1.28.23.45.4.1.1.23.22.4.35.23.2.37.32.4.35.13.1.23.2.3.3.17.17 1.03.88 2.6 2.15.07.03.13.08.2.15l.2.2c.07.1.15.2.25.3l.25.25c.07.1.13.2.2.3.1.1.18.2.25.3s.12.18.15.25c.07.1.1.18.1.25 0 .03.03.08.1.15.03.07.05.12.05.15.03.07.05.12.05.15.03.03.05.08.05.15.03.03.05.07.05.1 0 .07.02.12.05.15v.2c.03.07.05.15.05.25.07.87.13 1.72.2 2.55 0 0-.27-.4-.8-1.2-.6-.87-1.07-1.47-1.4-1.8-.1-.1-.22-.18-.35-.25-.1-.07-.2-.15-.3-.25-.13-.07-.27-.13-.4-.2-.1-.07-.22-.13-.35-.2-.1-.03-.22-.08-.35-.15s-.27-.12-.4-.15c-.1-.07-.22-.12-.35-.15-.03-.03-.13-.08-.3-.15a1.63 1.63 0 0 1-.4-.15c-.13-.03-.28-.07-.45-.1.1.3.23.67.4 1.1.13.37.27.68.4.95 0 .03.02.07.05.1s.05.07.05.1c.03.03.05.08.05.15.03 0 .07.03.1.1.03.03.05.07.05.1.03.03.05.07.05.1.03.03.05.07.05.1.03.03.05.08.05.15.07.5.15.98.25 1.45 0 0-.12-.13-.35-.4-.27-.3-.48-.52-.65-.65a.483.483 0 0 1-.15-.1.483.483 0 0 1-.15-.1c-.07-.03-.13-.07-.2-.1s-.13-.07-.2-.1c-.03-.03-.08-.07-.15-.1s-.13-.07-.2-.1-.13-.07-.2-.1-.13-.05-.2-.05c-.07-.03-.13-.07-.2-.1-.07 0-.13-.02-.2-.05s-.13-.05-.2-.05c-.07-.03-.13-.07-.2-.1-.07 0-.13-.02-.2-.05h-.25a.492.492 0 0 0-.2-.05H16.7v-.15c.03-.03.05-.07.05-.1v-.3c.03-.03.05-.08.05-.15v-.4c0-.23-.02-.45-.05-.65 0-.23-.03-.45-.1-.65-.03-.2-.08-.38-.15-.55-.07-.2-.15-.37-.25-.5-.07-.17-.15-.3-.25-.4-.1-.13-.2-.25-.3-.35-.1-.07-.22-.12-.35-.15-.1-.07-.22-.1-.35-.1s-.25.02-.35.05c-.13.07-.25.13-.35.2-.1.1-.2.22-.3.35-.1.1-.18.23-.25.4-.1.13-.18.3-.25.5-.07.17-.12.35-.15.55-.07.2-.1.4-.1.6-.03.23-.05.47-.05.7v.55c.03.03.05.08.05.15v.15c0 .03.02.07.05.1v.15c0-.03-.03-.03-.1 0-.87.17-1.43.3-1.7.4-.07.03-.13.05-.2.05-.03.03-.08.07-.15.1s-.13.07-.2.1-.13.07-.2.1-.12.07-.15.1c-.07.03-.13.07-.2.1s-.12.07-.15.1c-.07.03-.12.07-.15.1-.33.37-.67.72-1 1.05 0 .03.02-.15.05-.55.03-.43.08-.73.15-.9 0-.03.02-.08.05-.15.03-.03.05-.07.05-.1l.1-.1c0-.03.02-.08.05-.15l.1-.1c.03-.03.05-.07.05-.1.03-.03.05-.07.05-.1.03-.07.07-.12.1-.15.13-.3.35-.97.65-2-.37.1-.62.18-.75.25-.17.07-.28.12-.35.15-.13.03-.25.08-.35.15-.13.03-.25.08-.35.15-.13.07-.25.12-.35.15-.13.07-.27.13-.4.2-.1.07-.22.13-.35.2-.1.1-.22.18-.35.25-.1.1-.2.18-.3.25l-.35.35c-.1.13-.22.28-.35.45-.1.13-.22.3-.35.5-.13.17-.25.33-.35.5-.1.13-.22.28-.35.45-.07.13-.15.27-.25.4-.03.1-.08.18-.15.25 0 .03-.02.07-.05.1-.07.27 0-.58.2-2.55 0-.1.02-.18.05-.25v-.15c0-.07.02-.13.05-.2 0-.03.02-.08.05-.15v-.1c.03-.03.07-.08.1-.15 0-.03.02-.08.05-.15.03-.1.05-.17.05-.2.03-.07.07-.13.1-.2.07-.1.13-.18.2-.25.07-.1.13-.2.2-.3s.15-.2.25-.3c.07-.1.15-.2.25-.3l.45-.45.15-.15c1.5-1.2 2.37-1.92 2.6-2.15.07-.07.17-.15.3-.25l.35-.35c.17-.13.3-.23.4-.3.17-.13.3-.27.4-.4l.4-.4c.1-.13.2-.28.3-.45.1-.13.18-.28.25-.45.1-.17.15-.35.15-.55.23-1.33.43-3.78.6-7.35.27-5.3.47-8.85.6-10.65h-.3c-.03-.03-.08-.05-.15-.05h-.15c-.03 0-.08-.02-.15-.05h-.1a.504.504 0 0 0-.15-.05c-.07 0-.12-.02-.15-.05-.2-.07-.38-.13-.55-.2s-.32-.13-.45-.2-.23-.15-.3-.25l-.25-.25c-.07-.1-.1-.2-.1-.3v-.3c.03-.1.08-.2.15-.3s.17-.2.3-.3c-.2.07-.4.12-.6.15-.23.03-.45.05-.65.05H9c-.2 0-.4-.02-.6-.05-.23-.03-.43-.07-.6-.1-.2-.03-.38-.08-.55-.15-.2-.07-.37-.13-.5-.2s-.27-.15-.4-.25c-.1-.1-.18-.2-.25-.3-.07-.13-.12-.27-.15-.4s-.05-.27-.05-.4c.03-.17.08-.32.15-.45.03-.13.1-.27.2-.4s.22-.25.35-.35c.13-.13.28-.23.45-.3.17-.1.33-.18.5-.25H32.3z"/><path fill="#2D2D2D" d="M32.65 5.2c.17-.07.32-.13.45-.2.17-.07.3-.15.4-.25.13-.1.23-.22.3-.35.07-.1.12-.22.15-.35v-.4c0-.17-.03-.32-.1-.45s-.15-.27-.25-.4a1.1 1.1 0 0 0-.3-.35c-.13-.13-.28-.25-.45-.35-.17-.07-.35-.13-.55-.2H7.55c-.17.07-.33.15-.5.25-.17.07-.32.17-.45.3-.13.1-.25.22-.35.35s-.17.27-.2.4c-.07.13-.12.28-.15.45 0 .13.02.27.05.4s.08.27.15.4c.07.1.15.2.25.3.13.1.27.18.4.25s.3.13.5.2c.17.07.35.12.55.15.17.03.37.07.6.1.2.03.4.05.6.05h.65c.2 0 .42-.02.65-.05.2-.03.4-.08.6-.15-.13.1-.23.2-.3.3s-.12.2-.15.3v.3c0 .1.03.2.1.3l.25.25c.07.1.17.18.3.25s.28.13.45.2.35.13.55.2c.03.03.08.05.15.05.03 0 .08.02.15.05h.1c.07.03.12.05.15.05h.15c.07 0 .12.02.15.05h.3c-.13 1.8-.33 5.35-.6 10.65-.17 3.57-.37 6.02-.6 7.35 0 .2-.05.38-.15.55-.07.17-.15.32-.25.45-.1.17-.2.32-.3.45l-.4.4c-.1.13-.23.27-.4.4-.1.07-.23.17-.4.3l-.35.35c-.13.1-.23.18-.3.25-.23.23-1.1.95-2.6 2.15l-.15.15-.2.2-.25.25c-.1.1-.18.2-.25.3-.1.1-.18.2-.25.3s-.13.2-.2.3c-.07.07-.13.15-.2.25-.03.07-.07.13-.1.2 0 .03-.02.1-.05.2-.03.07-.05.12-.05.15-.03.07-.07.12-.1.15v.1c-.03.07-.05.12-.05.15-.03.07-.05.13-.05.2v.15c-.03.07-.05.15-.05.25-.2 1.97-.27 2.82-.2 2.55.03-.03.05-.07.05-.1.07-.07.12-.15.15-.25.1-.13.18-.27.25-.4.13-.17.25-.32.35-.45.1-.17.22-.33.35-.5.13-.2.25-.37.35-.5.13-.17.25-.32.35-.45l.35-.35c.1-.07.2-.15.3-.25.13-.07.25-.15.35-.25.13-.07.25-.13.35-.2.13-.07.27-.13.4-.2.1-.03.22-.08.35-.15.1-.07.22-.12.35-.15.1-.07.22-.12.35-.15.07-.03.18-.08.35-.15.13-.07.38-.15.75-.25-.3 1.03-.52 1.7-.65 2-.03.03-.07.08-.1.15 0 .03-.02.07-.05.1 0 .03-.02.07-.05.1l-.1.1c-.03.07-.05.12-.05.15l-.1.1c0 .03-.02.07-.05.1-.03.07-.05.12-.05.15-.07.17-.12.47-.15.9-.03.4-.05.58-.05.55.33-.33.67-.68 1-1.05.03-.03.08-.07.15-.1.03-.03.08-.07.15-.1s.13-.07.2-.1c.03-.03.08-.07.15-.1s.13-.07.2-.1.13-.07.2-.1.12-.07.15-.1c.07 0 .13-.02.2-.05.27-.1.83-.23 1.7-.4.07-.03.1-.03.1 0v-.15c-.03-.03-.05-.07-.05-.1v-.15c0-.07-.02-.12-.05-.15v-.55c0-.23.02-.47.05-.7 0-.2.03-.4.1-.6.03-.2.08-.38.15-.55.07-.2.15-.37.25-.5.07-.17.15-.3.25-.4.1-.13.2-.25.3-.35.1-.07.22-.13.35-.2.1-.03.22-.05.35-.05s.25.03.35.1c.13.03.25.08.35.15.1.1.2.22.3.35.1.1.18.23.25.4.1.13.18.3.25.5.07.17.12.35.15.55.07.2.1.42.1.65.03.2.05.42.05.65v.4c0 .07-.02.12-.05.15v.3c0 .03-.02.07-.05.1v.15H27s.13.02.2.05h.25c.07.03.13.05.2.05.07.03.13.07.2.1.07 0 .13.02.2.05s.13.05.2.05c.07.03.13.07.2.1.07 0 .13.02.2.05s.13.07.2.1.13.07.2.1.12.07.15.1c.07.03.13.07.2.1s.13.07.2.1c.03.03.08.07.15.1.03.03.08.07.15.1.17.13.38.35.65.65.23.27.35.4.35.4-.1-.47-.18-.95-.25-1.45 0-.07-.02-.12-.05-.15 0-.03-.02-.07-.05-.1 0-.03-.02-.07-.05-.1 0-.03-.02-.07-.05-.1-.03-.07-.07-.1-.1-.1 0-.07-.02-.12-.05-.15 0-.03-.02-.07-.05-.1s-.05-.07-.05-.1c-.13-.27-.27-.58-.4-.95-.17-.43-.3-.8-.4-1.1.17.03.32.07.45.1.13.07.27.12.4.15.17.07.27.12.3.15.13.03.25.08.35.15.13.03.27.08.4.15s.25.12.35.15c.13.07.25.13.35.2.13.07.27.13.4.2.1.1.2.18.3.25.13.07.25.15.35.25.33.33.8.93 1.4 1.8.53.8.8 1.2.8 1.2-.07-.83-.13-1.68-.2-2.55 0-.1-.02-.18-.05-.25v-.2c-.03-.03-.05-.08-.05-.15 0-.03-.02-.07-.05-.1 0-.07-.02-.12-.05-.15 0-.03-.02-.08-.05-.15 0-.03-.02-.08-.05-.15-.07-.07-.1-.12-.1-.15 0-.07-.03-.15-.1-.25a2.207 2.207 0 0 0-.4-.55c-.07-.1-.13-.2-.2-.3l-.25-.25c-.1-.1-.18-.2-.25-.3l-.2-.2s-.13-.12-.2-.15c-1.57-1.27-2.43-1.98-2.6-2.15-.07-.1-.17-.2-.3-.3-.03-.03-.17-.15-.4-.35-.17-.13-.3-.25-.4-.35-.17-.17-.32-.3-.45-.4a5.055 5.055 0 0 1-.75-.95c-.13-.17-.23-.35-.3-.55-.07-.17-.12-.35-.15-.55-.23-1.27-.42-3.7-.55-7.3-.17-4.67-.33-8.13-.5-10.4h.3c.03-.03.08-.05.15-.05h.15c.03-.03.07-.05.1-.05h.15c.07-.03.12-.05.15-.05.07-.03.12-.05.15-.05.17-.03.33-.08.5-.15s.32-.15.45-.25c.13-.07.25-.15.35-.25s.17-.18.2-.25c.07-.1.12-.2.15-.3a1.053 1.053 0 0 0-.2-.6c-.07-.1-.15-.2-.25-.3.2.07.4.12.6.15s.42.05.65.05h.65c.2 0 .4-.02.6-.05s.4-.07.6-.1.38-.08.55-.15zm.5 31.2h-.75c.07 1.2.15 2.4.25 3.6 0 0-.3-.37-.9-1.1-.67-.77-1.1-1.22-1.3-1.35l-.15-.15c-.17-.13-.22-.18-.15-.15-.1-.07-.18-.12-.25-.15l-.2-.2c-.1-.07-.18-.13-.25-.2a.579.579 0 0 1-.25-.15c-.1-.03-.18-.07-.25-.1-.1-.03-.2-.05-.3-.05-1.6-.1-4.47-.15-8.6-.15-4.2.03-7.08.08-8.65.15-.07 0-.15.02-.25.05s-.18.07-.25.1c-.1.07-.18.12-.25.15-.1.07-.18.13-.25.2-.07.03-.15.08-.25.15l-.2.2c-.1.1-.17.15-.2.15l-.15.15c-.2.17-.62.62-1.25 1.35-.3.37-.6.73-.9 1.1-.07 0 .02-1.2.25-3.6h-.8c-.1.03-.2.12-.3.25-.13.1-.27.23-.4.4s-.27.37-.4.6c-.13.2-.28.42-.45.65-.1.2-.22.42-.35.65-.1.17-.2.33-.3.5-.1.13-.18.27-.25.4 0 .07-.02.12-.05.15-.07 0-.12-.07-.15-.2-.07-.1-.13-.27-.2-.5a7.04 7.04 0 0 1-.35-1.6c-.07-.33-.12-.67-.15-1s-.05-.67-.05-1c-.03-.33-.05-.65-.05-.95 0-.33.02-.62.05-.85.03-.1.05-.22.05-.35.03-.1.05-.2.05-.3.03-.1.07-.2.1-.3s.05-.2.05-.3c.03-.07.07-.15.1-.25s.07-.18.1-.25c.03-.1.07-.2.1-.3.03-.07.07-.15.1-.25.03-.07.08-.17.15-.3.07-.1.13-.2.2-.3.1-.13.2-.25.3-.35.07-.13.15-.27.25-.4.1-.1.2-.22.3-.35.13-.1.23-.2.3-.3l.5-.5c.07-.07.2-.17.4-.3.23-.17.4-.3.5-.4.2-.13.38-.28.55-.45.23-.17.43-.32.6-.45.2-.2.38-.4.55-.6s.32-.4.45-.6c.17-.2.3-.42.4-.65s.18-.47.25-.7c.1-.4.2-.85.3-1.35.07-.47.13-.98.2-1.55.07-.53.13-1.12.2-1.75.03-.57.07-1.18.1-1.85.07-.6.12-1.28.15-2.05.03-.47.07-1.17.1-2.1.07-1.03.1-1.78.1-2.25.07-.87.12-1.63.15-2.3-.5-.07-.87-.15-1.1-.25-.23-.07-.43-.15-.6-.25-.2-.07-.37-.15-.5-.25-.17-.1-.3-.22-.4-.35-.1-.1-.18-.22-.25-.35-.07-.1-.12-.22-.15-.35 0-.13.02-.27.05-.4s.08-.25.15-.35c.1-.13.2-.27.3-.4a4.6 4.6 0 0 1-.65.15c-.2.07-.4.1-.6.1-.2.03-.38.05-.55.05-.2-.03-.38-.07-.55-.1s-.33-.07-.5-.1c-.17-.07-.32-.13-.45-.2-.13-.1-.28-.18-.45-.25-.13-.1-.27-.22-.4-.35s-.25-.3-.35-.5-.17-.43-.2-.7c-.07-.27-.08-.55-.05-.85 0-.33.03-.65.1-.95.07-.33.17-.65.3-.95.17-.33.35-.63.55-.9.23-.27.5-.52.8-.75.33-.2.72-.37 1.15-.5h26.3c.37.1.7.27 1 .5.3.2.57.43.8.7.2.27.38.57.55.9.13.3.23.62.3.95.1.3.15.62.15.95.03.3.03.6 0 .9-.07.27-.13.5-.2.7-.1.23-.22.4-.35.5-.13.13-.27.23-.4.3-.13.1-.28.2-.45.3-.13.07-.28.13-.45.2-.17.03-.35.07-.55.1-.17.03-.35.07-.55.1-.17 0-.35-.02-.55-.05a4.4 4.4 0 0 1-.65-.05c-.2-.07-.42-.13-.65-.2.13.13.23.25.3.35.1.13.15.27.15.4.03.13.05.27.05.4-.03.13-.08.25-.15.35a.64.64 0 0 1-.25.35c-.1.13-.22.25-.35.35-.17.1-.33.2-.5.3-.2.07-.42.13-.65.2-.03 0-.07.02-.1.05h-.1c-.03.03-.08.05-.15.05-.03 0-.07.02-.1.05H29c-.03.03-.07.05-.1.05h-.15c0-.1.12 2.72.35 8.45.1 2.93.32 5.07.65 6.4.07.27.17.52.3.75.13.27.28.52.45.75s.35.45.55.65c.17.23.37.45.6.65.2.17.4.35.6.55.2.13.4.3.6.5.13.07.32.2.55.4.2.13.35.23.45.3l.5.5c.1.1.18.2.25.3.13.13.23.25.3.35.13.13.23.27.3.4.1.1.18.22.25.35.1.1.18.2.25.3s.12.2.15.3.07.18.1.25c.03.1.07.2.1.3.03.07.07.15.1.25s.05.18.05.25c.03.1.07.2.1.3s.05.2.05.3c.03.1.05.2.05.3.03.1.05.22.05.35.03.27.05.55.05.85.03.3.03.62 0 .95 0 .33-.02.67-.05 1s-.07.67-.1 1c-.07.3-.12.6-.15.9-.07.27-.12.5-.15.7-.07.23-.13.4-.2.5-.07.13-.12.2-.15.2 0 0-.02-.05-.05-.15-.07-.1-.13-.23-.2-.4-.1-.17-.2-.35-.3-.55-.13-.2-.27-.4-.4-.6-.13-.23-.27-.45-.4-.65-.17-.2-.32-.38-.45-.55-.13-.2-.27-.35-.4-.45-.13-.13-.25-.22-.35-.25z"/></svg>