<svg xmlns="http://www.w3.org/2000/svg" width="40" height="40"><path fill="#DCB464" d="M22.8 7.95c.1.23.22.47.35.7s.3.45.5.65c.17.2.37.4.6.6s.47.38.7.55.48.35.75.55c.2.13.45.28.75.45.07.03.28.17.65.4.27.17.48.3.65.4.33.2.67.47 1 .8.33.3.67.63 1 1 .3.4.6.82.9 1.25.27.4.53.83.8 1.3.23.43.45.88.65 1.35.2.43.37.87.5 1.3.17.43.28.85.35 1.25.07.37.1.72.1 1.05 0 .57-.03 1.17-.1 1.8-.1.57-.22 1.15-.35 1.75-.13.53-.3 1.08-.5 1.65-.17.5-.35 1-.55 1.5-.17.43-.35.87-.55 1.3-.13.33-.28.67-.45 1-.13.23-.25.45-.35.65-.07.07-.12.13-.15.2l-2.5 1.65c.47-1 .83-2.05 1.1-3.15.23-1.03.4-2.08.5-3.15.07-1.03.07-2.07 0-3.1-.1-1.03-.25-2.03-.45-3-.23-.97-.52-1.88-.85-2.75-.33-.9-.73-1.73-1.2-2.5-.43-.77-.92-1.47-1.45-2.1s-1.08-1.18-1.65-1.65c-.2-.13-.37-.28-.5-.45-.13-.13-.25-.28-.35-.45-.07-.13-.13-.27-.2-.4-.03-.17-.07-.32-.1-.45-.03-.17-.03-.32 0-.45 0-.17.02-.33.05-.5s.08-.33.15-.5.13-.33.2-.5z"/><path fill="#E4DFA2" d="M19.15 22.35c.27-.07.55-.1.85-.1s.58.03.85.1.53.17.8.3c.23.13.47.28.7.45.23.2.45.4.65.6.17.23.33.48.5.75s.3.55.4.85.18.6.25.9c.03.33.05.67.05 1v.5c-.03.17-.05.33-.05.5-.03.17-.07.33-.1.5-.07.13-.12.28-.15.45-.07.13-.13.27-.2.4-.07.17-.13.32-.2.45-.07.1-.15.22-.25.35-.07.13-.15.25-.25.35h-6c-.1-.1-.18-.22-.25-.35-.1-.13-.18-.27-.25-.4-.07-.1-.13-.23-.2-.4-.07-.13-.13-.27-.2-.4a1.49 1.49 0 0 0-.15-.45c-.03-.17-.07-.33-.1-.5s-.05-.33-.05-.5v-.5c0-.33.03-.67.1-1 .03-.3.1-.6.2-.9.13-.3.27-.58.4-.85.17-.27.33-.52.5-.75.2-.2.42-.4.65-.6.23-.17.47-.32.7-.45.27-.13.53-.23.8-.3z"/><path fill="#DCB464" d="M16.3 29.55c.07.17.13.3.2.4.07.13.15.27.25.4.07.13.15.25.25.35h6c.1-.1.18-.22.25-.35.1-.13.18-.25.25-.35.07-.13.13-.28.2-.45.07-.13.13-.27.2-.4.03-.17.08-.32.15-.45.03-.17.07-.33.1-.5 0-.17.02-.33.05-.5v-.5c0-.33-.02-.67-.05-1-.07-.3-.15-.6-.25-.9s-.23-.58-.4-.85-.33-.52-.5-.75c-.2-.2-.42-.4-.65-.6-.23-.17-.47-.32-.7-.45-.27-.13-.53-.23-.8-.3s-.55-.1-.85-.1-.58.03-.85.1-.53.17-.8.3c-.23.13-.47.28-.7.45-.23.2-.45.4-.65.6-.17.23-.33.48-.5.75-.13.27-.27.55-.4.85-.1.3-.17.6-.2.9-.07.33-.1.67-.1 1v.5s.02.33.05.5.07.33.1.5c.07.13.12.28.15.45.07.13.13.27.2.4zm-2.8-.5a24.78 24.78 0 0 1-.65-4.45c-.07-1.3-.02-2.52.15-3.65.17-1.03.42-2.02.75-2.95.27-.8.62-1.58 1.05-2.35.37-.6.78-1.2 1.25-1.8.3-.37.7-.83 1.2-1.4.47-.53.77-.9.9-1.1.13-.17.23-.38.3-.65.07-.2.1-.45.1-.75-.03-.27-.07-.55-.1-.85-.07-.27-.15-.55-.25-.85s-.22-.58-.35-.85c-.13-.3-.28-.58-.45-.85-.13-.27-.28-.5-.45-.7-.17-.23-.32-.43-.45-.6-.1-.23-.2-.45-.3-.65s-.2-.38-.3-.55c-.13-.2-.25-.37-.35-.5-.13-.17-.25-.32-.35-.45-.13-.13-.27-.25-.4-.35s-.27-.18-.4-.25c-.13-.1-.28-.17-.45-.2a.846.846 0 0 0-.4-.1l1.4-.75c.17.07.33.15.5.25a3.886 3.886 0 0 1 1 .6c.17.1.33.22.5.35.13.1.28.22.45.35s.32.28.45.45c.17.13.32.28.45.45s.28.33.45.5l.5-1.8h1.5l.45 1.65c.13-.17.28-.32.45-.45.13-.17.27-.32.4-.45.17-.13.32-.27.45-.4.17-.13.33-.25.5-.35.13-.13.28-.25.45-.35s.33-.2.5-.3c.13-.1.28-.18.45-.25.17-.1.33-.18.5-.25l1.4.75c-.17.03-.33.07-.5.1-.13.07-.28.13-.45.2-.13.1-.27.22-.4.35-.13.1-.27.23-.4.4-.13.13-.27.3-.4.5-.13.17-.25.37-.35.6-.13.2-.25.42-.35.65s-.2.48-.3.75c-.13.2-.27.42-.4.65-.13.2-.27.43-.4.7-.13.23-.25.48-.35.75s-.18.53-.25.8c-.1.27-.17.52-.2.75-.03.27-.05.52-.05.75.03.23.07.45.1.65.07.2.17.38.3.55.17.2.48.57.95 1.1.5.57.88 1.05 1.15 1.45.5.6.92 1.22 1.25 1.85.43.73.8 1.52 1.1 2.35.33.93.57 1.93.7 3 .17 1.17.2 2.4.1 3.7a25.82 25.82 0 0 1-.65 4.55c-.43 1.73-1.02 3.57-1.75 5.5L20.2 37.8l-5.1-3.4c-.7-1.87-1.23-3.65-1.6-5.35z"/><path fill="#DCB464" d="M10.9 26.35c.07 1.07.2 2.1.4 3.1.23 1.07.57 2.08 1 3.05l-2.2-1.45s-.05-.08-.15-.25c-.13-.2-.27-.42-.4-.65-.17-.33-.35-.68-.55-1.05-.23-.43-.45-.85-.65-1.25a26 26 0 0 1-.6-1.5c-.23-.57-.42-1.1-.55-1.6-.17-.57-.3-1.12-.4-1.65-.1-.57-.15-1.08-.15-1.55 0-.3.03-.63.1-1 .07-.4.17-.8.3-1.2.13-.43.28-.87.45-1.3.2-.47.42-.92.65-1.35s.48-.85.75-1.25c.3-.43.6-.83.9-1.2s.62-.68.95-.95c.37-.3.72-.53 1.05-.7.3-.13.58-.28.85-.45.3-.17.58-.33.85-.5.3-.2.58-.38.85-.55.27-.2.52-.4.75-.6.27-.2.5-.4.7-.6.23-.23.43-.45.6-.65.2-.23.37-.47.5-.7s.23-.47.3-.7c.07.2.13.38.2.55s.12.33.15.5.07.33.1.5v.45c-.03.17-.07.32-.1.45-.07.17-.13.32-.2.45-.1.17-.22.32-.35.45-.13.17-.3.32-.5.45-.57.47-1.12 1-1.65 1.6-.5.63-.97 1.32-1.4 2.05-.43.77-.82 1.57-1.15 2.4-.37.87-.65 1.77-.85 2.7-.23.97-.4 1.93-.5 2.9-.1 1.03-.12 2.05-.05 3.05z"/><path fill="#968250" d="M23.15 8.65c-.13-.23-.25-.47-.35-.7-.07.17-.13.33-.2.5s-.12.33-.15.5-.05.33-.05.5c-.03.13-.03.28 0 .45.03.13.07.28.1.45.07.13.13.27.2.4.1.17.22.32.35.45.13.17.3.32.5.45.57.47 1.12 1.02 1.65 1.65s1.02 1.33 1.45 2.1c.47.77.87 1.6 1.2 2.5.33.87.62 1.78.85 2.75.2.97.35 1.97.45 3 .07 1.03.07 2.07 0 3.1-.1 1.07-.27 2.12-.5 3.15-.27 1.1-.63 2.15-1.1 3.15l2.5-1.65c.03-.07.08-.13.15-.2.1-.2.22-.42.35-.65.17-.33.32-.67.45-1 .2-.43.38-.87.55-1.3.2-.5.38-1 .55-1.5.2-.57.37-1.12.5-1.65.13-.6.25-1.18.35-1.75.07-.63.1-1.23.1-1.8 0-.33-.03-.68-.1-1.05-.07-.4-.18-.82-.35-1.25-.13-.43-.3-.87-.5-1.3-.2-.47-.42-.92-.65-1.35-.27-.47-.53-.9-.8-1.3-.3-.43-.6-.85-.9-1.25-.33-.37-.67-.7-1-1-.33-.33-.67-.6-1-.8-.17-.1-.38-.23-.65-.4-.37-.23-.58-.37-.65-.4-.3-.17-.55-.32-.75-.45-.27-.2-.52-.38-.75-.55s-.47-.35-.7-.55-.43-.4-.6-.6c-.2-.2-.37-.42-.5-.65zM12.85 24.6c.07 1.4.28 2.88.65 4.45.37 1.7.9 3.48 1.6 5.35l5.1 3.4 4.55-2.95c.73-1.93 1.32-3.77 1.75-5.5.37-1.6.58-3.12.65-4.55.1-1.3.07-2.53-.1-3.7-.13-1.07-.37-2.07-.7-3-.3-.83-.67-1.62-1.1-2.35-.33-.63-.75-1.25-1.25-1.85-.27-.4-.65-.88-1.15-1.45-.47-.53-.78-.9-.95-1.1-.13-.17-.23-.35-.3-.55-.03-.2-.07-.42-.1-.65 0-.23.02-.48.05-.75.03-.23.1-.48.2-.75.07-.27.15-.53.25-.8s.22-.52.35-.75c.13-.27.27-.5.4-.7.13-.23.27-.45.4-.65.1-.27.2-.52.3-.75s.22-.45.35-.65c.1-.23.22-.43.35-.6.13-.2.27-.37.4-.5.13-.17.27-.3.4-.4.13-.13.27-.25.4-.35.17-.07.32-.13.45-.2.17-.03.33-.07.5-.1l-1.4-.75c-.17.07-.33.15-.5.25-.17.07-.32.15-.45.25-.17.1-.33.2-.5.3s-.32.22-.45.35c-.17.1-.33.22-.5.35-.13.13-.28.27-.45.4-.13.13-.27.28-.4.45-.17.13-.32.28-.45.45l-.45-1.65h-1.5l-.5 1.8c-.17-.17-.32-.33-.45-.5s-.28-.32-.45-.45c-.13-.17-.28-.32-.45-.45s-.32-.25-.45-.35c-.17-.13-.33-.25-.5-.35a3.886 3.886 0 0 0-1-.6c-.17-.1-.33-.18-.5-.25l-1.4.75c.13 0 .27.03.4.1.17.03.32.1.45.2.13.07.27.15.4.25s.27.22.4.35c.1.13.22.28.35.45.1.13.22.3.35.5.1.17.2.35.3.55s.2.42.3.65c.13.17.28.37.45.6.17.2.32.43.45.7.17.27.32.55.45.85.13.27.25.55.35.85s.18.58.25.85c.03.3.07.58.1.85 0 .3-.03.55-.1.75-.07.27-.17.48-.3.65-.13.2-.43.57-.9 1.1-.5.57-.9 1.03-1.2 1.4-.47.6-.88 1.2-1.25 1.8-.43.77-.78 1.55-1.05 2.35-.33.93-.58 1.92-.75 2.95-.17 1.13-.22 2.35-.15 3.65zM7.7 31.1c-.23-.37-.45-.73-.65-1.1-.23-.47-.47-.93-.7-1.4-.27-.57-.52-1.12-.75-1.65-.23-.6-.43-1.2-.6-1.8-.2-.63-.35-1.23-.45-1.8-.13-.67-.2-1.27-.2-1.8 0-.43.05-.92.15-1.45s.25-1.07.45-1.6c.2-.6.43-1.18.7-1.75.3-.6.63-1.18 1-1.75.4-.63.83-1.22 1.3-1.75.47-.6.98-1.15 1.55-1.65.57-.53 1.17-1.02 1.8-1.45.67-.47 1.35-.88 2.05-1.25.37-.2.68-.45.95-.75.27-.27.47-.57.6-.9.17-.3.25-.62.25-.95.03-.33 0-.67-.1-1s-.25-.65-.45-.95c-.23-.3-.5-.57-.8-.8-.33-.27-.72-.48-1.15-.65s-.9-.28-1.4-.35l4-2.55 3.1 1.45.5-1.1h2.3l.65 1.1 2.85-1.4 4 2.5c-.33.03-.68.13-1.05.3-.33.17-.65.37-.95.6s-.57.5-.8.8c-.27.3-.47.6-.6.9-.17.33-.27.67-.3 1-.07.37-.05.7.05 1 .1.33.27.63.5.9.27.3.62.55 1.05.75.73.33 1.43.73 2.1 1.2.63.47 1.25.97 1.85 1.5.53.5 1.05 1.05 1.55 1.65.47.53.88 1.12 1.25 1.75.4.57.75 1.17 1.05 1.8.27.57.5 1.15.7 1.75.2.57.35 1.1.45 1.6.1.53.15 1.03.15 1.5 0 .7-.05 1.42-.15 2.15-.13.67-.28 1.35-.45 2.05-.17.6-.38 1.22-.65 1.85-.2.53-.43 1.07-.7 1.6-.2.47-.43.93-.7 1.4-.2.33-.4.67-.6 1-.17.27-.32.5-.45.7-.07.07-.12.13-.15.2L20.2 40 8.3 32.1c-.04-.06-.08-.14-.15-.25-.17-.23-.32-.48-.45-.75zm-.5-6.35c.13.5.32 1.03.55 1.6.17.47.37.97.6 1.5.2.4.42.82.65 1.25.2.37.38.72.55 1.05.13.23.27.45.4.65.1.17.15.25.15.25l2.2 1.45c-.43-.97-.77-1.98-1-3.05-.2-1-.33-2.03-.4-3.1-.07-1-.05-2.02.05-3.05.1-.97.27-1.93.5-2.9.2-.93.48-1.83.85-2.7.33-.83.72-1.63 1.15-2.4.43-.73.9-1.42 1.4-2.05.53-.6 1.08-1.13 1.65-1.6.2-.13.37-.28.5-.45.13-.13.25-.28.35-.45.07-.13.13-.28.2-.45.03-.13.07-.28.1-.45V9.4c-.03-.17-.07-.33-.1-.5s-.08-.33-.15-.5-.13-.35-.2-.55c-.07.23-.17.47-.3.7s-.3.47-.5.7c-.17.2-.37.42-.6.65-.2.2-.43.4-.7.6-.23.2-.48.4-.75.6-.27.17-.55.35-.85.55-.27.17-.55.33-.85.5-.27.17-.55.32-.85.45-.33.17-.68.4-1.05.7-.33.27-.65.58-.95.95s-.6.77-.9 1.2c-.27.4-.52.82-.75 1.25s-.45.88-.65 1.35c-.17.43-.32.87-.45 1.3-.13.4-.23.8-.3 1.2-.07.37-.1.7-.1 1 0 .47.05.98.15 1.55.1.53.23 1.08.4 1.65z"/></svg>