<svg xmlns="http://www.w3.org/2000/svg" width="40" height="40"><g fill-rule="evenodd"><path fill="#5a4b6e" d="m39.1 35.65-.4.2q-.5.25-1.1.5-.85.35-1.8.7-1.15.4-2.35.8-1.4.4-2.85.8-1.65.4-3.25.65-1.8.35-3.55.5-1.95.2-3.8.2t-3.8-.2q-1.75-.15-3.55-.5-1.6-.25-3.25-.65-1.45-.35-2.85-.8-1.2-.4-2.35-.8-.95-.35-1.8-.7-.6-.25-1.1-.5l-.4-.2V4.35l.4-.2q.5-.25 1.1-.5.85-.35 1.8-.7 1.15-.4 2.35-.8 1.4-.4 2.85-.8 1.65-.4 3.25-.65 1.8-.35 3.55-.5Q18.15 0 20 0t3.8.2q1.75.15 3.55.5 1.6.25 3.25.65 1.45.35 2.85.8 1.2.4 2.35.8.95.35 1.8.7.6.25 1.1.5l.4.2v31.3m-1.8-4.55-.35.15q-.5.2-1.05.4-.75.3-1.6.6l-2.1.7q-1.3.35-2.6.65-1.45.35-2.95.6-1.6.25-3.2.4-1.75.15-3.45.15t-3.45-.15q-1.6-.15-3.25-.4-1.45-.25-2.9-.6-1.3-.3-2.6-.65l-2.1-.7q-.85-.3-1.6-.6-.55-.2-1-.4-.2-.05-.35-.15v3.65l.35.15q.45.2 1 .4.8.3 1.65.6 1.05.35 2.1.65 1.3.4 2.6.7 1.45.35 2.9.6 1.65.25 3.25.4 1.7.15 3.4.15t3.45-.15q1.55-.15 3.2-.4 1.45-.25 2.95-.6 1.25-.3 2.55-.7 1.1-.3 2.15-.65l1.6-.6q.55-.2 1-.4.2-.1.4-.15V31.1M17.1 20.8l-3.25-.05q.2-.2.3-.35.2-.2.3-.35.15-.2.25-.4.15-.25.2-.45l.1-.6q0-.3-.05-.65 0-.35-.15-.75-.1-.45-.3-.95l.3-1q.1-.05.25-.25t.25-.5q.15-.35.25-.75t.2-.9.15-1q.05-.6 0-1.2 0-.6-.1-1.2-.1-.65-.25-1.3l1.35.05.1-.3q.05-.15.05-.3l.1-.3q0-.15.05-.35v-.3q.05-.2.05-.35v-.75l2.95.5-2.5.75-.1 1.45 1.8.7.3 3.7q.35.5.6.9t.4.75.2.65q.1.3.05.5 0 .25-.15.4-.1.15-.3.25-.25.1-.55.15-.35 0-.75-.05.2.05.35.15.2.1.35.15l.3.2q.15.1.3.15.15.1.25.2.15.1.25.2t.2.2q.15.15.2.25l1.7-1.7-.15-5.75h.9l.1-.2q0-.1.05-.2 0-.1.05-.25v-.2q.05-.15.05-.25V8.9q0-.15-.05-.25v-.3l1.9.3-1.5.4.05 1.55q.4.1.75.25.3.1.55.25.25.1.45.25.15.15.25.3.05.1.1.25 0 .15-.05.3t-.2.3-.35.3q.1.05.2.15.05.1.15.15.05.1.05.2l.1.2v.35q0 .1-.05.25-.05.1-.05.2.15.2.25.45.15.2.25.45t.15.45q.1.25.15.5t.1.5.05.5q.05.25.05.55 0 .25-.05.5.15.4.3.75t.3.7.3.65q.2.35.35.6.15.3.35.55.15.25.35.5.15.2.35.4t.4.35q-.05-.3-.1-.55l-.1-.6q-.1-.3-.15-.6-.1-.3-.15-.6-.1-.3-.2-.65l-.2-.6q-.1-.3-.2-.65-.1-.3-.2-.65 2.35 2.2 3.5 3.65-.05-.4-.15-.75l-.2-.8q-.1-.35-.2-.75-.15-.4-.25-.8-.15-.35-.3-.75t-.3-.8-.3-.8q-.2-.4-.35-.8.65.4 1.2.75t1.05.65q.45.35.85.7.4.3.8.7.35.3.75.75.35.35.8.85.35.35.85.95 1.25 1.45 1 1.15L31.85 25q-.4.05-.7.15-.35.05-.65.15l-.5.2q-.2.1-.4.25-.2.1-.35.25-.15.1-.25.25-.1.1-.2.25l-.1.3q.3 0 .65-.05t.75-.1q.4-.1.85-.2.45-.15.95-.3t1.05-.35q.55-.15 1.15-.4.55-.2 1.2-.45t1.3-.55q-.3.3-.7.6-.35.3-.85.6-.45.3-1 .6-.4.2-1.05.6-.75.4-1.05.55-.6.3-1 .55-.5.3-.85.6-.4.3-.7.55.05.2.1.35t.05.3.05.3-.05.25-.05.25-.1.2q-.1.1-.2.15-.05.05-.2.15-.9.5-1.8.85-.95.4-1.95.7-1 .35-2.05.55t-2.15.35q-1.1.1-2.25.15-1.2 0-2.4-.05-1.25-.05-2.55-.25-1.35-.15-2.7-.4-.2-.35-.4-.6-.2-.35-.4-.6-.2-.3-.4-.55-.25-.3-.5-.5l-.5-.5-.6-.4q-.3-.2-.6-.35-.35-.15-.75-.3l-.05-2.35q.25.1.45.2.25.05.5.15.3.05.55.1.25.1.5.1.3.05.55.05.25.05.5.05t.45-.05q.25 0 .45-.1V26.2l-3.25-.3q.3-.3.55-.7.25-.35.35-.8.15-.4.2-.9.1-.5.1-1.05-.05-.5-.1-1.05l-.2-1.2q-.15-.55-.35-1.2-.15-.6-.4-1.25l2.25 1.35.2-.2q.1-.15.1-.25.05-.15.05-.3 0-.2-.05-.35 0-.15-.1-.35-.05-.15-.2-.3-.1-.15-.25-.3t-.3-.25l1.35-.45-.1-1.1.75-1.15.65.15-.55.7.1 1.85 2.4.85v.4q.05.2 0 .4v.4q-.05.15-.1.35-.05.15-.1.35-.05.15-.15.3-.05.15-.15.3-.15.15-.25.3-.15-.2-.25-.35t-.25-.25q-.1-.15-.25-.2-.1-.1-.2-.15-.15-.05-.25-.05-.15 0-.25.05t-.2.15q-.15.1-.25.3.45.35.85.6.4.35.75.65.4.3.65.6.35.3.55.55.25.3.4.55t.2.5 0 .45q-.05.25-.2.4l.8 1.6.6-1.95-1.6-2.5 2.65.1v-.7m0 6.1v1.05h-.5q-.1-.05-.25-.05t-.25-.05-.25-.05q-.15-.05-.25-.1l-.3-.1q-.1-.05-.25-.1.05-.05.15-.1t.2-.1.2-.1q.1 0 .25-.05.1-.05.25-.1.15 0 .3-.05.2 0 .35-.05.2-.05.35-.05m6.95-.3v1.05q-.1.05-.25.1-.1 0-.2.05h-.25q-.1.05-.2.05h-.25q-.1-.05-.2-.05-.15 0-.25-.05t-.25-.1q.05-.1.15-.15.1-.1.2-.15.1-.1.2-.15.1-.1.2-.15.15-.05.25-.1.15-.1.25-.15l.3-.1.3-.1m-5.45 1.15v-1l.3-.1q.15-.05.3-.05.15-.05.3-.05h.35q.2 0 .35.05.2 0 .4.05t.4.15.4.15l-.45.75-2.35.05m6.85-1.15-.15.8 2.4-.45-.2-.1q-.15 0-.25-.05-.15-.05-.3-.05-.1-.05-.25-.05t-.3-.05h-.3q-.15-.05-.35-.05h-.3M12 26.5v.85q.2.05.4.05h.65q.15-.05.3-.05.1-.05.25-.1l.2-.1.2-.1q.1-.1.2-.15-.1-.05-.25-.1-.1 0-.25-.05-.1-.05-.25-.05-.15-.05-.25-.1-.15 0-.3-.05h-.3q-.15-.05-.3-.05t-.3 0m13.45-3.95v.7l2.2.4v-.4q-.1-.1-.25-.15t-.25-.15l-.3-.1q-.1-.05-.25-.1t-.3-.05q-.1-.05-.25-.1h-.3q-.15-.05-.3-.05m-6.85-1.2.25-.35 3.2.75.2.35 1.8.35v.65l-5.45-1.35v-.4M37.3 8.9l-.35-.15q-.5-.2-1.05-.4-.75-.3-1.6-.6l-2.1-.7q-1.3-.35-2.6-.65-1.45-.35-2.95-.6-1.6-.25-3.2-.4-1.75-.15-3.45-.15t-3.45.15q-1.6.15-3.25.4-1.45.25-2.9.6-1.3.3-2.6.65l-2.1.7q-.85.3-1.6.6-.55.2-1 .4-.2.05-.35.15V5.25l.35-.15q.45-.2 1-.4.8-.3 1.65-.6 1.05-.35 2.1-.65 1.3-.4 2.6-.7 1.45-.35 2.9-.6 1.65-.25 3.25-.4 1.7-.15 3.4-.15t3.45.15q1.55.15 3.2.4 1.45.25 2.95.6 1.25.3 2.55.7 1.1.3 2.15.65l1.6.6q.55.2 1 .4.2.1.4.15V8.9"/><path fill="#8c82a0" d="m37.25 31.1-.35.15q-.45.2-1 .4l-1.6.6q-1.05.35-2.15.7-1.25.35-2.55.65-1.45.35-2.95.6-1.6.25-3.2.4-1.75.15-3.45.15t-3.45-.15q-1.6-.15-3.25-.4-1.45-.25-2.9-.6-1.3-.3-2.6-.65l-2.1-.7q-.85-.3-1.6-.6-.55-.2-1-.4-.2-.05-.35-.15v3.65l.35.15q.45.2 1 .4.8.3 1.65.6 1.05.35 2.1.65 1.3.4 2.6.7 1.45.35 2.9.6 1.65.25 3.25.4 1.7.15 3.4.15t3.45-.15q1.55-.15 3.2-.4 1.45-.25 2.95-.6 1.25-.3 2.55-.7 1.1-.3 2.15-.65l1.6-.6q.55-.2 1-.4.2-.1.35-.15V31.1M17.1 20.8l-3.25-.05q.2-.2.3-.35.2-.2.3-.35.15-.2.25-.4.15-.25.2-.45l.1-.6q0-.3-.05-.65 0-.35-.15-.75-.1-.45-.3-.95l.3-1q.1-.05.25-.25t.25-.5q.15-.35.25-.75t.2-.9.15-1q.05-.6 0-1.2 0-.6-.1-1.2-.1-.65-.25-1.3l1.35.05.1-.3q.05-.15.05-.3l.1-.3q0-.15.05-.35v-.3q.05-.2.05-.35v-.75l2.95.5-2.5.75-.1 1.45 1.8.7.3 3.7q.35.5.6.9t.4.75.2.65q.1.3.05.5 0 .25-.15.4-.1.15-.3.25-.25.1-.55.15-.35 0-.75-.05.2.05.35.15.2.1.35.15l.3.2q.15.1.3.15.15.1.25.2.15.1.25.2t.2.2q.15.15.2.25l1.7-1.7-.15-5.75h.9l.1-.2q0-.1.05-.2 0-.1.05-.25v-.2q.05-.15.05-.25V8.9q0-.15-.05-.25v-.3l1.9.3-1.5.4.05 1.55q.4.1.75.25.3.1.55.25.25.1.45.25.15.15.25.3.05.1.1.25 0 .15-.05.3t-.2.3-.35.3q.1.05.2.15.05.1.15.15.05.1.05.2l.1.2v.35q0 .1-.05.25-.05.1-.05.2.15.2.25.45.15.2.25.45t.15.45q.1.25.15.5t.1.5.05.5q.05.25.05.55 0 .25-.05.5.15.4.3.75t.3.7.3.65q.2.35.35.6.15.3.35.55.15.25.35.5.15.2.35.4t.4.35q-.05-.3-.1-.55l-.1-.6q-.1-.3-.15-.6-.1-.3-.15-.6-.1-.3-.2-.65l-.2-.6q-.1-.3-.2-.65-.1-.3-.25-.65l.5.5q.3.2.5.45.25.25.5.45.25.25.45.5.25.2.45.45.2.2.4.45l.4.4q.2.25.35.45-.05-.4-.15-.75l-.2-.8q-.1-.35-.2-.75-.15-.4-.25-.8-.15-.35-.3-.75t-.3-.8-.3-.8q-.2-.4-.35-.8.65.4 1.2.75t1.05.65q.45.35.85.7.4.3.8.7.35.3.75.75.35.35.8.85.35.35.85.95 1.3 1.5 1 1.15L31.85 25q-.4.05-.7.15-.35.05-.65.15l-.5.2q-.2.1-.4.25-.2.1-.35.25-.15.1-.25.25-.1.1-.2.25l-.1.3q.3 0 .65-.05t.75-.1q.4-.1.85-.2.45-.15.95-.3t1.05-.35q.55-.15 1.15-.4.55-.2 1.2-.45t1.3-.55q-.3.3-.7.6-.35.3-.85.6-.45.3-1 .6-.4.2-1.05.6-.75.4-1.05.55-.6.3-1 .55-.5.3-.85.6-.4.3-.7.55.05.2.1.35t.05.3.05.3-.05.25-.05.25-.1.2q-.1.1-.2.15-.05.05-.2.15-.9.5-1.8.85-.95.4-1.95.7-1 .35-2.05.55t-2.15.35q-1.1.1-2.25.15-1.2 0-2.4-.05-1.25-.05-2.55-.25-1.35-.15-2.7-.4-.2-.35-.4-.6-.2-.35-.4-.6-.2-.3-.4-.55-.25-.3-.5-.5l-.5-.5-.6-.4q-.3-.2-.6-.35-.35-.15-.75-.3l-.05-2.35q.25.1.45.2.25.05.5.15.3.05.55.1.25.1.5.1.3.05.55.05.25.05.5.05t.45-.05q.25 0 .45-.1V26.2l-3.25-.3q.3-.3.55-.7.25-.35.35-.8.15-.4.2-.9.1-.5.1-1.05-.05-.5-.1-1.05l-.2-1.2q-.15-.55-.35-1.2-.15-.6-.4-1.25l2.25 1.35.2-.2q.1-.15.1-.25.05-.15.05-.3 0-.2-.05-.35 0-.15-.1-.35-.05-.15-.2-.3-.1-.15-.25-.3t-.3-.25l1.35-.45-.1-1.1.75-1.15.65.15-.55.7.1 1.85 2.4.85v.4q.05.2 0 .4v.4q-.05.15-.1.35-.05.15-.1.35-.05.15-.15.3-.05.15-.15.3-.15.15-.25.3-.15-.2-.25-.35t-.25-.25q-.1-.15-.25-.2-.1-.1-.2-.15-.15-.05-.25-.05-.15 0-.25.05t-.2.15q-.15.1-.25.3.45.35.85.6.4.35.75.65.4.3.65.6.35.3.55.55.25.3.4.55t.2.5 0 .45q-.05.25-.2.4l.8 1.6.6-1.95-1.6-2.5 2.65.1v-.7m0 6.1v1.05h-.5q-.1-.05-.25-.05t-.25-.05-.25-.05q-.15-.05-.25-.1l-.3-.1q-.1-.05-.25-.1.05-.05.15-.1t.2-.1.2-.1q.1 0 .25-.05.1-.05.25-.1.15 0 .3-.05.2 0 .35-.05.2-.05.35-.05m6.95-.3v1.05q-.1.05-.25.1-.1 0-.2.05h-.25q-.1.05-.2.05h-.25q-.1-.05-.2-.05-.15 0-.25-.05t-.25-.1q.05-.1.15-.15.1-.1.2-.15.1-.1.2-.15.1-.1.2-.15.15-.05.25-.1.15-.1.25-.15l.3-.1.3-.1m-5.45 1.15v-1l.3-.1q.15-.05.3-.05.15-.05.3-.05h.35q.2 0 .35.05.2 0 .4.05t.4.15.4.15l-.45.75-2.35.05m6.85-1.15-.15.8 2.4-.45-.2-.1q-.15 0-.25-.05-.15-.05-.3-.05-.1-.05-.25-.05t-.3-.05h-.3q-.15-.05-.35-.05h-.3M12 26.5v.85q.2.05.4.05h.65q.15-.05.3-.05.1-.05.25-.1l.2-.1.2-.1q.1-.1.2-.15-.1-.05-.25-.1-.1 0-.25-.05-.1-.05-.25-.05-.15-.05-.25-.1-.15 0-.3-.05h-.3q-.15-.05-.3-.05t-.3 0m13.45-3.95v.7l2.2.4v-.4q-.1-.1-.25-.15t-.25-.15l-.3-.1q-.1-.05-.25-.1t-.3-.05q-.1-.05-.25-.1h-.3q-.15-.05-.3-.05m-6.85-1.2.25-.35 3.2.75.2.35 1.8.35v.65l-5.45-1.35v-.4M37.25 8.9l-.35-.15q-.45-.2-1-.4l-1.6-.6q-1.05-.35-2.15-.7-1.25-.35-2.55-.65-1.45-.35-2.95-.6-1.6-.25-3.2-.4-1.75-.15-3.45-.15t-3.45.15q-1.6.15-3.25.4-1.45.25-2.9.6-1.3.3-2.6.65l-2.1.7q-.85.3-1.6.6-.55.2-1 .4-.2.05-.35.15V5.25l.35-.15q.45-.2 1-.4.8-.3 1.65-.6 1.05-.35 2.1-.65 1.3-.4 2.6-.7 1.45-.35 2.9-.6 1.65-.25 3.25-.4 1.7-.15 3.4-.15t3.45.15q1.55.15 3.2.4 1.45.25 2.95.6 1.25.3 2.55.7 1.1.3 2.15.65l1.6.6q.55.2 1 .4.2.1.35.15V8.9"/></g></svg>