<svg xmlns="http://www.w3.org/2000/svg" width="40" height="40"><path fill="#8C82A0" d="M33.4 21.5V3.2c1.2.13 2.5.32 3.9.55v18.2c-.17-.03-.33-.05-.5-.05-.17-.03-.32-.07-.45-.1-.17 0-.33-.02-.5-.05-.17 0-.33-.02-.5-.05s-.33-.05-.5-.05c-.17-.03-.33-.05-.5-.05-.17-.03-.33-.05-.5-.05-.13-.03-.28-.05-.45-.05zM25.85 2.45c1.57.13 2.78.23 3.65.3v18.4a86 86 0 0 0-3.65-.25V2.45z"/><path fill="#2D2D2D" d="M33.85 21.55c.17 0 .33.02.5.05.17 0 .33.02.5.05.17 0 .33.02.5.05s.33.05.5.05c.17.03.33.05.5.05.13.03.28.07.45.1.17 0 .33.02.5.05V3.75c-1.4-.23-2.7-.42-3.9-.55v18.3c.17 0 .32.02.45.05zM33.8 23c-.37-.03-.72-.07-1.05-.1-.37-.03-.72-.07-1.05-.1s-.68-.05-1.05-.05l1.45 2.65-.97.54-1.83-3.29c-.87-.07-1.42-.12-1.65-.15l.1-1.49c.62.04 1.2.09 1.75.14V2.75c-.87-.07-2.08-.17-3.65-.3l.07-1.47c.16.01.32.01.48.02.7.07 1.4.12 2.1.15.7.07 1.4.13 2.1.2.67.07 1.35.15 2.05.25.7.07 1.4.15 2.1.25l2.1.3c.7.1 1.4.22 2.1.35v21.2a8.29 8.29 0 0 0-1.05-.15c-.33-.07-.67-.12-1-.15a8.29 8.29 0 0 1-1.05-.15c-.33-.03-.68-.07-1.05-.1-.33-.03-.67-.08-1-.15z"/><path fill="#8C82A0" d="M19.3 2.3h2.65v10.05c-.17-.1-.33-.18-.5-.25s-.33-.13-.5-.2c-.13-.03-.28-.07-.45-.1s-.33-.05-.5-.05h-.5c-.17.03-.32.08-.45.15-.17.03-.33.08-.5.15-.17.1-.33.2-.5.3V2.3h1.25zm-8.35.35c.17 0 .32-.02.45-.05h.5c.13-.03.28-.05.45-.05.13 0 .28-.02.45-.05h.45c.17-.03.32-.05.45-.05h.45V20.9c-1.63.1-2.85.18-3.65.25V2.7c.17 0 .32-.02.45-.05z"/><path fill="#7A5B4D" d="M33.15 26.5c.07.03.13.08.2.15.07.1.12.2.15.3.07.1.12.22.15.35s.07.27.1.4c.07.17.1.33.1.5.03.17.05.35.05.55.03.17.05.35.05.55v.6c-.03.17-.07.35-.1.55 0 .17-.02.32-.05.45-.07.17-.12.32-.15.45s-.08.25-.15.35c-.03.1-.08.18-.15.25-.07.1-.13.17-.2.2s-.13.05-.2.05h-.1c-.03-.03-.05-.04-.05-.04-.13.4-.28.79-.45 1.19-.2.4-.43.78-.7 1.15-.3.4-.63.78-1 1.15s-.8.7-1.3 1c-.5.33-1.05.63-1.65.9-.63.27-1.33.5-2.1.7-.8.2-1.65.35-2.55.45-.97.1-1.98.15-3.05.15s-2.08-.05-3.05-.15c-.9-.1-1.75-.25-2.55-.45-.77-.2-1.47-.43-2.1-.7-.6-.27-1.15-.57-1.65-.9-.5-.3-.93-.63-1.3-1s-.7-.75-1-1.15c-.27-.37-.5-.75-.7-1.15-.17-.4-.32-.8-.45-1.2-.03 0-.05.02-.05.05h-.1c-.07 0-.13-.02-.2-.05s-.13-.1-.2-.2a.579.579 0 0 1-.15-.25c-.07-.1-.12-.22-.15-.35s-.07-.28-.1-.45a.933.933 0 0 1-.1-.45c-.03-.2-.05-.38-.05-.55-.03-.2-.05-.4-.05-.6v-.6c.03-.17.07-.33.1-.5 0-.17.02-.33.05-.5.07-.17.12-.3.15-.4.03-.13.08-.25.15-.35.03-.13.08-.23.15-.3s.13-.12.2-.15.13-.05.2-.05h.1c.03.03.07.05.1.05l.1.1c.03.03.07.08.1.15.03.03.07.08.1.15.03.03.07.08.1.15s.07.15.1.25c0 .07.02.13.05.2H8l2.65-4.8c.63-.03 1.18-.07 1.65-.1l-2.6 4.75c.5-.07.97-.17 1.4-.3.53-.13 1.05-.3 1.55-.5.53-.23 1.05-.52 1.55-.85.5-.37.98-.78 1.45-1.25.47-.53.88-1.12 1.25-1.75.43-.67.78-1.42 1.05-2.25.3-.87.53-1.82.7-2.85.17-1.1.25-2.28.25-3.55l.25-.25c.1-.07.2-.13.3-.2.1-.03.18-.07.25-.1.1-.03.2-.05.3-.05s.2.02.3.05c.07.03.15.07.25.1s.2.1.3.2l.25.25c0 1.27.08 2.45.25 3.55.17 1.03.4 1.98.7 2.85.27.83.6 1.58 1 2.25.4.63.83 1.2 1.3 1.7.47.47.95.88 1.45 1.25.5.33 1.02.63 1.55.9.5.2 1.02.37 1.55.5.43.13.9.23 1.4.3l-2.65-4.85c.23.03.78.08 1.65.15l1.83 3.29.87 1.56h.2c.03-.07.05-.15.05-.25.03-.07.07-.13.1-.2s.07-.12.1-.15c.03-.07.07-.12.1-.15.03-.07.07-.12.1-.15l.1-.1c.03-.03.07-.05.1-.05h.1c.07 0 .13.02.2.05z"/><path fill="#8C82A0" d="M6.6 3.15V21.5c-1.2.1-2.5.25-3.9.45V3.75c1.43-.23 2.73-.43 3.9-.6z"/><path fill="#2D2D2D" d="M19.5 11.75h.5s.33.02.5.05.32.07.45.1c.17.07.33.13.5.2s.33.15.5.25V2.3h-3.9v10.05c.17-.1.33-.2.5-.3.17-.07.33-.12.5-.15.13-.07.28-.12.45-.15zm-7.15-9.2c-.17 0-.32.02-.45.05h-.5c-.13.03-.28.05-.45.05-.13.03-.28.05-.45.05v18.45c.8-.07 2.02-.15 3.65-.25V2.45h-.45c-.13 0-.28.02-.45.05h-.45c-.17.03-.32.05-.45.05zm-5.75.6c-1.17.17-2.47.37-3.9.6v18.2c1.4-.2 2.7-.35 3.9-.45V3.15zM1.05 2.5c.7-.13 1.4-.25 2.1-.35.7-.13 1.4-.23 2.1-.3l2.1-.3c.7-.07 1.4-.13 2.1-.2.67-.07 1.35-.13 2.05-.2s1.4-.12 2.1-.15S15 .93 15.7.9s1.4-.05 2.1-.05V0h4.4v.85c.7 0 1.4.02 2.1.05.54.02 1.08.05 1.62.08l-.07 1.47V20.9a86 86 0 0 1 1.9.11l-.1 1.49 2.65 4.85c-.5-.07-.97-.17-1.4-.3-.53-.13-1.05-.3-1.55-.5-.53-.27-1.05-.57-1.55-.9-.5-.37-.98-.78-1.45-1.25-.47-.5-.9-1.07-1.3-1.7-.4-.67-.73-1.42-1-2.25-.3-.87-.53-1.82-.7-2.85-.17-1.1-.25-2.28-.25-3.55l-.25-.25c-.1-.1-.2-.17-.3-.2s-.18-.07-.25-.1c-.1-.03-.2-.05-.3-.05s-.2.02-.3.05c-.07.03-.15.07-.25.1-.1.07-.2.13-.3.2l-.25.25c0 1.27-.08 2.45-.25 3.55-.17 1.03-.4 1.98-.7 2.85-.27.83-.62 1.58-1.05 2.25-.37.63-.78 1.22-1.25 1.75-.47.47-.95.88-1.45 1.25-.5.33-1.02.62-1.55.85-.5.2-1.02.37-1.55.5-.43.13-.9.23-1.4.3l2.6-4.75c-.47.03-1.02.07-1.65.1L8 27.5h-.2a.492.492 0 0 1-.05-.2c-.03-.1-.07-.18-.1-.25s-.07-.12-.1-.15a.483.483 0 0 0-.1-.15.483.483 0 0 0-.1-.15l-.1-.1c-.03 0-.07-.02-.1-.05h-.1c-.07 0-.13.02-.2.05s-.13.08-.2.15-.12.17-.15.3c-.07.1-.12.22-.15.35-.03.1-.08.23-.15.4-.03.17-.05.33-.05.5-.03.17-.07.33-.1.5v.6s.02.4.05.6c0 .17.02.35.05.55 0 .17.03.32.1.45.03.17.07.32.1.45s.08.25.15.35c.03.1.08.18.15.25.07.1.13.17.2.2s.13.05.2.05h.1c0-.03.02-.05.05-.05.13.4.28.8.45 1.2.2.4.43.78.7 1.15.3.4.63.78 1 1.15s.8.7 1.3 1c.5.33 1.05.63 1.65.9.63.27 1.33.5 2.1.7.8.2 1.65.35 2.55.45.97.1 1.98.15 3.05.15s2.08-.05 3.05-.15c.9-.1 1.75-.25 2.55-.45.77-.2 1.47-.43 2.1-.7.6-.27 1.15-.57 1.65-.9.5-.3.93-.63 1.3-1s.7-.75 1-1.15c.27-.37.5-.75.7-1.15.17-.4.32-.79.45-1.19 0 0 .02.01.05.04h.1c.07 0 .13-.02.2-.05s.13-.1.2-.2c.07-.07.12-.15.15-.25.07-.1.12-.22.15-.35s.08-.28.15-.45c.03-.13.05-.28.05-.45.03-.2.07-.38.1-.55v-.6s-.02-.38-.05-.55c0-.2-.02-.38-.05-.55 0-.17-.03-.33-.1-.5-.03-.13-.07-.27-.1-.4s-.08-.25-.15-.35c-.03-.1-.08-.2-.15-.3-.07-.07-.13-.12-.2-.15s-.13-.05-.2-.05h-.1c-.03 0-.07.02-.1.05l-.1.1c-.03.03-.07.08-.1.15-.03.03-.07.08-.1.15-.03.03-.07.08-.1.15s-.07.13-.1.2c0 .1-.02.18-.05.25H32l-.87-1.56.97-.54.1-.1c.03 0 .07-.02.1-.05s.07-.05.1-.05c.03-.03.07-.05.1-.05.07 0 .12-.02.15-.05h.1c.03-.03.07-.05.1-.05h.1c.17 0 .32.03.45.1s.27.15.4.25.27.23.4.4c.1.13.2.3.3.5s.2.42.3.65c.07.23.13.47.2.7.07.27.1.53.1.8.03.3.05.58.05.85v.65c-.03.23-.07.45-.1.65s-.07.4-.1.6c-.07.17-.13.33-.2.5-.03.2-.1.37-.2.5-.07.17-.13.32-.2.45-.1.13-.2.25-.3.35-.07.1-.17.18-.3.25-.13.4-.3.8-.5 1.2-.23.4-.48.78-.75 1.15-.33.4-.68.78-1.05 1.15-.43.37-.9.72-1.4 1.05-.57.33-1.17.63-1.8.9-.7.27-1.45.5-2.25.7-.87.2-1.78.35-2.75.45-1 .1-2.08.15-3.25.15s-2.25-.05-3.25-.15c-.97-.1-1.88-.25-2.75-.45-.8-.2-1.55-.43-2.25-.7-.63-.27-1.23-.57-1.8-.9-.5-.33-.97-.68-1.4-1.05-.4-.37-.75-.75-1.05-1.15-.3-.37-.55-.75-.75-1.15s-.37-.8-.5-1.2c-.1-.07-.2-.15-.3-.25-.1-.13-.18-.25-.25-.35-.1-.13-.18-.28-.25-.45-.1-.13-.17-.3-.2-.5-.07-.17-.13-.33-.2-.5-.03-.2-.07-.4-.1-.6s-.07-.42-.1-.65v-.65c0-.3.02-.58.05-.85s.07-.53.1-.8c.07-.23.13-.47.2-.7.1-.23.2-.45.3-.65s.2-.37.3-.5c.13-.17.27-.3.4-.4s.27-.18.4-.25.28-.1.45-.1h.1c.03 0 .07.02.1.05h.1c.03 0 .07.02.1.05.03 0 .07.02.1.05.03 0 .07.02.1.05.07 0 .1.02.1.05l.1.1 1.4-2.6c-.33.03-.67.07-1 .1-.37.03-.72.07-1.05.1s-.67.07-1 .1c-.37.03-.72.07-1.05.1s-.68.07-1.05.1c-.33.07-.67.12-1 .15s-.68.08-1.05.15c-.33.03-.67.07-1 .1V2.5z"/></svg>