<svg xmlns="http://www.w3.org/2000/svg" width="40" height="40"><g fill-rule="evenodd"><path d="M12.5 20.3q-.05-.2-.1-.65-.25-.35-.5-.65-.25-.35-.5-.75-.2-.35-.4-.75l-.3-.8-.3-.8q-.1-.45-.2-.85l-.1-.9q-.05-.45-.05-.9 0-1 .2-2 .2-.95.6-1.85.35-.85.9-1.65t1.2-1.5q.7-.65 1.5-1.2t1.7-.9q.9-.4 1.85-.55 1-.25 2-.25t2 .2q.95.2 1.85.6.9.35 1.7.9t1.5 1.2q.65.7 1.2 1.5.55.75.9 1.65.4.9.6 1.85.2 1 .2 2 0 .45-.05.9t-.1.85q-.1.45-.2.85-.1.45-.25.85t-.35.75q-.2.4-.4.75t-.45.7-.5.7q-.05.2-.1.7l1.15-.65q.8 1.2.8 1.25l4.95-2.85q-.1-.15-.5-.85l1.3-.7q.05-.1.05-.2.05-.1.1-.15l.1-.2q.05-.05.1-.15t.1-.15.15-.15q.05-.05.15-.1.05-.05.15-.1l.4-.2q.25-.05.45-.05.25 0 .5.05.2.05.45.1.25.1.45.25t.4.3q.25.2.4.4.2.25.35.5t.25.5q.1.3.15.55t.05.5-.05.5q0 .25-.1.5-.05.2-.2.4-.1.2-.3.35-.15.15-.35.3-.05.05-.1.05-.1.05-.15.05-.05.05-.1.05t-.15.05h-.25q-.05.05-.15.05H38l.1.8v.7q-.05.35-.15.65-.05.3-.2.6t-.35.55-.45.5-.55.5q-.35.2-.75.45-.35.2-.65.35-.4.2-.75.35t-.75.2q-.4.1-.75.15-.45.05-.8 0-.45-.05-.85-.15-.4-.15-.85-.4-.4-.25-.85-.6 0 .1-.05.25-2.6 1.75-4.85 3.15l1.7.9q.85.45 1.75.9.9.5 1.85.95t1.9.95q.95.45 1.95.95t2.05.95l2.1 1 2.2 1q-1 .3-2.15.4-1.1.1-2.35.05-1.15-.1-2.45-.3-1.2-.25-2.5-.6-1.25-.35-2.6-.85-1.3-.45-2.65-1.05-1.3-.55-2.65-1.25-1.3-.65-2.65-1.35-1.35.75-2.65 1.35-1.35.7-2.65 1.25-1.35.6-2.65 1.05-1.35.5-2.6.85-1.3.4-2.5.6-1.3.25-2.45.3-1.25.05-2.35-.05-1.15-.1-2.15-.4l2.2-1 2.1-1q1.05-.45 2.05-.95t1.95-.95q.95-.5 1.9-.95t1.85-.95q.9-.45 1.75-.9t1.7-.9q-.3-.2-.65-.4l-.6-.4q-.3-.2-.65-.4l-.6-.4-.6-.4-.6-.4q-.3-.15-.6-.35-.25-.2-.55-.4l-.05-.25q-.4.35-.85.6-.4.25-.85.4-.4.1-.85.15-.35.05-.8 0-.35-.05-.75-.15t-.75-.25q-.35-.1-.75-.3-.3-.15-.65-.35-.4-.25-.7-.45-.35-.25-.6-.5t-.45-.5-.35-.55-.2-.6q-.1-.3-.15-.65v-.7l.1-.8h-.25q-.1-.05-.15-.05t-.1 0q-.1-.05-.15-.05t-.1-.05q-.1 0-.15-.05t-.1-.05q-.2-.1-.35-.3-.2-.15-.3-.35t-.2-.4q-.1-.25-.1-.5-.05-.25-.05-.5t.05-.5q.05-.3.15-.55t.25-.5.35-.5q.15-.2.35-.4.2-.15.45-.3.2-.15.45-.25.25-.05.45-.1.25-.05.5-.05.2 0 .45.05.2.05.4.2.1.05.15.1.1.05.15.1l.15.15q.05.05.1.15t.1.15l.1.2q.05.05.1.15 0 .1.05.2l1.3.7q-.05.05-.05.1-.05.05-.1.15 0 .05-.05.1t-.05.1-.05.1-.05.1-.05.1l-.1.1 4.95 2.85q.5-.8.8-1.25l1.2.65m-9.7-4.5h.15q.05 0 .1.05h.1q.05 0 .05.05h.1q.05 0 .05.05.05 0 .1.05t.1.05l.1.1.1.1q.05 0 .1.05t.05.15l.1.1q0 .05.05.1 0 .05.05.15v-.05l1.1.55q0 .05-.25.5-.15.3-.25.45l6 3.45q.05-.1.1-.15.05-.1.15-.15.05-.1.1-.15.05-.1.1-.15l.1-.2q.05-.05.1-.15.05-.05.1-.15.05-.05.1-.15l1 .6q0 .1.05.25-.3.5-.55.85.2.1.8.5.05.2.1.35.05.2.05.35.05.15.15.3l.1.3q.05.15.1.25.05.15.15.25.05.1.15.2.05.1.15.2.2.2.45.4t.55.35q.3.2.65.3.3.15.7.3.35.1.75.2.4.05.85.15.4.05.85.1t.9.05q1.05.6 2.05 1.2 1.1.6 2.15 1.2 1.15.6 2.25 1.2 1.2.65 2.35 1.2 1.2.65 2.35 1.2 1.25.6 2.45 1.15 1.25.55 2.45 1.05 1.2.55 2.4 1-.05 0-.15.05h-.3q-.05.05-.15.05h-.65q-1.25 0-2.9-.35-1.55-.3-3.35-.9-1.75-.55-3.65-1.35-1.85-.75-3.8-1.65-1.85-.9-3.7-1.9-1.75-.95-3.45-1.95-1.6-1-3-1.9-1.4-.95-2.4-1.75l-.1-.05q-.2.15-.35.3l-.4.3q-.15.1-.35.2-.15.1-.35.2-.2.05-.35.1-.2.1-.35.1-.2.05-.35.05-.2.05-.35.05h-.35q-.15-.05-.3-.05-.15-.05-.3-.05l-.3-.1-.3-.1q-.15-.05-.3-.15-.15-.05-.3-.15-.15-.05-.3-.15-.35-.2-.65-.4-.35-.25-.6-.45-.25-.25-.5-.55-.2-.25-.35-.55-.2-.3-.25-.65-.1-.35-.15-.75 0-.4.05-.85t.2-1h.05q-.05 0-.1.05h-.1q-.05.05-.1.05t-.1 0q-.05.05-.1.05t-.05 0h-.6q0-.05-.05-.05t-.1-.05h-.1q0-.05-.05-.05-.15-.1-.25-.2-.15-.1-.2-.25-.1-.15-.15-.3t-.1-.35 0-.35v-.4q.05-.2.15-.35.05-.2.15-.4.1-.15.15-.25.1-.15.2-.25t.25-.2q.1-.05.2-.15.1-.05.25-.1.1-.1.25-.1.1-.05.25-.1h.25m13.55 13.25.15.1q1.2.75 2.6 1.55-1.05.55-2.1 1.05-1.1.5-2.15 1-1.1.45-2.15.9-1.05.4-2.1.75-1.05.4-2 .65-1 .3-1.9.5-.9.25-1.75.35T3.4 36h-.9q-.1-.05-.15-.05H2.2q-.1 0-.15-.05.9-.35 1.85-.75.9-.35 1.8-.8.9-.4 1.85-.8.9-.45 1.8-.85l1.8-.9q.9-.45 1.75-.9.9-.45 1.75-.9t1.7-.95M37.2 15.8h.3q.1.05.25.1.1 0 .2.1.15.05.25.1l.2.2q.15.05.25.15.1.15.15.25.1.1.2.25.1.2.15.4.1.15.15.35v.4q.05.15 0 .35 0 .2-.1.35-.05.15-.15.3-.05.15-.2.25-.1.1-.25.2-.05 0-.05.05h-.1q-.05.05-.1.05l-.05.05h-.75q-.05-.05-.1-.05t-.1-.05-.05 0q-.05-.05-.1-.05h-.05q.15.5.25.95.05.45.05.9-.05.35-.15.75-.05.3-.25.65-.15.3-.35.55-.2.3-.5.55-.25.2-.6.45-.3.2-.65.4-.15.1-.3.15-.15.1-.3.15-.15.1-.3.15t-.3.1-.3.1q-.15 0-.3.05-.15 0-.3.05h-.65q-.2-.05-.35-.1-.2 0-.35-.05-.2-.1-.4-.15-.15-.1-.35-.2t-.35-.2q-.2-.1-.4-.25l-.35-.35q-.25.2-.55.45-.3.2-.65.45-.3.2-.65.45t-.75.5-.75.5q-.35.25-.8.5l-.8.5q-.45.25-.85.55l-.15.05q-.35-.2-1.35-.75-.8-.45-1.3-.7l.8-.1.8-.1q.4-.1.75-.15.4-.1.7-.25.35-.1.65-.25.35-.1.6-.3.3-.15.5-.3.25-.2.45-.4.1-.1.15-.2t.15-.2q.05-.1.1-.25.1-.15.15-.25l.1-.3q.05-.15.1-.35.05-.15.1-.35.05-.15.1-.35.2-.1.7-.45-.25-.3-.5-.8 0-.15.05-.35l.95-.55.05.05q.05.1.1.15.05.1.1.15.05.1.1.15.05.1.1.15.05.1.1.15.05.1.1.15.05.1.1.15.05.1.1.15l6-3.45q-.2-.4-.5-.95l1.1-.55v.05l.05-.05q0-.05.05-.1 0-.05.05-.15 0-.05.05-.1t.05-.1l.1-.1q.05-.05.1-.05l.1-.1q.05-.05.1-.05.05-.05.1-.05l.05-.05h.1l.05-.05h.1q.05-.05.1-.05t.1 0 .05 0M20 4.15h.05q.9 0 1.8.2.85.2 1.65.55t1.5.85 1.3 1.15q.6.6 1.1 1.35t.8 1.55q.35.85.55 1.75.15.9.15 1.8 0 .4-.05.85 0 .4-.1.8-.05.4-.15.8t-.25.75q-.15.4-.3.75t-.35.7-.4.65q-.25.3-.45.65-.05.4-.05.8-.05.4-.1.75-.05.4-.1.75-.1.35-.15.65-.1.3-.15.6-.1.3-.2.55t-.2.45q-.15.2-.25.35-.2.2-.45.4t-.55.35-.6.3q-.35.1-.7.25-.4.1-.8.15-.35.1-.8.15l-.8.1H19.2q-.45-.05-.85-.1-.45-.05-.8-.15-.4-.05-.8-.15-.35-.15-.7-.25-.35-.15-.65-.3t-.55-.35-.4-.4q-.15-.15-.25-.35t-.25-.45q-.1-.25-.15-.55-.1-.25-.2-.6-.05-.3-.1-.65-.1-.35-.15-.7-.05-.4-.05-.8-.05-.35-.1-.75-.25-.3-.45-.65-.25-.3-.45-.65t-.35-.7-.3-.75-.25-.75q-.1-.4-.15-.8-.1-.4-.1-.85-.05-.4-.05-.85 0-.95.2-1.85.15-.9.5-1.7.35-.85.8-1.6.5-.7 1.1-1.35.6-.6 1.3-1.1.75-.5 1.55-.85t1.65-.55q.9-.2 1.8-.2m15.85 15.4-5.6 3.25q.25.2.45.4.25.15.45.3.25.15.5.25t.5.15.55.1q.25 0 .5-.05t.55-.15q.25-.1.55-.25.35-.2.6-.4.3-.2.5-.45.2-.2.35-.45l.2-.5q.1-.2.15-.5v-.55q0-.25-.1-.55-.05-.25-.15-.6m-31.7 0 5.6 3.25q-.25.2-.45.4-.25.15-.45.3-.25.15-.5.25t-.5.15-.55.1q-.25 0-.5-.05t-.55-.15q-.25-.1-.55-.25-.35-.2-.6-.4-.3-.2-.5-.45-.2-.2-.35-.45l-.2-.5q-.1-.2-.15-.5v-.55q0-.25.1-.55.05-.25.15-.6m15.9-4.9L20 14.6l-.3.4q-.1.2-.25.4l-.2.4q-.1.2-.15.4-.1.2-.15.4t-.05.4-.05.4v.35q.05 0 .1.05h.4q.05 0 .1-.05.05 0 .1-.05.05 0 .1-.05t.1-.1.1-.1.1-.1q0-.1.05-.15.05.05.05.1.05.1.05.15l.1.1q0 .05.05.05l.1.1q.05 0 .1.05h.1q.05.05.1.05t.1 0 .05-.05h.1q.05 0 .1-.05h.05v-.8q-.05-.2-.1-.35l-.1-.4q-.1-.2-.15-.4-.1-.15-.2-.35t-.2-.4q-.1-.15-.25-.35m-5.35-4.1h-.35q-.15.35-.3.65t-.25.6-.2.6q-.05.3-.1.55v.55q0 .3.1.55.05.25.15.5.15.25.3.45h.05q.35-.05.65-.1.35-.05.7-.15l.6-.2.6-.2q.3-.1.6-.25t.55-.3.55-.3l.5-.4q-.2-.3-.45-.6-.2-.25-.45-.5-.2-.25-.45-.45t-.55-.35q-.25-.15-.5-.25-.3-.15-.55-.2-.3-.1-.6-.15t-.6-.05m10.6 0h.3q.15.35.3.65t.25.6.15.6q.1.3.1.55.05.3 0 .55 0 .3-.05.55t-.2.45q-.1.25-.25.5l-.7-.1q-.35-.05-.65-.15-.35-.05-.65-.15t-.6-.25-.6-.25-.55-.3-.55-.3q-.3-.2-.55-.4.2-.3.45-.6.2-.3.45-.5.25-.25.5-.45t.5-.35q.3-.15.55-.3l.6-.2q.25-.05.55-.1t.65-.05"/><path fill="#eeead6" d="M19.5 26.7q1.05.6 2.05 1.2 1.1.6 2.15 1.2 1.15.6 2.25 1.2 1.2.65 2.35 1.2 1.2.65 2.35 1.2 1.25.6 2.45 1.15 1.25.55 2.45 1.05 1.2.55 2.4 1-1.15.2-2.75 0-1.5-.2-3.4-.7-1.8-.5-3.85-1.3-1.9-.75-4-1.7-1.95-.95-4-2-1.9-1-3.75-2.1-1.75-1.05-3.25-2.05t-2.6-1.85q-.35.3-.7.55t-.65.4q-.35.15-.7.25-.3.05-.65.1-.35 0-.65-.05-.35-.05-.65-.15-.35-.05-.65-.2-.35-.15-.65-.35-.35-.2-.65-.4-.35-.25-.6-.45-.3-.25-.5-.55-.2-.25-.35-.55-.2-.35-.3-.65l-.1-.8q0-.4.05-.85.1-.45.25-.95-.1.05-.2.05l-.2.1H2.1q-.1.05-.2 0h-.15q-.1-.05-.2-.05-.1-.05-.15-.1-.15-.1-.25-.2-.15-.1-.2-.25-.1-.15-.15-.3t-.1-.35 0-.35v-.4q.05-.2.15-.35.05-.2.15-.4t.25-.35q.1-.15.25-.3.15-.1.35-.2.15-.1.3-.15.15-.1.35-.1.15-.05.3-.05.2 0 .35.05t.3.15q.05.05.1.05l.1.1.1.1q.05 0 .1.05t.05.15l.1.1q0 .05.05.1 0 .05.05.15v-.05l1.1.55q0 .05-.25.5-.15.3-.25.45l6 3.45q.05-.05.1-.15.05-.05.1-.15.05-.05.1-.15l.15-.15q.05-.1.1-.15l.1-.2q.05-.05.1-.15.05-.05.1-.15l1 .6q0 .1.05.25-.3.5-.55.85.2.1.8.5.05.2.1.35.05.2.05.35.05.15.15.3l.1.3q.05.15.1.25.05.15.15.25.05.1.15.2.05.1.15.2.2.2.45.4t.55.35q.3.2.65.3.3.15.7.3.35.1.75.2.4.05.85.15.4.05.85.1t.9.05m-3.15 2.35q1.2.75 2.75 1.65-1.2.6-2.4 1.15-1.2.6-2.4 1.1-1.2.55-2.35 1-1.2.45-2.35.8-1.15.4-2.15.65-1.1.3-2.05.45-1 .15-1.8.15-.9.05-1.55-.1.9-.35 1.85-.75.9-.35 1.8-.8.9-.4 1.85-.8.9-.45 1.8-.85l1.8-.9q.9-.45 1.75-.9.9-.45 1.75-.9t1.7-.95M27.5 21l.95-.55q.5.8.85 1.25l6-3.45q-.2-.4-.5-.95l1.1-.55v.05q.05-.05.05-.15.05-.05.05-.1l.1-.1q0-.1.05-.15t.1-.1q.05 0 .1-.05t.1-.1.1-.05q.15-.1.3-.15t.35-.05q.15 0 .3.05.2 0 .35.1.15.05.3.15.2.1.35.2.1.15.25.3t.25.35.15.4q.1.15.15.35v.4q.05.15 0 .35 0 .2-.1.35-.05.15-.15.3-.05.15-.2.25-.1.1-.25.2-.1.05-.15.1-.1 0-.2.05h-.15q-.1.05-.2 0h-.2q-.05 0-.15-.05-.1 0-.2-.05-.1 0-.2-.05.15.5.25.95.05.45.05.9-.05.35-.15.75-.05.3-.25.65-.15.3-.35.55-.2.3-.5.55-.25.2-.6.45-.3.2-.65.4t-.65.35-.65.2q-.3.1-.65.15-.3.05-.65.05-.35-.05-.65-.1-.35-.1-.7-.25t-.65-.4q-.35-.25-.7-.55-.3.2-.6.45-.3.2-.6.45l-.7.5q-.35.2-.7.45-.4.25-.8.55l-.8.5q-.4.25-.85.5-.45.3-.9.55-.35-.2-1.35-.75-.8-.45-1.3-.7l.8-.1.8-.1q.4-.1.75-.15.4-.1.7-.25.35-.1.65-.25.35-.1.6-.3.3-.15.5-.3.25-.2.45-.4.1-.1.15-.2t.15-.2q.05-.1.1-.25.1-.15.15-.25l.1-.3q.05-.15.1-.35.05-.15.1-.35.05-.15.1-.35.2-.1.7-.45-.25-.3-.5-.8 0-.15.05-.35m-14.3-1.65q-.25-.3-.45-.65-.25-.3-.45-.65t-.35-.7-.3-.75-.25-.75q-.1-.4-.15-.8-.1-.4-.1-.85-.05-.4-.05-.85 0-.95.2-1.85.15-.9.5-1.7.35-.85.8-1.6.5-.7 1.1-1.35.6-.6 1.3-1.1.75-.5 1.55-.85t1.65-.55q.9-.2 1.8-.2t1.8.2q.85.2 1.65.55t1.55.85q.7.5 1.3 1.1.6.65 1.1 1.4.45.7.8 1.55t.5 1.7q.2.95.2 1.85 0 .4-.05.85 0 .4-.1.8-.05.4-.15.8t-.25.75q-.15.4-.3.75t-.35.7-.4.65q-.25.3-.45.65-.05.4-.05.8-.05.4-.1.75-.05.4-.1.75-.1.35-.15.65-.1.3-.15.6-.1.3-.2.55t-.2.45q-.15.2-.25.35-.4.4-1 .75-.55.3-1.35.55-.7.2-1.55.3t-1.7.1q-.9 0-1.7-.1-.85-.1-1.6-.3-.75-.25-1.35-.55-.6-.35-.95-.75-.15-.15-.25-.35t-.25-.45q-.1-.25-.15-.55-.1-.25-.2-.6-.05-.3-.1-.65-.1-.35-.15-.7-.05-.4-.05-.8-.05-.35-.1-.75m22.65.2-5.6 3.25q.25.2.45.4.25.15.45.3.25.15.5.25t.5.15.55.1q.25 0 .5-.05t.55-.15q.25-.1.55-.25.35-.2.6-.4.3-.2.5-.45.2-.2.35-.45l.2-.5q.1-.2.15-.5v-.55q0-.25-.1-.55-.05-.25-.15-.6m-31.7 0 5.6 3.25q-.25.2-.45.4-.25.15-.45.3-.25.15-.5.25t-.5.15-.55.1q-.25 0-.5-.05t-.55-.15q-.25-.1-.55-.25-.35-.2-.6-.4-.3-.2-.5-.45-.2-.2-.35-.45l-.2-.5q-.1-.2-.15-.5v-.55q0-.25.1-.55.05-.25.15-.6M20 14.6l-.3.4q-.1.2-.25.4l-.2.4q-.1.2-.15.4-.1.2-.15.4t-.05.4-.05.4v.35q.1.05.2.05t.2 0h.15q.1-.05.15-.1.05 0 .15-.05.05-.1.1-.15t.1-.15.1-.15q.05.1.05.15.05.1.1.15t.1.1.1.1q.1.05.15.05.1.05.15.05.1 0 .2-.05.1 0 .2-.05v-.8l-.1-.4-.1-.4q-.1-.15-.15-.35l-.2-.4q-.1-.2-.25-.4-.1-.15-.25-.35m-5.95.4.7-.1q.3-.05.65-.15.3-.05.65-.15.3-.1.6-.25.3-.1.6-.25.25-.15.55-.3.25-.15.55-.3l.5-.4q-.2-.35-.45-.65l-.5-.5q-.25-.25-.5-.45-.3-.2-.55-.4-.3-.15-.6-.25t-.6-.2q-.3-.05-.65-.05-.3-.05-.65-.05-.15.35-.3.65t-.25.6-.2.6q-.05.3-.1.55v.55q0 .3.1.55.05.25.15.5.15.25.3.45m11.85 0-.7-.1q-.35-.05-.65-.15-.35-.05-.65-.15t-.6-.25-.6-.25-.55-.3-.55-.3q-.3-.2-.55-.4.25-.35.45-.65l.5-.5q.25-.25.55-.45.25-.2.55-.4.3-.15.55-.25.3-.1.65-.2.3-.05.6-.05.35-.05.7-.05.15.35.3.65t.25.6.15.6q.1.3.1.55.05.3 0 .55 0 .3-.05.55t-.2.5q-.1.25-.25.45"/></g></svg>