<svg xmlns="http://www.w3.org/2000/svg" width="40" height="40"><path fill="#E4DFA2" d="M28 31.7H12c.23-.93.47-1.83.7-2.7.27-.87.55-1.7.85-2.5.27-.77.55-1.52.85-2.25.3-.7.63-1.42 1-2.15a48.015 48.015 0 0 1 2.15-4.05c.33-.57.73-1.23 1.2-2 .03-.07.45-.77 1.25-2.1.6 1 1.08 1.8 1.45 2.4.53.83.98 1.58 1.35 2.25.47.77.87 1.48 1.2 2.15.4.7.75 1.38 1.05 2.05.37.73.68 1.43.95 2.1.3.7.57 1.42.8 2.15s.45 1.48.65 2.25.38 1.57.55 2.4z"/><path fill="#695050" d="M21.95 3.85c.17-.07.33-.12.5-.15s.33-.05.5-.05c.17-.03.32-.03.45 0 .17 0 .32.02.45.05.13.07.25.13.35.2.13.07.23.17.3.3.1.1.17.23.2.4l1.8 6.75c.03-.17.07-.33.1-.5.03-.13.08-.28.15-.45.03-.13.08-.27.15-.4s.13-.27.2-.4c.07-.17.13-.3.2-.4.07-.13.15-.27.25-.4s.2-.27.3-.4.22-.27.35-.4c.23 1.13.37 1.82.4 2.05.13.67.25 1.2.35 1.6.1.5.2.93.3 1.3.1.4.2.75.3 1.05.13.3.27.58.4.85s.28.52.45.75.35.48.55.75c.2.23.45.5.75.8.07.07.4.42 1 1.05.4.37.72.68.95.95.33.37.63.68.9.95.27.33.52.63.75.9.23.3.43.6.6.9.2.3.37.58.5.85.13.3.23.58.3.85s.08.53.05.8a3 3 0 0 1-.15.95c-.07.3-.18.58-.35.85-.13.27-.3.53-.5.8-.17.2-.38.43-.65.7-.13.17-.35.38-.65.65-.3.3-.52.53-.65.7-.23.23-.43.45-.6.65-.2.23-.35.47-.45.7.27 1.23.48 2.27.65 3.1L20 40 6.6 33.5c.23-.9.48-1.87.75-2.9-.1-.23-.25-.48-.45-.75-.17-.2-.37-.43-.6-.7-.13-.17-.35-.4-.65-.7-.33-.33-.57-.55-.7-.65-.23-.27-.45-.52-.65-.75-.2-.27-.38-.53-.55-.8s-.28-.55-.35-.85c-.1-.33-.15-.67-.15-1 0-.27.03-.53.1-.8s.17-.55.3-.85c.1-.27.25-.55.45-.85.2-.27.42-.55.65-.85.23-.27.48-.57.75-.9.23-.27.53-.58.9-.95.33-.35.52-.56.63-.67 0 0 .02-.01.07-.07.01-.02.03-.03.04-.04.05-.05.12-.12.21-.22.37-.4.68-.75.95-1.05.37-.4.62-.68.75-.85.27-.3.48-.55.65-.75.17-.23.32-.47.45-.7.13-.2.27-.43.4-.7.1-.23.18-.48.25-.75.07-.3.13-.62.2-.95s.12-.73.15-1.2c.07-.4.12-.88.15-1.45 0-.1.02-.18.05-.25 0-.1.03-.18.1-.25a.654.654 0 0 1 .3-.3c.07-.03.13-.07.2-.1.1-.03.18-.05.25-.05.1-.03.2-.05.3-.05h.25l.55-7.5v-.05c0-.03.02-.08.05-.15 0-.07.02-.13.05-.2.03-.1.08-.18.15-.25.07-.1.15-.18.25-.25s.22-.13.35-.2.28-.12.45-.15c.2-.03.42-.05.65-.05.2 0 .4.02.6.05.17.03.32.08.45.15.13.03.25.1.35.2l.2.2c.07.07.12.15.15.25.03.07.07.13.1.2.03.03.05.07.05.1v.1l.15.8h.65c.1 0 .2.02.3.05.1 0 .18.02.25.05.1.03.18.05.25.05.1.03.18.07.25.1s.13.08.2.15c.07.03.13.07.2.1.17-.3.37-.62.6-.95.47.73.97 1.53 1.5 2.4.17-.07.32-.12.45-.15zm.14 2.43.01.17 1.2 4.65c-.1-.23-.22-.47-.35-.7-.13-.2-.27-.42-.4-.65s-.27-.47-.4-.7-.27-.47-.4-.7c-.17-.23-.32-.47-.45-.7s-.27-.47-.4-.7c-.17-.2-.32-.42-.45-.65-.17-.23-.32-.47-.45-.7-.73 1.13-1.52 2.43-2.35 3.9l1.25-4.4c.03-.1.05-.2.05-.3.03-.07.05-.15.05-.25a.618.618 0 0 1-.05-.25c0-.07-.02-.13-.05-.2l-.15-.15c-.03-.07-.08-.12-.15-.15s-.13-.07-.2-.1-.15-.05-.25-.05H18c-.07.03-.12.07-.15.1-.03 0-.08.03-.15.1l-.1.1c0 .03-.02.08-.05.15-.03.03-.05.07-.05.1s-.02.07-.05.1l-1.6 5.65.2-7.15v-.3c-.03-.1-.05-.2-.05-.3-.03-.07-.07-.13-.1-.2s-.07-.13-.1-.2a.483.483 0 0 1-.15-.1c-.07-.03-.13-.07-.2-.1h-.5c-.03 0-.08.02-.15.05l-.1.1c-.03.07-.07.12-.1.15-.03.07-.05.12-.05.15-.03.07-.05.12-.05.15s-.02.08-.05.15v.1L14 16.4l-.35 1.25c-.13.37-.28.72-.45 1.05-.13.37-.27.73-.4 1.1-.17.37-.32.72-.45 1.05-.13.37-.27.73-.4 1.1s-.27.73-.4 1.1-.27.75-.4 1.15c-.13.37-.27.73-.4 1.1-.1.4-.22.78-.35 1.15-1.47-1.63-2.27-2.62-2.4-2.95-.1-.2-.12-.43-.05-.7.03-.23.15-.5.35-.8.13-.23.33-.5.6-.8.17-.23.42-.52.75-.85-.03 0 .23-.3.8-.9.33-.33.6-.62.8-.85.27-.33.5-.62.7-.85.17-.3.3-.57.4-.8.07-.23.13-.52.2-.85.03-.27.07-.57.1-.9v-.95c-.03-.3-.05-.62-.05-.95-.03-.27-.07-.55-.1-.85-.03-.23-.07-.45-.1-.65-.03-.17-.05-.33-.05-.5-.03-.1-.05-.15-.05-.15v.15c-.03.13-.05.27-.05.4-.03.17-.07.35-.1.55-.07.23-.12.47-.15.7-.07.27-.13.52-.2.75-.07.3-.13.57-.2.8-.07.27-.15.5-.25.7-.1.27-.2.48-.3.65-.13.27-.35.57-.65.9-.23.3-.53.63-.9 1l-1.1 1.1c-.47.5-.83.88-1.1 1.15-.43.43-.78.83-1.05 1.2-.37.4-.65.78-.85 1.15-.23.4-.4.77-.5 1.1-.13.37-.17.72-.1 1.05.03.17.1.33.2.5.07.13.17.28.3.45.1.17.23.33.4.5l.5.5c.27.3.45.48.55.55.2.23.38.43.55.6.2.23.37.45.5.65.2.27.37.52.5.75.07.1.12.2.15.3.07.07.12.15.15.25.03.07.07.15.1.25.07.07.12.13.15.2.03.1.07.18.1.25 0 .07.02.13.05.2s.07.13.1.2c0 .03.02.08.05.15 0 .03-.07.3-.2.8-.07.3-.13.55-.2.75L20 37.75l11.25-5.4c-.17-.83-.27-1.33-.3-1.5 0-.07.02-.13.05-.2s.05-.13.05-.2c.03-.07.07-.13.1-.2s.07-.13.1-.2c.03-.1.07-.18.1-.25.07-.07.12-.15.15-.25s.08-.18.15-.25c.03-.1.08-.2.15-.3.13-.23.28-.47.45-.7s.35-.47.55-.7c.17-.17.35-.37.55-.6l1.05-1.05c.17-.17.3-.33.4-.5.13-.17.23-.32.3-.45.1-.17.17-.33.2-.5.07-.33.03-.68-.1-1.05-.1-.33-.27-.7-.5-1.1-.23-.37-.52-.75-.85-1.15-.3-.37-.65-.77-1.05-1.2-.27-.27-.63-.65-1.1-1.15-.57-.53-.93-.9-1.1-1.1-.4-.37-.72-.7-.95-1-.3-.33-.52-.63-.65-.9-.1-.17-.18-.37-.25-.6-.1-.23-.18-.48-.25-.75-.1-.23-.18-.5-.25-.8-.07-.23-.12-.48-.15-.75-.07-.23-.12-.47-.15-.7-.03-.2-.07-.38-.1-.55 0-.17-.02-.3-.05-.4v-.15c-.03.07-.05.12-.05.15-.03.17-.05.33-.05.5-.03.2-.07.42-.1.65-.03.3-.07.58-.1.85-.03.33-.05.65-.05.95v.95c.03.33.07.65.1.95.07.3.13.57.2.8s.2.5.4.8c.17.23.4.52.7.85.2.2.45.48.75.85.6.63.88.93.85.9.3.33.55.62.75.85.27.3.47.57.6.8.17.3.28.57.35.8.03.27.02.5-.05.7-.13.33-.92 1.28-2.35 2.85l-.3-1c-.1-.3-.2-.62-.3-.95l-.3-1c-.13-.3-.25-.62-.35-.95-.13-.33-.25-.67-.35-1-.13-.3-.27-.62-.4-.95s-.27-.67-.4-1c-.13-.3-.27-.62-.4-.95L23.65 6.1c-.03-.1-.07-.18-.1-.25a.515.515 0 0 0-.1-.2c-.03-.07-.07-.13-.1-.2a.483.483 0 0 1-.15-.1H23c-.03-.03-.08-.03-.15 0-.07 0-.13.02-.2.05-.1.03-.18.08-.25.15-.07.03-.12.07-.15.1s-.07.08-.1.15c0 .03-.02.08-.05.15v.4c0-.02 0-.05-.01-.07z"/><path fill="#8C6969" fill-rule="evenodd" d="m14 16.4.45-13.95v-.1c.033-.067.05-.117.05-.15s.017-.083.05-.15c0-.033.017-.083.05-.15a.57.57 0 0 0 .1-.15l.1-.1a.393.393 0 0 1 .15-.05h.5l.2.1a.57.57 0 0 0 .15.1l.1.2.1.2c0 .1.017.2.05.3v.3l-.2 7.15 1.6-5.65c.033-.033.05-.067.05-.1s.017-.067.05-.1a.393.393 0 0 0 .05-.15l.1-.1c.067-.067.117-.1.15-.1a.57.57 0 0 1 .15-.1h.15c.1 0 .183.017.25.05l.2.1a.321.321 0 0 1 .15.15l.15.15c.033.067.05.133.05.2 0 .1.017.183.05.25 0 .1-.017.183-.05.25 0 .1-.017.2-.05.3l-1.25 4.4A79.453 79.453 0 0 1 20 5.6c.133.233.283.467.45.7.133.233.283.45.45.65l.4.7c.133.233.283.467.45.7l.4.7.4.7c.133.233.267.45.4.65.133.233.25.467.35.7l-1.2-4.65c-.033-.5-.033-.533 0-.1v-.4a.393.393 0 0 0 .05-.15c.033-.067.067-.117.1-.15s.083-.067.15-.1a.622.622 0 0 1 .25-.15.448.448 0 0 1 .2-.05c.067-.033.117-.033.15 0h.2a.57.57 0 0 0 .15.1l.1.2a.54.54 0 0 1 .1.2c.033.067.067.15.1.25l3.3 12.45c.133.333.267.65.4.95l.4 1c.133.333.267.65.4.95.1.333.217.667.35 1 .1.333.217.65.35.95l.3 1c.1.333.2.65.3.95l.3 1c1.433-1.567 2.217-2.517 2.35-2.85.067-.2.083-.433.05-.7a3.907 3.907 0 0 0-.35-.8 4.938 4.938 0 0 0-.6-.8c-.2-.233-.45-.517-.75-.85.033.033-.25-.267-.85-.9-.3-.367-.55-.65-.75-.85a10.22 10.22 0 0 1-.7-.85c-.2-.3-.333-.567-.4-.8s-.133-.5-.2-.8a87.99 87.99 0 0 1-.1-.95v-.95c0-.3.017-.617.05-.95.033-.267.067-.55.1-.85.033-.233.067-.45.1-.65 0-.167.017-.333.05-.5 0-.033.017-.083.05-.15v.15c.033.1.05.233.05.4.033.167.067.35.1.55.033.233.083.467.15.7.033.267.083.517.15.75.067.3.15.567.25.8.067.267.15.517.25.75.067.233.15.433.25.6.133.267.35.567.65.9.233.3.55.633.95 1 .167.2.533.567 1.1 1.1.467.5.833.883 1.1 1.15.4.433.75.833 1.05 1.2.333.4.617.783.85 1.15.233.4.4.767.5 1.1.133.367.167.717.1 1.05-.033.167-.1.333-.2.5a2.69 2.69 0 0 1-.3.45c-.1.167-.233.333-.4.5L33.35 27c-.2.233-.383.433-.55.6-.2.233-.383.467-.55.7s-.317.467-.45.7c-.067.1-.117.2-.15.3-.067.067-.117.15-.15.25s-.083.183-.15.25a1.96 1.96 0 0 0-.1.25l-.1.2-.1.2c0 .067-.017.133-.05.2s-.05.133-.05.2a884 884 0 0 0 .3 1.5L20 37.75l-11.25-5.4c.067-.2.133-.45.2-.75.133-.5.2-.767.2-.8a.393.393 0 0 1-.05-.15l-.1-.2a.448.448 0 0 1-.05-.2 1.96 1.96 0 0 1-.1-.25.768.768 0 0 0-.15-.2 1.96 1.96 0 0 0-.1-.25.622.622 0 0 0-.15-.25c-.033-.1-.083-.2-.15-.3a7.327 7.327 0 0 0-.5-.75c-.133-.2-.3-.417-.5-.65a10.85 10.85 0 0 1-.55-.6c-.1-.067-.283-.25-.55-.55l-.5-.5a2.616 2.616 0 0 1-.4-.5A2.69 2.69 0 0 1 5 25a1.564 1.564 0 0 1-.2-.5 1.927 1.927 0 0 1 .1-1.05c.1-.333.267-.7.5-1.1.2-.367.483-.75.85-1.15A10.36 10.36 0 0 1 7.3 20c.267-.267.633-.65 1.1-1.15l1.1-1.1c.367-.367.667-.7.9-1 .3-.333.517-.633.65-.9.1-.167.2-.383.3-.65.1-.2.183-.433.25-.7.067-.233.133-.5.2-.8.067-.233.133-.483.2-.75.033-.233.083-.467.15-.7.033-.2.067-.383.1-.55 0-.133.017-.267.05-.4v-.15l.05.15c0 .167.017.333.05.5.033.2.067.417.1.65.033.3.067.583.1.85 0 .333.017.65.05.95v.95c-.033.333-.067.633-.1.9-.067.333-.133.617-.2.85-.1.233-.233.5-.4.8-.2.233-.433.517-.7.85-.2.233-.467.517-.8.85-.567.6-.833.9-.8.9a7.247 7.247 0 0 0-.75.85c-.267.3-.467.567-.6.8-.2.3-.317.567-.35.8-.067.267-.05.5.05.7.133.333.933 1.317 2.4 2.95.133-.367.25-.75.35-1.15l.4-1.1c.133-.4.267-.783.4-1.15l.4-1.1.4-1.1c.133-.333.283-.683.45-1.05l.4-1.1a9.75 9.75 0 0 0 .45-1.05L14 16.4m6-2.45c.6 1 1.083 1.8 1.45 2.4.533.833.983 1.583 1.35 2.25.467.767.867 1.483 1.2 2.15.4.7.75 1.383 1.05 2.05.367.733.683 1.433.95 2.1.3.7.567 1.417.8 2.15s.45 1.483.65 2.25.383 1.567.55 2.4H12c.233-.933.467-1.833.7-2.7.267-.867.55-1.7.85-2.5.267-.767.55-1.517.85-2.25.3-.7.633-1.417 1-2.15a48.015 48.015 0 0 1 2.15-4.05c.333-.567.733-1.233 1.2-2 .033-.067.45-.767 1.25-2.1" clip-rule="evenodd"/></svg>