<svg xmlns="http://www.w3.org/2000/svg" width="40" height="40"><g fill-rule="evenodd"><path fill="#28323c" d="M4.1 8.75h7.95q.4-.6.85-1.15.45-.6.9-1.15t.95-1.1.95-1.1 1.05-1.1q.5-.55 1.05-1.05.5-.55 1.05-1.05Q19.45.5 20 0q.65.6 1.25 1.15l1.2 1.2q.55.6 1.15 1.15.55.6 1.05 1.15.55.55 1 1.1.5.55.95 1.05.45.55.8 1 .4.5.7.95h7.8v25L24.2 40q-.2-2.25-.5-4.2-.25-1.8-.6-3.35-.3-1.35-.7-2.5-.3-.95-.7-1.75-.3-.7-.65-1.25-.25-.4-.55-.7-.2-.25-.35-.35-.1-.05-.15-.1l-.15.1-.35.35q-.3.3-.55.7-.35.55-.65 1.25-.4.8-.7 1.8-.35 1.1-.65 2.5-.3 1.5-.55 3.3-.25 1.95-.4 4.2L4.1 33.75v-25m6.35 2.05v4.55q.5-.9 1-1.75t1.05-1.7l1.1-1.6q.55-.8 1.15-1.55.6-.8 1.25-1.55.6-.7 1.3-1.45l1.3-1.4q.7-.7 1.4-1.35l1.4 1.3q.7.7 1.35 1.4T24 7.1q.65.7 1.25 1.45t1.2 1.55q.55.75 1.1 1.55.55.85 1.05 1.7t.95 1.7V10.8h4.5v21.3H34l.05.35-8 4.1q-.2-1.95-.6-3.7-.4-1.6-.85-3.05-.45-1.25-1-2.35-.5-1-1.05-1.85-.45-.7-.95-1.3-.4-.45-.85-.85-.25-.25-.55-.45-.1-.1-.2-.15l-.2.15q-.25.2-.55.45-.4.35-.8.85-.5.6-.95 1.3-.55.85-1 1.85-.55 1.1-.95 2.4-.5 1.45-.8 3.05-.35 1.8-.55 3.8l-8.25-4.25.05-.35h-.05V10.8h4.5"/><path fill="#46505a" d="M10.45 10.8v4.55q.5-.9 1-1.75t1.05-1.7l1.1-1.6q.55-.8 1.15-1.55.6-.8 1.25-1.55.6-.7 1.3-1.45l1.3-1.4q.7-.7 1.4-1.35l1.4 1.3q.7.7 1.35 1.4T24 7.1q.65.7 1.25 1.45t1.2 1.55q.55.75 1.1 1.55.55.85 1.05 1.7t.95 1.7V10.8h4.5v21.3H34l.05.35-8 4.1q-.2-1.95-.6-3.7-.4-1.6-.85-3.05-.45-1.25-1-2.35-.5-1-1.05-1.85-.45-.7-.95-1.3-.4-.45-.85-.85-.25-.25-.55-.45-.1-.1-.2-.15l-.2.15q-.25.2-.55.45-.4.35-.8.85-.5.6-.95 1.3-.55.85-1 1.85-.55 1.1-.95 2.4-.5 1.45-.8 3.05-.35 1.8-.55 3.8l-8.25-4.25.05-.35h-.05V10.8h4.5"/></g></svg>