<svg xmlns="http://www.w3.org/2000/svg" width="40" height="40"><g fill-rule="evenodd"><path fill="#966e82" d="M35.35 28.9v-9.5H5v9.5l1.85 1.25V23.7h4.9v9.8l1.95 1.3V23.7h13v11.1l1.95-1.3v-9.8h4.85v6.45l1.85-1.25m3.25-15.05q-.25.15-.55.3-.3.1-.65.2-.3.1-.65.15t-.75.1-.85.05-.95 0h-1.05q-.5 0-1.2-.05H5q-.5-.05-.9-.05-.45-.05-.8-.1t-.7-.15q-.35-.05-.65-.2-.3-.1-.55-.25v2.9q.25.15.5.25.2.1.45.2t.5.15.45.1q.25 0 .45.05.2 0 .4.05h32q.2 0 .35-.05.2 0 .35-.05l.4-.1q.2-.05.4-.15.25-.05.45-.2.25-.1.5-.25v-2.9M11.4 12.8q.95-.65 1.85-1.4.8-.65 1.65-1.45.7-.7 1.4-1.45.6-.65 1.2-1.35.45-.5 1-1.25.65-.75.8-.95.35-.45.55-.65.25-.2.4-.2.1 0 .4.25.2.15.6.6.2.25.85.95.65.75 1.1 1.25.65.7 1.25 1.35.75.8 1.5 1.45.85.8 1.7 1.5.95.75 1.85 1.35H11.4"/><path fill="#6e5050" d="M8.55 12.55q1.2-.9 2.4-1.9 1.05-.9 2.1-1.9L14.9 6.9q.75-.8 1.55-1.7.35-.4 1.35-1.45.7-.8 1-1.15.5-.55.8-.75.3-.3.5-.3t.55.25q.3.25.8.8.4.35 1.15 1.15Q23.8 5 24 5.2l1.7 1.7q1 1 2 1.85 1.1 1.05 2.2 1.95 1.25 1 2.45 1.9h1.05q.65.05 1.15.05.6.05 1.05 0 .5 0 .95-.05t.8-.15q.4-.1.75-.25t.7-.35q.3-.2.6-.5.3-.25.6-.65v6.85q-.25.3-.45.55t-.4.4q-.2.2-.4.35t-.4.25q-.15.05-.35.15l-.3.1q-.2 0-.35.05H37v10.7l-5.45 3.75v-8.3h-1.4v9.25L25 38.35v-12.8h-9.65v12.9l-5.4-3.7v-9.2H8.6v8.25l-5.4-3.7V19.4q-.2 0-.35-.05-.2 0-.35-.05-.2-.05-.4-.15-.2-.05-.4-.15t-.45-.25l-.4-.3q-.2-.2-.45-.4-.2-.2-.4-.5V10.7q.3.35.6.65.3.25.65.45t.75.35q.35.15.8.2.4.1.9.15.45.05 1.05.05h3.8m26.8 16.35v-9.5H5v9.5l1.85 1.25V23.7h4.9v9.8l1.95 1.3V23.7h13v11.1l1.95-1.3v-9.8h4.85v6.45l1.85-1.25m3.25-15.05q-.25.15-.55.3-.3.1-.65.2-.3.1-.65.15t-.75.1-.85.05-.95 0h-1.05q-.5 0-1.2-.05H5q-.5-.05-.9-.05-.45-.05-.8-.1t-.7-.15q-.35-.05-.65-.2-.3-.1-.55-.25v2.9q.25.15.5.25.2.1.45.2t.5.15.45.1q.25 0 .45.05.2 0 .4.05h32q.2 0 .35-.05.2 0 .35-.05l.4-.1q.2-.05.4-.15.25-.05.45-.2.25-.1.5-.25v-2.9M11.4 12.8q.95-.65 1.85-1.4.8-.65 1.65-1.45.7-.7 1.4-1.45.6-.65 1.2-1.35.45-.5 1-1.25.65-.75.8-.95.35-.45.55-.65.25-.2.4-.2.1 0 .4.25.2.15.6.6.2.25.85.95.65.75 1.1 1.25.65.7 1.25 1.35.75.8 1.5 1.45.85.8 1.7 1.5.95.75 1.85 1.35H11.4"/></g></svg>