<svg xmlns="http://www.w3.org/2000/svg" width="40" height="40"><path fill="#46505A" d="M32.95 22.2h1.65v1.9h-1.65zm-4.9 0h1.75v1.9h-1.75z"/><path fill="#E4DFA2" d="M18.85 9.5h2.2v3.8h-2.2zm0-3.8h2.2v2.2h-2.2z"/><g fill="#46505A"><path d="M21.05 13.3V9.5h-2.2v3.8h2.2zm0-5.4V5.7h-2.2v2.2h2.2zm4.8 11.45v1.75c.03.57.05 1.13.05 1.7.03.57.07 1.12.1 1.65.07.53.12 1.03.15 1.5v.9c-.13.43-.28.83-.45 1.2s-.37.7-.6 1c-.2.27-.43.52-.7.75-.23.23-.5.43-.8.6-.27.17-.57.32-.9.45-.27.1-.57.2-.9.3-.3.07-.62.12-.95.15-.3.03-.6.05-.9.05s-.62-.02-.95-.05c-.33-.07-.67-.13-1-.2-.33-.1-.65-.2-.95-.3-.33-.13-.65-.3-.95-.5-.3-.17-.58-.37-.85-.6s-.52-.48-.75-.75c-.2-.27-.38-.57-.55-.9-.13-.33-.23-.7-.3-1.1V26c.03-.5.07-1.03.1-1.6.03-.5.07-1.03.1-1.6.03-.53.05-1.08.05-1.65V19.5c0-.53-.02-1.08-.05-1.65 0-.53-.02-1.07-.05-1.6 0-.5-.02-1-.05-1.5s-.07-.98-.1-1.45l-1.9-3.95V3.1l2.6 1.5L18 3.65l-.05-1.7h3.8v1.7l3.75.95 2.65-1.65V9.2l-2 3.65c-.07.47-.12.97-.15 1.5-.03.5-.07 1.03-.1 1.6 0 .53-.02 1.08-.05 1.65v1.75z"/><path d="M28.15 24.95h6.45c0 .67-.05 1.28-.15 1.85-.07.57-.2 1.12-.4 1.65-.17.5-.38.98-.65 1.45-.27.43-.58.85-.95 1.25-.33.4-.72.78-1.15 1.15-.43.33-.92.67-1.45 1-.5.33-1.07.65-1.7.95-.57.3-1.2.6-1.9.9l-3.55 3.5h-5.6l-3.5-3.5c-.73-.3-1.43-.63-2.1-1-.63-.33-1.22-.7-1.75-1.1-.53-.37-1.02-.77-1.45-1.2-.4-.4-.77-.82-1.1-1.25s-.62-.87-.85-1.3a6.03 6.03 0 0 1-.6-1.4c-.17-.47-.28-.95-.35-1.45-.07-.47-.1-.95-.1-1.45l6.25-.05c0 .67.05 1.3.15 1.9s.27 1.17.5 1.7c.2.5.45.97.75 1.4.27.43.6.82 1 1.15.37.33.77.63 1.2.9s.92.48 1.45.65c.5.17 1.03.3 1.6.4.53.07 1.1.1 1.7.1s1.18-.05 1.75-.15c.53-.1 1.05-.25 1.55-.45s.98-.43 1.45-.7c.43-.3.83-.63 1.2-1 .33-.33.65-.72.95-1.15s.53-.9.7-1.4c.2-.5.35-1.03.45-1.6.13-.57.2-1.15.2-1.75zM9.8 22.2h1.8v1.9H9.8zm-4.5 0H7v1.9H5.3z"/></g><path fill="#28323C" d="M11.6 24.1v-1.9H9.8v1.9h1.8zM7 22.2H5.3v1.9H7v-1.9zm22.8 1.9v-1.9h-1.75v1.9h1.75zm4.8 0v-1.9h-1.65v1.9h1.65zM25.25 1.95 28.5 0h1.85v9.7l-1.9 3.65c-.03.33-.07.65-.1.95-.03.33-.07.65-.1.95s-.05.58-.05.85c-.03.3-.07.6-.1.9v.9c-.03.3-.05.6-.05.9v1.9h8.15v4.7c0 .87-.1 1.72-.3 2.55-.2.73-.48 1.45-.85 2.15-.37.63-.78 1.23-1.25 1.8-.43.5-.92.98-1.45 1.45-.47.4-.97.78-1.5 1.15-.47.3-.93.57-1.4.8-.43.2-.82.35-1.15.45-.3.13-.53.2-.7.2L23.7 40h-7.6l-3.6-3.75c-.2-.03-.47-.12-.8-.25-.37-.13-.77-.3-1.2-.5-.5-.27-.98-.57-1.45-.9a14.6 14.6 0 0 1-1.5-1.2c-.5-.47-.97-.97-1.4-1.5-.47-.6-.87-1.23-1.2-1.9-.37-.7-.65-1.43-.85-2.2-.2-.83-.3-1.7-.3-2.6v-4.6h8c.03-2.07-.07-4.52-.3-7.35L9.75 9.7V0h1.8l3.05 1.95 1.35-.35L15.9 0h7.75v1.6l1.6.35zM26.8 29.7c-.3.43-.62.82-.95 1.15-.37.37-.77.7-1.2 1-.47.27-.95.5-1.45.7s-1.02.35-1.55.45c-.57.1-1.15.15-1.75.15s-1.17-.03-1.7-.1c-.57-.1-1.1-.23-1.6-.4-.53-.17-1.02-.38-1.45-.65s-.83-.57-1.2-.9c-.4-.33-.73-.72-1-1.15-.3-.43-.55-.9-.75-1.4-.23-.53-.4-1.1-.5-1.7-.1-.6-.15-1.23-.15-1.9L5.3 25c0 .5.03.98.1 1.45.07.5.18.98.35 1.45.13.47.33.93.6 1.4.23.43.52.87.85 1.3s.7.85 1.1 1.25c.43.43.92.83 1.45 1.2.53.4 1.12.77 1.75 1.1.67.37 1.37.7 2.1 1l3.5 3.5h5.6l3.55-3.5c.7-.3 1.33-.6 1.9-.9.63-.3 1.2-.62 1.7-.95.53-.33 1.02-.67 1.45-1 .43-.37.82-.75 1.15-1.15.37-.4.68-.82.95-1.25.27-.47.48-.95.65-1.45.2-.53.33-1.08.4-1.65.1-.57.15-1.18.15-1.85h-6.45c0 .6-.07 1.18-.2 1.75-.1.57-.25 1.1-.45 1.6-.17.5-.4.97-.7 1.4zm-.95-10.35V17.6c.03-.57.05-1.12.05-1.65.03-.57.07-1.1.1-1.6.03-.53.08-1.03.15-1.5l2-3.65V2.95L25.5 4.6l-3.75-.95v-1.7h-3.8l.05 1.7-3.65.95-2.6-1.5v6.25l1.9 3.95c.03.47.07.95.1 1.45s.05 1 .05 1.5c.03.53.05 1.07.05 1.6.03.57.05 1.12.05 1.65v1.65c0 .57-.02 1.12-.05 1.65-.03.57-.07 1.1-.1 1.6-.03.57-.07 1.1-.1 1.6v.95c.07.4.17.77.3 1.1.17.33.35.63.55.9.23.27.48.52.75.75s.55.43.85.6c.3.2.62.37.95.5.3.1.62.2.95.3.33.07.67.13 1 .2.33.03.65.05.95.05s.6-.02.9-.05c.33-.03.65-.08.95-.15.33-.1.63-.2.9-.3.33-.13.63-.28.9-.45.3-.17.57-.37.8-.6.27-.23.5-.48.7-.75.23-.3.43-.63.6-1s.32-.77.45-1.2v-.9c-.03-.47-.08-.97-.15-1.5-.03-.53-.07-1.08-.1-1.65 0-.57-.02-1.13-.05-1.7v-1.75z"/></svg>