<svg xmlns="http://www.w3.org/2000/svg" width="40" height="40"><path fill="#D2B93C" d="M20.85 26c-.23-.5-.38-1-.45-1.5-.03-.6.05-1.22.25-1.85.2-.7.58-1.42 1.15-2.15.6-.83 1.38-1.67 2.35-2.5.33-.3.67-.62 1-.95.3-.27.58-.55.85-.85.23-.3.47-.58.7-.85.17-.23.33-.48.5-.75.17-.2.3-.4.4-.6.1-.17.2-.32.3-.45.07-.13.12-.23.15-.3 0-.03.02-.08.05-.15 0 0 .05.07.15.2.13.13.27.3.4.5.17.23.32.48.45.75.17.33.28.67.35 1 .1.4.15.8.15 1.2 0 .43-.08.88-.25 1.35-.17.5-.42.98-.75 1.45-.4.53-.9 1.03-1.5 1.5-.53.43-1 .88-1.4 1.35-.37.43-.7.9-1 1.4-.23.4-.43.82-.6 1.25-.13.4-.25.8-.35 1.2-.07.3-.1.62-.1.95-.03.27-.05.53-.05.8.03.17.05.33.05.5.03.07.05.12.05.15l-.3-.15c-.27-.17-.53-.33-.8-.5-.33-.27-.63-.55-.9-.85-.37-.37-.65-.75-.85-1.15z"/><path fill="#FADC32" d="M19.1 28.65c-.83-.17-1.73-.43-2.7-.8-1.1-.4-2.13-.88-3.1-1.45-1.07-.67-1.97-1.37-2.7-2.1-.83-.87-1.42-1.75-1.75-2.65-.33-1.03-.35-2.1-.05-3.2.37-1.17 1.15-2.35 2.35-3.55 1.27-1.33 3.03-2.65 5.3-3.95.73-.43 1.4-.9 2-1.4.53-.47 1-.95 1.4-1.45.37-.47.7-.95 1-1.45.23-.43.43-.88.6-1.35.13-.37.23-.75.3-1.15.07-.33.1-.65.1-.95.03-.23.05-.45.05-.65a.492.492 0 0 1-.05-.2c.03 0 .2.07.5.2.37.2.75.43 1.15.7.53.33 1.02.7 1.45 1.1.57.5 1.02 1.02 1.35 1.55.43.67.73 1.33.9 2 .17.8.15 1.63-.05 2.5-.2.93-.63 1.9-1.3 2.9-.73 1.13-1.73 2.27-3 3.4-1 .93-1.83 1.83-2.5 2.7-.6.83-1.05 1.63-1.35 2.4-.27.7-.42 1.38-.45 2.05-.03.57.03 1.13.2 1.7.1.47.28.92.55 1.35.2.33.43.65.7.95l.6.6c.1.07.18.13.25.2-.33.13-.92.13-1.75 0z"/><path fill="#735541" d="M10.6 34.4c-.1 0-.2-.02-.3-.05-.1 0-.2-.02-.3-.05-.07-.03-.15-.08-.25-.15a.654.654 0 0 1-.2-.15l-.2-.2c-.03-.07-.07-.15-.1-.25-.07-.1-.1-.18-.1-.25-.03-.1-.05-.2-.05-.3s.02-.2.05-.3c0-.1.02-.18.05-.25.03-.1.08-.18.15-.25.03-.1.08-.18.15-.25s.13-.12.2-.15c.1-.07.18-.12.25-.15.1-.03.18-.07.25-.1.1-.03.2-.05.3-.05l3.95-.05-3.25-1.5a.579.579 0 0 1-.25-.15l-.2-.2s-.12-.13-.15-.2c-.07-.07-.12-.15-.15-.25s-.05-.18-.05-.25c-.03-.1-.05-.2-.05-.3s.02-.2.05-.3c.03-.07.07-.15.1-.25s.08-.18.15-.25l.4-.4c.07-.03.15-.07.25-.1s.18-.05.25-.05c.1-.03.2-.05.3-.05s.18.02.25.05c.1.03.2.07.3.1l7.9 3.6 7.9-4c.1-.03.18-.07.25-.1.1-.03.2-.05.3-.05h.3c.07 0 .15.02.25.05s.18.08.25.15c.1.03.18.08.25.15l.2.2s.12.15.15.25c.03.07.07.15.1.25 0 .1.02.18.05.25v.3c-.03.1-.07.18-.1.25-.03.1-.07.18-.1.25-.03.1-.08.18-.15.25l-.2.2s-.15.12-.25.15l-3.25 1.65 3.45-.05h.3c.1.03.18.07.25.1.1.03.18.07.25.1l.4.4c.07.07.12.15.15.25.03.07.05.15.05.25.03.1.05.2.05.3v.3c-.03.07-.07.15-.1.25s-.07.18-.1.25l-.4.4c-.07.03-.15.08-.25.15-.07.03-.15.05-.25.05-.1.03-.2.05-.3.05L27 34l2.55 1.2c.07.03.15.08.25.15.07.03.13.08.2.15s.12.15.15.25c.07.07.12.15.15.25 0 .07.02.15.05.25v.55c-.03.1-.07.2-.1.3-.07.07-.12.15-.15.25l-.2.2c-.07.07-.13.12-.2.15-.1.07-.18.12-.25.15-.1.03-.2.05-.3.05-.07.03-.15.03-.25 0h-.3c-.07-.03-.15-.07-.25-.1l-7.95-3.65h-.05l-7.65 3.9c-.07.03-.15.07-.25.1s-.2.05-.3.05h-.25c-.1-.03-.2-.05-.3-.05-.07-.03-.15-.08-.25-.15a.654.654 0 0 1-.2-.15l-.2-.2a.579.579 0 0 1-.15-.25.332.332 0 0 1-.1-.25c-.03-.1-.05-.2-.05-.3a.356.356 0 0 1 0-.25c0-.1.02-.18.05-.25.03-.1.07-.18.1-.25.03-.1.08-.18.15-.25l.2-.2c.07-.07.15-.12.25-.15l2.3-1.2-3.1.1z"/><path fill="#393330" d="M21.8 20.5c-.57.73-.95 1.45-1.15 2.15-.2.63-.28 1.25-.25 1.85.07.5.22 1 .45 1.5.2.4.48.78.85 1.15.27.3.57.58.9.85.27.17.53.33.8.5l.3.15c0-.03-.02-.08-.05-.15 0-.17-.02-.33-.05-.5 0-.27.02-.53.05-.8 0-.33.03-.65.1-.95.1-.4.22-.8.35-1.2.17-.43.37-.85.6-1.25.3-.5.63-.97 1-1.4.4-.47.87-.92 1.4-1.35.6-.47 1.1-.97 1.5-1.5.33-.47.58-.95.75-1.45.17-.47.25-.92.25-1.35 0-.4-.05-.8-.15-1.2a3.98 3.98 0 0 0-.35-1c-.13-.27-.28-.52-.45-.75-.13-.2-.27-.37-.4-.5-.1-.13-.15-.2-.15-.2-.03.07-.05.12-.05.15-.03.07-.08.17-.15.3-.1.13-.2.28-.3.45-.1.2-.23.4-.4.6-.17.27-.33.52-.5.75-.23.27-.47.55-.7.85-.27.3-.55.58-.85.85-.33.33-.67.65-1 .95-.97.83-1.75 1.67-2.35 2.5zM8.85 21.65c.33.9.92 1.78 1.75 2.65.73.73 1.63 1.43 2.7 2.1.97.57 2 1.05 3.1 1.45.97.37 1.87.63 2.7.8.83.13 1.42.13 1.75 0-.07-.07-.15-.13-.25-.2l-.6-.6c-.27-.3-.5-.62-.7-.95-.27-.43-.45-.88-.55-1.35-.17-.57-.23-1.13-.2-1.7.03-.67.18-1.35.45-2.05.3-.77.75-1.57 1.35-2.4.67-.87 1.5-1.77 2.5-2.7 1.27-1.13 2.27-2.27 3-3.4.67-1 1.1-1.97 1.3-2.9.2-.87.22-1.7.05-2.5-.17-.67-.47-1.33-.9-2-.33-.53-.78-1.05-1.35-1.55-.43-.4-.92-.77-1.45-1.1-.4-.27-.78-.5-1.15-.7-.3-.13-.47-.2-.5-.2 0 .07.02.13.05.2 0 .2-.02.42-.05.65 0 .3-.03.62-.1.95-.07.4-.17.78-.3 1.15-.17.47-.37.92-.6 1.35-.3.5-.63.98-1 1.45-.4.5-.87.98-1.4 1.45-.6.5-1.27.97-2 1.4-2.27 1.3-4.03 2.62-5.3 3.95-1.2 1.2-1.98 2.38-2.35 3.55-.3 1.1-.28 2.17.05 3.2zm-1.15-5.2c.57-.97 1.35-1.93 2.35-2.9 1.1-1.03 2.48-2.05 4.15-3.05.7-.43 1.33-.85 1.9-1.25s1.05-.8 1.45-1.2c.4-.37.75-.73 1.05-1.1.27-.33.5-.67.7-1 .17-.33.3-.67.4-1 .1-.27.17-.57.2-.9.03-.27.05-.55.05-.85 0-.23-.02-.52-.05-.85-.03-.4-.03-.75 0-1.05.03-.27.1-.5.2-.7.07-.17.17-.3.3-.4s.27-.17.4-.2c.17 0 .35.02.55.05.17.03.35.08.55.15.17.1.37.2.6.3.2.1.42.22.65.35 1 .6 1.88 1.23 2.65 1.9.7.6 1.28 1.22 1.75 1.85.43.57.78 1.15 1.05 1.75.23.5.4 1.02.5 1.55.1.47.15.92.15 1.35-.03.37-.08.72-.15 1.05-.03.27-.1.5-.2.7-.03.1-.07.18-.1.25.47.37.87.77 1.2 1.2.33.4.62.83.85 1.3s.4.93.5 1.4c.1.5.15 1 .15 1.5-.03.5-.12 1-.25 1.5s-.33.98-.6 1.45c-.3.5-.65.98-1.05 1.45s-.87.93-1.4 1.4c-.3.23-.57.48-.8.75l-.65.65c-.17.23-.3.45-.4.65-.13.17-.23.35-.3.55-.1.13-.17.28-.2.45-.03.1-.07.2-.1.3s-.05.18-.05.25v.05c.37-.33.78-.6 1.25-.8.43-.17.88-.25 1.35-.25.43 0 .88.05 1.35.15.4.13.8.3 1.2.5a4.457 4.457 0 0 1 1.6 1.75c.13.33.18.68.15 1.05 0 .37-.12.73-.35 1.1.2.17.38.35.55.55s.3.42.4.65c.1.27.18.52.25.75.03.27.05.53.05.8 0 .23-.03.48-.1.75-.07.23-.17.47-.3.7s-.28.43-.45.6c-.2.2-.4.37-.6.5.2.1.35.27.45.5s.15.52.15.85c-.03.33-.12.67-.25 1-.13.37-.3.72-.5 1.05-.27.33-.57.62-.9.85-.33.27-.72.45-1.15.55-.47.13-.97.17-1.5.1-.57-.07-1.15-.25-1.75-.55-2.1-1-4.18-2-6.25-3-.13.1-.75.45-1.85 1.05-1.43.83-2.72 1.48-3.85 1.95-.73.33-1.43.55-2.1.65-.57.1-1.1.12-1.6.05-.47-.1-.87-.27-1.2-.5-.33-.2-.62-.47-.85-.8-.2-.3-.37-.62-.5-.95s-.2-.67-.2-1c-.03-.33-.03-.62 0-.85.07-.23.15-.42.25-.55-.23-.1-.43-.23-.6-.4s-.3-.37-.4-.6c-.13-.2-.22-.42-.25-.65s-.05-.48-.05-.75c0-.23.03-.47.1-.7.07-.27.15-.52.25-.75.13-.23.27-.45.4-.65.17-.2.35-.38.55-.55-.1-.13-.18-.28-.25-.45s-.12-.35-.15-.55-.03-.4 0-.6c0-.2.03-.4.1-.6.03-.2.1-.4.2-.6s.22-.4.35-.6c.13-.17.28-.33.45-.5.2-.17.39-.32.59-.49.01 0 .01 0 .01-.01l-.01.01c-.04-.01-.15-.12-.34-.31-.3-.27-.6-.57-.9-.9-.37-.47-.68-.95-.95-1.45-.37-.6-.62-1.23-.75-1.9-.17-.73-.18-1.48-.05-2.25.13-.87.45-1.73.95-2.6zM9.1 33c0 .1.02.2.05.3 0 .07.03.15.1.25.03.1.07.18.1.25l.2.2c.07.07.13.12.2.15.1.07.18.12.25.15.1.03.2.05.3.05.1.03.2.05.3.05l3.1-.1-2.3 1.2c-.1.03-.18.08-.25.15l-.2.2c-.07.07-.12.15-.15.25-.03.07-.07.15-.1.25-.03.07-.05.15-.05.25-.03.1-.03.18 0 .25 0 .1.02.2.05.3 0 .1.03.18.1.25.03.1.08.18.15.25l.2.2c.07.07.13.12.2.15.1.07.18.12.25.15.1 0 .2.02.3.05h.25c.1 0 .2-.02.3-.05s.18-.07.25-.1l7.65-3.9h.05l7.95 3.65c.1.03.18.07.25.1h.3c.1.03.18.03.25 0 .1 0 .2-.02.3-.05.07-.03.15-.08.25-.15.07-.03.13-.08.2-.15l.2-.2c.03-.1.08-.18.15-.25.03-.1.07-.2.1-.3v-.55a.915.915 0 0 1-.05-.25.579.579 0 0 0-.15-.25c-.03-.1-.08-.18-.15-.25s-.13-.12-.2-.15c-.1-.07-.18-.12-.25-.15L27 34l2.75-.05c.1 0 .2-.02.3-.05.1 0 .18-.02.25-.05.1-.07.18-.12.25-.15l.4-.4c.03-.07.07-.15.1-.25s.07-.18.1-.25v-.3c0-.1-.02-.2-.05-.3 0-.1-.02-.18-.05-.25a.579.579 0 0 0-.15-.25l-.4-.4c-.07-.03-.15-.07-.25-.1-.07-.03-.15-.07-.25-.1h-.3l-3.45.05 3.25-1.65c.1-.03.18-.08.25-.15l.2-.2c.07-.07.12-.15.15-.25.03-.07.07-.15.1-.25.03-.07.07-.15.1-.25v-.3a.618.618 0 0 1-.05-.25c-.03-.1-.07-.18-.1-.25a.579.579 0 0 0-.15-.25l-.2-.2a.579.579 0 0 0-.25-.15c-.07-.07-.15-.12-.25-.15s-.18-.05-.25-.05h-.3s-.2.02-.3.05c-.07.03-.15.07-.25.1l-7.9 4-7.9-3.6c-.1-.03-.2-.07-.3-.1-.07-.03-.15-.05-.25-.05s-.2.02-.3.05c-.07 0-.15.02-.25.05s-.18.07-.25.1l-.4.4c-.07.07-.12.15-.15.25s-.07.18-.1.25c-.03.1-.05.2-.05.3s.02.2.05.3c0 .07.02.15.05.25s.08.18.15.25c.03.07.08.13.15.2l.2.2c.07.07.15.12.25.15l3.25 1.5-3.95.05c-.1 0-.2.02-.3.05-.07.03-.15.07-.25.1-.07.03-.15.08-.25.15-.07.03-.13.08-.2.15s-.12.15-.15.25c-.07.07-.12.15-.15.25-.03.07-.05.15-.05.25-.03.1-.05.2-.05.3z"/></svg>