<svg xmlns="http://www.w3.org/2000/svg" width="40" height="40"><path fill="#969696" d="M17.05 31.25h5.9V27.1c0-.23-.02-.47-.05-.7a4.6 4.6 0 0 0-.15-.65c-.1-.2-.2-.38-.3-.55-.1-.2-.22-.37-.35-.5-.13-.17-.28-.32-.45-.45s-.33-.23-.5-.3c-.17-.1-.35-.17-.55-.2-.2-.07-.4-.1-.6-.1s-.4.03-.6.1c-.2.03-.38.1-.55.2-.17.07-.33.17-.5.3s-.32.27-.45.4c-.13.17-.25.35-.35.55-.1.17-.2.35-.3.55-.07.2-.12.42-.15.65s-.05.47-.05.7v4.15zm2.95 5.9-7.75-6.85V14.85h15.5v15.4L20 37.15z"/><path fill="#E4DFA2" d="M26.3 13.75c.07.1.12.22.15.35.07.1.1.22.1.35.03.13.05.27.05.4h-3.65c0-.13.02-.27.05-.4s.07-.25.1-.35c.07-.13.13-.25.2-.35s.13-.2.2-.3c.1-.07.18-.13.25-.2.1-.1.22-.17.35-.2.1-.03.22-.07.35-.1a1.23 1.23 0 0 1 .7 0c.13.03.25.07.35.1s.2.1.3.2c.1.07.18.13.25.2.1.1.18.2.25.3zm-5.7 10c.2.03.38.1.55.2.17.07.33.17.5.3s.32.28.45.45c.13.13.25.3.35.5.1.17.2.35.3.55.07.23.12.45.15.65.03.23.05.47.05.7v4.15h-5.9V27.1c0-.23.02-.47.05-.7s.08-.45.15-.65c.1-.2.2-.38.3-.55.1-.2.22-.38.35-.55.13-.13.28-.27.45-.4s.33-.23.5-.3c.17-.1.35-.17.55-.2.2-.07.4-.1.6-.1s.4.03.6.1zm1.2-8.9h-3.6v-.4c.03-.13.08-.25.15-.35.03-.13.08-.25.15-.35s.13-.2.2-.3c.1-.07.2-.13.3-.2.1-.1.2-.17.3-.2s.22-.07.35-.1a1.23 1.23 0 0 1 .7 0c.13.03.25.07.35.1s.2.1.3.2c.1.07.2.13.3.2.07.1.13.2.2.3s.12.22.15.35c.07.1.1.22.1.35.03.13.05.27.05.4zm-4.75 0H13.4c0-.13.02-.27.05-.4 0-.13.03-.25.1-.35.03-.13.08-.25.15-.35s.15-.2.25-.3c.07-.07.15-.13.25-.2.1-.1.2-.17.3-.2s.22-.07.35-.1c.1-.03.22-.05.35-.05s.27.02.4.05c.1.03.2.07.3.1.13.03.25.1.35.2.1.07.18.13.25.2.1.1.18.2.25.3s.12.22.15.35c.03.1.07.22.1.35s.05.27.05.4z"/><path fill="#969696" d="M12.25 14.85v-9.7h2.05v1.1L20 2.6l5.7 3.65v-1.1h2.05v9.7H26.6c0-.13-.02-.27-.05-.4 0-.13-.03-.25-.1-.35-.03-.13-.08-.25-.15-.35s-.15-.2-.25-.3c-.07-.07-.15-.13-.25-.2-.1-.1-.2-.17-.3-.2s-.22-.07-.35-.1-.25-.05-.35-.05c-.13 0-.25.02-.35.05-.13.03-.25.07-.35.1a.73.73 0 0 0-.35.2c-.07.07-.15.13-.25.2-.07.1-.13.2-.2.3s-.13.22-.2.35c-.03.1-.07.22-.1.35s-.05.27-.05.4H21.8c0-.13-.02-.27-.05-.4 0-.13-.03-.25-.1-.35-.03-.13-.08-.25-.15-.35s-.13-.2-.2-.3c-.1-.07-.2-.13-.3-.2-.1-.1-.2-.17-.3-.2s-.22-.07-.35-.1a1.23 1.23 0 0 0-.7 0c-.13.03-.25.07-.35.1s-.2.1-.3.2c-.1.07-.2.13-.3.2-.07.1-.13.2-.2.3s-.12.22-.15.35c-.07.1-.12.22-.15.35v.4h-1.15c0-.13-.02-.27-.05-.4s-.07-.25-.1-.35c-.03-.13-.08-.25-.15-.35s-.15-.2-.25-.3c-.07-.07-.15-.13-.25-.2a.73.73 0 0 0-.35-.2c-.1-.03-.2-.07-.3-.1-.13-.03-.27-.05-.4-.05s-.25.02-.35.05c-.13.03-.25.07-.35.1s-.2.1-.3.2c-.1.07-.18.13-.25.2-.1.1-.18.2-.25.3s-.12.22-.15.35c-.07.1-.1.22-.1.35-.03.13-.05.27-.05.4h-1.15z"/><path fill="#4B4B4B" d="M10.25 3h5.2L20 0l4.55 3h5.2v28.4L20 40l-9.75-8.5V3zm4.05 2.15h-2.05V30.3L20 37.15l7.75-6.9V5.15H25.7v1.1L20 2.6l-5.7 3.65v-1.1z"/></svg>