<svg xmlns="http://www.w3.org/2000/svg" width="40" height="40"><g fill-rule="evenodd" clip-rule="evenodd"><path fill="#465A46" d="M8.05 15.5a42.422 42.422 0 0 1-.1-.75v-.7s.017-.467.05-.7c0-.233.033-.467.1-.7.033-.2.083-.417.15-.65l.2-.6.3-.6c.1-.2.2-.383.3-.55A4 4 0 0 1 9 9.6a2.487 2.487 0 0 1 0-.7 4.994 4.994 0 0 1 .2-1.4c.067-.233.133-.45.2-.65l.3-.7c.1-.233.217-.45.35-.65.133-.233.267-.45.4-.65.167-.2.333-.383.5-.55.167-.2.333-.383.5-.55l.6-.4c.2-.167.4-.3.6-.4l.6-.3c.2-.1.417-.167.65-.2.2-.067.4-.117.6-.15.2-.067.417-.1.65-.1.133-.167.283-.317.45-.45.133-.167.3-.317.5-.45.167-.133.35-.25.55-.35.2-.133.4-.25.6-.35s.417-.183.65-.25c.2-.067.417-.133.65-.2l.7-.1c.267-.033.517-.05.75-.05s.483.017.75.05l.7.1c.233.067.45.133.65.2.233.067.45.15.65.25s.4.217.6.35c.2.1.383.217.55.35.2.133.383.283.55.45.133.133.267.283.4.45.2 0 .417.033.65.1.2.033.4.083.6.15.233.033.45.1.65.2l.6.3.6.4c.2.133.383.267.55.4.2.167.383.35.55.55.167.167.333.35.5.55.133.2.267.417.4.65.133.2.25.417.35.65l.3.7c.067.2.133.417.2.65s.117.467.15.7.05.467.05.7c.033.233.033.467 0 .7a4 4 0 0 1-.05.65l.3.5c.1.167.183.35.25.55s.133.383.2.55c.067.2.133.417.2.65l.1.6c.033.233.05.45.05.65v.7a4 4 0 0 1-.05.65c.133.167.233.283.3.35l.3.5.3.5c.067.167.133.35.2.55.067.167.117.333.15.5.067.2.117.383.15.55 0 .2.017.383.05.55v.55l-.1.5c.1.133.183.283.25.45.1.133.183.283.25.45s.117.35.15.55c.067.167.117.333.15.5.033.2.05.4.05.6.033.167.05.35.05.55s-.017.4-.05.6c0 .2-.033.4-.1.6-.033.2-.083.383-.15.55-.067.2-.133.383-.2.55-.067.2-.15.367-.25.5l-.3.5c-.1.133-.217.267-.35.4-.1.167-.217.3-.35.4-.133.133-.267.25-.4.35s-.267.183-.4.25c-.033.167-.083.333-.15.5s-.15.317-.25.45c-.067.167-.15.333-.25.5-.1.133-.217.267-.35.4-.1.167-.217.317-.35.45s-.267.25-.4.35c-.167.133-.317.25-.45.35l-.5.3c-.167.1-.35.183-.55.25a2.795 2.795 0 0 0-.5.15c-.2.033-.383.067-.55.1s-.35.05-.55.05h-.5c-.2-.033-.383-.067-.55-.1a.986.986 0 0 1-.45-.1 2.795 2.795 0 0 1-.5-.15c-.033 0-.067.017-.1.05h-.05c-.033.033-.067.05-.1.05s-.067.017-.1.05h-.1c-.033 0-.067.017-.1.05h-.1c-.033 0-.067.017-.1.05l.3 5.95L20 40l-4.4-2.85.3-6.05c-.033-.033-.1-.067-.2-.1s-.167-.05-.2-.05a1.75 1.75 0 0 1-.45.15 2.795 2.795 0 0 1-.5.15 2.57 2.57 0 0 0-.5.05h-.55a2.57 2.57 0 0 1-.5-.05c-.2-.033-.383-.067-.55-.1a10.11 10.11 0 0 1-.55-.2l-.5-.2-.5-.3a2.317 2.317 0 0 1-.45-.35c-.167-.1-.317-.217-.45-.35s-.25-.267-.35-.4c-.1-.167-.2-.317-.3-.45l-.3-.5c-.067-.133-.133-.283-.2-.45s-.117-.333-.15-.5a2.654 2.654 0 0 1-.4-.25c-.167-.1-.3-.217-.4-.35l-.4-.4-.3-.4a2.01 2.01 0 0 1-.3-.5l-.3-.5a10.11 10.11 0 0 1-.2-.55 2.617 2.617 0 0 1-.15-.55l-.1-.6c-.033-.2-.05-.4-.05-.6s.017-.383.05-.55c0-.2.017-.4.05-.6.033-.167.083-.333.15-.5.033-.2.083-.383.15-.55s.15-.317.25-.45c.067-.167.15-.317.25-.45a2.57 2.57 0 0 1-.05-.5v-.55c0-.167.017-.333.05-.5.033-.2.067-.383.1-.55s.083-.35.15-.55l.2-.5.3-.5.3-.5m10.1 13.25h-.1l-.4.1h-.35a1.66 1.66 0 0 1-.4-.05 1.12 1.12 0 0 1-.35-.05 2.632 2.632 0 0 0-.35-.15l-.3-.2c-.1-.1-.2-.183-.3-.25l-.2-.3c-.067.133-.15.25-.25.35s-.217.183-.35.25c-.1.067-.217.133-.35.2s-.267.117-.4.15-.283.05-.45.05h-.45l-.4-.1c-.167-.067-.317-.133-.45-.2s-.267-.15-.4-.25-.25-.2-.35-.3-.183-.217-.25-.35c-.1-.133-.183-.267-.25-.4s-.117-.267-.15-.4-.05-.283-.05-.45a.82.82 0 0 1 0-.4c0-.167.017-.317.05-.45h-.4l-.4-.1a1.121 1.121 0 0 1-.4-.2 3.302 3.302 0 0 0-.35-.2c-.1-.1-.2-.217-.3-.35-.1-.1-.183-.217-.25-.35l-.2-.4c-.067-.167-.117-.333-.15-.5s-.05-.333-.05-.5a1.032 1.032 0 0 1 0-.45c0-.167.033-.317.1-.45.033-.133.083-.283.15-.45.067-.133.133-.25.2-.35.067-.133.15-.25.25-.35s.217-.183.35-.25a.74.74 0 0 1 .35-.2c-.1-.1-.183-.217-.25-.35s-.117-.267-.15-.4a1.916 1.916 0 0 1-.15-.4v-.45c0-.167.017-.317.05-.45 0-.167.033-.317.1-.45a1.75 1.75 0 0 1 .15-.45c.1-.133.183-.267.25-.4a.57.57 0 0 0 .1-.15l.1-.1s.083-.067.15-.1l.1-.1.1-.1a.57.57 0 0 1 .15-.1c.033-.033.067-.05.1-.05a.57.57 0 0 1 .15-.1c-.033-.033-.067-.083-.1-.15s-.067-.117-.1-.15l-.1-.2c0-.033-.017-.083-.05-.15s-.05-.133-.05-.2a.57.57 0 0 1-.1-.15.448.448 0 0 0-.05-.2.448.448 0 0 0-.05-.2c-.033-.233-.067-.45-.1-.65v-.7l.1-.6.2-.6c.067-.2.15-.383.25-.55s.217-.333.35-.5.267-.3.4-.4c.133-.133.283-.25.45-.35l-.3-.5a2.617 2.617 0 0 1-.15-.55c-.067-.2-.1-.4-.1-.6a1.83 1.83 0 0 1 0-.6 4 4 0 0 1 .05-.65l.2-.6c.067-.2.15-.4.25-.6s.217-.383.35-.55.283-.333.45-.5.333-.3.5-.4c.167-.133.333-.25.5-.35l.6-.2c.167-.067.35-.117.55-.15s.383-.033.55 0c.2 0 .383.017.55.05.2.033.383.083.55.15.067-.167.133-.35.2-.55l.3-.5c.1-.133.217-.283.35-.45.167-.133.317-.25.45-.35.167-.133.35-.25.55-.35.167-.1.35-.183.55-.25s.4-.117.6-.15.417-.05.65-.05c.2 0 .417.017.65.05.2.033.4.083.6.15s.383.15.55.25c.2.1.367.217.5.35.167.1.317.217.45.35.167.167.3.317.4.45.1.167.2.35.3.55l.2.5c.167-.067.35-.117.55-.15.167-.033.35-.067.55-.1.167 0 .35.017.55.05s.383.083.55.15c.2.067.383.133.55.2.2.1.383.217.55.35.167.1.333.233.5.4.167.133.317.3.45.5.133.167.25.35.35.55s.183.4.25.6l.2.6a4 4 0 0 1 .05.65c.033.2.033.4 0 .6 0 .2-.033.4-.1.6-.033.2-.1.383-.2.55-.067.167-.15.333-.25.5.167.1.317.217.45.35.133.1.267.233.4.4s.25.333.35.5.183.35.25.55.117.4.15.6c.067.2.1.417.1.65.033.2.033.417 0 .65a4 4 0 0 1-.05.65c0 .067-.017.133-.05.2s-.05.117-.05.15a.448.448 0 0 0-.05.2l-.1.2c0 .033-.017.083-.05.15s-.067.117-.1.15a.448.448 0 0 0-.05.2.57.57 0 0 0-.1.15c.033.033.083.05.15.05l.1.1a.57.57 0 0 1 .15.1c.033 0 .067.017.1.05s.083.067.15.1a.57.57 0 0 0 .1.15l.1.1a.57.57 0 0 1 .1.15c.1.133.183.267.25.4s.133.283.2.45c.033.133.067.283.1.45a1.872 1.872 0 0 1 0 .85.986.986 0 0 1-.1.45 1.916 1.916 0 0 1-.15.4c-.1.133-.183.25-.25.35.133.067.25.133.35.2.133.067.233.15.3.25.1.1.2.217.3.35.067.1.133.233.2.4.067.133.117.267.15.4s.067.283.1.45v.45c0 .167-.017.333-.05.5s-.083.317-.15.45c-.067.167-.133.317-.2.45s-.15.25-.25.35c-.1.133-.217.25-.35.35-.1.067-.217.133-.35.2a.74.74 0 0 1-.35.2l-.4.1a.82.82 0 0 1-.4 0c.033.133.05.283.05.45a.82.82 0 0 1 0 .4c0 .167-.017.317-.05.45a1.916 1.916 0 0 0-.15.4c-.067.133-.15.267-.25.4-.067.133-.15.25-.25.35-.133.133-.25.233-.35.3-.133.1-.267.183-.4.25s-.283.133-.45.2a9.577 9.577 0 0 1-.45.1h-.4c-.167 0-.317-.017-.45-.05s-.267-.083-.4-.15-.25-.133-.35-.2c-.133-.1-.25-.2-.35-.3s-.183-.2-.25-.3c-.067.1-.15.2-.25.3-.067.1-.15.183-.25.25s-.217.133-.35.2a1.1 1.1 0 0 1-.35.15c-.1.033-.217.05-.35.05a1.66 1.66 0 0 1-.8 0 .883.883 0 0 1-.4-.1h-.05l.4 7.35-2.3 1.5-2.2-1.35.35-7.45"/><path fill="#4B874B" d="M31.6 22.05a1.916 1.916 0 0 0-.15-.4 2.208 2.208 0 0 0-.2-.4c-.1-.133-.2-.25-.3-.35a.762.762 0 0 0-.3-.25 3.302 3.302 0 0 0-.35-.2c.067-.1.15-.217.25-.35.067-.133.117-.267.15-.4a.986.986 0 0 0 .1-.45 1.872 1.872 0 0 0 0-.85 9.577 9.577 0 0 0-.1-.45c-.067-.167-.133-.317-.2-.45s-.15-.267-.25-.4a.57.57 0 0 0-.1-.15l-.1-.1a.57.57 0 0 1-.1-.15c-.067-.033-.117-.067-.15-.1s-.067-.05-.1-.05a.57.57 0 0 0-.15-.1l-.1-.1c-.067 0-.117-.017-.15-.05a.57.57 0 0 1 .1-.15c0-.067.017-.133.05-.2.033-.033.067-.083.1-.15s.05-.117.05-.15l.1-.2c0-.067.017-.133.05-.2 0-.033.017-.083.05-.15s.05-.133.05-.2a4 4 0 0 0 .05-.65c.033-.233.033-.45 0-.65 0-.233-.033-.45-.1-.65-.033-.2-.083-.4-.15-.6s-.15-.383-.25-.55-.217-.333-.35-.5-.267-.3-.4-.4a2.317 2.317 0 0 0-.45-.35c.1-.167.183-.333.25-.5.1-.167.167-.35.2-.55.067-.2.1-.4.1-.6.033-.2.033-.4 0-.6a4 4 0 0 0-.05-.65l-.2-.6c-.067-.2-.15-.4-.25-.6s-.217-.383-.35-.55a2.163 2.163 0 0 0-.45-.5 2.616 2.616 0 0 0-.5-.4 3.118 3.118 0 0 0-.55-.35 10.11 10.11 0 0 0-.55-.2c-.167-.067-.35-.117-.55-.15s-.383-.05-.55-.05c-.2.033-.383.067-.55.1-.2.033-.383.083-.55.15l-.2-.5c-.1-.2-.2-.383-.3-.55a4.368 4.368 0 0 0-.4-.45 2.317 2.317 0 0 0-.45-.35c-.133-.133-.3-.25-.5-.35-.167-.1-.35-.183-.55-.25s-.4-.117-.6-.15a4.662 4.662 0 0 0-.65-.05c-.233 0-.45.017-.65.05s-.4.083-.6.15-.383.15-.55.25c-.2.1-.383.217-.55.35-.133.1-.283.217-.45.35-.133.167-.25.317-.35.45l-.3.5c-.067.2-.133.383-.2.55a2.617 2.617 0 0 0-.55-.15 2.838 2.838 0 0 0-.55-.05c-.167-.033-.35-.033-.55 0s-.383.083-.55.15l-.6.2c-.167.1-.333.217-.5.35-.167.1-.333.233-.5.4s-.317.333-.45.5-.25.35-.35.55-.183.4-.25.6l-.2.6a4 4 0 0 0-.05.65c-.033.2-.033.4 0 .6 0 .2.033.4.1.6.033.2.083.383.15.55l.3.5c-.167.1-.317.217-.45.35-.133.1-.267.233-.4.4s-.25.333-.35.5-.183.35-.25.55l-.2.6-.1.6v.7c.033.2.067.417.1.65.033.067.05.133.05.2.033.067.05.133.05.2a.57.57 0 0 0 .1.15c0 .067.017.133.05.2s.05.117.05.15l.1.2c.033.033.067.083.1.15s.067.117.1.15a.57.57 0 0 0-.15.1c-.033 0-.067.017-.1.05a.57.57 0 0 0-.15.1l-.2.2a.57.57 0 0 0-.15.1l-.1.1a.57.57 0 0 1-.1.15c-.067.133-.15.267-.25.4a1.75 1.75 0 0 0-.15.45.986.986 0 0 0-.1.45c-.033.133-.05.283-.05.45v.45c.033.133.083.267.15.4.033.133.083.267.15.4s.15.25.25.35a.74.74 0 0 0-.35.2c-.133.067-.25.15-.35.25s-.183.217-.25.35c-.067.1-.133.217-.2.35a3.476 3.476 0 0 0-.15.45.986.986 0 0 0-.1.45 1.032 1.032 0 0 0 0 .45c0 .167.017.333.05.5s.083.333.15.5l.2.4c.067.133.15.25.25.35.1.133.2.25.3.35.133.067.25.133.35.2.133.1.267.167.4.2l.4.1h.4c-.033.133-.05.283-.05.45a.82.82 0 0 0 0 .4c0 .167.017.317.05.45s.083.267.15.4.15.267.25.4c.067.133.15.25.25.35s.217.2.35.3.267.183.4.25.283.133.45.2l.4.1h.45c.167 0 .317-.017.45-.05s.267-.083.4-.15.25-.133.35-.2c.133-.067.25-.15.35-.25s.183-.217.25-.35l.2.3c.1.067.2.15.3.25l.3.2c.1.033.217.083.35.15.1.033.217.05.35.05.133.033.267.05.4.05h.35l.4-.1h.099l.053-.056c.013-.013.028-.03.046-.035l.016-.001h-.001.006l.025-.001c.019 0 .039-.001.058.001h.008c.021.002.041.013.06.023.043.024.082.057.128.076.066.028.134.053.204.069.03.007.06.009.091.012l.025-.003.054-.01a.907.907 0 0 0 .208-.075.896.896 0 0 0 .186-.117c.028-.024.057-.049.088-.07.01-.006.021-.015.032-.019h.01l-.003-.001h.019l.016-.001c.018 0 .037-.001.056.001h.011l.026.005c.036.005.069.022.106.033.067.02.131.043.194.072.125.057.246.125.375.173a.88.88 0 0 0 .247.055c.026.001.051.002.077.001l.076-.004c.151-.015.3-.047.448-.083a3.962 3.962 0 0 0 .346-.1c.033-.012.066-.028.1-.035.015-.003.03-.003.045-.003h.08c.025.001.047.01.07.019.035.015.069.029.105.041a.37.37 0 0 0 .055.014l.007.001-.002-.032h.05c.133.067.267.1.4.1a1.66 1.66 0 0 0 .8 0c.133 0 .25-.017.35-.05a1.1 1.1 0 0 0 .35-.15c.133-.067.25-.133.35-.2s.183-.15.25-.25c.1-.1.183-.2.25-.3.067.1.15.2.25.3s.217.2.35.3c.1.067.217.133.35.2s.267.117.4.15.283.05.45.05h.4c.167-.033.317-.067.45-.1.167-.067.317-.133.45-.2s.267-.15.4-.25c.1-.067.217-.167.35-.3.1-.1.183-.217.25-.35.1-.133.183-.267.25-.4.033-.133.083-.267.15-.4.033-.133.05-.283.05-.45a.82.82 0 0 0 0-.4c0-.167-.017-.317-.05-.45a.82.82 0 0 0 .4 0l.4-.1a.74.74 0 0 0 .35-.2c.133-.067.25-.133.35-.2.133-.1.25-.217.35-.35.1-.1.183-.217.25-.35s.133-.283.2-.45c.067-.133.117-.283.15-.45s.05-.333.05-.5v-.45a9.577 9.577 0 0 0-.1-.45z"/><path fill="#614935" d="M20.54 28.884h.013-.03l.014-.001-.024-.001a.123.123 0 0 1-.02-.002c-.042 0-.084.003-.125-.001-.168-.017-.32-.092-.47-.165a2.37 2.37 0 0 0-.23-.103c-.04-.015-.082-.025-.122-.04-.013-.005-.026-.006-.039-.01l-.01.005c-.023.016-.045.035-.067.054a.993.993 0 0 1-.416.206.69.69 0 0 1-.144.015l-.016-.001h-.044l.01-.001h.004c-.043 0-.087.001-.129-.005a.768.768 0 0 1-.141-.036c-.04-.014-.084-.028-.121-.048-.031-.016-.059-.036-.088-.055l-.027-.015c-.014.012-.026.025-.038.038-.026.028-.053.061-.088.079-.003.002-.011 0-.015 0h-.03L17.8 36.2l2.2 1.35 2.3-1.5-.398-7.313h-.041a.368.368 0 0 1-.066-.006.726.726 0 0 1-.143-.047l-.04-.015-.13.044a4.1 4.1 0 0 1-.545.137c-.09.016-.181.029-.272.033-.032.002-.064-.001-.096-.001l-.033.002h.004z"/></g></svg>