<svg xmlns="http://www.w3.org/2000/svg" width="40" height="40"><g fill-rule="evenodd" clip-rule="evenodd"><path fill="#2D2D2D" d="m23.7 19.5-.15-.15a3.755 3.755 0 0 1-.35-.4c-.1-.167-.2-.317-.3-.45s-.167-.267-.2-.4a3.476 3.476 0 0 1-.15-.45l-.1-.4c0-.1.017-.217.05-.35l.1-.3.2-.3c-.1 0-.2-.033-.3-.1-.067-.033-.15-.1-.25-.2a1.111 1.111 0 0 1-.15-.35c-.067-.133-.117-.283-.15-.45s-.067-.35-.1-.55v-.6c0-.2.017-.4.05-.6 0-.233.033-.45.1-.65.033-.2.083-.417.15-.65l.2-.6.3-.5c.067-.167.15-.333.25-.5.1-.133.217-.25.35-.35.1-.133.2-.233.3-.3s.217-.133.35-.2c.1-.033.2-.05.3-.05l-.1-.3c0-.1.017-.217.05-.35a1.75 1.75 0 0 1 .15-.45c.1-.167.2-.317.3-.45l.3-.5c.133-.167.283-.317.45-.45a5.97 5.97 0 0 1 .45-.5 7.86 7.86 0 0 1 .55-.4c.167-.133.35-.25.55-.35l.6-.3c.2-.067.383-.133.55-.2.2-.067.383-.117.55-.15s.333-.05.5-.05.3.017.4.05a1.1 1.1 0 0 1 .35.15c.067.033.133.1.2.2.033-.1.1-.2.2-.3a.755.755 0 0 1 .3-.25.74.74 0 0 1 .35-.2 2.85 2.85 0 0 1 .5-.15c.167-.067.333-.1.5-.1.167-.033.35-.05.55-.05.167 0 .35.017.55.05s.383.067.55.1c.2.067.383.133.55.2s.333.167.5.3c.167.1.317.2.45.3l.35.35c.1.133.183.267.25.4.1.133.167.267.2.4s.05.25.05.35c0 .133-.033.25-.1.35.1-.033.217-.05.35-.05.1 0 .217.017.35.05.1.033.217.083.35.15.1.067.217.15.35.25l.3.4c.133.133.233.267.3.4.1.167.183.35.25.55.067.167.133.35.2.55l.1.6a3.367 3.367 0 0 1 0 1.15c0 .2-.017.383-.05.55s-.083.317-.15.45a2.22 2.22 0 0 1-.2.4c-.067.133-.15.25-.25.35a.628.628 0 0 1-.25.15l.2.2c.033.1.067.217.1.35v.4c-.033.133-.067.283-.1.45s-.083.35-.15.55c-.067.167-.15.35-.25.55-.067.2-.15.4-.25.6a7.86 7.86 0 0 1-.4.55c-.1.167-.183.283-.25.35l-.15.2c-.1.1-.217.233-.35.4a.628.628 0 0 1 .25-.15c.1-.067.2-.1.3-.1a.622.622 0 0 1 .35 0h.4c.133.033.267.083.4.15.167.033.317.083.45.15l.4.2c.133.1.25.2.35.3.133.1.25.2.35.3.1.133.183.267.25.4.1.1.167.217.2.35.067.133.117.267.15.4s.05.267.05.4a.622.622 0 0 1 0 .35c0 .1-.033.2-.1.3a.628.628 0 0 1-.15.25c.067.033.133.083.2.15s.133.15.2.25c.033.1.05.217.05.35.033.133.05.267.05.4s-.017.283-.05.45a.992.992 0 0 1-.1.45c-.033.167-.083.333-.15.5s-.15.317-.25.45c-.1.167-.2.317-.3.45l-.3.4c-.1.133-.217.25-.35.35-.1.1-.217.2-.35.3a3.27 3.27 0 0 0-.35.2c-.133.067-.25.117-.35.15s-.2.05-.3.05-.2-.017-.3-.05a1.94 1.94 0 0 1-.1.25c-.033.1-.083.2-.15.3l-.25.25c-.1.067-.2.15-.3.25l-.4.2a1.954 1.954 0 0 0-.4.15 2.57 2.57 0 0 1-.5.05 2.57 2.57 0 0 1-.5.05 12.443 12.443 0 0 1-1.1-.15l.3.3c.1.1.2.217.3.35.133.133.267.283.4.45.167.167.317.35.45.55l.4.6c.167.267.3.517.4.75.133.267.25.533.35.8.1.3.1.633 0 1-.1.333-.3.683-.6 1.05-.267.3-.6.617-1 .95-.4.3-.833.567-1.3.8s-.933.433-1.4.6-.917.267-1.35.3-.817-.017-1.15-.15c-.367-.1-.633-.283-.8-.55-.867-1.267-1.7-2.367-2.5-3.3s-1.567-1.733-2.3-2.4c-.8-.633-1.567-1.133-2.3-1.5-.733-.333-1.467-.533-2.2-.6s-1.483.017-2.25.25c-.733.233-1.483.617-2.25 1.15-.767.5-1.567 1.15-2.4 1.95-.8.8-1.65 1.767-2.55 2.9-.267.333-.583.6-.95.8a3.83 3.83 0 0 1-1.2.5c-.4.067-.817.1-1.25.1s-.85-.067-1.25-.2c-.367-.1-.7-.25-1-.45a2.934 2.934 0 0 1-.7-.75 1.589 1.589 0 0 1-.2-.95c.033-.367.167-.75.4-1.15l.4-.7.4-.6c.1-.167.217-.333.35-.5.1-.2.217-.367.35-.5a4.55 4.55 0 0 0 .35-.5c.133-.167.267-.317.4-.45l.4-.5c.133-.133.283-.3.45-.5a.384.384 0 0 1-.15.05c-.067 0-.2.017-.4.05a1.66 1.66 0 0 1-.4-.05c-.167 0-.317-.017-.45-.05s-.25-.083-.35-.15l-.4-.2a3.27 3.27 0 0 0-.35-.2c-.1-.067-.2-.15-.3-.25-.1-.067-.2-.15-.3-.25A.893.893 0 0 0 3 26a4.804 4.804 0 0 1-.35-.1 4.804 4.804 0 0 1-.35-.1l-.4-.2a1.3 1.3 0 0 1-.35-.2c-.1-.067-.217-.15-.35-.25-.1-.067-.2-.15-.3-.25s-.183-.2-.25-.3c-.1-.133-.183-.25-.25-.35l-.2-.4a3.46 3.46 0 0 1-.1-.4l-.1-.4v-.4s.017-.267.05-.4c0-.133.017-.25.05-.35l.1-.3.2-.3a4.804 4.804 0 0 1-.1-.35v-.75l.1-.4.1-.4a3.27 3.27 0 0 1 .2-.35c.067-.133.133-.233.2-.3.1-.133.2-.233.3-.3l.3-.2a1.1 1.1 0 0 1 .35-.15c.1-.033.217-.067.35-.1s.267-.05.4-.05h.8c.133.033.25.067.35.1.133.033.25.067.35.1.167-.067.267-.1.3-.1-.1-.1-.167-.15-.2-.15-.033-.033-.083-.067-.15-.1s-.117-.083-.15-.15a.582.582 0 0 0-.15-.1l-.15-.15a.582.582 0 0 1-.1-.15l-.15-.15a.628.628 0 0 1-.15-.25c-.1-.133-.2-.283-.3-.45l-.2-.5c-.067-.133-.117-.283-.15-.45s-.05-.317-.05-.45a2.318 2.318 0 0 1-.05-.45v-.45l.1-.4c.033-.133.067-.25.1-.35-.1-.1-.183-.217-.25-.35a2.627 2.627 0 0 1-.25-.4 5.96 5.96 0 0 0-.2-.45 2.795 2.795 0 0 1-.15-.5l-.1-.5a2.57 2.57 0 0 1-.05-.5v-.45l.1-.5c.033-.167.083-.317.15-.45s.133-.283.2-.45c.067-.133.15-.25.25-.35.1-.133.2-.25.3-.35l.3-.3a3.27 3.27 0 0 0 .35-.2c.133-.067.25-.117.35-.15l.4-.1c0-.133.017-.267.05-.4.033-.1.083-.217.15-.35a.74.74 0 0 1 .2-.35c.067-.133.15-.25.25-.35l.3-.3c.1-.1.217-.183.35-.25.133-.1.267-.167.4-.2l.4-.2c.133-.033.283-.067.45-.1h.5c.167 0 .333.017.5.05.133 0 .283.033.45.1.167.033.317.067.45.1.167.067.317.133.45.2s.267.15.4.25c.1.067.217.15.35.25.1-.033.217-.083.35-.15a1.66 1.66 0 0 1 .4-.05c.133-.033.283-.05.45-.05.133 0 .283.017.45.05.167 0 .333.017.5.05s.333.083.5.15l.5.2c.133.1.283.2.45.3.133.1.267.217.4.35.133.1.267.217.4.35s.25.267.35.4c.1.167.2.317.3.45.1.167.183.317.25.45.067.167.133.317.2.45.033.133.067.283.1.45l.1.4c.133.067.25.15.35.25.133.067.25.167.35.3.133.1.25.217.35.35s.2.283.3.45c.1.133.2.283.3.45s.183.333.25.5l.2.5c.067.167.117.333.15.5s.05.333.05.5c.033.2.05.383.05.55a2.57 2.57 0 0 0-.05.5 9.768 9.768 0 0 0-.1.45l-.2.4a1.954 1.954 0 0 1-.15.4c-.1.1-.183.2-.25.3l-.25.25.1.4c.033.167.05.317.05.45.033.133.033.283 0 .45 0 .133-.017.283-.05.45 0 .133-.033.283-.1.45a1.916 1.916 0 0 1-.15.4l-.2.4c-.1.133-.2.25-.3.35l-.15.15c.067.167.15.433.25.8.333-.1.65-.167.95-.2l.9-.2c.3-.033.6-.05.9-.05.3-.033.583-.05.85-.05.3 0 .583.017.85.05l.9.1.9.2c.267.067.567.15.9.25l.15-.6c.033-.033.1-.217.2-.55m2.05-.3c-.033 0-.067-.017-.1-.05a.384.384 0 0 1-.15-.05c-.033-.033-.067-.05-.1-.05l-.1-.1c-.033 0-.067-.017-.1-.05l-.1-.1c-.033-.033-.067-.05-.1-.05l-.1-.1c-.1-.1-.183-.217-.25-.35l-.2-.4-.1-.4a1.859 1.859 0 0 1 0-.85c0-.133.033-.25.1-.35.033-.133.083-.267.15-.4.067-.1.15-.2.25-.3-.1 0-.217-.017-.35-.05a.628.628 0 0 1-.25-.15.902.902 0 0 1-.25-.25l-.2-.3-.1-.4-.1-.4c0-.167.017-.333.05-.5 0-.167.017-.333.05-.5s.083-.333.15-.5l.2-.5c.067-.133.15-.267.25-.4l.3-.4.3-.3a1.3 1.3 0 0 1 .35-.2c.133-.067.25-.117.35-.15.133-.033.25-.05.35-.05a4.804 4.804 0 0 1-.1-.35.622.622 0 0 1 0-.35c0-.133.017-.267.05-.4s.083-.267.15-.4.15-.267.25-.4a.91.91 0 0 1 .3-.4c.1-.133.217-.267.35-.4s.267-.25.4-.35.283-.2.45-.3a5.96 5.96 0 0 1 .45-.2c.133-.033.283-.067.45-.1a1.66 1.66 0 0 1 .4-.05h.35a1.1 1.1 0 0 1 .35.15c.1.033.183.083.25.15l.2.3a3.27 3.27 0 0 1 .2-.35.755.755 0 0 1 .25-.3c.1-.1.217-.2.35-.3.1-.067.217-.133.35-.2l.4-.1c.167-.033.317-.067.45-.1h.45c.133.033.283.067.45.1.133.033.267.083.4.15s.25.133.35.2l.3.3.2.3c.067.1.117.217.15.35.033.1.05.217.05.35v.4c-.033.1-.083.217-.15.35a.8.8 0 0 1 .35-.1.622.622 0 0 1 .35 0c.133 0 .25.017.35.05s.2.083.3.15.2.15.3.25.183.2.25.3l.2.4c.033.133.067.283.1.45s.05.333.05.5c.033.133.033.283 0 .45 0 .167-.017.317-.05.45a1.784 1.784 0 0 1-.15.45c-.033.133-.1.267-.2.4a3.27 3.27 0 0 1-.2.35l-.3.3a3.27 3.27 0 0 1-.35.2c.1.067.183.133.25.2.067.1.117.2.15.3.067.1.1.217.1.35a.813.813 0 0 1 0 .4c0 .133-.017.267-.05.4l-.1.5a5.96 5.96 0 0 0-.2.45l-.3.5c-.1.167-.2.317-.3.45-.133.133-.267.25-.4.35-.1.1-.217.2-.35.3s-.267.183-.4.25-.25.117-.35.15a1.66 1.66 0 0 1-.4.05h-.35c-.1-.033-.2-.083-.3-.15 0 .133-.017.267-.05.4-.033.1-.083.217-.15.35a.742.742 0 0 1-.2.35c-.1.133-.2.25-.3.35s-.217.2-.35.3-.267.183-.4.25c-.133.1-.283.183-.45.25a3.545 3.545 0 0 0-.45.15c-.1 0-.183.017-.25.05h-.7s-.133-.017-.2-.05a.444.444 0 0 1-.2-.05c-.067 0-.117-.017-.15-.05l-.2-.1a2.85 2.85 0 0 0-.15.5l-.2.5a2.85 2.85 0 0 1-.15.5c-.033.167-.083.35-.15.55a2.85 2.85 0 0 1-.15.5c-.033.2-.067.383-.1.55s-.083.35-.15.55c-.033.167-.067.35-.1.55.067.033.15.083.25.15.067.067.15.117.25.15l.2.2c.1.033.183.083.25.15.1.067.183.117.25.15.067.067.15.133.25.2l.2.2c.1.067.183.133.25.2a.783.783 0 0 0 .15-.2l.4-.4c.067-.033.133-.083.2-.15s.133-.117.2-.15a.628.628 0 0 1 .25-.15.783.783 0 0 1 .2-.15c.1-.067.183-.117.25-.15 0-.033-.017-.067-.05-.1V24c-.033-.033-.05-.067-.05-.1v-.1c-.033 0-.05-.017-.05-.05v-.1c-.033-.033-.05-.067-.05-.1v-.45s.017-.25.05-.35l.1-.3a.634.634 0 0 1 .15-.3c.033-.1.083-.2.15-.3.067-.067.15-.133.25-.2.067-.067.15-.133.25-.2.1-.033.183-.067.25-.1a.444.444 0 0 1-.05-.2c-.033-.1-.033-.183 0-.25 0-.1.017-.2.05-.3s.083-.183.15-.25l.2-.3c.1-.1.2-.183.3-.25.1-.1.2-.183.3-.25.1-.1.217-.183.35-.25l.4-.2c.133-.033.25-.067.35-.1a.888.888 0 0 1 .4-.1c.1-.033.217-.05.35-.05.1 0 .2.017.3.05.1 0 .183.017.25.05.1.033.183.083.25.15a.783.783 0 0 0 .15.2c.067-.067.15-.133.25-.2a1.96 1.96 0 0 1 .25-.1l.3-.1h.3c.133 0 .25.017.35.05.1 0 .2.017.3.05.133.067.25.117.35.15l.3.2c.1.067.183.15.25.25.067.067.117.15.15.25.067.1.117.2.15.3.033.067.05.15.05.25.033.1.033.2 0 .3 0 .1-.017.183-.05.25a1.94 1.94 0 0 1-.1.25c-.067.1-.133.183-.2.25.067.033.15.067.25.1a.783.783 0 0 0 .15.2l.1.2c.033.1.05.2.05.3v.3c0 .1-.017.2-.05.3a1.1 1.1 0 0 1-.15.35c-.033.133-.083.25-.15.35s-.15.217-.25.35c-.067.1-.15.2-.25.3-.1.067-.2.15-.3.25l-.3.2c-.1.067-.2.117-.3.15s-.2.05-.3.05c-.1.033-.2.05-.3.05s-.183-.017-.25-.05c-.033.1-.067.183-.1.25s-.1.15-.2.25l-.2.2-.3.2c-.1.033-.217.083-.35.15-.1.033-.217.067-.35.1s-.267.05-.4.05a1.66 1.66 0 0 1-.4.05c-.1 0-.2-.017-.3-.05-.1 0-.2-.017-.3-.05-.1 0-.2-.017-.3-.05a.783.783 0 0 1-.2-.15l-.2-.1a.783.783 0 0 1-.15-.2c-.067-.033-.117-.083-.15-.15s-.05-.133-.05-.2a.628.628 0 0 1-.25.15l-.2.2c-.1.067-.183.133-.25.2-.067.033-.133.083-.2.15s-.15.133-.25.2c-.067.067-.133.15-.2.25l-.4.4c.167.167.317.333.45.5.167.167.317.333.45.5.167.167.317.333.45.5.133.2.283.383.45.55l.4.6c.133.167.267.35.4.55s.267.417.4.65l.4.6c.1.167.133.367.1.6-.067.2-.183.4-.35.6-.133.2-.333.4-.6.6-.233.167-.5.333-.8.5-.3.133-.6.25-.9.35-.333.1-.633.167-.9.2-.3 0-.55-.033-.75-.1-.233-.067-.4-.183-.5-.35-1.067-1.5-2.117-2.783-3.15-3.85-.967-1.033-1.95-1.867-2.95-2.5-.9-.6-1.817-1.017-2.75-1.25a7.092 7.092 0 0 0-2.65-.2c-.8.067-1.617.283-2.45.65-.767.367-1.55.833-2.35 1.4a23.104 23.104 0 0 0-2.2 1.95c-.7.7-1.417 1.5-2.15 2.4-.1.133-.25.25-.45.35s-.417.2-.65.3c-.233.067-.467.1-.7.1a2.822 2.822 0 0 1-.75 0c-.233 0-.433-.05-.6-.15a.91.91 0 0 1-.4-.3 1.05 1.05 0 0 1-.15-.55c.033-.2.133-.45.3-.75.133-.233.283-.467.45-.7.133-.233.283-.467.45-.7.133-.2.283-.417.45-.65.133-.2.283-.4.45-.6l.5-.6.5-.6c.167-.167.333-.35.5-.55l.5-.5-.45-.45c-.067-.067-.133-.117-.2-.15s-.117-.083-.15-.15l-.2-.1a.321.321 0 0 0-.15-.15l-.2-.1-.1.2a.568.568 0 0 1-.1.15.327.327 0 0 1-.15.15c-.067.067-.133.117-.2.15s-.15.067-.25.1a1.94 1.94 0 0 1-.25.1.557.557 0 0 1-.25.05c-.1.033-.2.05-.3.05a1.66 1.66 0 0 1-.4-.05c-.1 0-.217-.017-.35-.05a4.804 4.804 0 0 0-.35-.1c-.1-.067-.2-.117-.3-.15l-.3-.2c-.1-.067-.183-.133-.25-.2s-.133-.15-.2-.25a.628.628 0 0 1-.15-.25h-.3c-.1 0-.2-.017-.3-.05l-.3-.1c-.1-.033-.2-.083-.3-.15l-.3-.2-.3-.2c-.067-.1-.15-.2-.25-.3l-.2-.3a1.25 1.25 0 0 1-.15-.3.806.806 0 0 1-.1-.35.944.944 0 0 1-.05-.3.463.463 0 0 1 0-.3c0-.1.017-.183.05-.25 0-.1.033-.183.1-.25.033-.067.083-.133.15-.2s.133-.117.2-.15a.628.628 0 0 1-.15-.25c-.067-.1-.1-.2-.1-.3a.562.562 0 0 1-.05-.25v-.3c0-.1.017-.183.05-.25.033-.1.083-.2.15-.3a.783.783 0 0 1 .15-.2c.067-.1.133-.183.2-.25.1-.067.183-.133.25-.2l.3-.1c.133-.033.25-.067.35-.1h.65c.1 0 .2.017.3.05s.2.083.3.15c.1.033.183.083.25.15a.783.783 0 0 1 .2-.15c.067-.067.15-.117.25-.15s.2-.05.3-.05c.1-.033.2-.05.3-.05s.217.017.35.05c.1 0 .217.017.35.05.1.033.217.083.35.15.1.033.217.083.35.15.1.067.217.133.35.2.1.067.183.15.25.25.1.067.183.15.25.25l.2.3c.067.067.117.15.15.25l.1.3v.5c.1.033.183.083.25.15.1.067.183.133.25.2.1.067.183.15.25.25.067.067.117.15.15.25.067.1.117.2.15.3l.1.3c.033.1.05.217.05.35v.4s-.017.067-.05.1v.1c0 .033-.017.05-.05.05v.1c-.033.033-.05.067-.05.1s-.017.05-.05.05c0 .033-.017.067-.05.1l.2.1a.568.568 0 0 1 .15.1l.2.1a.568.568 0 0 1 .15.1.783.783 0 0 0 .2.15.582.582 0 0 0 .15.1l.25.25c.1-.067.183-.133.25-.2l.3-.2c.1-.067.183-.133.25-.2.1-.067.2-.117.3-.15.1-.067.183-.133.25-.2.1-.067.2-.117.3-.15.1-.067.183-.133.25-.2.1-.033.2-.083.3-.15l-.1-.5a1.767 1.767 0 0 0-.15-.45l-.1-.5a1.767 1.767 0 0 0-.15-.45 2.85 2.85 0 0 0-.15-.5 9.768 9.768 0 0 1-.1-.45 1.784 1.784 0 0 1-.15-.45 5.96 5.96 0 0 1-.2-.45.582.582 0 0 0-.15.1.444.444 0 0 1-.2.05l-.2.1h-.2a.448.448 0 0 1-.2.05h-.2a.557.557 0 0 1-.25-.05H9.7a1.75 1.75 0 0 1-.45-.15l-.4-.2c-.133-.067-.267-.15-.4-.25s-.25-.2-.35-.3c-.1-.133-.2-.25-.3-.35a3.27 3.27 0 0 0-.2-.35l-.2-.4a1.644 1.644 0 0 1-.05-.4c-.1.033-.217.067-.35.1h-.35s-.25-.033-.35-.1a1.954 1.954 0 0 1-.4-.15c-.133-.033-.267-.1-.4-.2s-.25-.2-.35-.3c-.133-.1-.25-.217-.35-.35l-.3-.4a1.95 1.95 0 0 1-.25-.45 1.702 1.702 0 0 1-.2-.45 3.545 3.545 0 0 1-.15-.45c0-.167-.017-.317-.05-.45 0-.133.017-.267.05-.4 0-.133.017-.25.05-.35l.15-.3c.067-.1.15-.183.25-.25-.1-.067-.217-.15-.35-.25-.1-.1-.183-.2-.25-.3-.1-.1-.183-.217-.25-.35a1.126 1.126 0 0 1-.2-.4 1.785 1.785 0 0 1-.15-.45A1.859 1.859 0 0 1 3.1 11a1.859 1.859 0 0 1-.05-.45c.033-.167.067-.317.1-.45l.1-.4.2-.4c.067-.1.15-.2.25-.3.067-.067.15-.133.25-.2s.217-.133.35-.2c.1-.033.2-.05.3-.05a.622.622 0 0 1 .35 0c.133 0 .267.017.4.05l-.1-.4v-.35c0-.133.017-.267.05-.4.067-.1.117-.2.15-.3a3.27 3.27 0 0 1 .2-.35c.1-.067.2-.15.3-.25.1-.067.217-.133.35-.2.1-.067.217-.117.35-.15s.283-.067.45-.1h.4l.4.1c.167.033.317.083.45.15.1.033.217.1.35.2.133.067.25.15.35.25.1.067.2.167.3.3.067.1.133.217.2.35.067-.1.15-.183.25-.25.067-.067.15-.133.25-.2.1-.033.217-.067.35-.1h.35c.133 0 .267.017.4.05.167 0 .317.033.45.1l.4.2c.167.067.317.15.45.25s.267.217.4.35l.35.35c.1.133.183.267.25.4.1.133.183.267.25.4.033.133.083.267.15.4.033.133.05.267.05.4a.813.813 0 0 1 0 .4c0 .1-.017.217-.05.35.133 0 .25.033.35.1a1.1 1.1 0 0 1 .35.15c.133.067.25.15.35.25.1.067.2.167.3.3.1.1.2.217.3.35s.183.267.25.4c.067.167.133.317.2.45.067.167.117.333.15.5s.05.333.05.5c.033.133.033.283 0 .45 0 .133-.017.267-.05.4s-.083.25-.15.35a.634.634 0 0 1-.15.3.893.893 0 0 1-.25.25c-.1.1-.2.167-.3.2l-.3.1c.1.1.183.217.25.35s.117.25.15.35l.1.4v.45c0 .133-.017.267-.05.4a.888.888 0 0 1-.1.4c-.033.1-.083.217-.15.35-.1.133-.183.25-.25.35l-.1.1s-.067.05-.1.05l-.1.1c-.033.033-.067.05-.1.05l-.1.1c-.033 0-.067.017-.1.05a.384.384 0 0 0-.15.05c-.033 0-.067.017-.1.05.067.133.117.267.15.4l.2.4.1.4c.067.133.117.267.15.4s.083.267.15.4l.1.4.1.4c.033.133.05.283.05.45a15.508 15.508 0 0 1 2.4-.6l1.2-.1a7.9 7.9 0 0 1 1.25 0c.4 0 .8.017 1.2.05l1.2.2c.4.1.8.217 1.2.35.4.1.8.233 1.2.4a2.35 2.35 0 0 0 .05-.45c.033-.167.067-.317.1-.45.033-.167.067-.317.1-.45.067-.167.117-.317.15-.45a1.75 1.75 0 0 1 .15-.45c.033-.133.083-.283.15-.45.033-.133.083-.267.15-.4.067-.167.133-.317.2-.45"/><path fill="#4B874B" d="M28.346 19.983h.029c.01-.027.014-.055.025-.083l.2.1c.033.033.083.05.15.05.067.033.133.05.2.05.067.033.133.05.2.05h.7a.556.556 0 0 1 .25-.05c.167-.067.317-.117.45-.15.167-.067.317-.15.45-.25.133-.067.267-.15.4-.25s.25-.2.35-.3c.1-.1.2-.217.3-.35a.74.74 0 0 0 .2-.35c.067-.133.117-.25.15-.35a1.66 1.66 0 0 0 .05-.4c.1.067.2.117.3.15h.35c.133 0 .267-.017.4-.05a2.744 2.744 0 0 0 .75-.4c.133-.1.25-.2.35-.3.133-.1.267-.217.4-.35.1-.133.2-.283.3-.45l.3-.5c.067-.167.133-.317.2-.45l.1-.5a1.66 1.66 0 0 0 .05-.4.813.813 0 0 0 0-.4.616.616 0 0 0-.1-.35c-.033-.1-.083-.2-.15-.3a1.635 1.635 0 0 0-.25-.2 3.27 3.27 0 0 0 .35-.2l.3-.3c.067-.1.133-.217.2-.35.1-.133.167-.267.2-.4a1.75 1.75 0 0 0 .15-.45 1.86 1.86 0 0 0 .05-.45 1.022 1.022 0 0 0 0-.45 2.57 2.57 0 0 0-.05-.5 9.844 9.844 0 0 0-.1-.45l-.2-.4c-.067-.1-.15-.2-.25-.3-.1-.1-.2-.183-.3-.25-.1-.067-.2-.117-.3-.15s-.217-.05-.35-.05a.622.622 0 0 0-.35 0 .8.8 0 0 0-.35.1c.067-.133.117-.25.15-.35v-.4c0-.133-.017-.25-.05-.35a1.11 1.11 0 0 0-.15-.35l-.2-.3-.3-.3a3.28 3.28 0 0 0-.35-.2 1.954 1.954 0 0 0-.4-.15 9.672 9.672 0 0 1-.45-.1h-.45a9.692 9.692 0 0 1-.45.1l-.4.1c-.133.067-.25.133-.35.2-.133.1-.25.2-.35.3a.754.754 0 0 0-.25.3 3.27 3.27 0 0 0-.2.35l-.2-.3A.627.627 0 0 0 29.8 7a1.113 1.113 0 0 0-.35-.15h-.35a1.64 1.64 0 0 0-.4.05 9.737 9.737 0 0 0-.45.1 5.961 5.961 0 0 0-.45.2c-.167.1-.317.2-.45.3-.133.1-.267.217-.4.35-.133.133-.25.267-.35.4a.91.91 0 0 0-.3.4c-.1.133-.183.267-.25.4a1.954 1.954 0 0 0-.15.4 1.64 1.64 0 0 0-.05.4.622.622 0 0 0 0 .35c.033.133.067.25.1.35-.1 0-.217.017-.35.05-.1.033-.217.083-.35.15a1.3 1.3 0 0 0-.35.2l-.3.3-.3.4c-.1.133-.183.267-.25.4l-.2.5a2.852 2.852 0 0 0-.15.5 2.57 2.57 0 0 0-.05.5 2.54 2.54 0 0 0-.05.5l.1.4.1.4.2.3c.067.1.15.183.25.25.067.067.15.117.25.15.133.033.25.05.35.05-.1.1-.183.2-.25.3a1.954 1.954 0 0 0-.15.4c-.067.1-.1.217-.1.35a1.859 1.859 0 0 0 0 .85l.1.4.2.4c.067.133.15.25.25.35l.1.1c.033 0 .067.017.1.05l.1.1c.033.033.067.05.1.05l.1.1c.033 0 .067.017.1.05.067.033.117.05.15.05.012.012.024.01.036.018h.062l.053.04c.144.107.296.2.454.284a4.183 4.183 0 0 0 1.03.382c.177.041.357.072.537.09.034.003.068.003.101.005.128.006.256.014.385.014h.038zm-15.917-.143.336-.07c.11-.024.22-.046.329-.075.106-.029.212-.059.315-.098.087-.033.175-.07.25-.126.07-.052.132-.113.198-.168a.481.481 0 0 1 .19-.114c.008-.002.017 0 .025 0 .026-.02.052-.039.078-.039a.383.383 0 0 1 .15-.05c.033-.033.067-.05.1-.05l.1-.1c.033 0 .067-.017.1-.05l.1-.1c.033 0 .067-.017.1-.05l.1-.1c.067-.1.15-.217.25-.35.067-.133.117-.25.15-.35a.888.888 0 0 0 .1-.4 1.66 1.66 0 0 0 .05-.4v-.45l-.1-.4a2.744 2.744 0 0 0-.15-.35 1.335 1.335 0 0 0-.25-.35l.3-.1c.1-.033.2-.1.3-.2.1-.067.183-.15.25-.25a.634.634 0 0 0 .15-.3 1.1 1.1 0 0 0 .15-.35 1.66 1.66 0 0 0 .05-.4 1.022 1.022 0 0 0 0-.45 2.54 2.54 0 0 0-.05-.5 2.853 2.853 0 0 0-.15-.5 5.952 5.952 0 0 1-.2-.45 2.627 2.627 0 0 0-.25-.4c-.1-.133-.2-.25-.3-.35-.1-.133-.2-.233-.3-.3-.1-.1-.217-.183-.35-.25a1.111 1.111 0 0 0-.35-.15.616.616 0 0 0-.35-.1c.033-.133.05-.25.05-.35a.813.813 0 0 0 0-.4 1.64 1.64 0 0 0-.05-.4 1.956 1.956 0 0 1-.15-.4 2.627 2.627 0 0 0-.25-.4 2.627 2.627 0 0 0-.25-.4l-.35-.35a3.756 3.756 0 0 0-.4-.35 1.957 1.957 0 0 0-.45-.25l-.4-.2a.992.992 0 0 0-.45-.1 1.644 1.644 0 0 0-.4-.05h-.35c-.133.033-.25.067-.35.1-.1.067-.183.133-.25.2a.892.892 0 0 0-.25.25 3.26 3.26 0 0 0-.2-.35c-.1-.133-.2-.233-.3-.3-.1-.1-.217-.183-.35-.25-.133-.1-.25-.167-.35-.2a1.785 1.785 0 0 0-.45-.15l-.4-.1h-.4a9.844 9.844 0 0 0-.45.1 1.1 1.1 0 0 0-.35.15 3.28 3.28 0 0 0-.35.2c-.1.1-.2.183-.3.25a3.26 3.26 0 0 0-.2.35c-.033.1-.083.2-.15.3a1.66 1.66 0 0 0-.05.4v.35l.1.4a1.644 1.644 0 0 0-.4-.05.622.622 0 0 0-.35 0c-.1 0-.2.017-.3.05a3.28 3.28 0 0 0-.35.2c-.1.067-.183.133-.25.2-.1.1-.183.2-.25.3l-.2.4-.1.4a9.71 9.71 0 0 0-.1.45c0 .167.017.317.05.45 0 .167.017.317.05.45.033.167.083.317.15.45.033.133.1.267.2.4.067.133.15.25.25.35.067.1.15.2.25.3.133.1.25.183.35.25a.893.893 0 0 0-.25.25l-.15.3c-.033.1-.05.217-.05.35a1.66 1.66 0 0 0-.05.4c.033.133.05.283.05.45.033.133.083.283.15.45.033.133.1.283.2.45.067.167.15.317.25.45l.3.4c.1.133.217.25.35.35.1.1.217.2.35.3.133.1.267.167.4.2.133.067.267.117.4.15.1.067.217.1.35.1H7c.133-.033.25-.067.35-.1 0 .133.017.267.05.4l.2.4c.067.1.133.217.2.35.1.1.2.217.3.35.1.1.217.2.35.3.133.1.267.183.4.25l.4.2c.133.067.283.117.45.15h.25c.067.033.15.05.25.05h.2a.443.443 0 0 0 .2-.05h.2l.191-.096h-.069.008c.023.001.045-.004.068-.003L11 20a.444.444 0 0 0 .2-.05.583.583 0 0 1 .15-.1c.02.048.039.085.058.13.02 0 .042 0 .063-.002l.27-.03c.231-.024.46-.063.688-.108zM5.2 26c.133.033.25.05.35.05.133.033.267.05.4.05.1 0 .2-.017.3-.05.1 0 .183-.017.25-.05.1-.033.183-.067.25-.1.1-.033.183-.067.25-.1s.133-.083.2-.15a.327.327 0 0 0 .15-.15.58.58 0 0 0 .1-.15l.1-.2.12.06.003-.002c.1-.054.199-.107.297-.164a4.88 4.88 0 0 0 .307-.19c.1-.067.197-.139.287-.219.087-.077.168-.162.237-.255.067-.091.122-.191.158-.299h.025c.004-.01.016-.02.016-.031.033 0 .05-.017.05-.05s.017-.067.05-.1v-.1c.033 0 .05-.017.05-.05v-.1c.033-.033.05-.067.05-.1v-.4c0-.133-.017-.25-.05-.35l-.1-.3a1.25 1.25 0 0 0-.15-.3.628.628 0 0 0-.15-.25.892.892 0 0 0-.25-.25 1.64 1.64 0 0 0-.25-.2.628.628 0 0 0-.25-.15v-.5l-.1-.3a.628.628 0 0 0-.15-.25l-.2-.3a.896.896 0 0 0-.25-.25.892.892 0 0 0-.25-.25 3.27 3.27 0 0 1-.35-.2 2.743 2.743 0 0 0-.35-.15A2.735 2.735 0 0 0 6 19a1.47 1.47 0 0 0-.35-.05 1.47 1.47 0 0 0-.35-.05c-.1 0-.2.017-.3.05-.1 0-.2.017-.3.05a.627.627 0 0 0-.25.15.784.784 0 0 0-.2.15.628.628 0 0 0-.25-.15 1.26 1.26 0 0 0-.3-.15.944.944 0 0 0-.3-.05h-.65c-.1.033-.217.067-.35.1l-.3.1c-.067.067-.15.133-.25.2-.067.067-.133.15-.2.25a.783.783 0 0 0-.15.2c-.067.1-.117.2-.15.3a.557.557 0 0 0-.05.25v.3c0 .1.017.183.05.25 0 .1.033.2.1.3.033.1.083.183.15.25a.783.783 0 0 0-.2.15.783.783 0 0 0-.15.2.34.34 0 0 0-.1.25.556.556 0 0 0-.05.25c-.033.1-.033.2 0 .3 0 .1.017.2.05.3a.8.8 0 0 0 .1.35c.033.1.083.2.15.3l.2.3c.1.1.183.2.25.3l.3.2.3.2c.1.067.2.117.3.15l.3.1c.1.033.2.05.3.05h.3c.033.1.083.183.15.25.067.1.133.183.2.25s.15.133.25.2l.3.2c.1.033.2.083.3.15.133.033.25.067.35.1z"/><path fill="#735541" d="m33.85 31.15-.4-.6c-.133-.233-.267-.45-.4-.65a7.865 7.865 0 0 0-.4-.55l-.4-.6a3.598 3.598 0 0 1-.45-.55 6.07 6.07 0 0 0-.45-.5 6.08 6.08 0 0 0-.45-.5 6.092 6.092 0 0 0-.45-.5l.2-.2.2-.2c.067-.1.133-.183.2-.25.1-.067.183-.133.25-.2a.784.784 0 0 1 .2-.15c.067-.067.15-.133.25-.2l.2-.2c.06-.02.102-.058.15-.09a1.047 1.047 0 0 1-.413-.126.997.997 0 0 1-.26-.214c-.078-.084-.148-.175-.227-.258-.078-.082-.164-.155-.246-.233a1.196 1.196 0 0 1-.178-.215 2.449 2.449 0 0 0-.226.136.785.785 0 0 0-.2.15.628.628 0 0 0-.25.15.785.785 0 0 0-.2.15.786.786 0 0 1-.2.15l-.2.2-.2.2a.784.784 0 0 1-.15.2 1.642 1.642 0 0 0-.25-.2l-.2-.2a1.636 1.636 0 0 1-.25-.2 2.46 2.46 0 0 1-.25-.15.628.628 0 0 0-.25-.15l-.2-.2a.628.628 0 0 1-.25-.15 2.458 2.458 0 0 0-.25-.15c.033-.2.067-.383.1-.55.067-.2.117-.383.15-.55s.067-.35.1-.55c.067-.167.117-.333.15-.5.067-.2.117-.383.15-.55.067-.167.117-.333.15-.5l.2-.5c.028-.139.074-.277.125-.416h-.097l-.147-.003a4.74 4.74 0 0 1-.208-.012c-.075-.003-.15 0-.226-.008a4.21 4.21 0 0 1-1.084-.262 4.132 4.132 0 0 1-.508-.234 3.55 3.55 0 0 1-.367-.238 5.974 5.974 0 0 0-.188.423 1.954 1.954 0 0 0-.15.4 3.537 3.537 0 0 0-.15.45 1.788 1.788 0 0 0-.15.45 3.55 3.55 0 0 1-.15.45 9.847 9.847 0 0 0-.1.45 9.794 9.794 0 0 0-.1.45c0 .133-.017.283-.05.45-.4-.167-.8-.3-1.2-.4-.4-.133-.8-.25-1.2-.35l-1.2-.2c-.4-.033-.8-.05-1.2-.05a7.823 7.823 0 0 0-1.25 0l-1.2.1a15.508 15.508 0 0 0-2.4.6c0-.167-.017-.317-.05-.45l-.1-.4-.1-.4a1.954 1.954 0 0 1-.15-.4 1.958 1.958 0 0 0-.15-.4l-.1-.4-.2-.4a1.949 1.949 0 0 0-.138-.367 1.13 1.13 0 0 0-.164.121c-.064.056-.127.116-.2.158a1.636 1.636 0 0 1-.302.124 3.21 3.21 0 0 1-.333.09c-.232.05-.464.102-.698.145a7.396 7.396 0 0 1-.357.057c-.117.015-.234.027-.351.04-.062.008-.124.004-.186.01l-.061.006c.047.11.093.222.14.316.033.167.083.317.15.45.033.167.067.317.1.45.067.167.117.333.15.5.067.133.117.283.15.45l.1.5c.067.133.117.283.15.45l.1.5c-.1.067-.2.117-.3.15-.067.067-.15.133-.25.2-.1.033-.2.083-.3.15-.067.067-.15.133-.25.2-.1.033-.2.083-.3.15a1.64 1.64 0 0 1-.25.2l-.3.2c-.067.067-.15.133-.25.2l-.1-.1-.15-.15a.583.583 0 0 1-.15-.1.784.784 0 0 1-.2-.15.57.57 0 0 0-.15-.1l-.2-.1a.582.582 0 0 0-.15-.1l-.14-.07a1.19 1.19 0 0 1-.134.232 1.757 1.757 0 0 1-.246.252c-.091.078-.19.15-.29.215a5.33 5.33 0 0 1-.307.186c-.097.055-.196.108-.295.162-.003.002-.01 0-.014 0h-.02l.046.023a.327.327 0 0 1 .15.15l.2.1a.328.328 0 0 0 .15.15.784.784 0 0 1 .2.15l.15.15a281.281 281.281 0 0 1 .3.3l-.5.5c-.167.2-.333.383-.5.55a3873.606 3873.606 0 0 0-1 1.2c-.167.2-.317.4-.45.6-.167.233-.317.45-.45.65a8.237 8.237 0 0 0-.45.7 8.252 8.252 0 0 0-.45.7c-.167.3-.267.55-.3.75 0 .2.05.383.15.55a.91.91 0 0 0 .4.3c.167.1.367.15.6.15.233.033.483.033.75 0 .233 0 .467-.033.7-.1.233-.1.45-.2.65-.3s.35-.217.45-.35c.733-.9 1.45-1.7 2.15-2.4a23.085 23.085 0 0 1 2.2-1.95c.8-.567 1.583-1.033 2.35-1.4.833-.367 1.65-.583 2.45-.65a7.1 7.1 0 0 1 2.65.2c.933.233 1.85.65 2.75 1.25 1 .633 1.983 1.467 2.95 2.5 1.033 1.067 2.083 2.35 3.15 3.85.1.167.267.283.5.35.2.067.45.1.75.1.267-.033.567-.1.9-.2.3-.1.6-.217.9-.35a8.4 8.4 0 0 0 .8-.5c.267-.2.467-.4.6-.6.167-.2.283-.4.35-.6a.89.89 0 0 0-.1-.6z"/><path fill="#4B874B" d="m38.7 21.95-.1-.2a.783.783 0 0 1-.15-.2 1.937 1.937 0 0 1-.25-.1c.067-.067.133-.15.2-.25a1.94 1.94 0 0 0 .1-.25.557.557 0 0 0 .05-.25c.033-.1.033-.2 0-.3 0-.1-.017-.183-.05-.25a1.26 1.26 0 0 0-.15-.3.628.628 0 0 0-.15-.25.894.894 0 0 0-.25-.25l-.3-.2a2.752 2.752 0 0 1-.35-.15.944.944 0 0 0-.3-.05 1.12 1.12 0 0 0-.35-.05h-.3l-.3.1a1.94 1.94 0 0 0-.25.1c-.1.067-.183.133-.25.2a.782.782 0 0 1-.15-.2.628.628 0 0 0-.25-.15.557.557 0 0 0-.25-.05.943.943 0 0 0-.3-.05c-.133 0-.25.017-.35.05a.888.888 0 0 0-.4.1c-.1.033-.217.067-.35.1l-.4.2c-.133.067-.25.15-.35.25-.1.067-.2.15-.3.25-.1.067-.2.15-.3.25l-.2.3a.628.628 0 0 0-.15.25c-.033.1-.05.2-.05.3-.033.067-.033.15 0 .25 0 .067.017.133.05.2a1.96 1.96 0 0 1-.25.1c-.1.067-.183.133-.25.2-.1.067-.183.133-.25.2-.067.1-.117.2-.15.3a.633.633 0 0 0-.15.3l-.1.3c-.033.1-.05.217-.05.35v.45c0 .033.017.067.05.1v.1c0 .033.017.05.05.05v.1c0 .033.017.067.05.1v.05c.024.024.029.047.036.071h.055a1.274 1.274 0 0 0 .244.287c.082.077.167.15.243.234.076.083.146.173.224.255.038.04.08.08.124.114a.821.821 0 0 0 .148.092c.097.047.202.072.308.088.02-.016.05-.023.068-.041 0 .067.017.133.05.2a.327.327 0 0 0 .15.15.784.784 0 0 0 .15.2l.2.1a.784.784 0 0 0 .2.15c.1.033.2.05.3.05.1.033.2.05.3.05.1.033.2.05.3.05.133 0 .267-.017.4-.05.133 0 .267-.017.4-.05s.25-.067.35-.1c.133-.067.25-.117.35-.15l.3-.2.2-.2c.1-.1.167-.183.2-.25s.067-.15.1-.25c.067.033.15.05.25.05s.2-.017.3-.05c.1 0 .2-.017.3-.05s.2-.083.3-.15l.3-.2c.1-.1.2-.183.3-.25.1-.1.183-.2.25-.3.1-.133.183-.25.25-.35a1.1 1.1 0 0 0 .15-.35 1.1 1.1 0 0 0 .15-.35c.033-.1.05-.2.05-.3v-.3c0-.1-.017-.2-.05-.3z"/></g></svg>