<svg xmlns="http://www.w3.org/2000/svg" width="40" height="40"><path fill="#E4DFA2" d="m21.45 22.5 1.05 8.65h-5l1.2-8.8z"/><path fill="#A5826E" d="m18.7 22.35-1.2 8.8h5l-1.05-8.65-2.75-.15zm4.95-11.95 8.8 14.15-1.6 2.45-2.5-2.85.15 8.05-8.75 5.1-8.25-5v-7.85l-.05-.1L9.15 27l-1.6-2.45 3.4-5.5.1.8 1.85 2.35.45 3.95 1.7 1.7-.25-3.6.75-3.35.6-2.8 2.55-1.65 3.55.1.45-3.4.95-2.75z"/><path fill="#735A4B" d="m30.85 27 1.6-2.45-8.8-14.15-.95 2.75-.45 3.4-3.55-.1-2.55 1.65-.6 2.8-.75 3.35.25 3.6-1.7-1.7-.45-3.95-1.85-2.35-.1-.8-3.4 5.5L9.15 27l2.3-2.65.05.1v7.85l8.25 5 8.75-5.1-.15-8.05 2.5 2.85zm3.9-2L31 30.65l-.6-.75.1 3.8L19.7 40 9.55 33.8v-3.85l-.55.7-3.75-5.6L15.65 8.1l-2.3-2.35L17.15 0 20 2.95 22.8 0l3.85 5.75-2.35 2.4L34.75 25z"/></svg>