<svg xmlns="http://www.w3.org/2000/svg" width="40" height="40"><path fill="#E4DFA2" d="M22.3 24.75c.03.17.07.33.1.5.03.1.05.22.05.35v5.9H17.4v-5.8c.03-.03.05-.07.05-.1v-.35c.03-.17.07-.33.1-.5.07-.2.13-.38.2-.55.1-.2.2-.38.3-.55.13-.2.28-.37.45-.5.2-.13.42-.23.65-.3.23-.1.5-.15.8-.15s.57.05.8.15c.23.07.43.17.6.3s.32.3.45.5c.13.17.23.35.3.55.07.17.13.35.2.55z"/><path fill="#2D2D2D" d="M19.87-.14c.01.02.02.05.05.09-.03-.04-.04-.07-.05-.09z"/><path fill="#624A3B" d="m14.8 24.25.75-3.35.6-2.8 2.55-1.65 3.55.1.45-3.4 1.15-3.3.2-.1c.37.57.72 1.12 1.05 1.65.37.57.72 1.1 1.05 1.6.4.57.77 1.1 1.1 1.6.4.53.78 1.05 1.15 1.55.4.53.78 1.03 1.15 1.5.4.47.8.92 1.2 1.35.43.47.85.9 1.25 1.3.43.4.85.78 1.25 1.15L31.5 23.2l-1.7-1.7v9.9l-9.85 6.35-10.15-6.7v-9.5l-1.55 1.5-1.65-1.6c.17-.17.35-.32.55-.45l.5-.5s.33-.35.5-.55l.55-.55c.17-.17.33-.35.5-.55.17-.17.33-.35.5-.55.13-.2.28-.4.45-.6s.33-.4.5-.6l.4 2.75 1.85 2.35.45 3.95 1.7 1.7-.25-3.6zm2.75.5c-.03.17-.07.33-.1.5v.35c0 .03-.02.07-.05.1v5.8h5.05v-5.9c0-.13-.02-.25-.05-.35-.03-.17-.07-.33-.1-.5-.07-.2-.13-.38-.2-.55-.07-.2-.17-.38-.3-.55-.13-.2-.28-.37-.45-.5s-.37-.23-.6-.3c-.23-.1-.5-.15-.8-.15s-.57.05-.8.15c-.23.07-.45.17-.65.3-.17.13-.32.3-.45.5-.1.17-.2.35-.3.55-.07.17-.13.35-.2.55z"/><path fill="#2D2D2D" d="m19.95 37.75 9.85-6.35v-9.9l1.7 1.7 1.75-1.75c-.4-.37-.82-.75-1.25-1.15-.4-.4-.82-.83-1.25-1.3-.4-.43-.8-.88-1.2-1.35-.37-.47-.75-.97-1.15-1.5-.37-.5-.75-1.02-1.15-1.55-.33-.5-.7-1.03-1.1-1.6-.33-.5-.68-1.03-1.05-1.6-.33-.53-.68-1.08-1.05-1.65l-.2.1-1.15 3.3-.45 3.4-3.55-.1-2.55 1.65-.6 2.8-.75 3.35.25 3.6-1.7-1.7-.45-3.95-1.85-2.35-.4-2.75c-.17.2-.33.4-.5.6s-.32.4-.45.6c-.17.2-.33.38-.5.55-.17.2-.33.38-.5.55l-.55.55c-.17.2-.33.38-.5.55l-.5.5c-.2.13-.38.28-.55.45l1.65 1.6 1.55-1.5v9.5l10.15 6.7zM31.5 32.5 19.95 40 8 32.1v-6.4l-4.1-4.25c.73-.63 1.47-1.37 2.2-2.2.73-.73 1.47-1.55 2.2-2.45.67-.83 1.37-1.73 2.1-2.7.67-.87 1.35-1.8 2.05-2.8.63-.9 1.3-1.88 2-2.95.57-.83 1.2-1.78 1.9-2.85.27-.4.88-1.35 1.85-2.85.73-1.1 1.32-1.98 1.75-2.65.21.33.77 1.23 1.7 2.7.7 1.1 1.3 2.05 1.8 2.85.7 1.03 1.33 2 1.9 2.9.7 1.03 1.37 2 2 2.9.73 1 1.43 1.93 2.1 2.8.73.97 1.45 1.85 2.15 2.65.77.9 1.5 1.72 2.2 2.45.8.8 1.57 1.5 2.3 2.1l-4.6 4.35v6.8z"/></svg>