<svg xmlns="http://www.w3.org/2000/svg" width="40" height="40"><path fill="#E4DFA2" d="M17.5 23.9h5v7.6h-5z"/><path fill="#D2BE5A" d="M17.5 23.9v7.6h5v-7.6h-5zm13.85-9.25c.3.5.57 1.03.8 1.6.27.53.48 1.08.65 1.65.2.6.37 1.2.5 1.8l-1.75 1.75-1.7-.35v10.3L20 37.75l-10.15-6.7v-9.9l-1.55.15-1.6-1.6c.03-.17.08-.33.15-.5.03-.17.08-.33.15-.5.03-.17.08-.33.15-.5s.13-.33.2-.5c.07-.13.13-.28.2-.45s.13-.33.2-.5c.07-.13.13-.28.2-.45.07-.13.15-.28.25-.45l2.4.75.45 3.25 1.85 2.35.45 3.95 1.7 1.7-.25-3.6.75-3.35.6-2.8 2.55-1.65 3.55.1.45-3.4 1.15-3.3 1.6-1.05.4-.3c.4.3.8.62 1.2.95.4.37.8.73 1.2 1.1.4.4.77.82 1.1 1.25.37.43.72.88 1.05 1.35.33.5.65 1 .95 1.5z"/><path fill="#73694B" d="M32.15 16.25c-.23-.57-.5-1.1-.8-1.6s-.62-1-.95-1.5c-.33-.47-.68-.92-1.05-1.35-.33-.43-.7-.85-1.1-1.25-.4-.37-.8-.73-1.2-1.1-.4-.33-.8-.65-1.2-.95l-.4.3-1.6 1.05-1.15 3.3-.45 3.4-3.55-.1-2.55 1.65-.6 2.8-.75 3.35.25 3.6-1.7-1.7-.45-3.95-1.85-2.35-.45-3.25-2.4-.75c-.1.17-.18.32-.25.45-.07.17-.13.32-.2.45-.07.17-.13.33-.2.5s-.13.32-.2.45c-.07.17-.13.33-.2.5s-.12.33-.15.5c-.07.17-.12.33-.15.5-.07.17-.12.33-.15.5l1.6 1.6 1.55-.15v9.9L20 37.75l9.85-6.35V21.1l1.7.35 1.75-1.75c-.13-.6-.3-1.2-.5-1.8-.17-.57-.38-1.12-.65-1.65zM30.8 9.7c.4.43.78.88 1.15 1.35.4.47.77.95 1.1 1.45.33.53.63 1.07.9 1.6.3.6.55 1.18.75 1.75.23.63.43 1.27.6 1.9.17.7.28 1.4.35 2.1l-4.1 3.8v8.85L20 40 8.1 32.1v-8.4l-3.75-3.85c.1-.63.25-1.25.45-1.85.17-.57.37-1.13.6-1.7.2-.53.43-1.07.7-1.6.27-.5.57-1 .9-1.5.3-.47.62-.93.95-1.4.33-.43.7-.87 1.1-1.3.33-.43.7-.85 1.1-1.25.4-.37.8-.75 1.2-1.15L15.7 0 20 2.5 24.3 0l3.9 7.35c.47.37.92.73 1.35 1.1.43.4.85.82 1.25 1.25z"/></svg>