<svg xmlns="http://www.w3.org/2000/svg" width="40" height="40"><path fill="#E4DFA2" d="M22.5 25.35v5.95h-5v-5.95c0-.1.02-.2.05-.3 0-.17.03-.33.1-.5.03-.2.08-.38.15-.55.1-.2.22-.38.35-.55.1-.2.23-.37.4-.5.2-.13.42-.25.65-.35.23-.07.5-.1.8-.1s.57.03.8.1c.23.1.45.22.65.35.17.13.3.3.4.5.13.17.25.35.35.55.07.17.12.35.15.55.03.17.07.33.1.5.03.1.05.2.05.3z"/><path fill="#8C82A0" d="M18.15 23.45c-.13.17-.25.35-.35.55-.07.17-.12.35-.15.55-.07.17-.1.33-.1.5-.03.1-.05.2-.05.3v5.95h5v-5.95s-.02-.2-.05-.3c-.03-.17-.07-.33-.1-.5-.03-.2-.08-.38-.15-.55-.1-.2-.22-.38-.35-.55-.1-.2-.23-.37-.4-.5-.2-.13-.42-.25-.65-.35-.23-.07-.5-.1-.8-.1s-.57.03-.8.1c-.23.1-.45.22-.65.35-.17.13-.3.3-.4.5zM30 12.25h1.8v.45c-.03.13-.05.28-.05.45-.03.17-.07.33-.1.5s-.07.33-.1.5c-.07.17-.13.32-.2.45s-.13.25-.2.35c-.1.07-.2.12-.3.15-.1 0-.38.02-.85.05V31.4l-9.85 6.35-10.1-6.7V15.6l1.3.35.45 3.3 1.85 2.35.4 3.95 1.75 1.7-.25-3.6.75-3.35.6-2.85 2.55-1.6 3.55.1.45-3.4 1.15-3.3 1.6-1.05 1.4-1.1c.3.2.57.43.8.7.23.23.43.48.6.75.17.23.32.48.45.75.1.23.18.47.25.7.1.23.17.47.2.7.03.2.07.42.1.65v.9z"/><path fill="#5A4B6E" d="M31.35 14.6c.07-.13.13-.28.2-.45.03-.17.07-.33.1-.5s.07-.33.1-.5c0-.17.02-.32.05-.45v-.45H30v-.9c-.03-.23-.07-.45-.1-.65-.03-.23-.1-.47-.2-.7-.07-.23-.15-.47-.25-.7-.13-.27-.28-.52-.45-.75-.17-.27-.37-.52-.6-.75-.23-.27-.5-.5-.8-.7l-1.4 1.1-1.6 1.05-1.15 3.3-.45 3.4-3.55-.1-2.55 1.6-.6 2.85-.75 3.35.25 3.6-1.75-1.7-.4-3.95-1.85-2.35-.45-3.3-1.3-.35v15.45l10.1 6.7L30 31.4V15.15c.47-.03.75-.05.85-.05.1-.03.2-.08.3-.15.07-.1.13-.22.2-.35zM20.15 40l-11.9-7.9V16.85H8.1c-.03-.03-.07-.05-.1-.05h-.15c-.03 0-.05-.02-.05-.05h-.15c-.13-.03-.25-.15-.35-.35-.1-.17-.18-.4-.25-.7s-.13-.63-.2-1c-.03-.33-.07-.7-.1-1.1-.03-.37-.05-.73-.05-1.1-.03-.33-.05-.65-.05-.95v-.95H8.3c.03-.3.1-.62.2-.95s.23-.68.4-1.05c.2-.37.42-.73.65-1.1.27-.37.58-.72.95-1.05.37-.37.78-.72 1.25-1.05.5-.33 1.03-.62 1.6-.85.6-.3 1.25-.53 1.95-.7.73-.2 1.52-.35 2.35-.45l2.4-3.4 2.35 3.4c.87.1 1.68.23 2.45.4.73.2 1.42.43 2.05.7.57.27 1.08.57 1.55.9.47.3.88.63 1.25 1 .33.33.63.7.9 1.1.23.37.43.73.6 1.1.13.37.25.72.35 1.05s.17.65.2.95h1.6v1.9c-.03.37-.07.73-.1 1.1-.03.4-.07.77-.1 1.1-.03.37-.08.7-.15 1s-.15.53-.25.7c-.1.2-.22.32-.35.35-.07 0-.17.02-.3.05-.17.03-.28.05-.35.05V32.5L20.15 40z"/></svg>