<svg xmlns="http://www.w3.org/2000/svg" width="40" height="40"><g fill-rule="evenodd"><path fill="#5a4b6e" d="M29 2.95 20.15 0l-8.2 2.95L0 26l20 14 20-14L29 2.95M10.3 30l-.55-.4-.7-2.6-1.1 1.6-1.9-5.45-1.3 2.95-1.7-1.2L11 9.15l1.3-1.1 1.45 2.5L15.1 5.1l1.45 2.35 1.2-4.3 1.6-.6 2.3 8.05 1.25-4 2.05 9.1L26.8 5.1l1.25 5.2.8-2.9 8.2 17.75-1.2.95-.45-1.35-.7 2.25-.3.2-1-3.2-.9 4.55-1.05.8q-.05-.55-.15-1.1t-.25-1.1q-.1-.6-.2-1.15l-.3-1.1-.3-1.1-.3-1q-.2-.5-.35-.95-.2-.45-.35-.85.15-.1.35-.2.15-.05.3-.15t.3-.2q.2-.15.35-.25t.3-.2l.25-.25q.15-.15.3-.25l.3-.3q0-.4-.1-.75-.1-.3-.3-.55t-.5-.4q-.25-.15-.55-.2-.35-.1-.7-.1t-.75.05q-.35.05-.75.2-.4.1-.8.25t-.7.35q-.35.25-.65.45-.35.25-.55.55-.25.25-.45.55-.15.3-.25.55-.05.35-.05.65.05.3.2.6.2.3.45.6h.4q.2 0 .45-.05.2 0 .4-.05.2 0 .4-.05t.4-.1.4-.1.35-.15l.4-.1q.2.5.35 1 .15.55.25 1.15.15.55.25 1.15t.2 1.2l.1 1.2q.05.6.1 1.15.05.6.05 1.15v1l-1.2.9q-.5-.15-1.15-.45T26 30.2q-.7-.4-1.5-.8-.75-.4-1.5-.85l-1.4-.8q-.65-.45-1.2-.8t-.9-.6q-.4-.3-.5-.45-.2-.2-.2-.45.05-.2.2-.45.2-.2.5-.4.25-.2.6-.4.2-.1.7-.4.4-.2.6-.35.3-.2.45-.35.2-.15.2-.3t-.1-.3q-.1-.1-.3-.25t-.45-.3q-.25-.1-.55-.25l-.5-.2q-.25-.1-.5-.15l-.3-.1q-.05-.05-.1-.05l.1.05.2.1q.2.1.35.2.2.1.35.25.2.1.35.25.15.1.25.25t.15.25q0 .15-.1.25-.1.15-.4.3-.2.15-.6.35-.3.15-.75.35-.2.1-.9.4-.55.25-.85.4-.5.2-.85.4-.4.2-.7.4t-.45.35-.2.3-.05.4q0 .15.05.4 0 .15.1.4.05.3.05.45.05.2.05.4t-.05.35q-.05.2-.15.35l-.1.1q-.1.05-.15.1-.1.05-.2.15l-.2.1-.2.1q-.1.05-.2.15-.15.05-.25.1-.15.05-.25.1-.05-.7-.1-1.45V25.2q.05-.75.15-1.55.05-.8.15-1.55.15-.8.3-1.55t.3-1.5q.2-.75.45-1.45.3.05.55.1.3.05.55.1.3.05.6.05h1.7q.3-.05.55-.1.3 0 .6-.1.3-.45.45-.95.15-.4.1-.85-.05-.4-.2-.8-.2-.4-.5-.75t-.7-.65q-.4-.25-.9-.5-.45-.25-1-.45-.5-.2-1.05-.3t-1.1-.2q-.55-.05-1.1 0-.55 0-1 .1-.5.1-.9.3t-.75.45q-.3.3-.5.65t-.25.85q-.05.45.05 1 .2.15.4.25.15.15.35.25t.4.25l.4.2q.2.1.45.2.2.1.4.15l.4.2q.25.05.45.15-.25.65-.55 1.35-.25.7-.5 1.45t-.5 1.55l-.4 1.6q-.25.85-.4 1.7-.2.85-.3 1.7-.15.9-.25 1.7-.1.9-.15 1.75"/><path fill="#8c82a0" d="m10.3 30-.55-.4-.7-2.6-1.1 1.6-1.9-5.45-1.3 2.95-1.7-1.2L11 9.15l1.3-1.1 1.45 2.5L15.1 5.1l1.45 2.35 1.2-4.3 1.6-.6 2.3 8.05 1.25-4 2.05 9.1L26.8 5.1l1.25 5.2.8-2.9 8.2 17.75-1.2.95-.45-1.35-.7 2.25-.3.2-1-3.2-.9 4.55-1.05.8q-.05-.55-.15-1.1t-.25-1.1q-.1-.6-.2-1.15l-.3-1.1-.3-1.1-.3-1q-.2-.5-.35-.95-.2-.45-.35-.85.15-.1.35-.2.15-.05.3-.15t.3-.2q.2-.15.35-.25t.3-.2l.25-.25q.15-.15.3-.25l.3-.3q0-.4-.1-.75-.1-.3-.3-.55t-.5-.4q-.25-.15-.55-.2-.35-.1-.7-.1t-.75.05q-.35.05-.75.2-.4.1-.8.25t-.7.35q-.35.25-.65.45-.35.25-.55.55-.25.25-.45.55-.15.3-.25.55-.05.35-.05.65.05.3.2.6.2.3.45.6h.4q.2 0 .45-.05.2 0 .4-.05.2 0 .4-.05t.4-.1.4-.1.35-.15l.4-.1q.2.5.35 1 .15.55.25 1.15.15.55.25 1.15t.2 1.2l.1 1.2q.05.6.1 1.15.05.6.05 1.15v1l-1.2.9q-.5-.15-1.15-.45T26 30.2q-.7-.4-1.5-.8-.75-.4-1.5-.85l-1.4-.8q-.65-.45-1.2-.8t-.9-.6q-.4-.3-.5-.45-.2-.2-.2-.45.05-.2.2-.45.2-.2.5-.4.25-.2.6-.4.2-.1.7-.4.4-.2.6-.35.3-.2.45-.35.2-.15.2-.3t-.1-.3q-.1-.1-.3-.25t-.45-.3q-.25-.1-.55-.25l-.5-.2q-.25-.1-.5-.15l-.3-.1q-.05-.05-.1-.05l.1.05.2.1q.2.1.35.2.2.1.35.25.2.1.35.25.15.1.25.25t.15.25q0 .15-.1.25-.1.15-.4.3-.2.15-.6.35-.3.15-.75.35-.2.1-.9.4-.55.25-.85.4-.5.2-.85.4-.4.2-.7.4t-.45.35-.2.3-.05.4q0 .15.05.4 0 .15.1.4.05.3.05.45.05.2.05.4t-.05.35q-.05.2-.15.35l-.1.1q-.1.05-.15.1-.1.05-.2.15l-.2.1-.2.1q-.1.05-.2.15-.15.05-.25.1-.15.05-.25.1-.05-.7-.1-1.45V25.2q.05-.75.15-1.55.05-.8.15-1.55.15-.8.3-1.55t.3-1.5q.2-.75.45-1.45.3.05.55.1.3.05.55.1.3.05.6.05h1.7q.3-.05.55-.1.3 0 .6-.1.3-.45.45-.95.15-.4.1-.85-.05-.4-.2-.8-.2-.4-.5-.75t-.7-.65q-.4-.25-.9-.5-.45-.25-1-.45-.5-.2-1.05-.3t-1.1-.2q-.55-.05-1.1 0-.55 0-1 .1-.5.1-.9.3t-.75.45q-.3.3-.5.65t-.25.85q-.05.45.05 1 .2.15.4.25.15.15.35.25t.4.25l.4.2q.2.1.45.2.2.1.4.15l.4.2q.25.05.45.15-.25.65-.55 1.35-.25.7-.5 1.45t-.5 1.55l-.4 1.6q-.25.85-.4 1.7-.2.85-.3 1.7-.15.9-.25 1.7-.1.9-.15 1.75"/></g></svg>