<svg xmlns="http://www.w3.org/2000/svg" width="40" height="40"><g fill-rule="evenodd" clip-rule="evenodd"><path fill="#2D2D2D" d="m38.3 26 .3.5c.1.167.183.333.25.5s.133.35.2.55l.2.5c.067.2.117.4.15.6.033.167.067.35.1.55s.05.4.05.6c.033.2.05.4.05.6a8.93 8.93 0 0 1-.15 1.65c-.133.5-.3 1-.5 1.5s-.45.967-.75 1.4-.633.833-1 1.2-.767.7-1.2 1-.883.55-1.35.75c-.5.2-1.017.35-1.55.45-.533.133-1.083.2-1.65.2s-1.117-.05-1.65-.15c-.5-.133-1-.3-1.5-.5s-.967-.45-1.4-.75-.833-.633-1.2-1-.7-.767-1-1.2a9.1 9.1 0 0 1-.7-1.4c-.233-.467-.4-.967-.5-1.5s-.15-1.083-.15-1.65h-.5a8.93 8.93 0 0 1-.15 1.65c-.1.5-.267 1-.5 1.5-.2.5-.45.967-.75 1.4-.267.433-.583.833-.95 1.2s-.767.7-1.2 1-.9.55-1.4.75-1 .35-1.5.45c-.567.133-1.117.2-1.65.2a8.93 8.93 0 0 1-1.65-.15 9.895 9.895 0 0 1-1.5-.5c-.5-.2-.967-.45-1.4-.75a8.7 8.7 0 0 1-2.2-2.2c-.3-.433-.55-.9-.75-1.4-.2-.467-.35-.967-.45-1.5a6.777 6.777 0 0 1-.2-1.65c0-.267.017-.517.05-.75l.1-.8c.033-.233.1-.467.2-.7l.2-.7.3-.7c.133-.2.267-.417.4-.65.1-.2.233-.4.4-.6.133-.167.283-.35.45-.55l-.8-.7v-1.1L0 21.05V17l7.9 2.1v-1.05h4.8V14.7h1.7l-.1-1.6-1.6-.1L11 1.45c.033.067 1.917.35 5.65.85 4.1.567 7.05.85 8.85.85s4.767-.283 8.9-.85c1.867-.267 3.733-.55 5.6-.85L38.3 13l-1.6.1-.1 1.6h1.7V26M15.55 11.65c-.5-.033-1-.05-1.5-.05L12.7 3.4c.033.033 1.683.217 4.95.55 3.633.333 6.25.5 7.85.5s4.217-.167 7.85-.5c1.633-.167 3.283-.35 4.95-.55l-1.35 8.2-1.5.05-.35 4.55h1.85v10.15c.1.133.2.283.3.45.1.133.183.283.25.45.1.167.183.333.25.5l.2.5c.067.167.117.333.15.5.033.167.067.35.1.55.033.167.067.35.1.55v.55c0 .467-.05.933-.15 1.4-.067.433-.2.85-.4 1.25a7.54 7.54 0 0 1-.6 1.15c-.267.367-.55.717-.85 1.05-.3.3-.633.567-1 .8a5.21 5.21 0 0 1-1.2.65c-.4.167-.817.3-1.25.4-.467.1-.933.15-1.4.15s-.917-.05-1.35-.15c-.467-.1-.9-.233-1.3-.4s-.783-.383-1.15-.65c-.367-.233-.7-.5-1-.8a7.54 7.54 0 0 1-.85-1c-.267-.4-.483-.8-.65-1.2s-.3-.817-.4-1.25a9.887 9.887 0 0 1-.1-1.4v-.75a.444.444 0 0 0 .05-.2v-.15c0-.033.017-.083.05-.15h-3.3c0 .067.017.117.05.15v.15c0 .067.017.117.05.15v.65c.033.033.05.083.05.15 0 .467-.05.933-.15 1.4-.1.433-.233.85-.4 1.25s-.383.783-.65 1.15c-.233.367-.5.717-.8 1.05-.333.3-.683.567-1.05.8-.367.267-.75.483-1.15.65s-.833.3-1.3.4c-.433.1-.883.15-1.35.15s-.933-.05-1.4-.15c-.433-.1-.85-.233-1.25-.4a5.21 5.21 0 0 1-1.2-.65c-.367-.233-.7-.5-1-.8a22.61 22.61 0 0 1-.85-1c-.233-.4-.433-.8-.6-1.2s-.3-.817-.4-1.25a6.861 6.861 0 0 1-.1-2.25c.033-.267.083-.533.15-.8s.15-.533.25-.8c.1-.233.217-.467.35-.7.1-.267.233-.5.4-.7.133-.233.3-.45.5-.65.167-.2.35-.383.55-.55l.6-.5-1.5-1.3v-1.3l-8.05-2.2V18.6l8.05 2.15V19.3h4.8v-3.1h1.9l-.4-4.55M30.3 32.2c.033 0 .067.017.1.05.033 0 .05.017.05.05.033 0 .067.017.1.05h.1c.033.033.067.05.1.05s.067.017.1.05h.1c.033 0 .067.017.1.05v3.4c-.167 0-.317-.017-.45-.05s-.283-.067-.45-.1l-.4-.1a1.954 1.954 0 0 0-.4-.15l-.4-.2-.4-.2c-.1-.067-.217-.15-.35-.25-.1-.067-.2-.15-.3-.25l2.4-2.4m2.3 0 2.45 2.4c-.1.1-.217.183-.35.25-.1.1-.217.183-.35.25s-.25.133-.35.2l-.4.2a1.954 1.954 0 0 0-.4.15 9.768 9.768 0 0 1-.45.1l-.4.1a2.35 2.35 0 0 1-.45.05v-3.4c.033 0 .067-.017.1-.05h.1c.033-.033.067-.05.1-.05s.067-.017.1-.05l.05-.05h.1c.033-.033.067-.05.1-.05l.05-.05m-19 0c.033 0 .067.017.1.05l.05.05c.033 0 .067.017.1.05h.1c0 .033.017.05.05.05s.067.017.1.05h.1c.033 0 .067.017.1.05v3.4a2.35 2.35 0 0 1-.45-.05l-.4-.1a9.768 9.768 0 0 1-.45-.1 1.954 1.954 0 0 0-.4-.15l-.4-.2c-.1-.067-.217-.133-.35-.2s-.25-.15-.35-.25c-.1-.067-.217-.15-.35-.25l2.45-2.4m2.3 0 2.4 2.4c-.1.1-.217.183-.35.25-.1.1-.217.183-.35.25-.1.067-.217.133-.35.2l-.4.2a1.954 1.954 0 0 0-.4.15l-.4.1a9.577 9.577 0 0 1-.45.1c-.133.033-.283.05-.45.05v-3.4c.033 0 .067-.017.1-.05h.1c.033-.033.067-.05.1-.05s.067-.017.1-.05c.033 0 .067-.017.1-.05h.1c0-.033.017-.05.05-.05.033-.033.067-.05.1-.05m4.35-1.35c0 .133-.017.283-.05.45l-.1.4a9.768 9.768 0 0 1-.1.45l-.2.4a1.1 1.1 0 0 1-.15.35l-.2.4c-.1.1-.183.217-.25.35-.1.1-.183.217-.25.35l-2.45-2.45c.033-.033.05-.067.05-.1.033 0 .05-.017.05-.05.033-.033.05-.067.05-.1s.017-.067.05-.1c0-.033.017-.067.05-.1v-.05c.033-.033.05-.067.05-.1v-.1h3.45m16.7 0c0 .133-.017.283-.05.45l-.1.4c-.033.167-.067.317-.1.45s-.083.267-.15.4-.133.25-.2.35l-.2.4c-.067.1-.15.217-.25.35-.067.1-.15.217-.25.35l-2.4-2.45c0-.033.017-.067.05-.1l.05-.05c0-.033.017-.067.05-.1v-.1c.033-.033.05-.067.05-.1l.05-.05v-.1c.033-.033.05-.067.05-.1h3.4m-24.3 0c0 .033.017.067.05.1v.1c.033.033.05.067.05.1l.05.05v.1c.033.033.05.067.05.1.033.033.05.067.05.1.033 0 .05.017.05.05L10.55 34c-.1-.1-.183-.217-.25-.35-.1-.1-.183-.217-.25-.35s-.133-.25-.2-.35l-.2-.4a1.954 1.954 0 0 0-.15-.4 9.577 9.577 0 0 0-.1-.45l-.1-.4a2.318 2.318 0 0 1-.05-.45h3.4m16.75 0v.1c.033.033.05.067.05.1v.1c.033 0 .05.017.05.05.033.033.05.067.05.1s.017.067.05.1c0 .033.017.067.05.1l.05.05L27.25 34c-.1-.1-.183-.217-.25-.35-.1-.1-.183-.217-.25-.35s-.133-.25-.2-.35a1.954 1.954 0 0 1-.15-.4 1.954 1.954 0 0 1-.15-.4c-.067-.167-.117-.317-.15-.45s-.05-.267-.05-.4a9.768 9.768 0 0 0-.1-.45h3.45m-18.85-4 2.4 2.4c0 .033-.017.067-.05.1l-.05.05c0 .033-.017.067-.05.1v.1c-.033.033-.05.067-.05.1s-.017.067-.05.1v.05c0 .033-.017.067-.05.1h-3.4c0-.133.017-.283.05-.45l.1-.4c.033-.133.067-.283.1-.45.067-.133.117-.267.15-.4a3.27 3.27 0 0 1 .2-.35l.2-.4c.067-.1.15-.217.25-.35.067-.1.15-.2.25-.3m8.4 0c.1.1.183.217.25.35.1.1.183.2.25.3l.2.4c.067.133.117.267.15.4.067.1.117.233.15.4.067.133.117.267.15.4s.067.283.1.45c0 .133.017.267.05.4H16.8v-.1c-.033-.033-.05-.067-.05-.1v-.05c-.033-.033-.05-.067-.05-.1s-.017-.067-.05-.1c0-.033-.017-.067-.05-.1 0-.033-.017-.05-.05-.05 0-.033-.017-.067-.05-.1l2.45-2.4m8.3 0 2.45 2.4c-.033.033-.05.067-.05.1-.033 0-.05.017-.05.05-.033.033-.05.067-.05.1s-.017.067-.05.1c0 .033-.017.067-.05.1v.1l-.05.05v.1h-3.45c0-.133.017-.283.05-.45l.1-.4a3.51 3.51 0 0 1 .15-.45c.033-.133.083-.267.15-.4a1.1 1.1 0 0 1 .15-.35l.2-.4c.1-.1.183-.217.25-.35.1-.1.183-.2.25-.3m8.4 0c.1.1.183.217.25.35.1.1.183.2.25.3l.2.4.2.4c.067.1.117.233.15.4l.1.4c.033.133.067.283.1.45.033.133.05.267.05.4h-3.4c0-.033-.017-.067-.05-.1v-.1s-.017-.05-.05-.05c0-.033-.017-.067-.05-.1v-.1c-.033-.033-.05-.067-.05-.1l-.05-.05c-.033-.033-.05-.067-.05-.1l2.4-2.4m-20.5-1.95c.167 0 .317.017.45.05s.283.067.45.1l.4.1c.133.067.267.117.4.15l.4.2.4.2c.1.1.217.183.35.25.1.1.2.183.3.25l-2.4 2.45c-.033-.033-.067-.05-.1-.05l-.05-.05c-.033-.033-.067-.05-.1-.05-.033-.033-.067-.05-.1-.05s-.067-.017-.1-.05h-.1c-.033-.033-.067-.05-.1-.05h-.1V24.9m15.9 0v3.45h-.1c-.033.033-.067.05-.1.05h-.1c-.033.033-.067.05-.1.05s-.067.017-.1.05c-.033 0-.067.017-.1.05l-.05.05c-.033 0-.067.017-.1.05l-2.4-2.45c.1-.1.217-.183.35-.25.1-.1.217-.183.35-.25.1-.067.217-.133.35-.2l.4-.2c.133-.033.267-.083.4-.15l.4-.1c.133-.033.283-.067.45-.1.133 0 .283-.017.45-.05m.85 0c.133 0 .283.017.45.05l.4.1c.167.033.317.067.45.1.133.067.267.117.4.15l.4.2c.1.067.217.133.35.2.133.1.25.183.35.25.133.1.25.183.35.25l-2.45 2.45c-.033-.033-.067-.05-.1-.05 0-.033-.017-.05-.05-.05-.033-.033-.067-.05-.1-.05-.033-.033-.067-.05-.1-.05l-.05-.05h-.1c-.033-.033-.067-.05-.1-.05h-.1V24.9m-17.6 0v3.45h-.1c-.033.033-.067.05-.1.05H14l-.05.05c-.033 0-.067.017-.1.05-.033 0-.067.017-.1.05-.033 0-.067.017-.1.05-.033 0-.05.017-.05.05l-2.45-2.45c.1-.1.217-.183.35-.25.1-.1.217-.183.35-.25s.25-.133.35-.2l.4-.2c.133-.033.267-.083.4-.15.133-.033.283-.067.45-.1l.4-.1c.167 0 .317-.017.45-.05m19.65-13.2c-3.433.167-6.25.25-8.45.25-1.767 0-4.567-.083-8.4-.25l.35 4.5h16.1l.4-4.5"/><path fill="#CD5A5A" d="M15.302 11.642c0-.005.264.002.293.002.236.006.471.014.707.022a63.543 63.543 0 0 1 .913.038l.015.001c3.765.163 6.524.245 8.27.245 2.2 0 5.017-.083 8.45-.25v.001a67.344 67.344 0 0 1 1.373-.047c.042-.002.085-.002.127-.003v-.001l1.5-.05 1.35-8.2c-1.667.2-3.317.383-4.95.55-3.633.333-6.25.5-7.85.5s-4.217-.167-7.85-.5c-3.267-.333-4.917-.517-4.95-.55l1.35 8.2c.417 0 .835.018 1.252.042z"/><path fill="#7A5B4D" d="M38.1 28.75a2.795 2.795 0 0 0-.15-.5l-.2-.5a3.519 3.519 0 0 0-.25-.5 1.957 1.957 0 0 0-.25-.45 5.28 5.28 0 0 0-.3-.45V16.2H35.1l.349-4.533-.125.006c-.236.01-.471.02-.707.028l-.669.02-.398 4.479h-16.1l-.349-4.482a49.096 49.096 0 0 1-.093-.002c-.236-.006-.471-.014-.707-.022a63.543 63.543 0 0 1-.706-.028l-.044-.002.399 4.536h-1.9v3.1h-4.8v1.45L1.2 18.6v1.45l8.05 2.2v1.3l1.5 1.3-.6.5c-.2.167-.383.35-.55.55-.2.2-.367.417-.5.65-.167.2-.3.433-.4.7-.133.233-.25.467-.35.7a7.38 7.38 0 0 0-.25.8 6.614 6.614 0 0 0-.2 1.65c0 .467.05.933.15 1.4.1.433.233.85.4 1.25s.367.8.6 1.2c.267.333.55.667.85 1 .3.3.633.567 1 .8a5.21 5.21 0 0 0 1.2.65c.4.167.817.3 1.25.4.467.1.933.15 1.4.15s.917-.05 1.35-.15c.467-.1.9-.233 1.3-.4s.783-.383 1.15-.65c.367-.233.717-.5 1.05-.8.3-.333.567-.683.8-1.05a5.64 5.64 0 0 0 .65-1.15c.167-.4.3-.817.4-1.25.1-.467.15-.933.15-1.4 0-.067-.017-.117-.05-.15v-.65c-.033-.033-.05-.083-.05-.15v-.15c-.033-.033-.05-.083-.05-.15h3.3a.384.384 0 0 0-.05.15v.15a.444.444 0 0 1-.05.2v.75c0 .467.033.933.1 1.4.1.433.233.85.4 1.25s.383.8.65 1.2c.233.333.517.667.85 1 .3.3.633.567 1 .8.367.267.75.483 1.15.65.4.167.833.3 1.3.4.433.1.883.15 1.35.15s.933-.05 1.4-.15c.433-.1.85-.233 1.25-.4a5.21 5.21 0 0 0 1.2-.65c.367-.233.7-.5 1-.8.3-.333.583-.683.85-1.05.234-.367.433-.75.6-1.15.2-.4.333-.817.4-1.25.1-.467.15-.933.15-1.4v-.55c-.033-.2-.067-.383-.1-.55-.033-.2-.067-.383-.1-.55zm-28.8.75.1-.4c.033-.133.067-.283.1-.45.067-.133.117-.267.15-.4.067-.133.133-.25.2-.35l.2-.4c.067-.1.15-.217.25-.35.067-.1.15-.2.25-.3l2.4 2.4c0 .033-.017.067-.05.1l-.05.05c0 .033-.017.067-.05.1v.1c-.033.033-.05.067-.05.1s-.017.067-.05.1v.05c0 .033-.017.067-.05.1h-3.4c0-.133.017-.283.05-.45zm1.25 4.5c-.1-.1-.183-.217-.25-.35-.1-.1-.183-.217-.25-.35a3.26 3.26 0 0 0-.2-.35l-.2-.4a1.958 1.958 0 0 0-.15-.4 9.755 9.755 0 0 0-.1-.45l-.1-.4a2.317 2.317 0 0 1-.05-.45h3.4c0 .033.017.067.05.1v.1c.033.033.05.067.05.1l.05.05v.1c.033.033.05.067.05.1.033.033.05.067.05.1.033 0 .05.017.05.05L10.55 34zm3.75 1.9a2.35 2.35 0 0 1-.45-.05l-.4-.1a9.761 9.761 0 0 1-.45-.1 1.951 1.951 0 0 0-.4-.15l-.4-.2a3.28 3.28 0 0 0-.35-.2 1.333 1.333 0 0 1-.35-.25c-.1-.067-.217-.15-.35-.25l2.45-2.4c.033 0 .067.017.1.05l.05.05c.033 0 .067.017.1.05h.1c0 .033.017.05.05.05s.067.017.1.05h.1c.033 0 .067.017.1.05v3.4zm0-7.55h-.1c-.033.033-.067.05-.1.05H14l-.05.05c-.033 0-.067.017-.1.05-.033 0-.067.017-.1.05-.033 0-.067.017-.1.05-.033 0-.05.017-.05.05l-2.45-2.45c.1-.1.217-.183.35-.25.1-.1.217-.183.35-.25.133-.067.25-.133.35-.2l.4-.2c.133-.033.267-.083.4-.15.133-.033.283-.067.45-.1l.4-.1c.167 0 .317-.017.45-.05v3.45zm.85-3.45c.167 0 .317.017.45.05s.283.067.45.1l.4.1c.133.067.267.117.4.15l.4.2.4.2c.1.1.217.183.35.25.1.1.2.183.3.25l-2.4 2.45c-.033-.033-.067-.05-.1-.05l-.05-.05c-.033-.033-.067-.05-.1-.05-.033-.033-.067-.05-.1-.05s-.067-.017-.1-.05h-.1c-.033-.033-.067-.05-.1-.05h-.1V24.9zm2.8 9.95c-.1.1-.217.183-.35.25-.1.067-.217.133-.35.2l-.4.2a1.951 1.951 0 0 0-.4.15l-.4.1a9.758 9.758 0 0 1-.45.1c-.133.033-.283.05-.45.05v-3.4c.033 0 .067-.017.1-.05h.1c.033-.033.067-.05.1-.05s.067-.017.1-.05c.033 0 .067-.017.1-.05h.1c0-.033.017-.05.05-.05.033-.033.067-.05.1-.05l2.4 2.4c-.1.1-.217.183-.35.25zm2.25-3.55-.1.4a9.778 9.778 0 0 1-.1.45l-.2.4a1.1 1.1 0 0 1-.15.35l-.2.4c-.1.1-.183.217-.25.35-.1.1-.183.217-.25.35l-2.45-2.45c.033-.033.05-.067.05-.1.033 0 .05-.017.05-.05.033-.033.05-.067.05-.1s.017-.067.05-.1c0-.033.017-.067.05-.1v-.05c.033-.033.05-.067.05-.1v-.1h3.45c0 .133-.017.283-.05.45zm-3.4-1.35v-.1c-.033-.033-.05-.067-.05-.1v-.05c-.033-.033-.05-.067-.05-.1s-.017-.067-.05-.1c0-.033-.017-.067-.05-.1 0-.033-.017-.05-.05-.05 0-.033-.017-.067-.05-.1l2.45-2.4c.1.1.183.217.25.35.1.1.183.2.25.3l.2.4c.067.133.117.267.15.4.067.1.117.233.15.4.067.133.117.267.15.4.033.133.067.283.1.45 0 .133.017.267.05.4H16.8zm9.2-.45.1-.4c.033-.133.083-.283.15-.45.033-.133.083-.267.15-.4a1.11 1.11 0 0 1 .15-.35l.2-.4c.1-.1.183-.217.25-.35.1-.1.183-.2.25-.3l2.45 2.4c-.033.033-.05.067-.05.1-.033 0-.05.017-.05.05-.033.033-.05.067-.05.1s-.017.067-.05.1c0 .033-.017.067-.05.1v.1l-.05.05v.1h-3.45c0-.133.017-.283.05-.45zm1.25 4.5c-.1-.1-.183-.217-.25-.35-.1-.1-.183-.217-.25-.35a3.27 3.27 0 0 0-.2-.35 1.954 1.954 0 0 1-.15-.4 1.95 1.95 0 0 1-.15-.4 3.56 3.56 0 0 1-.15-.45 1.644 1.644 0 0 1-.05-.4 9.79 9.79 0 0 0-.1-.45h3.45v.1c.033.033.05.067.05.1v.1c.033 0 .05.017.05.05.033.033.05.067.05.1s.017.067.05.1c0 .033.017.067.05.1l.05.05L27.25 34zm3.8 1.9c-.167 0-.317-.017-.45-.05a9.772 9.772 0 0 0-.45-.1l-.4-.1a1.953 1.953 0 0 0-.4-.15l-.4-.2-.4-.2c-.1-.067-.217-.15-.35-.25-.1-.067-.2-.15-.3-.25l2.4-2.4c.033 0 .067.017.1.05.033 0 .05.017.05.05.033 0 .067.017.1.05h.1c.033.033.067.05.1.05s.067.017.1.05h.1c.033 0 .067.017.1.05v3.4zm0-7.55h-.1c-.033.033-.067.05-.1.05h-.1c-.033.033-.067.05-.1.05s-.067.017-.1.05c-.033 0-.067.017-.1.05l-.05.05c-.033 0-.067.017-.1.05l-2.4-2.45c.1-.1.217-.183.35-.25.1-.1.217-.183.35-.25.1-.067.217-.133.35-.2l.4-.2c.133-.033.267-.083.4-.15l.4-.1c.133-.033.283-.067.45-.1.133 0 .283-.017.45-.05v3.45zm.85-3.45c.133 0 .283.017.45.05l.4.1c.167.033.317.067.45.1.133.067.267.117.4.15l.4.2c.1.067.217.133.35.2.133.1.25.183.35.25.133.1.25.183.35.25l-2.45 2.45c-.033-.033-.067-.05-.1-.05 0-.033-.017-.05-.05-.05-.033-.033-.067-.05-.1-.05-.033-.033-.067-.05-.1-.05l-.05-.05h-.1c-.033-.033-.067-.05-.1-.05h-.1V24.9zm2.8 9.95c-.1.1-.217.183-.35.25a3.28 3.28 0 0 0-.35.2l-.4.2a1.951 1.951 0 0 0-.4.15 9.773 9.773 0 0 1-.45.1l-.4.1a2.35 2.35 0 0 1-.45.05v-3.4c.033 0 .067-.017.1-.05h.1c.033-.033.067-.05.1-.05s.067-.017.1-.05l.05-.05h.1c.033-.033.067-.05.1-.05l.05-.05 2.45 2.4c-.1.1-.217.183-.35.25zm2.2-3.55-.1.4a9.79 9.79 0 0 1-.1.45 1.955 1.955 0 0 1-.15.4 3.26 3.26 0 0 1-.2.35l-.2.4c-.067.1-.15.217-.25.35-.067.1-.15.217-.25.35l-2.4-2.45c0-.033.017-.067.05-.1l.05-.05c0-.033.017-.067.05-.1v-.1c.033-.033.05-.067.05-.1l.05-.05v-.1c.033-.033.05-.067.05-.1h3.4c0 .133-.017.283-.05.45zm-3.35-1.35c0-.033-.017-.067-.05-.1v-.1c0-.033-.017-.05-.05-.05 0-.033-.017-.067-.05-.1v-.1c-.033-.033-.05-.067-.05-.1l-.05-.05c-.033-.033-.05-.067-.05-.1l2.4-2.4c.1.1.183.217.25.35.1.1.183.2.25.3l.2.4.2.4c.067.1.117.233.15.4l.1.4c.033.133.067.283.1.45.033.133.05.267.05.4h-3.4z"/></g></svg>