<svg xmlns="http://www.w3.org/2000/svg" width="40" height="40"><g fill-rule="evenodd"><path fill="#5a3c3c" d="M5.1 11.15q-.45-.5-1.35-1.3-1-.8-1.55-1.4-.25-.25-.05-.35t.8-.05q.55 0 1.45.15.85.15 1.95.4 1.05.25 2.3.55 1.15.3 2.4.65 1.2.35 2.45.7 1.15.35 2.25.65.2-.25.45-.45.25-.15.55-.35.25-.1.55-.25.25-.1.55-.15.25-.1.55-.15.25 0 .45-.05.25 0 .45-.05h.6q.25 0 .45.05.25.05.5.05.25.05.5.15.3.05.6.15.25.15.55.3.25.15.5.35t.45.4q1.05-.3 2.3-.65 1.15-.35 2.45-.65 1.25-.3 2.45-.6Q31.9 9 33 8.75q1.1-.2 1.95-.35.9-.15 1.45-.2t.75 0q.15.05-.15.25-.1.1-.25.15-.15.15-.3.25l-.4.3-.4.4q-.25.2-.45.4-.25.25-.5.55t-.55.6q-.25.3-.55.65.9-.4 1.6-.65.75-.3 1.35-.55.65-.2 1.15-.35t.85-.25q.4-.1.7-.1.25 0 .45.05.15.05.25.2.05.15.05.4-.05.35-.15.75-.15.35-.35.75-.15.35-.4.75-.25.35-.55.7t-.6.7l-.65.65q-.3.25-.65.55-.3.25-.6.45.45.1.5.55 0 .35-.3 1-.3.55-.9 1.3-.5.65-1.25 1.45-.6.7-1.35 1.45-.6.6-1.25 1.2-.45.45-.9.85-.2.15-.35.3l3.1 7.15-8.55-2.55q-.3.45-.6.85t-.6.7q-.3.35-.65.6-.35.3-.65.5-.35.2-.7.35-.35.2-.65.3-.35.1-.7.15-.3.05-.65.05t-.65-.05q-.35-.05-.65-.15-.35-.1-.7-.25-.35-.2-.65-.4-.35-.2-.7-.45l-.6-.6q-.35-.35-.65-.75t-.55-.85L6.2 31l3.4-7.2-.2-.2q-.65-.65-1.2-1.15l-1.3-1.3q-.65-.7-1.2-1.3-.6-.65-1.05-1.25-.5-.6-.8-1.1-.35-.5-.45-.85-.1-.4.1-.6.15-.25.65-.25-.6-.4-1.1-.8-.45-.4-.85-.8-.4-.35-.7-.7t-.55-.7q-.2-.3-.35-.6l-.3-.5q-.1-.25-.15-.45-.1-.2-.1-.35-.05-.25-.05-.45.05-.2.15-.3.1-.15.3-.2T.9 9.9q.3 0 .7.1.4.05.95.2.5.15 1.15.4t1.4.55m27.2.45v.05l-.3.3V12l-.05.05-.1.05v.05l-.15.15v.05l-.05.05h-.05q-.05.1-.25.3l-.7.9q-.35.45-.7.95t-.65 1-.65 1l-.6 1q-.25.5-.55 1.05-.3.5-.55 1-.25.55-.5 1.05l-.5.1q-.2.1-.45.15l-.5.2q-.25.1-.45.2l-.5.2q-.25.1-.5.25t-.5.25q-.25.15-.5.35-.05.25-.05.45-.05.25-.05.5-.05.2-.05.45t0 .45q-.05.25-.05.5 0 .2.05.45v.45q0 .25.05.5v.3l.05.05v.35h.05v.3l.05.1v.2l.05.05v.2h.05v.2l.05.05v.15l.05.05v.2h.05v.1q-.2.25-.4.45t-.4.4-.4.35-.4.3-.4.25-.4.15-.4.15h-.45q-.2 0-.4-.05-.15 0-.35-.05l-.4-.2q-.2-.05-.4-.2-.2-.1-.35-.25-.2-.15-.4-.35-.2-.15-.4-.35t-.35-.4v-.15h.05v-.15l.05-.1v-.15h.05v-.15l.05-.1v-.15l.05-.05v-.2l.05-.05v-.25l.05-.1v-.2l.05-.1v-.25l.05-.05v-.35q.05-.25.05-.5v-.45q.05-.25.05-.5t0-.45q-.05-.25-.05-.5T17 23.2q0-.25-.05-.5 0-.25-.05-.5l-.5-.3q-.25-.15-.5-.25-.25-.15-.5-.25t-.5-.25q-.2-.1-.45-.15l-.5-.2q-.25-.05-.45-.15l-.5-.1h-.05l-.15-.15v-.05l-.05-.05-.05-.15-.1-.2-.05-.15-.1-.1-.05-.1v-.1q-.1-.15-.6-1.1-.05-.05-.05-.1h-.05v-.1h-.05v-.05l-.05-.05-.05-.1-.2-.3-.05-.15v-.05l-.1-.15h-.05l-.05-.15-.4-.6-.1-.2-.3-.45-.15-.2-.5-.75-.05-.05-.05-.05-.2-.3-.15-.15v-.05l-.05-.05v-.05H9.1l-.05-.1-.05-.05v-.05l-.05-.05H8.9l-.1-.15-.05-.1-.1-.1v-.05l-.1-.1-.05-.1h-.05l-.05-.1-.05-.05q-.05-.1-.1-.15L8.1 13q-.05-.1-.15-.15-.05-.1-.1-.15-.05-.1-.15-.2-.05-.05-.1-.15-.1-.05-.15-.15l-.15-.15V12l-.1-.05v-.05l-.1-.05v-.05l-.2-.2v-.05l-.1-.1q-.2-.25-.3-.3l-.05-.05Q5.3 10 5.2 9.85q-.05-.05-.05-.1-.05 0-.05-.05t0-.05V9.6l.05-.05q.05 0 .1-.05h.25q1.15 0 10 2.75.15.45.35.9t.4.85.45.8q.2.4.5.75l.5.7q.3.35.6.65t.65.6q.3.3.65.55.35-.25.7-.55l.6-.6q.3-.3.6-.65t.55-.7.5-.75.45-.8.4-.85q.2-.4.35-.9 8.9-2.75 10-2.75h.2q.05.05.1.05t.05.05 0 .05 0 .05v.05q-.05.05-.05.1-.3.35-.95.95-.6.5-.75.75h.05l-.1.05M8.9 28.7l3.35-6.75h.8q.05 0 .15.05h.2q.05.05.15.05h.05q.15.05.25.1.15.05.25.1.15.05.25.1.15.05.25.15.15.05.25.15t.25.15l.2.2q.1.1.2.25.05.2.05.4.05.2.05.4t0 .4 0 .4 0 .4q0 .15-.05.35 0 .2-.05.35 0 .2-.05.4l-.05.1v.2h-.05v.2h-.05v.1L8.9 28.7m18.3-6.65 3.4 6.7-6.45-1.7v-.1l-.05-.05v-.15l-.05-.05v-.2l-.05-.05v-.1q-.05-.2-.05-.35-.05-.2-.05-.35-.05-.2-.05-.4v-1.1q0-.2.05-.4 0-.2.05-.4l.3-.3q.15-.1.3-.25l.3-.2q.15-.1.35-.2.15-.05.35-.15.15-.05.35-.1.15-.05.35-.05.15-.05.35-.05h.6m8-5.4h.1q.05 0 .05.05t.05.05v.1q0 .1-.1.35-.15.2-.4.55-.2.3-.6.7-.3.35-.75.8l-.9.9q-.4.35-.95.9.3-.25-.95.95-.6.55-.95.95h-.05l-.05.05h-.05q-.25-.45-.8-1.4-.25-.35-.75-1.15v-.05l-.05-.05v-.1q0-.05.05-.1 0-.05.05-.15 0-.05.05-.15t.1-.2.1-.2.1-.25q3.25-1.5 5.25-2.15h.15q0-.05.05-.05h.1q.25-.1.6-.2h.05q.05-.05.1-.05t.05 0q.05 0 .1-.05h.1q.05 0 .1-.05h.05M4.85 16.6l.1.05q.1 0 .15.05.1 0 .2.05h.15q.1.05.15.05.1.05.2.05.05.05.15.05.1.05.15.05.1.05.2.05l.5.2q.25.05.55.15l.5.2q.25.1.55.2.25.1.5.25.25.1.55.2.25.1.5.25.25.1.55.25h.05q.1.2.25.4.1.2.2.35.05.2.15.35.05.1.15.25.05.15.1.25t.05.2q.05.05.1.15v.1q.05 0 .05.05l-1.35 2Q9.4 22 8.35 21l-.4-.4q-.1-.15-.35-.4-.35-.3-.85-.8l-.15-.15q-1-1-1.4-1.55l-.05-.05v-.05H5.1l-.1-.2q-.1-.1-.1-.15l-.05-.05-.05-.05V17h-.05v-.25l.05-.05q.05-.05.05-.1m34-5.65q.05.05.05.1t.05.05q0 .05-.05.1-.05.25-.2.55-.1.25-.25.55-.2.25-.4.55-.2.25-.5.55-.25.3-.6.6-.3.3-.7.6-.35.3-.8.65t-.95.7l-.6.2-.1.05-.15.05-.1.05q-.4.15-.95.35l-.1.05-.15.05-.2.05h-.05q-1.8.75-2.7 1.15h-.1l-.1.05q1.5-2.35 3.55-5.1h.05q.55-.2.55-.25.15-.05.5-.2.5-.2.9-.35.45-.2.85-.35t.8-.3q.35-.1.7-.25.35-.1.6-.15.3-.1.5-.1.25-.05.4-.05t.25.05M7.25 16.5l-.1-.05-.3-.1-.1-.05-.15-.05h-.05q-.05 0-.1-.05l-.1-.05H6.3q-.1-.05-.4-.15l-.25-.1v.05q-.5-.35-.95-.7-.4-.3-.8-.65-.4-.3-.7-.6-.35-.3-.6-.6-.3-.3-.5-.55-.2-.3-.4-.55-.15-.3-.3-.55-.1-.3-.15-.55v-.05q-.05-.15.05-.2.05-.05.25-.05.15 0 .45.05.25.05.6.15.3.05.7.2t.85.3q.45.2.95.4.45.15 1 .4.3.4.6.75.3.4.6.75.25.35.55.7.25.35.45.65.25.35.45.65t.4.6q.2.25.4.55l.3.5q-1.1-.5-2.6-1.05m12.35-5.45h.6l.05.05h.2l.05.05h.15l.05.05h.15v.05H21v.05h.1l.05.05h.1v.05h.1v.05h.1v.05h.1v.05h.1v.05h.05v.05h.1v.05h.05l.05.05h.05v.05H22v.05h.1v.05h.05v.05h.05V12h.05v.05h.1q0 .05.05.05 0 .05.05.05 0 .05.05.05v.05h.05l.25.25q-.15.35-.3.65t-.3.6-.35.6-.4.55-.4.5-.45.5l-.5.4q-.25.25-.5.4l-.5-.4q-.25-.2-.45-.45-.25-.25-.45-.5t-.4-.5q-.2-.3-.35-.55-.2-.3-.35-.6t-.3-.6-.3-.65l.05-.05.1-.1.05-.05.05-.05v-.05h.05l.05-.05h.05v-.05h.05V12H17v-.05h.05q0-.05.1-.1h.05v-.05h.05v-.05h.1v-.05h.05v-.05h.05l.1-.05h.05v-.05h.05v-.05h.1v-.05h.1l.05-.05h.05l.05-.05h.1v-.05h.1l.05-.05h.1v-.05h.2v-.05h.15q.05 0 .05-.05H19v-.05h.6"/><path fill="#cd5a5a" d="M8.35 13.3q-.1-.1-.2-.25-.1-.1-.15-.2-.1-.1-.2-.25l-.2-.2q-.1-.15-.2-.25t-.2-.25l-.2-.2q-.1-.1-.2-.25-.2-.25-.3-.3l-.05-.05Q5.3 10 5.2 9.85q-.15-.2 0-.3.1-.1.55-.05.4.05 1.05.2.6.15 1.45.35.7.2 1.65.5.8.25 1.85.55.75.25 1.9.6 1.45.45 1.85.55.15.45.35.9t.4.85.45.8q.2.4.5.75l.5.7q.3.35.6.65t.65.6q.3.3.65.55.35-.25.7-.55l.6-.6q.3-.3.6-.65t.55-.7.5-.75.45-.8.4-.85q.2-.4.35-.9.55-.15 1.8-.55t1.9-.6q1.05-.3 1.85-.55.95-.3 1.7-.5l1.4-.35q.7-.15 1.1-.2t.55.05 0 .3q-.3.35-.95.95-.6.5-.75.75h.05l-.9 1q-.4.5-.85 1.05l-.8 1.1q-.4.55-.75 1.15t-.75 1.2q-.35.6-.65 1.2-.35.6-.65 1.2t-.6 1.2l-.5.1q-.2.1-.45.15l-.5.2q-.25.1-.45.2l-.5.2q-.25.1-.5.25t-.5.25q-.25.15-.5.35-.05.4-.1.75-.05.4-.05.75-.05.4-.05.8 0 .35.05.75 0 .35.05.75.05.35.1.75t.1.75q.1.4.2.75-.2.25-.4.45t-.4.4-.4.35-.4.3-.45.25q-.2.1-.4.15-.2.1-.4.15h-.4q-.2 0-.4-.05-.15 0-.35-.05l-.4-.2q-.2-.05-.4-.2-.2-.1-.35-.25-.2-.15-.4-.35-.2-.15-.4-.35t-.35-.4l.2-.8q.1-.4.15-.8t.1-.75q.05-.4.05-.8.05-.4.05-.8t-.05-.8-.05-.8-.1-.85l-.5-.3q-.25-.15-.5-.25-.25-.15-.5-.25t-.5-.25q-.2-.1-.45-.15l-.5-.2q-.25-.05-.45-.15l-.5-.1h-.05l-.15-.15-.1-.2v-.05l-.15-.3v-.05l-.05-.1h-.05l-.05-.1v-.1q-.1-.15-.6-1.1-.1-.1-.25-.4l-.05-.05v-.05l-.05-.05v-.05l-.05-.05v-.05h-.05v-.1l-.05-.05-.05-.1h-.05v-.1h-.05v-.1l-.1-.1v-.05l-.1-.1v-.05l-.05-.05-.05-.1-.05-.05v-.05l-.1-.1v-.05l-.1-.1v-.05l-.05-.05-.05-.1-.1-.1v-.05l-.1-.1v-.05l-.1-.1v-.05l-.05-.05v-.05h-.05v-.05l-.1-.1-.05-.1-.05-.05v-.05l-.1-.1v-.05l-.1-.1v-.05l-.2-.2v-.05l-.1-.1v-.05l-.1-.1v-.05l-.05-.05H9.2q0-.05-.05-.1 0-.05-.05-.05 0-.05-.05-.1 0-.05-.05-.1l-.05-.05H8.9l-.05-.1-.05-.05-.05-.1q-.05-.1-.2-.25t-.15-.2l-.05-.05m18.85 8.75 3.4 6.7-6.45-1.7q-.05-.2-.1-.45l-.1-.4q-.05-.25-.05-.45-.05-.25-.05-.45v-1.45l.1-.5.3-.3q.15-.1.3-.25l.3-.2q.15-.1.35-.2.15-.05.35-.15.15-.05.35-.1.15-.05.35-.05.15-.05.35-.05h.6M8.9 28.7l3.35-6.75h.9V22h.2l.1.05h.1q.15.05.25.1.15 0 .25.05.15.1.3.15.1.05.25.1l.2.2q.15.05.25.15.15.1.25.2t.2.25q.05.25.05.5.05.25.05.5t0 .45v.5q0 .2-.05.45 0 .2-.05.45-.05.2-.1.45l-.1.4-6.4 1.75m19.6-9.5q.45-.2.85-.4.45-.2.9-.35.45-.2.85-.4.45-.15.85-.35.45-.15.85-.3t.85-.3q.4-.15.8-.25.45-.1.85-.2l.05.05q0 .05.05.05v.1q0 .1-.1.35-.15.2-.4.55-.2.3-.6.7-.3.35-.75.8l-.9.9q-.4.35-.95.9.3-.25-.95.95-.6.55-.95.95h-.05q0 .05-.1.05-.45-.8-1.55-2.55-.05 0-.05-.05t0-.05v-.15q.05-.05.05-.15.05-.05.1-.15 0-.1.05-.2t.15-.25q.05-.1.1-.25m-18.25 3.6q-.35-.35-.95-.9l-.95-.95q-.55-.5-.95-.9l-.85-.85q-.45-.45-.75-.8-.35-.4-.6-.7-.2-.3-.35-.5-.1-.25-.1-.35 0-.05.05-.1v-.05q.05-.05.05-.1l.7.2.7.2q.35.1.7.25.35.1.75.25l.7.3q.35.1.7.3.4.15.75.3t.7.3q.55 1.05 1.05 2.1l-1.35 2m22.5-9.9q.75-.3 1.2-.5.7-.25 1.2-.45.6-.25 1.05-.45.55-.15.95-.3.45-.15.8-.2.35-.1.55-.1.25 0 .35.05t.05.25q-.05.25-.2.55-.1.25-.25.55-.2.25-.4.55-.2.25-.5.55-.25.3-.6.6-.3.3-.7.6-.35.3-.8.65t-.95.7q-3.15 1.1-5.3 2.05 1.5-2.35 3.55-5.1m-22.9 4.65q-1.65-.7-4.2-1.65v.05q-.5-.35-.95-.7-.4-.3-.8-.65-.4-.3-.7-.6-.35-.3-.6-.6-.3-.3-.5-.55-.2-.3-.4-.55-.15-.3-.3-.55-.1-.3-.15-.55-.05-.15.05-.2.05-.1.25-.1.15 0 .4.05t.6.1q.35.1.75.25t.85.3.95.4q.45.15 1 .4.3.4.6.75.3.4.6.75.25.35.55.7.25.35.45.65.25.35.45.65t.4.6q.2.25.4.55l.3.5m6.65-5.1q.15-.2.35-.35t.4-.3q.15-.15.35-.25t.4-.2.4-.15.4-.1.4-.05.4 0 .4 0q.2.05.4.05l.4.1q.25.1.45.2.2.05.4.2.2.1.4.25t.35.3q.2.2.4.35-.15.35-.3.65t-.3.6-.35.6-.4.55-.4.5-.45.5l-.5.4q-.25.25-.5.4l-.5-.4q-.25-.2-.45-.45-.25-.25-.45-.5t-.4-.5q-.2-.3-.35-.55-.2-.3-.35-.6t-.3-.6-.3-.65"/></g></svg>