<svg xmlns="http://www.w3.org/2000/svg" width="40" height="40"><g fill-rule="evenodd"><path fill="#3c5573" d="M31.55 32.45q-2.05 2-4.35 3.45-2.2 1.4-4.45 2.25-2.25.8-4.4 1.05-2.2.2-4.1-.2-2-.45-3.65-1.5-1.65-1.1-2.9-2.8-1.25-1.8-1.95-4.15Q5 28.05 4.9 25q-.25-.2-.5-.45t-.4-.6q-.2-.3-.4-.7-.15-.4-.3-.9-.1-.5-.2-1.05-.05-.55-.1-1.15-.05-.65 0-1.35 0-.75.05-1.5.05-.35.05-.7v-.65q-.05-.3-.05-.65l-.1-.6q-.05-.35-.15-.7-.1-.3-.2-.65t-.2-.75-.25-.8q.3-.05.6-.05.3-.05.6-.05.3-.05.6-.05t.6.05.6.05q.35 0 .65.05t.6.15.6.15q-1-.7-3.05-2.1l2.55-.25q.45-.1.6-.3.2-.25.1-.5t-.4-.45q-.3-.25-.75-.35Q5.5 8 4.9 8.05q-.7 0-1.4.25-.85.3-1.65.8Q.9 9.7 0 10.55.35 8.9 1.2 7.5 2 6.1 3.25 4.95 4.4 3.9 5.9 3.05 7.35 2.25 9 1.7q1.6-.5 3.35-.7T15.8.9q1.75.1 3.35.55 1.65.4 3.05 1.15 1.4-.45 2.7-.7t2.55-.3 2.45.1q1.15.15 2.3.5 1.1.35 2.15.9t2 1.35q1 .75 1.9 1.75T40 8.45q-.55 1.05-1.25 2-.65.9-1.45 1.75-.75.85-1.65 1.6-.85.75-1.8 1.45t-2 1.3q-1 .6-2.1 1.15-1.1.5-2.25 1-1.15.45-2.4.9-.1.4-.2.75-.15.35-.3.65t-.35.6-.4.55q-.2.3-.45.5-.25.25-.5.45l-.6.4q-.25.15-.6.3-.4.2-.85.55-.4.3-.85.7-.35.4-.75.9-.35.45-.7 1-.35.5-.65 1.05l-.5 1q-.2.45-.35.9-.2.45-.25.8-.2-.2-.35-.5-.15-.25-.25-.6-.05-.3-.1-.65-.05-.3-.05-.7 0-.3.05-.7.05-.3.1-.65l.2-.6q.1-.3.2-.55t.2-.55q.1-.25.15-.45 0-.25.05-.45v-.6q-.05-.1-.05-.2t-.05-.15 0-.05q-1.1.6-2 1.2-.85.65-1.5 1.3-.6.65-1.05 1.35-.4.7-.65 1.4-.2.7-.3 1.5-.05.7 0 1.5.1.75.3 1.55.2.75.5 1.55 1.05-.25 2.05-.65.95-.4 1.9-.95.9-.5 1.8-1.2.85-.6 1.7-1.35.8-.7 1.65-1.5.75-.75 1.6-1.65.65-.7 1.6-1.75 1.8-1.95 1.65-1.75-.8 1.85-1.3 3-.55 1.45-.9 2.5-.35 1.1-.45 1.9-.1.85.1 1.4.25.55.8.85.55.25 1.5.25.95-.05 2.35-.35t3.3-.95m-18.6 3.95q.9-.25 1.35-.35.65-.2 1.15-.35.55-.2 1-.35.5-.2.95-.45.45-.2.9-.5t.95-.65q.45-.35 1-.8t1.15-1.05q-.05.35-.1.65 0 .35.1.65.05.3.15.6.15.25.35.5t.45.45.6.35q.3.15.7.25t.85.1q-1 .4-1.85.65-.9.35-1.7.55-.85.25-1.55.45-.75.15-1.45.25-.7.05-1.35.05t-1.3-.1q-.6-.1-1.2-.3-.55-.25-1.15-.6M9.4 33.5q-1.1-1.6-1.65-3.55-.55-1.9-.5-4.05 0-2.15.5-4.35.55-2.2 1.55-4.3 1-2.15 2.45-4.1Q13.2 11.1 15 9.45q1.9-1.7 4.05-2.95 2.3-1.3 4.75-2.05-.5.95-.8 1.9-.3.9-.45 1.75t-.1 1.65q0 .8.15 1.6.15.75.5 1.45.3.75.7 1.4.45.7 1 1.3.55.65 1.25 1.25-2.4.75-4.5 1.55t-3.9 1.65q-1.8.9-3.25 1.85t-2.55 2q-1.1 1-1.85 2.15-.7 1.1-1.05 2.3-.3 1.25-.2 2.55t.65 2.7m9.1-11.1.1.3.1.2q0 .15.05.2v.4q0 .1-.05.2 0 .1-.05.25-.25 1.25-.05.3.15-.2.3-.35.15-.2.3-.35.2-.15.35-.25l.3-.3q.15-.1.35-.2.15-.1.35-.2t.4-.25q.2-.05.45-.2.15-.05.25-.15.15-.05.25-.15.15-.05.25-.15t.15-.2l.2-.2q.05-.15.15-.3.05-.1.1-.25t.15-.3q-1.4.45-2.3.85-.85.35-2.1 1.1M4.8 13.85h1.3q.2.05.3.05.15.05.3.05.6.3 1.25.6-.3.65-.55 1.2t-.5 1.1q-.2.45-.35.95l-.3.9q-.1.4-.25.85-.1.4-.2.85-.1.35-.2.9-.6 2.65-.2.95.05.15-.15-.3-.1-.2-.15-.35t-.1-.35q-.05-.25-.05-.5-.05-.3-.05-.65v-.95q.05-.55.1-1.25t.1-1.6v-.75q-.05-.15-.05-.4l-.1-.4q0-.15-.05-.35-.05-.15-.05-.3-.05-.1-.05-.2v-.05m21.65-9.9q-.45 1.15-.75 2-.35 1-.55 1.75-.2.85-.25 1.5-.05.75.05 1.4t.35 1.25q.25.65.7 1.25.4.65 1.05 1.3.6.65 1.45 1.45.9-.4 1.7-.8t1.5-.85q.7-.4 1.35-.85t1.2-.95l1-.9q.45-.5.85-1 .35-.45.65-.95t.55-1q-.55-.8-1.15-1.4Q35.6 6.5 35 6t-1.25-.9q-.6-.35-1.3-.6-.65-.25-1.35-.45-.7-.15-1.45-.2t-1.55 0q-.8 0-1.65.1M9.95 11.6l-1.2-.85q.5-.4.75-.9.25-.45.3-.95 0-.5-.2-.95-.2-.5-.55-.9T8.2 6.4q-.5-.3-1.05-.45-.65-.1-1.3-.05-.7.1-1.35.4 1.15-.65 2-1.15l1.8-.9q.9-.4 1.7-.65t1.65-.4q.8-.15 1.65-.2t1.8.05q.9.05 1.95.25t2.25.5l-1.3.6q-.65.3-1.25.7-.6.35-1.2.8-.55.4-1.1.9-.6.45-1.15 1-.55.5-1.1 1.15-.55.55-1.1 1.25-.55.65-1.15 1.4m21.45-6q.15 0 .35.05.15 0 .3.1.15.05.25.15.15.05.25.2l.2.2q.1.15.15.3t.1.3v.3q0 .15-.05.35 0 .15-.05.3-.05.1-.15.25t-.2.25-.25.2q-.1.05-.25.15l-.3.1h-.35q-.15 0-.3-.05-.15 0-.3-.05-.15-.1-.3-.15l-.2-.2q-.1-.1-.2-.25-.1-.1-.15-.25t-.1-.3V6.9l.1-.3q.05-.15.15-.3l.2-.2q.1-.15.25-.2.1-.1.25-.15t.3-.1.3-.05"/><path fill="#6987aa" d="M12.95 36.4q.9-.25 1.35-.35.65-.2 1.15-.35.55-.2 1-.35.5-.2.95-.45.45-.2.9-.5t.95-.65q.45-.35 1-.8t1.15-1.05q-.05.35-.1.65 0 .35.1.65.05.3.15.6.15.25.35.5t.45.45.6.35q.3.15.7.25t.85.1q-1 .4-1.85.65-.9.35-1.7.55-.85.25-1.55.45-.75.15-1.45.25-.7.05-1.35.05t-1.3-.1q-.6-.1-1.2-.3-.55-.25-1.15-.6M9.4 33.5q-1.1-1.6-1.65-3.55-.55-1.9-.5-4.05 0-2.15.5-4.35.55-2.2 1.55-4.3 1-2.15 2.45-4.1Q13.2 11.1 15 9.45q1.9-1.7 4.05-2.95 2.3-1.3 4.75-2.05-.5.95-.8 1.9-.3.9-.45 1.75t-.1 1.65q0 .8.15 1.6.15.75.5 1.45.3.75.7 1.4.45.7 1 1.3.55.65 1.25 1.25-2.4.75-4.5 1.55t-3.9 1.65q-1.8.9-3.25 1.85t-2.55 2q-1.1 1-1.85 2.15-.7 1.1-1.05 2.3-.3 1.25-.2 2.55t.65 2.7m9.1-11.1.1.3.1.2q0 .15.05.2v.4q0 .1-.05.2 0 .1-.05.25-.25 1.25-.05.3.15-.2.3-.35.15-.2.3-.35.2-.15.35-.25l.3-.3q.15-.1.35-.2.15-.1.35-.2t.4-.25q.2-.05.45-.2.15-.05.25-.15.15-.05.25-.15.15-.05.25-.15t.15-.2l.2-.2q.05-.15.15-.3.05-.1.1-.25t.15-.3q-1.4.45-2.3.85-.85.35-2.1 1.1M4.8 13.85h1.3q.2.05.3.05.15.05.3.05.6.3 1.25.6-.3.65-.55 1.2t-.5 1.1q-.2.45-.35.95l-.3.9q-.1.4-.25.85-.1.4-.2.85-.1.35-.2.9-.6 2.65-.2.95.05.15-.15-.3-.1-.2-.15-.35t-.1-.35q-.05-.25-.05-.5-.05-.3-.05-.65v-.95q.05-.55.1-1.25t.1-1.6v-.75q-.05-.15-.05-.4l-.1-.4q0-.15-.05-.35-.05-.15-.05-.3-.05-.1-.05-.2v-.05m21.65-9.9q-.45 1.15-.75 2-.35 1-.55 1.75-.2.85-.25 1.5-.05.75.05 1.4t.35 1.25q.25.65.7 1.25.4.65 1.05 1.3.6.65 1.45 1.45.9-.4 1.7-.8t1.5-.85q.7-.4 1.35-.85t1.2-.95l1-.9q.45-.5.85-1 .35-.45.65-.95t.55-1q-.55-.8-1.15-1.4Q35.6 6.5 35 6t-1.25-.9q-.6-.35-1.3-.6-.65-.25-1.35-.45-.7-.15-1.45-.2t-1.55 0q-.8 0-1.65.1M9.95 11.6l-1.2-.85q.5-.4.75-.9.25-.45.3-.95 0-.5-.2-.95-.2-.5-.55-.9T8.2 6.4q-.5-.3-1.05-.45-.65-.1-1.3-.05-.7.1-1.35.4 1.15-.65 2-1.15l1.8-.9q.9-.4 1.7-.65t1.65-.4q.8-.15 1.65-.2t1.8.05q.9.05 1.95.25t2.25.5l-1.3.6q-.65.3-1.25.7-.6.35-1.2.8-.55.4-1.1.9-.6.45-1.15 1-.55.5-1.1 1.15-.55.55-1.1 1.25-.55.65-1.15 1.4m21.45-6q.15 0 .35.05.15 0 .3.1.15.05.25.15.15.05.25.2l.2.2q.1.15.15.3t.1.3v.3q0 .15-.05.35 0 .15-.05.3-.05.1-.15.25t-.2.25-.25.2q-.1.05-.25.15l-.3.1h-.35q-.15 0-.3-.05-.15 0-.3-.05-.15-.1-.3-.15l-.2-.2q-.1-.1-.2-.25-.1-.1-.15-.25t-.1-.3V6.9l.1-.3q.05-.15.15-.3l.2-.2q.1-.15.25-.2.1-.1.25-.15t.3-.1.3-.05"/></g></svg>