<svg xmlns="http://www.w3.org/2000/svg" width="40" height="40"><g fill-rule="evenodd"><path fill="#2d2d2d" d="M20.05 9.85q.2.05.4.15.2.15.35.25.2.15.35.35.15.15.3.35t.25.45q.1.2.2.45t.2.55l.1.5q.2-.15.35-.2.2-.1.4-.1t.4.05q.15 0 .5.05.35.1.6.1.35.1.7.1.4.05.85 0 .5 0 1.05-.05l.3-2q-.4-.5-.7-1-.35-.45-.55-.95-.25-.45-.4-.9-.15-.5-.25-.95-.05-.45-.05-.9t.1-.9.3-.9q.15-.45.45-.9.15.3.25.6.15.3.3.55.1.3.25.55t.3.5q.2.25.35.45t.35.4q.15.15.35.3t.4.3q.15-.1.2-.3t0-.5q0-.25-.1-.65-.05-.35-.2-.8-.15-.4-.35-.95-.15-.45-.4-1.15.05.15-.5-1.3-.3-.8-.55-1.45.85.35 1.55.8.65.4 1.2.9.55.4.95.9.4.45.7.95.3.45.5.95.2.45.35.9.1.4.2.85l.1.8q.05.3.05.55v.45q-.05.2-.05.4 0 .1-.05.35v.3q-.05.15-.05.25.05.15.05.25.05.15.1.25.2-.25.35-.5t.2-.55q.1-.25.1-.6v-.6q-.05-.3-.1-.7 0-.25-.1-.75-.1-.55-.15-.85-.05-.5-.1-.9 1.35.9 2.2 1.95t1.25 2.15.35 2.25q-.1 1.15-.6 2.2-.5 1.1-1.4 2.05-.95.95-2.25 1.7-1.35.8-3 1.3-1.7.55-3.7.8.5.4.85.8.4.4.65.8.25.45.35.85t.15.85q0 .4-.1.85-.1.4-.35.8-.2.4-.5.85-.35.4-.75.8l-.2-.1-.2-.1q-.05-.05-.15-.1l-.15-.15-.1-.1q-.1-.05-.15-.15l-.15-.15-.1-.1q-.05.4-.05.85-.05.3-.05.9-.05.55-.05.85-.05.45-.05.85-.05.45-.15.85-.05.45-.15.85-.15.45-.3.85-.15.45-.4.9-.1.25-.2.45-.1.25-.15.45l-.1.5q-.05.2-.1.45-.05.2-.05.45 0 .2-.05.45v.45l-.05.45q0 .3-.05.6t-.1.65l-.1.6q-.1.35-.2.65-.05.35-.15.65-.15.3-.25.65-.15.3-.25.6l-.3.6h-2.6q-.2-.35-.35-.7t-.3-.65q-.1-.35-.2-.65t-.2-.6-.15-.6-.1-.6-.1-.6q-.05-.25-.05-.6 0-.2-.05-.45 0-.15-.05-.45v-.45q0-.25-.05-.45 0-.25-.05-.45-.05-.25-.1-.45-.05-.25-.15-.5-.1-.2-.2-.45-.25-.45-.4-.9-.15-.4-.3-.85-.1-.4-.15-.85-.1-.4-.15-.85 0-.4-.05-.85 0-.3-.05-.85v-.9q-.05-.45-.1-.85l-.1.15q-.1.05-.15.1-.05.1-.1.15-.1.05-.15.15-.1.05-.15.1-.1.05-.15.1l-.2.1-.2.1q-.4-.4-.75-.8-.3-.45-.5-.85t-.3-.85-.1-.85q.05-.45.15-.85.15-.45.4-.85.25-.45.65-.85.35-.4.85-.8-2-.2-3.75-.8-1.65-.5-3.05-1.3-1.3-.8-2.3-1.75-.95-1-1.45-2.05-.55-1.1-.6-2.2-.05-1.15.4-2.25.45-1.15 1.4-2.1Q6.35 5.2 7.85 4.4q-.1.35-.2.85.6-2.3-.25.85-.15.45-.2.75-.1.45-.15.8t-.05.7q-.05.35.05.65.05.35.15.65.15.3.4.6.05-.1.1-.25.05-.1.1-.3.05-.15.1-.35t.05-.45q.05-.2.1-.45 0-.2.05-.55.05-.45.1-.65l.1-.7q0-.5.05-.85 0-.45.1-.85t.25-.8.4-.75q.25-.4.65-.8.35-.4.85-.75.55-.4 1.2-.75.7-.4 1.5-.8-1.7 3.95-.65 1.5-.35.8-.6 1.35-.25.65-.45 1.15-.2.55-.35.95-.15.45-.2.85-.1.35-.1.6.05.3.1.5.1.2.3.3.2-.1.4-.3.15-.15.35-.3.15-.2.35-.4.15-.2.3-.45t.3-.5.3-.55.3-.55q.1-.3.25-.6.25.45.45.9.15.45.25.85.1.45.1.85 0 .45-.1.85-.05.45-.2.85l-.4.9q-.25.45-.6.9-.3.5-.7 1l.3 2q.55.05 1.05.1.45 0 .85-.05.35 0 .75-.05.2-.05.6-.1.3-.1.45-.1.25-.05.45-.05l.4.1q.15.1.35.25.05-.2.1-.45.1-.2.15-.45.1-.2.25-.45.1-.2.25-.45.1-.2.25-.4l.35-.35q.2-.2.4-.3.2-.15.4-.25m.5 27.45q.25.15.4.25-.2.45-.35.95h-.8q.05-.05.1-.15l.1-.1q.05-.1.1-.15.05-.1.1-.15.05-.1.1-.15.05-.1.1-.15 0-.1.05-.2t.1-.15m.85-23.55-.45.65.45-.15-.2.4h.3q.1-.1.4-.2.25-.1.65-.15.35-.05.85-.05.4-.05 1-.1.3 0 1.05-.05.7 0 1.05-.05.55 0 1-.05.5-.05.9-.1L29 11q-.1-.15-.4-.45-.25-.35-.4-.5-.2-.3-.4-.55t-.35-.55-.35-.55-.25-.6-.15-.6q-.05-.35 0-.65l.2.5q.15.2.3.45l.3.4q.2.2.35.4.2.15.4.35.2.15.4.25.15.15.35.25.15.1.3.15h.05q.25-.15.4-.45.2-.25.3-.6t.1-.8q.05-.4 0-.9 0-.45-.15-1-.1-.5-.25-1.05t-.4-1.1q-.2-.55-.5-1.1v.05q.4.4.75.8.3.4.55.8t.4.8.3.8q.1.4.15.8.05.35.05.75v1.45q-.25 2.55-.55 5.1h.15q.05-.05.1-.05t.1-.05h.1q.05-.05.1-.05.05-.05.1-.05.05-.05.1-.05l.1-.1q-.05-.25-.05-.5-.05-.25-.05-.45-.05-.25-.05-.45 0-.25.05-.45v-.4q.05-.2.1-.35.05-.2.1-.35t.1-.3 0-.05v.25q.05.15.1.35t.1.4q.05.25.15.5t.15.45q.1.25.2.45.1.15.15.3.1.1.15.1.4-.25.75-.6.3-.3.5-.7.25-.35.35-.75.15-.4.2-.85.05-.4.05-.8t-.1-.8q-.05-.35-.15-.75l-.2-.6q.75.85 1.05 1.8.3.85.15 1.8-.1.9-.65 1.8-.5.9-1.35 1.7t-1.95 1.5q-1.15.65-2.5 1.15t-2.85.8q-1.55.25-3.15.25h-.1q.4.3.7.6.4.35.75.7t.65.7q.3.4.55.75.25.4.4.75.15.4.15.75.05.35-.1.65-.1.35-.4.65-.25-.1-1.85-1.85-.05.3-.05.75v.9q-.05 1.15-.05 1.05v1.15q-.05.6-.05 1.1-.05.65-.15 1.15-.05.55-.2 1.05-.1.5-.3.9-.1.2-.15.45-.1.2-.2.45t-.15.5l-.2.6q-.05.25-.1.55-.1.3-.15.6 0 .3-.05.6-.05.35-.05.65v.45q0 .2-.05.45 0 .2-.05.4 0 .2-.05.45-.05.2-.05.4-.05.15-.1.35t-.1.4l-.1.3q0-.05-.05-.05 0-.05-.05-.05 0-.05-.05-.05v-.05q-.05-.05-.05-.1l-.05-.05-.05-.05v-.05l.1-.3q0-.1.05-.25t.05-.35l.1-.3q0-.15.05-.35.05-.15.05-.35.05-.15.05-.35.05-.2.05-.35-.05-.15-.1-.35-.05-.1-.1-.3-.05-.15-.05-.2l-.1-.2q0-.1-.05-.15t-.05-.1q-.05-.1-.1-.15t-.1-.1q-.1 1.1-.15 1.2-.05-.1-.05-.2-.05-.1-.1-.25 0-.1-.05-.2 0-.1-.05-.2t-.05-.2q-.05-.15-.05-.25-.05-.1-.05-.2-.05-.1-.05-.25.2-.1.35-.25.15-.1.3-.25.15-.2.25-.35t.2-.35q.15-.2.2-.4.1-.25.15-.45l.1-.5q.05-.3.05-.55-.05-.05-.15-.1-.05-.05-.1-.15l-.15-.15q-25.05-35.7-.1-.2-.1-.15-.15-.2-.1-.1-.15-.2-.1-.1-.2-.15-.05-.05-.15-.1v.85q-.05.2-.05.45-.05.2-.05.45-.05.2-.1.45-.05.2-.1.45t-.15.45q-.05.25-.15.5-.05-.25-.1-.55-.05-.25-.05-.5-.05-.25-.05-.55-.05-.25-.05-.5-.05-.25-.05-.5t0-.5 0-.5v-.45q-.1.05-.2.15-.05.1-.15.25-.05.1-.15.25-.05.15-.15.3l-.15.3q-.05.15-.1.25-.1.15-.15.25l-.15.15q.05.5.1.95t.1.85q.1.4.2.75t.25.65q.1.35.25.6.15.3.35.55l.4.4.4.4v.15q-.05.1-.05.2v.15q-.05.1-.05.2 0 .05-.05.15v.2q-.05.05-.05.15t-.05.2l-.1-.2q-.05-.15-.1-.25 0-.1-.05-.2t-.1-.2q0-.1-.05-.2 0-.1-.05-.2v-.15q-.05-.1-.05-.15l-.1.1q-.05.05-.15.1 0 .05-.05.15-.05.05-.1.15l-.1.15-.1.1q0 .1-.05.15t-.1.05q0 .1.05.25l.1.2q.05.15.1.25t.1.2q.05.15.15.25.05.1.15.2.05.1.15.2t.2.2q-.4 1.2-.5 1.6-.05-.1-.1-.3-.1-.2-.15-.4-.1-.25-.15-.5-.1-.3-.15-.6-.1-.35-.15-.65-.1-.35-.1-.7-.05-.35-.1-.65-.05-.35-.05-.65t0-.65l-.1-.6-.1-.6q-.05-.25-.15-.55-.05-.3-.15-.55-.05-.25-.15-.5t-.2-.5q-.1-.2-.15-.4-.15-.4-.3-.9-.1-.45-.2-1.05-.05-.5-.1-1.1-.05-.5-.1-1.15 0-.5-.05-1.1V23.2q0-.65-.05-.95v-.8q.55-.55-.9.95-.7.8-.95.9h-.05q-.3-.3-.4-.6-.15-.35-.1-.7 0-.35.15-.7.15-.4.4-.75.25-.4.55-.75t.65-.75q.35-.35.75-.7l.7-.6h-.05q-1.6 0-3.15-.25-1.5-.3-2.9-.8-1.35-.5-2.45-1.15-1.15-.7-2-1.5t-1.35-1.7q-.55-.9-.7-1.8-.1-.95.2-1.85t1.05-1.75V7q-.15.3-.2.65-.1.35-.15.7-.1.4-.1.8t.05.8q.05.45.2.8.15.45.35.8t.5.7q.35.3.75.55.05 0 .15-.15l.15-.3q.1-.15.2-.4.05-.2.15-.45t.15-.5.1-.45.1-.3V10v.05l.1.3q.1.2.1.35.05.2.1.35v.4q.05.2.05.45 0 .2-.05.45 0 .2-.05.45 0 .25-.05.5.05.05.1.05l.1.1q.05 0 .1.05.05 0 .1.05h.1q.05.05.1.05t.15.05h.1l-.05-.2q0 .3-.2-2.7-.2-2-.15-2.1-.05-.45-.05-.8v-.8q0-.4.05-.75.05-.4.15-.75.1-.4.25-.75t.35-.75q.2-.35.5-.7t.65-.7v.05q-.3.55-.55 1.1-.25.5-.45 1.05-.15.5-.2 1-.1.45-.1.9t.05.8q.1.4.2.7.15.35.4.6.2.25.5.4.15-.05.25-.1.15-.1.3-.15.2-.1.35-.25.15-.1.3-.25.2-.15.35-.35.2-.15.35-.35t.3-.45q.15-.2.25-.45l-.1.5q-.05.25-.15.5-.1.2-.2.45t-.25.45q-.15.25-.3.45-.15.25-.35.5-.2.2-.4.45t-.45.5l.5 3.2q.4.05.9.1.45.05 1 .05.4.05 1.05.05.8.05 1.05.05.6.05 1 .05.5.05.85.1.4.05.65.15.3.05.4.2h.35l-.15-.4.35.05-.2-.35.6.15-.45-1.05.55.3-.2-1.05.35.2.2-1 .15.8.25-.45-.05.9.3-.35-.2.85.5-.4-.55.95.5-.5-.25.75.75-.3m-3.1 14.9q-.15-.25-.25-.5t-.15-.5-.1-.5v-.5q0-.25.05-.5t.1-.5l.2-.5.2-.5q.2 0 .35.1.15.05.3.15t.25.25.15.35.1.4q0 .2-.05.4-.05.25-.15.45-.15.25-.3.45-.1.05-.2.15l-.15.15q-.05.05-.1.15t-.1.2-.1.15v.2q-.05.15-.05.25t0 .2m3.45 0q.15-.25.25-.5t.15-.5q.1-.25.1-.5.05-.25 0-.5 0-.25-.05-.5t-.1-.5-.15-.5-.2-.5q-.2 0-.35.1-.2.05-.35.15-.1.1-.2.25-.15.15-.2.35t-.05.4.05.4q.05.25.15.45.1.25.3.45.1.05.15.15.1.05.15.15.1.05.15.15t.1.2q0 .1.05.15.05.1.05.2v.45"/><path fill="#735541" d="M20.55 37.3q.25.15.4.25-.2.45-.35.95h-.8q.05-.05.1-.15l.1-.1q.05-.1.1-.15.05-.1.1-.15.05-.1.1-.15.05-.1.1-.15 0-.1.05-.2t.1-.15m-1.1 1.05q-.05-.1-.1-.3-.1-.2-.15-.4-.1-.25-.15-.5-.1-.3-.15-.6-.1-.35-.15-.65-.1-.35-.1-.7-.05-.35-.1-.65-.05-.35-.05-.65t0-.65l-.1-.6-.1-.6q-.05-.25-.15-.55-.05-.3-.15-.55-.05-.25-.15-.5t-.2-.5q-.1-.2-.15-.4-.15-.4-.3-.9-.1-.45-.2-1.05-.05-.5-.1-1.1-.05-.55-.1-1.15 0-.55-.05-1.15v-1.05q0-.6-.05-.95v-.75q.6-.6-.9.95-.75.8-1 .9-.3-.3-.4-.6-.15-.35-.1-.7 0-.35.15-.7.15-.4.4-.75.25-.4.55-.75t.65-.75q.35-.35.75-.7l.7-.6q-1.6 0-3.15-.25-1.5-.3-2.9-.8-1.35-.45-2.5-1.15-1.15-.65-2-1.45-.85-.85-1.35-1.7-.55-.9-.7-1.85-.1-.95.2-1.85t1.05-1.75q-.15.3-.2.65l-.2.7q-.05.4-.05.8 0 .45.05.85t.2.8q.1.4.35.75.2.4.5.75.35.3.75.55.05 0 .15-.15l.15-.3q.1-.15.2-.4.05-.2.15-.45t.15-.5l.1-.4q.05-.25.1-.35V10v.05l.1.3q.1.2.1.35.05.2.1.35v.4q.05.2.05.45 0 .2-.05.45 0 .2-.05.45 0 .25-.05.5.05.05.1.05l.1.1q.05 0 .1.05.05 0 .1.05h.1q.05.05.1.05t.15.05h.1l-.25-2.45q-.2-2.4-.15-2.55-.05-.45-.05-.8v-.8q0-.4.05-.75.05-.4.15-.75.1-.4.25-.75.15-.4.35-.75t.5-.7.65-.7q-.3.55-.55 1.1T10.1 4.8q-.15.5-.2 1-.1.5-.1.95 0 .4.05.8.1.4.2.7.15.35.4.6.2.25.5.4.1-.05.25-.1t.3-.15.35-.25q.15-.1.3-.25.2-.15.35-.3.2-.2.35-.4t.3-.45q.15-.2.25-.45l-.1.5q-.05.25-.15.45-.05.25-.2.5-.1.2-.25.45t-.3.45q-.15.25-.35.5-.2.2-.4.45t-.45.5l.5 3.2q.4.05.9.1.45.05 1 .05.4.05 1.05.05.8.05 1.05.05.6.05 1 .05.5.05.85.1.4.05.65.15.3.05.4.2h.35l-.15-.4.35.05-.2-.35.6.15-.45-1.05.55.3-.2-1.05.35.2.2-1 .15.8.25-.45-.05.9.3-.35-.2.85.5-.4-.55.95.5-.5-.25.75.75-.3-.45.65.45-.15-.2.4h.3q.1-.1.4-.2.25-.1.65-.15.35-.05.85-.05.4-.05 1-.1.3 0 1.05-.05.7 0 1.05-.05.55 0 1-.05.5-.05.9-.1L29 11q-.1-.15-.4-.45-.25-.35-.4-.5-.2-.3-.4-.55t-.35-.55-.35-.55-.25-.6-.15-.6q-.05-.35 0-.65.1.25.2.45.1.25.25.45.15.25.35.45.15.2.35.4.2.15.4.35.2.15.35.25.2.15.4.25.15.1.3.15.25-.15.45-.45.15-.25.25-.6.15-.35.15-.8.05-.4 0-.9 0-.45-.15-.95-.1-.55-.25-1.1t-.4-1.1q-.2-.55-.5-1.1.4.4.75.8.3.4.55.85.25.35.4.8l.3.8q.1.35.15.8.05.35.05.75v1.45q-.25 2.55-.55 5.1h.1q.05-.05.1-.05.1 0 .15-.05h.1q.05-.05.1-.05.05-.05.1-.05.05-.05.1-.05l.1-.1q-.05-.25-.05-.5-.05-.25-.05-.45-.05-.25-.05-.45 0-.25.05-.45v-.4q.05-.2.1-.35.05-.2.1-.35t.1-.3V10v.25q.05.15.1.35t.1.4q.05.25.15.5t.15.45q.1.25.2.45.1.15.15.3.1.1.15.1.4-.25.75-.6.3-.3.5-.7.25-.35.35-.75.15-.4.2-.85.05-.4.05-.8t-.1-.8q-.05-.35-.15-.75l-.2-.6q.75.85 1.1 1.8.3.85.15 1.8t-.7 1.85q-.5.85-1.35 1.7-.85.8-2 1.45-1.15.7-2.5 1.2-1.4.5-2.9.75-1.55.25-3.15.25.4.3.75.6l.7.7q.35.4.65.75.35.35.55.75.25.35.4.75.15.35.15.7.05.35-.1.7-.1.35-.4.6-.25-.1-1.85-1.85-.05.3-.05.75v.9q-.05 1.15-.05 1.05v1.15q-.05.6-.05 1.1-.05.65-.15 1.15-.05.55-.2 1.05-.1.5-.3.9-.1.2-.15.45-.1.2-.2.45t-.15.5l-.2.6q-.05.25-.1.55-.1.3-.15.6 0 .3-.05.6-.05.35-.05.65v.45q0 .2-.05.45 0 .2-.05.4 0 .2-.05.45-.05.2-.05.4-.05.15-.1.35t-.1.4l-.1.3q0-.05-.05-.05 0-.05-.05-.05 0-.05-.05-.05v-.05q-.05-.05-.05-.1l-.05-.05-.05-.05v-.05l.1-.3q0-.1.05-.25t.05-.35l.1-.3q0-.15.05-.35.05-.15.05-.35.05-.15.05-.35.05-.2.05-.35-.05-.15-.1-.35-.05-.1-.1-.3-.05-.15-.05-.2l-.1-.2q0-.1-.05-.15t-.05-.1q-.05-.1-.1-.15t-.1-.1q-.1 1.1-.15 1.2-.05-.1-.05-.2-.05-.1-.1-.25 0-.1-.05-.2 0-.1-.05-.2t-.05-.2q-.05-.15-.05-.25-.05-.1-.05-.2-.05-.1-.05-.25.2-.1.35-.25.15-.1.3-.25.15-.2.25-.35t.2-.35q.15-.2.2-.4.1-.25.15-.45l.1-.5q.05-.3.05-.55-.05-.05-.15-.1-.05-.05-.1-.15l-.15-.15q-25.05-35.7-.1-.2-.1-.15-.15-.2-.1-.1-.15-.2-.1-.1-.2-.15-.05-.05-.15-.1v.85q-.05.2-.05.45-.05.2-.05.45-.05.2-.1.45-.05.2-.1.45t-.15.45q-.05.25-.15.5-.05-.25-.1-.55-.05-.25-.05-.5-.05-.25-.05-.55-.05-.25-.05-.5-.05-.25-.05-.5t0-.5 0-.5v-.45q-.1.05-.2.15-.05.1-.15.25-.05.1-.15.25-.05.15-.15.3l-.15.3q-.05.15-.1.25-.1.15-.15.25l-.15.15q.05.5.1.95t.1.85q.1.4.2.75t.25.65q.1.35.25.6.15.3.35.55l.4.4.4.4v.15q-.05.1-.05.2v.15q-.05.1-.05.2 0 .05-.05.15v.2q-.05.05-.05.15t-.05.2l-.1-.2q-.05-.15-.1-.25 0-.1-.05-.2t-.1-.2q0-.1-.05-.2 0-.1-.05-.2v-.15q-.05-.1-.05-.15l-.1.1q-.05.05-.15.1 0 .05-.05.15-.05.05-.1.15l-.1.15-.1.1q0 .1-.05.15t-.1.05q0 .1.05.25l.1.2q.05.15.1.25t.1.2q.05.15.15.25.05.1.15.2.05.1.15.2t.2.2q-.4 1.2-.5 1.6m-1.15-9.7q-.15-.25-.25-.5t-.15-.5-.1-.5v-.5q0-.25.05-.5t.1-.5l.2-.5.2-.5q.2 0 .35.1.15.05.3.15t.25.25.15.35.1.4q0 .2-.05.4-.05.25-.15.45-.15.25-.3.45-.1.05-.2.15l-.15.15q-.05.05-.1.15t-.1.2-.1.15v.2q-.05.15-.05.25t0 .2m3.45 0q.15-.25.25-.5t.15-.5q.1-.25.1-.5.05-.25 0-.5 0-.25-.05-.5t-.1-.5-.15-.5-.2-.5q-.2 0-.35.1-.2.05-.35.15-.1.1-.2.25-.15.15-.2.35t-.05.4.05.4q.05.25.15.45.1.25.3.45.1.05.15.15.1.05.15.15.1.05.15.15t.1.2q0 .1.05.15.05.1.05.2v.45"/></g></svg>