<svg xmlns="http://www.w3.org/2000/svg" width="40" height="40"><g fill-rule="evenodd"><path fill="#5a3c3c" d="M16.45 39.05q-.6-.2-1.1-.5-.55-.3-1.05-.7-.45-.35-.9-.8-.45-.4-.85-.9t-.8-1.1q-.4-.5-.8-1.15-.35-.6-.75-1.35-.35-.65-.8-1.45-.6-.45-1.25-.9-.45-.35-1.1-.8-1-.65-.95-.65-.5-.35-.85-.6-.45-.35-.8-.65-.4-.35-.7-.75-.35-.4-.7-.85-.3-.5-.65-1.15-.25-.6-.4-1.05-.15-.5-.2-.85t-.05-.6q.05-.25.15-.45t.3-.3q.2-.15.5-.25.25-.1.65-.2.15-.05.8-.2.9-.1 1.7-.05.75.05 1.35.25.6.15 1.15.5.5.3.9.75t.75 1q.35.5.7 1.15.25.5.6 1.3-.05-.15.65 1.4.65 0 1.2-.35.55-.3.95-.85.35-.5.6-1.2t.4-1.5q.15-.7.15-1.55.05-.75 0-1.5t-.2-1.35q-.1-.65-.3-1.05-.7-1.65-1.25-3.1-.5-1.4-.9-2.65-.35-1.2-.55-2.2-.25-1-.35-1.85-.1-.75-.1-1.45-.05-.65.05-1.2.05-.5.2-.95.1-.35.25-.7t.35-.6q.2-.3.5-.5.25-.2.55-.3.35-.15.75-.15t.85.05q.45.1 1 .3.6.2 1.2.55.65.3 1.4.75.75-1 1.55-1.75Q21 1.3 21.75.8q.7-.45 1.4-.65.65-.2 1.25-.15.55.1 1 .4.5.35.8.95.3.65.4 1.5.15.9.05 2 .75-.8 1.4-1.35t1.2-.8q.5-.3.95-.25.5 0 .85.3t.65.9.5 1.55q.25.9.4 2.15.15 1.3.25 2.9.45-.05 1.35-.2.9-.1 1.3-.15.65-.05 1.1-.05.55.05.9.25t.55.6q.2.45.2 1.1-.05.7-.3 1.7-.25 1.05-.8 2.5l-5.65 9.5v2.65q-.05 1.2-.1 2.2-.1 1.05-.2 1.95-.1.85-.3 1.6-.15.75-.4 1.35-.2.65-.5 1.2-.3.5-.7 1-.4.45-.85.9-.45.4-1.1.7-.6.3-1.4.55-.7.15-1.55.3-.8.1-1.7.1-.85 0-1.7-.05t-1.65-.2q-.85-.1-1.55-.3-.75-.15-1.35-.4m-5.05-9.9q.05.8.25 1.55.15.75.45 1.4.25.7.65 1.35.35.6.85 1.2.45.55 1 1.05t1.2.9 1.35.75q.75.3 1.55.55.5.15 1 .2.5.1.95.15.5.05 1 .05.45.05.9 0 .5 0 .95-.05l.9-.2q.45-.1.9-.25.45-.1.9-.3.55-.15 1-.5t.85-.95q.35-.5.6-1.25.25-.7.5-1.6.15-.8.3-1.8.15-.95.25-2 .05-1 .1-2.2.05-1 .05-2.2L31 23q-.25.05-.55 0-.25-.05-.5-.2-.2-.1-.45-.3-.2-.15-.4-.4t-.35-.5q-.2-.25-.3-.5-.1-.3-.15-.55-.1-.3-.1-.55-.3.1-.6.15-.25.05-.6 0-.25 0-.55-.1-.3-.05-.6-.15l-.5-.3q-.2-.15-.4-.35-.2-.15-.3-.35-.15-.25-.2-.45-.15 0-.7.1-.4.05-.6.05-.35.05-.55.05-.3.05-.5.05-.25-.05-.5-.05-.2-.05-.4-.15t-.4-.2l-.4-.3q-.25.15-.5.25t-.55.15q-.25.1-.5.15t-.45.1q-.25.05-.5.05t-.45 0H17l-.4-.1q.15 1.15.2 2.2t-.05 1.95q-.05.95-.2 1.75-.2.8-.5 1.45-.3.7-.7 1.25-.45.55-1 .95-.6.4-1.35.65-.7.25-1.6.35m8.9-4.9q-.2.7-.3 1.3-.15.65-.15 1.2-.05.55.05 1 .1.5.3.9.15.4.45.7t.75.5q.4.25.95.35.5.1 1.2.15 0-.35-.05-.65V29q.05-.35.05-.65 0-.35.05-.7 0-.3.05-.65t.1-.7q.05-.3.1-.65T24 25h-.5q-.25-.05-.5-.05-.25-.05-.5-.05-.25-.05-.45-.1-.25-.05-.45-.1-.25-.05-.45-.15-.2-.05-.45-.15-.2-.05-.4-.15m-16.95-1.4q.2-.4.55-.6.35-.25.8-.3.45-.1.9 0 .5.1 1 .3.5.25.9.65.45.4.75.9.35.55.55 1.2.15.7.15 1.45l1.35 1.45q-.65.15-1.3.15-.6-.05-1.2-.25-.55-.2-1.1-.55-.5-.35-1-.75-.45-.4-.85-.9-.35-.45-.65-.95t-.55-.95q-.2-.45-.3-.85m28.05-1.2q.35-.2.75-.6.35-.4.8-1 .4-.55.8-1.25.45-.65.85-1.45.4-.75.75-1.5.35-.8.65-1.55t.5-1.4q.2-.7.25-1.25-.1-.1-.3-.2-.2-.05-.45-.05t-.55.1-.55.25q-.3.2-.55.5t-.45.65q-.2.45-.35.95-.1.55-.1 1.25-.2.15-.35.25-.15.15-.25.3-.15.15-.3.35-.1.15-.2.35-.1.15-.15.35-.1.2-.15.4-.1.2-.15.45l-.1.4q-.35.15-.6.35t-.4.4q-.2.2-.25.4-.1.2-.1.45-.05.25.05.5.05.2.15.5.15.25.35.5.15.3.4.6M27 14.8q-.2.15-.3.35t-.15.35q-.05.2-.05.35t.05.35q.05.15.15.3t.25.3q.1.15.3.25.15.15.35.25h.25q.15 0 .25-.05.1-.1.2-.15.05-.1.15-.25.05-.1.1-.25.05-.2.1-.35.05-.2.05-.4.05-.2.05-.45l.5-1q.2-.45.35-.85t.25-.8q.15-.4.2-.75.05-.3.1-.65.05-.3.05-.55v-.6q0-.2-.05-.5.15-.35.25-.7.15-.3.2-.65.1-.3.2-.65.05-.25.05-.55.05-.3.05-.55.05-.25.05-.45-.05-.2-.05-.4l-.1-.3q-.15-.25-.3-.45-.15-.15-.35-.25-.15-.1-.35-.1-.2-.05-.4 0t-.35.15q-.2.1-.35.25-.2.15-.35.3t-.3.35q-.1.25-.15.5t-.1.5q-.05.2-.05.45-.05.25-.05.45v.85q0 .2.05.45 0 .2.05.35l-.2.7q-.1.35-.2.65l-.1.7q-.1.35-.15.7t-.05.7-.05.7-.05.7 0 .7m-10.9 1.5q.05.1.2.2.1.1.25.1.15.05.3.05.2-.05.35-.1.2-.05.35-.15.2-.1.35-.25t.3-.3q.15-.2.25-.4-.2-.75-.35-1.3-.15-.7-.3-1.3t-.3-1.2q-.1-.65-.25-1.25T17 9.2q-.15-.65-.25-1.3-.15-.7-.25-1.4-.15-.7-.25-1.45-.25-.35-.5-.65-.2-.2-.45-.35t-.45-.2q-.25-.05-.45 0t-.4.2q-.2.1-.35.3t-.3.45-.25.5q.05.7.15 1.4.05.7.2 1.4.1.65.25 1.35.2.65.35 1.3.2.65.45 1.35l.45 1.35q.25.65.55 1.4.25.65.6 1.45m5.2-2.3q0 .35.15.6t.35.45.45.3.5.1.5-.1q.2-.1.4-.3.15-.2.25-.45.1-.35.05-.7l-.05-2.05q.1-.3.15-.6.1-.3.15-.55 0-.3.05-.6v-.6q0-.3-.05-.6t-.1-.65q-.05-.3-.15-.6-.05-.3-.2-.6.15-.1.3-.3.15-.15.25-.4.1-.2.2-.45l.1-.6q.05-.3.1-.65V3.9q0-.4-.05-.8t-.1-.85q-.05-.25-.15-.4t-.2-.2q-.15-.05-.35-.05-.15 0-.35.05l-.4.2q-.2.1-.45.3l-.5.3q-.2.2-.5.4l-.2.6q-.1.3-.15.55-.05.3-.1.55v.55q0 .25.05.5 0 .25.1.45.05.25.2.45.1.25.25.45-.15.3-.3.65-.15.3-.25.6t-.15.6-.05.65v.6q.05.3.1.55l.2.6q.1.3.25.6l-.1.2q-.1.1-.1.2l-.1.2q-.05.15-.05.3v.25q-.05.15 0 .35v.3q.05.2.05.4"/><path fill="#cd5a5a" d="M11.4 29.15q.05.8.25 1.55.15.75.45 1.4.25.7.65 1.35.35.6.85 1.2.45.55 1 1.05t1.2.9 1.35.75q.75.3 1.55.55.5.15 1 .2.5.1.95.15.5.05 1 .05.45.05.9 0 .5 0 .95-.05l.9-.2q.45-.1.9-.25.45-.1.9-.3.55-.15 1-.5t.85-.95q.35-.5.6-1.25.25-.7.5-1.6.15-.8.3-1.8.15-.95.25-2 .05-1 .1-2.2.05-1 .05-2.2L31 23q-.25.05-.55 0-.25-.05-.5-.2-.2-.1-.45-.3-.2-.15-.4-.4t-.35-.5q-.2-.25-.3-.5-.1-.3-.15-.55-.1-.3-.1-.55-.3.1-.6.15-.25.05-.6 0-.25 0-.55-.1-.3-.05-.6-.15l-.5-.3q-.2-.15-.4-.35-.2-.15-.3-.35-.15-.25-.2-.45-.15 0-.7.1-.4.05-.6.05-.35.05-.55.05-.3.05-.5.05-.25-.05-.5-.05-.2-.05-.4-.15t-.4-.2l-.4-.3q-.25.15-.5.25t-.55.15q-.25.1-.5.15t-.45.1q-.25.05-.5.05t-.45 0H17l-.4-.1q.15 1.15.2 2.2t-.05 1.95q-.05.95-.2 1.75-.2.8-.5 1.45-.3.7-.7 1.25-.45.55-1 .95-.6.4-1.35.65-.7.25-1.6.35m8.9-4.9q-.2.7-.3 1.3-.15.65-.15 1.2-.05.55.05 1 .1.5.3.9.15.4.45.7t.75.5q.4.25.95.35.5.1 1.2.15 0-.35-.05-.65V29q.05-.35.05-.65 0-.35.05-.7 0-.3.05-.65t.1-.7q.05-.3.1-.65T24 25h-.5q-.25-.05-.5-.05-.25-.05-.5-.05-.25-.05-.45-.1-.25-.05-.45-.1-.25-.05-.45-.15-.2-.05-.45-.15-.2-.05-.4-.15m-16.95-1.4q.2-.4.55-.6.35-.25.8-.3.45-.1.9 0 .5.1 1 .3.5.25.9.65.45.4.75.9.35.55.55 1.2.15.7.15 1.45l1.35 1.45q-.65.15-1.3.15-.6-.05-1.2-.25-.55-.2-1.1-.55-.5-.35-1-.75-.45-.4-.85-.9-.35-.45-.65-.95t-.55-.95q-.2-.45-.3-.85m28.05-1.2q.35-.2.75-.6.35-.4.8-1 .4-.55.8-1.25.45-.65.85-1.45.4-.75.75-1.5.35-.8.65-1.55t.5-1.4q.2-.7.25-1.25-.1-.1-.3-.2-.2-.05-.45-.05t-.55.1-.55.25q-.3.2-.55.5t-.45.65q-.2.45-.35.95-.1.55-.1 1.25-.2.15-.35.25-.15.15-.25.3-.15.15-.3.35-.1.15-.2.35-.1.15-.15.35-.1.2-.15.4-.1.2-.15.45l-.1.4q-.35.15-.6.35t-.4.4q-.2.2-.25.4-.1.2-.1.45-.05.25.05.5.05.2.15.5.15.25.35.5.15.3.4.6M16.1 16.3q.05.1.2.2.1.1.25.1.15.05.3.05.2-.05.35-.1.2-.05.35-.15.2-.1.35-.25t.3-.3q.15-.2.25-.4-.2-.75-.35-1.3-.15-.7-.3-1.3t-.3-1.2q-.1-.65-.25-1.25T17 9.2q-.15-.65-.25-1.3-.15-.7-.25-1.4-.15-.7-.25-1.45-.25-.35-.5-.65-.2-.2-.45-.35t-.45-.2q-.25-.05-.45 0t-.4.2q-.2.1-.35.3t-.3.45-.25.5q.05.7.15 1.4.05.7.2 1.4.1.65.25 1.35.2.65.35 1.3.2.65.45 1.35l.45 1.35q.25.65.55 1.4.25.65.6 1.45M27 14.8q-.2.15-.3.35t-.15.35q-.05.2-.05.35t.05.35q.05.15.15.3t.25.3q.1.15.3.25.15.15.35.25h.25q.15 0 .25-.05.1-.1.2-.15.05-.1.15-.25.05-.1.1-.25.05-.2.1-.35.05-.2.05-.4.05-.2.05-.45l.5-1q.2-.45.35-.85t.25-.8q.15-.4.2-.75.05-.3.1-.65.05-.3.05-.55v-.6q0-.2-.05-.5.15-.35.25-.7.15-.3.2-.65.1-.3.2-.65.05-.25.05-.55.05-.3.05-.55.05-.25.05-.45-.05-.2-.05-.4l-.1-.3q-.15-.25-.3-.45-.15-.15-.35-.25-.15-.1-.35-.1-.2-.05-.4 0t-.35.15q-.2.1-.35.25-.2.15-.35.3t-.3.35q-.1.25-.15.5t-.1.5q-.05.2-.05.45-.05.25-.05.45v.85q0 .2.05.45 0 .2.05.35l-.2.7q-.1.35-.2.65l-.1.7q-.1.35-.15.7t-.05.7-.05.7-.05.7 0 .7m-5.7-.8q0 .35.15.6t.35.45.45.3.5.1.5-.1q.2-.1.4-.3.15-.2.25-.45.1-.35.05-.7l-.05-2.05q.1-.3.15-.6.1-.3.15-.55 0-.3.05-.6v-.6q0-.3-.05-.6t-.1-.65q-.05-.3-.15-.6-.05-.3-.2-.6.15-.1.3-.3.15-.15.25-.4.1-.2.2-.45l.1-.6q.05-.3.1-.65V3.9q0-.4-.05-.8t-.1-.85q-.05-.25-.15-.4t-.2-.2q-.15-.05-.35-.05-.15 0-.35.05l-.4.2q-.2.1-.45.3l-.5.3q-.2.2-.5.4l-.2.6q-.1.3-.15.55-.05.3-.1.55v.55q0 .25.05.5 0 .25.1.45.05.25.2.45.1.25.25.45-.15.3-.3.65-.15.3-.25.6t-.15.6-.05.65v.6q.05.3.1.55l.2.6q.1.3.25.6l-.1.2q-.1.1-.1.2l-.1.2q-.05.15-.05.3v.25q-.05.15 0 .35v.3q.05.2.05.4"/></g></svg>