<svg xmlns="http://www.w3.org/2000/svg" width="40" height="40"><g fill-rule="evenodd"><path fill="#465a46" d="m20 0 11.75 20L20 40 8.25 20 20 0m0 3.1L29.9 20 20 36.9 10.1 20 20 3.1m0 30.45-5.2-8.9.5.5q.25.25.55.5l.6.4q.3.15.65.3t.7.3l.7.2q.35.05.75.1.35.05.75.05t.75-.05q.4-.05.75-.1.35-.1.75-.2.3-.15.65-.3t.65-.3l.6-.4q.3-.25.55-.5.3-.2.5-.5l-5.2 8.9m0-18.85q.55 0 1.05.1.55.1 1 .3.5.2.9.5.45.3.8.65.4.35.65.8.3.4.5.9.2.45.3 1 .1.5.1 1.05t-.1 1.05q-.1.55-.3 1-.2.5-.5.9-.3.45-.65.8-.35.4-.8.65-.4.3-.9.5-.45.2-1 .3-.5.1-1.05.1t-1.05-.1q-.55-.1-1-.3-.5-.2-.9-.5-.45-.3-.8-.65-.4-.35-.65-.8-.3-.4-.5-.9-.2-.45-.3-1-.1-.5-.1-1.05t.1-1.05q.1-.55.3-1 .2-.5.5-.9.3-.45.65-.8.35-.4.8-.65.4-.3.9-.5.45-.2 1-.3.5-.1 1.05-.1m6.6 3.05L27.95 20l-1.35 2.25q.05-.15.1-.25l.1-.3q0-.1.05-.25 0-.15.05-.3 0-.15.05-.25v-.3q.05-.15.05-.3t0-.3 0-.3 0-.3q-.05-.15-.05-.3t-.05-.25q0-.15-.05-.3t-.05-.3q-.05-.1-.1-.25t-.1-.25M12.05 20l1.35-2.25q-.05.15-.1.25l-.1.3q0 .1-.05.25 0 .15-.05.3 0 .15-.05.25v.3q-.05.15-.05.3t0 .3 0 .3 0 .3q.05.15.05.3t.05.25q0 .15.05.3t.05.3q.05.1.1.25t.1.25L12.05 20m2.75-4.65 5.2-8.9 5.2 8.9-.5-.5q-.25-.25-.55-.5l-.6-.4q-.3-.15-.65-.3t-.7-.3l-.7-.2q-.35-.05-.75-.1Q20.4 13 20 13t-.75.05q-.4.05-.75.1-.35.1-.75.2-.3.15-.65.3t-.65.3l-.6.4q-.3.25-.55.5-.3.2-.5.5"/><path fill="#698269" d="M20 3.1 29.9 20 20 36.9 10.1 20 20 3.1m0 30.45-5.2-8.9.5.5q.25.25.55.5l.6.4q.3.15.65.3t.7.3l.7.2q.35.05.75.1.35.05.75.05t.75-.05q.4-.05.75-.1.35-.1.75-.2.3-.15.65-.3t.65-.3l.6-.4q.3-.25.55-.5.3-.2.5-.5l-5.2 8.9m0-18.85q.55 0 1.05.1.55.1 1 .3.5.2.9.5.45.3.8.65.4.35.65.8.3.4.5.9.2.45.3 1 .1.5.1 1.05t-.1 1.05q-.1.55-.3 1-.2.5-.5.9-.3.45-.65.8-.35.4-.8.65-.4.3-.9.5-.45.2-1 .3-.5.1-1.05.1t-1.05-.1q-.55-.1-1-.3-.5-.2-.9-.5-.45-.3-.8-.65-.4-.35-.65-.8-.3-.4-.5-.9-.2-.45-.3-1-.1-.5-.1-1.05t.1-1.05q.1-.55.3-1 .2-.5.5-.9.3-.45.65-.8.35-.4.8-.65.4-.3.9-.5.45-.2 1-.3.5-.1 1.05-.1m6.6 3.05L27.95 20l-1.35 2.25q.05-.15.1-.25l.1-.3q0-.1.05-.25 0-.15.05-.3 0-.15.05-.25v-.3q.05-.15.05-.3t0-.3 0-.3 0-.3q-.05-.15-.05-.3t-.05-.25q0-.15-.05-.3t-.05-.3q-.05-.1-.1-.25t-.1-.25M12.05 20l1.35-2.25q-.05.15-.1.25l-.1.3q0 .1-.05.25 0 .15-.05.3 0 .15-.05.25v.3q-.05.15-.05.3t0 .3 0 .3 0 .3q.05.15.05.3t.05.25q0 .15.05.3t.05.3q.05.1.1.25t.1.25L12.05 20m2.75-4.65 5.2-8.9 5.2 8.9-.5-.5q-.25-.25-.55-.5l-.6-.4q-.3-.15-.65-.3t-.7-.3l-.7-.2q-.35-.05-.75-.1Q20.4 13 20 13t-.75.05q-.4.05-.75.1-.35.1-.75.2-.3.15-.65.3t-.65.3l-.6.4q-.3.25-.55.5-.3.2-.5.5"/></g></svg>