<svg xmlns="http://www.w3.org/2000/svg" width="40" height="40"><g fill-rule="evenodd"><path fill="#735541" d="m23.9 17.9 2.3-3.05 6 17.05-11.75 6.25-.3-.15q.35-.45.5-.65.4-.55.8-1.05.5-.7.95-1.35.55-.75 1-1.5.55-.8.95-1.55.5-.8.8-1.5.4-.75.55-1.35.2-.65.15-1.05-.05-.45-.35-.9-.3-.4-.85-.8-.45-.35-1.15-.7-.5-.25-1.25-.6-3.95-1.8-1.3-.6-.7-.3-1.15-.55-.55-.3-.85-.6-.35-.3-.4-.6t.15-.65q.15-.35.5-.75.35-.35.85-.75.4-.35.95-.75.45-.35 1-.7.45-.25.9-.55l.7-.4q.2-.1.3-.2m-.1-.45q-.15.05-.45.2-.35.25-.8.45-.55.3-1.05.6-.6.35-1.15.7-.65.45-1.15.8-.6.45-1 .8-.45.4-.7.75-.3.4-.35.7t.2.65q.2.3.6.65.35.25.95.6.15.1 1.05.65.65.4 1.05.65.55.4.9.75.4.35.6.75t.15.8q-.05.35-.3.9-.25.45-.7 1.05-.4.55-.95 1.15-.45.6-1.1 1.25-.5.55-1.15 1.15L17.4 34.5q-.5.45-.95.85-.35.3-.65.6l-8-3.85 4.55-13.2L15 20.05l4.6-15.4 4.2 12.8"/><path fill="#2d2d2d" d="M5.7 32.65 20.65 40l13.65-7.55-7.7-21-2.3 3.2L19.65 0 14.2 17.9l-2.65-1.15-5.85 15.9M23.9 17.9l2.3-3.05 6 17.05-11.75 6.25-.3-.15q.35-.45.5-.65.4-.55.8-1.05.5-.7.95-1.35.55-.75 1-1.5.55-.8.95-1.55.5-.8.8-1.5.4-.75.55-1.35.2-.65.15-1.05-.05-.45-.35-.9-.3-.4-.85-.8-.45-.35-1.15-.7-.5-.25-1.25-.6-3.95-1.8-1.3-.6-.7-.3-1.15-.55-.55-.3-.85-.6-.35-.3-.4-.6t.15-.65q.15-.35.5-.75.35-.35.85-.75.4-.35.95-.75.45-.35 1-.7.45-.25.9-.55l.7-.4q.2-.1.3-.2m-.1-.45q-.15.05-.45.2-.35.25-.8.45-.55.3-1.05.6-.6.35-1.15.7-.65.45-1.15.8-.6.45-1 .8-.45.4-.7.75-.3.4-.35.7t.2.65q.2.3.6.65.35.25.95.6.15.1 1.05.65.65.4 1.05.65.55.4.9.75.4.35.6.75t.15.8q-.05.35-.3.9-.25.45-.7 1.05-.4.55-.95 1.15-.45.6-1.1 1.25-.5.55-1.15 1.15L17.4 34.5q-.5.45-.95.85-.35.3-.65.6l-8-3.85 4.55-13.2L15 20.05l4.6-15.4 4.2 12.8"/></g></svg>