<svg xmlns="http://www.w3.org/2000/svg" width="40" height="40"><g fill-rule="evenodd"><path fill="#50695f" d="M8.65 25.75H5.1q-.05 0-.1.05-.1 0-.15.05-.05 0-.05.05-.05.05-.05.1-.05.1-.05.15v13.5q0 .05.05.1 0 .05.05.1 0 .05.05.1.05 0 .15.05h11.55l.05-.05q.05 0 .05-.05.05 0 .1-.05l.05-.05v-.1q.05 0 .05-.05t0-.1v-22.3q0-.95.05-1.7.05-.8.15-1.45t.2-1.2q.15-.5.35-.95.15-.4.4-.75.2-.35.45-.6.25-.3.55-.5.3-.25.65-.45 0-.2-1.1-5Q17.45-.2 17.45 0q-.9.6-1.7 1.25-.85.7-1.6 1.45-.8.85-1.5 1.75-.75.95-1.35 1.95-.6 1.1-1.1 2.25-.5 1.25-.85 2.6-.35 1.4-.5 2.9-.2 1.55-.2 3.2v8.4m22.7 0h3.55q.05 0 .1.05.1 0 .15.05.05 0 .05.05.05.05.05.1.05.1.05.15v13.5q0 .05-.05.1 0 .05-.05.1 0 .05-.05.1-.05 0-.15.05H23.8l-.05-.05q-.05 0-.05-.05-.05 0-.1-.05l-.05-.05v-.1q-.05 0-.05-.05t0-.1v-22.3q0-.95-.05-1.7-.05-.8-.2-1.45-.1-.65-.3-1.2-.15-.5-.35-.95-.2-.4-.45-.75t-.55-.6q-.3-.3-.6-.5-.3-.25-.65-.45l1.4-5.2 3.7 3.65 1.5-.4 1.4 1.85 1.6-.5.05.1q.1.1.2.25.1.2.2.5.15.35.25.75.15.5.25 1.1.15.7.25 1.45.1.85.15 1.85.05 1.1.05 2.3v8.4M9 27.3H6.25v11.2H9V27.3m22 0h2.8v11.2H31V27.3m-1.2-9.8v21h-4.7v-21q0-.9-.1-1.8-.05-.8-.2-1.55-.15-.7-.35-1.4-.2-.6-.45-1.15-.2-.55-.5-1-.25-.45-.5-.8-.3-.35-.55-.65-.3-.25-.55-.4l.5-1.8 2.7 2.9 1.5-.4 1.35 1.9 1.1-.35.05.05q0 .1.05.25t.15.35q.05.3.1.65.1.4.15.85.1.5.15 1.1.05.7.1 1.45v1.8m-19.6 0v21h5.1v-21q0-.9.05-1.8.05-.8.2-1.55.1-.75.25-1.4.15-.6.35-1.15t.45-1q.2-.45.5-.8.2-.35.5-.65.25-.25.5-.4l-1.3-6q-.7.5-1.4 1.1-.65.6-1.25 1.3t-1.1 1.55q-.55.85-1 1.75-.45.95-.75 1.95-.35 1.05-.6 2.2t-.4 2.35q-.1 1.25-.1 2.55"/><path fill="#9bb9af" d="M9 27.3H6.25v11.2H9V27.3m22 0h2.8v11.2H31V27.3m-1.2-9.8v21h-4.7v-21q0-.9-.1-1.8-.05-.8-.2-1.55-.15-.7-.35-1.4-.2-.6-.45-1.15-.2-.55-.5-1-.25-.45-.5-.8-.3-.35-.55-.65-.3-.25-.55-.4l.5-1.8 2.7 2.9 1.5-.4 1.35 1.9 1.1-.35.05.05q0 .1.05.25t.15.35q.05.3.1.65.1.4.15.85.1.5.15 1.1.05.7.1 1.45v1.8m-19.6 0v21h5.1v-21q0-.9.05-1.8.05-.8.2-1.55.1-.75.25-1.4.15-.6.35-1.15t.45-1q.2-.45.5-.8.2-.35.5-.65.25-.25.5-.4l-1.3-6q-.7.5-1.4 1.1-.65.6-1.25 1.3t-1.1 1.55q-.55.85-1 1.75-.45.95-.75 1.95-.35 1.05-.6 2.2t-.4 2.35q-.1 1.25-.1 2.55"/></g></svg>