<svg xmlns="http://www.w3.org/2000/svg" width="40" height="40"><g fill-rule="evenodd"><path fill="#4b4b4b" d="M35.45 0H4.55v9.2h1.2v15.65h-1.2v8.65L20.6 40l14.85-6.5v-8.6l-1 .05V9.05h1V0M7.1 3.45V6.3H6.05v1.6H7.1v18.3H6.05v1.6H7.1v3.25H6.05v1.55l14.5 5.75 13.5-5.75v-1.55h-1.1V27.8h1.1v-1.6h-1.1V7.9h1.1V6.3h-1.1V3.45h1.1v-2.1h-28v2.1H7.1M8.4 27.8v3.25h4.85V27.8H8.4m6.15 0v3.25h4.8V27.8h-4.8m6.1 0v3.25h5.05V27.8h-5.05m6.35 0v3.25h4.65V27.8H27M8.4 7.9v18.3h4.85V7.9H8.4m6.15 0v18.3h4.8V7.9h-4.8m6.1 0v18.3h5.05V7.9h-5.05M27 19.95v6.25h4.65v-6.25H27m2.55-3.15q.05 0 .1-.05.05 0 .1-.05t.1-.1.05-.05.05-.1.05-.1.05-.1v-.3q-.05-.05-.05-.1l-.1-.1q0-.1-.05-.15-.05 0-.1-.05-.1-.05-.15-.05-.05-.05-.1-.05-.1-.05-.15-.05t-.15 0q-.05.05-.15.05l-.1.1q-.05.05-.1.05-.05.05-.1.15-.05.05-.05.1-.05.05-.05.15v.2q0 .1.05.15v.1q.05.05.05.1.05.05.1.05.05.05.05.1.05 0 .1.05.05 0 .1.05l-.45 1.45h1.4l-.5-1.45M27 7.9V14h4.65V7.9H27M8.4 3.45V6.3h4.85V3.45H8.4m6.15 0V6.3h4.8V3.45h-4.8m6.1 0V6.3h5.05V3.45h-5.05m6.35 0V6.3h4.65V3.45H27"/><path fill="#969696" d="M7.1 3.45V6.3H6.05v1.6H7.1v18.3H6.05v1.6H7.1v3.25H6.05v1.55l14.5 5.75 13.5-5.75v-1.55h-1.1V27.8h1.1v-1.6h-1.1V7.9h1.1V6.3h-1.1V3.45h1.1v-2.1h-28v2.1H7.1M8.4 27.8v3.25h4.85V27.8H8.4m6.15 0v3.25h4.8V27.8h-4.8m6.1 0v3.25h5.05V27.8h-5.05m6.35 0v3.25h4.65V27.8H27M8.4 7.9v18.3h4.85V7.9H8.4m6.15 0v18.3h4.8V7.9h-4.8m6.1 0v18.3h5.05V7.9h-5.05M27 19.95v6.25h4.65v-6.25H27m2.55-3.15q.05 0 .1-.05.05 0 .1-.05t.1-.1.05-.05.05-.1.05-.1.05-.1v-.3q-.05-.05-.05-.1l-.1-.1q0-.1-.05-.15-.05 0-.1-.05-.1-.05-.15-.05-.05-.05-.1-.05-.1-.05-.15-.05t-.15 0q-.05.05-.15.05l-.1.1q-.05.05-.1.05-.05.05-.1.15-.05.05-.05.1-.05.05-.05.15v.2q0 .1.05.15v.1q.05.05.05.1.05.05.1.05.05.05.05.1.05 0 .1.05.05 0 .1.05l-.45 1.45h1.4l-.5-1.45M27 7.9V14h4.65V7.9H27M8.4 3.45V6.3h4.85V3.45H8.4m6.15 0V6.3h4.8V3.45h-4.8m6.1 0V6.3h5.05V3.45h-5.05m6.35 0V6.3h4.65V3.45H27"/></g></svg>