<svg xmlns="http://www.w3.org/2000/svg" width="40" height="40"><path fill="#B4AE76" d="m30.2 31.65-4.95 2.3-.5-4.3h5.15l.3 1.7v.3zM27 14.4l2.65 14h-5l-1.6-14zm8.1-3.15c.03.7.03 1.47 0 2.3-.07.83-.17 1.7-.3 2.6-.1.9-.25 1.8-.45 2.7-.23.93-.48 1.82-.75 2.65-.27.87-.57 1.65-.9 2.35-.37.77-.75 1.42-1.15 1.95-.07.07-.12.15-.15.25-.07.07-.12.15-.15.25-.03.07-.08.15-.15.25-.03.1-.07.2-.1.3s-.07.22-.1.35c-.03.1-.07.2-.1.3-.03.13-.07.25-.1.35s-.07.22-.1.35l-.5-2.8c.27-.3.53-.72.8-1.25.23-.53.48-1.17.75-1.9.23-.73.45-1.52.65-2.35.23-.8.43-1.63.6-2.5.17-.83.3-1.65.4-2.45.1-.8.17-1.53.2-2.2.03-.7.02-1.28-.05-1.75-.07-.5-.18-.85-.35-1.05-.1-.1-.23-.17-.4-.2-.13-.03-.32-.05-.55-.05-.2.03-.43.08-.7.15-.27.03-.55.1-.85.2-.27.1-.55.22-.85.35-.27.1-.53.22-.8.35-.27.1-.53.22-.8.35-.23.13-.47.25-.7.35L27.2 9.9c.37-.17.72-.33 1.05-.5.4-.13.77-.28 1.1-.45.4-.13.77-.27 1.1-.4.37-.13.72-.23 1.05-.3.33-.1.65-.18.95-.25.3-.03.57-.07.8-.1.23 0 .43.03.6.1.2.03.35.12.45.25.23.27.42.65.55 1.15.1.5.18 1.12.25 1.85zm-8.3 1.9h-3.9l-.8-6.75h3.45l.5 2.7.2 1.05v.2zm-2.7 16.5.5 4.6-6.8 3.15v-7.75zM22.35 14.4l1.6 14H17.8v-14zm-.9-8 .75 6.75h-4.4V6.4zm-4.5 23.25v7.75l-6.35-2.9.45-4.85zm0-15.25v14H11.2l1.3-14zm0-8v6.75H12.6l.65-6.75zm-4.5 0-.65 6.75H7.7l.8-6.75zm-.75 8-1.3 14H5.8l1.75-14zm-1.45 15.25-.4 4.5-4.5-2.05.3-2.45z"/><path fill="#EEEAD6" d="M24.85 4.35c.07.03.12.08.15.15s.05.13.05.2c0 .03.02.07.05.1v.15H8.5s.02-.03.05-.1V4.7c.03-.07.07-.13.1-.2s.07-.12.1-.15l.2-.2L9.1 4c.07-.07.15-.12.25-.15.07-.03.13-.08.2-.15.1-.03.18-.07.25-.1.1-.03.18-.07.25-.1 0-.07.02-.12.05-.15.03-.07.07-.13.1-.2.03-.03.07-.08.1-.15.07-.07.13-.12.2-.15.03-.07.08-.13.15-.2.07-.03.15-.08.25-.15.07-.03.15-.07.25-.1.1-.07.2-.12.3-.15.1-.03.2-.07.3-.1.1-.03.22-.07.35-.1.1-.03.2-.07.3-.1.13-.03.25-.05.35-.05.13-.03.25-.05.35-.05.13-.03.25-.05.35-.05h.7c.07-.03.15-.07.25-.1s.2-.07.3-.1c.1-.03.2-.07.3-.1s.2-.07.3-.1c.13 0 .27-.02.4-.05.1 0 .22-.02.35-.05h.4c.1-.03.22-.05.35-.05h.4c.13.03.27.05.4.05s.25.02.35.05c.13.03.25.05.35.05.13.03.25.07.35.1s.2.07.3.1c.1.03.2.07.3.1.07.03.15.07.25.1h.65c.13 0 .25.02.35.05.13 0 .25.02.35.05.13 0 .25.02.35.05.13.03.25.07.35.1.13 0 .25.03.35.1.1.03.2.07.3.1.1.03.2.08.3.15.07.03.15.07.25.1.07.07.13.12.2.15l.2.2c.07.03.12.08.15.15l.15.15c.03.07.05.13.05.2.03.03.05.08.05.15.1.03.18.07.25.1.1.03.18.07.25.1.1.07.18.12.25.15s.13.08.2.15.13.12.2.15c.07.07.12.13.15.2z"/><path fill="#696543" d="M10.25 29.65h-4.6l-.3 2.45 4.5 2.05.4-4.5zm12.65-16.5h3.9l-.55-2.8v-.2l-.2-1.05-.5-2.7H22.1l.8 6.75zm12.2.4c.03-.83.03-1.6 0-2.3-.07-.73-.15-1.35-.25-1.85-.13-.5-.32-.88-.55-1.15a.673.673 0 0 0-.45-.25c-.17-.07-.37-.1-.6-.1-.23.03-.5.07-.8.1-.3.07-.62.15-.95.25-.33.07-.68.17-1.05.3-.33.13-.7.27-1.1.4-.33.17-.7.32-1.1.45-.33.17-.68.33-1.05.5l.25 1.55c.23-.1.47-.22.7-.35.27-.13.53-.25.8-.35.27-.13.53-.25.8-.35.3-.13.58-.25.85-.35.3-.1.58-.17.85-.2.27-.07.5-.12.7-.15.23 0 .42.02.55.05.17.03.3.1.4.2.17.2.28.55.35 1.05.07.47.08 1.05.05 1.75-.03.67-.1 1.4-.2 2.2s-.23 1.62-.4 2.45c-.17.87-.37 1.7-.6 2.5-.2.83-.42 1.62-.65 2.35-.27.73-.52 1.37-.75 1.9-.27.53-.53.95-.8 1.25l.5 2.8c.03-.13.07-.25.1-.35s.07-.22.1-.35c.03-.1.07-.2.1-.3.03-.13.07-.25.1-.35s.07-.2.1-.3c.07-.1.12-.18.15-.25.03-.1.08-.18.15-.25.03-.1.08-.18.15-.25.4-.53.78-1.18 1.15-1.95.33-.7.63-1.48.9-2.35.27-.83.52-1.72.75-2.65.2-.9.35-1.8.45-2.7.13-.9.23-1.77.3-2.6zM10.4 28.4l1.3-14H7.55l-1.75 14h4.6zm1.4-15.25.65-6.75H8.5l-.8 6.75h4.1zm5.15 0V6.4h-3.7l-.65 6.75h4.35zm0 15.25v-14H12.5l-1.3 14h5.75zm0 9v-7.75h-5.9l-.45 4.85 6.35 2.9zm.85-23v14h6.15l-1.6-14H17.8zm3.65-8H17.8v6.75h4.4l-.75-6.75zm3.15 27.85-.5-4.6h-6.3v7.75l6.8-3.15zm.05-5.85h5L27 14.4h-3.95l1.6 14zm5.25 1.25h-5.15l.5 4.3 4.95-2.3v-.3l-.3-1.7zM25 4.5a.276.276 0 0 0-.15-.15.654.654 0 0 0-.15-.2c-.07-.03-.13-.08-.2-.15s-.13-.12-.2-.15-.15-.08-.25-.15c-.07-.03-.15-.07-.25-.1-.07-.03-.15-.07-.25-.1 0-.07-.02-.12-.05-.15 0-.07-.02-.13-.05-.2L23.3 3a.276.276 0 0 0-.15-.15l-.2-.2a.654.654 0 0 1-.2-.15c-.1-.03-.18-.07-.25-.1-.1-.07-.2-.12-.3-.15-.1-.03-.2-.07-.3-.1-.1-.07-.22-.1-.35-.1-.1-.03-.22-.07-.35-.1-.1-.03-.22-.05-.35-.05-.1-.03-.22-.05-.35-.05-.1-.03-.22-.05-.35-.05h-.65c-.1-.03-.18-.07-.25-.1-.1-.03-.2-.07-.3-.1-.1-.03-.2-.07-.3-.1s-.22-.07-.35-.1c-.1 0-.22-.02-.35-.05-.1-.03-.22-.05-.35-.05s-.27-.02-.4-.05h-.4c-.13 0-.25.02-.35.05h-.4c-.13.03-.25.05-.35.05-.13.03-.27.05-.4.05-.1.03-.2.07-.3.1s-.2.07-.3.1c-.1.03-.2.07-.3.1-.1.03-.18.07-.25.1h-.7c-.1 0-.22.02-.35.05-.1 0-.22.02-.35.05-.1 0-.22.02-.35.05-.1.03-.2.07-.3.1-.13.03-.25.07-.35.1-.1.03-.2.07-.3.1-.1.03-.2.08-.3.15-.1.03-.18.07-.25.1-.1.07-.18.12-.25.15-.07.07-.12.13-.15.2-.07.03-.13.08-.2.15-.03.07-.07.12-.1.15-.03.07-.07.13-.1.2-.03.03-.05.08-.05.15-.07.03-.15.07-.25.1-.07.03-.15.07-.25.1-.07.07-.13.12-.2.15-.1.03-.18.08-.25.15l-.15.15-.2.2c-.03.03-.07.08-.1.15s-.07.13-.1.2v.15a.69.69 0 0 1-.05.1h16.6V4.8c-.03-.03-.05-.07-.05-.1 0-.07-.02-.13-.05-.2zm-.1-2.05c.07.1.12.18.15.25 0 .07.02.13.05.2.1.03.2.08.3.15.13.03.23.08.3.15.1.03.2.08.3.15s.18.13.25.2c.1.07.18.13.25.2.07.1.12.18.15.25.07.07.12.15.15.25.07.07.12.15.15.25v.1c.03.03.05.07.05.1v.25h.05l.5 2.95c.43-.2.87-.4 1.3-.6.43-.17.85-.33 1.25-.5.47-.17.88-.32 1.25-.45L32.5 6c.4-.1.77-.17 1.1-.2.33-.07.63-.1.9-.1.27.03.5.08.7.15.23.07.4.18.5.35.27.3.5.73.7 1.3.17.57.32 1.25.45 2.05.1.8.17 1.65.2 2.55 0 .93-.03 1.9-.1 2.9s-.18 2-.35 3c-.17 1.03-.37 2-.6 2.9-.3 1-.62 1.9-.95 2.7-.4.83-.83 1.57-1.3 2.2-.17.23-.33.52-.5.85-.13.33-.25.7-.35 1.1-.1.37-.2.77-.3 1.2-.07.4-.13.82-.2 1.25-.03.33-.07.7-.1 1.1-.03.33-.07.65-.1.95 0 .23-.02.45-.05.65v.25l-15 6.85-14.2-6.6L6.6 4.95h.05v-.3l.05-.05v-.1c.03-.1.07-.18.1-.25.07-.1.12-.18.15-.25l.2-.2c.07-.1.15-.18.25-.25.07-.07.15-.13.25-.2.1-.03.18-.08.25-.15.1-.07.22-.12.35-.15.1-.07.2-.12.3-.15 0-.07.02-.13.05-.2.03-.07.07-.15.1-.25.07-.07.12-.13.15-.2l.2-.2c.07-.07.15-.13.25-.2.07-.07.15-.13.25-.2s.2-.13.3-.2c.13-.07.25-.13.35-.2.13-.07.27-.12.4-.15s.27-.07.4-.1c.13-.07.27-.12.4-.15.17 0 .32-.02.45-.05.13-.03.28-.05.45-.05.13-.03.27-.05.4-.05h.45a.9.9 0 0 1 .4 0c.1-.07.2-.12.3-.15.1-.03.22-.08.35-.15.13-.03.27-.07.4-.1s.27-.07.4-.1.27-.07.4-.1c.17 0 .32-.02.45-.05.17 0 .33-.02.5-.05h.95c.17.03.32.05.45.05.17 0 .32.02.45.05.17.03.32.07.45.1s.27.07.4.1.27.07.4.1c.1.03.22.08.35.15.1.03.2.08.3.15h.85c.13 0 .27.02.4.05.13 0 .28.02.45.05.13.03.27.07.4.1s.28.07.45.1c.13.03.27.07.4.1.13.07.25.12.35.15.13.07.25.13.35.2.13.03.25.08.35.15.07.07.15.13.25.2l.25.25.2.2c.03.07.07.13.1.2z"/></svg>