<svg xmlns="http://www.w3.org/2000/svg" width="40" height="40"><g fill-rule="evenodd"><path fill="#e1aaa5" d="M20 1.65q1.9 0 3.7.35 1.75.4 3.45 1.1 1.65.7 3.1 1.7Q31.7 5.75 33 7q1.25 1.3 2.2 2.75 1 1.45 1.7 3.1.7 1.7 1.1 3.45.35 1.8.35 3.7T38 23.7q-.4 1.75-1.1 3.45-.7 1.65-1.7 3.1Q34.25 31.7 33 33q-1.3 1.25-2.75 2.2-1.45 1-3.1 1.7-1.7.7-3.45 1.1-1.8.35-3.7.35T16.3 38q-1.75-.4-3.45-1.1-1.65-.7-3.1-1.7Q8.3 34.25 7 33q-1.25-1.3-2.2-2.75-1-1.45-1.7-3.1-.7-1.7-1.1-3.45-.35-1.8-.35-3.7T2 16.3q.4-1.75 1.1-3.45.7-1.65 1.7-3.1Q5.75 8.3 7 7q1.3-1.25 2.75-2.2 1.45-1 3.1-1.7 1.7-.7 3.45-1.1 1.8-.35 3.7-.35m-5.9 2.6Q12.85 4.9 11.8 6q-1 1.05-1.75 2.5-.7 1.4-1.15 3t-.55 3.25q-.05 1.65.2 3.25.3 1.6.95 2.95.7 1.4 1.75 2.45 1.15 1.05 2.65 1.65-.15-.55-.25-1t-.1-.85.05-.7q.05-.35.15-.6.15-.3.35-.5.15-.2.4-.35t.55-.25.65-.15q-.45.4-.75.85-.25.4-.4.9-.1.45 0 .9.05.5.25.95t.55.85q.35.45.8.8.5.35 1.05.6.55.3 1.2.45-.15-.1-.3-.25t-.25-.3q-.1-.1-.2-.25t-.15-.3q-.05-.2-.1-.35t-.05-.3v-.35q0-.2.05-.4.3-.45.55-.8t.5-.6q.25-.3.5-.5t.45-.3q.25-.1.45-.1t.4.05q.2.1.4.3.15.2.3.5h-.4q-.2.05-.35.1t-.25.1q-.15.1-.25.15-.1.1-.15.25-.1.1-.15.25t-.05.35 0 .4l.2-.1q.1-.1.2-.15t.2-.15q.1-.05.15-.1l.15-.15q.1-.05.15-.15.05-.05.1-.15.05-.05.1-.15.05.05.05.1v.15q.05.05.05.15v.15q0 .1-.05.2 0 .1-.05.2 0 .1-.05.25-.05.1-.1.25.1.05.2.15t.2.2.15.25.15.25.15.25.1.3q.05.2.05.35.05.15.1.35.95-.4 1.7-.85.75-.4 1.25-.85t.85-.9q.3-.45.45-.9.15-.4.1-.85 0-.4-.2-.75-.15-.35-.45-.7-.3-.3-.7-.5.45 0 .8.1t.6.25.45.4q.15.2.25.5.1.25.15.6t0 .75q0 .35-.1.8t-.25.95q1.35-.7 2.45-1.7 1-1 1.75-2.25.7-1.2 1.05-2.6t.35-2.9q.05-1.45-.3-2.95-.35-1.55-1.05-2.95-.75-1.5-1.8-2.85t-2.45-2.5q.5.25.95.5.5.25.95.5.5.3.95.6.5.35.95.7t.9.75.9.85.9.95.85 1.05q.35 1.35.55 2.6.2 1.3.25 2.55.05 1.2-.05 2.35-.15 1.15-.4 2.2-.3 1.05-.7 2-.45.95-1.1 1.75t-1.45 1.5q-.85.7-1.85 1.2.8-.2 1.5-.55.75-.35 1.35-.8.65-.5 1.2-1.05.55-.65.95-1.35.45-.75.8-1.65t.55-1.95q.25-1.1.35-2.3.15-1.25.15-2.65.25.75.45 1.45.2.75.35 1.45.1.75.2 1.45t.1 1.4-.05 1.4-.15 1.4q-.15.65-.35 1.35-.2.65-.5 1.3-.8.65-1.55 1.2-.8.55-1.6.95-.8.45-1.65.8-.85.3-1.7.5-.9.2-1.8.3-.95.05-1.85-.05-.95-.1-1.95-.35t-2.05-.65q.65.5 1.3.85t1.35.65q.75.25 1.45.4.8.15 1.55.15.85.05 1.65-.05.85-.1 1.75-.35t1.85-.6q.95-.4 1.95-.9-.3.55-.6 1l-.7 1q-.35.5-.7.9-.4.5-.8.9-.45.45-.9.8-.45.4-.95.8-.5.35-1 .65-.55.35-1.15.65l-.9-.3q-.45-.15-.9-.35t-.85-.45-.8-.55-.75-.6q-.4-.35-.7-.75-.4-.35-.7-.8t-.6-.95q0 .2-.05.35v.3q-.05.15-.05.3-.05.15-.05.3l-.1.2q0 .15-.05.25-.05.05-.1.15t-.1.15q.2.25.4.55.2.25.45.5t.5.45q.3.25.6.45.3.25.6.45l.7.4q.35.2.75.35.35.2.8.4l-1.4.5q-.7.2-1.4.35l-1.4.2q-.7.05-1.4.05-.7.05-1.45-.05-.7-.05-1.4-.2-.75-.1-1.45-.3-.75-.2-1.45-.45.4-.2.75-.4.4-.25.75-.45t.65-.4q.35-.25.65-.45.3-.25.55-.45l.45-.45q.25-.25.4-.5.2-.25.35-.5l-.1-.1q0-.1-.05-.2-.05-.05-.05-.2-.05-.1-.05-.2-.05-.15-.05-.25-.05-.15-.05-.3-.05-.15-.05-.35 0-.15-.05-.35l-.6.8-.6.7-.7.7-.7.6q-.4.3-.8.55t-.85.45-.9.4q-.45.15-.95.3l-1.2-.5q-.55-.3-1.05-.6t-1-.7q-.45-.35-.85-.75t-.75-.85q-.4-.45-.7-.9l-.6-1q-.25-.55-.45-1.1.75.45 1.55.75.75.35 1.55.55.75.2 1.55.25.8.1 1.6.05.75 0 1.55-.15t1.6-.4 1.6-.6 1.6-.8q-1.05.4-2.05.65-1.05.25-2 .4-1 .15-1.9.15-.95 0-1.85-.15t-1.75-.4q-.85-.3-1.65-.75-.8-.4-1.55-1t-1.5-1.35q-.25-.9-.45-1.75t-.3-1.65q-.1-.75-.15-1.5-.05-.7 0-1.4 0-.7.1-1.35.05-.65.2-1.25t.3-1.2l.4-1.1q.05 1.25.15 2.4t.35 2.15q.2 1.05.5 2 .3.9.75 1.7.4.8.95 1.4.5.7 1.15 1.2.7.5 1.45.8.8.35 1.7.55-1.15-.65-2.05-1.45-.85-.8-1.55-1.7-.6-.85-1.05-1.85-.45-.9-.7-2-.2-1-.3-2.1-.05-1.1 0-2.25t.25-2.4q.2-1.15.5-2.4l.7-1q.35-.5.75-.95t.85-.85q.4-.45.9-.8.45-.4.95-.75.55-.35 1.05-.7.55-.3 1.15-.6.55-.25 1.2-.5M20 2.8q.7 0 1.35.15.7.15 1.3.4t1.15.6q.55.4 1 .85.5.45.85 1T26.3 7q.25.6.4 1.25.1.7.1 1.4T26.65 11q-.1.65-.4 1.3-.25.6-.6 1.15t-.85 1q-.45.45-1 .85-.55.35-1.15.6t-1.3.4q-.65.15-1.35.15t-1.35-.15q-.7-.15-1.3-.4t-1.15-.6q-.55-.4-1-.85-.5-.45-.85-1t-.65-1.15q-.25-.65-.4-1.3-.1-.65-.1-1.35t.15-1.4q.1-.65.4-1.25.25-.65.6-1.2.35-.5.85-1 .45-.45 1-.8.55-.4 1.15-.65t1.3-.4Q19.3 2.8 20 2.8"/><path fill="#aa7873" d="M20 0q2.05 0 4.05.4 1.9.4 3.75 1.15 1.75.8 3.4 1.85 1.6 1.1 2.95 2.45T36.6 8.8q1.05 1.65 1.85 3.4.75 1.85 1.15 3.75.4 2 .4 4.05t-.4 4.05q-.4 1.9-1.15 3.75-.8 1.75-1.85 3.4-1.1 1.6-2.45 2.95T31.2 36.6q-1.65 1.05-3.4 1.85-1.85.75-3.75 1.15-2 .4-4.05.4t-4.05-.4q-1.9-.4-3.75-1.15-1.75-.8-3.4-1.85-1.6-1.1-2.95-2.45T3.4 31.2q-1.05-1.65-1.85-3.4Q.8 25.95.4 24.05 0 22.05 0 20t.4-4.05q.4-1.9 1.15-3.75.8-1.75 1.85-3.4 1.1-1.6 2.45-2.95T8.8 3.4q1.65-1.05 3.4-1.85Q14.05.8 15.95.4q2-.4 4.05-.4m0 1.65q1.9 0 3.7.35 1.75.4 3.45 1.1 1.65.7 3.1 1.7Q31.7 5.75 33 7q1.25 1.3 2.2 2.75 1 1.45 1.7 3.1.7 1.7 1.1 3.45.35 1.8.35 3.7T38 23.7q-.4 1.75-1.1 3.45-.7 1.65-1.7 3.1Q34.25 31.7 33 33q-1.3 1.25-2.75 2.2-1.45 1-3.1 1.7-1.7.7-3.45 1.1-1.8.35-3.7.35T16.3 38q-1.75-.4-3.45-1.1-1.65-.7-3.1-1.7Q8.3 34.25 7 33q-1.25-1.3-2.2-2.75-1-1.45-1.7-3.1-.7-1.7-1.1-3.45-.35-1.8-.35-3.7T2 16.3q.4-1.75 1.1-3.45.7-1.65 1.7-3.1Q5.75 8.3 7 7q1.3-1.25 2.75-2.2 1.45-1 3.1-1.7 1.7-.7 3.45-1.1 1.8-.35 3.7-.35m-5.9 2.6Q12.85 4.9 11.8 6q-1 1.05-1.75 2.5-.7 1.4-1.15 3t-.55 3.25q-.05 1.65.2 3.25.3 1.6.95 2.95.7 1.4 1.75 2.45 1.15 1.05 2.65 1.65-.15-.55-.25-1t-.1-.85.05-.7q.05-.35.15-.6.15-.3.35-.5.15-.2.4-.35t.55-.25.65-.15q-.45.4-.75.85-.25.4-.4.9-.1.45 0 .9.05.5.25.95t.55.85q.35.45.8.8.5.35 1.05.6.55.3 1.2.45-.15-.1-.3-.25t-.25-.3q-.1-.1-.2-.25t-.15-.3q-.05-.2-.1-.35t-.05-.3v-.35q0-.2.05-.4.3-.45.55-.8t.5-.6q.25-.3.5-.5t.45-.3q.25-.1.45-.1t.4.05q.2.1.4.3.15.2.3.5h-.4q-.2.05-.35.1t-.25.1q-.15.1-.25.15-.1.1-.15.25-.1.1-.15.25t-.05.35 0 .4l.2-.1q.1-.1.2-.15t.2-.15q.1-.05.15-.1l.15-.15q.1-.05.15-.15.05-.05.1-.15.05-.05.1-.15.05.05.05.1v.15q.05.05.05.15v.15q0 .1-.05.2 0 .1-.05.2 0 .1-.05.25-.05.1-.1.25.1.05.2.15t.2.2.15.25.15.25.15.25.1.3q.05.2.05.35.05.15.1.35.95-.4 1.7-.85.75-.4 1.25-.85t.85-.9q.3-.45.45-.9.15-.4.1-.85 0-.4-.2-.75-.15-.35-.45-.7-.3-.3-.7-.5.45 0 .8.1t.6.25.45.4q.15.2.25.5.1.25.15.6t0 .75q0 .35-.1.8t-.25.95q1.35-.7 2.45-1.7 1-1 1.75-2.25.7-1.2 1.05-2.6t.35-2.9q.05-1.45-.3-2.95-.35-1.55-1.05-2.95-.75-1.5-1.8-2.85t-2.45-2.5q.5.25.95.5.5.25.95.5.5.3.95.6.5.35.95.7t.9.75.9.85.9.95.85 1.05q.35 1.35.55 2.6.2 1.3.25 2.55.05 1.2-.05 2.35-.15 1.15-.4 2.2-.3 1.05-.7 2-.45.95-1.1 1.75t-1.45 1.5q-.85.7-1.85 1.2.8-.2 1.5-.55.75-.35 1.35-.8.65-.5 1.2-1.05.55-.65.95-1.35.45-.75.8-1.65t.55-1.95q.25-1.1.35-2.3.15-1.25.15-2.65.25.75.45 1.45.2.75.35 1.45.1.75.2 1.45t.1 1.4-.05 1.4-.15 1.4q-.15.65-.35 1.35-.2.65-.5 1.3-.8.65-1.55 1.2-.8.55-1.6.95-.8.45-1.65.8-.85.3-1.7.5-.9.2-1.8.3-.95.05-1.85-.05-.95-.1-1.95-.35t-2.05-.65q.65.5 1.3.85t1.35.65q.75.25 1.45.4.8.15 1.55.15.85.05 1.65-.05.85-.1 1.75-.35t1.85-.6q.95-.4 1.95-.9-.3.55-.6 1l-.7 1q-.35.5-.7.9-.4.5-.8.9-.45.45-.9.8-.45.4-.95.8-.5.35-1 .65-.55.35-1.15.65l-.9-.3q-.45-.15-.9-.35t-.85-.45-.8-.55-.75-.6q-.4-.35-.7-.75-.4-.35-.7-.8t-.6-.95q0 .2-.05.35v.3q-.05.15-.05.3-.05.15-.05.3l-.1.2q0 .15-.05.25-.05.05-.1.15t-.1.15q.2.25.4.55.2.25.45.5t.5.45q.3.25.6.45.3.25.6.45l.7.4q.35.2.75.35.35.2.8.4l-1.4.5q-.7.2-1.4.35l-1.4.2q-.7.05-1.4.05-.7.05-1.45-.05-.7-.05-1.4-.2-.75-.1-1.45-.3-.75-.2-1.45-.45.4-.2.75-.4.4-.25.75-.45t.65-.4q.35-.25.65-.45.3-.25.55-.45l.45-.45q.25-.25.4-.5.2-.25.35-.5l-.1-.1q0-.1-.05-.2-.05-.05-.05-.2-.05-.1-.05-.2-.05-.15-.05-.25-.05-.15-.05-.3-.05-.15-.05-.35 0-.15-.05-.35l-.6.8-.6.7-.7.7-.7.6q-.4.3-.8.55t-.85.45-.9.4q-.45.15-.95.3l-1.2-.5q-.55-.3-1.05-.6t-1-.7q-.45-.35-.85-.75t-.75-.85q-.4-.45-.7-.9l-.6-1q-.25-.55-.45-1.1.75.45 1.55.75.75.35 1.55.55.75.2 1.55.25.8.1 1.6.05.75 0 1.55-.15t1.6-.4 1.6-.6 1.6-.8q-1.05.4-2.05.65-1.05.25-2 .4-1 .15-1.9.15-.95 0-1.85-.15t-1.75-.4q-.85-.3-1.65-.75-.8-.4-1.55-1t-1.5-1.35q-.25-.9-.45-1.75t-.3-1.65q-.1-.75-.15-1.5-.05-.7 0-1.4 0-.7.1-1.35.05-.65.2-1.25t.3-1.2l.4-1.1q.05 1.25.15 2.4t.35 2.15q.2 1.05.5 2 .3.9.75 1.7.4.8.95 1.4.5.7 1.15 1.2.7.5 1.45.8.8.35 1.75.55-1.15-.65-2.05-1.45T7.9 23.4q-.65-.85-1.1-1.85-.45-.9-.7-2-.2-1-.3-2.1-.05-1.1 0-2.25t.25-2.4q.2-1.15.5-2.4l.7-1q.35-.5.75-.95t.85-.85q.4-.45.9-.8.45-.4.95-.75.55-.35 1.05-.7.55-.3 1.15-.6.55-.25 1.2-.5M20 2.8q.7 0 1.35.15.7.15 1.3.4t1.15.6q.55.4 1 .85.5.45.85 1T26.3 7q.25.6.4 1.25.1.7.1 1.4T26.65 11q-.1.65-.4 1.3-.25.6-.6 1.15t-.85 1q-.45.45-1 .85-.55.35-1.15.6t-1.3.4q-.65.15-1.35.15t-1.35-.15q-.7-.15-1.3-.4t-1.15-.6q-.55-.4-1-.85-.5-.45-.85-1t-.65-1.15q-.25-.65-.4-1.3-.1-.65-.1-1.35t.15-1.4q.1-.65.4-1.25.25-.65.6-1.2.35-.5.85-1 .45-.45 1-.8.55-.4 1.15-.65t1.3-.4Q19.3 2.8 20 2.8"/></g></svg>