<svg xmlns="http://www.w3.org/2000/svg" width="40" height="40"><path fill="#D7A055" d="m24.85 5.4 1.7 16.1-4.05-.1-.1-1.85h2.05l-.85-9-1.9 2c-.03-.04-.05-.08-.07-.12-.01-.01-.01-.02-.02-.03l-.06-.2a.467.467 0 0 1-.05-.1c-.01-.01-.01-.03-.01-.04a.219.219 0 0 1-.03-.05V12a.471.471 0 0 1-.06-.15c-.07-.13-.13-.25-.2-.35-.01-.02-.02-.03-.03-.05a.965.965 0 0 0-.12-.25c-.07-.13-.13-.25-.2-.35s-.15-.18-.25-.25c-.07-.1-.13-.18-.2-.25l-.2-.2 4.65-4.75zM21.2 18.05l.5 7.9-2-.1-1.75-.1v-2l1.65.1-.4-5.8z"/><path d="m21.55 12.2.06.2c-.03-.05-.05-.1-.06-.15s-.03-.1-.05-.15c.01.03.03.07.05.1zm-.15-.35c.01.05.03.1.06.15-.02-.04-.04-.07-.06-.1-.07-.13-.13-.25-.2-.35l-.03-.1c.01.02.02.03.03.05.07.1.13.22.2.35z"/><path fill="#C88214" d="m22.8 15.05.3 1.9-6.05-.1-.05 1.5h-.4c-.04 0-.07 0-.11-.01-.05-.01-.09-.03-.14-.04h-.3c-.06-.02-.12-.03-.18-.04-.04 0-.08-.01-.12-.01-.1-.03-.2-.07-.3-.1-.05 0-.09 0-.13-.01-.04-.02-.08-.03-.12-.04-.07-.03-.15-.07-.25-.1-.07-.03-.13-.07-.2-.1v-2.85h8.05z"/><path d="m15.45 21.1.39.06c-.11 0-.22-.01-.34-.01a4.57 4.57 0 0 1-.36-.07c.1.01.21.02.31.02z"/><path fill="#C88214" d="m29.45 15.05 6 20.25-20.7-6.45v-6.7c.07.03.15.05.25.05.07.03.15.05.25.05.07.03.15.05.25.05.1.03.18.05.25.05.1 0 .2.02.3.05.1 0 .2.02.3.05h.25c.1 0 .2.02.3.05l.05 4.15 6.45 1.15v-4.75l5-.2-1.05-5.9-.2-1.9h2.3z"/><path fill="#D7A055" d="M9.79 18.29c-.19-.28-.36-.56-.49-.84-.1-.18-.18-.37-.26-.56 0-.01-.01-.01 0-.02-.08-.22-.14-.44-.19-.67-.1-.47-.15-.93-.15-1.4v-.15c.04-.45.12-.9.25-1.35.03-.1.06-.2.1-.3 0-.02 0-.04.01-.05.12-.29.26-.57.44-.85.09-.18.2-.35.32-.51.06-.09.12-.18.2-.26.13-.15.26-.29.39-.43l.04-.05.1-.1c.37-.37.8-.68 1.3-.95.47-.23.95-.42 1.45-.55.53-.13 1.07-.2 1.6-.2s1.05.07 1.55.2c.53.13 1.02.32 1.45.55.47.27.88.58 1.25.95.4.4.72.85.95 1.35.27.53.45 1.12.55 1.75l-2 .05c-.07-.37-.2-.72-.4-1.05-.13-.3-.33-.57-.6-.8-.23-.23-.52-.43-.85-.6-.3-.17-.62-.28-.95-.35a3.602 3.602 0 0 0-2.05 0c-.37.07-.7.18-1 .35s-.58.38-.85.65c-.23.23-.43.48-.6.75s-.3.55-.4.85c-.1.27-.17.55-.2.85s-.02.6.05.9c.03.3.1.6.2.9.13.3.28.58.45.85.2.27.43.5.7.7.27.27.57.48.9.65.17.1.35.2.55.3.2.07.4.13.6.2.2.1.4.17.6.2.2.07.4.12.6.15s.42.07.65.1c.2.03.42.05.65.05.23.03.48.05.75.05h.75l.1 1.65h-1.5c-.1 0-.2-.01-.3-.01-.12-.01-.24-.02-.35-.04l-.25-.03c-.02 0-.04-.01-.06-.01l-.39-.06c-.1 0-.21-.01-.31-.02-.03-.01-.06-.01-.08-.02-.07-.01-.14-.04-.21-.06h-.03c-.22-.03-.45-.08-.67-.15-.23-.03-.47-.08-.7-.15s-.47-.15-.7-.25c-.53-.2-1.03-.45-1.5-.75-.11-.08-.22-.16-.32-.23-.28-.22-.56-.48-.83-.77-.11-.14-.22-.27-.31-.41z"/><path fill="#C88214" d="m5.35 24.95 4.75-4.75c.07.07.13.12.2.15.07.07.15.13.25.2.07.03.15.08.25.15.07.03.15.08.25.15.07.03.15.08.25.15.1.03.2.08.3.15.1.03.2.08.3.15.1.03.2.07.3.1l-2.05 1.7 3.4.3v2.05l-8.2-.5z"/><path d="M9.79 18.29c.09.14.2.27.31.41-.11-.14-.22-.27-.31-.41zm-.73-5.34c.12-.34.29-.68.49-1 .09-.12.17-.24.27-.36-.12.16-.23.33-.32.51-.18.28-.32.56-.44.85zm-.21 3.25c.05.23.11.45.19.67a4.758 4.758 0 0 1-.34-2.07c0 .47.05.93.15 1.4z"/><path d="m10.1 20.2-4.75 4.75 8.2.5V23.4l-3.4-.3 2.05-1.7c-.1-.03-.2-.07-.3-.1-.1-.07-.2-.12-.3-.15-.1-.07-.2-.12-.3-.15-.1-.07-.18-.12-.25-.15-.1-.07-.18-.12-.25-.15-.1-.07-.18-.12-.25-.15-.1-.07-.18-.13-.25-.2a.654.654 0 0 1-.2-.15zm-.55-8.25c-.2.32-.37.66-.49 1-.01.01-.01.03-.01.05-.06.13-.11.27-.15.4-.12.42-.18.83-.2 1.25v.15a4.758 4.758 0 0 0 .34 2.07c-.01.01 0 .01 0 .02.07.23.16.45.26.66.15.25.31.5.49.74.09.14.2.27.31.41.27.29.55.55.83.77.11.08.21.16.32.23.47.3.97.55 1.5.75.23.1.47.18.7.25s.47.12.7.15c.2.07.42.12.65.15h.02c.08.03.16.05.24.06.02.01.05.01.08.02.12.03.24.05.36.07.12 0 .23.01.34.01.02 0 .04.01.06.01l.2.03c.13.02.27.03.4.04.1.01.2.01.3.01h1.5l-.1-1.65h-.75c-.27 0-.52-.02-.75-.05a4.4 4.4 0 0 1-.65-.05c-.23-.03-.45-.07-.65-.1s-.4-.08-.6-.15c-.2-.03-.4-.1-.6-.2-.2-.07-.4-.13-.6-.2-.2-.1-.38-.2-.55-.3-.33-.17-.63-.38-.9-.65-.27-.2-.5-.43-.7-.7-.17-.27-.32-.55-.45-.85-.1-.3-.17-.6-.2-.9-.07-.3-.08-.6-.05-.9s.1-.58.2-.85c.1-.3.23-.58.4-.85s.37-.52.6-.75c.27-.27.55-.48.85-.65s.63-.28 1-.35a3.602 3.602 0 0 1 2.05 0c.33.07.65.18.95.35.33.17.62.37.85.6.27.23.47.5.6.8.2.33.33.68.4 1.05l2-.05c-.1-.63-.28-1.22-.55-1.75-.23-.5-.55-.95-.95-1.35a5.89 5.89 0 0 0-1.25-.95c-.43-.23-.92-.42-1.45-.55-.5-.13-1.02-.2-1.55-.2s-1.07.07-1.6.2c-.5.13-.98.32-1.45.55-.5.27-.93.58-1.3.95-.03 0-.05.02-.05.05-.03 0-.05.02-.05.05l-.04.05h-.01c-.14.14-.27.28-.38.43-.08.08-.14.17-.2.26-.1.12-.18.24-.27.36zm12.15 14-.5-7.9h-2l.4 5.8-1.65-.1v2l1.75.1 2 .1zm1.4-9-.3-1.9h-8.05v2.85c.07.03.13.07.2.1s.15.07.25.1c.04.02.08.03.12.04s.08.01.13.01c.1.03.2.07.3.1.04 0 .08.01.12.01.04.01.08.03.13.04h.3c.06.02.13.03.19.04.04.01.07.01.11.01h.4l.05-1.5 6.05.1zm3.45 4.55-1.7-16.1-4.65 4.75.2.2c.07.07.13.15.2.25.07.07.13.15.2.25s.13.2.2.3c.06.11.11.21.17.3l.03.1c.07.1.13.22.2.35.02.03.04.06.06.1v.01c.01.02.01.03.03.05 0 .01 0 .03.01.04.02.05.04.1.05.15s.03.1.06.15c.01.01.01.02.02.03.01.02.01.05.02.07l.05.05 1.9-2 .85 9H22.4l.1 1.85 4.05.1zm8.9 13.8-6-20.25h-2.3l.2 1.9 1.05 5.9-5 .2v4.75l-6.45-1.15-.05-4.15c-.1-.03-.2-.05-.3-.05h-.25c-.1-.03-.2-.05-.3-.05-.1-.03-.2-.05-.3-.05-.07 0-.15-.02-.25-.05-.1 0-.18-.02-.25-.05-.1 0-.18-.02-.25-.05-.1 0-.18-.02-.25-.05v6.7l20.7 6.45zm-4.6-22 6.95 24.4L12.7 30v-2.95L2.2 26.4 8.55 20c-.6-.93-1.02-1.9-1.25-2.9-.23-.93-.3-1.87-.2-2.8.1-.87.33-1.7.7-2.5.4-.8.9-1.52 1.5-2.15.6-.6 1.28-1.1 2.05-1.5.8-.4 1.65-.65 2.55-.75.93-.1 1.87-.03 2.8.2 1 .23 1.98.67 2.95 1.3l6.65-6.6 1.3 11h3.25z"/></svg>