<svg xmlns="http://www.w3.org/2000/svg" width="40" height="40"><path fill="#D7A055" d="m26.45 29.65 2.65.25-2.2-2.65 1.4-1.45 5.5 6.2h-6.7c0-.1-.02-.2-.05-.3 0-.07-.02-.15-.05-.25 0-.1-.02-.2-.05-.3-.03-.1-.05-.2-.05-.3-.03-.1-.07-.2-.1-.3s-.07-.2-.1-.3-.07-.2-.1-.3c-.03-.1-.08-.2-.15-.3z"/><path d="m26 33.05-.03.32.03-.32zm-.25 1.4c.1-.35.17-.71.22-1.08-.04.39-.12.76-.22 1.13-.03.09-.07.18-.11.27.04-.11.08-.21.11-.32zm-.4.93c.04-.07.07-.14.11-.2-.03.07-.07.13-.11.2z"/><path fill="#C88214" d="m26.8 22.55-3.75-5.3-3.35 3.3-3.7-3.4-3.4 4.95-1.25 1.5-1.6-1.65L19.85 3.4 29.9 22.6l-4.75 4.75a.654.654 0 0 0-.15-.2c-.03-.1-.07-.18-.1-.25a.654.654 0 0 1-.15-.2c-.07-.1-.12-.18-.15-.25l-.2-.2c-.03-.1-.08-.18-.15-.25s-.13-.15-.2-.25l-.2-.2 2.95-3z"/><path d="M24.99 35.94c.06-.08.11-.16.16-.24.05-.07.09-.14.14-.21-.06.11-.12.21-.19.31-.03.05-.06.09-.11.14zm-1.25 1.28c.16-.12.31-.25.46-.37-.15.13-.3.26-.46.37zm.47-9.32c-.07-.1-.15-.2-.22-.3.09.09.16.19.22.3zm-.6 9.41.11-.08c-.03.04-.07.06-.11.08zm-.47-10.76c.08.08.15.16.21.24-.08-.08-.15-.16-.21-.24z"/><path fill="#D7A055" d="m22.95 19.7 1.3 1.5 1.2 1.3L24 23.9l-1.05-1.2-3.85 4.35-1.4-1.4z"/><path d="M22 29.85c.03.07.07.15.1.25-.03-.07-.07-.15-.1-.25zm-.11-.15c-.01-.02-.02-.03-.04-.05a.424.424 0 0 0-.06-.14c.03.03.05.06.06.09a.3.3 0 0 0 .04.1zm-.19-.3c.04.04.06.07.09.1-.03-.03-.06-.07-.09-.1zm.1 8.75c.47-.13.92-.32 1.35-.55.16-.09.31-.19.46-.29-.19.15-.4.28-.61.39-.43.23-.88.4-1.35.5-.05.01-.11.02-.16.02.11-.02.21-.04.31-.07zM21.6 29.26c.03.04.06.09.1.14a.45.45 0 0 1-.1-.14zm-.25-.36c.05.05.09.1.11.16l-.11-.11c-.07-.1-.13-.18-.2-.25l-.25-.25v-.05c.07.1.15.18.25.25.07.07.13.15.2.25z"/><path fill="#C88214" d="m20.15 32.35-5.7-5.7 1.15-1.55 4.2 4.35 1.1-1.05v.05l.25.25c.07.07.13.15.2.25l.11.11c.02.03.03.06.04.09.03.03.06.07.09.1l.01.01c.02.05.06.1.1.14.03.03.06.07.09.1v.01c.03.05.05.09.06.14.02.02.03.03.04.05.03.06.07.1.11.15.03.1.07.18.1.25s.07.13.1.2l-2.05 2.05z"/><path fill="#D7A055" d="M25.9 31.5c.1.5.13 1 .1 1.5v.05l-.03.32c-.05.37-.12.73-.22 1.08-.03.11-.07.21-.11.32-.05.14-.11.27-.18.41-.04.06-.07.13-.11.2-.02.03-.04.07-.06.11-.05.07-.09.14-.14.21-.05.08-.1.16-.16.24 0 .02-.01.04-.03.05-.09.13-.19.25-.29.37-.13.16-.27.31-.42.44-.02.01-.03.03-.05.05-.15.12-.3.25-.46.37-.01 0-.02.01-.02.01l-.11.08c-.15.1-.3.2-.46.29-.43.23-.88.42-1.35.55-.1.03-.2.05-.31.07-.42.08-.85.12-1.29.13h-.1c-.53 0-1.07-.08-1.6-.25-.5-.17-.98-.38-1.45-.65a8.42 8.42 0 0 1-1.25-.95c-.37-.4-.68-.82-.95-1.25a8.15 8.15 0 0 1-.65-1.45c-.13-.5-.2-1.02-.2-1.55 0-.57.08-1.12.25-1.65.2-.53.48-1.07.85-1.6l1.45 1.4c-.2.33-.35.67-.45 1s-.15.67-.15 1c.03.33.1.67.2 1s.23.65.4.95c.2.3.42.57.65.8.27.27.55.48.85.65.3.2.62.35.95.45s.68.15 1.05.15c.3 0 .62-.03.95-.1.3-.07.58-.18.85-.35.27-.1.52-.25.75-.45.27-.2.48-.42.65-.65.2-.23.35-.5.45-.8.13-.27.23-.57.3-.9.03-.3.05-.62.05-.95-.03-.37-.1-.73-.2-1.1-.07-.23-.13-.45-.2-.65-.1-.2-.18-.38-.25-.55l-.3-.6c-.1-.17-.22-.33-.35-.5-.1-.2-.22-.38-.35-.55s-.28-.33-.45-.5c-.13-.2-.28-.38-.45-.55l-.55-.55 1.1-1.2 1.05 1.05c.01.02.03.03.04.05.06.08.13.16.21.24l.15.21c.13.17.27.33.4.5l.05.05c.01.02.03.03.04.05.07.1.15.2.22.3.04.05.06.1.09.15.13.2.27.4.4.6s.25.4.35.6c.13.2.25.42.35.65.23.53.4 1.07.5 1.6z"/><path d="M13.5 29.2c-.03.04-.06.09-.07.13 0-.03.01-.05.02-.08l.05-.05zm-.45 1.1c.03-.06.07-.13.09-.2-.01.05-.03.1-.04.15-.07.13-.1.25-.1.35-.03.13-.07.27-.1.4 0-.1.02-.22.05-.35s.07-.25.1-.35zm-.15.7c-.03.13-.05.25-.05.35-.03.1-.05.2-.05.3v-.3c.03-.1.07-.22.1-.35z"/><path d="m17.9 23.75 1.25-1.4-2.8-2.9L6.15 32l6.65-.05v-.3c0-.1.02-.2.05-.3 0-.1.02-.22.05-.35s.07-.27.1-.4c0-.1.03-.22.1-.35.01-.05.03-.1.04-.15.02-.07.04-.14.06-.2.03-.1.08-.22.15-.35.02-.07.05-.15.08-.22.01-.04.04-.09.07-.13l-2.75.05 5.7-6.95 1.45 1.45zm1.9 5.7-4.2-4.35-1.15 1.55 5.7 5.7 2.05-2.05c-.03-.07-.07-.13-.1-.2-.03-.1-.07-.18-.1-.25a.479.479 0 0 0-.11-.15.3.3 0 0 1-.04-.1.236.236 0 0 0-.06-.09v-.01c-.03-.03-.05-.06-.09-.1-.04-.05-.07-.1-.1-.14l-.01-.01a.3.3 0 0 1-.04-.1l-.09-.09a.419.419 0 0 0-.11-.16c-.07-.1-.13-.18-.2-.25a.99.99 0 0 1-.25-.25l-1.1 1.05zm-.7-2.4 3.85-4.35L24 23.9l1.45-1.4-1.2-1.3-1.3-1.5-5.25 5.95 1.4 1.4zm6.9 6V33c.03-.5 0-1-.1-1.5a7.57 7.57 0 0 0-.5-1.6c-.1-.23-.22-.45-.35-.65-.1-.2-.22-.4-.35-.6-.1-.2-.22-.38-.35-.55-.04-.07-.09-.14-.14-.2-.06-.11-.13-.21-.22-.3-.01-.02-.03-.03-.04-.05-.13-.2-.27-.38-.4-.55-.07-.07-.14-.14-.2-.21-.06-.08-.13-.16-.21-.24-.01-.02-.03-.03-.04-.05l-1.05-1.05-1.1 1.2.55.55c.17.17.32.35.45.55.17.17.32.33.45.5s.25.35.35.55c.13.17.25.33.35.5l.3.6c.07.17.15.35.25.55.07.2.13.42.2.65.1.37.17.73.2 1.1 0 .33-.02.65-.05.95-.07.33-.17.63-.3.9-.1.3-.25.57-.45.8-.17.23-.38.45-.65.65-.23.2-.48.35-.75.45-.27.17-.55.28-.85.35-.33.07-.65.1-.95.1-.37 0-.72-.05-1.05-.15s-.65-.25-.95-.45c-.3-.17-.58-.38-.85-.65-.23-.23-.45-.5-.65-.8-.17-.3-.3-.62-.4-.95s-.17-.67-.2-1c0-.33.05-.67.15-1s.25-.67.45-1L15.1 29c-.37.53-.65 1.07-.85 1.6-.17.53-.25 1.08-.25 1.65 0 .53.07 1.05.2 1.55.17.5.38.98.65 1.45.27.43.58.85.95 1.25.4.37.82.68 1.25.95.47.27.95.48 1.45.65.53.17 1.07.25 1.6.25h.2c.4 0 .8-.04 1.19-.13.05 0 .11-.01.16-.02.47-.1.92-.27 1.35-.5.21-.11.42-.24.61-.39.04-.02.08-.04.11-.08 0 0 .01-.01.02-.01.16-.11.31-.24.46-.37.02-.02.03-.04.05-.05.16-.14.3-.29.42-.44.12-.12.21-.24.29-.37.02-.01.03-.03.03-.05.05-.05.08-.09.11-.14.07-.1.13-.2.19-.31.02-.04.04-.08.06-.11.04-.07.08-.13.11-.2.07-.14.13-.27.18-.41.04-.09.08-.18.11-.27.1-.37.18-.74.22-1.13l.03-.32zm-2.95-15.8 3.75 5.3-2.95 3 .2.2c.07.1.13.18.2.25s.12.15.15.25l.2.2c.03.07.08.15.15.25.03.07.08.13.15.2.03.07.07.15.1.25.07.07.12.13.15.2l4.75-4.75L19.85 3.4 9.75 21.95l1.6 1.65 1.25-1.5 3.4-4.95 3.7 3.4 3.35-3.3zm3.75 13.3c.03.1.07.2.1.3 0 .1.02.2.05.3s.05.2.05.3c.03.1.05.18.05.25.03.1.05.2.05.3h6.7l-5.5-6.2-1.4 1.45 2.2 2.65-2.65-.25c.07.1.12.2.15.3s.07.2.1.3.07.2.1.3zM28 33.2c-.23 1.1-.6 2.08-1.1 2.95-.5.8-1.12 1.5-1.85 2.1-.7.57-1.47 1-2.3 1.3s-1.68.45-2.55.45-1.72-.13-2.55-.4-1.6-.68-2.3-1.25c-.73-.6-1.35-1.32-1.85-2.15-.53-.87-.92-1.87-1.15-3h-9.4l6.9-8.7-2.3-2.3L19.9 0l12.25 23.2-2.05 2.1 6.95 7.9H28z"/><path fill="#D7A055" d="m19.15 22.35-1.25 1.4-1.45-1.45-5.7 6.95 2.75-.05-.05.05c-.01.03-.02.05-.02.08-.04.06-.06.11-.08.17-.07.13-.12.27-.15.4-.02.06-.04.13-.06.2s-.06.14-.09.2c-.03.1-.07.22-.1.35s-.05.25-.05.35c-.03.13-.07.25-.1.35v.6L6.15 32l10.2-12.55 2.8 2.9z"/></svg>