<svg xmlns="http://www.w3.org/2000/svg" width="40" height="40"><path d="M27.1 9c.03-.13.05-.25.05-.35.03-.1.05-.2.05-.3v.3c-.03.1-.07.22-.1.35zm-.1.4c.03-.13.07-.27.1-.4 0 .1-.02.22-.05.35s-.07.25-.1.35c-.03.06-.07.13-.09.2.01-.05.03-.1.04-.15.07-.13.1-.25.1-.35zm-.5 1.4c.03-.04.05-.08.08-.12-.02.02-.02.05-.03.07l-.05.05z"/><path fill="#D7A055" d="M27.2 8.05 33.85 8l-10.2 12.55-2.8-2.9 1.25-1.4 1.45 1.45 5.7-6.95-2.75.05.05-.05c.01-.02.01-.05.03-.07 0-.01 0-.02.01-.03.03-.05.05-.1.06-.15.07-.13.12-.27.15-.4.02-.06.04-.13.06-.2s.06-.14.09-.2c.03-.1.07-.22.1-.35s.05-.25.05-.35c.03-.13.07-.25.1-.35v-.6zM17.05 17.3l3.85-4.35 1.4 1.4-5.25 5.95-1.3-1.5-1.2-1.3L16 16.1z"/><path fill="#C88214" d="M18.4 10.74a.45.45 0 0 0-.1-.14c-.03-.03-.06-.07-.09-.1v-.01a.424.424 0 0 1-.06-.14.176.176 0 0 1-.04-.05c-.03-.06-.07-.1-.11-.15-.03-.1-.07-.18-.1-.25s-.07-.13-.1-.2l2.05-2.05 5.7 5.7-1.15 1.55-4.2-4.35-1.1 1.05v-.05l-.25-.25c-.07-.07-.13-.15-.2-.25l-.11-.11c-.02-.03-.03-.06-.04-.09-.03-.03-.06-.07-.09-.1l-.01-.01z"/><path d="M19.1 11.55v.05a.99.99 0 0 0-.25-.25c-.07-.07-.13-.15-.2-.25a.419.419 0 0 1-.11-.16l.11.11c.07.1.13.18.2.25l.25.25zm-.7-.81c-.03-.04-.06-.09-.1-.14.04.04.08.09.1.14zm-.19-.24c.03.03.06.07.09.1-.04-.04-.06-.07-.09-.1zm-.06-.15c.01.05.03.09.06.14a.236.236 0 0 1-.06-.09.3.3 0 0 0-.04-.1c.01.02.02.03.04.05zm-.25-.45c.03.07.07.15.1.25-.03-.07-.07-.15-.1-.25zM17 2.3c.43-.23.88-.4 1.35-.5.05-.01.11-.02.16-.02-.11.02-.21.04-.31.07-.47.13-.92.32-1.35.55-.2.11-.39.24-.57.37.23-.18.47-.34.72-.47zm-.35 10.91c.08.08.15.16.21.24-.08-.08-.15-.16-.21-.24zm-.39-10.43c-.16.12-.31.25-.46.37.15-.13.3-.26.46-.37z"/><path fill="#D7A055" d="M25.8 6.2c.13.5.2 1.02.2 1.55 0 .57-.08 1.12-.25 1.65-.2.53-.48 1.07-.85 1.6l-1.45-1.4c.2-.33.35-.67.45-1s.15-.67.15-1c-.03-.33-.1-.67-.2-1s-.23-.65-.4-.95c-.2-.3-.42-.57-.65-.8-.27-.27-.55-.48-.85-.65-.3-.2-.62-.35-.95-.45s-.68-.15-1.05-.15c-.3 0-.62.03-.95.1-.3.07-.58.18-.85.35-.27.1-.52.25-.75.45-.27.2-.48.42-.65.65-.2.23-.35.5-.45.8-.13.27-.23.57-.3.9-.03.3-.05.62-.05.95.03.37.1.73.2 1.1.07.23.13.45.2.65.1.2.18.38.25.55l.3.6c.1.17.22.33.35.5.1.2.22.38.35.55s.28.33.45.5c.13.2.28.38.45.55l.55.55-1.1 1.2-1.05-1.05c-.01-.02-.03-.03-.04-.05-.06-.08-.13-.16-.21-.24L16.5 13c-.13-.17-.27-.33-.4-.5l-.05-.05c-.01-.02-.03-.03-.04-.05-.07-.1-.15-.2-.22-.3-.04-.05-.06-.1-.09-.15-.13-.2-.27-.4-.4-.6s-.25-.4-.35-.6c-.13-.2-.25-.42-.35-.65a7.57 7.57 0 0 1-.5-1.6c-.1-.5-.13-1-.1-1.5v-.05l.03-.32c.05-.37.12-.73.22-1.08.03-.11.07-.21.11-.32.01-.03.02-.05.03-.08.03-.08.07-.16.11-.24.06-.13.13-.27.21-.4.05-.07.09-.14.14-.21.05-.08.1-.16.16-.24 0-.02.01-.04.03-.05.09-.13.19-.25.29-.37.13-.16.27-.31.42-.44.02-.01.03-.03.05-.05.15-.12.3-.25.46-.37.01 0 .02-.01.02-.01.18-.13.37-.26.57-.37.43-.23.88-.42 1.35-.55.1-.03.2-.05.31-.07.42-.08.85-.12 1.29-.13h.1c.53 0 1.07.08 1.6.25.5.17.98.38 1.45.65.43.27.85.58 1.25.95.37.4.68.82.95 1.25.27.47.48.95.65 1.45z"/><path d="M15.79 12.1c.07.1.15.2.22.3-.09-.09-.16-.19-.22-.3z"/><path fill="#C88214" d="m10.1 17.4 4.75-4.75c.03.07.08.13.15.2.03.1.07.18.1.25.07.07.12.13.15.2.07.1.12.18.15.25l.2.2c.03.1.08.18.15.25s.13.15.2.25l.2.2-2.95 3 3.75 5.3 3.35-3.3 3.7 3.4 3.4-4.95 1.25-1.5 1.6 1.65-10.1 18.55L10.1 17.4z"/><path d="M14.85 4.3c-.05.07-.09.14-.14.21.06-.11.12-.21.19-.31.03-.05.06-.09.11-.14-.06.08-.11.16-.16.24zm-.35.61c-.04.08-.08.16-.11.24.03-.08.07-.16.11-.24zm-.14.32c-.04.11-.08.21-.11.32-.1.35-.17.71-.22 1.08.04-.39.12-.76.22-1.13.03-.09.07-.18.11-.27zm-.33 1.4-.03.32.03-.32z"/><path fill="#D7A055" d="m13.55 10.35-2.65-.25 2.2 2.65-1.4 1.45L6.2 8h6.7c0 .1.02.2.05.3 0 .07.02.15.05.25 0 .1.02.2.05.3.03.1.05.2.05.3.03.1.07.2.1.3s.07.2.1.3.07.2.1.3c.03.1.08.2.15.3z"/><path d="m20.9 12.95-3.85 4.35L16 16.1l-1.45 1.4 1.2 1.3 1.3 1.5 5.25-5.95-1.4-1.4zm-2.6-2.35c.04.05.07.1.1.14l.01.01a.3.3 0 0 1 .04.1l.09.09c.02.06.06.11.11.16.07.1.13.18.2.25.1.07.18.15.25.25l1.1-1.05 4.2 4.35 1.15-1.55-5.7-5.7L17.8 9.7c.03.07.07.13.1.2.03.1.07.18.1.25.02.05.06.1.11.15a.3.3 0 0 1 .04.1c.01.03.03.06.06.09v.01c.03.03.05.06.09.1zM26 7.75c0-.53-.07-1.05-.2-1.55-.17-.5-.38-.98-.65-1.45a8.42 8.42 0 0 0-.95-1.25c-.4-.37-.82-.68-1.25-.95a8.15 8.15 0 0 0-1.45-.65c-.53-.17-1.07-.25-1.6-.25h-.2c-.4 0-.8.04-1.19.13-.05 0-.11.01-.16.02a5.113 5.113 0 0 0-2.07.97s-.01.01-.02.01c-.16.11-.31.24-.46.37-.02.02-.03.04-.05.05-.16.14-.3.29-.42.44-.12.12-.21.24-.29.37-.02.01-.03.03-.03.05-.05.05-.08.09-.11.14-.07.1-.13.2-.19.31-.08.13-.15.27-.21.4-.04.08-.08.16-.11.24-.01.03-.02.05-.03.08-.04.09-.08.18-.11.27-.1.37-.18.74-.22 1.13l-.03.32V7c-.03.5 0 1 .1 1.5.1.53.27 1.07.5 1.6.1.23.22.45.35.65.1.2.22.4.35.6.1.2.22.38.35.55.04.07.09.14.14.2.06.11.13.21.22.3.01.02.03.03.04.05.13.2.27.38.4.55.07.07.14.14.2.21.06.08.13.16.21.24.01.02.03.03.04.05l1.05 1.05 1.1-1.2-.55-.55c-.17-.17-.32-.35-.45-.55-.17-.17-.32-.33-.45-.5s-.25-.35-.35-.55c-.13-.17-.25-.33-.35-.5l-.3-.6a8.15 8.15 0 0 0-.25-.55c-.07-.2-.13-.42-.2-.65-.1-.37-.17-.73-.2-1.1 0-.33.02-.65.05-.95.07-.33.17-.63.3-.9.1-.3.25-.57.45-.8.17-.23.38-.45.65-.65.23-.2.48-.35.75-.45.27-.17.55-.28.85-.35.33-.07.65-.1.95-.1.37 0 .72.05 1.05.15s.65.25.95.45c.3.17.58.38.85.65.23.23.45.5.65.8.17.3.3.62.4.95s.17.67.2 1c0 .33-.05.67-.15 1s-.25.67-.45 1L24.9 11c.37-.53.65-1.07.85-1.6.17-.53.25-1.08.25-1.65zm7.85.25-6.65.05v.3c0 .1-.02.2-.05.3 0 .1-.02.22-.05.35s-.07.27-.1.4c0 .1-.03.22-.1.35-.01.05-.03.1-.04.15-.02.07-.04.14-.06.2-.03.1-.08.22-.15.35l-.06.2c-.01.01-.01.02-.01.03-.03.04-.05.08-.08.12l2.75-.05-5.7 6.95-1.45-1.45-1.25 1.4 2.8 2.9L33.85 8zM12.9 8H6.2l5.5 6.2 1.4-1.45-2.2-2.65 2.65.25c-.07-.1-.12-.2-.15-.3s-.07-.2-.1-.3-.07-.2-.1-.3c-.03-.1-.07-.2-.1-.3 0-.1-.02-.2-.05-.3s-.05-.2-.05-.3a.915.915 0 0 1-.05-.25c-.03-.1-.05-.2-.05-.3zM12 6.8c.23-1.1.6-2.08 1.1-2.95.5-.8 1.12-1.5 1.85-2.1.7-.57 1.47-1 2.3-1.3S18.93 0 19.8 0s1.72.13 2.55.4 1.6.68 2.3 1.25c.73.6 1.35 1.32 1.85 2.15.53.87.92 1.87 1.15 3h9.4l-6.9 8.7 2.3 2.3L20.1 40 7.85 16.8l2.05-2.1-6.95-7.9H12zm2.85 5.85L10.1 17.4l10.05 19.2 10.1-18.55-1.6-1.65-1.25 1.5-3.4 4.95-3.7-3.4-3.35 3.3-3.75-5.3 2.95-3-.2-.2c-.07-.1-.13-.18-.2-.25s-.12-.15-.15-.25l-.2-.2c-.03-.07-.08-.15-.15-.25a.654.654 0 0 0-.15-.2c-.03-.07-.07-.15-.1-.25a.654.654 0 0 1-.15-.2z"/></svg>