<svg xmlns="http://www.w3.org/2000/svg" width="40" height="40"><path d="M38.2 18.35c.01.05.02.11.02.16-.02-.11-.04-.21-.07-.31-.13-.47-.32-.92-.55-1.35-.11-.2-.24-.39-.37-.57a5.113 5.113 0 0 1 .97 2.07zm-1.35-2.55c.13.15.26.3.37.46-.12-.16-.25-.31-.37-.46zm-1.05-.9c.05.03.09.06.14.11-.08-.06-.16-.11-.24-.16-.07-.05-.14-.09-.21-.14.11.06.21.12.31.19zm-2.42-.87c.38.04.75.12 1.12.22.09.03.18.07.27.11-.11-.04-.21-.08-.32-.11-.35-.1-.7-.17-1.07-.22zm-.01 0-.32-.03.32.03zM31.35 27.2c-.1-.03-.22-.07-.35-.1.13.03.25.05.35.05.1.03.2.05.3.05h-.3zm-.7-.15c-.13-.03-.25-.07-.35-.1-.06-.03-.13-.07-.2-.09.05.01.1.03.15.04.13.07.25.1.35.1.13.03.27.07.4.1-.1 0-.22-.02-.35-.05zm-.55-9.15c-.07.03-.15.07-.25.1.07-.03.15-.07.25-.1z"/><path fill="#D7A055" d="M30.55 13.2c-.1.03-.2.07-.3.1s-.2.07-.3.1c-.1.03-.2.08-.3.15l.25-2.65-2.65 2.2-1.45-1.4L32 6.2v6.7c-.1 0-.2.02-.3.05-.07 0-.15.02-.25.05-.1 0-.2.02-.3.05-.1.03-.2.05-.3.05-.1.03-.2.07-.3.1z"/><path d="M29.7 18.11c-.02.01-.03.02-.05.04-.05.01-.09.03-.14.06.03-.03.06-.05.09-.06a.3.3 0 0 0 .1-.04zm-.3.19a.45.45 0 0 1-.14.1c.04-.03.09-.06.14-.1zm-.07 8.28c-.03-.01-.05-.02-.08-.03l-.05-.05c.04.03.09.06.13.08zm-.38-7.93c-.1.07-.18.13-.25.2l-.25.25h-.05c.1-.07.18-.15.25-.25.07-.07.15-.13.25-.2.05-.05.1-.09.16-.11l-.11.11z"/><path fill="#C88214" d="M30.1 17.9c.07-.03.13-.07.2-.1l2.05 2.05-5.7 5.7-1.55-1.15 4.35-4.2-1.05-1.1h.05l.25-.25c.07-.07.15-.13.25-.2l.11-.11c.03-.02.06-.03.09-.04.03-.03.07-.06.1-.09l.01-.01c.05-.02.1-.06.14-.1s.07-.06.11-.09c.05-.03.09-.05.14-.06.02-.02.03-.03.05-.04.06-.03.1-.07.15-.11.1-.03.18-.07.25-.1z"/><path d="M27.6 16.01c.09-.09.19-.16.3-.22-.1.07-.2.15-.3.22zm-.81.64c-.08.08-.16.15-.24.21.08-.08.16-.15.24-.21z"/><path fill="#D7A055" d="M36.8 15.75c.01.02.03.03.05.05.12.15.25.3.37.46 0 .01.01.02.01.02.13.18.26.37.37.57.23.43.42.88.55 1.35.03.1.05.2.07.31.08.42.12.85.13 1.29v.1c0 .53-.08 1.07-.25 1.6-.17.5-.38.98-.65 1.45-.27.43-.58.85-.95 1.25-.4.37-.82.68-1.25.95-.47.27-.95.48-1.45.65-.5.13-1.02.2-1.55.2-.57 0-1.12-.08-1.65-.25-.53-.2-1.07-.48-1.6-.85l1.4-1.45c.33.2.67.35 1 .45s.67.15 1 .15c.33-.03.67-.1 1-.2s.65-.23.95-.4c.3-.2.57-.42.8-.65.27-.27.48-.55.65-.85.2-.3.35-.62.45-.95s.15-.68.15-1.05c0-.3-.03-.62-.1-.95-.07-.3-.18-.58-.35-.85-.1-.27-.25-.52-.45-.75-.2-.27-.42-.48-.65-.65-.23-.2-.5-.35-.8-.45-.27-.13-.57-.23-.9-.3-.3-.03-.62-.05-.95-.05-.37.03-.73.1-1.1.2-.23.07-.45.13-.65.2-.2.1-.38.18-.55.25l-.6.3c-.17.1-.33.22-.5.35-.2.1-.38.22-.55.35s-.33.28-.5.45c-.2.13-.38.28-.55.45l-.55.55-1.2-1.1 1.05-1.05c.02-.01.03-.03.05-.04.08-.06.16-.13.24-.21l.21-.15c.17-.13.33-.27.5-.4l.05-.05c.02-.01.03-.03.05-.04.1-.07.2-.15.3-.22.05-.04.1-.06.15-.09.2-.13.4-.27.6-.4s.4-.25.6-.35c.2-.13.42-.25.65-.35.53-.23 1.07-.4 1.6-.5.5-.1 1-.13 1.5-.1h.05l.32.03h.01c.37.05.72.12 1.07.22.11.03.21.07.32.11.24.1.48.21.72.35.07.05.14.09.21.14.08.05.16.1.24.16.02 0 .04.01.05.03.13.09.25.19.37.29.16.13.31.27.44.42z"/><path fill="#C88214" d="M26 15.75c-.07.07-.15.13-.25.2l-.2.2-3-2.95-5.3 3.75 3.3 3.35-3.4 3.7 4.95 3.4 1.5 1.25-1.65 1.6L3.4 20.15 22.6 10.1l4.75 4.75c-.07.03-.13.08-.2.15-.1.03-.18.07-.25.1-.07.07-.13.12-.2.15-.1.07-.18.12-.25.15l-.2.2c-.1.03-.18.08-.25.15z"/><path fill="#D7A055" d="M30.3 26.95c.1.03.22.07.35.1s.25.05.35.05c.13.03.25.07.35.1h.6l.05 6.65-12.55-10.2 2.9-2.8 1.4 1.25-1.45 1.45 6.95 5.7-.05-2.75.05.05c.03.01.05.02.08.03.01 0 .01 0 .02.01.05.03.1.05.15.06.13.07.27.12.4.15.06.02.13.04.2.06s.14.06.2.09zM23.9 16l-1.2 1.05 4.35 3.85-1.4 1.4-5.95-5.25 1.5-1.3 1.3-1.2z"/><path d="M19.45 23.65 32 33.85l-.05-6.65h-.3c-.1 0-.2-.02-.3-.05-.1 0-.22-.02-.35-.05s-.27-.07-.4-.1c-.1 0-.22-.03-.35-.1-.05-.01-.1-.03-.15-.04-.07-.02-.14-.04-.2-.06-.1-.03-.22-.08-.35-.15l-.2-.06c-.01-.01-.01-.01-.02-.01a.913.913 0 0 1-.13-.08l.05 2.75-6.95-5.7 1.45-1.45-1.4-1.25-2.9 2.8zM32 6.2l-6.2 5.5 1.45 1.4 2.65-2.2-.25 2.65c.1-.07.2-.12.3-.15s.2-.07.3-.1.2-.07.3-.1c.1-.03.2-.07.3-.1.1 0 .2-.02.3-.05s.2-.05.3-.05c.1-.03.18-.05.25-.05.1-.03.2-.05.3-.05V6.2zm-6.25 9.75c.1-.07.18-.13.25-.2s.15-.12.25-.15l.2-.2c.07-.03.15-.08.25-.15.07-.03.13-.08.2-.15.07-.03.15-.07.25-.1.07-.07.13-.12.2-.15L22.6 10.1 3.4 20.15l18.55 10.1 1.65-1.6-1.5-1.25-4.95-3.4 3.4-3.7-3.3-3.35 5.3-3.75 3 2.95.2-.2zm1.3 4.95-4.35-3.85L23.9 16l-1.4-1.45-1.3 1.2-1.5 1.3 5.95 5.25 1.4-1.4zm5.3-1.05L30.3 17.8c-.07.03-.13.07-.2.1-.1.03-.18.07-.25.1-.05.02-.1.06-.15.11a.3.3 0 0 1-.1.04c-.03.01-.06.03-.09.06-.04.03-.07.05-.11.09-.05.04-.1.07-.14.1l-.01.01a.3.3 0 0 1-.1.04l-.09.09c-.06.02-.11.06-.16.11-.1.07-.18.13-.25.2a.99.99 0 0 1-.25.25l1.05 1.1-4.35 4.2 1.55 1.15 5.7-5.7zm6 4.8c-.6.73-1.32 1.35-2.15 1.85-.87.53-1.87.92-3 1.15v9.4l-8.7-6.9-2.3 2.3L0 20.1 23.2 7.85l2.1 2.05 7.9-6.95V12c1.1.23 2.08.6 2.95 1.1.8.5 1.5 1.12 2.1 1.85.57.7 1 1.47 1.3 2.3s.45 1.68.45 2.55-.13 1.72-.4 2.55-.68 1.6-1.25 2.3zm-1.5-8.85c-.02-.02-.04-.03-.05-.05-.14-.16-.29-.3-.44-.42-.12-.12-.24-.21-.37-.29a.055.055 0 0 0-.05-.03.673.673 0 0 0-.14-.11 5.944 5.944 0 0 0-1.03-.54 3.06 3.06 0 0 0-.27-.11c-.37-.1-.74-.18-1.12-.22h-.01l-.32-.03H33c-.5-.03-1 0-1.5.1-.53.1-1.07.27-1.6.5-.23.1-.45.22-.65.35-.2.1-.4.22-.6.35-.2.1-.38.22-.55.35-.07.04-.14.09-.2.14-.11.06-.21.13-.3.22-.02.01-.03.03-.05.04-.2.13-.38.27-.55.4-.07.07-.14.14-.21.2-.08.06-.16.13-.24.21-.02.01-.03.03-.05.04l-1.05 1.05 1.2 1.1.55-.55c.17-.17.35-.32.55-.45.17-.17.33-.32.5-.45s.35-.25.55-.35c.17-.13.33-.25.5-.35l.6-.3c.17-.07.35-.15.55-.25.2-.07.42-.13.65-.2.37-.1.73-.17 1.1-.2.33 0 .65.02.95.05.33.07.63.17.9.3.3.1.57.25.8.45.23.17.45.38.65.65.2.23.35.48.45.75.17.27.28.55.35.85.07.33.1.65.1.95 0 .37-.05.72-.15 1.05s-.25.65-.45.95c-.17.3-.38.58-.65.85-.23.23-.5.45-.8.65-.3.17-.62.3-.95.4s-.67.17-1 .2c-.33 0-.67-.05-1-.15s-.67-.25-1-.45L29 24.9c.53.37 1.07.65 1.6.85.53.17 1.08.25 1.65.25.53 0 1.05-.07 1.55-.2.5-.17.98-.38 1.45-.65.43-.27.85-.58 1.25-.95.37-.4.68-.82.95-1.25.27-.47.48-.95.65-1.45.17-.53.25-1.07.25-1.6v-.2c0-.4-.04-.8-.13-1.19 0-.05-.01-.11-.02-.16a5.113 5.113 0 0 0-.97-2.07s-.01-.01-.01-.02c-.11-.16-.24-.31-.37-.46z"/></svg>