<svg xmlns="http://www.w3.org/2000/svg" width="40" height="40"><g fill-rule="evenodd"><path fill="#4b4b4b" d="M34.15 0H5.85v10.7h1.7v22.1L20 40l12.45-7.2V10.7h1.7V0m-23 3.9V1.5h-3.6v7.2H9.2v22.65l10.8 6.2 10.8-6.2V8.7h1.65V1.5h-3.6v2.4H27.1V1.5h-3.6v2.4h-1.7V1.5h-3.6v2.4h-1.7V1.5h-3.55v2.4h-1.8m3.4 26v-1.75H12.7v1.75h1.85m1.05-1.75v1.75h2.3v-1.75h-2.3m3.35 0v1.75h2.25v-1.75h-2.25m3.3 0v1.75h2.15v-1.75h-2.15m5 0h-1.8v1.75h1.8v-1.75M15.6 25v2.05h2.3V25h-2.3m3.35 0v2.05h2.25V25h-2.25m3.3 0v2.05h2.15V25h-2.15m3.2 0v2.05h1.8V25h-1.8M12.7 25v2.05h1.85V25H12.7m2.9-3.15v2.05h2.3v-2.05h-2.3m3.35 0v2.05h2.25v-2.05h-2.25m3.3 0v2.05h2.15v-2.05h-2.15m3.2 0v2.05h1.8v-2.05h-1.8m-12.75 0v2.05h1.85v-2.05H12.7m0-1.1h1.85V18.6h-1.7q-.1.7-.15 1.4v.75m2.9-2.15v2.15h2.3V18.6h-2.3m3.35 0v2.15h2.25V18.6h-2.25m3.3 0v2.15h2.15V18.6h-2.15m4.85 0h-1.65v2.15h1.8V19.6q-.05-.1-.05-.2t0-.2q-.05-.15-.05-.3-.05-.15-.05-.3m-13.95-1.1h1.4v-2h-.45q-.1.1-.15.25-.1.1-.15.25-.1.1-.15.25t-.1.25q-.1.15-.15.25-.05.15-.1.25-.05.15-.1.25-.05.15-.05.25m2.45-2v2h2.3v-2h-2.3m3.35 0v2h2.25v-2h-2.25m3.3 0v2h2.15v-2h-2.15m3.6 0h-.4v2h1.35q-.05-.1-.05-.25-.05-.1-.1-.25-.05-.1-.1-.25-.05-.1-.1-.25-.1-.15-.15-.25-.05-.15-.15-.25-.05-.15-.15-.25-.05-.15-.15-.25m-7.95-2.6q-.15.05-.35.1l-.3.1-.3.1-.3.1q-.15.1-.3.15-.1.05-.25.15-.1.1-.25.15-.1.1-.25.15v.5h2.3v-1.5m3.3-.2q-.7-.05-1.2-.05h-.65q-.1 0-.15.05h-.25v1.7h2.25v-1.7m1.05.2v1.5h2.15v-.45q-.1-.1-.25-.15-.1-.1-.2-.15-.15-.1-.25-.15-.15-.1-.3-.15-.1-.05-.25-.15l-.3-.1-.3-.1-.3-.1"/><path fill="#969696" d="M11.15 3.9V1.5h-3.6v7.2H9.2v22.65l10.8 6.2 10.8-6.2V8.7h1.65V1.5h-3.6v2.4H27.1V1.5h-3.6v2.4h-1.7V1.5h-3.6v2.4h-1.7V1.5h-3.55v2.4h-1.8m3.4 26v-1.75H12.7v1.75h1.85m1.05-1.75v1.75h2.3v-1.75h-2.3m3.35 0v1.75h2.25v-1.75h-2.25m3.3 0v1.75h2.15v-1.75h-2.15m5 0h-1.8v1.75h1.8v-1.75M12.7 25v2.05h1.85V25H12.7m2.9 0v2.05h2.3V25h-2.3m3.35 0v2.05h2.25V25h-2.25m3.3 0v2.05h2.15V25h-2.15m3.2 0v2.05h1.8V25h-1.8M12.7 21.85v2.05h1.85v-2.05H12.7m2.9 0v2.05h2.3v-2.05h-2.3m3.35 0v2.05h2.25v-2.05h-2.25m3.3 0v2.05h2.15v-2.05h-2.15m3.2 0v2.05h1.8v-2.05h-1.8m-12.75-1.1h1.85V18.6h-1.7q-.1.7-.15 1.4v.75m2.9-2.15v2.15h2.3V18.6h-2.3m3.35 0v2.15h2.25V18.6h-2.25m3.3 0v2.15h2.15V18.6h-2.15m4.85 0h-1.65v2.15h1.8V19.6q-.05-.1-.05-.2t0-.2q-.05-.15-.05-.3-.05-.15-.05-.3m-13.95-1.1h1.4v-2h-.45q-.1.1-.15.25-.1.1-.15.25-.1.1-.15.25t-.1.25q-.1.15-.15.25-.05.15-.1.25-.05.15-.1.25-.05.15-.05.25m2.45-2v2h2.3v-2h-2.3m3.35 0v2h2.25v-2h-2.25m3.3 0v2h2.15v-2h-2.15m3.6 0h-.4v2h1.35q-.05-.1-.05-.25-.05-.1-.1-.25-.05-.1-.1-.25-.05-.1-.1-.25-.1-.15-.15-.25-.05-.15-.15-.25-.05-.15-.15-.25-.05-.15-.15-.25m-7.95-2.6q-.15.05-.35.1l-.3.1-.3.1-.3.1q-.15.1-.3.15-.1.05-.25.15-.1.1-.25.15-.1.1-.25.15v.5h2.3v-1.5m3.3-.2q-.7-.05-1.2-.05h-.65q-.1 0-.15.05h-.25v1.7h2.25v-1.7m1.05.2v1.5h2.15v-.45q-.1-.1-.25-.15-.1-.1-.2-.15-.15-.1-.25-.15-.15-.1-.3-.15-.1-.05-.25-.15l-.3-.1-.3-.1-.3-.1"/></g></svg>