<svg xmlns="http://www.w3.org/2000/svg" width="40" height="40"><g fill-rule="evenodd"><path fill="#46505a" d="M33.65 31.8v-8.2h-27v8.2l1.6 1.05v-5.6h4.65v8.5l1.7 1.1v-9.4h11.05v9.4l1.75-1.1v-8.5H32v5.6l1.65-1.05m2.9-13.05q-.25.15-.5.25t-.55.2-.6.15-.65.05q-.35.05-.75.05-.4.05-.85.05h-.95q-.45-.05-1.05-.05h-24q-.45-.05-.8-.05-.4-.05-.7-.1-.35-.05-.65-.1-.3-.1-.55-.2t-.5-.25v2.55q.2.1.45.2l.4.2q.2.05.45.1l.4.1q.2 0 .4.05h.7q.1.05.25.05h27.85q.2-.05.35-.05t.3-.05q.2-.05.35-.1l.4-.1.4-.2.4-.2v-2.55m-24.2-.85q.85-.55 1.65-1.2.7-.6 1.45-1.25.65-.6 1.25-1.3.55-.55 1.1-1.15.35-.45.85-1.05.6-.65.7-.85l.55-.55q.2-.2.3-.2t.35.2q.2.15.55.55.2.2.75.85.6.65 1 1.05.55.6 1.1 1.15.7.7 1.35 1.3.75.65 1.5 1.25.85.65 1.65 1.2h-16.1m6.75-8.75q-.5.65-.65.85-.4.5-.8.95-.45.55-.95 1.1-.55.55-1.05 1.1-.6.6-1.25 1.1-.65.55-1.35 1.05-.75.55-1.5.95-.85.45-1.65.8v-7.9h9.2m2.35 0h9.15v7.75q-.8-.35-1.55-.8t-1.45-.95q-.65-.45-1.35-1.05-.6-.5-1.2-1.05l-1.1-1.1q-.5-.5-.95-1.05-.4-.4-.85-.95l-.7-.8M35.2 5.1q-.1.15-.25.25t-.4.2q-.25.05-.55.15-.3 0-.65.05-.3.05-.75.05h-1.8q-.65.05-1 .05H9.45q-.55 0-1-.05h-.9q-.45-.05-.85-.1-.35 0-.7-.1-.3-.05-.55-.1-.25-.1-.4-.2-.2-.1-.25-.2v1.95q.1.15.2.25.15.1.35.15.15.1.35.15t.45.05q.2.05.4.05.2.05.4.05t.4 0h25.6q.15 0 .35-.05h.4l.4-.1q.15-.05.35-.1l.3-.1.3-.2q.1-.05.15-.15V5.1m-.85-2.6q-.2.1-.45.15-.2.05-.45.1t-.55.05-.55.05q-.3.05-.65.05t-.75 0h-19.9q-4.4-.05-5.4-.4v1.45q1.05.4 5.35.4h18.25q4.2-.05 5.1-.4V2.5"/><path fill="#28323c" d="M9.85 36v-7.1h1.2v7.9l4.8 3.2V28.9h8.6v11.05l4.6-3.1V28.9h1.2v7.15l4.9-3.25v-9.2h.3q.15-.05.3-.05l.3-.1q.15-.05.3-.15t.35-.2q.15-.1.35-.3l.35-.35q.2-.2.4-.45v-5.9q-.25.3-.5.55-.3.25-.55.4-.3.2-.65.35-.3.1-.65.2-.35.05-.75.1-.35.05-.8.05-.45.05-.95 0-.45 0-1.05-.05V9.15h2.45q.2-.05.35-.05.15-.05.35-.1.15-.1.35-.15.15-.1.35-.25t.4-.35q.2-.15.4-.4V3l-.1.1-.1.1-.1.1q0 .05-.05.1-.05 0-.1.05t-.1.1q-.1.05-.15.05l-.1.1V0q-.25.3-.5.5-.2.2-.5.4-.25.15-.55.25t-.65.15q-.3.1-.7.1-.35.05-.8.05h-.9q-.4-.05-1-.1h-22q-.5 0-.85-.05-.45 0-.8-.05-.35-.1-.65-.15-.3-.1-.6-.25T4.7.5Q4.45.25 4.25 0v3.65q-.05-.05-.1-.05l-.1-.1q-.1 0-.15-.05t-.1-.1-.1-.05l-.1-.1-.1-.1q0-.05-.05-.1v4.85l.4.4q.25.2.45.3.2.15.4.25t.45.15l.4.1q.15.05.35.05.15.05.3.05t.3 0h2.1v8.55H7.45q-.6 0-1-.05-.55 0-.95-.05-.45 0-.8-.1-.4-.05-.75-.2-.35-.1-.65-.25l-.6-.4q-.25-.25-.5-.55V22q.2.2.35.4.2.2.4.35t.4.25q.15.15.35.2.15.1.35.15.15.1.35.1.15.05.35.1h.3v9.25l4.8 3.2m23.8-4.2v-8.2h-27v8.2l1.6 1.05v-5.6h4.65v8.5l1.7 1.1v-9.4h11.05v9.4l1.75-1.1v-8.5H32v5.6l1.65-1.05m2.9-13.05q-.25.15-.5.25t-.55.2-.6.15-.65.05q-.35.05-.75.05-.4.05-.85.05h-.95q-.45-.05-1.05-.05h-24q-.45-.05-.8-.05-.4-.05-.7-.1-.35-.05-.65-.1-.3-.1-.55-.2t-.5-.25v2.55q.2.1.45.2l.4.2q.2.05.45.1l.4.1q.2 0 .4.05h.7q.1.05.25.05h27.85q.2-.05.35-.05t.3-.05q.2-.05.35-.1l.4-.1.4-.2.4-.2v-2.55m-24.2-.85q.85-.55 1.65-1.2.7-.6 1.45-1.25.65-.6 1.25-1.3.55-.55 1.1-1.15.35-.45.85-1.05.6-.65.7-.85l.55-.55q.2-.2.3-.2t.35.2q.2.15.55.55.2.2.75.85.6.65 1 1.05.55.6 1.1 1.15.7.7 1.35 1.3.75.65 1.5 1.25.85.65 1.65 1.2h-16.1m6.75-8.75q-.5.65-.65.85-.4.5-.8.95-.45.55-.95 1.1-.55.55-1.05 1.1-.6.6-1.25 1.1-.65.55-1.35 1.05-.75.55-1.5.95-.85.45-1.65.8v-7.9h9.2m2.35 0h9.15v7.75q-.8-.35-1.55-.8t-1.45-.95q-.65-.45-1.35-1.05-.6-.5-1.2-1.05l-1.1-1.1q-.5-.5-.95-1.05-.4-.4-.85-.95l-.7-.8M35.2 5.1q-.1.15-.25.25t-.4.2q-.25.05-.55.15-.3 0-.65.05-.3.05-.75.05h-1.8q-.65.05-1 .05H9.45q-.55 0-1-.05h-.9q-.45-.05-.85-.1-.35 0-.7-.1-.3-.05-.55-.1-.25-.1-.4-.2-.2-.1-.25-.2v1.95q.1.15.2.25.15.1.35.15.15.1.35.15t.45.05q.2.05.4.05.2.05.4.05t.4 0h25.6q.15 0 .35-.05h.4l.4-.1q.15-.05.35-.1l.3-.1.3-.2q.1-.05.15-.15V5.1m-.85-2.6q-.2.1-.45.15-.2.05-.45.1t-.55.05-.55.05q-.3.05-.65.05t-.75 0h-19.9q-4.4-.05-5.4-.4v1.45q1.05.4 5.35.4h18.25q4.2-.05 5.1-.4V2.5"/></g></svg>