<svg xmlns="http://www.w3.org/2000/svg" width="40" height="40"><g fill-rule="evenodd"><path fill="#50695f" d="m16.05 40 .8-9.3q-.4-.05-.7-.25-.25-.15-.45-.4-.15-.25-.2-.55-.1-.3-.05-.6 0-.35.15-.65t.35-.6.5-.55q.35-.25.7-.4-.95.3-1.7.7-.75.35-1.25.85-.55.45-.9 1t-.55 1.15q-.2.65-.25 1.35 0 .7.05 1.45.1.75.35 1.65.2.8.5 1.75-2.15.2-3.95-.4-1.65-.6-2.95-1.95Q5.3 33 4.4 31.1q-.8-1.8-1.3-4.1-.5-2.15-.7-4.7-.15-2.35-.1-4.95.05-2.45.25-5Q2.8 10 3.2 7.7q.3-.4.6-.75t.65-.65q.3-.3.65-.55t.7-.5q.4-.2.75-.4l.8-.4.8-.3.8-.3q.2.6.55.95.35.3.75.5.4.15.95.25.35.05 1.1.05.8.05 1.15.1.7.05 1.3.2.7.2 1.3.5.7.35 1.35.9 0-.1.05-.25.1-.2.1-.3l.1-.3q0-.2.05-.4v-1q0-.35-.05-.7-.05-.4-.15-.85L20 0l2.5 3.5q-.1.45-.15.85-.05.35-.05.7-.05.3 0 .55v.45q.05.2.05.4l.1.3q0 .1.1.3.05.15.05.25.65-.55 1.35-.9.6-.3 1.3-.5.6-.15 1.3-.2.35-.05 1.15-.1.75 0 1.1-.05.55-.1.9-.25.45-.15.8-.5.3-.35.55-.95.45.15.8.3.45.15.8.3.4.2.8.35.35.25.75.45l.7.5q.35.25.7.55.3.3.6.65.35.35.6.75.4 2.3.6 4.65.25 2.55.3 5 .05 2.6-.1 4.95-.25 2.55-.7 4.7-.5 2.3-1.35 4.1-.85 1.9-2.05 3.15-1.3 1.35-2.95 1.95-1.8.65-3.95.4.3-.95.5-1.75.25-.9.35-1.65.05-.75.05-1.45-.05-.7-.25-1.35-.2-.6-.55-1.15t-.9-1q-.55-.5-1.25-.85-.75-.4-1.7-.7.4.15.7.4t.5.55q.25.3.35.6.15.3.15.65.05.3 0 .6-.1.3-.25.55-.2.25-.45.4-.3.2-.7.25l.8 9.3h-7.9m2.2-2 .65-9.05-.5.05q-.1 0-.15-.05-.05 0-.1-.1t-.05-.2 0-.25q.05-.1.05-.2.1-.15.15-.2l.2-.2q.1-.05.25-.05l.35-3.25q-.75.1-1.4.3-.85.2-1.6.45-.9.3-1.65.7-.85.4-1.5.95-.75.6-1.25 1.3-.5.75-.75 1.65-.25 1-.2 2.15.1 1.2.6 2.6-.3.15-.7 0-.4-.1-.9-.45-.45-.35-.95-.9-.5-.5-1-1.2-.45-.65-.9-1.45-.45-.75-.8-1.55-.4-.85-.65-1.6-.25-.85-.35-1.6-.45-3.3-.5-8.7-.05-5.75.45-8.1.05-.25.2-.5t.4-.5q.2-.25.5-.45.25-.25.55-.45.3-.15.55-.35.25-.15.5-.25l.3-.2q.1-.05.15-.05.05.3.3.55.15.2.5.35.25.15.65.2.3.1.75.15.35.05.85.1.7.05.8.1.45.05.8.1t.65.15q.9.35 2.15.9l1.8.9q.1.05.2.15.05.1.15.25 0 .05.1.25.05.15.1.25.1.1.15.2.1.1.25.1.1.05.3.05.2-.05.4-.2l-.1-.2q-.05-.1-.05-.2t0-.2 0-.25q.05-.1.1-.25.05-.1.1-.25t.15-.3.2-.3q.05-.5.1-.95.05-.5.05-.95.05-.4.05-.8t0-.7v-.6q0-.3-.05-.5t-.1-.3-.15-.15L20 2.9l.6 1.05q-.1.05-.15.15t-.1.3-.05.5v1.3q0 .4.05.8 0 .45.05.95.05.4.1.95l.2.3q.1.15.15.3t.1.25.1.25v.5q-.05.1-.05.2-.05.1-.1.15.25.1.45.15.15.05.3 0 .1 0 .2-.1.05-.1.15-.2.05-.1.1-.25.1-.2.1-.25.1-.15.15-.25.1-.1.2-.15l1.8-.9q1.25-.55 2.15-.9.25-.1.65-.15.3-.05.8-.1.05-.05.8-.1.5-.05.85-.1.45-.05.75-.15.4-.1.7-.2.3-.15.5-.4.2-.2.25-.5l.15.05.3.2q.25.1.5.25.25.2.55.35.3.2.55.45.3.2.5.45.25.25.4.5t.2.5q.5 2.35.45 8.1-.05 5.4-.5 8.7-.1.75-.35 1.6-.25.75-.65 1.6-.35.8-.8 1.55t-.9 1.45q-.5.7-1 1.2-.5.55-.95.9-.5.35-.9.45-.4.15-.7 0 .5-1.4.6-2.6.05-1.15-.2-2.1t-.75-1.7q-.5-.7-1.25-1.3-.65-.55-1.5-.95-.75-.4-1.65-.7-.75-.3-1.6-.5-.65-.15-1.4-.25l.35 3.25q.15 0 .25.05l.2.2q.05.05.1.2l.1.2v.25q0 .1-.05.2t-.1.1q-.05.05-.15.05l-.5-.05.65 9.05h-3.5M11.7 21.2l1.55-2.05 4.1-2.15q.2.1.35.25t.25.35q.15.2.2.5.1.25.15.55l.1.7v.85q0 .4-.05.9t-.1 1.05L17 23.25l-5.25 1.4h-.05l-.05-.05q-.05 0-.05-.05h-.05v-.05l-.05-.05v-.1l.2-3.15m16.6 0-1.55-2.05-4.1-2.15q-.2.1-.35.25t-.25.35q-.15.2-.2.5-.1.25-.15.55l-.1.7v.85q0 .4.05.9t.1 1.05l1.25 1.1 5.25 1.4h.05l.05-.05q.05 0 .05-.05h.05v-.05l.05-.05v-.1l-.2-3.15"/><path fill="#9bb9af" d="m18.25 38 .65-9.05-.5.05q-.1 0-.15-.05-.05 0-.1-.1t-.05-.2 0-.25q.05-.1.05-.2.1-.15.15-.2l.2-.2q.1-.05.25-.05l.35-3.25q-.75.1-1.4.3-.85.2-1.6.45-.9.3-1.65.7-.85.4-1.5.95-.75.6-1.25 1.3-.5.75-.75 1.65-.25 1-.2 2.15.1 1.2.6 2.6-.3.15-.7 0-.4-.1-.9-.45-.45-.35-.95-.9-.5-.5-1-1.2-.45-.65-.9-1.45-.45-.75-.8-1.55-.4-.85-.65-1.6-.25-.85-.35-1.6-.45-3.3-.5-8.7-.05-5.75.45-8.1.05-.25.2-.5t.4-.5q.2-.25.5-.45.25-.25.55-.45.3-.15.55-.35.25-.15.5-.25l.3-.2q.1-.05.15-.05.05.3.3.55.15.2.5.35.25.15.65.2.3.1.75.15.35.05.85.1.7.05.8.1.45.05.8.1t.65.15q.9.35 2.15.9l1.8.9q.1.05.2.15.05.1.15.25 0 .05.1.25.05.15.1.25.1.1.15.2.1.1.25.1.1.05.3.05.2-.05.4-.2l-.1-.2q-.05-.1-.05-.2t0-.2 0-.25q.05-.1.1-.25.05-.1.1-.25t.15-.3.2-.3q.05-.5.1-.95.05-.5.05-.95.05-.4.05-.8t0-.7v-.6q0-.3-.05-.5t-.1-.3-.15-.15L20 2.9l.6 1.05q-.1.05-.15.15t-.1.3-.05.5v1.3q0 .4.05.8 0 .45.05.95.05.4.1.95l.2.3q.1.15.15.3t.1.25.1.25v.5q-.05.1-.05.2-.05.1-.1.15.25.1.45.15.15.05.3 0 .1 0 .2-.1.05-.1.15-.2.05-.1.1-.25.1-.2.1-.25.1-.15.15-.25.1-.1.2-.15l1.8-.9q1.25-.55 2.15-.9.25-.1.65-.15.3-.05.8-.1.05-.05.8-.1.5-.05.85-.1.45-.05.75-.15.4-.1.7-.2.3-.15.5-.4.2-.2.25-.5l.15.05.3.2q.25.1.5.25.25.2.55.35.3.2.55.45.3.2.5.45.25.25.4.5t.2.5q.5 2.35.45 8.1-.05 5.4-.5 8.7-.1.75-.35 1.6-.25.75-.65 1.6-.35.8-.8 1.55t-.9 1.45q-.5.7-1 1.2-.5.55-.95.9-.5.35-.9.45-.4.15-.7 0 .5-1.4.6-2.6.05-1.15-.2-2.1t-.75-1.7q-.5-.7-1.25-1.3-.65-.55-1.5-.95-.75-.4-1.65-.7-.75-.3-1.6-.5-.65-.15-1.4-.25l.35 3.25q.15 0 .25.05l.2.2q.05.05.1.2l.1.2v.25q0 .1-.05.2t-.1.1q-.05.05-.15.05l-.5-.05.65 9.05h-3.5M11.7 21.2l1.55-2.05 4.1-2.15q.2.1.35.25t.25.35q.15.2.2.5.1.25.15.55l.1.7v.85q0 .4-.05.9t-.1 1.05L17 23.25l-5.25 1.4h-.05l-.05-.05q-.05 0-.05-.05h-.05v-.05l-.05-.05v-.1l.2-3.15m16.6 0-1.55-2.05-4.1-2.15q-.2.1-.35.25t-.25.35q-.15.2-.2.5-.1.25-.15.55l-.1.7v.85q0 .4.05.9t.1 1.05l1.25 1.1 5.25 1.4h.05l.05-.05q.05 0 .05-.05h.05v-.05l.05-.05v-.1l-.2-3.15"/></g></svg>