<svg xmlns="http://www.w3.org/2000/svg" width="40" height="40"><g fill-rule="evenodd"><path fill="#2d2d2d" d="M32.1 36.75q.1.05.25.2.05.1.2.25.05.15.2.4.2.25.25.4.15.25.3.45l.4.5.45.45.6.4q.3.2.6.15.25 0 .4-.2.2-.2.3-.55t.15-.75 0-.9q0-.45-.05-.85-.05-.45-.15-.8-.1-.4-.25-.6-.1-.2-.25-.4-.1-.15-.25-.35-.15-.1-.3-.3l-.3-.3q-.15-.15-.25-.3-.15-.15-.25-.3-.15-.15-.25-.3-.1-.2-.15-.35-.3-.7-.85-2 .2.4-1.1-2.65-.75-1.75-1.3-3.05-.75-1.75-1.35-3.3-.75-1.85-1.3-3.45-.7-1.85-1.15-3.4-.55-1.75-.9-3.15-.35-1.6-.45-2.8l-4.8-4.05-.45 2.7-.55-4.35-4-3.2q-.35 2.25-.8 4.7-.4 2.35-.95 4.85-.45 2.35-1.05 4.85-.5 2.3-1.1 4.7-.55 2.2-1.1 4.35Q10 25.5 9.5 27.4q-.5 1.8-1 3.35-.45 1.5-.8 2.6-.1.3-.3.5-.2.15-.5.25-.25.05-.6.1-.2 0-.6-.05h-.65q-.3 0-.55.05t-.45.15q-.15.1-.25.35-.05.2.05.45.05.2.25.5.2.25.5.55.3.25.65.5t.75.5q.4.2.75.35.4.2.7.25.35.1.6.1.1 0 .2-.05t.2-.1q.05-.05.2-.15.2-.15.15-.15.1-.05.15-.1h.15q.05 0 .05.05.05.05 0 .15 0 .05.05.15t.15.25q.05.1.2.25.1.15.25.25.15.15.35.3.2.1.4.25.2.1.45.2.2.1.45.15l.6.1h.65q.35 0 .65-.05.35-.05.65-.15.3-.05.55-.15.3-.1.55-.2l.4-.2q.15-.1.25-.2.15-.1.35-.1.15 0 .35.1t.4.25l.35.35q-.05-.1.35.35.2.2.35.3.15.15.25.2.15.1.25.05t.2-.15q.05-.15.15-.3.05-.15.1-.35t.05-.45.05-.45-.05-.5q0-.25-.05-.45-.05-.25-.15-.5 0 .05-.05-.05-.05-.05-.1-.15l-.2-.3-.2-.5-.2-.7q-.1-.45-.2-.95-.1-.55-.1-1.2-.05-.7-.05-1.5 0-.65.05-1.2t.15-1.05q.1-.45.25-.8.1-.4.3-.7l.4-.5q.2-.2.45-.3.25-.15.5-.2.25-.1.5-.1.3 0 .55.05.25.1.45.2.25.15.45.35t.35.5q.2.3.3.65.15.35.2.85.1.45.15 1t.05 1.2V33q-.05.65-.1 1.2-.05.5-.1.95-.05.4-.1.7t-.1.5-.1.3-.1.2.1-.05q.2-.1.35-.15.25-.15.45-.2.3-.1.55-.2.3-.1.5-.1.25 0 .45.05t.3.2q.1.2.05.45 0 .1-.05.2 0 .1-.1.25-.05.1-.1.25-.05.05-.15.25t-.15.3l-.1.3q-.1.15-.1.25l-.1.3q-.1.4.05.65.1.2.35.25.25 0 .65-.1.3-.1.75-.3.4-.15.8-.4t.75-.55q.35-.25.6-.5t.3-.4q.05-.1.05-.2t0-.2-.05-.25l-.1-.2q0-.05-.1-.25-.05-.15-.1-.25 0-.1-.05-.2v-.3l.05-.05H28q.05-.05.1-.05h.25q.05 0 .1.05.75.1 2.25.6.7.25 1.4.45M21.25 7.45q0-.1-.25 1.55-.3 1.6-.55 2.65-.35 1.75-1.6 5.05v.05q0 .1.35-2.25.35-2.5.35-3.8t-.4-4.1Q19 5.35 18.8 4.1l-2.4-1.75q-1.05 7-3.55 17.3.4-1.65-3.35 13.15-.05.15-.1.35t-.15.35-.15.35q-.1.2-.2.35t-.2.3-.2.3q-.1.15-.2.25-.15.1-.25.15l-.05.05q-.05.05-.1.05t-.1.05h-.1q-.05 0-.1.05h-.4q-.25 0-.75-.05h-.3q-.1-.05-.15-.05h-.4q-.05 0-.05.05H5.5q0 .05.05.1-.05-.1-.05-.05t.05.1.1.1.15.1q.1.1.2.15.15.05.25.15.15.05.25.1.15.1.3.15t.25.1q.05 0 .1.05.05 0 .15.05h.1q.05.05.1.05t.1 0l.05.05h.2q.1 0 .25-.05.1 0 .25-.1.1-.05.2-.15.1-.05.2-.15t.25-.2l.2-.2q.1-.15.2-.2.1-.15.2-.2l.05-.05.05-.1q0-.05.05-.1.05 0 .05-.05.05-.05.1-.05l.1-.05h.1q.1-.05.15-.05t.15 0q.05-.05.1-.05t.1.05.1.05q.05 0 .05.05t0 .1v.2q-.05.05-.05.15-.05.1-.05.25-.05.05-.1.2 0 .15-.05.25t-.05.2q-.05.15-.05.25v.1q-.05.05-.05.1v.45q.05.15.15.25t.25.25q.1.1.3.15.15.1.35.2.15.05.35.1t.4.1.35.05h.35q.15 0 .35-.05t.4-.1q.2-.1.45-.2.15-.05.4-.2l.4-.2q.25-.1.45-.2.2-.05.35-.1.2-.05.35-.05t.3.05l.3.2q.15.1.3.25.15.1.3.25-.05-.1.3.25.15.1.2.2.1.1.2.1.05.05.1 0v-.15q0-.1-.05-.2 0-.15-.05-.3-.1-.2-.15-.4-.05-.15-.15-.35t-.2-.35q-.1-.2-.15-.35-.15-.15-.25-.3l-.2-.2q-.1-.05-.25-.1-.1-.05-.25-.05-.15-.05-.35 0h-.3q-.15.05-.35.05-.1.05-.3.1-.2 0-.3.05h-.25q-.1 0-.2.05t-.2.1q-.1 0-.25.05-.15.1-.2.1l-.2.1h-.3q-.05 0-.1-.1v-.1q-.05-.05-.05-.15t.05-.2v-.2q.05-.15.1-.25 0-.1.05-.15.05-.1.1-.15t.1-.1q.1-.05.2-.05h.3q.15-.05.35-.05h.75q.2 0 .4.05h.8q.3.05.55.05-.05-.1-.1-.4-.1-.35-.15-.8-.05-.65-.1-1.45-.05-.95-.05-2.15V30q0-.55.1-1.1.1-.5.3-.95.15-.45.4-.85.2-.4.5-.7.25-.3.6-.55.3-.25.65-.45.35-.15.7-.25.35-.05.7-.05t.7.05q.35.1.65.25.35.15.65.4t.55.55q.3.3.5.7t.35.8q.2.5.25 1 .1.5.15 1.05v.2q0 2.55-.2 3.95l-.2.9h.1q.1-.05.15-.05.15 0 .25-.05h.75q.1 0 .2.05.1 0 .2.05l.05.05.05.05.05.05q.05.05.05.1.05 0 .05.05.05.05.05.1.05 0 .05.05.05.05.05.1.05.05.1.15 0 .05.05.15t.1.15q0 .1.05.15 0 .1.05.15v.15q.05.1.05.15v.25q0 .1-.05.15 0 .05-.05.15 0 .05-.05.15-.05.05-.05.15-.05.05-.1.15-.05.05-.1.15-.05.05-.1.15.05-.05-.1.15l-.1.1q-.05.1-.05.15l-.1.1v.05q-.05.05-.05.1h.2q.1 0 .2-.1l.3-.1.3-.2.3-.2.3-.2.25-.25q.1-.1.15-.2 0-.05.05-.05v-.1q.05-.1 0-.2v-.25q-.05-.1-.1-.25-.05-.1-.1-.3-.1-.2-.1-.3-.1-.15-.1-.25-.05-.15-.05-.25t0-.2q0-.05.05-.05 0-.05.05-.1l.2-.1.3-.1h1.2q.2.05.4.05l.4.1q.2 0 .4.05h.05l.4.1.4.1q.25.05.45.15.2.05.45.15.2.1.4.15l.4.2q.2.1.35.2t.3.2q.05 0 .05.05.05 0 .05.05.05 0 .1.05l.05.05.05.05q.05.05.05.1.05 0 .1.05 0 .05.05.1l.2.3q.1.1.2.3.1.1.2.3-.15-.25.2.3.05.15.15.25l.1.2q.1.05.15.1t.1.05.05-.05.05-.05v-.1q.05-.1.05-.15v-1q-.05-.15-.05-.25t-.05-.2-.05-.2-.05-.2-.05-.2l-.1-.2q-.05-.05-.1-.15l-.15-.15q-.05-.1-.2-.25-.05 0-.2-.2l-.25-.25-.3-.3q-.1-.15-.2-.25-.15-.2-.25-.35t-.15-.3q.4 1-2.7-6.3-2.2-5.1-3.55-8.7-1.9-5-2.6-8.05-.1-.6-.15-.7l-2.55-2.5"/><path fill="#735541" d="M9.9 34.95q.05 0 .1-.05h.1q.05-.05.1-.05.1-.05.15-.05h.25q.05 0 .1.05t.05.1 0 .2q0 .1-.05.25-.05.1-.1.3-.2.75-.1.35-.05.2-.05.35l-.1.3v.5q.05.15.15.25t.25.25q.1.1.3.15.15.1.35.2.15.05.35.1t.4.1.35.05h.35q.15 0 .35-.05t.4-.1q.2-.1.45-.2.15-.05.4-.2l.4-.2q.25-.1.45-.2.2-.05.35-.1.2-.05.35-.05t.3.05l.3.2q.15.1.3.25.15.1.3.25-.05-.1.3.25.15.1.2.2.1.1.2.1.05.05.1 0v-.15q0-.1-.05-.3-.05-.15-.1-.35-.1-.2-.15-.4-.1-.25-.2-.45t-.25-.4q-.1-.2-.2-.3-.1-.15-.25-.25-.1-.05-.25-.1-.1-.05-.25-.05-.15-.05-.35 0h-.3q-.15.05-.35.05-.1.05-.3.1-.2 0-.3.05h-.25q-.1 0-.2.05t-.2.1q-.1 0-.25.05-.15.1-.2.1l-.2.1h-.3q-.05 0-.1-.1v-.1q-.05-.05-.05-.15t.05-.2v-.2q.05-.1.05-.2.05-.15.1-.2.05-.1.1-.15t.1-.1q.1-.05.35-.05.15-.05.45-.05h.55q.25 0 .55.05h.55q.25 0 .45.05h.45q0-.05-.05-.2-.1-.3-.15-.7-.1-.65-.15-1.5-.05-1.05-.05-2.4 0-.6.1-1.15.05-.5.25-.95.15-.5.4-.9.2-.4.5-.7.3-.35.6-.6.35-.25.7-.4.35-.2.7-.3.35-.05.7-.05t.7.1q.35.05.7.25.35.15.65.4t.55.55q.3.35.5.75t.35.85.25 1 .1 1.1q0 2.55-.2 3.95l-.2.9h.05q.1-.05.15-.05h.2q.15-.05.25-.05h.55q.15 0 .25.05.1 0 .2.05l.15.15q.05.05.15.2l.1.2q.1.1.15.25.05.1.1.25.05.1.1.25 0 .1.05.25v.2q0 .1-.05.25 0 .15-.1.3-.05.1-.15.25-.05.15-.2.3.05-.05-.15.25-.1.15-.15.2-.05.1-.05.2-.05.05 0 .05t.1 0q.1 0 .25-.1.1-.05.25-.1.2-.1.35-.2t.3-.2.3-.2l.25-.25q.1-.1.15-.2t.05-.25q0-.1-.05-.3 0-.15-.1-.3 0-.1-.1-.35t-.15-.35q-.05-.2-.05-.3-.05-.15 0-.25 0-.1.1-.2l.2-.1.3-.1h1.2q.2.05.45.05l.4.1q.2 0 .4.05t.4.1.4.1q.25.05.45.15.2.05.45.15.2.1.4.15l.4.2q.2.1.35.2t.3.2.3.25q.1.15.25.35.15.15.3.4.1.15.25.4.4.65.2.35.15.2.2.3.1.15.2.2.05.1.1.05.05 0 .1-.1 0-.1.05-.25v-.75q0-.2-.05-.45-.05-.2-.1-.45l-.1-.4q-.1-.2-.2-.35l-.15-.15q-.05-.1-.2-.25-.05 0-.2-.2l-.25-.25-.3-.3q-.1-.15-.2-.25-.15-.2-.25-.35t-.15-.3q.65 1.55-2.85-6.6-2.25-5.3-3.65-9.05-1.9-5.15-2.5-8.1l-2.55-2.5-.25 1.4q-.3 1.65-.55 2.8t-.95 3.2q-.3.95-.65 1.9 0 .1.35-2.25.35-2.5.35-3.8t-.4-4.1Q19 5.35 18.8 4.1l-2.4-1.75q-1.05 7-3.55 17.3.4-1.65-3.35 13.15-.05.2-.1.35-.05.2-.15.4-.05.15-.15.35-.1.15-.2.35l-.2.3q-.1.15-.2.25-.1.15-.2.25-.15.1-.25.15-.1.1-.3.15-.15 0-.35.05H7q-.2 0-.45-.05.05 0-.4-.05H5.6q-.1 0-.1.05t.05.15q.1.05.2.15l.3.2q.15.1.35.2t.4.2.4.15q.2.1.35.1.2.05.3.05t.25-.05q.1 0 .25-.1.1-.05.2-.15.1-.05.2-.15t.25-.2l.2-.2q.1-.15.2-.2.1-.15.2-.2l.05-.05.05-.1q0-.05.05-.1.05 0 .05-.05.05-.05.1-.05"/></g></svg>