<svg xmlns="http://www.w3.org/2000/svg" width="40" height="40"><path fill="#7A5B4D" fill-rule="evenodd" d="M20.15 25.45c.133.167.283.317.45.45.133.167.283.317.45.45.133.167.283.317.45.45l.45.45c.167.133.333.283.5.45l.5.4c.133.167.283.317.45.45l.5.4L30.2 34 20 38.25l-11.9-5.1-.05-.25a5.47 5.47 0 0 1-.05-.65c-.067-.333-.117-.65-.15-.95a155.3 155.3 0 0 0-.1-1.15c-.067-.467-.1-.9-.1-1.3-.033-.467-.067-.917-.1-1.35v-1.25c.033-.4.067-.767.1-1.1.033-.333.1-.667.2-1 .067-.333.15-.683.25-1.05.067-.333.167-.683.3-1.05.1-.333.217-.683.35-1.05l.4-1c.133-.333.267-.683.4-1.05.133-.333.283-.667.45-1 .167-.3.317-.617.45-.95.7-1.467 2.133-4.05 4.3-7.75 1.033-1.7 2.05-3.4 3.05-5.1-.633-.267-1.117-.55-1.45-.85-.3-.267-.467-.533-.5-.8-.033-.233.05-.45.25-.65a1.2 1.2 0 0 1 .65-.4c.3-.1.6-.117.9-.05.333.067.6.217.8.45.233.267.383.617.45 1.05.067.5.017 1.083-.15 1.75-.033.167-.133.483-.3.95-.6 1.6-.783 2.1-.55 1.5-.267.667-.5 1.283-.7 1.85-.233.767-.45 1.483-.65 2.15L16 13.4a34.967 34.967 0 0 0-.3 2.35 12.1 12.1 0 0 0 0 2.2c.067.733.217 1.383.45 1.95.067.167.133.317.2.45.1.167.183.333.25.5.1.167.2.35.3.55.133.167.25.333.35.5.133.2.267.383.4.55.133.2.267.383.4.55.133.2.283.4.45.6.167.167.333.35.5.55l2.3-8.1c-.067-.867-.1-1.433-.1-1.7.133-1.733.25-3.483.35-5.25l-.05.15c0 .133-.017.267-.05.4-.067.2-.117.417-.15.65-.067.233-.133.483-.2.75s-.15.533-.25.8c-.067.3-.15.567-.25.8-.067.3-.15.55-.25.75-.1.267-.2.483-.3.65s-.183.4-.25.7c-.1.267-.183.583-.25.95s-.15.767-.25 1.2c-.033.4-.083.817-.15 1.25s-.117.867-.15 1.3c-.033.4-.05.783-.05 1.15-.033.367-.05.683-.05.95s.017.467.05.6c-.067-.1-.15-.2-.25-.3a1.639 1.639 0 0 1-.2-.25l-.2-.3a.628.628 0 0 1-.15-.25 1.639 1.639 0 0 0-.2-.25c-.033-.1-.083-.2-.15-.3a2.446 2.446 0 0 0-.15-.25l-.1-.2c-.267-.567-.45-1.217-.55-1.95a15.072 15.072 0 0 1-.05-2.15c.033-.7.133-1.467.3-2.3.133-.7.317-1.45.55-2.25a25.15 25.15 0 0 1 .65-2.15c.133-.5.35-1.133.65-1.9.267-.767.433-1.267.5-1.5.167-.5.267-.85.3-1.05.033-.1.05-.2.05-.3s.017-.183.05-.25v-.3a.557.557 0 0 0 .05-.25V3s-.017-.15-.05-.25l4.45 2.5.85-3 1.45.35L25.8 6l6.75 3.75-.9 9.8-1.4 4.75-1.55-8.45c-.033.033-.117.667-.25 1.9-.133 1.333-.2 2.267-.2 2.8v.4l.1.4c0 .1.017.2.05.3.033.067.067.167.1.3.033.133.067.233.1.3.033.133.067.25.1.35 0 .1.017.217.05.35v.4c0 .567-.083 1.583-.25 3.05-.1.7-.2 1.383-.3 2.05l-.8-.45-.05-.2a10.11 10.11 0 0 1-.2-.55c-.1-.233-.183-.5-.25-.8-.1-.333-.2-.65-.3-.95-.1-.4-.2-.783-.3-1.15-.1-.4-.183-.783-.25-1.15-.1-.4-.167-.767-.2-1.1-.067-.4-.1-.75-.1-1.05-.067-1.067.083-2.767.45-5.1l.5-3.2c0-.133-.317.767-.95 2.7-.667 2.033-1.067 3.55-1.2 4.55-.033.267-.05.583-.05.95 0 .333.017.7.05 1.1 0 .367.033.75.1 1.15.033.367.067.75.1 1.15.033.333.083.667.15 1l.1.8c.033.2.067.383.1.55 0 .067.017.133.05.2l-3.55-1.95c-.033-.033-.067-.083-.1-.15s-.067-.15-.1-.25-.067-.217-.1-.35-.05-.267-.05-.4a9.768 9.768 0 0 0-.1-.45v-.45c-.033-.167-.05-.317-.05-.45s.017-.267.05-.4l-1 3.4m-10.5-4.1.5 1.3 1.45.15-.1.75.75 1.5.75-.8.15 2.2-.5.8.7 2.1-.25 1.85-1.05-.35-1.7-2.85-.7.6-.55-.8-.25-3.4c0-.067.017-.133.05-.2V24a.557.557 0 0 0 .05-.25.444.444 0 0 0 .05-.2.444.444 0 0 0 .05-.2.444.444 0 0 0 .05-.2.557.557 0 0 0 .05-.25l.1-.2c0-.067.017-.117.05-.15 0-.067.017-.133.05-.2 0-.033.017-.083.05-.15 0-.067.017-.117.05-.15 0-.067.017-.133.05-.2 0-.033.017-.083.05-.15 0-.067.017-.117.05-.15a.444.444 0 0 0 .05-.2" clip-rule="evenodd"/><path fill="#2D2D2D" fill-rule="evenodd" d="M17.55 0c.1 0 .2.017.3.05.067 0 .15.017.25.05s.183.067.25.1c.1.033.183.067.25.1.1.033.183.083.25.15a.784.784 0 0 0 .2.15l.2.2c.067.1.133.183.2.25l4.4 2.45.8-2.65 3.45.95-1 3.5 6.75 3.75-1 11.1-2.45 7.3-.65-1.75-.65 4.4-3.1-1.3c.467.367.933.75 1.4 1.15.467.333.933.683 1.4 1.05.4.333.817.65 1.25.95.367.3.733.583 1.1.85.333.233.65.45.95.65.267.2.517.383.75.55.167.1.317.2.45.3l.15.15L20.05 40l-13.3-5.55v-.15c-.067-.267-.1-.433-.1-.5a43.283 43.283 0 0 0-.1-.75c-.067-.333-.117-.65-.15-.95a155.3 155.3 0 0 0-.1-1.15l-.1-1.3c-.033-.467-.05-.917-.05-1.35-.033-.5-.033-.983 0-1.45 0-.267.017-.517.05-.75 0-.267.017-.533.05-.8.033-.233.067-.483.1-.75.033-.233.067-.483.1-.75.067-.233.117-.467.15-.7l.2-.7c.033-.233.083-.45.15-.65.067-.2.15-.4.25-.6.767-2.167 2.517-5.583 5.25-10.25 1.3-2.1 2.6-4.217 3.9-6.35a6.19 6.19 0 0 1-1.25-.75c-.3-.267-.517-.533-.65-.8s-.183-.533-.15-.8c0-.233.067-.483.2-.75.133-.2.3-.4.5-.6a3.644 3.644 0 0 1 1.6-.8 3.09 3.09 0 0 1 .95-.05m2.6 25.45c.133.167.283.317.45.45.133.167.283.317.45.45.133.167.283.317.45.45l.45.45c.167.133.333.283.5.45l.5.4c.133.167.283.317.45.45l.5.4L30.2 34 20 38.25l-11.9-5.1-.05-.25a5.47 5.47 0 0 1-.05-.65c-.067-.333-.117-.65-.15-.95a155.3 155.3 0 0 0-.1-1.15c-.067-.467-.1-.9-.1-1.3-.033-.467-.067-.917-.1-1.35v-1.25c.033-.4.067-.767.1-1.1.033-.333.1-.667.2-1 .067-.333.15-.683.25-1.05.067-.333.167-.683.3-1.05.1-.333.217-.683.35-1.05l.4-1c.133-.333.267-.683.4-1.05.133-.333.283-.667.45-1 .167-.3.317-.617.45-.95.7-1.467 2.133-4.05 4.3-7.75 1.033-1.7 2.05-3.4 3.05-5.1-.633-.267-1.117-.55-1.45-.85-.3-.267-.467-.533-.5-.8-.033-.233.05-.45.25-.65a1.2 1.2 0 0 1 .65-.4c.3-.1.6-.117.9-.05.333.067.6.217.8.45.233.267.383.617.45 1.05.067.5.017 1.083-.15 1.75-.033.167-.133.483-.3.95-.6 1.6-.783 2.1-.55 1.5-.267.667-.5 1.283-.7 1.85-.233.767-.45 1.483-.65 2.15L16 13.4a34.967 34.967 0 0 0-.3 2.35 12.1 12.1 0 0 0 0 2.2c.067.733.217 1.383.45 1.95.067.167.133.317.2.45.1.167.183.333.25.5.1.167.2.35.3.55.133.167.25.333.35.5.133.2.267.383.4.55.133.2.267.383.4.55.133.2.283.4.45.6.167.167.333.35.5.55m-9.35-2.8.5 1.3 1.45.15-.1.75.75 1.5.75-.8.15 2.2-.5.8.7 2.1-.25 1.85-1.05-.35-1.7-2.85-.7.6-.55-.8-.25-3.4c0-.067.017-.133.05-.2V24a.557.557 0 0 0 .05-.25.444.444 0 0 0 .05-.2.444.444 0 0 0 .05-.2.444.444 0 0 0 .05-.2.557.557 0 0 0 .05-.25l.1-.2c0-.067.017-.117.05-.15 0-.067.017-.133.05-.2 0-.033.017-.083.05-.15 0-.067.017-.117.05-.15 0-.067.017-.133.05-.2 0-.033.017-.083.05-.15 0-.067.017-.117.05-.15a.444.444 0 0 0 .05-.2" clip-rule="evenodd"/><path fill="#EEEAD6" d="m25.8 6 6.75 3.75-.9 9.8-1.4 4.75-1.55-8.45c-.03.03-.12.67-.25 1.9-.13 1.33-.2 2.27-.2 2.8v.4c.03.13.07.27.1.4 0 .1.02.2.05.3.03.07.07.17.1.3s.07.23.1.3c.03.13.07.25.1.35 0 .1.02.22.05.35v.4c0 .57-.08 1.58-.25 3.05-.1.7-.2 1.38-.3 2.05l-.8-.45s-.02-.07-.05-.2c-.07-.17-.13-.35-.2-.55-.1-.23-.18-.5-.25-.8-.1-.33-.2-.65-.3-.95-.1-.4-.2-.78-.3-1.15-.1-.4-.18-.78-.25-1.15-.1-.4-.17-.77-.2-1.1-.07-.4-.1-.75-.1-1.05-.07-1.07.08-2.77.45-5.1.17-1.07.33-2.13.5-3.2-.04-.01-.36.89-.95 2.7-.67 2.03-1.07 3.55-1.2 4.55-.03.27-.05.58-.05.95 0 .33.02.7.05 1.1 0 .37.03.75.1 1.15.03.37.07.75.1 1.15.03.33.08.67.15 1 .03.27.07.53.1.8.03.2.07.38.1.55 0 .07.02.13.05.2l-3.55-1.95c-.03-.03-.07-.08-.1-.15s-.07-.15-.1-.25-.07-.22-.1-.35-.05-.27-.05-.4c-.03-.17-.07-.32-.1-.45v-.45c-.03-.17-.05-.32-.05-.45s.02-.27.05-.4l-1 3.4-1.15-1.3 2.3-8.1c-.07-.87-.1-1.43-.1-1.7.13-1.73.25-3.48.35-5.25 0 0-.02.05-.05.15 0 .13-.02.27-.05.4-.07.2-.12.42-.15.65-.07.23-.13.48-.2.75s-.15.53-.25.8c-.07.3-.15.57-.25.8-.07.3-.15.55-.25.75-.1.27-.2.48-.3.65s-.18.4-.25.7c-.1.27-.18.58-.25.95s-.15.77-.25 1.2c-.03.4-.08.82-.15 1.25s-.12.87-.15 1.3c-.03.4-.05.78-.05 1.15-.03.37-.05.68-.05.95s.02.47.05.6c-.07-.1-.15-.2-.25-.3-.07-.07-.13-.15-.2-.25s-.13-.2-.2-.3a.579.579 0 0 1-.15-.25c-.07-.1-.13-.18-.2-.25a.579.579 0 0 0-.15-.25c-.03-.1-.08-.2-.15-.3-.03-.07-.07-.13-.1-.2-.27-.57-.45-1.22-.55-1.95-.07-.67-.08-1.38-.05-2.15.03-.7.13-1.47.3-2.3.13-.7.32-1.45.55-2.25.17-.67.38-1.38.65-2.15.13-.5.35-1.13.65-1.9.27-.77.43-1.27.5-1.5.17-.5.27-.85.3-1.05.03-.1.05-.2.05-.3s.02-.18.05-.25v-.3c.03-.07.05-.15.05-.25V3s-.02-.15-.05-.25l4.45 2.5.85-3 1.45.35L25.8 6z"/></svg>