<svg xmlns="http://www.w3.org/2000/svg" width="40" height="40"><g fill-rule="evenodd"><path fill="#465a46" d="m14.15 36.1.25-3.15-.9-.9V27.1l1.6-1.7.2-2.25-1.85-.05v-1.65l-.05-.05q-.1-.05-.15-.1-.1-.1-.2-.15l-.2-.2-.25-.25q-.1-.1-.2-.25-.1-.1-.15-.2-.05-.15-.1-.25-.2-1.35-2.9-7.45.75-.15 1.4-.3.7-.15 1.35-.3.7-.2 1.3-.45.65-.25 1.2-.5.6-.3 1.1-.65.5-.4.9-.8.4-.45.65-.95.25-.55.4-1.15h.55L19.15 0h1.7l1.05 7.4h.55q.1.6.4 1.15.25.5.65.95t.9.8 1.05.65 1.25.55q.6.2 1.3.4.6.2 1.35.35.65.15 1.4.3-2.7 6-2.9 7.45 0 .1-.1.25-.05.1-.15.2-.1.15-.2.25t-.25.25l-.2.2q-.1.05-.2.15-.1.05-.15.1l-.05.05v1.75l-1.8.05 1.1 12.85L20 40l-5.85-3.9m1.5-.7.25-3.45h-.25l-.9-.9V27.7l.9-.95h.7l.45-4.85h-2.05v-1.3h1.15q-.2-.05-.35-.1-.2-.1-.4-.15-.15-.05-.35-.15-.15-.1-.3-.15-.2-.1-.3-.2-.15-.05-.3-.15l-.2-.2q-.1-.1-.15-.2-.1-.4-.2-.75-.15-.4-.25-.75-.1-.4-.25-.75-.1-.35-.25-.7t-.3-.7-.3-.7q-.2-.3-.35-.6-.2-.35-.4-.65.45-.05.9-.2.5-.1 1-.25.55-.2 1.05-.4.55-.25 1.05-.5.6-.3 1.05-.65.55-.35.95-.75.45-.45.8-.9.4-.55.65-1.1h.75L20 2.4l.55 6.55h.75q.25.55.6 1.05.4.5.85.95.4.4.95.75.45.35 1.05.65.5.25 1.05.5.5.2 1.05.4l1 .3q.45.1.9.15l-.4.6q-.15.35-.35.65l-.3.7q-.15.3-.3.7-.15.35-.25.7-.15.35-.25.75-.15.35-.25.7l-.2.8q-.05.1-.15.2t-.2.2l-.3.2-.3.15q-.15.1-.3.15-.2.1-.35.15-.2.1-.4.15-.15.05-.35.1h1.15v1.3H23.2l1.15 13.45L20 38.3l-4.35-2.9"/><path fill="#698269" d="m15.65 35.4.25-3.45h-.25l-.9-.9V27.7l.9-.95h.7l.45-4.85h-2.05v-1.3h1.15q-.2-.05-.35-.1-.2-.1-.4-.15-.15-.05-.35-.15-.15-.1-.3-.15-.2-.1-.3-.2-.15-.05-.3-.15l-.2-.2q-.1-.1-.15-.2-.1-.4-.2-.75-.15-.4-.25-.75-.1-.4-.25-.75-.1-.35-.25-.7t-.3-.7-.3-.7q-.2-.3-.35-.6-.2-.35-.4-.65.45-.05.9-.2.5-.1 1-.25.55-.2 1.05-.4.55-.25 1.05-.5.6-.3 1.05-.65.55-.35.95-.75.45-.45.8-.9.4-.55.65-1.1h.75L20 2.4l.55 6.55h.75q.25.55.6 1.05.4.5.85.95.4.4.95.75.45.35 1.05.65.5.25 1.05.5.5.2 1.05.4l1 .3q.45.1.9.15l-.4.6q-.15.35-.35.65l-.3.7q-.15.3-.3.7-.15.35-.25.7-.15.35-.25.75-.15.35-.25.7l-.2.8q-.05.1-.15.2t-.2.2l-.3.2-.3.15q-.15.1-.3.15-.2.1-.35.15-.2.1-.4.15-.15.05-.35.1h1.15v1.3H23.2l1.15 13.45L20 38.3l-4.35-2.9"/></g></svg>