<svg xmlns="http://www.w3.org/2000/svg" width="40" height="40"><path fill="#A04B4B" d="m20 15.5 3 4.5-3 4.5-3-4.5z"/><path fill="#CD5A5A" d="M20 27.35 24.95 20h1.9l2.1 2.35-6.65 10.2L20 30l-2.3 2.55-6.65-10.2L13.4 20h1.65zM20 10l2.3-2.55 6.65 10.2-2.1 2.35h-1.9L20 12.65 15.05 20H13.4l-2.35-2.35 6.65-10.2z"/><path fill="#5A3C3C" d="m20 24.5 3-4.5-3-4.5-3 4.5 3 4.5zm0-11.85L24.95 20 20 27.35 15.05 20 20 12.65z"/><path fill="#5A3C3C" d="M28.95 22.35 26.85 20l2.1-2.35-6.65-10.2L20 10l-2.3-2.55-6.65 10.2L13.4 20l-2.35 2.35 6.65 10.2L20 30l2.3 2.55 6.65-10.2zM20 0l13 20-13 20L7 20 20 0z"/></svg>