<svg xmlns="http://www.w3.org/2000/svg" width="40" height="40"><path fill="#E6DC7D" d="M32.25 9.75a11.2 11.2 0 0 0-.55-.7 11.2 11.2 0 0 0-1.15-1.35c-.17-.13-.33-.27-.5-.4s-.33-.27-.5-.4-.33-.27-.5-.4c-.17-.1-.33-.22-.5-.35s-.33-.25-.5-.35c-.17-.13-.33-.27-.5-.4-.17-.1-.33-.22-.5-.35-.17-.1-.33-.2-.5-.3V1.3h8.2c0 1.4.02 3.7.05 6.9 0 2.33-.02 4.1-.05 5.3-.13-.27-.28-.52-.45-.75-.17-.27-.33-.53-.5-.8-.13-.23-.3-.48-.5-.75-.17-.23-.33-.48-.5-.75a11.2 11.2 0 0 0-.55-.7zm.45 13.85c0-.07.02-.12.05-.15 0 .03-.02.08-.05.15zm-.55.95-.3-.3c.03-.03.08-.07.15-.1l.1-.1c.07 0 .12-.02.15-.05l.1-.1.1-.1s.08-.07.15-.1c.02-.01.03-.03.05-.04-.02.03-.03.05-.05.09 0 .03-.02.07-.05.1-.03.07-.05.12-.05.15-.03.03-.07.08-.1.15-.03.03-.05.08-.05.15l-.1.1c-.03.07-.07.12-.1.15zm-.6-5.75a15.213 15.213 0 0 0-1.6-1.4c-.3-.2-.58-.4-.85-.6-.3-.17-.6-.33-.9-.5s-.6-.33-.9-.5l1.35-1.4c.27.2.53.4.8.6.23.2.48.42.75.65.23.2.47.42.7.65l1.4 1.4c.2.23.42.47.65.7.2.23.4.48.6.75.2.23.38.47.55.7 0 .07-.02.13-.05.2 0 .03-.02.08-.05.15v.2c-.03.03-.05.08-.05.15-.03.07-.05.13-.05.2-.03.03-.05.08-.05.15-.03.07-.05.12-.05.15-.03.07-.07.13-.1.2-.23-.3-.47-.58-.7-.85-.23-.3-.47-.58-.7-.85l-.75-.75z"/><path fill="#735A4B" d="m27.4 28.05.1-.1c.07-.07.1-.12.1-.15.03-.07.05-.13.05-.2.03-.07.05-.13.05-.2v-.2a.915.915 0 0 1-.05-.25c-.03-.1-.07-.2-.1-.3.33-.3 1.25-.82 2.75-1.55l5.9 5.65c-.13.3-.25.53-.35.7-.13.23-.25.43-.35.6s-.2.32-.3.45c-.1.17-.22.3-.35.4-.13.13-.27.25-.4.35s-.28.22-.45.35c-.17.1-.37.2-.6.3-.2.1-.43.22-.7.35l-5.75-5.95c.07-.03.15-.08.25-.15.07-.03.13-.07.2-.1z"/><path fill="#E6DC7D" d="m25.35 29 1.75 1.85c-1.13 1.27-3.1 3.33-5.9 6.2 1.4-3.5 2.38-6.03 2.95-7.6.7-.27 1.1-.42 1.2-.45zm-10.7 1.2c.1 0 .2.02.3.05h.3s.22.02.35.05h.3s.2.02.3.05c.57 1.57 1.43 3.8 2.6 6.7-2.87-2.97-4.83-5.03-5.9-6.2l.75-.8c.1.03.22.05.35.05.1.03.2.05.3.05s.22.02.35.05zm.3-10.2a.654.654 0 0 0-.2-.15l-.15-.15c-.07-.03-.13-.07-.2-.1h-.15s-.12.02-.15.05a.15.15 0 0 0-.15.1c-.07.03-.13.08-.2.15.23.13.43.27.6.4.2.17.38.3.55.4.17.17.32.3.45.4.17.13.3.27.4.4s.18.25.25.35c.1.1.15.22.15.35.03.1.03.2 0 .3 0 .1-.03.18-.1.25l.5 1.05.45-1.3-1.15-1.65-.4-.4.45-.45c.07-.1.12-.2.15-.3a1.053 1.053 0 0 0 .2-.65v-.45c-.03-.17-.07-.33-.1-.5-.07-.2-.15-.42-.25-.65l.2-.65c.07-.03.13-.08.2-.15.07-.1.12-.22.15-.35.07-.13.13-.28.2-.45.07-.2.12-.4.15-.6.03-.23.07-.47.1-.7v-.75c0-.27-.02-.53-.05-.8-.07-.3-.13-.58-.2-.85h.95c.03-.07.05-.13.05-.2.03-.07.05-.13.05-.2.03-.07.05-.13.05-.2.03-.07.05-.13.05-.2v-.25c.03-.07.05-.13.05-.2v-.5l2.05.35-1.75.5-.05.95 1.25.45.2 2.45c.17.2.3.4.4.6.13.17.23.33.3.5.07.13.12.27.15.4s.05.25.05.35-.03.18-.1.25-.15.13-.25.2c-.1.03-.22.05-.35.05-.17.03-.35.03-.55 0 .1.03.18.07.25.1.1.03.18.07.25.1s.15.07.25.1c.07.03.13.08.2.15.07.03.12.07.15.1.07.03.13.08.2.15l.15.15c.03.03.08.07.15.1l1.15-1.1-.1-3.8h.65c.03-.03.05-.08.05-.15 0-.03.02-.07.05-.1v-.15c.03-.07.05-.12.05-.15v-.5s-.02-.13-.05-.2l1.35.2-1.05.25.05 1.05c.2.07.37.12.5.15.17.07.3.12.4.15.13.07.23.13.3.2.1.07.17.12.2.15.03.07.05.13.05.2s-.02.13-.05.2c0 .07-.03.13-.1.2s-.15.13-.25.2c.03.03.08.07.15.1l.1.1c0 .03.02.07.05.1 0 .07.02.12.05.15v.25c0 .03-.02.08-.05.15 0 .03-.02.08-.05.15.07.1.13.2.2.3s.12.2.15.3c.07.1.12.2.15.3s.07.2.1.3.05.22.05.35c.03.1.05.2.05.3v.7c.07.17.13.33.2.5s.13.32.2.45c.1.17.18.32.25.45s.13.27.2.4c.1.13.18.25.25.35.1.13.18.25.25.35l.25.25c.1.1.2.18.3.25-.03-.13-.05-.27-.05-.4-.03-.13-.07-.27-.1-.4-.03-.1-.07-.22-.1-.35s-.07-.28-.1-.45c-.07-.13-.12-.27-.15-.4s-.08-.27-.15-.4a1.63 1.63 0 0 0-.15-.4 1.49 1.49 0 0 0-.15-.45c.13.1.25.2.35.3.13.1.25.2.35.3l.65.65c.13.1.25.2.35.3s.18.2.25.3c.1.1.2.18.3.25.1.1.18.2.25.3-.03-.17-.07-.33-.1-.5s-.08-.33-.15-.5c-.03-.17-.08-.33-.15-.5s-.13-.35-.2-.55c-.07-.17-.13-.33-.2-.5s-.13-.33-.2-.5-.13-.35-.2-.55c-.1-.17-.18-.33-.25-.5.3.17.58.32.85.45.27.17.5.32.7.45.23.17.45.32.65.45.17.13.35.28.55.45l.5.5.55.55.65.65c.6.67.83.93.7.8l-4 2.15c-.17.03-.33.07-.5.1s-.32.07-.45.1c-.1.03-.22.08-.35.15-.1.03-.2.08-.3.15-.07.03-.13.08-.2.15-.07.03-.13.08-.2.15-.03.07-.08.13-.15.2-.03.07-.05.13-.05.2.13 0 .28-.02.45-.05.17 0 .33-.02.5-.05.2-.03.4-.08.6-.15.23-.07.47-.13.7-.2s.47-.13.7-.2c.27-.1.55-.2.85-.3.27-.07.55-.17.85-.3.3-.1.6-.22.9-.35-.13.13-.3.27-.5.4a5.2 5.2 0 0 1-.6.4c-.2.13-.43.27-.7.4-.17.1-.42.22-.75.35-.37.2-.62.33-.75.4-.27.13-.48.25-.65.35-.23.13-.45.27-.65.4-.17.13-.32.27-.45.4.03.07.05.13.05.2.03.07.05.13.05.2v.4c0 .03-.02.07-.05.1-.03.07-.07.12-.1.15l-.1.1c-.03.03-.08.07-.15.1-.4.2-.83.4-1.3.6-.43.17-.88.32-1.35.45s-.93.25-1.4.35c-.5.1-1 .17-1.5.2-.53.07-1.07.1-1.6.1-.57.03-1.13.03-1.7 0-.6-.03-1.2-.08-1.8-.15-.63-.07-1.27-.17-1.9-.3-.1-.13-.18-.27-.25-.4-.1-.13-.2-.27-.3-.4s-.2-.25-.3-.35c-.1-.13-.2-.25-.3-.35-.13-.1-.27-.2-.4-.3s-.27-.18-.4-.25c-.13-.1-.28-.18-.45-.25s-.33-.13-.5-.2l-.05-1.55c.1.03.18.05.25.05.07.03.13.03.2 0 .03 0 .07-.03.1-.1v-.1c.03-.03.03-.08 0-.15V24s-.02-.07-.05-.1v-.05c.13-.13.27-.28.4-.45.1-.17.18-.35.25-.55.07-.17.12-.37.15-.6.03-.2.05-.42.05-.65-.03-.23-.07-.48-.1-.75-.03-.23-.08-.48-.15-.75-.03-.27-.1-.53-.2-.8s-.2-.55-.3-.85l1.6.9c.07-.03.12-.08.15-.15.03-.03.05-.08.05-.15.03-.07.05-.13.05-.2s-.02-.13-.05-.2c0-.1-.02-.18-.05-.25a.654.654 0 0 1-.15-.2l-.2-.2a.654.654 0 0 0-.2-.15l.95-.35-.05-.7.5-.75.45.1-.4.45.1 1.2 1.7.6v.5c0 .1-.02.18-.05.25 0 .1-.02.18-.05.25 0 .1-.02.18-.05.25s-.07.13-.1.2-.08.13-.15.2c-.03.07-.08.13-.15.2-.07-.1-.12-.18-.15-.25z"/><path fill="#735A4B" d="M10.85 27.85c.13.1.25.2.35.3l.35.35c.1.1.18.22.25.35.1.13.18.27.25.4l-4.8 5c-.27-.13-.5-.25-.7-.35-.23-.1-.43-.22-.6-.35-.17-.1-.32-.2-.45-.3-.17-.1-.3-.22-.4-.35-.13-.1-.25-.23-.35-.4-.1-.13-.2-.28-.3-.45s-.22-.37-.35-.6c-.1-.17-.22-.4-.35-.7L8.9 25.8v1.15c.2.07.38.13.55.2s.33.13.5.2.32.15.45.25c.17.07.32.15.45.25z"/><path fill="#E6DC7D" d="m11.2 17.15-.5.7c-.17-.03-.65-.25-1.45-.65.1.27.2.52.3.75s.18.47.25.7c.1.23.18.47.25.7.07.2.12.4.15.6a3.74 3.74 0 0 1 .2 1.15c.03.17.05.33.05.5v.45l-2.6 2.5c-.13-.2-.25-.4-.35-.6s-.2-.38-.3-.55c-.1-.2-.18-.4-.25-.6-.1-.2-.18-.4-.25-.6-.1-.17-.18-.35-.25-.55s-.13-.4-.2-.6-.13-.4-.2-.6c-.03-.2-.08-.4-.15-.6.2-.23.4-.47.6-.7.2-.27.4-.52.6-.75s.4-.47.6-.7c.23-.27.47-.5.7-.7.23-.27.47-.5.7-.7l.7-.7c.27-.2.53-.4.8-.6.23-.23.48-.43.75-.6l1.1 1.1-.55.75.05.65-.75.25zm-3.45-7.4c-.2.23-.38.47-.55.7-.17.27-.33.52-.5.75-.2.27-.37.52-.5.75-.17.27-.33.53-.5.8-.17.23-.32.48-.45.75-.03-1.2-.05-2.97-.05-5.3.03-3.23.05-5.53.05-6.9h8.2v3.45c-.17.1-.33.2-.5.3-.17.13-.33.25-.5.35-.17.13-.33.27-.5.4-.17.1-.33.22-.5.35s-.33.25-.5.35c-.17.13-.33.27-.5.4s-.33.27-.5.4-.33.27-.5.4A11.2 11.2 0 0 0 8.3 9.05c-.2.23-.38.47-.55.7z"/><path fill="#969696" d="M14.85 15.7c0-.03-.02-.05-.05-.05l-.05-.05c-.03 0-.07-.02-.1-.05l-3-3.1c-.47.23-.93.53-1.4.9-.43.3-.87.65-1.3 1.05-.43.37-.87.78-1.3 1.25-.4.43-.78.88-1.15 1.35s-.73.95-1.1 1.45c-.33.47-.67.95-1 1.45-.3.5-.58 1-.85 1.5-.27.47-.5.93-.7 1.4.03-.6.15-1.27.35-2 .2-.63.47-1.33.8-2.1.3-.67.65-1.37 1.05-2.1.37-.63.77-1.28 1.2-1.95.37-.57.77-1.15 1.2-1.75.33-.47.67-.93 1-1.4.27-.3.52-.6.75-.9.1-.1.18-.2.25-.3L9 9.75l2.6-2.55.55.5s.05-.03.15-.1c.1-.1.23-.2.4-.3.2-.17.42-.33.65-.5.27-.2.55-.38.85-.55l1-.7c.37-.27.75-.52 1.15-.75.4-.27.8-.52 1.2-.75l1.3-.75c-.83-.57-1.98-1.3-3.45-2.2.17.03.33.07.5.1.2.03.38.07.55.1.17.07.35.13.55.2.2.03.4.08.6.15.17.1.35.18.55.25s.4.15.6.25l.6.3c.2.07.4.15.6.25l.6-.3s.4-.18.6-.25c.2-.1.4-.18.6-.25s.4-.15.6-.25c.2-.07.4-.12.6-.15.17-.07.35-.13.55-.2.17-.03.33-.07.5-.1.2-.03.38-.07.55-.1-1.47.9-2.63 1.63-3.5 2.2.43.23.87.48 1.3.75a37.53 37.53 0 0 1 2.4 1.5l1 .7c.3.17.58.35.85.55.23.17.45.33.65.5.13.1.27.2.4.3.07.03.12.07.15.1l.55-.5 2.6 2.55-.5.55.3.3c.2.27.43.58.7.95.37.43.72.88 1.05 1.35.43.6.83 1.18 1.2 1.75.43.67.83 1.32 1.2 1.95.4.73.75 1.43 1.05 2.1.33.77.6 1.47.8 2.1.2.73.32 1.4.35 2-.23-.47-.48-.95-.75-1.45-.27-.47-.55-.95-.85-1.45s-.62-.98-.95-1.45c-.37-.5-.73-.98-1.1-1.45-.4-.5-.8-.95-1.2-1.35-.4-.47-.82-.88-1.25-1.25-.43-.4-.87-.77-1.3-1.1-.47-.33-.93-.62-1.4-.85l-2.9 2.95v-.1c0-.03-.02-.07-.05-.1v-.1l-.05-.05c0-.03-.02-.07-.05-.1v-.05c.1-.1.17-.23.2-.4.03-.13.03-.28 0-.45 0-.17-.03-.35-.1-.55-.03-.17-.08-.35-.15-.55-.07-.17-.13-.33-.2-.5s-.13-.32-.2-.45c-.03-.1-.08-.2-.15-.3-.03-.03-.05-.07-.05-.1l-.75-.2 1.7-1.7c-.17-.27-.35-.53-.55-.8-.17-.27-.37-.53-.6-.8-.2-.23-.42-.48-.65-.75a6.6 6.6 0 0 0-.7-.7l-.7-.7c-.27-.2-.53-.42-.8-.65-.23-.2-.48-.4-.75-.6s-.55-.4-.85-.6c-.27.2-.53.4-.8.6s-.53.4-.8.6c-.27.23-.52.47-.75.7-.27.2-.52.42-.75.65s-.47.48-.7.75c-.23.23-.45.48-.65.75-.2.23-.4.48-.6.75s-.38.53-.55.8l1.05 1.15c.07.33.13.65.2.95s.1.58.1.85c.03.3.07.57.1.8 0 .27-.02.52-.05.75 0 .2-.02.4-.05.6s-.08.37-.15.5-.13.25-.2.35-.15.18-.25.25l-.05-.05v-.05c-.03 0-.07-.02-.1-.05l-.05-.05h-.05z"/><path fill="#5F5046" d="M32.7 23.6c.03-.07.05-.12.05-.15-.03.03-.05.08-.05.15zM25.35 29c-.1.03-.5.18-1.2.45-.57 1.57-1.55 4.1-2.95 7.6 2.8-2.87 4.77-4.93 5.9-6.2L25.35 29zm-14.15-.85c-.1-.1-.22-.2-.35-.3s-.28-.18-.45-.25c-.13-.1-.28-.18-.45-.25s-.33-.13-.5-.2-.35-.13-.55-.2V25.8l-5.15 4.95c.13.3.25.53.35.7.13.23.25.43.35.6s.2.32.3.45c.1.17.22.3.35.4.1.13.23.25.4.35.13.1.28.2.45.3.17.13.37.25.6.35.2.1.43.22.7.35l4.8-5c-.07-.13-.15-.27-.25-.4-.07-.13-.15-.25-.25-.35l-.35-.35zm.15-13.75c-.27.17-.52.37-.75.6-.27.2-.53.4-.8.6l-.7.7c-.23.2-.47.43-.7.7-.23.2-.47.43-.7.7-.2.23-.4.47-.6.7s-.4.48-.6.75c-.2.23-.4.47-.6.7.07.2.12.4.15.6.07.2.13.4.2.6s.13.4.2.6.15.38.25.55c.07.2.15.4.25.6.07.2.15.4.25.6.1.17.2.35.3.55s.22.4.35.6l2.6-2.5v-.45s-.02-.33-.05-.5a3.74 3.74 0 0 0-.2-1.15c-.03-.2-.08-.4-.15-.6-.07-.23-.15-.47-.25-.7-.07-.23-.15-.47-.25-.7s-.2-.48-.3-.75c.8.4 1.28.62 1.45.65l.5-.7.75-.25-.05-.65.55-.75-1.1-1.1zm20.5 9.85.3.3c.03-.03.07-.08.1-.15l.1-.1c0-.07.02-.12.05-.15.03-.07.07-.12.1-.15 0-.03.02-.08.05-.15.03-.03.05-.07.05-.1.02-.04.03-.06.05-.09-.02.01-.03.03-.05.04-.07.03-.12.07-.15.1l-.1.1-.1.1s-.08.05-.15.05l-.1.1c-.07.03-.12.07-.15.1zm4.35 6.5-5.9-5.65c-1.5.73-2.42 1.25-2.75 1.55.03.1.07.2.1.3 0 .07.02.15.05.25v.2c0 .07-.02.13-.05.2 0 .07-.02.13-.05.2 0 .03-.03.08-.1.15l-.1.1c-.07.03-.13.07-.2.1-.1.07-.18.12-.25.15l5.75 5.95c.27-.13.5-.25.7-.35.23-.1.43-.2.6-.3.17-.13.32-.25.45-.35s.27-.22.4-.35c.13-.1.25-.23.35-.4.1-.13.2-.28.3-.45s.22-.37.35-.6c.1-.17.22-.4.35-.7zm-5.45-12.7c.27.23.53.48.8.75l.75.75c.23.27.47.55.7.85.23.27.47.55.7.85.03-.07.07-.13.1-.2 0-.03.02-.08.05-.15 0-.07.02-.12.05-.15 0-.07.02-.13.05-.2 0-.07.02-.12.05-.15v-.2c.03-.07.05-.12.05-.15.03-.07.05-.13.05-.2a11.2 11.2 0 0 0-.55-.7c-.2-.27-.4-.52-.6-.75-.23-.23-.45-.47-.65-.7l-1.4-1.4c-.23-.23-.47-.45-.7-.65-.27-.23-.52-.45-.75-.65-.27-.2-.53-.4-.8-.6l-1.35 1.4c.3.17.6.33.9.5s.6.33.9.5c.27.2.55.4.85.6.27.2.53.42.8.65zm.4-9.7c.2.23.38.47.55.7.2.23.38.47.55.7.2.23.38.47.55.7.17.27.33.52.5.75.2.27.37.52.5.75.17.27.33.53.5.8.17.23.32.48.45.75.03-1.2.05-2.97.05-5.3-.03-3.2-.05-5.5-.05-6.9h-8.2v3.45c.17.1.33.2.5.3.17.13.33.25.5.35.17.13.33.27.5.4.17.1.33.22.5.35s.33.25.5.35c.17.13.33.27.5.4s.33.27.5.4.33.27.5.4c.2.2.4.42.6.65zM3.8 0h32.4c.01.73.03 3.85.05 9.35.03 2.9-.02 5.12-.15 6.65.23.47.45.93.65 1.4.17.47.33.92.5 1.35s.3.87.4 1.3c.13.43.23.85.3 1.25.1.4.17.8.2 1.2.03.37.05.72.05 1.05s-.03.65-.1.95c-.07.33-.15.62-.25.85-1.43-2.23-2.32-3.58-2.65-4.05-.07.2-.13.38-.2.55-.03.17-.08.35-.15.55-.07.17-.15.33-.25.5-.07.2-.13.38-.2.55-.1.17-.2.33-.3.5-.07.2-.15.38-.25.55s-.2.33-.3.5c-.13.2-.25.38-.35.55l5 4.75c-.1.4-.2.78-.3 1.15-.13.4-.28.75-.45 1.05-.17.33-.35.65-.55.95-.23.3-.47.57-.7.8-.23.27-.5.5-.8.7s-.6.38-.9.55c-.33.17-.68.32-1.05.45l-1.2.3-4.2-4.4c-1.33 1.4-4.02 4.12-8.05 8.15-3.93-3.93-6.62-6.67-8.05-8.2l-4.2 4.45c-.4-.1-.78-.2-1.15-.3-.4-.13-.75-.28-1.05-.45-.33-.17-.65-.35-.95-.55s-.57-.43-.8-.7c-.23-.23-.47-.5-.7-.8-.2-.3-.38-.62-.55-.95-.17-.3-.32-.63-.45-1l-.3-1.2 5-4.8c-.1-.17-.2-.33-.3-.5-.13-.2-.23-.38-.3-.55-.1-.17-.2-.33-.3-.5-.1-.2-.18-.38-.25-.55-.1-.17-.18-.33-.25-.5-.07-.2-.13-.38-.2-.55s-.13-.33-.2-.5c-.07-.2-.13-.38-.2-.55-.6.83-1.48 2.18-2.65 4.05-.1-.27-.18-.55-.25-.85s-.1-.62-.1-.95.02-.7.05-1.1c.03-.37.1-.75.2-1.15.07-.4.17-.82.3-1.25.1-.43.23-.87.4-1.3.17-.47.33-.92.5-1.35.2-.47.42-.93.65-1.4-.1-1.53-.15-3.75-.15-6.65C3.78.75 3.8-2.37 3.8 0zm9.65 4.75V1.3h-8.2c0 1.37-.02 3.67-.05 6.9 0 2.33.02 4.1.05 5.3.13-.27.28-.52.45-.75.17-.27.33-.53.5-.8.13-.23.3-.48.5-.75.17-.23.33-.48.5-.75.17-.23.35-.47.55-.7.17-.23.35-.47.55-.7A11.2 11.2 0 0 1 9.45 7.7c.17-.13.33-.27.5-.4s.33-.27.5-.4.33-.27.5-.4c.17-.1.33-.22.5-.35s.33-.25.5-.35c.17-.13.33-.27.5-.4.17-.1.33-.22.5-.35.17-.1.33-.2.5-.3zm1.5 25.5c-.1-.03-.2-.05-.3-.05-.13-.03-.25-.05-.35-.05s-.2-.02-.3-.05c-.13 0-.25-.02-.35-.05l-.75.8c1.07 1.17 3.03 3.23 5.9 6.2-1.17-2.9-2.03-5.13-2.6-6.7-.1-.03-.2-.05-.3-.05h-.3c-.13-.03-.25-.05-.35-.05h-.3zm-.1-14.55h.05l.05.05c.03.03.07.05.1.05v.05l.05.05c.1-.07.18-.15.25-.25s.13-.22.2-.35.12-.3.15-.5.05-.4.05-.6c.03-.23.05-.48.05-.75-.03-.23-.07-.5-.1-.8 0-.27-.03-.55-.1-.85s-.13-.62-.2-.95L14.35 9.7c.17-.27.35-.53.55-.8s.4-.52.6-.75c.2-.27.42-.52.65-.75.23-.27.47-.52.7-.75s.48-.45.75-.65c.23-.23.48-.47.75-.7.27-.2.53-.4.8-.6s.53-.4.8-.6c.3.2.58.4.85.6s.52.4.75.6c.27.23.53.45.8.65l.7.7c.27.23.5.47.7.7.23.27.45.52.65.75.23.27.43.53.6.8.2.27.38.53.55.8l-1.7 1.7.75.2c0 .03.02.07.05.1.07.1.12.2.15.3.07.13.13.28.2.45s.13.33.2.5c.07.2.12.38.15.55.07.2.1.38.1.55.03.17.03.32 0 .45-.03.17-.1.3-.2.4v.05c.03.03.05.07.05.1l.05.05v.1c.03.03.05.07.05.1v.1l2.9-2.95c.47.23.93.52 1.4.85.43.33.87.7 1.3 1.1.43.37.85.78 1.25 1.25.4.4.8.85 1.2 1.35.37.47.73.95 1.1 1.45.33.47.65.95.95 1.45s.58.98.85 1.45c.27.5.52.98.75 1.45-.03-.6-.15-1.27-.35-2-.2-.63-.47-1.33-.8-2.1-.3-.67-.65-1.37-1.05-2.1-.37-.63-.77-1.28-1.2-1.95-.37-.57-.77-1.15-1.2-1.75-.33-.47-.68-.92-1.05-1.35-.27-.37-.5-.68-.7-.95l-.3-.3.5-.55-2.6-2.55-.55.5a.483.483 0 0 0-.15-.1c-.13-.1-.27-.2-.4-.3-.2-.17-.42-.33-.65-.5-.27-.2-.55-.38-.85-.55l-1-.7a36.688 36.688 0 0 0-2.4-1.5c-.43-.27-.87-.52-1.3-.75.87-.57 2.03-1.3 3.5-2.2-.17.03-.35.07-.55.1-.17.03-.33.07-.5.1-.2.07-.38.13-.55.2-.2.03-.4.08-.6.15-.2.1-.4.18-.6.25s-.4.15-.6.25c-.2.07-.4.15-.6.25l-.6.3c-.2-.1-.4-.18-.6-.25l-.6-.3s-.4-.18-.6-.25-.38-.15-.55-.25c-.2-.07-.4-.12-.6-.15-.2-.07-.38-.13-.55-.2-.17-.03-.35-.07-.55-.1-.17-.03-.33-.07-.5-.1 1.47.9 2.62 1.63 3.45 2.2l-1.3.75c-.4.23-.8.48-1.2.75-.4.23-.78.48-1.15.75l-1 .7c-.3.17-.58.35-.85.55-.23.17-.45.33-.65.5-.17.1-.3.2-.4.3-.1.07-.15.1-.15.1l-.55-.5L9 9.75l.45.55c-.07.1-.15.2-.25.3-.23.3-.48.6-.75.9-.33.47-.67.93-1 1.4-.43.6-.83 1.18-1.2 1.75-.43.67-.83 1.32-1.2 1.95-.4.73-.75 1.43-1.05 2.1-.33.77-.6 1.47-.8 2.1-.2.73-.32 1.4-.35 2 .2-.47.43-.93.7-1.4.27-.5.55-1 .85-1.5.33-.5.67-.98 1-1.45.37-.5.73-.98 1.1-1.45s.75-.92 1.15-1.35c.43-.47.87-.88 1.3-1.25.43-.4.87-.75 1.3-1.05.47-.37.93-.67 1.4-.9l3 3.1c.03.03.07.05.1.05l.05.05c.03 0 .05.02.05.05zm-1.3 12.75c.63.13 1.27.23 1.9.3.6.07 1.2.12 1.8.15.57.03 1.13.03 1.7 0 .53 0 1.07-.03 1.6-.1.5-.03 1-.1 1.5-.2.47-.1.93-.22 1.4-.35s.92-.28 1.35-.45c.47-.2.9-.4 1.3-.6.07-.03.12-.07.15-.1l.1-.1c.03-.03.07-.08.1-.15.03-.03.05-.07.05-.1v-.4s-.02-.13-.05-.2c0-.07-.02-.13-.05-.2.13-.13.28-.27.45-.4.2-.13.42-.27.65-.4.17-.1.38-.22.65-.35.13-.07.38-.2.75-.4.33-.13.58-.25.75-.35.27-.13.5-.27.7-.4.23-.13.43-.27.6-.4.2-.13.37-.27.5-.4-.3.13-.6.25-.9.35-.3.13-.58.23-.85.3-.3.1-.58.2-.85.3-.23.07-.47.13-.7.2s-.47.13-.7.2c-.2.07-.4.12-.6.15-.17.03-.33.05-.5.05-.17.03-.32.05-.45.05 0-.07.02-.13.05-.2.07-.07.12-.13.15-.2.07-.07.13-.12.2-.15.07-.07.13-.12.2-.15.1-.07.2-.12.3-.15.13-.07.25-.12.35-.15.13-.03.28-.07.45-.1s.33-.07.5-.1l4-2.15c.13.13-.1-.13-.7-.8l-1.2-1.2-.5-.5c-.2-.17-.38-.32-.55-.45-.2-.13-.42-.28-.65-.45-.2-.13-.43-.28-.7-.45-.27-.13-.55-.28-.85-.45.07.17.15.33.25.5.07.2.13.38.2.55s.13.33.2.5.13.33.2.5c.07.2.13.38.2.55s.12.33.15.5c.07.17.12.33.15.5s.07.33.1.5c-.07-.1-.15-.2-.25-.3-.1-.07-.2-.15-.3-.25-.07-.1-.15-.2-.25-.3s-.22-.2-.35-.3l-.65-.65c-.1-.1-.22-.2-.35-.3-.1-.1-.22-.2-.35-.3.07.13.12.28.15.45.07.13.12.27.15.4.07.13.12.27.15.4s.08.27.15.4c.03.17.07.32.1.45s.07.25.1.35c.03.13.07.27.1.4 0 .13.02.27.05.4-.1-.07-.2-.15-.3-.25l-.25-.25c-.07-.1-.15-.22-.25-.35-.07-.1-.15-.22-.25-.35-.07-.13-.13-.27-.2-.4s-.15-.28-.25-.45c-.07-.13-.13-.28-.2-.45s-.13-.33-.2-.5v-.7c0-.1-.02-.2-.05-.3 0-.13-.02-.25-.05-.35s-.07-.2-.1-.3-.08-.2-.15-.3c-.03-.1-.08-.2-.15-.3s-.13-.2-.2-.3c.03-.07.05-.12.05-.15.03-.07.05-.12.05-.15v-.25c-.03-.03-.05-.08-.05-.15-.03-.03-.05-.07-.05-.1l-.1-.1a.483.483 0 0 1-.15-.1c.1-.07.18-.13.25-.2s.1-.13.1-.2c.03-.07.05-.13.05-.2s-.02-.13-.05-.2c-.03-.03-.1-.08-.2-.15-.07-.07-.17-.13-.3-.2-.1-.03-.23-.08-.4-.15-.13-.03-.3-.08-.5-.15l-.05-1.05 1.05-.25-1.35-.2c.03.07.05.13.05.2v.5c0 .03-.02.08-.05.15v.15c-.03.03-.05.07-.05.1 0 .07-.02.12-.05.15h-.65l.1 3.8-1.15 1.1a.483.483 0 0 1-.15-.1l-.15-.15a.654.654 0 0 0-.2-.15.483.483 0 0 0-.15-.1.654.654 0 0 0-.2-.15c-.1-.03-.18-.07-.25-.1s-.15-.07-.25-.1c-.07-.03-.15-.07-.25-.1.2.03.38.03.55 0 .13 0 .25-.02.35-.05.1-.07.18-.13.25-.2s.1-.15.1-.25-.02-.22-.05-.35-.08-.27-.15-.4c-.07-.17-.17-.33-.3-.5-.1-.2-.23-.4-.4-.6l-.2-2.45-1.25-.45.05-.95 1.75-.5-2.05-.35v.5c0 .07-.02.13-.05.2v.25s-.02.13-.05.2c0 .07-.02.13-.05.2 0 .07-.02.13-.05.2 0 .07-.02.13-.05.2h-.95c.07.27.13.55.2.85.03.27.05.53.05.8v.75c-.03.23-.07.47-.1.7-.03.2-.08.4-.15.6-.07.17-.13.32-.2.45-.03.13-.08.25-.15.35-.07.07-.13.12-.2.15l-.2.65c.1.23.18.45.25.65.03.17.07.33.1.5v.45s-.02.25-.05.35-.08.2-.15.3c-.03.1-.08.2-.15.3l-.45.45.4.4L17 22.5l-.45 1.3-.5-1.05c.07-.07.1-.15.1-.25.03-.1.03-.2 0-.3 0-.13-.05-.25-.15-.35-.07-.1-.15-.22-.25-.35s-.23-.27-.4-.4c-.13-.1-.28-.23-.45-.4-.17-.1-.35-.23-.55-.4a5.2 5.2 0 0 0-.6-.4c.07-.07.13-.12.2-.15.03-.07.08-.1.15-.1.03-.03.08-.05.15-.05h.15c.07.03.13.07.2.1l.15.15c.07.03.13.08.2.15.03.07.08.15.15.25.07-.07.12-.13.15-.2.07-.07.12-.13.15-.2s.07-.13.1-.2.05-.15.05-.25c.03-.07.05-.15.05-.25.03-.07.05-.15.05-.25v-.5l-1.7-.6-.1-1.2.4-.45-.45-.1-.5.75.05.7-.95.35c.07.03.13.08.2.15l.2.2c.03.07.08.13.15.2.03.07.05.15.05.25.03.07.05.13.05.2s-.02.13-.05.2c0 .07-.02.12-.05.15-.03.07-.08.12-.15.15l-1.6-.9c.1.3.2.58.3.85s.17.53.2.8c.07.27.12.52.15.75.03.27.07.52.1.75 0 .23-.02.45-.05.65-.03.23-.08.43-.15.6-.07.2-.15.38-.25.55-.13.17-.27.32-.4.45v.05c.03.03.05.07.05.1v.1c.03.07.03.12 0 .15v.1c-.03.07-.07.1-.1.1-.07.03-.13.03-.2 0-.07 0-.15-.02-.25-.05l.05 1.55c.17.07.33.13.5.2s.32.15.45.25c.13.07.27.15.4.25s.27.2.4.3c.1.1.2.22.3.35.1.1.2.22.3.35s.2.27.3.4c.07.13.15.27.25.4z"/></svg>